<?xml version="1.0" encoding="UTF-8"?><svg id="Layer_2" xmlns="http://www.w3.org/2000/svg" viewBox="0 0 464.47 67.66"><defs><style>.cls-1{fill:#fcad32;}.cls-2{fill:#f78100;}</style></defs><g id="Layer_1-2"><g><path class="cls-2" d="M102.02,66.67l.76-2.65c.91-3.14,.57-6.05-.96-8.19-1.43-1.97-3.75-3.12-6.6-3.26l-53.86-.68c-.58,0-1.04-.48-1.03-1.06,0-.12,.03-.25,.07-.36,.19-.54,.68-.92,1.25-.96l54.38-.71c6.42-.29,13.44-5.53,15.88-11.92l3.1-8.1c.09-.23,.13-.47,.13-.71,0-.13-.02-.26-.04-.39C110.82,8.59,91.88-3.41,72.79,.86c-12.04,2.7-21.81,11.47-25.79,23.15-7.06-5.25-17.05-3.78-22.3,3.28-2.86,3.85-3.84,8.77-2.66,13.42C9.55,41.04-.32,51.43,0,63.93c.02,.93,.1,1.85,.24,2.77,.07,.52,.51,.9,1.03,.91H100.76c.58,0,1.09-.37,1.26-.93Z"/><path class="cls-1" d="M119.97,29.4c-.48,0-.97,.01-1.5,.04-.08,0-.16,.02-.23,.05-.26,.09-.47,.3-.54,.57l-2.14,7.32c-.91,3.14-.58,6.05,.96,8.19,1.57,2.05,4.01,3.26,6.59,3.26l11.49,.71c.33,.01,.63,.17,.81,.44,.2,.29,.24,.65,.12,.98-.19,.54-.68,.92-1.25,.96l-11.93,.71c-6.48,.3-13.46,5.53-15.91,11.91l-.86,2.25c-.13,.33,.04,.7,.37,.83,.06,.02,.13,.04,.19,.04h41.1c.52,.01,.97-.33,1.1-.83,4.39-15.68-4.77-31.95-20.45-36.34-2.57-.72-5.23-1.09-7.91-1.09h-.01Z"/><polygon points="194.72 42.6 201.51 42.6 201.51 61.18 213.4 61.18 213.4 67.14 194.72 67.14 194.72 42.6"/><path d="M220.45,54.96v-.06c0-7.05,5.71-12.77,13.25-12.77s13.18,5.65,13.18,12.69v.07c0,7.05-5.71,12.76-13.25,12.76s-13.18-5.67-13.18-12.69m19.49,0v-.06c0-3.57-2.56-6.63-6.31-6.63s-6.2,3.01-6.2,6.55v.07c0,3.57,2.56,6.63,6.28,6.63s6.24-3.02,6.24-6.56"/><path d="M255.2,56.39v-13.79h6.91v13.64c0,3.57,1.78,5.23,4.52,5.23s4.52-1.61,4.52-5.05v-13.81h6.9v13.6c0,7.92-4.52,11.41-11.5,11.41s-11.36-3.57-11.36-11.22"/><path d="M288.47,42.6h9.46c8.76,0,13.85,5.05,13.85,12.12v.07c0,7.08-5.16,12.34-13.98,12.34h-9.33v-24.53Zm9.57,18.54c4.06,0,6.77-2.25,6.77-6.21v-.06c0-3.93-2.7-6.21-6.77-6.21h-2.79v12.46l2.79,.03Z"/><polygon points="321.66 42.6 341.29 42.6 341.29 48.56 328.47 48.56 328.47 52.73 340.07 52.73 340.07 58.37 328.47 58.37 328.47 67.14 321.66 67.14 321.66 42.6"/><polygon points="350.76 42.6 357.56 42.6 357.56 61.18 369.45 61.18 369.45 67.14 350.76 67.14 350.76 42.6"/><path d="M387.25,42.42h6.55l10.42,24.71h-7.29l-1.79-4.38h-9.47l-1.75,4.38h-7.13l10.45-24.71Zm5.95,15.03l-2.73-6.97-2.8,6.97h5.53Z"/><path d="M412.98,42.6h11.6c3.76,0,6.35,.98,7.99,2.67,1.49,1.51,2.28,3.58,2.18,5.71v.07c.11,3.34-1.92,6.37-5.05,7.54l5.85,8.56h-7.84l-4.95-7.43h-2.98v7.43h-6.8v-24.54Zm11.29,11.78c2.32,0,3.65-1.13,3.65-2.91v-.07c0-1.93-1.43-2.91-3.69-2.91h-4.45v5.89h4.49Z"/><polygon points="444.56 42.6 464.3 42.6 464.3 48.38 451.29 48.38 451.29 52.09 463.07 52.09 463.07 57.46 451.29 57.46 451.29 61.35 464.47 61.35 464.47 67.14 444.56 67.14 444.56 42.6"/><path d="M179.83,57.81c-.95,2.26-3.17,3.71-5.62,3.68-3.72,0-6.28-3.09-6.28-6.63v-.07c0-3.57,2.49-6.56,6.2-6.56,2.61-.02,4.95,1.62,5.83,4.07h7.13c-1.11-5.84-6.24-10.18-12.89-10.18-7.57,0-13.25,5.71-13.25,12.77v.07c0,7.05,5.61,12.69,13.18,12.69,6.48,0,11.54-4.19,12.87-9.81l-7.18-.03Z"/></g></g></svg>