<?xml version="1.0" encoding="UTF-8"?><svg id="Layer_2" xmlns="http://www.w3.org/2000/svg" xmlns:xlink="http://www.w3.org/1999/xlink" viewBox="0 0 297.67 58.58"><defs><style>.cls-1{fill:url(#linear-gradient-2);}.cls-2{fill:url(#linear-gradient-3);}.cls-3{fill:url(#linear-gradient);}</style><linearGradient id="linear-gradient" x1="0" y1="51.29" x2="74.75" y2="51.29" gradientUnits="userSpaceOnUse"><stop offset="0" stop-color="#9945ff"/><stop offset=".2" stop-color="#7962e7"/><stop offset="1" stop-color="#00d18c"/></linearGradient><linearGradient id="linear-gradient-2" y1="7.28" y2="7.28" xlink:href="#linear-gradient"/><linearGradient id="linear-gradient-3" y1="29.14" x2="74.75" y2="29.14" xlink:href="#linear-gradient"/></defs><g id="Layer_1-2"><g><g><path d="M102.85,26.53s-.01,0-.01-.01,0-.01-.01-.01h-12.72c-1.66,0-3.01-1.36-3.01-3.02s1.35-3.02,3.01-3.02h14.22c.23,0,.46-.09,.63-.24l4-3.71c.63-.59,.21-1.63-.63-1.63h-18.21c-4.73,0-8.57,3.85-8.57,8.61s3.84,8.61,8.57,8.61h12.05c1.66,0,3.01,1.36,3.01,3.02s-1.35,3.02-3.01,3.02h-14.25c-.23,0-.44,.09-.6,.23l-4.3,3.71c-.66,.57-.26,1.65,.6,1.65h17.83s.01,0,.01-.01,.01-.01,.01-.01c.23,.01,.44,.03,.67,.03,4.73,0,8.57-3.85,8.57-8.61s-3.45-8.22-7.86-8.58Z"/><path d="M183.46,38.93h-18.88c-.52,0-.93-.42-.93-.95V15.78c0-.52-.42-.95-.93-.95h-3.6c-.52,.01-.93,.43-.93,.96v26.99c0,.52,.42,.95,.93,.95h21.63c.26,0,.5-.11,.69-.3l2.71-2.91c.56-.6,.14-1.59-.69-1.59Z"/><path d="M144.13,14.87h-19.64c-2.76,.11-4.98,2.33-5.11,5.1v18.38c0,2.88,2.26,5.23,5.11,5.34h19.62c2.84-.13,5.11-2.48,5.11-5.34V19.98c-.11-2.76-2.33-5-5.1-5.11Zm-.47,19.75v.14c0,1.8-1.42,3.29-3.19,3.37h-12.3c-1.78-.07-3.19-1.56-3.19-3.37v-11.56c.07-1.75,1.46-3.15,3.19-3.22h12.3c1.73,.09,3.12,1.48,3.19,3.22v11.42Z"/><path d="M216.06,14.88h-19.06c-2.92,0-5.29,2.39-5.29,5.36v22.56c0,.52,.42,.95,.93,.95h3.67c.52,0,.93-.42,.93-.95v-9.3c0-.52,.42-.95,.93-.95h16.53c.52,0,.93,.42,.93,.95v9.28h-.04c0,.52,.42,.95,.93,.95h3.67c.52,0,.93-.42,.93-.95V20.23c0-2.88-2.25-5.23-5.06-5.34Zm-.46,12.53c0,.52-.42,.95-.93,.95h-16.53c-.52,0-.93-.42-.93-.95v-4.64c0-1.8,1.45-3.27,3.22-3.27h11.95c1.78,0,3.22,1.46,3.22,3.27v4.64Z"/><path d="M292.55,14.87h-19.27c-2.95,0-5.34,2.41-5.34,5.36v22.56c0,.53,.42,.95,.93,.95h3.7c.52,0,.93-.43,.93-.95v-9.3c0-.53,.42-.95,.93-.95h16.72c.52,0,.93,.43,.93,.95v9.3c0,.53,.42,.95,.93,.95h0s3.72-.01,3.72-.01c.52,0,.93-.43,.93-.95V20.21c0-2.86-2.28-5.21-5.11-5.34Zm-.47,12.55c0,.53-.42,.95-.93,.95h-16.72c-.52,0-.93-.43-.93-.95v-4.64c0-1.8,1.45-3.27,3.25-3.27h12.07c1.79,0,3.25,1.46,3.25,3.27v4.64Z"/><path d="M258.3,14.85h-3.67c-.52,0-.93,.43-.93,.95v18.38c0,.87-1.07,1.27-1.63,.62l-16.44-19.61c-.17-.21-.43-.33-.7-.33h-4.21c-.52,0-.93,.43-.93,.95v27c0,.53,.42,.95,.93,.95h3.7c.52,0,.93-.43,.93-.95V24.82c0-.86,1.07-1.27,1.63-.62l16.73,19.47s.01,.01,.01,.03,.01,.03,.03,.03h4.55c.52,0,.93-.43,.93-.95V15.8c0-.53-.42-.95-.93-.95Z"/></g><g><path class="cls-3" d="M73.53,44H13.87c-.64,0-1.26,.26-1.72,.72L.36,56.51c-.77,.76-.23,2.08,.86,2.08H60.88c.64,0,1.26-.26,1.72-.72l11.79-11.79c.77-.76,.23-2.08-.86-2.08Z"/><path class="cls-1" d="M73.53,0H13.87c-.64,0-1.26,.26-1.72,.72L.36,12.49c-.77,.76-.23,2.08,.86,2.08H60.88c.64,0,1.26-.26,1.72-.72l11.79-11.77c.77-.76,.23-2.08-.86-2.08Z"/><path class="cls-2" d="M62.6,22.57c-.46-.46-1.07-.72-1.72-.72H1.22c-1.09,0-1.63,1.32-.86,2.08l11.79,11.77c.46,.46,1.07,.72,1.72,.72h59.66c1.09,0,1.63-1.32,.86-2.08l-11.79-11.77Z"/></g></g></g></svg>