<svg id="Layer_1" data-name="Layer 1" xmlns="http://www.w3.org/2000/svg" width="1425.56" height="1080" viewBox="0 0 1425.56 1080"><defs><style>.cls-1{fill:#625ea8;}</style></defs><path class="cls-1" d="M4.19,327.21l-.1-.37c-1-3.84-1.86-7.8-2.5-11.76l0-.11.08-.08L140.93,175.62H141c4,.64,7.91,1.49,11.75,2.51l.38.1ZM2,315.13c.62,3.77,1.42,7.55,2.38,11.22L152.31,178.47c-3.68-1-7.45-1.76-11.23-2.38Z"/><path class="cls-1" d="M7.64,338l-.12-.32c-1.28-3.47-2.44-7.11-3.43-10.84l0-.12L152.67,178.11l.12,0c3.73,1,7.37,2.14,10.84,3.43l.33.12-.25.24ZM4.56,326.85c1,3.55,2,7,3.26,10.35L163.15,181.86c-3.32-1.21-6.79-2.31-10.35-3.26Z"/><path class="cls-1" d="M35.49,381.33l-.16-.15c-2.28-2.3-4.57-4.81-6.8-7.46l-.13-.16.14-.14,171-171,.15.14c2.66,2.23,5.17,4.52,7.46,6.8l.16.16ZM29,373.59c2.13,2.52,4.32,4.92,6.49,7.11L206.66,209.54c-2.2-2.18-4.59-4.36-7.12-6.49Z"/><path class="cls-1" d="M28.68,373.9l-.15-.18c-2.11-2.51-4.2-5.22-6.21-8.05l-.11-.16L191.47,196.26l.15.11c2.83,2,5.54,4.09,8,6.21l.19.15-.17.17Zm-5.89-8.34c1.92,2.7,3.91,5.28,5.92,7.69L199.2,202.76c-2.4-2-5-4-7.69-5.92Z"/><path class="cls-1" d="M16.86,357.26l-.15-.25c-1.84-3.14-3.51-6.27-5-9.31l-.06-.14.11-.11L173.52,185.73l.14.07c3,1.45,6.17,3.12,9.3,5l.25.15Zm-4.64-9.61c1.39,2.91,3,5.89,4.73,8.88L182.49,191c-3-1.75-6-3.34-8.88-4.73Z"/><path class="cls-1" d="M22.47,365.88l-.15-.21c-2-2.83-3.89-5.75-5.61-8.66l-.08-.15L182.81,190.67l.15.09c2.92,1.72,5.83,3.6,8.66,5.61l.21.15Zm-5.28-8.95c1.64,2.78,3.43,5.56,5.34,8.26L191.15,196.58c-2.71-1.91-5.48-3.71-8.27-5.35Z"/><path class="cls-1" d="M11.89,348l-.14-.29c-1.56-3.28-3-6.65-4.23-10l0-.14,156-156,.13,0c3.37,1.24,6.75,2.67,10,4.23l.28.14-.22.22ZM8,337.66c1.19,3.21,2.55,6.43,4,9.57L173.18,186.07c-3.14-1.49-6.35-2.84-9.57-4Z"/><path class="cls-1" d="M8,252.26l.39-1A121.91,121.91,0,0,1,77.22,182.4l1-.39Zm68.41-69A121.51,121.51,0,0,0,9.17,250.43Z"/><path class="cls-1" d="M2.24,272.22l.15-.72a119.8,119.8,0,0,1,6-20.23l.05-.08,68.77-68.77,0,0a122,122,0,0,1,20.23-6l.72-.14-.52.52Zm6.51-20.75A121.12,121.12,0,0,0,3,270.86L96.81,177a120.4,120.4,0,0,0-19.39,5.78Z"/><path class="cls-1" d="M1.66,315.51l-.07-.43a121.43,121.43,0,0,1-1.4-12.86v-.1l.07-.07L128.07,174.23h.1A124.55,124.55,0,0,1,141,175.63l.43.07Zm-1-13.22A121,121,0,0,0,2,314.58L140.54,176a121.57,121.57,0,0,0-12.29-1.31Z"/><path class="cls-1" d="M.22,302.72l0-.5c-.13-2.37-.19-4.56-.19-6.69,0-2.32.08-4.75.26-7.65v-.08l.06-.06L113.75,174.32h.09c2.9-.18,5.33-.26,7.65-.26,2.13,0,4.31.06,6.68.19l.5,0ZM.7,288c-.17,2.86-.25,5.26-.25,7.54,0,2,0,4,.16,6.16l127-127c-2.17-.11-4.19-.17-6.16-.17-2.29,0-4.69.08-7.54.26Z"/><path class="cls-1" d="M.23,288.47l0-.59A122.79,122.79,0,0,1,2.39,271.5v-.07l95-95,.07,0a122.72,122.72,0,0,1,16.39-2.12l.58,0Zm2.58-16.82A120.64,120.64,0,0,0,.75,287.32L113.27,174.79a121.1,121.1,0,0,0-15.67,2.07Z"/><path class="cls-1" d="M114,416.76h-.1a126.31,126.31,0,0,1-12.78-1.48l-.42-.08L241.16,274.69l.07.43a120.83,120.83,0,0,1,1.48,12.78v.1Zm-12.38-1.85c4.05.67,8.16,1.14,12.21,1.4L242.26,287.83c-.26-4.05-.73-8.16-1.4-12.21Z"/><path class="cls-1" d="M121.49,417c-2.32,0-4.75-.09-7.64-.26l-.49,0L242.68,287.41l0,.49c.18,2.89.26,5.32.26,7.63,0,2.12-.06,4.26-.18,6.55v.09l-.06.06L128.12,416.83H128C125.75,417,123.6,417,121.49,417Zm-7.12-.68c2.67.16,4.94.23,7.12.23s4.19-.05,6.44-.17L242.35,302c.12-2.25.18-4.35.18-6.44s-.08-4.44-.23-7.11Z"/><path class="cls-1" d="M127.45,416.87,242.82,301.5l0,.58a122.29,122.29,0,0,1-2,16.25l0,.07,0,0-96.39,96.4h-.07a122.13,122.13,0,0,1-16.25,2ZM242.32,302.64,128.59,416.36a123.27,123.27,0,0,0,15.54-1.93l96.25-96.25A121.72,121.72,0,0,0,242.32,302.64Z"/><path class="cls-1" d="M143.57,415l.51-.51,96.86-96.86-.13.71a121.53,121.53,0,0,1-5.53,19.79l-.05.08-71.11,71.11-.05,0a121.22,121.22,0,0,1-19.79,5.52Zm96.66-96-95.32,95.32a121.29,121.29,0,0,0,19-5.35l71-71A120.21,120.21,0,0,0,240.23,319Z"/><path class="cls-1" d="M163.11,409.69l72.53-72.53-.36,1a121.53,121.53,0,0,1-71.21,71.21Zm71.39-70.76-69.62,69.61A121.11,121.11,0,0,0,234.5,338.93Z"/><path class="cls-1" d="M101.18,415.3l-.11,0c-3.94-.67-7.87-1.54-11.69-2.58l-.36-.1.27-.27L238.55,263.06l.1.37c1,3.82,1.91,7.75,2.58,11.69l0,.11Zm-11.31-2.93c3.65,1,7.4,1.81,11.16,2.45L240.77,275.08c-.64-3.76-1.46-7.51-2.45-11.16Z"/><path class="cls-1" d="M59.51,400l-.15-.09c-2.84-1.69-5.74-3.6-8.6-5.65l-.22-.16.19-.18L220.08,224.59l.15.21c2.06,2.87,4,5.77,5.66,8.61l.09.15Zm-8.28-5.95c2.74,1.95,5.5,3.77,8.21,5.39l166-166c-1.63-2.72-3.44-5.48-5.4-8.21Z"/><path class="cls-1" d="M50.91,394.39l-.15-.11c-2.76-2-5.45-4.09-8-6.26l-.18-.16.17-.17L213.81,216.62l.16.18c2.17,2.55,4.28,5.24,6.26,8l.11.16Zm-7.68-6.56c2.44,2.07,5,4.08,7.63,6l168.9-168.89c-1.9-2.63-3.9-5.2-6-7.64Z"/><path class="cls-1" d="M89.51,412.73l-.13,0c-3.68-1-7.31-2.18-10.77-3.49l-.32-.12.24-.24L235,252.33l.13.33c1.3,3.46,2.48,7.09,3.48,10.77l0,.13-.09.09Zm-10.42-3.81c3.32,1.24,6.77,2.35,10.29,3.32L238.19,263.42c-1-3.51-2.08-7-3.32-10.28Z"/><path class="cls-1" d="M42.91,388.15l-.16-.13c-2.72-2.33-5.15-4.57-7.42-6.84l-.15-.16.15-.16L207,209.22l.16.16c2.28,2.27,4.52,4.69,6.84,7.42l.13.16ZM35.81,381c2.16,2.17,4.48,4.31,7.08,6.52L213.5,216.93c-2.22-2.59-4.35-4.91-6.53-7.08Z"/><path class="cls-1" d="M78.74,409.26l-.13-.05c-3.5-1.32-6.86-2.76-10-4.27l-.28-.14L230.76,242.39l.13.28c1.52,3.13,3,6.49,4.28,10l.05.13Zm-9.64-4.59c3,1.44,6.2,2.81,9.53,4.07L234.7,252.68c-1.26-3.34-2.63-6.54-4.07-9.54Z"/><path class="cls-1" d="M68.76,405l-.14-.07c-3-1.47-6.16-3.16-9.26-5l-.24-.14.2-.21L225.74,233.16l.15.25c1.85,3.1,3.53,6.21,5,9.26l.07.14Zm-8.92-5.31c3,1.75,5.93,3.36,8.83,4.77L230.42,242.72c-1.41-2.91-3-5.88-4.77-8.84Z"/><path class="cls-1" d="M1104.85,153.17l-.1-.38c-1-3.84-1.86-7.79-2.5-11.75l0-.11.08-.09L1241.58,1.57l.12,0c4,.64,7.91,1.48,11.75,2.5l.38.1Zm-2.15-12.09c.62,3.78,1.42,7.55,2.38,11.23L1253,4.42c-3.67-1-7.44-1.76-11.22-2.38Z"/><path class="cls-1" d="M1108.3,164l-.12-.33c-1.28-3.46-2.44-7.11-3.43-10.84l0-.12L1253.33,4.06l.12,0c3.73,1,7.37,2.15,10.84,3.43l.33.12-.25.25Zm-3.08-11.16c.94,3.56,2,7,3.26,10.35L1263.81,7.82c-3.32-1.22-6.8-2.31-10.35-3.26Z"/><path class="cls-1" d="M1136.15,207.29l-.16-.16c-2.28-2.3-4.57-4.8-6.8-7.46l-.13-.15.14-.15,171-171,.16.13c2.66,2.23,5.16,4.52,7.46,6.8l.16.16Zm-6.49-7.75c2.13,2.53,4.32,4.92,6.49,7.12L1307.32,35.49c-2.2-2.17-4.59-4.35-7.12-6.49Z"/><path class="cls-1" d="M1129.34,199.86l-.15-.19c-2.12-2.51-4.21-5.22-6.21-8l-.11-.15L1292.12,22.21l.16.11c2.83,2,5.54,4.1,8,6.21l.19.15-.18.18Zm-5.89-8.35c1.92,2.7,3.91,5.29,5.92,7.69L1299.86,28.71c-2.41-2-5-4-7.69-5.92Z"/><path class="cls-1" d="M1117.52,183.21l-.15-.25c-1.84-3.13-3.51-6.26-5-9.3l-.06-.14.11-.11L1274.17,11.69l.15.06c3,1.45,6.17,3.12,9.3,5l.25.15Zm-4.64-9.6c1.39,2.9,3,5.89,4.73,8.88L1283.15,17c-3-1.75-6-3.34-8.88-4.73Z"/><path class="cls-1" d="M1123.13,191.83l-.15-.21c-2-2.83-3.89-5.74-5.61-8.66l-.08-.15L1283.47,16.63l.15.08c2.92,1.72,5.83,3.6,8.66,5.61l.21.15Zm-5.29-9c1.64,2.79,3.44,5.56,5.35,8.27L1291.81,22.53c-2.71-1.91-5.48-3.7-8.27-5.34Z"/><path class="cls-1" d="M1112.55,173.94l-.14-.28c-1.56-3.29-3-6.66-4.23-10l0-.13,156-156,.13,0c3.37,1.25,6.74,2.67,10,4.23l.28.14-.22.22Zm-3.91-10.33c1.2,3.22,2.56,6.43,4,9.57L1273.84,12c-3.14-1.48-6.35-2.84-9.57-4Z"/><path class="cls-1" d="M1108.63,78.21l.38-1a121.91,121.91,0,0,1,68.87-68.86l1-.39Zm68.41-69a121.46,121.46,0,0,0-67.21,67.21Z"/><path class="cls-1" d="M1102.9,98.17l.15-.72a121,121,0,0,1,6-20.23l0-.08,68.77-68.77h.05a120.07,120.07,0,0,1,20.23-6l.72-.15-.52.52Zm6.51-20.75a121.42,121.42,0,0,0-5.78,19.39L1197.47,3a121.42,121.42,0,0,0-19.39,5.78Z"/><path class="cls-1" d="M1102.32,141.47l-.07-.43a121.9,121.9,0,0,1-1.4-12.87v-.1l.07-.07L1228.73.19h.1a121.9,121.9,0,0,1,12.87,1.4l.43.07Zm-1-13.22a121.62,121.62,0,0,0,1.32,12.29L1241.2,2A121.62,121.62,0,0,0,1228.91.64Z"/><path class="cls-1" d="M1100.88,128.67l0-.5c-.13-2.37-.19-4.55-.19-6.68,0-2.32.08-4.75.26-7.65v-.09l.06-.06L1214.41.27h.08c2.91-.18,5.34-.26,7.65-.26,2.13,0,4.32.06,6.69.19l.5,0Zm.48-14.72c-.17,2.85-.26,5.25-.26,7.54,0,2,.06,4,.17,6.16l127-127c-2.17-.11-4.19-.16-6.17-.16-2.28,0-4.68.08-7.53.25Z"/><path class="cls-1" d="M1100.89,114.42l0-.58a121.11,121.11,0,0,1,2.13-16.39v-.07l95-95h.07A122.79,122.79,0,0,1,1214.49.26l.59,0Zm2.58-16.82a121.1,121.1,0,0,0-2.06,15.67L1213.93.75a121.1,121.1,0,0,0-15.67,2.06Z"/><path class="cls-1" d="M1214.61,242.72h-.1a120.83,120.83,0,0,1-12.78-1.48l-.43-.07,140.52-140.51.07.42a123.51,123.51,0,0,1,1.48,12.78v.1Zm-12.38-1.86c4,.67,8.16,1.14,12.21,1.4l128.48-128.48c-.26-4-.73-8.15-1.4-12.21Z"/><path class="cls-1" d="M1222.14,243c-2.31,0-4.74-.08-7.63-.26l-.49,0,129.32-129.32,0,.49c.18,2.89.26,5.32.26,7.64,0,2.11-.06,4.26-.18,6.54v.09l-.06.06L1228.78,242.79h-.09C1226.4,242.91,1224.26,243,1222.14,243Zm-7.11-.67c2.67.15,4.94.23,7.11.23s4.19-.06,6.44-.18L1343,127.93c.12-2.25.18-4.36.18-6.44s-.08-4.45-.24-7.12Z"/><path class="cls-1" d="M1228.11,242.82l115.37-115.37,0,.58a120.5,120.5,0,0,1-2,16.25v.07l0,.05L1245,240.79l-.07,0a122.29,122.29,0,0,1-16.25,2ZM1343,128.59,1229.25,242.32a121.72,121.72,0,0,0,15.54-1.94L1341,144.13A119.7,119.7,0,0,0,1343,128.59Z"/><path class="cls-1" d="M1244.23,240.94l.51-.51,96.86-96.86-.14.71a120.23,120.23,0,0,1-5.52,19.79l0,.08-71.12,71.11,0,0a121.25,121.25,0,0,1-19.79,5.53Zm96.66-96-95.32,95.32a120.21,120.21,0,0,0,19-5.35l71-71A120.21,120.21,0,0,0,1340.89,144.91Z"/><path class="cls-1" d="M1263.77,235.64l72.53-72.53-.36,1a121.5,121.5,0,0,1-71.21,71.21Zm71.38-70.76-69.61,69.62A121.11,121.11,0,0,0,1335.15,164.88Z"/><path class="cls-1" d="M1201.84,241.25l-.11,0c-3.94-.67-7.87-1.53-11.69-2.58l-.37-.1.27-.27L1339.21,89l.1.36c1,3.82,1.91,7.75,2.58,11.69l0,.11Zm-11.31-2.93c3.65,1,7.4,1.81,11.16,2.45L1341.43,101c-.64-3.76-1.46-7.51-2.45-11.16Z"/><path class="cls-1" d="M1160.17,226l-.15-.09c-2.84-1.7-5.74-3.6-8.6-5.66l-.22-.15.19-.19L1320.74,50.54l.15.22c2.06,2.86,4,5.76,5.65,8.6l.09.15Zm-8.28-6c2.74,2,5.5,3.77,8.21,5.4l166-166c-1.62-2.71-3.43-5.47-5.39-8.21Z"/><path class="cls-1" d="M1151.57,220.34l-.15-.11c-2.76-2-5.46-4.09-8-6.26l-.18-.16.17-.17L1314.47,42.57l.16.18c2.17,2.55,4.28,5.25,6.26,8l.11.15Zm-7.68-6.55c2.44,2.07,5,4.08,7.63,6l168.9-168.9c-1.9-2.63-3.9-5.19-6-7.63Z"/><path class="cls-1" d="M1190.17,238.69l-.13,0c-3.68-1-7.31-2.18-10.77-3.48L1179,235l.24-.24L1335.7,78.29l.12.32c1.31,3.46,2.48,7.09,3.49,10.77l0,.13-.1.09Zm-10.42-3.82c3.31,1.24,6.77,2.36,10.29,3.32L1338.85,89.38c-1-3.52-2.08-7-3.32-10.29Z"/><path class="cls-1" d="M1143.57,214.1l-.16-.13c-2.72-2.32-5.15-4.56-7.42-6.84l-.15-.16.15-.16L1307.63,35.18l.16.15c2.28,2.27,4.51,4.7,6.84,7.42l.13.16Zm-7.11-7.13c2.17,2.18,4.49,4.31,7.09,6.53L1314.16,42.89c-2.22-2.6-4.36-4.92-6.53-7.08Z"/><path class="cls-1" d="M1179.4,235.22l-.13-.05c-3.5-1.33-6.86-2.76-10-4.28l-.28-.13L1331.41,68.34l.14.28c1.51,3.13,3,6.49,4.27,10l0,.13Zm-9.64-4.59c3,1.44,6.2,2.81,9.53,4.07L1335.36,78.63c-1.27-3.33-2.63-6.54-4.07-9.53Z"/><path class="cls-1" d="M1169.42,231l-.14-.07c-3-1.47-6.16-3.15-9.26-5l-.24-.15.2-.2L1326.4,59.12l.14.24c1.85,3.1,3.54,6.22,5,9.26l.07.14Zm-8.92-5.31c3,1.76,5.93,3.36,8.83,4.77L1331.08,68.67c-1.41-2.9-3-5.87-4.77-8.83Z"/><rect class="cls-1" x="229.62" y="123.13" width="4.55" height="4.55" transform="translate(-20.75 200.7) rotate(-45)"/><rect class="cls-1" x="242.49" y="136" width="4.32" height="4.32" transform="translate(-26.04 213.46) rotate(-45)"/><rect class="cls-1" x="255.37" y="148.87" width="4.08" height="4.08" transform="translate(-31.32 226.21) rotate(-45)"/><rect class="cls-1" x="268.24" y="161.75" width="3.85" height="3.85" transform="translate(-36.61 238.97) rotate(-45)"/><rect class="cls-1" x="281.12" y="174.62" width="3.62" height="3.62" transform="translate(-41.89 251.73) rotate(-45)"/><rect class="cls-1" x="293.99" y="187.5" width="3.39" height="3.39" transform="translate(-47.18 264.49) rotate(-45)"/><rect class="cls-1" x="306.86" y="200.37" width="3.16" height="3.16" transform="translate(-52.46 277.25) rotate(-45)"/><rect class="cls-1" x="319.74" y="213.25" width="2.93" height="2.93" transform="translate(-57.75 290.01) rotate(-45)"/><rect class="cls-1" x="332.61" y="226.12" width="2.69" height="2.69" transform="translate(-63.03 302.77) rotate(-45)"/><rect class="cls-1" x="345.49" y="239" width="2.46" height="2.46" transform="translate(-68.32 315.53) rotate(-45)"/><rect class="cls-1" x="358.36" y="251.87" width="2.23" height="2.23" transform="translate(-73.6 328.29) rotate(-45)"/><rect class="cls-1" x="371.24" y="264.75" width="2" height="2" transform="translate(-78.89 341.05) rotate(-45)"/><rect class="cls-1" x="239.95" y="112.79" width="4.55" height="4.55" transform="translate(-10.41 204.98) rotate(-45)"/><rect class="cls-1" x="252.83" y="125.66" width="4.32" height="4.32" transform="translate(-15.7 217.74) rotate(-45)"/><rect class="cls-1" x="265.7" y="138.54" width="4.08" height="4.08" transform="translate(-20.98 230.5) rotate(-45)"/><rect class="cls-1" x="278.58" y="151.41" width="3.85" height="3.85" transform="translate(-26.27 243.26) rotate(-45)"/><rect class="cls-1" x="291.45" y="164.29" width="3.62" height="3.62" transform="translate(-31.55 256.02) rotate(-45)"/><rect class="cls-1" x="304.33" y="177.16" width="3.39" height="3.39" transform="translate(-36.84 268.78) rotate(-45)"/><rect class="cls-1" x="317.2" y="190.04" width="3.16" height="3.16" transform="translate(-42.12 281.53) rotate(-45)"/><rect class="cls-1" x="330.08" y="202.91" width="2.93" height="2.93" transform="translate(-47.41 294.29) rotate(-45)"/><rect class="cls-1" x="342.95" y="215.78" width="2.69" height="2.69" transform="translate(-52.7 307.04) rotate(-45)"/><rect class="cls-1" x="355.83" y="228.66" width="2.46" height="2.46" transform="translate(-57.98 319.81) rotate(-45)"/><rect class="cls-1" x="368.7" y="241.53" width="2.23" height="2.23" transform="translate(-63.27 332.56) rotate(-45)"/><rect class="cls-1" x="381.57" y="254.41" width="2" height="2" transform="translate(-68.55 345.33) rotate(-45)"/><rect class="cls-1" x="250.29" y="102.45" width="4.55" height="4.55" transform="translate(-0.08 209.26) rotate(-45)"/><rect class="cls-1" x="263.17" y="115.33" width="4.32" height="4.32" transform="translate(-5.36 222.02) rotate(-45)"/><rect class="cls-1" x="276.04" y="128.2" width="4.08" height="4.08" transform="translate(-10.65 234.78) rotate(-45)"/><rect class="cls-1" x="288.92" y="141.07" width="3.85" height="3.85" transform="translate(-15.93 247.54) rotate(-45)"/><rect class="cls-1" x="301.79" y="153.95" width="3.62" height="3.62" transform="translate(-21.22 260.3) rotate(-45)"/><rect class="cls-1" x="314.66" y="166.82" width="3.39" height="3.39" transform="translate(-26.5 273.06) rotate(-45)"/><rect class="cls-1" x="327.54" y="179.7" width="3.16" height="3.16" transform="translate(-31.79 285.82) rotate(-45)"/><rect class="cls-1" x="340.41" y="192.57" width="2.93" height="2.93" transform="translate(-37.07 298.58) rotate(-45)"/><rect class="cls-1" x="353.29" y="205.45" width="2.69" height="2.69" transform="translate(-42.36 311.33) rotate(-45)"/><rect class="cls-1" x="366.16" y="218.32" width="2.46" height="2.46" transform="translate(-47.64 324.09) rotate(-45)"/><rect class="cls-1" x="379.04" y="231.2" width="2.23" height="2.23" transform="translate(-52.93 336.84) rotate(-45)"/><rect class="cls-1" x="391.91" y="244.07" width="2" height="2" transform="translate(-58.21 349.61) rotate(-45)"/><rect class="cls-1" x="260.63" y="92.11" width="4.55" height="4.55" transform="translate(10.26 213.55) rotate(-45)"/><rect class="cls-1" x="273.5" y="104.99" width="4.32" height="4.32" transform="translate(4.98 226.31) rotate(-45)"/><rect class="cls-1" x="286.38" y="117.86" width="4.08" height="4.08" transform="translate(-0.31 239.07) rotate(-45)"/><rect class="cls-1" x="299.25" y="130.74" width="3.85" height="3.85" transform="translate(-5.59 251.82) rotate(-45)"/><rect class="cls-1" x="312.13" y="143.61" width="3.62" height="3.62" transform="translate(-10.88 264.58) rotate(-45)"/><rect class="cls-1" x="325" y="156.49" width="3.39" height="3.39" transform="translate(-16.16 277.34) rotate(-45)"/><rect class="cls-1" x="337.88" y="169.36" width="3.16" height="3.16" transform="translate(-21.45 290.1) rotate(-45)"/><rect class="cls-1" x="350.75" y="182.24" width="2.93" height="2.93" transform="translate(-26.73 302.86) rotate(-45)"/><rect class="cls-1" x="363.63" y="195.11" width="2.69" height="2.69" transform="translate(-32.02 315.62) rotate(-45)"/><rect class="cls-1" x="376.5" y="207.98" width="2.46" height="2.46" transform="translate(-37.3 328.37) rotate(-45)"/><rect class="cls-1" x="389.37" y="220.86" width="2.23" height="2.23" transform="translate(-42.58 341.15) rotate(-45)"/><rect class="cls-1" x="402.25" y="233.73" width="2" height="2" transform="translate(-47.87 353.89) rotate(-45)"/><rect class="cls-1" x="270.97" y="81.78" width="4.55" height="4.55" transform="translate(20.6 217.83) rotate(-45)"/><rect class="cls-1" x="283.84" y="94.65" width="4.32" height="4.32" transform="translate(15.32 230.59) rotate(-45)"/><rect class="cls-1" x="296.72" y="107.53" width="4.08" height="4.08" transform="translate(10.03 243.35) rotate(-45)"/><rect class="cls-1" x="309.59" y="120.4" width="3.85" height="3.85" transform="translate(4.75 256.11) rotate(-45)"/><rect class="cls-1" x="322.46" y="133.27" width="3.62" height="3.62" transform="translate(-0.54 268.86) rotate(-45)"/><rect class="cls-1" x="335.34" y="146.15" width="3.39" height="3.39" transform="translate(-5.82 281.63) rotate(-45)"/><rect class="cls-1" x="348.21" y="159.02" width="3.16" height="3.16" transform="translate(-11.11 294.39) rotate(-45)"/><rect class="cls-1" x="361.09" y="171.9" width="2.93" height="2.93" transform="translate(-16.4 307.14) rotate(-45)"/><rect class="cls-1" x="373.96" y="184.77" width="2.69" height="2.69" transform="translate(-21.68 319.91) rotate(-45)"/><rect class="cls-1" x="386.84" y="197.65" width="2.46" height="2.46" transform="translate(-26.97 332.66) rotate(-45)"/><rect class="cls-1" x="399.71" y="210.52" width="2.23" height="2.23" transform="translate(-32.25 345.43) rotate(-45)"/><rect class="cls-1" x="412.59" y="223.4" width="2" height="2" transform="translate(-37.54 358.17) rotate(-45)"/><rect class="cls-1" x="281.3" y="71.44" width="4.55" height="4.55" transform="translate(30.94 222.11) rotate(-45)"/><rect class="cls-1" x="294.18" y="84.31" width="4.32" height="4.32" transform="translate(25.65 234.87) rotate(-45)"/><rect class="cls-1" x="307.05" y="97.19" width="4.08" height="4.08" transform="translate(20.37 247.63) rotate(-45)"/><rect class="cls-1" x="319.93" y="110.06" width="3.85" height="3.85" transform="translate(15.08 260.39) rotate(-45)"/><rect class="cls-1" x="332.8" y="122.94" width="3.62" height="3.62" transform="translate(9.8 273.15) rotate(-45)"/><rect class="cls-1" x="345.68" y="135.81" width="3.39" height="3.39" transform="translate(4.51 285.91) rotate(-45)"/><rect class="cls-1" x="358.55" y="148.69" width="3.16" height="3.16" transform="translate(-0.77 298.66) rotate(-45)"/><rect class="cls-1" x="371.43" y="161.56" width="2.93" height="2.93" transform="translate(-6.05 311.43) rotate(-45)"/><rect class="cls-1" x="384.3" y="174.44" width="2.69" height="2.69" transform="translate(-11.34 324.18) rotate(-45)"/><rect class="cls-1" x="397.18" y="187.31" width="2.46" height="2.46" transform="translate(-16.63 336.94) rotate(-45)"/><rect class="cls-1" x="410.05" y="200.18" width="2.23" height="2.23" transform="translate(-21.91 349.7) rotate(-45)"/><rect class="cls-1" x="422.92" y="213.06" width="2" height="2" transform="translate(-27.2 362.46) rotate(-45)"/><rect class="cls-1" x="291.64" y="61.1" width="4.55" height="4.55" transform="translate(41.27 226.39) rotate(-45)"/><rect class="cls-1" x="304.52" y="73.98" width="4.32" height="4.32" transform="translate(35.99 239.15) rotate(-45)"/><rect class="cls-1" x="317.39" y="86.85" width="4.08" height="4.08" transform="translate(30.7 251.9) rotate(-45)"/><rect class="cls-1" x="330.27" y="99.73" width="3.85" height="3.85" transform="translate(25.42 264.66) rotate(-45)"/><rect class="cls-1" x="343.14" y="112.6" width="3.62" height="3.62" transform="translate(20.13 277.42) rotate(-45)"/><rect class="cls-1" x="356.01" y="125.47" width="3.39" height="3.39" transform="translate(14.85 290.18) rotate(-45)"/><rect class="cls-1" x="368.89" y="138.35" width="3.16" height="3.16" transform="translate(9.56 302.94) rotate(-45)"/><rect class="cls-1" x="381.76" y="151.22" width="2.93" height="2.93" transform="translate(4.28 315.7) rotate(-45)"/><rect class="cls-1" x="394.64" y="164.1" width="2.69" height="2.69" transform="translate(-1.01 328.46) rotate(-45)"/><rect class="cls-1" x="407.51" y="176.97" width="2.46" height="2.46" transform="translate(-6.29 341.22) rotate(-45)"/><rect class="cls-1" x="420.39" y="189.85" width="2.23" height="2.23" transform="translate(-11.58 353.98) rotate(-45)"/><rect class="cls-1" x="433.26" y="202.72" width="2" height="2" transform="translate(-16.86 366.74) rotate(-45)"/><rect class="cls-1" x="301.98" y="50.76" width="4.55" height="4.55" transform="translate(51.61 230.67) rotate(-45)"/><rect class="cls-1" x="314.85" y="63.64" width="4.32" height="4.32" transform="translate(46.33 243.43) rotate(-45)"/><rect class="cls-1" x="327.73" y="76.51" width="4.08" height="4.08" transform="translate(41.04 256.19) rotate(-45)"/><rect class="cls-1" x="340.6" y="89.39" width="3.85" height="3.85" transform="translate(35.76 268.95) rotate(-45)"/><rect class="cls-1" x="353.48" y="102.26" width="3.62" height="3.62" transform="translate(30.47 281.71) rotate(-45)"/><rect class="cls-1" x="366.35" y="115.14" width="3.39" height="3.39" transform="translate(25.19 294.47) rotate(-45)"/><rect class="cls-1" x="379.23" y="128.01" width="3.16" height="3.16" transform="translate(19.9 307.22) rotate(-45)"/><rect class="cls-1" x="392.1" y="140.89" width="2.93" height="2.93" transform="translate(14.61 319.98) rotate(-45)"/><rect class="cls-1" x="404.98" y="153.76" width="2.69" height="2.69" transform="translate(9.33 332.74) rotate(-45)"/><rect class="cls-1" x="417.85" y="166.64" width="2.46" height="2.46" transform="translate(4.05 345.5) rotate(-45)"/><rect class="cls-1" x="430.72" y="179.51" width="2.23" height="2.23" transform="translate(-1.24 358.26) rotate(-45)"/><rect class="cls-1" x="443.6" y="192.38" width="2" height="2" transform="translate(-6.52 371.02) rotate(-45)"/><rect class="cls-1" x="312.32" y="40.43" width="4.55" height="4.55" transform="translate(61.94 234.95) rotate(-45)"/><rect class="cls-1" x="325.19" y="53.3" width="4.32" height="4.32" transform="translate(56.66 247.71) rotate(-45)"/><rect class="cls-1" x="338.07" y="66.18" width="4.08" height="4.08" transform="translate(51.37 260.47) rotate(-45)"/><rect class="cls-1" x="350.94" y="79.05" width="3.85" height="3.85" transform="translate(46.09 273.23) rotate(-45)"/><rect class="cls-1" x="363.81" y="91.92" width="3.62" height="3.62" transform="translate(40.81 285.99) rotate(-45)"/><rect class="cls-1" x="376.69" y="104.8" width="3.39" height="3.39" transform="translate(35.52 298.75) rotate(-45)"/><rect class="cls-1" x="389.56" y="117.67" width="3.16" height="3.16" transform="translate(30.24 311.51) rotate(-45)"/><rect class="cls-1" x="402.44" y="130.55" width="2.93" height="2.93" transform="translate(24.95 324.26) rotate(-45)"/><rect class="cls-1" x="415.31" y="143.42" width="2.69" height="2.69" transform="translate(19.67 337.02) rotate(-45)"/><rect class="cls-1" x="428.19" y="156.3" width="2.46" height="2.46" transform="translate(14.38 349.78) rotate(-45)"/><rect class="cls-1" x="441.06" y="169.17" width="2.23" height="2.23" transform="translate(9.1 362.54) rotate(-45)"/><rect class="cls-1" x="453.94" y="182.05" width="2" height="2" transform="translate(3.81 375.3) rotate(-45)"/><rect class="cls-1" x="322.65" y="30.09" width="4.55" height="4.55" transform="translate(72.29 239.24) rotate(-45)"/><rect class="cls-1" x="335.53" y="42.96" width="4.32" height="4.32" transform="translate(67 252) rotate(-45)"/><rect class="cls-1" x="348.4" y="55.84" width="4.08" height="4.08" transform="translate(61.72 264.76) rotate(-45)"/><rect class="cls-1" x="361.28" y="68.71" width="3.85" height="3.85" transform="translate(56.43 277.52) rotate(-45)"/><rect class="cls-1" x="374.15" y="81.59" width="3.62" height="3.62" transform="translate(51.15 290.27) rotate(-45)"/><rect class="cls-1" x="387.03" y="94.46" width="3.39" height="3.39" transform="translate(45.87 303.04) rotate(-45)"/><rect class="cls-1" x="399.9" y="107.34" width="3.16" height="3.16" transform="translate(40.58 315.79) rotate(-45)"/><rect class="cls-1" x="412.78" y="120.21" width="2.93" height="2.93" transform="translate(35.29 328.55) rotate(-45)"/><rect class="cls-1" x="425.65" y="133.09" width="2.69" height="2.69" transform="translate(30.01 341.31) rotate(-45)"/><rect class="cls-1" x="438.52" y="145.96" width="2.46" height="2.46" transform="translate(24.72 354.06) rotate(-45)"/><rect class="cls-1" x="451.4" y="158.84" width="2.23" height="2.23" transform="translate(19.44 366.83) rotate(-45)"/><rect class="cls-1" x="464.27" y="171.71" width="2" height="2" transform="translate(14.14 379.57) rotate(-45)"/><rect class="cls-1" x="332.99" y="19.75" width="4.55" height="4.55" transform="translate(82.63 243.52) rotate(-45)"/><rect class="cls-1" x="345.87" y="32.63" width="4.32" height="4.32" transform="translate(77.34 256.28) rotate(-45)"/><rect class="cls-1" x="358.74" y="45.5" width="4.08" height="4.08" transform="translate(72.06 269.04) rotate(-45)"/><rect class="cls-1" x="371.61" y="58.38" width="3.85" height="3.85" transform="translate(66.77 281.8) rotate(-45)"/><rect class="cls-1" x="384.49" y="71.25" width="3.62" height="3.62" transform="translate(61.49 294.56) rotate(-45)"/><rect class="cls-1" x="397.36" y="84.12" width="3.39" height="3.39" transform="translate(56.2 307.32) rotate(-45)"/><rect class="cls-1" x="410.24" y="97" width="3.16" height="3.16" transform="translate(50.92 320.08) rotate(-45)"/><rect class="cls-1" x="423.11" y="109.87" width="2.93" height="2.93" transform="translate(45.63 332.84) rotate(-45)"/><rect class="cls-1" x="435.99" y="122.75" width="2.69" height="2.69" transform="translate(40.35 345.6) rotate(-45)"/><rect class="cls-1" x="448.86" y="135.62" width="2.46" height="2.46" transform="translate(35.06 358.35) rotate(-45)"/><rect class="cls-1" x="461.74" y="148.5" width="2.23" height="2.23" transform="translate(29.78 371.12) rotate(-45)"/><rect class="cls-1" x="474.61" y="161.37" width="2" height="2" transform="translate(24.49 383.87) rotate(-45)"/><rect class="cls-1" x="343.33" y="9.41" width="4.55" height="4.55" transform="translate(92.97 247.81) rotate(-45)"/><rect class="cls-1" x="356.2" y="22.29" width="4.32" height="4.32" transform="translate(87.68 260.56) rotate(-45)"/><rect class="cls-1" x="369.08" y="35.16" width="4.08" height="4.08" transform="translate(82.39 273.32) rotate(-45)"/><rect class="cls-1" x="381.95" y="48.04" width="3.85" height="3.85" transform="translate(77.11 286.08) rotate(-45)"/><rect class="cls-1" x="394.83" y="60.91" width="3.62" height="3.62" transform="translate(71.82 298.84) rotate(-45)"/><rect class="cls-1" x="407.7" y="73.79" width="3.39" height="3.39" transform="translate(66.54 311.6) rotate(-45)"/><rect class="cls-1" x="420.58" y="86.66" width="3.16" height="3.16" transform="translate(61.25 324.35) rotate(-45)"/><rect class="cls-1" x="433.45" y="99.54" width="2.93" height="2.93" transform="translate(55.97 337.12) rotate(-45)"/><rect class="cls-1" x="446.32" y="112.41" width="2.69" height="2.69" transform="translate(50.68 349.87) rotate(-45)"/><rect class="cls-1" x="459.2" y="125.29" width="2.46" height="2.46" transform="translate(45.4 362.64) rotate(-45)"/><rect class="cls-1" x="472.07" y="138.16" width="2.23" height="2.23" transform="translate(40.11 375.4) rotate(-45)"/><rect class="cls-1" x="484.95" y="151.03" width="2" height="2" transform="translate(34.84 388.16) rotate(-45)"/><rect class="cls-1" x="491.18" y="1074.51" width="4.55" height="4.55" transform="translate(-623.82 683.5) rotate(-45.99)"/><rect class="cls-1" x="503.83" y="1061.65" width="4.32" height="4.32" transform="translate(-610.66 688.56) rotate(-45.99)"/><rect class="cls-1" x="516.48" y="1048.79" width="4.08" height="4.08" transform="translate(-597.5 693.6) rotate(-45.99)"/><rect class="cls-1" x="529.14" y="1035.93" width="3.85" height="3.85" transform="translate(-584.34 698.66) rotate(-45.99)"/><rect class="cls-1" x="541.79" y="1023.07" width="3.62" height="3.62" transform="translate(-571.18 703.71) rotate(-45.99)"/><rect class="cls-1" x="554.44" y="1010.21" width="3.39" height="3.39" transform="translate(-558.03 708.79) rotate(-45.99)"/><rect class="cls-1" x="567.09" y="997.34" width="3.16" height="3.16" transform="translate(-544.87 713.85) rotate(-45.99)"/><rect class="cls-1" x="579.75" y="984.48" width="2.93" height="2.93" transform="translate(-531.71 718.91) rotate(-45.99)"/><rect class="cls-1" x="592.4" y="971.62" width="2.69" height="2.69" transform="translate(-518.55 723.96) rotate(-45.99)"/><rect class="cls-1" x="605.05" y="958.76" width="2.46" height="2.46" transform="translate(-505.39 729.02) rotate(-45.99)"/><rect class="cls-1" x="617.7" y="945.9" width="2.23" height="2.23" transform="translate(-492.23 734.07) rotate(-45.99)"/><rect class="cls-1" x="630.36" y="933.04" width="2" height="2" transform="translate(-479.07 739.13) rotate(-45.99)"/><rect class="cls-1" x="480.66" y="1064.35" width="4.55" height="4.55" transform="translate(-619.72 672.85) rotate(-45.99)"/><rect class="cls-1" x="493.32" y="1051.49" width="4.32" height="4.32" transform="translate(-606.56 677.9) rotate(-45.99)"/><rect class="cls-1" x="505.97" y="1038.63" width="4.08" height="4.08" transform="translate(-593.41 682.96) rotate(-45.99)"/><rect class="cls-1" x="518.62" y="1025.77" width="3.85" height="3.85" transform="translate(-580.25 688.02) rotate(-45.99)"/><rect class="cls-1" x="531.27" y="1012.91" width="3.62" height="3.62" transform="translate(-567.09 693.07) rotate(-45.99)"/><rect class="cls-1" x="543.93" y="1000.05" width="3.39" height="3.39" transform="translate(-553.93 698.13) rotate(-45.99)"/><rect class="cls-1" x="556.58" y="987.19" width="3.16" height="3.16" transform="translate(-540.77 703.19) rotate(-45.99)"/><rect class="cls-1" x="569.23" y="974.33" width="2.93" height="2.93" transform="translate(-527.61 708.24) rotate(-45.99)"/><rect class="cls-1" x="581.88" y="961.46" width="2.69" height="2.69" transform="translate(-514.44 713.27) rotate(-45.99)"/><rect class="cls-1" x="594.54" y="948.6" width="2.46" height="2.46" transform="translate(-501.29 718.36) rotate(-45.99)"/><rect class="cls-1" x="607.19" y="935.74" width="2.23" height="2.23" transform="translate(-488.13 723.37) rotate(-45.99)"/><rect class="cls-1" x="619.84" y="922.88" width="2" height="2" transform="translate(-474.97 728.47) rotate(-45.99)"/><rect class="cls-1" x="470.15" y="1054.2" width="4.55" height="4.55" transform="translate(-615.62 662.17) rotate(-45.99)"/><rect class="cls-1" x="482.8" y="1041.34" width="4.32" height="4.32" transform="translate(-602.47 667.25) rotate(-45.99)"/><rect class="cls-1" x="495.45" y="1028.47" width="4.08" height="4.08" transform="translate(-589.31 672.3) rotate(-45.99)"/><rect class="cls-1" x="508.11" y="1015.61" width="3.85" height="3.85" transform="translate(-576.15 677.35) rotate(-45.99)"/><rect class="cls-1" x="520.76" y="1002.75" width="3.62" height="3.62" transform="translate(-562.99 682.41) rotate(-45.99)"/><rect class="cls-1" x="533.41" y="989.89" width="3.39" height="3.39" transform="translate(-549.83 687.47) rotate(-45.99)"/><rect class="cls-1" x="546.07" y="977.03" width="3.16" height="3.16" transform="translate(-536.67 692.53) rotate(-45.99)"/><rect class="cls-1" x="558.72" y="964.17" width="2.93" height="2.93" transform="translate(-523.51 697.58) rotate(-45.99)"/><rect class="cls-1" x="571.37" y="951.31" width="2.69" height="2.69" transform="translate(-510.36 702.64) rotate(-45.99)"/><rect class="cls-1" x="584.02" y="938.45" width="2.46" height="2.46" transform="translate(-497.2 707.69) rotate(-45.99)"/><rect class="cls-1" x="596.68" y="925.58" width="2.23" height="2.23" transform="translate(-484.03 712.71) rotate(-45.99)"/><rect class="cls-1" x="609.33" y="912.72" width="2" height="2" transform="translate(-470.88 717.81) rotate(-45.99)"/><rect class="cls-1" x="459.64" y="1044.04" width="4.55" height="4.55" transform="translate(-611.54 651.55) rotate(-45.99)"/><rect class="cls-1" x="472.29" y="1031.18" width="4.32" height="4.32" transform="translate(-598.38 656.6) rotate(-45.99)"/><rect class="cls-1" x="484.94" y="1018.32" width="4.08" height="4.08" transform="translate(-585.22 661.66) rotate(-45.99)"/><rect class="cls-1" x="497.59" y="1005.46" width="3.85" height="3.85" transform="translate(-572.05 666.69) rotate(-45.99)"/><rect class="cls-1" x="510.25" y="992.59" width="3.62" height="3.62" transform="translate(-558.89 671.75) rotate(-45.99)"/><rect class="cls-1" x="522.9" y="979.73" width="3.39" height="3.39" transform="translate(-545.74 676.81) rotate(-45.99)"/><rect class="cls-1" x="535.55" y="966.87" width="3.16" height="3.16" transform="translate(-532.58 681.86) rotate(-45.99)"/><rect class="cls-1" x="548.2" y="954.01" width="2.93" height="2.93" transform="translate(-519.42 686.92) rotate(-45.99)"/><rect class="cls-1" x="560.86" y="941.15" width="2.69" height="2.69" transform="translate(-506.26 691.98) rotate(-45.99)"/><rect class="cls-1" x="573.51" y="928.29" width="2.46" height="2.46" transform="translate(-493.1 697.03) rotate(-45.99)"/><rect class="cls-1" x="586.16" y="915.43" width="2.23" height="2.23" transform="translate(-479.95 702.12) rotate(-45.99)"/><rect class="cls-1" x="598.81" y="902.57" width="2" height="2" transform="translate(-466.78 707.15) rotate(-45.99)"/><rect class="cls-1" x="449.12" y="1033.88" width="4.55" height="4.55" transform="translate(-607.44 640.88) rotate(-45.99)"/><rect class="cls-1" x="461.77" y="1021.02" width="4.32" height="4.32" transform="translate(-594.28 645.94) rotate(-45.99)"/><rect class="cls-1" x="474.43" y="1008.16" width="4.08" height="4.08" transform="translate(-581.12 651) rotate(-45.99)"/><rect class="cls-1" x="487.08" y="995.3" width="3.85" height="3.85" transform="translate(-567.96 656.05) rotate(-45.99)"/><rect class="cls-1" x="499.73" y="982.44" width="3.62" height="3.62" transform="translate(-554.8 661.1) rotate(-45.99)"/><rect class="cls-1" x="512.38" y="969.58" width="3.39" height="3.39" transform="translate(-541.65 666.17) rotate(-45.99)"/><rect class="cls-1" x="525.04" y="956.71" width="3.16" height="3.16" transform="translate(-528.49 671.23) rotate(-45.99)"/><rect class="cls-1" x="537.69" y="943.85" width="2.93" height="2.93" transform="translate(-515.32 676.26) rotate(-45.99)"/><rect class="cls-1" x="550.34" y="930.99" width="2.69" height="2.69" transform="translate(-502.17 681.34) rotate(-45.99)"/><rect class="cls-1" x="563" y="918.13" width="2.46" height="2.46" transform="translate(-489 686.37) rotate(-45.99)"/><rect class="cls-1" x="575.65" y="905.27" width="2.23" height="2.23" transform="translate(-475.85 691.46) rotate(-45.99)"/><rect class="cls-1" x="588.3" y="892.41" width="2" height="2" transform="translate(-462.69 696.48) rotate(-45.99)"/><rect class="cls-1" x="438.61" y="1023.72" width="4.55" height="4.55" transform="translate(-603.35 630.22) rotate(-45.99)"/><rect class="cls-1" x="451.26" y="1010.86" width="4.32" height="4.32" transform="translate(-590.19 635.28) rotate(-45.99)"/><rect class="cls-1" x="463.91" y="998" width="4.08" height="4.08" transform="translate(-577.03 640.34) rotate(-45.99)"/><rect class="cls-1" x="476.57" y="985.14" width="3.85" height="3.85" transform="translate(-563.87 645.39) rotate(-45.99)"/><rect class="cls-1" x="489.22" y="972.28" width="3.62" height="3.62" transform="translate(-550.71 650.44) rotate(-45.99)"/><rect class="cls-1" x="501.87" y="959.42" width="3.39" height="3.39" transform="translate(-537.55 655.51) rotate(-45.99)"/><rect class="cls-1" x="514.52" y="946.56" width="3.16" height="3.16" transform="translate(-524.38 660.54) rotate(-45.99)"/><rect class="cls-1" x="527.18" y="933.7" width="2.93" height="2.93" transform="translate(-511.23 665.62) rotate(-45.99)"/><rect class="cls-1" x="539.83" y="920.83" width="2.69" height="2.69" transform="translate(-498.07 670.65) rotate(-45.99)"/><rect class="cls-1" x="552.48" y="907.97" width="2.46" height="2.46" transform="translate(-484.91 675.71) rotate(-45.99)"/><rect class="cls-1" x="565.13" y="895.11" width="2.23" height="2.23" transform="translate(-471.75 680.77) rotate(-45.99)"/><rect class="cls-1" x="577.79" y="882.25" width="2" height="2" transform="translate(-458.59 685.82) rotate(-45.99)"/><rect class="cls-1" x="428.09" y="1013.57" width="4.55" height="4.55" transform="translate(-599.24 619.52) rotate(-45.99)"/><rect class="cls-1" x="440.75" y="1000.7" width="4.32" height="4.32" transform="translate(-586.08 624.58) rotate(-45.99)"/><rect class="cls-1" x="453.4" y="987.84" width="4.08" height="4.08" transform="translate(-572.92 629.64) rotate(-45.99)"/><rect class="cls-1" x="466.05" y="974.98" width="3.85" height="3.85" transform="translate(-559.76 634.69) rotate(-45.99)"/><rect class="cls-1" x="478.7" y="962.12" width="3.62" height="3.62" transform="translate(-546.6 639.74) rotate(-45.99)"/><rect class="cls-1" x="491.36" y="949.26" width="3.39" height="3.39" transform="translate(-533.44 644.81) rotate(-45.99)"/><rect class="cls-1" x="504.01" y="936.4" width="3.16" height="3.16" transform="translate(-520.29 649.88) rotate(-45.99)"/><rect class="cls-1" x="516.66" y="923.54" width="2.93" height="2.93" transform="translate(-507.13 654.94) rotate(-45.99)"/><rect class="cls-1" x="529.31" y="910.68" width="2.69" height="2.69" transform="translate(-493.97 659.99) rotate(-45.99)"/><rect class="cls-1" x="541.97" y="897.82" width="2.46" height="2.46" transform="translate(-480.81 665.05) rotate(-45.99)"/><rect class="cls-1" x="554.62" y="884.95" width="2.23" height="2.23" transform="translate(-467.65 670.1) rotate(-45.99)"/><rect class="cls-1" x="567.27" y="872.09" width="2" height="2" transform="translate(-454.49 675.16) rotate(-45.99)"/><rect class="cls-1" x="417.58" y="1003.41" width="4.55" height="4.55" transform="translate(-595.14 608.86) rotate(-45.99)"/><rect class="cls-1" x="430.23" y="990.55" width="4.32" height="4.32" transform="translate(-581.99 613.94) rotate(-45.99)"/><rect class="cls-1" x="442.88" y="977.69" width="4.08" height="4.08" transform="translate(-568.83 618.99) rotate(-45.99)"/><rect class="cls-1" x="455.54" y="964.83" width="3.85" height="3.85" transform="translate(-555.67 624.05) rotate(-45.99)"/><rect class="cls-1" x="468.19" y="951.96" width="3.62" height="3.62" transform="translate(-542.51 629.11) rotate(-45.99)"/><rect class="cls-1" x="480.84" y="939.1" width="3.39" height="3.39" transform="translate(-529.35 634.16) rotate(-45.99)"/><rect class="cls-1" x="493.49" y="926.24" width="3.16" height="3.16" transform="translate(-516.19 639.21) rotate(-45.99)"/><rect class="cls-1" x="506.15" y="913.38" width="2.93" height="2.93" transform="translate(-503.03 644.26) rotate(-45.99)"/><rect class="cls-1" x="518.8" y="900.52" width="2.69" height="2.69" transform="translate(-489.87 649.33) rotate(-45.99)"/><rect class="cls-1" x="531.45" y="887.66" width="2.46" height="2.46" transform="translate(-476.71 654.39) rotate(-45.99)"/><rect class="cls-1" x="544.11" y="874.8" width="2.23" height="2.23" transform="translate(-463.55 659.44) rotate(-45.99)"/><rect class="cls-1" x="556.76" y="861.94" width="2" height="2" transform="translate(-450.4 664.5) rotate(-45.99)"/><rect class="cls-1" x="407.06" y="993.25" width="4.55" height="4.55" transform="translate(-591.04 598.2) rotate(-45.99)"/><rect class="cls-1" x="419.72" y="980.39" width="4.32" height="4.32" transform="translate(-577.89 603.28) rotate(-45.99)"/><rect class="cls-1" x="432.37" y="967.53" width="4.08" height="4.08" transform="translate(-564.72 608.31) rotate(-45.99)"/><rect class="cls-1" x="445.02" y="954.67" width="3.85" height="3.85" transform="translate(-551.57 613.39) rotate(-45.99)"/><rect class="cls-1" x="457.68" y="941.81" width="3.62" height="3.62" transform="translate(-538.41 618.44) rotate(-45.99)"/><rect class="cls-1" x="470.33" y="928.95" width="3.39" height="3.39" transform="translate(-525.25 623.5) rotate(-45.99)"/><rect class="cls-1" x="482.98" y="916.08" width="3.16" height="3.16" transform="translate(-512.09 628.56) rotate(-45.99)"/><rect class="cls-1" x="495.63" y="903.22" width="2.93" height="2.93" transform="translate(-498.93 633.59) rotate(-45.99)"/><rect class="cls-1" x="508.29" y="890.36" width="2.69" height="2.69" transform="translate(-485.78 638.66) rotate(-45.99)"/><rect class="cls-1" x="520.94" y="877.5" width="2.46" height="2.46" transform="translate(-472.62 643.72) rotate(-45.99)"/><rect class="cls-1" x="533.59" y="864.64" width="2.23" height="2.23" transform="translate(-459.46 648.78) rotate(-45.99)"/><rect class="cls-1" x="546.24" y="851.78" width="2" height="2" transform="translate(-446.3 653.84) rotate(-45.99)"/><rect class="cls-1" x="396.55" y="983.09" width="4.55" height="4.55" transform="translate(-586.96 587.57) rotate(-45.99)"/><rect class="cls-1" x="409.2" y="970.23" width="4.32" height="4.32" transform="translate(-573.8 592.63) rotate(-45.99)"/><rect class="cls-1" x="421.86" y="957.37" width="4.08" height="4.08" transform="translate(-560.64 597.69) rotate(-45.99)"/><rect class="cls-1" x="434.51" y="944.51" width="3.85" height="3.85" transform="translate(-547.48 602.74) rotate(-45.99)"/><rect class="cls-1" x="447.16" y="931.65" width="3.62" height="3.62" transform="translate(-534.32 607.78) rotate(-45.99)"/><rect class="cls-1" x="459.81" y="918.79" width="3.39" height="3.39" transform="translate(-521.16 612.86) rotate(-45.99)"/><rect class="cls-1" x="472.47" y="905.93" width="3.16" height="3.16" transform="translate(-508 617.89) rotate(-45.99)"/><rect class="cls-1" x="485.12" y="893.07" width="2.93" height="2.93" transform="translate(-494.84 622.95) rotate(-45.99)"/><rect class="cls-1" x="497.77" y="880.2" width="2.69" height="2.69" transform="translate(-481.68 628.01) rotate(-45.99)"/><rect class="cls-1" x="510.42" y="867.34" width="2.46" height="2.46" transform="translate(-468.52 633.06) rotate(-45.99)"/><rect class="cls-1" x="523.08" y="854.48" width="2.23" height="2.23" transform="translate(-455.36 638.12) rotate(-45.99)"/><rect class="cls-1" x="535.73" y="841.62" width="2" height="2" transform="translate(-442.2 643.14) rotate(-45.99)"/><rect class="cls-1" x="386.04" y="972.94" width="4.55" height="4.55" transform="translate(-582.86 576.91) rotate(-45.99)"/><rect class="cls-1" x="398.69" y="960.07" width="4.32" height="4.32" transform="translate(-569.7 581.97) rotate(-45.99)"/><rect class="cls-1" x="411.34" y="947.21" width="4.08" height="4.08" transform="translate(-556.55 587.03) rotate(-45.99)"/><rect class="cls-1" x="423.99" y="934.35" width="3.85" height="3.85" transform="translate(-543.39 592.08) rotate(-45.99)"/><rect class="cls-1" x="436.65" y="921.49" width="3.62" height="3.62" transform="translate(-530.23 597.14) rotate(-45.99)"/><rect class="cls-1" x="449.3" y="908.63" width="3.39" height="3.39" transform="translate(-517.07 602.2) rotate(-45.99)"/><rect class="cls-1" x="461.95" y="895.77" width="3.16" height="3.16" transform="translate(-503.91 607.26) rotate(-45.99)"/><rect class="cls-1" x="474.61" y="882.91" width="2.93" height="2.93" transform="translate(-490.75 612.31) rotate(-45.99)"/><rect class="cls-1" x="487.26" y="870.05" width="2.69" height="2.69" transform="translate(-477.59 617.37) rotate(-45.99)"/><rect class="cls-1" x="499.91" y="857.19" width="2.46" height="2.46" transform="translate(-464.42 622.4) rotate(-45.99)"/><rect class="cls-1" x="512.56" y="844.32" width="2.23" height="2.23" transform="translate(-451.27 627.49) rotate(-45.99)"/><rect class="cls-1" x="525.22" y="831.46" width="2" height="2" transform="translate(-438.11 632.51) rotate(-45.99)"/><rect class="cls-1" x="375.52" y="962.78" width="4.55" height="4.55" transform="translate(-578.77 566.27) rotate(-45.99)"/><rect class="cls-1" x="388.18" y="949.92" width="4.32" height="4.32" transform="translate(-565.61 571.31) rotate(-45.99)"/><rect class="cls-1" x="400.83" y="937.06" width="4.08" height="4.08" transform="translate(-552.45 576.36) rotate(-45.99)"/><rect class="cls-1" x="413.48" y="924.19" width="3.85" height="3.85" transform="translate(-539.29 581.42) rotate(-45.99)"/><rect class="cls-1" x="426.13" y="911.33" width="3.62" height="3.62" transform="translate(-526.12 586.46) rotate(-45.99)"/><rect class="cls-1" x="438.79" y="898.47" width="3.39" height="3.39" transform="translate(-512.97 591.54) rotate(-45.99)"/><rect class="cls-1" x="451.44" y="885.61" width="3.16" height="3.16" transform="translate(-499.81 596.57) rotate(-45.99)"/><rect class="cls-1" x="464.09" y="872.75" width="2.93" height="2.93" transform="translate(-486.65 601.65) rotate(-45.99)"/><rect class="cls-1" x="476.74" y="859.89" width="2.69" height="2.69" transform="translate(-473.49 606.68) rotate(-45.99)"/><rect class="cls-1" x="489.4" y="847.03" width="2.46" height="2.46" transform="translate(-460.34 611.77) rotate(-45.99)"/><rect class="cls-1" x="502.05" y="834.17" width="2.23" height="2.23" transform="translate(-447.17 616.81) rotate(-45.99)"/><rect class="cls-1" x="514.7" y="821.31" width="2" height="2" transform="translate(-434.02 621.89) rotate(-45.99)"/><rect class="cls-1" x="1389.49" y="419.18" width="3.29" height="3.29" transform="translate(333.77 1417.98) rotate(-60.15)"/><rect class="cls-1" x="1378.25" y="412.76" width="3.12" height="3.12" transform="translate(333.72 1404.89) rotate(-60.15)"/><rect class="cls-1" x="1367.01" y="406.35" width="2.96" height="2.96" transform="translate(333.66 1391.8) rotate(-60.15)"/><rect class="cls-1" x="1355.77" y="399.93" width="2.79" height="2.79" transform="translate(333.6 1378.71) rotate(-60.15)"/><rect class="cls-1" x="1344.52" y="393.52" width="2.62" height="2.62" transform="translate(333.55 1365.62) rotate(-60.15)"/><rect class="cls-1" x="1333.28" y="387.1" width="2.45" height="2.45" transform="translate(333.52 1352.55) rotate(-60.15)"/><rect class="cls-1" x="1322.04" y="380.69" width="2.29" height="2.29" transform="translate(333.47 1339.47) rotate(-60.15)"/><rect class="cls-1" x="1310.8" y="374.27" width="2.12" height="2.12" transform="translate(333.41 1326.38) rotate(-60.15)"/><rect class="cls-1" x="1299.56" y="367.86" width="1.95" height="1.95" transform="translate(333.36 1313.29) rotate(-60.15)"/><rect class="cls-1" x="1288.32" y="361.44" width="1.78" height="1.78" transform="translate(333.31 1300.2) rotate(-60.15)"/><rect class="cls-1" x="1277.07" y="355.03" width="1.62" height="1.62" transform="translate(333.26 1287.12) rotate(-60.15)"/><rect class="cls-1" x="1265.83" y="348.61" width="1.45" height="1.45" transform="translate(333.21 1274.03) rotate(-60.15)"/><rect class="cls-1" x="1384.23" y="428.35" width="3.29" height="3.29" transform="translate(323.18 1418.03) rotate(-60.15)"/><rect class="cls-1" x="1372.98" y="421.94" width="3.12" height="3.12" transform="translate(323.11 1404.94) rotate(-60.15)"/><rect class="cls-1" x="1361.74" y="415.52" width="2.96" height="2.96" transform="translate(323.07 1391.86) rotate(-60.15)"/><rect class="cls-1" x="1350.5" y="409.11" width="2.79" height="2.79" transform="translate(323.02 1378.77) rotate(-60.15)"/><rect class="cls-1" x="1339.26" y="402.69" width="2.62" height="2.62" transform="translate(322.97 1365.68) rotate(-60.15)"/><rect class="cls-1" x="1328.02" y="396.28" width="2.45" height="2.45" transform="translate(322.92 1352.6) rotate(-60.15)"/><rect class="cls-1" x="1316.77" y="389.86" width="2.29" height="2.29" transform="translate(322.86 1339.51) rotate(-60.15)"/><rect class="cls-1" x="1305.53" y="383.45" width="2.12" height="2.12" transform="translate(322.81 1326.42) rotate(-60.15)"/><rect class="cls-1" x="1294.29" y="377.03" width="1.95" height="1.95" transform="translate(322.73 1313.31) rotate(-60.15)"/><rect class="cls-1" x="1283.05" y="370.62" width="1.78" height="1.78" transform="translate(322.71 1300.25) rotate(-60.15)"/><rect class="cls-1" x="1271.81" y="364.2" width="1.62" height="1.62" transform="translate(322.62 1287.13) rotate(-60.15)"/><rect class="cls-1" x="1260.57" y="357.79" width="1.45" height="1.45" transform="translate(322.6 1274.07) rotate(-60.15)"/><rect class="cls-1" x="1378.96" y="437.53" width="3.29" height="3.29" transform="translate(312.56 1418.06) rotate(-60.15)"/><rect class="cls-1" x="1367.72" y="431.11" width="3.12" height="3.12" transform="translate(312.52 1404.99) rotate(-60.15)"/><rect class="cls-1" x="1356.48" y="424.7" width="2.96" height="2.96" transform="translate(312.47 1391.9) rotate(-60.15)"/><rect class="cls-1" x="1345.23" y="418.28" width="2.79" height="2.79" transform="translate(312.41 1378.8) rotate(-60.15)"/><rect class="cls-1" x="1333.99" y="411.87" width="2.62" height="2.62" transform="translate(312.36 1365.73) rotate(-60.15)"/><rect class="cls-1" x="1322.75" y="405.45" width="2.45" height="2.45" transform="translate(312.31 1352.64) rotate(-60.15)"/><rect class="cls-1" x="1311.51" y="399.04" width="2.29" height="2.29" transform="translate(312.26 1339.55) rotate(-60.15)"/><rect class="cls-1" x="1300.27" y="392.62" width="2.12" height="2.12" transform="translate(312.21 1326.46) rotate(-60.15)"/><rect class="cls-1" x="1289.03" y="386.21" width="1.95" height="1.95" transform="translate(312.15 1313.38) rotate(-60.15)"/><rect class="cls-1" x="1277.78" y="379.79" width="1.78" height="1.78" transform="translate(312.1 1300.29) rotate(-60.15)"/><rect class="cls-1" x="1266.54" y="373.38" width="1.62" height="1.62" transform="translate(312.02 1287.17) rotate(-60.15)"/><rect class="cls-1" x="1255.3" y="366.97" width="1.45" height="1.45" transform="translate(312 1274.11) rotate(-60.15)"/><rect class="cls-1" x="1373.69" y="446.7" width="3.29" height="3.29" transform="matrix(0.5, -0.87, 0.87, 0.5, 301.99, 1418.14)"/><rect class="cls-1" x="1362.45" y="440.29" width="3.12" height="3.12" transform="translate(301.93 1405.05) rotate(-60.15)"/><rect class="cls-1" x="1351.21" y="433.87" width="2.96" height="2.96" transform="translate(301.88 1391.96) rotate(-60.15)"/><rect class="cls-1" x="1339.97" y="427.46" width="2.79" height="2.79" transform="translate(301.81 1378.85) rotate(-60.15)"/><rect class="cls-1" x="1328.73" y="421.04" width="2.62" height="2.62" transform="translate(301.76 1365.77) rotate(-60.15)"/><rect class="cls-1" x="1317.49" y="414.63" width="2.45" height="2.45" transform="translate(301.71 1352.68) rotate(-60.15)"/><rect class="cls-1" x="1306.24" y="408.22" width="2.29" height="2.29" transform="translate(301.66 1339.59) rotate(-60.15)"/><rect class="cls-1" x="1295" y="401.8" width="2.12" height="2.12" transform="translate(301.6 1326.51) rotate(-60.15)"/><rect class="cls-1" x="1283.76" y="395.39" width="1.95" height="1.95" transform="translate(301.55 1313.42) rotate(-60.15)"/><rect class="cls-1" x="1272.52" y="388.97" width="1.78" height="1.78" transform="translate(301.5 1300.33) rotate(-60.15)"/><rect class="cls-1" x="1261.28" y="382.56" width="1.62" height="1.62" transform="translate(301.48 1287.28) rotate(-60.15)"/><rect class="cls-1" x="1250.04" y="376.14" width="1.45" height="1.45" transform="translate(301.4 1274.16) rotate(-60.15)"/><rect class="cls-1" x="1368.43" y="455.88" width="3.29" height="3.29" transform="translate(291.38 1418.18) rotate(-60.15)"/><rect class="cls-1" x="1357.19" y="449.47" width="3.12" height="3.12" transform="translate(291.33 1405.09) rotate(-60.15)"/><rect class="cls-1" x="1345.95" y="443.05" width="2.96" height="2.96" transform="translate(291.28 1392.01) rotate(-60.15)"/><rect class="cls-1" x="1334.7" y="436.64" width="2.79" height="2.79" transform="translate(291.23 1378.92) rotate(-60.15)"/><rect class="cls-1" x="1323.46" y="430.22" width="2.62" height="2.62" transform="translate(291.16 1365.82) rotate(-60.15)"/><rect class="cls-1" x="1312.22" y="423.81" width="2.45" height="2.45" transform="translate(291.13 1352.75) rotate(-60.15)"/><rect class="cls-1" x="1300.98" y="417.39" width="2.29" height="2.29" transform="translate(291.07 1339.66) rotate(-60.15)"/><rect class="cls-1" x="1289.74" y="410.98" width="2.12" height="2.12" transform="translate(291 1326.55) rotate(-60.15)"/><rect class="cls-1" x="1278.5" y="404.56" width="1.95" height="1.95" transform="translate(290.97 1313.49) rotate(-60.15)"/><rect class="cls-1" x="1267.25" y="398.15" width="1.78" height="1.78" transform="translate(290.9 1300.37) rotate(-60.15)"/><rect class="cls-1" x="1256.01" y="391.73" width="1.62" height="1.62" transform="translate(290.87 1287.32) rotate(-60.15)"/><rect class="cls-1" x="1244.77" y="385.32" width="1.45" height="1.45" transform="translate(290.79 1274.2) rotate(-60.15)"/><rect class="cls-1" x="1363.16" y="465.06" width="3.29" height="3.29" transform="translate(280.78 1418.22) rotate(-60.15)"/><rect class="cls-1" x="1351.92" y="458.64" width="3.12" height="3.12" transform="translate(280.73 1405.14) rotate(-60.15)"/><rect class="cls-1" x="1340.68" y="452.23" width="2.96" height="2.96" transform="translate(280.68 1392.05) rotate(-60.15)"/><rect class="cls-1" x="1329.44" y="445.81" width="2.79" height="2.79" transform="translate(280.62 1378.96) rotate(-60.15)"/><rect class="cls-1" x="1318.2" y="439.4" width="2.62" height="2.62" transform="translate(280.56 1365.87) rotate(-60.15)"/><rect class="cls-1" x="1306.96" y="432.98" width="2.45" height="2.45" transform="translate(280.52 1352.79) rotate(-60.15)"/><rect class="cls-1" x="1295.71" y="426.57" width="2.29" height="2.29" transform="translate(280.45 1339.68) rotate(-60.15)"/><rect class="cls-1" x="1284.47" y="420.15" width="2.12" height="2.12" transform="translate(280.42 1326.62) rotate(-60.15)"/><rect class="cls-1" x="1273.23" y="413.74" width="1.95" height="1.95" transform="translate(280.34 1313.5) rotate(-60.15)"/><rect class="cls-1" x="1261.99" y="407.32" width="1.78" height="1.78" transform="translate(280.29 1300.42) rotate(-60.15)"/><rect class="cls-1" x="1250.75" y="400.91" width="1.62" height="1.62" transform="translate(280.24 1287.33) rotate(-60.15)"/><rect class="cls-1" x="1239.51" y="394.49" width="1.45" height="1.45" transform="translate(280.19 1274.24) rotate(-60.15)"/><rect class="cls-1" x="1357.9" y="474.23" width="3.29" height="3.29" transform="translate(270.14 1418.23) rotate(-60.15)"/><rect class="cls-1" x="1346.66" y="467.82" width="3.12" height="3.12" transform="translate(270.09 1405.14) rotate(-60.15)"/><rect class="cls-1" x="1335.42" y="461.4" width="2.96" height="2.96" transform="translate(270.04 1392.05) rotate(-60.15)"/><rect class="cls-1" x="1324.17" y="454.99" width="2.79" height="2.79" transform="translate(269.98 1378.96) rotate(-60.15)"/><rect class="cls-1" x="1312.93" y="448.57" width="2.62" height="2.62" transform="translate(269.93 1365.87) rotate(-60.15)"/><rect class="cls-1" x="1301.69" y="442.16" width="2.45" height="2.45" transform="translate(269.88 1352.8) rotate(-60.15)"/><rect class="cls-1" x="1290.45" y="435.74" width="2.29" height="2.29" transform="translate(269.84 1339.72) rotate(-60.15)"/><rect class="cls-1" x="1279.21" y="429.33" width="2.12" height="2.12" transform="translate(269.79 1326.63) rotate(-60.15)"/><rect class="cls-1" x="1267.97" y="422.91" width="1.95" height="1.95" transform="translate(269.74 1313.54) rotate(-60.15)"/><rect class="cls-1" x="1256.72" y="416.5" width="1.78" height="1.78" transform="translate(269.69 1300.46) rotate(-60.15)"/><rect class="cls-1" x="1245.48" y="410.08" width="1.62" height="1.62" transform="translate(269.64 1287.37) rotate(-60.15)"/><rect class="cls-1" x="1234.24" y="403.67" width="1.45" height="1.45" transform="translate(269.58 1274.28) rotate(-60.15)"/><rect class="cls-1" x="1352.63" y="483.41" width="3.29" height="3.29" transform="translate(259.54 1418.27) rotate(-60.15)"/><rect class="cls-1" x="1341.39" y="476.99" width="3.12" height="3.12" transform="translate(259.5 1405.2) rotate(-60.15)"/><rect class="cls-1" x="1330.15" y="470.58" width="2.96" height="2.96" transform="translate(259.45 1392.11) rotate(-60.15)"/><rect class="cls-1" x="1318.91" y="464.16" width="2.79" height="2.79" transform="translate(259.4 1379.03) rotate(-60.15)"/><rect class="cls-1" x="1307.67" y="457.75" width="2.62" height="2.62" transform="translate(259.35 1365.94) rotate(-60.15)"/><rect class="cls-1" x="1296.43" y="451.33" width="2.45" height="2.45" transform="translate(259.29 1352.85) rotate(-60.15)"/><rect class="cls-1" x="1285.18" y="444.92" width="2.29" height="2.29" transform="translate(259.24 1339.76) rotate(-60.15)"/><rect class="cls-1" x="1273.94" y="438.5" width="2.12" height="2.12" transform="translate(259.17 1326.66) rotate(-60.15)"/><rect class="cls-1" x="1262.7" y="432.09" width="1.95" height="1.95" transform="translate(259.14 1313.59) rotate(-60.15)"/><rect class="cls-1" x="1251.46" y="425.68" width="1.78" height="1.78" transform="translate(259.08 1300.5) rotate(-60.15)"/><rect class="cls-1" x="1240.22" y="419.26" width="1.62" height="1.62" transform="translate(259.03 1287.41) rotate(-60.15)"/><rect class="cls-1" x="1228.97" y="412.85" width="1.45" height="1.45" transform="translate(258.98 1274.33) rotate(-60.15)"/><rect class="cls-1" x="1347.37" y="492.58" width="3.29" height="3.29" transform="translate(248.94 1418.31) rotate(-60.15)"/><rect class="cls-1" x="1336.13" y="486.17" width="3.12" height="3.12" transform="translate(248.9 1405.24) rotate(-60.15)"/><rect class="cls-1" x="1324.89" y="479.75" width="2.96" height="2.96" transform="translate(248.83 1392.14) rotate(-60.15)"/><rect class="cls-1" x="1313.64" y="473.34" width="2.79" height="2.79" transform="translate(248.79 1379.07) rotate(-60.15)"/><rect class="cls-1" x="1302.4" y="466.93" width="2.62" height="2.62" transform="translate(248.74 1365.98) rotate(-60.15)"/><rect class="cls-1" x="1291.16" y="460.51" width="2.45" height="2.45" transform="matrix(0.5, -0.87, 0.87, 0.5, 248.69, 1352.89)"/><rect class="cls-1" x="1279.92" y="454.1" width="2.29" height="2.29" transform="translate(248.64 1339.81) rotate(-60.15)"/><rect class="cls-1" x="1268.68" y="447.68" width="2.12" height="2.12" transform="matrix(0.5, -0.87, 0.87, 0.5, 248.57, 1326.7)"/><rect class="cls-1" x="1257.43" y="441.27" width="1.95" height="1.95" transform="translate(248.53 1313.63) rotate(-60.15)"/><rect class="cls-1" x="1246.19" y="434.85" width="1.78" height="1.78" transform="translate(248.48 1300.54) rotate(-60.15)"/><rect class="cls-1" x="1234.95" y="428.44" width="1.62" height="1.62" transform="translate(248.43 1287.46) rotate(-60.15)"/><rect class="cls-1" x="1223.71" y="422.02" width="1.45" height="1.45" transform="translate(248.38 1274.37) rotate(-60.15)"/><rect class="cls-1" x="1342.1" y="501.76" width="3.29" height="3.29" transform="translate(238.36 1418.39) rotate(-60.15)"/><rect class="cls-1" x="1330.86" y="495.35" width="3.12" height="3.12" transform="translate(238.31 1405.31) rotate(-60.15)"/><rect class="cls-1" x="1319.62" y="488.93" width="2.96" height="2.96" transform="translate(238.26 1392.22) rotate(-60.15)"/><rect class="cls-1" x="1308.38" y="482.52" width="2.79" height="2.79" transform="translate(238.21 1379.13) rotate(-60.15)"/><rect class="cls-1" x="1297.14" y="476.1" width="2.62" height="2.62" transform="translate(238.14 1366.02) rotate(-60.15)"/><rect class="cls-1" x="1285.89" y="469.69" width="2.45" height="2.45" transform="matrix(0.5, -0.87, 0.87, 0.5, 238.11, 1352.96)"/><rect class="cls-1" x="1274.65" y="463.27" width="2.29" height="2.29" transform="translate(238.03 1339.85) rotate(-60.15)"/><rect class="cls-1" x="1263.41" y="456.86" width="2.12" height="2.12" transform="translate(237.98 1326.76) rotate(-60.15)"/><rect class="cls-1" x="1252.17" y="450.44" width="1.95" height="1.95" transform="translate(237.93 1313.68) rotate(-60.15)"/><rect class="cls-1" x="1240.93" y="444.03" width="1.78" height="1.78" transform="translate(237.87 1300.58) rotate(-60.15)"/><rect class="cls-1" x="1229.69" y="437.61" width="1.62" height="1.62" transform="translate(237.82 1287.5) rotate(-60.15)"/><rect class="cls-1" x="1218.44" y="431.2" width="1.45" height="1.45" transform="translate(237.74 1274.37) rotate(-60.15)"/><rect class="cls-1" x="1336.84" y="510.94" width="3.29" height="3.29" transform="translate(227.76 1418.43) rotate(-60.15)"/><rect class="cls-1" x="1325.6" y="504.52" width="3.12" height="3.12" transform="translate(227.71 1405.35) rotate(-60.15)"/><rect class="cls-1" x="1314.35" y="498.11" width="2.96" height="2.96" transform="translate(227.66 1392.26) rotate(-60.15)"/><rect class="cls-1" x="1303.11" y="491.69" width="2.79" height="2.79" transform="translate(227.6 1379.17) rotate(-60.15)"/><rect class="cls-1" x="1291.87" y="485.28" width="2.62" height="2.62" transform="translate(227.55 1366.09) rotate(-60.15)"/><rect class="cls-1" x="1280.63" y="478.86" width="2.45" height="2.45" transform="translate(227.5 1353) rotate(-60.15)"/><rect class="cls-1" x="1269.39" y="472.45" width="2.29" height="2.29" transform="translate(227.45 1339.92) rotate(-60.15)"/><rect class="cls-1" x="1258.15" y="466.03" width="2.12" height="2.12" transform="translate(227.4 1326.83) rotate(-60.15)"/><rect class="cls-1" x="1246.9" y="459.62" width="1.95" height="1.95" transform="translate(227.35 1313.74) rotate(-60.15)"/><rect class="cls-1" x="1235.66" y="453.2" width="1.78" height="1.78" transform="translate(227.27 1300.63) rotate(-60.15)"/><rect class="cls-1" x="1224.42" y="446.79" width="1.62" height="1.62" transform="matrix(0.5, -0.87, 0.87, 0.5, 227.25, 1287.57)"/><rect class="cls-1" x="1213.18" y="440.37" width="1.45" height="1.45" transform="translate(227.17 1274.45) rotate(-60.15)"/><rect class="cls-1" x="1331.57" y="520.11" width="3.29" height="3.29" transform="translate(217.17 1418.5) rotate(-60.15)"/><rect class="cls-1" x="1320.33" y="513.7" width="3.12" height="3.12" transform="matrix(0.5, -0.87, 0.87, 0.5, 217.1, 1405.39)"/><rect class="cls-1" x="1309.09" y="507.28" width="2.96" height="2.96" transform="translate(217.05 1392.3) rotate(-60.15)"/><rect class="cls-1" x="1297.85" y="500.87" width="2.79" height="2.79" transform="translate(217 1379.22) rotate(-60.15)"/><rect class="cls-1" x="1286.61" y="494.45" width="2.62" height="2.62" transform="translate(216.93 1366.11) rotate(-60.15)"/><rect class="cls-1" x="1275.36" y="488.04" width="2.45" height="2.45" transform="translate(216.9 1353.04) rotate(-60.15)"/><rect class="cls-1" x="1264.12" y="481.62" width="2.29" height="2.29" transform="translate(216.83 1339.93) rotate(-60.15)"/><rect class="cls-1" x="1252.88" y="475.21" width="2.12" height="2.12" transform="translate(216.8 1326.87) rotate(-60.15)"/><rect class="cls-1" x="1241.64" y="468.79" width="1.95" height="1.95" transform="translate(216.72 1313.76) rotate(-60.15)"/><rect class="cls-1" x="1230.4" y="462.38" width="1.78" height="1.78" transform="translate(216.69 1300.7) rotate(-60.15)"/><rect class="cls-1" x="1219.16" y="455.96" width="1.62" height="1.62" transform="translate(216.63 1287.6) rotate(-60.15)"/><rect class="cls-1" x="1207.91" y="449.55" width="1.45" height="1.45" transform="translate(216.6 1274.53) rotate(-60.15)"/><path class="cls-1" d="M1406.51,390.94c-16.36-2.22-32-13.83-42.88-26.43-4.5-5.21-8.76-10.83-12.87-16.27-9.72-12.86-19.78-26.15-33.59-34.46-30.33-18.25-68.36-8.52-104.72,3-35.16,11.16-75.29,21.43-106.55,1.88-25.74-16.11-36-47.56-40-71.11-1.85-10.84-2.93-22-4-32.73-1.59-16.37-3.22-33.29-7.64-49.34-12.42-45.15-47.59-82.81-91.78-98.29L963.3,65c44.92,15.72,80.66,54,93.28,99.88,4.47,16.24,6.12,33.27,7.71,49.74,1,10.72,2.11,21.81,4,32.56,4,23.07,13.92,53.86,38.91,69.5,30.4,19,69.93,8.88,104.59-2.12,36.87-11.7,75.48-21.56,106.65-2.79,14.2,8.54,24.4,22,34.26,35.05,4.09,5.41,8.32,11,12.77,16.15,14.58,16.87,37.82,31.94,59.29,23.64l.85,2.21A38.15,38.15,0,0,1,1406.51,390.94Z"/><polygon class="cls-1" points="315 301.67 321.22 295.45 318.07 292.3 311.85 298.52 305.89 292.57 302.6 295.86 308.56 301.81 302.34 308.03 305.49 311.18 311.71 304.96 317.67 310.92 320.95 307.63 315 301.67"/><polygon class="cls-1" points="165.76 475.64 171.98 469.42 168.83 466.26 162.61 472.49 156.65 466.53 153.36 469.82 159.32 475.77 153.1 482 156.25 485.15 162.47 478.93 168.43 484.88 171.72 481.59 165.76 475.64"/><polygon class="cls-1" points="994.73 222.91 1000.95 216.69 997.8 213.54 991.58 219.76 985.63 213.81 982.34 217.09 988.29 223.05 982.07 229.27 985.22 232.42 991.44 226.2 997.4 232.16 1000.69 228.87 994.73 222.91"/><polygon class="cls-1" points="1167.92 394.76 1174.15 388.54 1171 385.39 1164.78 391.61 1158.82 385.65 1155.53 388.94 1161.49 394.9 1155.27 401.12 1158.41 404.27 1164.64 398.05 1170.59 404 1173.88 400.71 1167.92 394.76"/></svg>