<?xml version="1.0" encoding="UTF-8"?>
<svg id="Layer_2" data-name="Layer 2" xmlns="http://www.w3.org/2000/svg" viewBox="0 0 1024.35 1030.53">
  <defs>
    <style>
      .cls-1, .cls-2 {
        fill: none;
        stroke: #4630a0;
        stroke-linejoin: round;
        stroke-width: 3.5px;
      }

      .cls-3, .cls-2 {
        opacity: .1;
      }
    </style>
  </defs>
  <g id="Layer_1-2" data-name="Layer 1">
    <g class="cls-3">
      <path class="cls-1" d="M908.84,295.54c1.43-1.43,2.82-2.87,4.19-4.28,11.73,5.55,47.27,18.2,73.71-16.22,16.2-21.15,4.03-48.58-3.34-61.3,2.57-3.13,3.97-4.81,3.97-4.81,0,0,42.26,36.85,6.74,79.04-35.1,41.74-85.27,7.57-85.27,7.57Z"/>
      <path class="cls-1" d="M983.4,213.75c-.4,.49-.85,1-1.3,1.55-.2,.22-.38,.46-.6,.71-6.09,7.23-16.63,19.53-30.47,34.83-1.14,1.24-2.3,2.51-3.49,3.81-.16,.22-.34,.42-.55,.6-.58,.68-1.2,1.33-1.82,2.01t-.03,.04c-.99,1.08-1.99,2.19-3.01,3.32-8.23,8.89-17.32,18.54-27.13,28.62-.17,.18-.35,.37-.52,.55-.47,.48-.95,.99-1.46,1.48,11.73,5.55,47.27,18.2,73.71-16.22,16.2-21.15,4.03-48.58-3.34-61.3Z"/>
    </g>
    <g class="cls-3">
      <path class="cls-1" d="M143.08,780.22c-.53-.25-1.69-.47-2.29-.76-.25-.14-.5-.24-.77-.39-7.88-3.96-21.31-10.86-38.18-20.1-1.37-.77-2.77-1.54-4.21-2.34-.23-.1-.45-.22-.66-.37-.74-.38-1.46-.8-2.22-1.22t-.05-.02c-1.2-.66-2.42-1.33-3.66-2.01-9.84-5.55-20.56-11.7-31.82-18.41-.2-.11-.41-.24-.61-.35-.54-.32-1.11-.65-1.66-1-2.5,11.84-6.28,46.81,30.66,63.35,22.69,10.11,45.53-6.94,55.47-16.38Z"/>
      <path class="cls-1" d="M74.92,804.49c45.95,23.09,70.23-23.22,70.23-23.22l-2.07-1.06c-9.94,9.44-36.21,26.68-58.03,14.8-25.37-13.82-21.38-44.49-18.88-56.33-1.58-.94-14.96-8.9-16.57-9.89,0,0-20.14,52.9,25.32,75.7Z"/>
    </g>
    <g class="cls-3">
      <path class="cls-1" d="M776.53,830.13c-.57-1.41-1.21-2.61-1.88-3.45-3.17-4.04-13-4.04-31.21,.57-18.21,4.62-30.63,14.74-44.81,19.08-14.16,4.33-32.94,8.66-32.94,8.66l.12,.3c4.12-1.75,9.59-.19,14.47,2.89,7.18,4.52,4.83,13.96,2.39,21.76-.3,.95-.6,1.87-.88,2.75-.04,.12-.07,.25-.11,.36-.02,.09-.06,.19-.09,.27-.39,1.23-.87,2.18-1.44,2.87,.73-.3,1.74-.72,2.99-1.22,.21-.1,.44-.19,.67-.29,.15-.06,.31-.12,.47-.2,3.62-1.49,8.79-3.63,14.87-6.16l.04-.02c23.37-9.7,60-24.95,72.34-30.4,2.09-.92,3.48-1.57,4.01-1.85,.56-.31,1.03-.73,1.41-1.26,2.43-3.25,1.46-10.05-.4-14.67Z"/>
      <path class="cls-1" d="M818.92,978.46c-1.17-2.03,.02-5.25-1.26-6.87-.17-.22-.41-.42-.7-.58-1.19-.65-2.31-.05-3.43,.86-1.57,1.24-3.16,3.07-5.06,2.89-1.41-.14-2.41-1.34-3.45-2.33-.34-.32-.68-.61-1.03-.88h-.01c-4.6-3.58-10.67-3.57-16.95-3.32h-.02c-6.23,.26-12.66,.75-18.07-1.79-5.04-2.38-8.37-6.97-11.84-11.44-1.34-1.72-2.69-3.42-4.17-4.98-5.6-5.87-13.04-9.63-20.26-13.57-1.48-.8-2.95-1.62-4.39-2.45-5.55-3.21-10.71-6.83-14.49-11.97-1.03-1.39-1.93-2.89-2.76-4.42h-.01c-.71-1.32-1.37-2.66-2.02-4.02-1.75-3.69-3.38-7.48-5.61-10.83h-.01c-.86-1.32-1.82-2.56-2.9-3.71-2.76-2.94-6.23-5.09-9.48-7.49,0,0-.01,0-.01-.01-1.87-1.37-3.64-2.84-5.17-4.57-.36-.42-.72-.87-1.01-1.34-.35-.34-.67-.66-.98-.95-.24,.1-.46,.19-.67,.29-1.24,.5-2.25,.92-2.99,1.22-1.44,1.77-3.43,1.92-5.77,.88,21.31,41.1,51.13,64.87,78.41,78.6,36.98,18.61,69.26,18.8,69.26,18.8l1.22-4.66c-1.59,.52-3.52,.09-4.34-1.36Z"/>
      <path class="cls-1" d="M713.88,879.43c-5.39,0-9.75,3.1-9.75,6.93s4.37,6.94,9.75,6.94,9.77-3.11,9.77-6.94-4.38-6.93-9.77-6.93Z"/>
      <polygon class="cls-1" points="731.25 895.72 728.46 897.53 731.63 902.44 734.43 900.64 731.25 895.72"/>
      <path class="cls-1" d="M741.64,908.04c-7.41,0-13.41,4.27-13.41,9.54s6,9.53,13.41,9.53,13.41-4.27,13.41-9.53-6.01-9.54-13.41-9.54Z"/>
      <path class="cls-1" d="M760.27,874.23c-7.4,0-13.41,4.27-13.41,9.53s6.01,9.54,13.41,9.54,13.42-4.27,13.42-9.54-6.01-9.53-13.42-9.53Z"/>
      <path class="cls-1" d="M783.29,915.9c-1.09-4.49-7.29-6.93-12.28-8.17-2.09-.52-3.41-1.29-3.62-2.14-.29-1.09,1.05-2.77,1.73-3.41l-2.24-2.45c-.36,.34-3.56,3.36-2.71,6.67,.53,2.16,2.57,3.69,6.03,4.55,5.64,1.42,9.32,3.56,9.85,5.73,.42,1.74-1.26,3.68-2.75,4.99l2.2,2.5c3.16-2.8,4.44-5.59,3.78-8.27Z"/>
      <path class="cls-1" d="M780.65,931.01c-7.4,0-13.41,4.27-13.41,9.54s6.01,9.54,13.41,9.54,13.42-4.28,13.42-9.54-6.01-9.54-13.42-9.54Z"/>
      <path class="cls-1" d="M821.93,960.68c-.17-.19-.34-.37-.5-.55-3.62-3.91-8.07-6.93-11.77-10.74-2.04-2.11-3.83-4.43-5.45-6.87,0,0-.01-.01-.01-.02-2.4-3.61-4.45-7.48-6.48-11.32-4.47-8.47-8.99-17.07-11.25-26.37-.37-1.52-.68-3.05-.96-4.59,0-.01,0-.02-.01-.04-.91-5.11-1.46-10.31-2.69-15.35-1.95-8.12-5.57-15.89-6.74-24.21-.46-3.37,1.85-11.18,.85-15.84-.37,.52-.85,.95-1.41,1.26-.52,.29-1.92,.93-4.01,1.85-12.34,5.45-48.96,20.7-72.34,30.4l-.04,.02c-6.07,2.53-11.25,4.66-14.87,6.16,.11,.4,.29,.78,.51,1.14,1.65,1.62,3.73,3.62,6.18,5.91,0,.01,.01,.01,.01,.01,3.25,2.4,6.72,4.55,9.48,7.49,1.08,1.14,2.04,2.39,2.9,3.69h.01c2.23,3.37,3.86,7.15,5.61,10.85,.65,1.36,1.31,2.7,2.02,4.01h.01c.83,1.54,1.73,3.04,2.76,4.43,3.78,5.14,8.94,8.76,14.49,11.97,1.44,.83,2.91,1.65,4.39,2.45,7.23,3.94,14.67,7.7,20.26,13.57,1.48,1.55,2.82,3.26,4.17,4.98,3.47,4.48,6.8,9.07,11.84,11.44,5.41,2.54,11.84,2.05,18.07,1.79h.02c6.28-.25,12.35-.26,16.95,3.32h.01c.35,.27,.7,.56,1.03,.88,1.03,.98,2.04,2.19,3.45,2.33,1.9,.19,3.5-1.64,5.06-2.89,1.12-.91,2.24-1.51,3.43-.86,.29,.16,.52,.36,.7,.58,1.28,1.62,.09,4.84,1.26,6.87,.82,1.44,2.75,1.88,4.34,1.36,.31-.09,.6-.22,.87-.39,1.68-1.03,2.56-3.01,2.87-4.95,.77-5.01-1.73-9.98-5.08-13.8Z"/>
      <rect class="cls-1" x="732.67" y="872.56" width="8.97" height="3.33"/>
      <polygon class="cls-1" points="728.46 897.53 731.63 902.44 734.43 900.64 731.25 895.72 728.46 897.53"/>
      <path class="cls-1" d="M723.65,886.36c0-3.83-4.38-6.93-9.77-6.93s-9.75,3.1-9.75,6.93,4.37,6.94,9.75,6.94,9.77-3.11,9.77-6.94Z"/>
      <path class="cls-1" d="M755.04,917.58c0-5.27-6.01-9.54-13.41-9.54s-13.41,4.27-13.41,9.54,6,9.53,13.41,9.53,13.41-4.27,13.41-9.53Z"/>
      <path class="cls-1" d="M773.69,883.76c0-5.26-6.01-9.53-13.42-9.53s-13.41,4.27-13.41,9.53,6.01,9.54,13.41,9.54,13.42-4.27,13.42-9.54Z"/>
      <path class="cls-1" d="M770.21,910.95c5.64,1.42,9.32,3.56,9.85,5.73,.42,1.74-1.26,3.68-2.75,4.99l2.2,2.5c3.16-2.8,4.44-5.59,3.78-8.27-1.09-4.49-7.29-6.93-12.28-8.17-2.09-.52-3.41-1.29-3.62-2.14-.29-1.09,1.05-2.77,1.73-3.41l-2.24-2.45c-.36,.34-3.56,3.36-2.71,6.67,.53,2.16,2.57,3.69,6.03,4.55Z"/>
      <path class="cls-1" d="M794.07,940.55c0-5.27-6.01-9.54-13.42-9.54s-13.41,4.27-13.41,9.54,6.01,9.54,13.41,9.54,13.42-4.28,13.42-9.54Z"/>
      <path class="cls-1" d="M713.88,879.43c-5.39,0-9.75,3.1-9.75,6.93s4.37,6.94,9.75,6.94,9.77-3.11,9.77-6.94-4.38-6.93-9.77-6.93Z"/>
      <polygon class="cls-1" points="731.25 895.72 728.46 897.53 731.63 902.44 734.43 900.64 731.25 895.72"/>
      <path class="cls-1" d="M741.64,908.04c-7.41,0-13.41,4.27-13.41,9.54s6,9.53,13.41,9.53,13.41-4.27,13.41-9.53-6.01-9.54-13.41-9.54Z"/>
      <path class="cls-1" d="M760.27,874.23c-7.4,0-13.41,4.27-13.41,9.53s6.01,9.54,13.41,9.54,13.42-4.27,13.42-9.54-6.01-9.53-13.42-9.53Z"/>
      <path class="cls-1" d="M783.29,915.9c-1.09-4.49-7.29-6.93-12.28-8.17-2.09-.52-3.41-1.29-3.62-2.14-.29-1.09,1.05-2.77,1.73-3.41l-2.24-2.45c-.36,.34-3.56,3.36-2.71,6.67,.53,2.16,2.57,3.69,6.03,4.55,5.64,1.42,9.32,3.56,9.85,5.73,.42,1.74-1.26,3.68-2.75,4.99l2.2,2.5c3.16-2.8,4.44-5.59,3.78-8.27Z"/>
      <path class="cls-1" d="M780.65,931.01c-7.4,0-13.41,4.27-13.41,9.54s6.01,9.54,13.41,9.54,13.42-4.28,13.42-9.54-6.01-9.54-13.42-9.54Z"/>
      <path class="cls-1" d="M680.28,858.18c-4.88-3.07-10.35-4.64-14.47-2.89-2.84,1.21-5.03,4.01-5.91,8.96,0,0-3.46,5.64,4.34,14.31,3.68,4.1,7.19,7.23,10.13,8.52,2.34,1.03,4.33,.88,5.77-.88,.57-.7,1.06-1.64,1.44-2.87,.02-.09,.06-.19,.09-.27,.04-.11,.07-.24,.11-.36,.29-.88,.58-1.8,.88-2.75,2.44-7.8,4.79-17.24-2.39-21.76Z"/>
      <path class="cls-1" d="M713.88,879.43c-5.39,0-9.75,3.1-9.75,6.93s4.37,6.94,9.75,6.94,9.77-3.11,9.77-6.94-4.38-6.93-9.77-6.93Z"/>
      <path class="cls-1" d="M780.65,931.01c-7.4,0-13.41,4.27-13.41,9.54s6.01,9.54,13.41,9.54,13.42-4.28,13.42-9.54-6.01-9.54-13.42-9.54Z"/>
      <path class="cls-1" d="M760.27,874.23c-7.4,0-13.41,4.27-13.41,9.53s6.01,9.54,13.41,9.54,13.42-4.27,13.42-9.54-6.01-9.53-13.42-9.53Z"/>
      <path class="cls-1" d="M741.64,908.04c-7.41,0-13.41,4.27-13.41,9.54s6,9.53,13.41,9.53,13.41-4.27,13.41-9.53-6.01-9.54-13.41-9.54Z"/>
      <path class="cls-1" d="M783.29,915.9c-1.09-4.49-7.29-6.93-12.28-8.17-2.09-.52-3.41-1.29-3.62-2.14-.29-1.09,1.05-2.77,1.73-3.41l-2.24-2.45c-.36,.34-3.56,3.36-2.71,6.67,.53,2.16,2.57,3.69,6.03,4.55,5.64,1.42,9.32,3.56,9.85,5.73,.42,1.74-1.26,3.68-2.75,4.99l2.2,2.5c3.16-2.8,4.44-5.59,3.78-8.27Z"/>
      <polygon class="cls-1" points="731.25 895.72 728.46 897.53 731.63 902.44 734.43 900.64 731.25 895.72"/>
      <ellipse class="cls-1" cx="825.45" cy="867.73" rx="13.87" ry="12.72" transform="translate(-309.63 1249.74) rotate(-65.03)"/>
      <path class="cls-1" d="M735.69,973.51c-4.83,0-8.75,5.44-8.75,12.14,0,6.71,3.92,12.14,8.75,12.14,4.83,0,8.75-5.44,8.75-12.14s-3.92-12.14-8.75-12.14Z"/>
      <ellipse class="cls-1" cx="842.11" cy="934.43" rx="8.75" ry="15.2" transform="translate(-279.58 1503.75) rotate(-74.88)"/>
    </g>
    <g class="cls-3">
      <path class="cls-1" d="M1016.14,733.58c-1.38-3.17-3.12-6.27-5.73-8.53-3.94-3.42-9.32-4.48-14.48-5.34-.66,6.58-11.05,19.07-12.41,22.09-5.16,11.39-7.31,24.18-5.85,36.62,.32,2.71,.67,5.85-1.21,7.81-.15,.16-.32,.31-.5,.45,6.87,1.79,16.61-.31,22.35-1.62,6.31-1.43,12.45-4.49,16.48-9.68,3.69-4.8,7.17-13.7,7.56-19.74,.56-8.45-2.85-14.29-6.22-22.07Z"/>
      <path class="cls-1" d="M991.82,715.61c-3.08-.06-5.73,2.05-8.1,4.04-3.32,2.81-6.69,5.7-8.94,9.42-2.82,4.68-3.61,10.27-5.46,15.42-1.58,4.38-3.93,8.47-5.08,12.99-1.58,6.28-.7,12.89,.45,19.26,.56,3.1,1.26,6.34,3.4,8.66,1.99,2.14,5.62,2.99,7.87,1.28,.17-.14,.35-.29,.5-.45,1.88-1.97,1.53-5.1,1.21-7.81-1.47-12.44,.68-25.23,5.85-36.62,1.37-3.02,11.76-15.51,12.41-22.09,.25-2.41-.82-4.03-4.11-4.09Z"/>
    </g>
    <g class="cls-3">
      <path class="cls-1" d="M557.54,360.61c-17.73-18.12-38.18-17.28-45.97-14.24-7.18,2.82-12.87,8.54-17.27,14.87-6.14,8.85-10.13,19.18-11.53,29.86-.57,4.36-.7,8.89,.67,13.06,2.15,6.54,7.63,11.33,12.88,15.78"/>
      <path class="cls-1" d="M523.74,403.46c-4.74,3.27-39.41,14.85-26.18,23.14,3.33,2.09,7.6,1.52,11.48,.89,5.46-.9,11.03-1.83,15.92-4.43,6.14-3.26,10.66-8.85,16.04-13.25,4.58-3.75,9.84-6.68,14.04-10.86,5.83-5.81,9.18-13.6,12.1-21.3,1.42-3.74,2.78-7.75,1.96-11.67-.82-3.91-4.73-7.46-8.58-6.39-3.35,.92-5.01,4.57-6.43,7.74-6.53,14.54-17.24,27.09-30.33,36.13Z"/>
    </g>
    <g class="cls-3">
      <path class="cls-1" d="M653.42,441.51c9.42,1.22,19.35-2.48,25.67-9.57,6.62-7.42,9.03-17.66,10.14-27.54,.67-5.94,.92-12.09-.93-17.77-1.9-5.84-5.91-10.78-10.36-15.02-3.83-3.65-8.25-6.98-13.43-8.01-7.51-1.49-12.06,.62-18.89,4.09"/>
      <path class="cls-1" d="M639.26,364.88c-3.11,.14-5.53,2.8-6.99,5.55-2.94,5.54-3.49,11.99-3.98,18.24-1.29,16.32-2.24,34.02,6.77,47.69,2.3,3.49,5.47,6.75,9.57,7.58,4.1,.83,9.03-1.76,9.38-5.93,.26-3.08-1.85-5.78-3.25-8.54-3.49-6.89-2.64-15.07-3.67-22.72-.58-4.3-1.77-8.5-2.36-12.81-1.04-7.6,7.66-29.67-5.47-29.07Z"/>
    </g>
    <g class="cls-3">
      <path class="cls-1" d="M533.68,467.26c9.51-.69,18.75,2.95,27.59,6.53,5.76,2.33,11.55,4.67,16.79,8.01,11.03,7.02,19.17,18.46,22.2,31.18,4.01-9.01,13.7-15.69,17.29-24.88,1.23-3.16,2.97-4.21,3.15-7.59,.56-10.68,.86-22.31-5.46-30.94-2.68-3.66-6.35-6.45-10.05-9.07-9.53-6.74-20.42-12.87-32.07-12.28-9.72,.49-18.52,5.59-26.86,10.6-5.13,3.08-8.7,7.65-10.93,13.2-2.16,5.38-3.38,11.68-8.5,14.41l6.84,.83Z"/>
      <path class="cls-1" d="M589.7,508.87c-.35-.94-.76-1.9-1.25-2.89-.21-.45-.43-.89-.67-1.33-1.21-2.24-2.76-4.58-4.78-6.98-2.55-3.03-5.86-6.12-10.11-9.14-.39-.27-.78-.54-1.19-.82-1.08-.72-2.15-1.4-3.21-2.04-.96-.59-1.91-1.14-2.86-1.65-1.65-.9-3.27-1.68-4.85-2.39-5.92-2.64-11.4-4.03-16.08-4.74-1.67-.25-3.22-.41-4.67-.5-6.72-.45-10.91,.53-10.91,.53l-2.64,11.15-3.44,14.53-2.07,8.77-1.42,6.01-7.78,32.81h0s-.65,2.79-.65,2.79l-.83,3.48-2.43,10.28-3.87,16.37-1.44,6.09-3.44,14.5,.98-.87,10.46-9.35,4.26-3.81,14.34-12.82,4.31-3.86,3.23-2.88,9.94-8.88,4.32-3.88,1.49-1.32,13.73-12.27,4.3-3.85,15.37-13.73,4.25-3.81,1.47-1.31s.85-5.1-1.85-12.21Z"/>
      <path class="cls-1" d="M550.9,556.9l-1.84-23.68-.4-5.14-1.97-25.39-.39-5.03h0s-1.61-20.78-1.61-20.78c-1.67-.25-3.22-.41-4.67-.5l1.84,23.68,.39,5.03,2,25.64,.39,5.13,1.82,23.51,.15,1.87,4.32-3.87-.03-.47Z"/>
      <path class="cls-1" d="M568.85,521.37l-.44-5.11-2.1-24.17h0s-.43-5.02-.43-5.02l-.26-3.05c-1.65-.9-3.27-1.69-4.84-2.39l.68,7.84,.43,5.01,2.12,24.42,.44,5.11,1.71,19.77,4.29-3.85-1.6-18.56Z"/>
      <polygon class="cls-1" points="533.36 571.98 532.95 566.93 531.07 544.01 530.65 538.88 528.48 512.54 528.08 507.53 526.48 488.07 523.04 502.6 523.64 509.92 524.05 514.94 526.24 541.53 526.66 546.65 528.53 569.4 528.93 574.44 529.13 576.86 533.44 573.01 533.36 571.98"/>
      <polygon class="cls-1" points="514.09 582.74 513.59 577.74 511.4 555.8 511.11 552.98 510.28 556.47 507.85 566.75 509.2 580.2 509.7 585.19 510.54 593.48 514.79 589.68 514.09 582.74"/>
      <path class="cls-1" d="M588.45,505.98c-.21-.44-.43-.88-.68-1.33l-3.86,2.31-15.51,9.3-4.41,2.64-15.34,9.19-4.41,2.65-13.6,8.15-4.41,2.65-14.47,8.66h0s-.65,2.79-.65,2.79l-.83,3.49,1.11-.67,15.26-9.15,4.41-2.65,13.57-8.14,4.42-2.64,15.38-9.22,4.41-2.64,15.57-9.34,4.37-2.62,.91-.55c-.35-.93-.77-1.9-1.25-2.89Z"/>
      <polygon class="cls-1" points="550.9 556.9 546.46 559.38 532.95 566.93 528.53 569.4 513.59 577.74 509.2 580.2 503.98 583.12 502.53 589.2 509.7 585.19 514.09 582.74 528.93 574.44 533.36 571.98 536.67 570.13 546.61 561.24 550.93 557.37 552.42 556.05 550.9 556.9"/>
      <path class="cls-1" d="M571.69,487.72c-1.08-.73-2.14-1.41-3.21-2.05l-2.6,1.4-4.43,2.4-15.14,8.19h0s-4.44,2.41-4.44,2.41l-13.79,7.46-4.44,2.4-2.67,1.45-1.42,6.01,4.51-2.44,4.43-2.4,13.77-7.44,4.44-2.4,15.19-8.22,4.42-2.39h0s6.57-3.55,6.57-3.55c-.39-.27-.78-.54-1.19-.82Z"/>
      <path class="cls-1" d="M526.84,466.43c-2.29,.7-4.01,2.44-4.24,4.37-.33,2.78,2.41,6.03,6.51,6.11"/>
      <path class="cls-1" d="M591.55,521.08c.57,.35,2.66,1.55,4.82,.87,2.82-.88,4.82-4.66,3.89-8.97"/>
    </g>
    <g class="cls-3">
      <g>
        <path class="cls-1" d="M279.55,869.64c-10.15,8.92-14.48,20.84-15.77,32.75l50.59-1.59c.23-.21,.49-.4,.77-.56l-24.81-38.56c-3.54,2.15-7.13,4.78-10.77,7.97Z"/>
        <path class="cls-1" d="M272.9,849.91c-50.26,40.19-14.45,94.1-14.45,94.1,0,0,1.98-1.61,5.64-4.61-4.51-16.76-10.19-51.93,13.26-72.49,38.25-33.45,73.41-9.55,84.64-.05,1.88-1.3,3.79-2.61,5.74-3.92,0,0-45.14-52.8-94.82-13.02Z"/>
        <path class="cls-1" d="M321.89,895.21c11.41-8.28,23.95-17.22,37.39-26.48-5.23-4.33-14.82-10.95-27.11-13.97l-10.28,40.45Z"/>
        <path class="cls-1" d="M293.05,860.1l24.62,38.25,.05-.04,11.25-44.25c-10.56-1.99-22.87-1.09-35.92,6.04Z"/>
        <path class="cls-1" d="M266.78,937.24c8.62-6.89,23.47-18.56,42.74-32.89l-46.06,1.43c-.74,11.96,1.33,23.52,3.33,31.46Z"/>
        <path class="cls-1" d="M277.35,866.91c-23.44,20.56-17.77,55.74-13.26,72.49,.57-.47,1.2-.95,1.84-1.48,.28-.21,.54-.45,.85-.68-1.99-7.94-4.06-19.5-3.33-31.46l46.06-1.43c1.58-1.16,3.19-2.34,4.84-3.56l-50.59,1.59c1.29-11.91,5.63-23.83,15.77-32.75,3.64-3.19,7.23-5.82,10.77-7.97l24.81,38.56c.82-.65,1.67-1.24,2.54-1.88l-24.62-38.25c13.05-7.13,25.35-8.03,35.92-6.04l-11.25,44.25c1.37-1.01,2.77-2.05,4.18-3.1l10.28-40.45c12.29,3.02,21.88,9.64,27.11,13.97,.23-.16,.48-.35,.71-.51,.64-.45,1.31-.91,2-1.35-11.23-9.5-46.39-33.4-84.64,.05Z"/>
      </g>
      <path class="cls-1" d="M280.46,912.41s-7.74-1.24-6.58,1.84c1.16,3.07,6.58-1.84,6.58-1.84Z"/>
      <path class="cls-1" d="M282.55,918.37s-7.71,.17-6.08,3.03c1.63,2.86,6.08-3.03,6.08-3.03Z"/>
      <path class="cls-1" d="M289.92,911.38s-7.69,.16-6.07,3.02,6.07-3.02,6.07-3.02Z"/>
      <path class="cls-1" d="M291.56,885.51s-3.14-7.73-5.11-5.43c-1.96,2.3,5.11,5.43,5.11,5.43Z"/>
      <path class="cls-1" d="M287.82,892.03s-5.9-5.81-6.65-2.76c-.76,3.06,6.65,2.76,6.65,2.76Z"/>
      <path class="cls-1" d="M297.61,894.19s-4.18-7.21-5.76-4.59c-1.58,2.62,5.76,4.59,5.76,4.59Z"/>
      <path class="cls-1" d="M317.08,871.81s3.69-6.79,.65-7.2c-3.04-.42-.65,7.2-.65,7.2Z"/>
      <path class="cls-1" d="M309.68,872.18s.42-8.08-2.38-7.07c-2.81,1.01,2.38,7.07,2.38,7.07Z"/>
      <path class="cls-1" d="M314.62,881.58s2.61-7.4-.41-7.31c-3.02,.08,.41,7.31,.41,7.31Z"/>
      <path class="cls-1" d="M339,876.59s7.54-2.12,5.2-4.43c-2.34-2.3-5.2,4.43-5.2,4.43Z"/>
      <path class="cls-1" d="M334.6,872.06s6.92-3.39,4.25-5.3c-2.68-1.91-4.25,5.3-4.25,5.3Z"/>
      <path class="cls-1" d="M330.85,881.5s6.91-3.38,4.24-5.29c-2.67-1.91-4.24,5.29-4.24,5.29Z"/>
    </g>
    <g class="cls-3">
      <path class="cls-1" d="M469.99,679.54l2.73-7.64s-11.46-7.64-27.83-6.55c-16.37,1.09-23.46,13.09-23.46,13.09,28.92-12,48.56,1.09,48.56,1.09Z"/>
      <path class="cls-1" d="M452.13,713.51c-.61-1.97-1.41-3.97-2.41-6h0c-5.23-10.61-15.64-21.32-30.33-27.29,0,0-27.27-51.83-62.75-23.45-16.59,16.2-15.99,26.13-16.15,39.64-.06,5.58-.25,11.77-1.85,19.28,0,13.09,13.64,16.91,17.46,21.82,3.82,4.91,9.29,22.92,24.01,23.47,14.74,.54,31.65-8.73,46.38-8.18,14.74,.54,30.55-23.47,25.64-39.29Z"/>
      <path class="cls-1" d="M341.52,697.48c3.85,0,6.41,6.5,11.32,9.5,9.82,6,14.18,19.09,27.82,17.46,13.64-1.63,26.74,1.63,48.02-.54,14.63-1.51,13.5-12.54,19.93-15.78"/>
    </g>
    <g class="cls-3">
      <path class="cls-1" d="M934.9,681.66c-2.2,8.52-8.1,15.52-13.82,22.21-3.73,4.35-7.48,8.72-11.94,12.32-9.39,7.58-21.78,11.33-33.79,10.23,6.7,6.16,9.69,16.59,16.66,22.43,2.4,2.01,2.8,3.84,5.71,4.99,9.17,3.63,19.26,7.31,28.66,4.33,3.98-1.27,7.51-3.65,10.88-6.12,8.69-6.35,17.26-14.06,20.17-24.43,2.43-8.64,.56-17.84-1.37-26.6-1.18-5.39-4.13-9.85-8.32-13.43-4.07-3.47-9.22-6.39-10.1-11.67l-2.74,5.74Z"/>
      <path class="cls-1" d="M882.04,718.39c.92-.03,1.89-.1,2.89-.24,.46-.05,.9-.12,1.36-.2,2.31-.4,4.82-1.06,7.5-2.13,3.4-1.34,7.08-3.33,10.97-6.15,.35-.26,.7-.52,1.07-.8,.95-.73,1.86-1.46,2.73-2.21,.8-.66,1.56-1.34,2.29-2.01,1.27-1.18,2.43-2.36,3.52-3.54,4.05-4.4,6.88-8.78,8.87-12.66,.71-1.39,1.3-2.7,1.81-3.94,2.37-5.75,2.75-9.69,2.75-9.69l-8.97-5.59-11.69-7.28-7.06-4.39-4.84-3.01-26.4-16.46h0s-2.24-1.39-2.24-1.39l-2.8-1.75-8.27-5.15-13.17-8.2-4.9-3.05-11.66-7.27,.47,1.11,5.09,11.9,2.07,4.84,6.99,16.31,2.11,4.9,1.56,3.67,4.84,11.31,2.12,4.92,.72,1.69,6.68,15.62,2.1,4.89,7.48,17.48,2.08,4.84,.71,1.67s4.21,2.24,11.22,1.98Z"/>
      <path class="cls-1" d="M851.46,670.34l21.24,5.36,4.61,1.16,22.77,5.75,4.51,1.14h0s18.64,4.71,18.64,4.71c.71-1.38,1.3-2.7,1.81-3.93l-21.24-5.36-4.51-1.14-23-5.8-4.6-1.17-21.09-5.32-1.68-.42,2.12,4.92,.42,.11Z"/>
      <path class="cls-1" d="M877.24,696.49l4.59,1.12,21.75,5.28h0s4.51,1.1,4.51,1.1l2.74,.67c1.27-1.17,2.43-2.36,3.52-3.53l-7.05-1.72-4.51-1.1-21.97-5.33-4.59-1.12-17.79-4.32,2.1,4.89,16.7,4.06Z"/>
      <polygon class="cls-1" points="843.44 650.57 847.97 651.69 868.57 656.79 873.17 657.93 896.84 663.79 901.34 664.91 918.82 669.23 907.14 661.95 900.55 660.32 896.04 659.21 872.15 653.3 867.55 652.16 847.11 647.1 842.59 645.97 840.42 645.44 842.52 650.34 843.44 650.57"/>
      <polygon class="cls-1" points="839.7 630.56 844.21 631.59 864.04 636.13 866.59 636.7 863.79 634.96 855.51 629.8 843.36 627.03 838.84 626 831.35 624.29 833.42 629.12 839.7 630.56"/>
      <path class="cls-1" d="M884.93,718.15c.45-.05,.9-.12,1.36-.2l-.88-4.06-3.57-16.29-1.01-4.63-3.52-16.12-1.02-4.64-3.12-14.29-1.02-4.64-3.32-15.2h0s-2.23-1.39-2.23-1.39l-2.81-1.75,.26,1.17,3.51,16.03,1.02,4.64,3.12,14.26,1.01,4.64,3.54,16.16,1.01,4.63,3.58,16.36,1,4.59,.21,.95c.92-.03,1.88-.11,2.9-.24Z"/>
      <polygon class="cls-1" points="851.46 670.34 850.6 665.73 847.97 651.69 847.11 647.1 844.21 631.59 843.36 627.03 842.34 621.6 837.45 618.55 838.84 626 839.7 630.56 842.59 645.97 843.44 650.57 844.08 654.01 848.92 665.31 851.04 670.23 851.76 671.92 851.46 670.34"/>
      <path class="cls-1" d="M905.83,708.87c.95-.73,1.86-1.46,2.74-2.2l-.46-2.69-.8-4.58-2.71-15.65h0s-.79-4.59-.79-4.59l-2.47-14.25-.79-4.59-.48-2.76-4.84-3.01,.81,4.66,.8,4.58,2.46,14.23,.79,4.59,2.72,15.7,.79,4.57h0s1.16,6.79,1.16,6.79c.35-.26,.71-.52,1.07-.8Z"/>
      <path class="cls-1" d="M937.63,675.92c.06-2.21-.96-4.22-2.58-4.99-2.33-1.11-5.98,.33-7.26,3.9"/>
      <path class="cls-1" d="M870.82,716.41c-.48,.4-2.13,1.87-2.18,3.96-.06,2.73,2.65,5.58,6.7,6.04"/>
    </g>
    <g class="cls-3">
      <path class="cls-1" d="M431.85,139.88c-13.32-10.36-37.04-8.52-59.18-1.47-32.55,10.36-38.96,29.59-42.42,40.93-3.35,11.04,6.23,29.18,6.74,30.14-4.63-12.93,17.28-32.72,48.99-44.24,31.1-11.29,60.08-10.43,65.67,1.76-1.49-3.5-8.15-18.05-19.8-27.11Z"/>
      <g>
        <path class="cls-1" d="M426.79,200.86c-3.62-.24-7.61,.08-12.32,1.32-15.39,4.07-18.1,6.33-28.06,10.86-8.45,3.84-12.01,4.1-13.17,6.31-18.7,2.23-33.06-1.15-36.22-9.83,0,0,0-.03-.02-.04-4.63-12.93,17.28-32.72,48.99-44.24,31.1-11.29,60.08-10.43,65.67,1.76,0,.02,.02,.04,.02,.06,.05,.11,.09,.19,.11,.28,.07,.14,.12,.29,.18,.44,3.39,9.34-7.11,22.28-25.18,33.09Z"/>
        <path class="cls-1" d="M374.05,198.93c-1.87-2.4-8.02-.73-13.74,3.74-5.72,4.46-8.84,10.02-6.96,12.42,1.87,2.4,8.02,.73,13.74-3.74,5.72-4.46,8.84-10.02,6.96-12.42Z"/>
      </g>
      <path class="cls-1" d="M374.05,198.93c-1.87-2.4-8.02-.73-13.74,3.74-5.72,4.46-8.84,10.02-6.96,12.42,1.87,2.4,8.02,.73,13.74-3.74,5.72-4.46,8.84-10.02,6.96-12.42Z"/>
      <path class="cls-1" d="M489.15,252.89c-3.1,1.22-6.43,1.83-9.76,1.76-.75-.02-1.56-.07-2.33-.02h0c-1.2,.05-2.34,.29-3.22,1.07-.5,.45-.84,1.01-1.11,1.62h0c-.23,.52-.41,1.05-.59,1.57-3.15,8.66-10.79,15.54-19.72,17.77-4.41,1.12-9.15,1.18-13.28,3.1-4.1,1.92-7.86,5.69-12.31,4.94-3.39-.56-6.02-3.73-9.45-3.9-3.85-.21-6.92,3.36-10.71,3.99-2.4,.38-4.63-.42-6.81-1.61h0c-15.72,2.04-32.79,2.84-35.76-2.07l5.43,13.86s1.81,2.42,10.86,4.22c7.45,1.49,26.32,2.17,48.91-3.02,4.87-1.12,9.93-2.51,15.07-4.22,16.93-5.65,29.13-12.73,36.69-18.37,5.38-4,8.43-7.28,9.17-8.79,.89-1.78,.04-7.02-1.06-11.9Z"/>
      <path class="cls-1" d="M386.56,277.83c-3.07,.58-5.83,3.2-8.87,2.53-1.47-.32-2.65-1.35-3.84-2.3-1.05-.85-2.11-1.65-3.41-1.87-2.52-.45-4.75,1.31-6.89,3.21,.03,.59,.2,1.16,.53,1.69h0s0,.02,0,.02c2.97,4.91,20.03,4.12,35.76,2.07-4.37-2.37-8.52-6.29-13.28-5.35Z"/>
      <path class="cls-1" d="M495.12,237.96c-.18-.05-.38-.11-.56-.14-4.15-1.01-7.9-.63-12.1-.73-.77-.02-1.39-.03-1.9-.06-.1,.51-.52,1.09-1.28,1.68-2.1,1.67-6.78,3.54-14.48,4.78-1.94,.3-4.07,.57-6.41,.78-1,.09-1.97,.16-2.88,.21-.24,0-.47,.03-.7,.04-.23,.02-.46,.03-.68,.04-.53,.02-1.03,.04-1.53,.05h-.17c-.47,.02-.93,.02-1.38,.02s-.89,0-1.32,0c-.16,0-.32,0-.47,0h-.38c-.13,0-.26,0-.39,0-.32,0-.62,0-.93-.03-.38,0-.75-.02-1.13-.04h0s0,0-.02,0c-.54,.22-1.06,.43-1.58,.65,0,0-.02,0-.03,0-.52,.22-1.01,.44-1.51,.66s-.99,.45-1.48,.68-.96,.46-1.43,.69-.93,.46-1.39,.7c-1.08,.56-2.13,1.13-3.12,1.71-.39,.22-.78,.45-1.16,.68-.98,.59-1.93,1.19-2.83,1.8-.45,.31-.89,.6-1.32,.91h0v.02h-.02c-3.85,2.72-6.87,5.48-9.23,8.06-.96,1.04-1.8,2.05-2.54,3.01-4.06,5.26-5.21,9.13-5.21,9.13-4.04-1.32-8.3-2.51-12.68-3.58h0c-7.59-1.86-15.49-3.37-23.04-4.58h0c-9.11-1.46-17.71-2.48-24.66-3.19-2.13,2.73-4.1,5.62-6.02,8.5-.44,.69-.89,1.36-1.34,2.03-.87,1.32-1.78,2.94-1.18,4.41,1.04,2.53,4.97,1.69,7.29,3.14,1.25,.78,1.98,2.23,3.26,2.96,2.91,1.68,5.55-1.07,8.36-3.55,2.14-1.9,4.37-3.66,6.89-3.21,1.3,.22,2.36,1.02,3.41,1.87,1.19,.96,2.37,1.98,3.84,2.3,3.05,.67,5.81-1.95,8.87-2.53,4.76-.94,8.91,2.98,13.28,5.35h0c2.18,1.19,4.41,2,6.81,1.61,3.79-.63,6.86-4.2,10.71-3.99,3.43,.17,6.06,3.33,9.45,3.9,4.45,.75,8.22-3.02,12.31-4.94,4.13-1.93,8.87-1.99,13.28-3.1,8.93-2.23,16.57-9.11,19.72-17.77,.18-.52,.36-1.05,.59-1.56h0c.27-.62,.61-1.18,1.11-1.63,.88-.78,2.02-1.02,3.22-1.07h0c.77-.05,1.58,0,2.33,.02,3.33,.08,6.67-.53,9.76-1.76,3.83-1.5,7.32-3.92,9.99-7.05,.57-.67,1.13-1.4,1.32-2.26,.64-2.8-2.58-4.87-5.34-5.61Z"/>
      <ellipse class="cls-1" cx="460.87" cy="193.12" rx="8.93" ry="13.13" transform="translate(19.81 427.99) rotate(-50.77)"/>
      <path class="cls-1" d="M374.05,198.93c-1.87-2.4-8.02-.73-13.74,3.74-5.72,4.46-8.84,10.02-6.96,12.42,1.87,2.4,8.02,.73,13.74-3.74,5.72-4.46,8.84-10.02,6.96-12.42Z"/>
      <path class="cls-1" d="M435.87,249.64c.99-.58,2.04-1.15,3.12-1.71,.46-.24,.92-.48,1.39-.7,.47-.23,.95-.46,1.43-.69,.49-.24,.98-.46,1.48-.68s.99-.44,1.51-.66c0,0,.02,0,.03,0,.52-.22,1.04-.43,1.58-.65t.02,0c-.36,0-.72-.03-1.06-.05-.55-.02-1.1-.05-1.64-.09-.31,0-.62-.03-.93-.05-.32-.02-.66-.04-.98-.05-.24-.02-.48-.03-.72-.04-.33,0-.68-.03-1.01-.04-.18,0-.37,0-.55-.02-1.21-.04-2.45-.06-3.75-.02-.24,0-.49,0-.74,.02-.49,0-.98,.04-1.49,.07h-.02c-.3,.02-.6,.04-.91,.07-.31,.02-.61,.05-.93,.08-.47,.04-.95,.09-1.43,.14-.29,.03-.57,.07-.87,.11-.44,.06-.9,.11-1.37,.18-.46,.07-.94,.14-1.42,.22-.32,.05-.66,.11-.99,.17-.67,.11-1.37,.25-2.08,.39-7.99,1.6-12.99,3.19-17.02,4.15-3.96,.96-7,1.28-11.04,.37-5-1.11-9.65-3.91-13.64-6.32-2.53-1.54-4.8-2.91-6.73-3.62-3.11-1.14-3.23-8.44-2.87-13.79v-.02c-.04-.18-.07-.37-.09-.56-.73,.29-1.46,.58-2.21,.9-.02,0-.03,0-.05,.02-.58,.26-1.18,.52-1.77,.79-1.21,.56-2.44,1.18-3.67,1.82-.61,.32-1.23,.67-1.84,1.03-1.54,.88-3.08,1.85-4.6,2.92-.3,.21-.58,.42-.88,.63-.4,.29-.81,.58-1.21,.9-.36,.28-.73,.56-1.09,.86-.48,.37-.96,.76-1.43,1.18-.24,.21-.47,.41-.7,.61-.3,.25-.58,.52-.87,.77-6.01,5.52-11.33,12.76-14.91,22.28,0,0,6.49,.34,16.26,1.34,6.95,.71,15.54,1.73,24.66,3.19h0c7.56,1.2,15.46,2.71,23.04,4.58h0c4.38,1.07,8.64,2.26,12.68,3.58,0,0,1.15-3.87,5.21-9.13,.75-.96,1.59-1.97,2.54-3.01"/>
      <path class="cls-1" d="M479.95,223.76c-.17,.98-.38,1.71-.81,2.32,.03,.11,.04,.25,.05,.37,.11,1.87-1.61,3.3-2.26,5.05-.45,1.21-.56,2.81-1.22,3.79-.27,.41-.63,.73-1.16,.86-1.57,.4-2.36-1.09-3.18-2.69h0c-.44-.87-.89-1.76-1.47-2.41-.22-.24-.46-.45-.73-.62-1.44-.97-3.45-1.04-5.24-1.35-4.8-.83-8.81-3.91-13.15-6.15-.56-.3-1.14-.57-1.71-.83-4.13-1.84-9.64-2.19-12.96,.42-.73,.55-1.35,1.25-1.82,2.1-.51,.9-.9,1.97-1.41,2.87h0c-.51,.9-1.14,1.61-2.12,1.83-2.3,.51-3.87-2.24-5.91-3.4-.29-.16-.57-.3-.86-.38t-.02,0c-.45-.1-.91-.18-1.37-.28-3.74-.22-7.75,3.45-11.86,4.26-6.36,1.27-12.58-4.6-18.92-3.25-3.52,.75-6.32,3.57-9.38,5.44-1.61,.97-3.31,1.68-5.2,1.66-.53,0-1.12-.1-1.49-.48-.79-.82-.09-2.15,.43-3.17,.02-.04,.04-.09,.06-.12-2.67-.55-3.7-1.73-3.98-3.17-.36,5.34-.25,12.65,2.87,13.79,1.93,.71,4.19,2.08,6.73,3.62,3.99,2.42,8.65,5.22,13.64,6.32,4.04,.91,7.08,.58,11.04-.37,4.03-.96,9.04-2.55,17.02-4.15,.72-.14,1.41-.28,2.08-.39,.33-.07,.67-.12,.99-.17,.49-.08,.96-.15,1.42-.22,.47-.07,.93-.12,1.37-.18,.3-.04,.58-.08,.87-.11,.49-.06,.96-.11,1.43-.14,.32-.03,.62-.06,.93-.08,.31-.03,.61-.05,.91-.07h.02c.51-.03,1-.06,1.49-.07,.25,0,.5-.02,.74-.02,1.31-.04,2.54-.02,3.75,.02,.18,0,.37,0,.55,.02,.33,0,.68,.03,1.01,.04,.24,0,.48,.02,.72,.04,.32,0,.66,.03,.98,.05,.31,.02,.62,.04,.93,.05,.54,.04,1.09,.07,1.64,.09,.34,.02,.7,.04,1.06,.05h0c.37,.02,.75,.03,1.13,.04,.31,.02,.61,.02,.93,.03,.13,0,.26,0,.39,0h.38c.15,0,.31,0,.47,0,.43,0,.86,0,1.32,0s.91,0,1.38-.02h.17c.5,0,1-.03,1.53-.05,.22,0,.45-.02,.68-.04,.23,0,.46-.03,.7-.04,.91-.05,1.87-.12,2.88-.21,2.34-.21,4.47-.49,6.41-.78,7.7-1.23,12.38-3.1,14.48-4.78,.76-.59,1.18-1.18,1.28-1.68,.46-2.26-.6-13.28-.6-13.28Z"/>
      <path class="cls-1" d="M470.15,212.59c-8.15-.91-8.15-3.17-20.38-5.88-8.48-1.88-14.78-5.29-22.98-5.85-3.62-.24-7.61,.08-12.32,1.32-15.39,4.07-18.1,6.33-28.06,10.86-8.45,3.84-12.01,4.1-13.17,6.31-.21,.39-.34,.85-.41,1.39-.02,.15-.04,.32-.07,.48-.11,.78-.32,2.48-.48,4.57h0c-.02,.21-.04,.42-.05,.62v.02c.29,1.44,1.32,2.62,3.98,3.17,.81-1.66,.99-3.61,.58-5.41-.17-.75-.44-1.48-.82-2.16,.29-.49,.63-.87,1.02-1.18,2.57-1.93,7.26-.33,10.83-1.11,3.57-.78,6.13-4.17,9.7-5.02,5.03-1.18,10.68,3.02,15.22,.53,4.49-2.47,5.64-9.1,10.49-11.31,5.86-2.67,9.55,2.6,13.88,5.66,5.89,4.16,13.87,3,20.93,4.45,6.53,1.35,12.32,4.99,17.96,8.56,.52,.32,1.04,.68,1.51,1.08,.79,.65,1.44,1.43,1.62,2.39,.43-.61,.64-1.34,.81-2.32,.47-2.67-1.65-10.26-9.8-11.17Z"/>
      <path class="cls-1" d="M479.14,226.08c-.18-.96-.83-1.74-1.62-2.39-.47-.4-.99-.75-1.51-1.08-5.64-3.57-11.43-7.21-17.96-8.56-7.06-1.45-15.04-.3-20.93-4.45-4.33-3.06-8.02-8.33-13.88-5.66-4.85,2.21-6,8.84-10.49,11.31-4.54,2.49-10.18-1.71-15.22-.53-3.56,.84-6.12,4.23-9.7,5.02-3.57,.77-8.26-.82-10.83,1.11-.39,.31-.74,.69-1.02,1.18,.38,.68,.65,1.4,.82,2.16,.41,1.8,.23,3.74-.58,5.41-.02,.04-.04,.09-.06,.12-.52,1.02-1.22,2.35-.43,3.17,.37,.38,.96,.47,1.49,.48,1.89,.02,3.58-.69,5.2-1.66,3.06-1.86,5.87-4.69,9.38-5.44,6.34-1.35,12.56,4.52,18.92,3.25,4.11-.81,8.11-4.48,11.86-4.26,.03,0,.05,0,.08,0h.03c.4,.03,.79,.11,1.18,.24,0,0,.02,0,.03,0,0,0,.03,0,.05,.02t.02,0c.29,.09,.57,.22,.86,.38,2.04,1.17,3.61,3.91,5.91,3.4,.98-.22,1.61-.94,2.12-1.82h0c.52-.91,.91-1.98,1.41-2.88,.48-.85,1.1-1.55,1.82-2.1,3.32-2.61,8.84-2.26,12.96-.42,.57,.26,1.15,.53,1.71,.83,4.35,2.24,8.36,5.32,13.15,6.15,1.79,.31,3.79,.37,5.24,1.35,.27,.17,.51,.38,.73,.62,.58,.65,1.03,1.54,1.47,2.4h0c.82,1.61,1.61,3.1,3.18,2.7,.53-.13,.89-.45,1.16-.86,.66-.98,.77-2.58,1.22-3.79,.65-1.76,2.38-3.18,2.26-5.05,0-.12-.02-.26-.05-.37Z"/>
    </g>
    <g class="cls-3">
      <path class="cls-1" d="M98.51,604.38c78.4-58.12,95.19-102.25,95.19-102.25l-8.46-9.13"/>
      <path class="cls-1" d="M92.35,591.71s41.2-32.61,63.88-58.58c22.32-25.56,29.61-39.47,29.01-40.13s-13.77,5.41-42.48,12.09c-28.96,6.74-79.66,10.17-79.66,10.17"/>
      <path class="cls-1" d="M93.54,592.01s-10.66-10.86-22.71-28.12c-11.97-17.16-7.73-48.63-7.73-48.63,0,0-5.74-5.12-13.21-2.48-7.48,2.65-13.27,7.95-14.66,11.98-1.39,4.04-.52,59.19,34.68,90.24-4.28-6.46-3.85-14.84,.82-20.38,5.38-6.38,15.34-7.73,22.8-2.62Z"/>
      <path class="cls-1" d="M72.55,592.86c-6.96,5.88-8.16,15.8-2.64,22.14,5.53,6.35,15.68,6.67,22.63,.72,6.92-5.93,8.03-15.82,2.51-22.11s-15.57-6.62-22.51-.76Z"/>
      <path class="cls-1" d="M84.36,528.49c-6.26,5.2-8.71,12.42-5.45,16.12,3.26,3.71,11,2.46,17.25-2.77,6.23-5.21,8.62-12.4,5.36-16.08-3.25-3.67-10.93-2.45-17.16,2.73Z"/>
      <path class="cls-1" d="M127.93,526.91c-6.15,5.16-8.5,12.33-5.23,16.01,3.27,3.68,10.92,2.45,17.06-2.74,6.12-5.17,8.41-12.31,5.15-15.96-3.26-3.64-10.85-2.44-16.98,2.7Z"/>
      <path class="cls-1" d="M93.08,559.36c-5.49,4.63-7.63,11.04-4.75,14.31,2.88,3.28,9.68,2.15,15.16-2.5,5.47-4.64,7.56-11.03,4.69-14.28-2.87-3.25-9.62-2.15-15.1,2.46Z"/>
      <path class="cls-1" d="M111.55,542.63c-.89,.16-2.74,.61-4.44,2.12-.97,.86-1.57,1.77-1.92,2.44"/>
      <path class="cls-1" d="M136.07,515.05c-1.43,1.33-3.56,2.91-5.52,2.38-1.9-.52-2.24-2.64-3.68-2.87-1.18-.19-3.11,.91-6.24,7.13"/>
    </g>
    <g class="cls-3">
      <path class="cls-1" d="M711.42,622.38c-11.97-9.64-27.18-15.4-43.75-15.4-38.6,0-69.9,31.3-69.9,69.9,0,9.45,1.88,18.46,5.28,26.67,10.47,25.37,35.47,43.23,64.62,43.23,38.6,0,69.9-31.3,69.9-69.9,0-22.04-10.21-41.71-26.15-54.5Z"/>
      <path class="cls-1" d="M711.42,622.38c-11.97-9.64-27.18-15.4-43.75-15.4-38.6,0-69.9,31.3-69.9,69.9,0,9.45,1.88,18.46,5.28,26.67,11.97,9.63,27.17,15.38,43.74,15.38,38.6,0,69.9-31.29,69.9-69.9,0-9.44-1.87-18.45-5.27-26.65Z"/>
      <ellipse class="cls-1" cx="634.9" cy="649.62" rx="19.43" ry="11.89" transform="translate(-272.4 605.83) rotate(-42.89)"/>
      <ellipse class="cls-1" cx="688.43" cy="655.02" rx="13.36" ry="10.66" transform="translate(-221.96 382.67) rotate(-26.92)"/>
      <ellipse class="cls-1" cx="654.92" cy="695.05" rx="13.36" ry="10.66" transform="translate(-243.72 371.84) rotate(-26.92)"/>
      <ellipse class="cls-1" cx="674.94" cy="623.7" rx="10.1" ry="8.06" transform="translate(-109.23 144.51) rotate(-11.31)"/>
    </g>
    <g class="cls-3">
      <path class="cls-1" d="M346.21,456.62c-3.6-13.36-23.34-19.94-44.29-14.74-21.12,5.25-35.53,20.5-32.16,34.09l1.33,3.58c1.06,2.06,2.55,3.92,4.39,5.54,1.72-4.65,5.18-9.14,9.94-13.01,5.59-4.58,12.97-8.27,21.42-10.37,8.47-2.1,16.72-2.3,23.8-.87,3.14,.63,6.06,1.56,8.66,2.8,2.35,1.11,4.45,2.46,6.22,4.05,.53-1.42,.88-2.83,1.08-4.24,.32-2.19,.22-4.36-.31-6.49-.03-.12-.06-.22-.1-.34Z"/>
      <path class="cls-1" d="M339.31,463.64c-2.6-1.24-5.52-2.16-8.66-2.8-7.08-1.43-15.33-1.24-23.8,.87-8.45,2.1-15.83,5.79-21.42,10.37-4.76,3.87-8.22,8.36-9.94,13.01,8.08,7.17,23.02,9.87,38.65,5.99,.41-.1,.83-.21,1.24-.32,.6-.17,1.2-.35,1.79-.52,.43-.12,.85-.24,1.27-.39,1.28-.41,2.55-.87,3.76-1.37,.4-.16,.83-.33,1.23-.51,.46-.19,.9-.38,1.32-.58,.32-.16,.62-.3,.93-.45,.72-.32,1.42-.68,2.08-1.05,.3-.17,.63-.33,.94-.5,.07-.05,.15-.08,.22-.13,.34-.2,.69-.39,1.03-.6,.4-.22,.77-.46,1.14-.71,1.11-.7,2.19-1.44,3.21-2.21,.67-.51,1.33-1.04,1.95-1.57,.16-.13,.31-.27,.47-.4,.26-.22,.51-.46,.77-.69,.79-.73,1.55-1.48,2.24-2.25,.28-.27,.52-.55,.79-.86,.24-.3,.48-.59,.72-.89,.23-.28,.47-.59,.69-.89,.21-.29,.43-.59,.64-.9,.16-.23,.32-.44,.45-.66,1.06-1.62,1.9-3.25,2.52-4.92-1.78-1.59-3.87-2.94-6.22-4.05Z"/>
      <path class="cls-1" d="M314.14,491.08c-15.63,3.88-30.57,1.18-38.65-5.99-1.85-1.62-3.33-3.48-4.39-5.54l3.42,9.07,6.23,16.6,18.71,49.81c2.54,10.23,17.49,15.31,33.4,11.36,.41-.1,.83-.21,1.24-.34l-18.7-75.3c-.41,.12-.83,.22-1.24,.32Z"/>
      <polyline class="cls-1" points="340.5 395.53 305.11 414 309.11 476.85"/>
      <path class="cls-1" d="M345.53,467.69c-.62,1.66-1.46,3.3-2.52,4.92-.13,.22-.29,.43-.45,.66-.21,.3-.43,.61-.64,.9-.22,.31-.46,.62-.69,.89-.24,.3-.48,.59-.72,.89-.27,.3-.52,.58-.79,.86-.69,.77-1.44,1.52-2.24,2.25-.26,.24-.51,.47-.77,.69-.16,.13-.31,.27-.47,.4-.62,.53-1.28,1.06-1.95,1.57-1.02,.77-2.09,1.51-3.21,2.21-.38,.25-.74,.48-1.14,.71-.34,.21-.68,.41-1.03,.6-.07,.05-.15,.08-.22,.13-.32,.17-.64,.33-.94,.5-.66,.37-1.36,.73-2.08,1.05-.31,.15-.6,.29-.93,.45-.42,.2-.86,.39-1.32,.58-.4,.18-.83,.35-1.23,.51-1.21,.5-2.48,.96-3.76,1.37-.42,.15-.84,.27-1.27,.39-.58,.18-1.18,.36-1.79,.52l18.7,75.3c12.57-3.47,21.72-11.68,23.15-20.05,.31-1.78,.27-3.54-.17-5.29l-1.59-12.48v-.04s-8.87-64.75-8.87-64.75c-.2,1.42-.56,2.83-1.08,4.24Z"/>
    </g>
    <g class="cls-3">
      <path class="cls-1" d="M913.34,406.18c-5.91,8.54-8.8,21.53-8.8,21.53,0,0-16.36,4-52.08,22.55-15.68,8.16-26.54,16.28-33.81,22.84,2.89,4.63,9.1,13.37,14.59,13.02,4.05-.25,28.99-14.1,51.48-27.94,18.87-11.6,36.02-23.19,37.62-26.63,2.77-5.94-5.34-19.68-8.99-25.37Z"/>
      <path class="cls-1" d="M895.1,414.11c-.77,.25-1.58,.43-2.37,.51-2.99,.32-6.12-.03-8.91,1.07-5.26,2.07-7.25,8.3-11.03,12.57-.49,.55-1,1.06-1.55,1.53-1.68,1.42-3.6,2.36-5.66,3.03-5.86,1.93-12.82,1.8-18.11,5.15-7.08,4.49-10.31,14.6-18.49,16.44-1.9,.43-3.87,.33-5.77,.71-2.36,.44-4.55,1.61-6.24,3.3-1.72,1.74-2.89,3.95-4.57,5.72-1.68,1.79-4.17,3.16-6.51,2.45-.6-.19-1.12-.49-1.58-.89-.65,3.16-1.01,6.53-.55,9.25,1.28,7.49,2.21,12.31,2.21,12.31,0,0,3.4-5.82,12.69-14.18,7.27-6.56,18.13-14.68,33.81-22.84,35.72-18.56,52.08-22.55,52.08-22.55,0,0,2.89-12.99,8.8-21.53,1.75-2.54,3.78-4.68,6.07-5.97,0,0-4.79-2.32-12.68-2.39-.03,1.44-.89,2.94-2.23,3.49-1,.41-2.18,.38-3.07,.98-2.28,1.5-.92,5.04-1.63,7.67-.17,.65-.46,1.22-.87,1.72"/>
      <path class="cls-1" d="M906.18,395.84c-.6-.9-1.45-1.42-2.48-1.64,.13,.44,.25,.87,.35,1.31,.19,.87,.11,1.69-.24,2.5-1.79,4.25-10.62,7.73-22.55,12.98-1.98,.89-4.17,1.99-6.53,3.27-14.57,7.95-34.96,22.52-42.22,27.3-3.52,2.31-8.31,5.8-13.2,8.84-4.24,2.62-8.53,4.9-12.17,5.74-1.31,.33-2.53,.46-3.65,.35-.73,1.49-1.23,3.08-1.2,4.73,.03,1.69,.76,3.43,2.01,4.52,.46,.4,.98,.7,1.58,.89,2.34,.71,4.84-.66,6.51-2.45,1.68-1.77,2.84-3.98,4.57-5.72,1.69-1.69,3.89-2.86,6.24-3.3,1.9-.38,3.87-.28,5.77-.71,8.19-1.83,11.41-11.95,18.49-16.44,5.3-3.35,12.25-3.22,18.11-5.15,1.03-.3,2.43-.83,3.93-1.78,1.49-.95,2.57-1.98,3.28-2.79,3.78-4.27,5.77-10.5,11.03-12.57,2.8-1.11,5.93-.76,8.91-1.07,.79-.08,1.6-.25,2.37-.51,.65-.2,1.54-.55,2.46-1.21,.58-.41,1.04-.85,1.38-1.23,.41-.51,.7-1.07,.87-1.72,.71-2.62-.65-6.16,1.63-7.67,.89-.6,2.07-.57,3.07-.98,1.34-.55,2.2-2.05,2.23-3.49,.02-.7-.16-1.39-.55-1.98Z"/>
      <path class="cls-1" d="M904.05,395.51c-.09-.44-.22-.87-.35-1.31h-.02c-1.49-4.93-5.22-10.02-7.97-13.78-.13-.14-.22-.3-.33-.43-.17-.24-.35-.47-.55-.7-19.63,28.15-80.5,54.69-102.37,63.55v.02c.13,.95-.65-.09,.06,.64,0,0,1.33,3.27,2.1,5.11,.95,2.29,2.89,5.28,6.75,7.25,.63,.33,1.34,.52,2.12,.6,1.12,.11,2.34-.02,3.65-.35,3.64-.84,7.93-3.11,12.17-5.74,4.88-3.03,9.67-6.53,13.2-8.84,7.25-4.77,27.64-19.35,42.22-27.3,2.36-1.28,4.55-2.39,6.53-3.27,11.93-5.25,20.77-8.72,22.55-12.98,.35-.81,.43-1.63,.24-2.5Z"/>
      <path class="cls-1" d="M890.58,361.24c-4.06,4.85-16.8,18.59-40.67,32.75-23.63,14.04-60.03,31.18-73.91,37.62,2.48,6.39,6.34,13.15,8.52,14.37,0,0,2.96-1.11,7.93-3.11v-.02c21.88-8.87,82.74-35.4,102.37-63.55,1.17-1.68,2.2-3.35,3.05-5.04,0,0,.13-6.88-7.3-13.01Z"/>
      <path class="cls-1" d="M883.88,357.07c-14.19-6.62-35.88-1.9-65.28,15.49-24.8,14.68-46.5,33.38-44.86,50.78,.21,2.24,1.08,5.2,2.26,8.27,13.88-6.43,50.28-23.58,73.91-37.62,23.87-14.16,36.61-27.9,40.67-32.75-1.77-1.47-3.97-2.89-6.7-4.17Z"/>
      <path class="cls-1" d="M883.88,357.07c-14.19-6.62-35.88-1.9-65.28,15.49-24.8,14.68-46.5,33.38-44.86,50.78,.21,2.24,1.08,5.2,2.26,8.27,13.88-6.43,50.28-23.58,73.91-37.62,23.87-14.16,36.61-27.9,40.67-32.75-1.77-1.47-3.97-2.89-6.7-4.17Z"/>
      <ellipse class="cls-1" cx="802.29" cy="394.2" rx="4.22" ry="1.59" transform="translate(-90.84 357.13) rotate(-23.79)"/>
      <ellipse class="cls-1" cx="815.01" cy="383.18" rx="4.22" ry="1.59" transform="translate(-85.32 361.33) rotate(-23.79)"/>
      <ellipse class="cls-1" cx="849.12" cy="372.67" rx="4.22" ry="1.59" transform="translate(-78.18 374.19) rotate(-23.79)"/>
      <ellipse class="cls-1" cx="834.39" cy="372.67" rx="4.22" ry="1.59" transform="translate(-79.43 368.25) rotate(-23.79)"/>
      <ellipse class="cls-1" cx="827" cy="386.05" rx="4.22" ry="1.59" transform="translate(-85.46 366.41) rotate(-23.79)"/>
      <ellipse class="cls-1" cx="859.32" cy="362.74" rx="4.22" ry="1.59" transform="translate(-73.31 377.46) rotate(-23.79)"/>
      <ellipse class="cls-1" cx="788.9" cy="406.17" rx="4.22" ry="1.59" transform="translate(-96.81 352.75) rotate(-23.79)"/>
    </g>
    <g class="cls-3">
      <path class="cls-1" d="M139.1,235.05l.07,.3,4.11,18.38s11.11,6.94,24.67,16.76"/>
      <path class="cls-1" d="M178.88,278.68c6.03,4.68,12.1,9.68,17.53,14.72,5.94,5.52,12.66,12.73,19.26,20.28,17.38,19.91,34.02,42.23,34.02,42.23l5.85-7.56"/>
      <g>
        <path class="cls-1" d="M252.38,271.05c2.95,6.99,11.42,25.92,11.38,42.77,0,1.87-.11,3.71-.34,5.48-2.3,18.02,1.54,30.87-.6,33.29-2.13,2.44-8.6-1.02-9.21-12.82-.6-11.81,2.59-16.12-6.28-17.68-8.87-1.56-9.39,2.74-11.03-4.49-1.67-7.25-1.97-14.05-8.72-16.92-6.72-2.85-10.73-.14-13.2-9-2.48-8.85-16.81-23.79-25.68-28.03-7.43-3.55-5.86,7.99-9.83,15.03-.77,1.4-1.78,2.61-3.09,3.51-4.8,3.23-5.86-3.76-7.85-11.7-1.33-5.34-3.09-11.12-6.68-14.44-8.92-8.28-8.37-8.56-14.85-12.01-3.27-1.75-5.74-5.29-7.25-8.69-1.48-3.3-2.09-6.45-1.71-7.64,.79-2.41,6.41-7.29,6.41-7.29,0,0,2.01-2.05,6.57-2.76,1.84-.3,4.1-.37,6.82,0,9.42,1.29,24.74,4.95,37.11,6.76,12.36,1.79,12.89,1.52,22.57,3.36,9.68,1.8,18.86,10.62,22.11,17.03s10.07,18.47,13.32,26.24Z"/>
        <path class="cls-1" d="M184.03,235.73c-5.46-6.52-13.55-8.75-18.04-4.99-4.51,3.77-3.72,12.12,1.74,18.65,5.46,6.52,13.53,8.74,18.03,4.97,4.51-3.77,3.73-12.11-1.73-18.63Z"/>
        <path class="cls-1" d="M209.06,250.65c4.37,5.21,10.83,6.99,14.43,3.96,3.59-3.01,2.97-9.68-1.39-14.89-4.38-5.22-10.84-7-14.44-3.98-3.59,3-2.97,9.68,1.39,14.9Z"/>
        <path class="cls-1" d="M230.45,282.87c3.6-3.03,2.96-9.69-1.39-14.91-4.37-5.21-10.83-6.99-14.42-3.98-3.6,3.03-2.98,9.7,1.38,14.91,4.37,5.21,10.83,6.99,14.44,3.98Z"/>
        <path class="cls-1" d="M244.04,286.34c-4.47,1.44-6.42,7.85-4.35,14.33,2.07,6.48,7.37,10.56,11.85,9.13,4.47-1.42,6.41-7.84,4.34-14.31-2.06-6.49-7.37-10.58-11.85-9.16Z"/>
      </g>
      <path class="cls-1" d="M165.99,230.75c-4.51,3.77-3.72,12.12,1.74,18.65,5.46,6.52,13.53,8.74,18.03,4.97,4.51-3.77,3.73-12.11-1.73-18.63-5.46-6.52-13.55-8.75-18.04-4.99Z"/>
      <path class="cls-1" d="M229.06,267.96c-4.37-5.21-10.83-6.99-14.42-3.98-3.6,3.03-2.98,9.7,1.38,14.91,4.37,5.21,10.83,6.99,14.44,3.98,3.6-3.03,2.96-9.69-1.39-14.91Z"/>
      <path class="cls-1" d="M223.5,254.61c3.59-3.01,2.97-9.68-1.39-14.89-4.38-5.22-10.84-7-14.44-3.98-3.59,3-2.97,9.68,1.39,14.9,4.37,5.21,10.83,6.99,14.43,3.96Z"/>
      <path class="cls-1" d="M244.04,286.34c-4.47,1.44-6.42,7.85-4.35,14.33,2.07,6.48,7.37,10.56,11.85,9.13,4.47-1.42,6.41-7.84,4.34-14.31-2.06-6.49-7.37-10.58-11.85-9.16Z"/>
      <path class="cls-1" d="M184.03,235.73c-5.46-6.52-13.55-8.75-18.04-4.99-4.51,3.77-3.72,12.12,1.74,18.65,5.46,6.52,13.53,8.74,18.03,4.97,4.51-3.77,3.73-12.11-1.73-18.63Z"/>
      <path class="cls-1" d="M222.11,239.72c-4.38-5.22-10.84-7-14.44-3.98-3.59,3-2.97,9.68,1.39,14.9,4.37,5.21,10.83,6.99,14.43,3.96,3.59-3.01,2.97-9.68-1.39-14.89Z"/>
      <path class="cls-1" d="M229.06,267.96c-4.37-5.21-10.83-6.99-14.42-3.98-3.6,3.03-2.98,9.7,1.38,14.91,4.37,5.21,10.83,6.99,14.44,3.98,3.6-3.03,2.96-9.69-1.39-14.91Z"/>
      <path class="cls-1" d="M244.04,286.34c-4.47,1.44-6.42,7.85-4.35,14.33,2.07,6.48,7.37,10.56,11.85,9.13,4.47-1.42,6.41-7.84,4.34-14.31-2.06-6.49-7.37-10.58-11.85-9.16Z"/>
    </g>
    <line class="cls-2" x1="577.83" y1="863.28" x2="577.83" y2="863.32"/>
    <g class="cls-3">
      <path class="cls-1" d="M995.89,941.35c4.21-13.18-8.81-29.41-29.23-36.39-20.6-7.04-40.97-2.02-45.5,11.23l-.82,3.73c-.22,2.31,.01,4.68,.69,7.04,3.97-2.98,9.31-4.88,15.4-5.55,7.18-.82,15.38,.08,23.62,2.89,8.26,2.82,15.29,7.13,20.47,12.17,2.3,2.24,4.25,4.59,5.76,7.05,1.37,2.21,2.4,4.48,3.04,6.77,1.21-.91,2.28-1.9,3.21-2.98,1.45-1.66,2.55-3.55,3.26-5.62,.04-.12,.07-.22,.1-.34Z"/>
      <path class="cls-1" d="M986.28,943.52c-1.52-2.45-3.47-4.81-5.76-7.05-5.18-5.04-12.22-9.35-20.47-12.17-8.24-2.82-16.44-3.71-23.62-2.89-6.1,.67-11.44,2.57-15.4,5.55,2.91,10.41,14,20.77,29.24,25.98,.4,.14,.81,.28,1.22,.4,.6,.19,1.2,.36,1.79,.53,.42,.13,.85,.26,1.28,.36,1.3,.35,2.61,.65,3.9,.88,.42,.08,.88,.17,1.31,.24,.49,.09,.96,.17,1.42,.23,.36,.04,.68,.09,1.02,.12,.78,.12,1.56,.19,2.32,.24,.35,.02,.7,.06,1.07,.09,.08,0,.17,.01,.26,0,.4,.02,.79,.04,1.19,.05,.46,.03,.89,.03,1.35,.02,1.32,.01,2.62-.02,3.89-.12,.84-.07,1.68-.15,2.49-.26,.2-.03,.41-.05,.61-.08,.34-.05,.68-.11,1.02-.17,1.06-.19,2.11-.41,3.1-.68,.38-.08,.74-.18,1.13-.29,.36-.12,.73-.24,1.09-.35,.34-.11,.71-.24,1.06-.38,.33-.13,.69-.27,1.03-.41,.26-.1,.5-.2,.74-.31,1.77-.78,3.36-1.71,4.78-2.77-.63-2.3-1.66-4.57-3.04-6.77Z"/>
      <path class="cls-1" d="M950.27,952.94c-15.24-5.21-26.34-15.57-29.24-25.98-.68-2.36-.92-4.73-.69-7.04l-2.04,9.47-3.76,17.33-11.27,52c-3.41,9.97,6.4,22.35,21.92,27.65,.4,.14,.81,.28,1.22,.39l25.08-73.42c-.41-.12-.81-.26-1.22-.4Z"/>
      <polyline class="cls-1" points="1024.19 886.92 984.44 883.26 953.75 938.26"/>
      <path class="cls-1" d="M989.32,950.3c-1.43,1.06-3.01,1.98-4.78,2.77-.23,.11-.47,.21-.74,.31-.34,.14-.69,.28-1.03,.41-.35,.14-.72,.27-1.06,.38-.36,.12-.73,.24-1.09,.35-.39,.11-.75,.21-1.13,.29-1,.27-2.04,.5-3.1,.68-.34,.06-.69,.12-1.02,.17-.2,.03-.41,.05-.61,.08-.81,.11-1.65,.2-2.49,.26-1.27,.1-2.58,.14-3.89,.12-.45,0-.89,0-1.35-.02-.4,0-.8-.03-1.19-.05-.08,0-.17-.01-.26,0-.36-.03-.72-.07-1.07-.09-.76-.05-1.54-.12-2.32-.24-.34-.04-.67-.08-1.02-.12-.46-.06-.93-.14-1.42-.23-.43-.07-.88-.16-1.31-.24-1.29-.23-2.61-.54-3.9-.88-.43-.1-.86-.23-1.28-.36-.59-.17-1.19-.34-1.79-.53l-25.08,73.42c12.45,3.9,24.59,1.95,30.32-4.31,1.23-1.32,2.14-2.83,2.72-4.53l5.42-11.35v-.04s27.66-59.22,27.66-59.22c-.93,1.08-2,2.07-3.21,2.98Z"/>
    </g>
    <g class="cls-3">
      <path class="cls-1" d="M131.23,998.54c-10.37,.44-22.48,5.98-22.48,5.98,0,0-13.06-10.63-49.42-27.91-15.97-7.58-29-11.33-38.62-13.17-1.95,5.1-5.17,15.33-1.58,19.49,2.64,3.07,28.74,14.6,53.35,24.17,20.64,8.04,40.23,14.72,43.94,13.91,6.41-1.38,12.46-16.14,14.8-22.48Z"/>
      <path class="cls-1" d="M113.89,988.79c-.67-.46-1.29-1-1.83-1.58-2.06-2.19-3.67-4.9-6.24-6.46-4.83-2.95-11-.78-16.68-1.21-.74-.06-1.45-.15-2.16-.31-2.15-.48-4.05-1.45-5.84-2.68-5.08-3.51-9.17-9.13-15.04-11.33-7.85-2.94-17.86,.6-24.27-4.82-1.49-1.25-2.6-2.89-4.05-4.17-1.77-1.61-4.03-2.66-6.4-2.98-2.43-.32-4.9,.08-7.32-.19-2.44-.26-5.04-1.42-5.88-3.71-.21-.59-.29-1.19-.25-1.79-2.91,1.39-5.81,3.13-7.71,5.14-5.2,5.54-8.48,9.2-8.48,9.2,0,0,6.69-.8,18.96,1.56,9.62,1.84,22.65,5.59,38.62,13.17,36.36,17.28,49.42,27.91,49.42,27.91,0,0,12.1-5.54,22.48-5.98,3.09-.14,6.01,.19,8.43,1.23,0,0-1.04-5.22-5.75-11.55-1.17,.84-2.88,1.07-4.13,.33-.93-.55-1.62-1.51-2.63-1.85-2.57-.91-4.57,2.31-7.09,3.33-.62,.25-1.25,.37-1.9,.35"/>
      <path class="cls-1" d="M135.15,986.59c.36-1.02,.26-2.02-.19-2.97-.28,.37-.54,.73-.84,1.07-.58,.68-1.28,1.11-2.13,1.32-4.47,1.14-12.57-3.8-23.96-10.15-1.9-1.04-4.11-2.12-6.55-3.23-15.14-6.82-39.06-14.28-47.25-17.18-3.97-1.42-9.64-3.13-15.01-5.19-4.65-1.79-9.06-3.85-11.92-6.24-1.06-.85-1.89-1.74-2.48-2.7-1.62,.32-3.2,.88-4.49,1.89-1.33,1.05-2.28,2.68-2.39,4.33-.04,.6,.04,1.2,.25,1.79,.84,2.29,3.45,3.46,5.88,3.71,2.42,.27,4.89-.14,7.32,.19,2.37,.33,4.63,1.37,6.4,2.98,1.45,1.28,2.56,2.92,4.05,4.17,6.4,5.42,16.42,1.89,24.27,4.82,5.87,2.2,9.96,7.82,15.04,11.33,.87,.64,2.13,1.44,3.79,2.05,1.65,.62,3.13,.85,4.2,.93,5.68,.44,11.85-1.74,16.68,1.21,2.57,1.56,4.18,4.27,6.24,6.46,.54,.58,1.17,1.12,1.83,1.58,.55,.4,1.37,.89,2.45,1.23,.68,.22,1.3,.32,1.81,.36,.65,.02,1.28-.09,1.9-.35,2.52-1.02,4.52-4.24,7.09-3.33,1.01,.34,1.7,1.31,2.63,1.85,1.25,.74,2.96,.51,4.13-.33,.56-.41,1.01-.97,1.24-1.63Z"/>
      <path class="cls-1" d="M134.12,984.69c.3-.34,.56-.7,.84-1.07h0c3.03-4.17,4.84-10.22,6.18-14.68,.04-.19,.11-.36,.14-.52,.08-.28,.17-.56,.22-.86-34.29,1.34-92.19-31.17-112.47-43.26h-.01c-.68,.68-.32-.56-.47,.44,0,0-1.8,3.03-2.81,4.76-1.25,2.14-2.46,5.49-1.71,9.76,.12,.7,.4,1.39,.8,2.05,.59,.96,1.42,1.86,2.48,2.7,2.86,2.39,7.27,4.45,11.92,6.24,5.37,2.06,11.04,3.77,15.01,5.19,8.18,2.9,32.11,10.36,47.25,17.18,2.44,1.1,4.65,2.19,6.55,3.23,11.39,6.35,19.49,11.29,23.96,10.15,.85-.21,1.56-.64,2.13-1.32Z"/>
      <path class="cls-1" d="M153.31,953.27c-6.32-.31-24.96-2.18-50.66-12.65-25.45-10.37-61.1-29.04-74.6-36.22-3.59,5.83-6.66,12.99-6.31,15.46,0,0,2.67,1.69,7.27,4.45h.01c20.27,12.08,78.17,44.59,112.47,43.25,2.04-.08,4-.27,5.86-.61,0,0,5.56-4.05,5.96-13.67Z"/>
      <path class="cls-1" d="M152.6,945.41c-3.29-15.31-20.15-29.75-51.75-42.69-26.68-10.91-54.68-16.92-67.57-5.11-1.67,1.52-3.5,4-5.23,6.79,13.51,7.18,49.15,25.85,74.6,36.22,25.7,10.48,44.34,12.35,50.66,12.65,.1-2.3-.09-4.91-.72-7.86Z"/>
      <path class="cls-1" d="M152.6,945.41c-3.29-15.31-20.15-29.75-51.75-42.69-26.68-10.91-54.68-16.92-67.57-5.11-1.67,1.52-3.5,4-5.23,6.79,13.51,7.18,49.15,25.85,74.6,36.22,25.7,10.48,44.34,12.35,50.66,12.65,.1-2.3-.09-4.91-.72-7.86Z"/>
      <ellipse class="cls-1" cx="73.74" cy="902.77" rx="1.59" ry="4.22" transform="translate(-751.07 528.45) rotate(-60.92)"/>
      <ellipse class="cls-1" cx="90.21" cy="906.26" rx="1.59" ry="4.22" transform="translate(-745.66 544.64) rotate(-60.92)"/>
      <ellipse class="cls-1" cx="119.17" cy="927.11" rx="1.59" ry="4.22" transform="translate(-748.99 580.67) rotate(-60.92)"/>
      <ellipse class="cls-1" cx="110.29" cy="915.37" rx="1.59" ry="4.22" transform="translate(-743.3 566.87) rotate(-60.92)"/>
      <ellipse class="cls-1" cx="95.16" cy="917.55" rx="1.59" ry="4.22" transform="translate(-752.98 554.77) rotate(-60.92)"/>
      <ellipse class="cls-1" cx="133.25" cy="929.25" rx="1.59" ry="4.22" transform="translate(-743.63 594.07) rotate(-60.92)"/>
      <ellipse class="cls-1" cx="56.12" cy="899.32" rx="1.59" ry="4.22" transform="translate(-757.11 511.27) rotate(-60.92)"/>
    </g>
    <g class="cls-3">
      <path class="cls-1" d="M59.38,13.63l-7.18-3.78s-9.18,10.27-10.4,26.63c-1.23,16.36,9.66,25.07,9.66,25.07-7.81-30.32,7.92-47.92,7.92-47.92Z"/>
      <path class="cls-1" d="M90.5,36.1c-2.03,.33-4.13,.83-6.28,1.54h-.01c-11.23,3.68-23.3,12.48-31.27,26.18,0,0-55.15,19.7-32.06,58.82,13.7,18.71,23.62,19.52,36.97,21.57,5.51,.84,11.62,1.91,18.83,4.55,12.96,1.84,18.67-11.12,24.06-14.21,5.4-3.09,24-5.96,26.62-20.47,2.61-14.51-4.18-32.57-1.57-47.07,2.61-14.51-18.93-33.55-35.29-30.92Z"/>
      <path class="cls-1" d="M59.04,143.35c.54-3.82,7.34-5.43,11-9.87,7.32-8.87,20.9-11.35,21.2-25.08,.31-13.73,5.38-26.25,6.23-47.62,.57-14.69-10.51-15.13-12.82-21.95"/>
    </g>
    <g class="cls-3">
      <path class="cls-1" d="M82.31,394.96c52.49-16.93,36.2-70.59,36.2-70.59,0,0-2.08,.69-5.92,1.98-.5,14.69-4.72,44.4-29.67,53.74-40.68,15.16-64.09-14.4-71.1-25.34-1.91,.47-3.85,.94-5.82,1.4,0,0,24.41,55.58,76.3,38.8Z"/>
      <path class="cls-1" d="M112.59,326.35c-.59,.2-1.25,.4-1.92,.63-.29,.08-.57,.19-.89,.28-9,2.9-24.46,7.74-44.3,13.37-1.63,.45-3.28,.91-4.98,1.38-.25,.1-.51,.17-.79,.21-.85,.27-1.72,.49-2.61,.74t-.05,.02c-1.41,.4-2.85,.8-4.31,1.22-11.69,3.17-24.52,6.53-38.17,9.87-.24,.06-.49,.13-.73,.19-.65,.16-1.33,.34-2.02,.48,7,10.93,30.42,40.5,71.1,25.34,24.95-9.34,29.17-39.05,29.67-53.74Z"/>
    </g>
    <g class="cls-3">
      <path class="cls-1" d="M969,497.64c-6.77,0-13.18,1.6-18.86,4.43-13.92,6.93-23.49,21.31-23.49,37.92,0,23.38,18.97,42.35,42.35,42.35,16.61,0,31-9.57,37.92-23.49,2.83-5.67,4.43-12.08,4.43-18.86,0-23.38-18.97-42.35-42.35-42.35Z"/>
      <path class="cls-1" d="M969,497.64c-6.77,0-13.18,1.6-18.86,4.43-2.84,5.68-4.44,12.08-4.44,18.87,0,23.38,18.97,42.35,42.35,42.35,6.78,0,13.18-1.6,18.87-4.44,2.83-5.67,4.43-12.08,4.43-18.86,0-23.38-18.97-42.35-42.35-42.35Z"/>
      <ellipse class="cls-1" cx="990.17" cy="517.58" rx="3.88" ry="3.35"/>
    </g>
    <g class="cls-3">
      <path class="cls-1" d="M530.29,107.17l2.67,12.16s45.82,11.39,138.28-19.84"/>
      <path class="cls-1" d="M618.26,19.56s-31.75,39.68-53.8,59.62c-21.87,19.77-34.37,27.13-34.17,27.99s15.79,2.82,49.51-.93c34.27-3.81,84.55-19.04,84.55-19.04"/>
      <path class="cls-1" d="M679.07,71.12c7.22-.68,14.34,3.75,17.2,10.95-5.41-46.63-50.21-78.81-54.32-79.97-4.1-1.16-11.76,.57-18.2,5.2-6.42,4.62-5.5,12.26-5.5,12.26,0,0,28.27,14.48,35.53,34.1,7.3,19.73,10.14,34.69,10.14,34.69,.05-9.04,6.85-16.45,15.16-17.23Z"/>
      <path class="cls-1" d="M664.37,90.52c2.01,8.12,10.77,12.85,19.59,10.55,8.85-2.31,14.38-10.83,12.32-19-2.06-8.15-10.88-12.83-19.69-10.47-8.77,2.35-14.23,10.81-12.22,18.92Z"/>
      <path class="cls-1" d="M604.95,57.11c1.16,4.77,8.43,6.91,16.26,4.77,7.86-2.15,13.3-7.79,12.12-12.58-1.18-4.79-8.51-6.9-16.35-4.73-7.81,2.17-13.19,7.78-12.03,12.54Z"/>
      <path class="cls-1" d="M578.93,91.86c1.13,4.76,8.31,6.95,16.05,4.87,7.77-2.08,13.14-7.66,11.98-12.44-1.16-4.78-8.39-6.94-16.13-4.83-7.72,2.1-13.03,7.65-11.9,12.4Z"/>
      <path class="cls-1" d="M626.73,80.33c1.03,4.21,7.47,6.14,14.4,4.3,6.95-1.85,11.75-6.79,10.71-11.03-1.05-4.23-7.53-6.13-14.47-4.26-6.91,1.87-11.67,6.78-10.64,10.99Z"/>
      <path class="cls-1" d="M620.47,72.35c-.75-.09-1.85-.12-3.1,.19-2.21,.54-3.64,1.8-4.28,2.44"/>
      <path class="cls-1" d="M590.71,70.49c-6.9-.98-8.9-.03-9.42,1.05-.63,1.31,.92,2.8,.26,4.66-.68,1.91-3.19,2.76-5.1,3.18"/>
    </g>
    <g class="cls-3">
      <path class="cls-1" d="M938.99,29.77c-11.97-9.64-27.18-15.4-43.75-15.4-38.6,0-69.9,31.3-69.9,69.9,0,9.45,1.88,18.46,5.28,26.67,10.47,25.37,35.47,43.23,64.62,43.23,38.6,0,69.9-31.3,69.9-69.9,0-22.04-10.21-41.71-26.15-54.5Z"/>
      <path class="cls-1" d="M938.99,29.77c-11.97-9.64-27.18-15.4-43.75-15.4-38.6,0-69.9,31.3-69.9,69.9,0,9.45,1.88,18.46,5.28,26.67,11.97,9.63,27.17,15.38,43.74,15.38,38.6,0,69.9-31.29,69.9-69.9,0-9.44-1.87-18.45-5.27-26.65Z"/>
      <ellipse class="cls-1" cx="862.46" cy="57.01" rx="19.43" ry="11.89" transform="translate(191.8 602.27) rotate(-42.89)"/>
      <ellipse class="cls-1" cx="915.99" cy="62.41" rx="13.36" ry="10.66" transform="translate(71 421.48) rotate(-26.92)"/>
      <ellipse class="cls-1" cx="882.49" cy="102.44" rx="13.36" ry="10.66" transform="translate(49.25 410.65) rotate(-26.92)"/>
      <ellipse class="cls-1" cx="902.5" cy="31.09" rx="10.1" ry="8.06" transform="translate(11.44 177.64) rotate(-11.31)"/>
    </g>
    <g class="cls-3">
      <path class="cls-1" d="M498.51,1001.77c16.73-.75,29.82-.43,29.82-.43l13.54-13.09,.22-.22"/>
      <path class="cls-1" d="M382.53,1018.65l.73,9.53s26.17-9.49,51.64-16.57c9.67-2.68,19.24-5.01,27.24-6.35,7.31-1.22,15.13-2.06,22.74-2.66"/>
      <g>
        <path class="cls-1" d="M453.24,941.22c6.24-3.56,18.75-5.89,27.83-2.07,9.1,3.79,9.4,4.31,20.7,9.61,11.32,5.29,26.13,10.65,34.71,14.76,2.48,1.19,4.32,2.49,5.7,3.76,3.42,3.1,3.98,5.92,3.98,5.92,0,0,2.01,7.17,1.34,9.61-.33,1.2-2.57,3.5-5.62,5.44-3.13,2-7.14,3.61-10.83,3.27-7.31-.68-7-.15-19,1.87-4.83,.8-9.47,4.67-13.52,8.39-6.02,5.54-10.75,10.8-12.99,5.46-.6-1.47-.77-3.04-.65-4.63,.55-8.07,8.21-16.84,.05-17.96-9.75-1.34-29.92,3.27-36.86,9.29-6.93,6.04-8.79,1.58-15.97,.26-7.22-1.31-11.2,4.2-16.58,9.34-5.35,5.14-3.41,1.26-11.68-2.31-8.27-3.57-7.97,1.78-14.97,11.32-7.01,9.52-14.31,8.86-14.74,5.65-.45-3.2,9.82-11.82,17.81-28.14,.78-1.61,1.7-3.2,2.73-4.77,9.23-14.09,26.72-25.25,33.02-29.47,6.99-4.7,19.29-11.01,25.56-14.59Z"/>
        <path class="cls-1" d="M492.49,978.51c1.69,5.63,9.65,8.2,17.8,5.76,8.15-2.44,13.4-8.99,11.71-14.62-1.68-5.61-9.66-8.2-17.81-5.75-8.15,2.44-13.38,8.98-11.69,14.61Z"/>
        <path class="cls-1" d="M484.43,950.91c-1.34-4.51-7.72-6.57-14.25-4.62-6.51,1.96-10.69,7.19-9.35,11.68,1.34,4.51,7.72,6.57,14.23,4.63,6.52-1.97,10.71-7.2,9.36-11.68Z"/>
        <path class="cls-1" d="M453.74,982.36c6.51-1.96,10.69-7.19,9.35-11.7-1.35-4.48-7.72-6.55-14.24-4.6-6.51,1.96-10.7,7.18-9.36,11.68,1.35,4.5,7.73,6.56,14.25,4.62Z"/>
        <path class="cls-1" d="M411.3,974.31c-5.28,4.27-7.19,10.7-4.24,14.34,2.96,3.66,9.63,3.16,14.92-1.11,5.29-4.27,7.19-10.7,4.24-14.36-2.96-3.66-9.64-3.15-14.93,1.13Z"/>
      </g>
      <path class="cls-1" d="M504.19,963.9c-8.15,2.44-13.38,8.98-11.69,14.61,1.69,5.63,9.65,8.2,17.8,5.76,8.15-2.44,13.4-8.99,11.71-14.62-1.68-5.61-9.66-8.2-17.81-5.75Z"/>
      <path class="cls-1" d="M439.49,977.75c1.35,4.5,7.73,6.56,14.25,4.62,6.51-1.96,10.69-7.19,9.35-11.7-1.35-4.48-7.72-6.55-14.24-4.6-6.51,1.96-10.7,7.18-9.36,11.68Z"/>
      <path class="cls-1" d="M475.07,962.59c6.52-1.97,10.71-7.2,9.36-11.68-1.34-4.51-7.72-6.57-14.25-4.62-6.51,1.96-10.69,7.19-9.35,11.68,1.34,4.51,7.72,6.57,14.23,4.63Z"/>
      <path class="cls-1" d="M411.3,974.31c-5.28,4.27-7.19,10.7-4.24,14.34,2.96,3.66,9.63,3.16,14.92-1.11,5.29-4.27,7.19-10.7,4.24-14.36-2.96-3.66-9.64-3.15-14.93,1.13Z"/>
      <path class="cls-1" d="M492.49,978.51c1.69,5.63,9.65,8.2,17.8,5.76,8.15-2.44,13.4-8.99,11.71-14.62-1.68-5.61-9.66-8.2-17.81-5.75-8.15,2.44-13.38,8.98-11.69,14.61Z"/>
      <path class="cls-1" d="M460.84,957.97c1.34,4.51,7.72,6.57,14.23,4.63,6.52-1.97,10.71-7.2,9.36-11.68-1.34-4.51-7.72-6.57-14.25-4.62-6.51,1.96-10.69,7.19-9.35,11.68Z"/>
      <path class="cls-1" d="M439.49,977.75c1.35,4.5,7.73,6.56,14.25,4.62,6.51-1.96,10.69-7.19,9.35-11.7-1.35-4.48-7.72-6.55-14.24-4.6-6.51,1.96-10.7,7.18-9.36,11.68Z"/>
      <path class="cls-1" d="M411.3,974.31c-5.28,4.27-7.19,10.7-4.24,14.34,2.96,3.66,9.63,3.16,14.92-1.11,5.29-4.27,7.19-10.7,4.24-14.36-2.96-3.66-9.64-3.15-14.93,1.13Z"/>
    </g>
    <g class="cls-3">
      <path class="cls-1" d="M199.17,630.89c-6.77,0-13.18,1.6-18.86,4.43-13.92,6.93-23.49,21.31-23.49,37.92,0,23.38,18.97,42.35,42.35,42.35,16.61,0,31-9.57,37.92-23.49,2.83-5.67,4.43-12.08,4.43-18.86,0-23.38-18.97-42.35-42.35-42.35Z"/>
      <path class="cls-1" d="M199.17,630.89c-6.77,0-13.18,1.6-18.86,4.43-2.84,5.68-4.44,12.08-4.44,18.87,0,23.38,18.97,42.35,42.35,42.35,6.78,0,13.18-1.6,18.87-4.44,2.83-5.67,4.43-12.08,4.43-18.86,0-23.38-18.97-42.35-42.35-42.35Z"/>
      <ellipse class="cls-1" cx="220.34" cy="650.83" rx="3.88" ry="3.35"/>
    </g>
    <g class="cls-3">
      <g>
        <path class="cls-1" d="M297.92,72.9c12.14-5.91,19.47-16.26,23.87-27.41l-49.21-11.84c-.28,.14-.58,.25-.89,.33l13.73,43.75c3.98-1.14,8.14-2.73,12.49-4.84Z"/>
        <path class="cls-1" d="M299.11,93.69c59.1-25.47,38.83-86.92,38.83-86.92,0,0-2.34,1.03-6.66,2.95-.08,17.35-3.91,52.77-31.96,66.4-45.74,22.14-73.32-10.21-81.64-22.34-2.16,.75-4.34,1.52-6.57,2.27,0,0,29.57,62.86,88,37.65Z"/>
        <path class="cls-1" d="M263.85,37.05c-13.19,4.96-27.65,10.27-43.07,15.65,3.9,5.56,11.39,14.48,22.45,20.64l20.62-36.29Z"/>
        <path class="cls-1" d="M282.38,78.53l-13.62-43.4-.06,.03-22.56,39.69c9.66,4.72,21.77,7.1,36.23,3.68Z"/>
        <path class="cls-1" d="M328.11,11.09c-10.13,4.36-27.55,11.69-49.91,20.41l44.8,10.81c3.88-11.34,4.94-23.03,5.12-31.22Z"/>
        <path class="cls-1" d="M299.31,76.12c28.05-13.63,31.88-49.05,31.96-66.4-.67,.3-1.41,.6-2.17,.94-.33,.13-.64,.29-1,.43-.18,8.19-1.24,19.88-5.12,31.22l-44.8-10.81c-1.83,.7-3.69,1.41-5.61,2.15l49.21,11.84c-4.4,11.14-11.73,21.49-23.87,27.41-4.35,2.11-8.51,3.7-12.49,4.84l-13.73-43.75c-.96,.41-1.94,.76-2.94,1.15l13.62,43.4c-14.47,3.42-26.57,1.03-36.23-3.68l22.56-39.69c-1.59,.61-3.21,1.24-4.85,1.89l-20.62,36.29c-11.06-6.16-18.55-15.09-22.45-20.64-.27,.1-.56,.21-.82,.3-.74,.26-1.5,.54-2.28,.78,8.32,12.13,35.9,44.48,81.64,22.34Z"/>
      </g>
      <path class="cls-1" d="M308.36,31.41s7.13,3.24,6.83-.03c-.31-3.27-6.83,.03-6.83,.03Z"/>
      <path class="cls-1" d="M307.91,25.11s7.48,1.87,6.66-1.32c-.81-3.18-6.66,1.32-6.66,1.32Z"/>
      <path class="cls-1" d="M298.96,29.91s7.46,1.88,6.65-1.31-6.65,1.31-6.65,1.31Z"/>
      <path class="cls-1" d="M290.53,54.42s.99,8.28,3.49,6.59c2.5-1.7-3.49-6.59-3.49-6.59Z"/>
      <path class="cls-1" d="M295.86,49.13s4.15,7.17,5.69,4.42c1.54-2.75-5.69-4.42-5.69-4.42Z"/>
      <path class="cls-1" d="M286.99,44.45s2.13,8.05,4.34,5.95c2.21-2.11-4.34-5.95-4.34-5.95Z"/>
      <path class="cls-1" d="M262.3,60.88s-5.35,5.57-2.53,6.77c2.82,1.2,2.53-6.77,2.53-6.77Z"/>
      <path class="cls-1" d="M269.53,62.49s-2.54,7.68,.43,7.45c2.97-.23-.43-7.45-.43-7.45Z"/>
      <path class="cls-1" d="M267.26,52.12s-4.47,6.44-1.54,7.16c2.94,.72,1.54-7.16,1.54-7.16Z"/>
      <path class="cls-1" d="M242.42,50.47s-7.83,.05-6.18,2.9c1.65,2.84,6.18-2.9,6.18-2.9Z"/>
      <path class="cls-1" d="M245.47,56.01s-7.57,1.44-5.5,3.99c2.07,2.55,5.5-3.99,5.5-3.99Z"/>
      <path class="cls-1" d="M251.58,47.9s-7.56,1.43-5.49,3.98c2.07,2.55,5.49-3.98,5.49-3.98Z"/>
    </g>
    <g class="cls-3">
      <g>
        <path class="cls-1" d="M721.47,200.44c-13.23-2.75-25.35,.96-35.65,7.09l31.7,39.46c.31,.06,.61,.15,.91,.28l15.89-43.02c-3.85-1.53-8.11-2.82-12.84-3.81Z"/>
        <path class="cls-1" d="M733.25,183.27c-62.34-15.98-83.87,45.04-83.87,45.04,0,0,2.48,.61,7.07,1.74,10.68-13.68,35.36-39.37,65.89-33.01,49.73,10.45,51.78,52.91,50.94,67.59,2.17,.72,4.36,1.45,6.58,2.22,0,0,15.04-67.82-46.62-83.59Z"/>
        <path class="cls-1" d="M726.52,249.65c13.47,4.14,28.17,8.78,43.65,13.95,.31-6.78-.16-18.42-5.14-30.06l-38.5,16.11Z"/>
        <path class="cls-1" d="M737.22,205.49l-15.76,42.67h.06s42.12-17.61,42.12-17.61c-4.76-9.64-12.88-18.93-26.42-25.07Z"/>
        <path class="cls-1" d="M659.79,230.9c10.69,2.74,28.94,7.59,51.98,14.37l-28.84-35.94c-10,6.6-17.99,15.21-23.14,21.58Z"/>
        <path class="cls-1" d="M722.34,197.04c-30.53-6.36-55.22,19.32-65.89,33.01,.71,.17,1.48,.39,2.29,.58,.34,.1,.68,.17,1.05,.27,5.15-6.37,13.14-14.98,23.14-21.58l28.84,35.94c1.88,.57,3.79,1.14,5.76,1.73l-31.7-39.46c10.29-6.13,22.42-9.84,35.65-7.09,4.73,.99,9,2.28,12.84,3.81l-15.89,43.02c1.01,.26,2,.59,3.03,.89l15.76-42.67c13.54,6.14,21.66,15.43,26.42,25.07l-42.12,17.62c1.63,.49,3.3,.98,4.99,1.47l38.5-16.11c4.98,11.64,5.45,23.28,5.14,30.06,.27,.09,.57,.18,.84,.26,.74,.25,1.52,.5,2.28,.78,.84-14.69-1.22-57.15-50.94-67.59Z"/>
      </g>
      <path class="cls-1" d="M687.85,226.89s-3.67-6.92-5.43-4.15c-1.76,2.78,5.43,4.15,5.43,4.15Z"/>
      <path class="cls-1" d="M684.35,232.15s-4.77-6.05-6.08-3.03c-1.3,3.02,6.08,3.03,6.08,3.03Z"/>
      <path class="cls-1" d="M694.37,233.82s-4.76-6.05-6.07-3.03,6.07,3.03,6.07,3.03Z"/>
      <path class="cls-1" d="M716.02,219.58s4.28-7.16,1.26-7.35c-3.02-.19-1.26,7.35-1.26,7.35Z"/>
      <path class="cls-1" d="M708.57,220.51s1.1-8.21-1.8-6.98c-2.9,1.23,1.8,6.98,1.8,6.98Z"/>
      <path class="cls-1" d="M712.73,229.63s3.24-7.67,.2-7.36c-3.04,.31-.2,7.36-.2,7.36Z"/>
      <path class="cls-1" d="M742.32,231.74s7.64-1.13,6.15-3.81c-1.49-2.68-6.15,3.81-6.15,3.81Z"/>
      <path class="cls-1" d="M737.58,226.04s6.71-4.52,4.22-6.16c-2.49-1.64-4.22,6.16-4.22,6.16Z"/>
      <path class="cls-1" d="M733.03,235.64s7.48-2.36,5.6-4.73c-1.89-2.36-5.6,4.73-5.6,4.73Z"/>
      <path class="cls-1" d="M751.68,252.12s6.23,4.75,6.66,1.49c.43-3.26-6.66-1.49-6.66-1.49Z"/>
      <path class="cls-1" d="M752.65,245.88s6.87,3.49,6.79,.2c-.08-3.29-6.79-.2-6.79-.2Z"/>
      <path class="cls-1" d="M742.85,248.56s6.86,3.49,6.78,.21c-.08-3.28-6.78-.21-6.78-.21Z"/>
    </g>
    <g class="cls-3">
      <path class="cls-1" d="M575.23,802.62c-.85-12.04-16.66-20.97-35.46-20.01-18.96,.97-33.85,11.63-33.22,23.82l.54,3.29c.57,1.94,1.53,3.79,2.84,5.48,2.25-3.7,5.96-6.97,10.68-9.48,5.55-2.99,12.49-4.91,20.07-5.3,7.6-.39,14.7,.82,20.52,3.23,2.59,1.07,4.93,2.35,6.95,3.84,1.83,1.35,3.4,2.85,4.65,4.51,.69-1.13,1.23-2.27,1.64-3.45,.64-1.82,.92-3.7,.82-5.61,0-.11-.01-.2-.03-.31Z"/>
      <path class="cls-1" d="M568.15,807.48c-2.02-1.5-4.36-2.77-6.95-3.84-5.82-2.41-12.92-3.62-20.52-3.23-7.59,.39-14.52,2.31-20.07,5.3-4.72,2.52-8.43,5.79-10.68,9.48,5.72,7.49,18.07,12.29,32.1,11.58,.37-.02,.74-.04,1.12-.07,.54-.04,1.09-.1,1.62-.15,.38-.03,.77-.07,1.15-.13,1.17-.14,2.33-.32,3.45-.55,.37-.07,.77-.15,1.13-.23,.42-.09,.83-.18,1.22-.28,.3-.08,.58-.15,.87-.23,.67-.15,1.33-.35,1.96-.55,.29-.09,.59-.18,.89-.27,.07-.03,.14-.05,.21-.08,.33-.11,.65-.22,.98-.34,.38-.13,.73-.26,1.1-.42,1.07-.41,2.11-.87,3.11-1.36,.66-.33,1.31-.67,1.93-1.02,.16-.09,.31-.18,.47-.26,.26-.15,.52-.31,.78-.47,.8-.49,1.57-1.01,2.29-1.56,.28-.19,.54-.39,.82-.6,.26-.21,.51-.43,.77-.64,.24-.2,.5-.43,.74-.65,.23-.21,.47-.44,.7-.66,.18-.17,.34-.32,.49-.49,1.18-1.21,2.17-2.47,2.98-3.79-1.26-1.65-2.83-3.16-4.65-4.51Z"/>
      <path class="cls-1" d="M542.03,826.77c-14.03,.72-26.37-4.09-32.1-11.58-1.31-1.69-2.27-3.53-2.84-5.48l1.41,8.33,2.56,15.26,7.7,45.77c.47,9.18,12.42,16.03,26.71,15.3,.37-.02,.74-.04,1.11-.08l-3.45-67.6c-.37,.03-.74,.05-1.12,.07Z"/>
      <line class="cls-1" x1="547.15" y1="759.26" x2="540.09" y2="813.75"/>
      <path class="cls-1" d="M572.81,811.98c-.81,1.32-1.8,2.58-2.98,3.79-.15,.17-.32,.32-.49,.49-.23,.22-.47,.45-.7,.66-.24,.23-.5,.45-.74,.65-.26,.21-.51,.43-.77,.64-.28,.21-.54,.41-.82,.6-.72,.54-1.49,1.06-2.29,1.56-.26,.16-.52,.32-.78,.47-.16,.09-.31,.18-.47,.26-.62,.35-1.27,.69-1.93,1.02-1,.49-2.04,.94-3.11,1.36-.37,.15-.72,.29-1.1,.42-.33,.12-.65,.23-.98,.34-.06,.03-.14,.05-.21,.08-.3,.1-.6,.18-.89,.27-.63,.21-1.29,.4-1.96,.55-.29,.08-.57,.15-.87,.23-.39,.1-.8,.19-1.22,.28-.37,.09-.76,.16-1.13,.23-1.12,.23-2.28,.41-3.45,.55-.38,.06-.77,.09-1.15,.13-.53,.05-1.07,.11-1.62,.15l3.45,67.6c11.35-.87,20.55-6.38,23.17-13.31,.56-1.47,.82-2.99,.74-4.55l.72-10.95v-.04s3.22-56.92,3.22-56.92c-.41,1.18-.95,2.33-1.64,3.45Z"/>
    </g>
  </g>
</svg>