<?xml version="1.0" encoding="UTF-8"?><svg id="a" xmlns="http://www.w3.org/2000/svg" width="350" height="350" viewBox="0 0 350 350"><defs><style>.b,.c{fill:none;stroke:#4630a0;stroke-linejoin:round;stroke-width:1.6px;}.b,.d{opacity:.07;}</style></defs><g class="d"><path class="c" d="M303.29,103.79c.46-.47,.91-.93,1.36-1.39,3.8,1.8,15.32,5.9,23.89-5.26,5.25-6.85,1.3-15.74-1.08-19.86,.83-1.01,1.29-1.56,1.29-1.56,0,0,13.7,11.94,2.18,25.61-11.38,13.53-27.63,2.45-27.63,2.45Z"/><path class="c" d="M327.45,77.29c-.13,.16-.28,.32-.42,.5-.07,.07-.12,.15-.19,.23-1.97,2.34-5.39,6.33-9.87,11.29-.37,.4-.74,.81-1.13,1.24-.05,.07-.11,.14-.18,.19-.19,.22-.39,.43-.59,.65h-.01c-.32,.37-.64,.72-.97,1.09-2.67,2.88-5.61,6.01-8.79,9.27-.05,.06-.11,.12-.17,.18-.15,.16-.31,.32-.47,.48,3.8,1.8,15.32,5.9,23.89-5.26,5.25-6.85,1.3-15.74-1.08-19.86Z"/></g><g class="d"><path class="c" d="M55.13,260.87c-.17-.08-.55-.15-.74-.25-.08-.04-.16-.08-.25-.13-2.55-1.28-6.91-3.52-12.37-6.51-.45-.25-.9-.5-1.36-.76-.08-.03-.15-.07-.21-.12-.24-.12-.47-.26-.72-.39h-.02c-.39-.22-.78-.44-1.19-.66-3.19-1.8-6.66-3.79-10.31-5.97-.06-.04-.13-.08-.2-.11-.18-.1-.36-.21-.54-.33-.81,3.84-2.04,15.17,9.94,20.53,7.35,3.28,14.75-2.25,17.98-5.31Z"/><path class="c" d="M33.04,268.73c14.89,7.48,22.76-7.52,22.76-7.52l-.67-.34c-3.22,3.06-11.74,8.65-18.8,4.79-8.22-4.48-6.93-14.42-6.12-18.26-.51-.3-4.85-2.89-5.37-3.2,0,0-6.53,17.14,8.2,24.53Z"/></g><g class="d"><path class="c" d="M260.41,277.04c-.19-.46-.39-.85-.61-1.12-1.03-1.31-4.21-1.31-10.11,.19-5.9,1.5-9.93,4.78-14.52,6.18-4.59,1.4-10.67,2.81-10.67,2.81l.04,.1c1.33-.57,3.11-.06,4.69,.94,2.33,1.46,1.56,4.52,.77,7.05-.1,.31-.19,.6-.29,.89-.01,.04-.02,.08-.04,.12,0,.03-.02,.06-.03,.09-.12,.4-.28,.71-.47,.93,.24-.1,.56-.23,.97-.4,.07-.03,.14-.06,.22-.09,.05-.02,.1-.04,.15-.06,1.17-.48,2.85-1.18,4.82-2h.01c7.57-3.15,19.44-8.09,23.44-9.86,.68-.3,1.13-.51,1.3-.6,.18-.1,.33-.24,.46-.41,.79-1.05,.47-3.26-.13-4.75Z"/><path class="c" d="M274.15,325.11c-.38-.66,0-1.7-.41-2.23-.06-.07-.13-.14-.23-.19-.39-.21-.75-.02-1.11,.28-.51,.4-1.02,1-1.64,.94-.46-.04-.78-.44-1.12-.75-.11-.1-.22-.2-.33-.29h0c-1.49-1.16-3.46-1.16-5.49-1.08h0c-2.02,.08-4.1,.24-5.86-.58-1.63-.77-2.71-2.26-3.84-3.71-.44-.56-.87-1.11-1.35-1.61-1.81-1.9-4.22-3.12-6.57-4.4-.48-.26-.96-.52-1.42-.79-1.8-1.04-3.47-2.21-4.7-3.88-.33-.45-.62-.94-.89-1.43h0c-.23-.43-.44-.86-.65-1.3-.57-1.2-1.1-2.42-1.82-3.51h0c-.28-.43-.59-.83-.94-1.2-.89-.95-2.02-1.65-3.07-2.43h0c-.6-.45-1.18-.92-1.68-1.48-.12-.14-.23-.28-.33-.44-.11-.11-.22-.21-.32-.31-.08,.03-.15,.06-.22,.09-.4,.16-.73,.3-.97,.4-.47,.57-1.11,.62-1.87,.29,6.91,13.32,16.57,21.02,25.41,25.47,11.99,6.03,22.45,6.09,22.45,6.09l.4-1.51c-.52,.17-1.14,.03-1.41-.44Z"/><path class="c" d="M240.11,293.02c-1.75,0-3.16,1-3.16,2.25s1.41,2.25,3.16,2.25,3.16-1.01,3.16-2.25-1.42-2.25-3.16-2.25Z"/><rect class="c" x="245.26" y="298.44" width="1.08" height="1.9" transform="translate(-123.23 181.63) rotate(-32.92)"/><path class="c" d="M249.1,302.29c-2.4,0-4.35,1.38-4.35,3.09s1.94,3.09,4.35,3.09,4.35-1.38,4.35-3.09-1.95-3.09-4.35-3.09Z"/><path class="c" d="M255.14,291.33c-2.4,0-4.35,1.38-4.35,3.09s1.95,3.09,4.35,3.09,4.35-1.38,4.35-3.09-1.95-3.09-4.35-3.09Z"/><path class="c" d="M262.6,304.84c-.35-1.46-2.36-2.25-3.98-2.65-.68-.17-1.1-.42-1.17-.69-.09-.35,.34-.9,.56-1.1l-.73-.79c-.12,.11-1.15,1.09-.88,2.16,.17,.7,.83,1.2,1.96,1.48,1.83,.46,3.02,1.15,3.19,1.86,.14,.56-.41,1.19-.89,1.62l.71,.81c1.02-.91,1.44-1.81,1.23-2.68Z"/><path class="c" d="M261.75,309.73c-2.4,0-4.35,1.38-4.35,3.09s1.95,3.09,4.35,3.09,4.35-1.39,4.35-3.09-1.95-3.09-4.35-3.09Z"/><path class="c" d="M275.13,319.35c-.06-.06-.11-.12-.16-.18-1.17-1.27-2.62-2.25-3.81-3.48-.66-.69-1.24-1.44-1.77-2.23h0c-.78-1.18-1.44-2.43-2.1-3.68-1.45-2.75-2.91-5.53-3.64-8.55-.12-.49-.22-.99-.31-1.49,0,0,0,0,0-.01-.29-1.66-.47-3.34-.87-4.97-.63-2.63-1.81-5.15-2.18-7.84-.15-1.09,.6-3.62,.27-5.13-.12,.17-.27,.31-.46,.41-.17,.09-.62,.3-1.3,.6-4,1.77-15.87,6.71-23.44,9.85h-.01c-1.97,.83-3.64,1.52-4.82,2,.04,.13,.09,.25,.17,.37,.54,.52,1.21,1.17,2,1.91h0c1.05,.78,2.18,1.48,3.07,2.43,.35,.37,.66,.77,.94,1.2h0c.72,1.09,1.25,2.32,1.82,3.52,.21,.44,.42,.87,.65,1.3h0c.27,.5,.56,.98,.89,1.44,1.23,1.66,2.9,2.84,4.7,3.88,.47,.27,.94,.54,1.42,.79,2.34,1.28,4.75,2.5,6.57,4.4,.48,.5,.92,1.06,1.35,1.61,1.12,1.45,2.21,2.94,3.84,3.71,1.75,.82,3.84,.67,5.86,.58h0c2.04-.08,4-.08,5.49,1.08h0c.11,.09,.23,.18,.33,.29,.33,.32,.66,.71,1.12,.75,.62,.06,1.13-.53,1.64-.94,.36-.29,.73-.49,1.11-.28,.09,.05,.17,.12,.23,.19,.42,.52,.03,1.57,.41,2.23,.27,.47,.89,.61,1.41,.44,.1-.03,.19-.07,.28-.12,.54-.33,.83-.98,.93-1.6,.25-1.62-.56-3.23-1.64-4.47Z"/><rect class="c" x="246.2" y="290.79" width="2.91" height="1.08"/><rect class="c" x="245.26" y="298.44" width="1.08" height="1.9" transform="translate(-123.08 181.18) rotate(-32.85)"/><path class="c" d="M243.27,295.26c0-1.24-1.42-2.25-3.16-2.25s-3.16,1-3.16,2.25,1.41,2.25,3.16,2.25,3.16-1.01,3.16-2.25Z"/><path class="c" d="M253.45,305.38c0-1.71-1.95-3.09-4.35-3.09s-4.35,1.38-4.35,3.09,1.94,3.09,4.35,3.09,4.35-1.38,4.35-3.09Z"/><path class="c" d="M259.49,294.42c0-1.71-1.95-3.09-4.35-3.09s-4.35,1.38-4.35,3.09,1.95,3.09,4.35,3.09,4.35-1.38,4.35-3.09Z"/><path class="c" d="M258.36,303.23c1.83,.46,3.02,1.15,3.19,1.86,.14,.56-.41,1.19-.89,1.62l.71,.81c1.02-.91,1.44-1.81,1.23-2.68-.35-1.46-2.36-2.25-3.98-2.65-.68-.17-1.1-.42-1.17-.69-.09-.35,.34-.9,.56-1.1l-.73-.79c-.12,.11-1.15,1.09-.88,2.16,.17,.7,.83,1.2,1.96,1.48Z"/><path class="c" d="M266.1,312.83c0-1.71-1.95-3.09-4.35-3.09s-4.35,1.38-4.35,3.09,1.95,3.09,4.35,3.09,4.35-1.39,4.35-3.09Z"/><path class="c" d="M240.11,293.02c-1.75,0-3.16,1-3.16,2.25s1.41,2.25,3.16,2.25,3.16-1.01,3.16-2.25-1.42-2.25-3.16-2.25Z"/><rect class="c" x="245.26" y="298.44" width="1.08" height="1.9" transform="translate(-123.23 181.63) rotate(-32.92)"/><path class="c" d="M249.1,302.29c-2.4,0-4.35,1.38-4.35,3.09s1.94,3.09,4.35,3.09,4.35-1.38,4.35-3.09-1.95-3.09-4.35-3.09Z"/><path class="c" d="M255.14,291.33c-2.4,0-4.35,1.38-4.35,3.09s1.95,3.09,4.35,3.09,4.35-1.38,4.35-3.09-1.95-3.09-4.35-3.09Z"/><path class="c" d="M262.6,304.84c-.35-1.46-2.36-2.25-3.98-2.65-.68-.17-1.1-.42-1.17-.69-.09-.35,.34-.9,.56-1.1l-.73-.79c-.12,.11-1.15,1.09-.88,2.16,.17,.7,.83,1.2,1.96,1.48,1.83,.46,3.02,1.15,3.19,1.86,.14,.56-.41,1.19-.89,1.62l.71,.81c1.02-.91,1.44-1.81,1.23-2.68Z"/><path class="c" d="M261.75,309.73c-2.4,0-4.35,1.38-4.35,3.09s1.95,3.09,4.35,3.09,4.35-1.39,4.35-3.09-1.95-3.09-4.35-3.09Z"/><path class="c" d="M229.22,286.13c-1.58-1-3.35-1.5-4.69-.94-.92,.39-1.63,1.3-1.91,2.9,0,0-1.12,1.83,1.41,4.64,1.19,1.33,2.33,2.34,3.28,2.76,.76,.33,1.4,.29,1.87-.29,.19-.23,.34-.53,.47-.93,0-.03,.02-.06,.03-.09,.01-.04,.02-.08,.04-.12,.09-.29,.19-.58,.29-.89,.79-2.53,1.55-5.59-.77-7.05Z"/><path class="c" d="M240.11,293.02c-1.75,0-3.16,1-3.16,2.25s1.41,2.25,3.16,2.25,3.16-1.01,3.16-2.25-1.42-2.25-3.16-2.25Z"/><path class="c" d="M261.75,309.73c-2.4,0-4.35,1.38-4.35,3.09s1.95,3.09,4.35,3.09,4.35-1.39,4.35-3.09-1.95-3.09-4.35-3.09Z"/><path class="c" d="M255.14,291.33c-2.4,0-4.35,1.38-4.35,3.09s1.95,3.09,4.35,3.09,4.35-1.38,4.35-3.09-1.95-3.09-4.35-3.09Z"/><path class="c" d="M249.1,302.29c-2.4,0-4.35,1.38-4.35,3.09s1.94,3.09,4.35,3.09,4.35-1.38,4.35-3.09-1.95-3.09-4.35-3.09Z"/><path class="c" d="M262.6,304.84c-.35-1.46-2.36-2.25-3.98-2.65-.68-.17-1.1-.42-1.17-.69-.09-.35,.34-.9,.56-1.1l-.73-.79c-.12,.11-1.15,1.09-.88,2.16,.17,.7,.83,1.2,1.96,1.48,1.83,.46,3.02,1.15,3.19,1.86,.14,.56-.41,1.19-.89,1.62l.71,.81c1.02-.91,1.44-1.81,1.23-2.68Z"/><rect class="c" x="245.26" y="298.44" width="1.08" height="1.9" transform="translate(-123.23 181.63) rotate(-32.92)"/><ellipse class="c" cx="276.27" cy="289.23" rx="4.5" ry="4.12" transform="translate(-102.55 417.58) rotate(-65.03)"/><ellipse class="c" cx="247.18" cy="327.44" rx="2.83" ry="3.94"/><ellipse class="c" cx="281.67" cy="310.84" rx="2.83" ry="4.93" transform="translate(-91.87 501.71) rotate(-74.88)"/></g><g class="d"><path class="c" d="M338.06,245.75c-.45-1.03-1.01-2.03-1.86-2.77-1.28-1.11-3.02-1.45-4.69-1.73-.21,2.13-3.58,6.18-4.02,7.16-1.67,3.69-2.37,7.84-1.89,11.87,.1,.88,.22,1.89-.39,2.53-.05,.05-.1,.1-.16,.15,2.23,.58,5.38-.1,7.24-.52,2.04-.46,4.04-1.46,5.34-3.14,1.2-1.56,2.32-4.44,2.45-6.4,.18-2.74-.92-4.63-2.02-7.15Z"/><path class="c" d="M330.18,239.93c-1-.02-1.86,.67-2.62,1.31-1.08,.91-2.17,1.85-2.9,3.05-.92,1.52-1.17,3.33-1.77,5-.51,1.42-1.27,2.75-1.64,4.21-.51,2.04-.23,4.18,.15,6.24,.18,1,.41,2.06,1.1,2.81,.64,.69,1.82,.97,2.55,.42,.06-.04,.11-.09,.16-.15,.61-.64,.5-1.65,.39-2.53-.48-4.03,.22-8.18,1.89-11.87,.44-.98,3.81-5.03,4.02-7.16,.08-.78-.27-1.31-1.33-1.33Z"/></g><g class="d"><path class="c" d="M189.44,124.88c-5.75-5.87-12.37-5.6-14.9-4.62-2.33,.91-4.17,2.77-5.6,4.82-1.99,2.87-3.28,6.22-3.74,9.68-.19,1.41-.23,2.88,.22,4.23,.7,2.12,2.47,3.67,4.17,5.11"/><path class="c" d="M178.49,138.77c-1.54,1.06-12.77,4.81-8.49,7.5,1.08,.68,2.46,.49,3.72,.29,1.77-.29,3.57-.59,5.16-1.43,1.99-1.06,3.45-2.87,5.2-4.29,1.49-1.22,3.19-2.16,4.55-3.52,1.89-1.88,2.98-4.41,3.92-6.9,.46-1.21,.9-2.51,.63-3.78s-1.53-2.42-2.78-2.07c-1.09,.3-1.62,1.48-2.08,2.51-2.12,4.71-5.59,8.78-9.83,11.71Z"/></g><g class="d"><path class="c" d="M220.52,151.1c3.05,.4,6.27-.8,8.32-3.1,2.14-2.41,2.93-5.72,3.28-8.93,.22-1.93,.3-3.92-.3-5.76-.62-1.89-1.92-3.49-3.36-4.87-1.24-1.18-2.67-2.26-4.35-2.6-2.43-.48-3.91,.2-6.12,1.33"/><path class="c" d="M215.93,126.27c-1.01,.05-1.79,.91-2.27,1.8-.95,1.79-1.13,3.89-1.29,5.91-.42,5.29-.73,11.03,2.19,15.46,.75,1.13,1.77,2.19,3.1,2.46s2.93-.57,3.04-1.92c.09-1-.6-1.87-1.05-2.77-1.13-2.23-.85-4.88-1.19-7.36-.19-1.39-.57-2.76-.76-4.15-.34-2.46,2.48-9.61-1.77-9.42Z"/></g><g class="d"><path class="c" d="M181.71,159.44c3.08-.22,6.08,.96,8.94,2.11,1.87,.75,3.74,1.51,5.44,2.59,3.58,2.28,6.21,5.98,7.19,10.11,1.3-2.92,4.44-5.08,5.6-8.06,.4-1.02,.96-1.36,1.02-2.46,.18-3.46,.28-7.23-1.77-10.03-.87-1.18-2.06-2.09-3.26-2.94-3.09-2.18-6.62-4.17-10.39-3.98-3.15,.16-6,1.81-8.7,3.43-1.66,1-2.82,2.48-3.54,4.28-.7,1.74-1.1,3.79-2.75,4.67l2.22,.27Z"/><path class="c" d="M199.87,172.93c-.11-.3-.25-.62-.4-.94-.07-.15-.14-.29-.22-.43-.39-.72-.89-1.48-1.55-2.26-.83-.98-1.9-1.98-3.28-2.96-.13-.09-.25-.18-.39-.27-.35-.23-.7-.45-1.04-.66-.31-.19-.62-.37-.93-.54-.53-.29-1.06-.55-1.57-.77-1.92-.85-3.69-1.31-5.21-1.54-.54-.08-1.04-.13-1.51-.16-2.18-.15-3.54,.17-3.54,.17l-.86,3.61-1.12,4.71-.67,2.84-.46,1.95-2.52,10.63h0l-.21,.9-.27,1.13-.79,3.33-1.26,5.31-.47,1.97-1.11,4.7,.32-.28,3.39-3.03,1.38-1.23,4.65-4.16,1.4-1.25,1.05-.93,3.22-2.88,1.4-1.26,.48-.43,4.45-3.98,1.39-1.25,4.98-4.45,1.38-1.23,.48-.42s.27-1.65-.6-3.96Z"/><path class="c" d="M187.29,188.49l-.6-7.67-.13-1.67-.64-8.23-.13-1.63h0l-.52-6.73c-.54-.08-1.04-.13-1.51-.16l.6,7.67,.13,1.63,.65,8.31,.13,1.66,.59,7.62,.05,.61,1.4-1.25v-.15Z"/><path class="c" d="M193.11,176.98l-.14-1.65-.68-7.83h0l-.14-1.63-.08-.99c-.53-.29-1.06-.55-1.57-.77l.22,2.54,.14,1.62,.69,7.91,.14,1.65,.56,6.41,1.39-1.25-.52-6.02Z"/><polygon class="c" points="181.61 193.38 181.47 191.74 180.87 184.32 180.73 182.66 180.03 174.12 179.89 172.49 179.38 166.19 178.26 170.9 178.46 173.27 178.59 174.9 179.3 183.51 179.44 185.17 180.04 192.54 180.17 194.18 180.24 194.96 181.63 193.71 181.61 193.38"/><polygon class="c" points="175.36 196.87 175.2 195.25 174.49 188.14 174.4 187.22 174.13 188.35 173.34 191.69 173.78 196.04 173.94 197.66 174.21 200.35 175.59 199.12 175.36 196.87"/><path class="c" d="M199.46,171.99c-.07-.14-.14-.29-.22-.43l-1.25,.75-5.03,3.01-1.43,.85-4.97,2.98-1.43,.86-4.41,2.64-1.43,.86-4.69,2.81h0l-.21,.9-.27,1.13,.36-.22,4.95-2.96,1.43-.86,4.4-2.64,1.43-.86,4.98-2.99,1.43-.85,5.05-3.03,1.42-.85,.29-.18c-.11-.3-.25-.62-.41-.94Z"/><polygon class="c" points="187.29 188.49 185.85 189.3 181.47 191.74 180.04 192.54 175.2 195.25 173.78 196.04 172.09 196.99 171.62 198.96 173.94 197.66 175.36 196.87 180.17 194.18 181.61 193.38 182.68 192.78 185.9 189.9 187.3 188.65 187.78 188.22 187.29 188.49"/><path class="c" d="M194.03,166.07c-.35-.24-.69-.46-1.04-.66l-.84,.45-1.44,.78-4.91,2.65h0l-1.44,.78-4.47,2.42-1.44,.78-.87,.47-.46,1.95,1.46-.79,1.44-.78,4.46-2.41,1.44-.78,4.92-2.66,1.43-.77h0l2.13-1.15c-.12-.09-.25-.18-.38-.27Z"/><path class="c" d="M179.5,159.18c-.74,.23-1.3,.79-1.37,1.42-.11,.9,.78,1.96,2.11,1.98"/><path class="c" d="M200.46,176.89c.19,.11,.86,.5,1.56,.28,.91-.29,1.56-1.51,1.26-2.91"/></g><g class="d"><g><path class="c" d="M99.35,289.85c-3.29,2.89-4.69,6.75-5.11,10.61l16.39-.52c.08-.07,.16-.13,.25-.18l-8.04-12.5c-1.15,.7-2.31,1.55-3.49,2.58Z"/><path class="c" d="M97.2,283.45c-16.29,13.03-4.68,30.5-4.68,30.5,0,0,.64-.52,1.83-1.49-1.46-5.43-3.3-16.83,4.3-23.49,12.4-10.84,23.79-3.1,27.43-.02,.61-.42,1.23-.85,1.86-1.27,0,0-14.63-17.11-30.73-4.22Z"/><path class="c" d="M113.08,298.13c3.7-2.68,7.76-5.58,12.12-8.58-1.7-1.4-4.8-3.55-8.79-4.53l-3.33,13.11Z"/><path class="c" d="M103.73,286.75l7.98,12.4h.02l3.65-14.35c-3.42-.65-7.41-.35-11.64,1.96Z"/><path class="c" d="M95.22,311.75c2.79-2.23,7.61-6.01,13.85-10.66l-14.93,.46c-.24,3.88,.43,7.62,1.08,10.2Z"/><path class="c" d="M98.64,288.96c-7.6,6.66-5.76,18.06-4.3,23.49,.18-.15,.39-.31,.6-.48,.09-.07,.18-.14,.28-.22-.65-2.57-1.32-6.32-1.08-10.2l14.93-.46c.51-.38,1.03-.76,1.57-1.15l-16.39,.52c.42-3.86,1.82-7.72,5.11-10.61,1.18-1.03,2.34-1.89,3.49-2.58l8.04,12.5c.26-.21,.54-.4,.82-.61l-7.98-12.4c4.23-2.31,8.22-2.6,11.64-1.96l-3.65,14.34c.44-.33,.9-.66,1.36-1.01l3.33-13.11c3.98,.98,7.09,3.13,8.79,4.53,.07-.05,.16-.11,.23-.17,.21-.14,.42-.3,.65-.44-3.64-3.08-15.03-10.82-27.43,.02Z"/></g><path class="c" d="M99.65,303.71s-2.51-.4-2.13,.6c.38,1,2.13-.6,2.13-.6Z"/><path class="c" d="M100.33,305.64s-2.5,.06-1.97,.98c.53,.93,1.97-.98,1.97-.98Z"/><path class="c" d="M102.71,303.37s-2.49,.05-1.97,.98,1.97-.98,1.97-.98Z"/><path class="c" d="M103.25,294.99s-1.02-2.5-1.66-1.76,1.66,1.76,1.66,1.76Z"/><path class="c" d="M102.03,297.1s-1.91-1.88-2.16-.89,2.16,.89,2.16,.89Z"/><path class="c" d="M105.21,297.8s-1.36-2.34-1.87-1.49,1.87,1.49,1.87,1.49Z"/><path class="c" d="M111.52,290.55s1.19-2.2,.21-2.33c-.98-.13-.21,2.33-.21,2.33Z"/><path class="c" d="M109.12,290.67s.14-2.62-.77-2.29,.77,2.29,.77,2.29Z"/><path class="c" d="M110.72,293.71s.85-2.4-.13-2.37c-.98,.03,.13,2.37,.13,2.37Z"/><path class="c" d="M118.62,292.1s2.44-.69,1.68-1.44c-.76-.75-1.68,1.44-1.68,1.44Z"/><path class="c" d="M117.19,290.63s2.24-1.1,1.38-1.72-1.38,1.72-1.38,1.72Z"/><path class="c" d="M115.98,293.69s2.24-1.09,1.37-1.71-1.37,1.71-1.37,1.71Z"/></g><g class="d"><path class="c" d="M161.07,228.24l.88-2.48s-3.71-2.48-9.02-2.12c-5.3,.35-7.6,4.24-7.6,4.24,9.37-3.89,15.74,.35,15.74,.35Z"/><path class="c" d="M155.28,239.25c-.2-.64-.46-1.29-.78-1.94h0c-1.69-3.44-5.07-6.91-9.83-8.84,0,0-8.84-16.8-20.33-7.6-5.38,5.25-5.18,8.47-5.23,12.85-.02,1.81-.08,3.81-.6,6.25,0,4.24,4.42,5.48,5.66,7.07,1.24,1.59,3.01,7.43,7.78,7.61,4.78,.18,10.26-2.83,15.03-2.65,4.78,.18,9.9-7.61,8.31-12.73Z"/><path class="c" d="M119.44,234.05c1.25,0,2.08,2.11,3.67,3.08,3.18,1.94,4.6,6.19,9.02,5.66,4.42-.53,8.67,.53,15.56-.18,4.74-.49,4.38-4.06,6.46-5.12"/></g><g class="d"><path class="c" d="M311.74,228.92c-.71,2.76-2.62,5.03-4.48,7.2-1.21,1.41-2.43,2.83-3.87,3.99-3.04,2.46-7.06,3.67-10.95,3.32,2.17,2,3.14,5.38,5.4,7.27,.78,.65,.91,1.24,1.85,1.62,2.97,1.18,6.24,2.37,9.29,1.4,1.29-.41,2.43-1.18,3.53-1.98,2.82-2.06,5.59-4.56,6.54-7.92,.79-2.8,.18-5.78-.44-8.62-.38-1.75-1.34-3.19-2.7-4.35-1.32-1.13-2.99-2.07-3.27-3.78l-.89,1.86Z"/><path class="c" d="M294.6,240.83c.3,0,.61-.03,.94-.08,.15-.02,.29-.04,.44-.06,.75-.13,1.56-.34,2.43-.69,1.1-.44,2.29-1.08,3.55-1.99,.11-.09,.23-.17,.35-.26,.31-.24,.6-.47,.89-.71,.26-.21,.51-.43,.74-.65,.41-.38,.79-.77,1.14-1.15,1.31-1.43,2.23-2.84,2.88-4.1,.23-.45,.42-.87,.59-1.28,.77-1.86,.89-3.14,.89-3.14l-2.91-1.81-3.79-2.36-2.29-1.42-1.57-.97-8.56-5.33h0l-.73-.45-.91-.57-2.68-1.67-4.27-2.66-1.59-.99-3.78-2.36,.15,.36,1.65,3.86,.67,1.57,2.27,5.29,.68,1.59,.51,1.19,1.57,3.66,.69,1.59,.23,.55,2.17,5.06,.68,1.59,2.42,5.66,.67,1.57,.23,.54s1.37,.73,3.64,.64Z"/><path class="c" d="M284.69,225.26l6.88,1.74,1.49,.38,7.38,1.86,1.46,.37h0l6.04,1.53c.23-.45,.42-.87,.59-1.27l-6.88-1.74-1.46-.37-7.45-1.88-1.49-.38-6.83-1.72-.54-.14,.69,1.59,.14,.04Z"/><path class="c" d="M293.05,233.73l1.49,.36,7.05,1.71h0l1.46,.36,.89,.22c.41-.38,.79-.76,1.14-1.14l-2.29-.56-1.46-.36-7.12-1.73-1.49-.36-5.76-1.4,.68,1.58,5.41,1.32Z"/><polygon class="c" points="282.1 218.85 283.56 219.21 290.24 220.87 291.73 221.24 299.4 223.13 300.86 223.5 306.53 224.9 302.74 222.54 300.61 222.01 299.14 221.65 291.4 219.73 289.91 219.36 283.29 217.72 281.82 217.36 281.12 217.19 281.8 218.77 282.1 218.85"/><polygon class="c" points="280.88 212.36 282.35 212.7 288.77 214.17 289.6 214.36 288.69 213.79 286.01 212.12 282.07 211.22 280.61 210.89 278.18 210.33 278.85 211.9 280.88 212.36"/><path class="c" d="M295.54,240.75c.15-.02,.29-.04,.44-.06l-.29-1.31-1.16-5.28-.33-1.5-1.14-5.22-.33-1.5-1.01-4.63-.33-1.5-1.07-4.93h0l-.72-.45-.91-.57,.08,.38,1.14,5.2,.33,1.5,1.01,4.62,.33,1.5,1.15,5.24,.33,1.5,1.16,5.3,.32,1.49,.07,.31c.3,0,.61-.04,.94-.08Z"/><polygon class="c" points="284.69 225.26 284.42 223.76 283.56 219.21 283.29 217.72 282.35 212.7 282.07 211.22 281.74 209.46 280.16 208.47 280.61 210.89 280.88 212.36 281.82 217.36 282.1 218.85 282.3 219.96 283.87 223.63 284.56 225.22 284.79 225.77 284.69 225.26"/><path class="c" d="M302.32,237.74c.31-.24,.6-.47,.89-.71l-.15-.87-.26-1.48-.88-5.07h0l-.26-1.49-.8-4.62-.26-1.49-.15-.9-1.57-.98,.26,1.51,.26,1.48,.8,4.61,.26,1.49,.88,5.09,.26,1.48h0l.38,2.2c.11-.08,.23-.17,.35-.26Z"/><path class="c" d="M312.62,227.06c.02-.72-.31-1.37-.84-1.62-.76-.36-1.94,.11-2.35,1.26"/><path class="c" d="M290.97,240.19c-.15,.13-.69,.61-.71,1.28-.02,.88,.86,1.81,2.17,1.96"/></g><g class="d"><path class="c" d="M148.71,53.35c-4.32-3.36-12-2.76-19.18-.48-10.55,3.36-12.63,9.59-13.75,13.26-1.09,3.58,2.02,9.45,2.19,9.77-1.5-4.19,5.6-10.6,15.88-14.34,10.08-3.66,19.47-3.38,21.28,.57-.48-1.13-2.64-5.85-6.42-8.79Z"/><g><path class="c" d="M147.07,73.11c-1.17-.08-2.47,.02-3.99,.43-4.99,1.32-5.87,2.05-9.09,3.52-2.74,1.24-3.89,1.33-4.27,2.04-6.06,.72-10.71-.37-11.74-3.19h0c-1.5-4.2,5.6-10.62,15.88-14.35,10.08-3.66,19.47-3.38,21.28,.57,0,0,0,.01,0,.02,.02,.03,.03,.06,.04,.09,.02,.05,.04,.09,.06,.14,1.1,3.03-2.3,7.22-8.16,10.72Z"/><path class="c" d="M129.98,72.48c-.61-.78-2.6-.24-4.45,1.21-1.85,1.45-2.86,3.25-2.26,4.02,.61,.78,2.6,.24,4.45-1.21,1.85-1.45,2.86-3.25,2.26-4.02Z"/></g><path class="c" d="M129.98,72.48c-.61-.78-2.6-.24-4.45,1.21-1.85,1.45-2.86,3.25-2.26,4.02,.61,.78,2.6,.24,4.45-1.21,1.85-1.45,2.86-3.25,2.26-4.02Z"/><path class="c" d="M167.28,89.97c-1,.4-2.08,.59-3.16,.57-.24,0-.5-.02-.76,0h0c-.39,.02-.76,.09-1.04,.35-.16,.15-.27,.33-.36,.53h0c-.07,.17-.13,.34-.19,.51-1.02,2.8-3.5,5.04-6.39,5.76-1.43,.36-2.97,.38-4.3,1.01-1.33,.62-2.55,1.85-3.99,1.6-1.1-.18-1.95-1.21-3.06-1.26-1.25-.07-2.24,1.09-3.47,1.29-.78,.12-1.5-.14-2.21-.52h0c-5.1,.66-10.63,.92-11.59-.67l1.76,4.49s.59,.78,3.52,1.37c2.41,.48,8.53,.7,15.85-.98,1.58-.36,3.22-.81,4.88-1.37,5.49-1.83,9.44-4.13,11.89-5.95,1.74-1.3,2.73-2.36,2.97-2.85,.29-.58,.01-2.28-.34-3.86Z"/><path class="c" d="M134.03,98.05c-.99,.19-1.89,1.04-2.88,.82-.48-.11-.86-.44-1.24-.75-.34-.28-.68-.54-1.11-.61-.82-.15-1.54,.42-2.23,1.04,0,.19,.07,.37,.17,.55h0c.96,1.6,6.49,1.34,11.59,.68-1.41-.77-2.76-2.04-4.3-1.73Z"/><path class="c" d="M169.22,85.13c-.06-.02-.12-.03-.18-.05-1.34-.33-2.56-.2-3.92-.24-.25,0-.45,0-.62-.02-.03,.16-.17,.35-.41,.54-.68,.54-2.2,1.15-4.69,1.55-.63,.1-1.32,.19-2.08,.25-.33,.03-.64,.05-.93,.07-.08,0-.15,0-.23,.01-.07,0-.15,0-.22,.01-.17,0-.33,.01-.5,.02h-.06c-.15,0-.3,0-.45,0s-.29,0-.43,0c-.05,0-.1,0-.15,0h-.12s-.08,0-.13,0c-.1,0-.2,0-.3,0-.12,0-.24,0-.37-.01h0c-.17,.07-.34,.14-.51,.21h0c-.17,.07-.33,.15-.49,.22s-.32,.15-.48,.22-.31,.15-.46,.22-.3,.15-.45,.23c-.35,.18-.69,.37-1.01,.55-.13,.07-.25,.15-.37,.22-.32,.19-.63,.39-.92,.58-.15,.1-.29,.2-.43,.29h0c-1.25,.89-2.23,1.78-2.99,2.62-.31,.34-.58,.67-.82,.98-1.32,1.71-1.69,2.96-1.69,2.96-1.31-.43-2.69-.81-4.11-1.16h0c-2.46-.6-5.02-1.09-7.47-1.48h0c-2.95-.47-5.74-.8-7.99-1.03-.69,.89-1.33,1.82-1.95,2.76-.14,.22-.29,.44-.43,.66-.28,.43-.58,.95-.38,1.43,.34,.82,1.61,.55,2.36,1.02,.41,.25,.64,.72,1.06,.96,.94,.54,1.8-.35,2.71-1.15,.69-.62,1.41-1.19,2.23-1.04,.42,.07,.76,.33,1.11,.61,.39,.31,.77,.64,1.24,.75,.99,.22,1.88-.63,2.88-.82,1.54-.3,2.89,.97,4.3,1.73h0c.71,.39,1.43,.65,2.21,.52,1.23-.2,2.22-1.36,3.47-1.29,1.11,.06,1.96,1.08,3.06,1.26,1.44,.24,2.66-.98,3.99-1.6,1.34-.63,2.87-.64,4.3-1.01,2.89-.72,5.37-2.95,6.39-5.76,.06-.17,.12-.34,.19-.5h0c.09-.2,.2-.38,.36-.53,.28-.25,.65-.33,1.04-.35h0c.25-.02,.51,0,.76,0,1.08,.02,2.16-.17,3.16-.57,1.24-.49,2.37-1.27,3.24-2.28,.19-.22,.37-.46,.43-.73,.21-.91-.84-1.58-1.73-1.82Z"/><ellipse class="c" cx="158.11" cy="70.6" rx="2.89" ry="4.25" transform="translate(3.43 148.43) rotate(-50.77)"/><path class="c" d="M129.98,72.48c-.61-.78-2.6-.24-4.45,1.21-1.85,1.45-2.86,3.25-2.26,4.02,.61,.78,2.6,.24,4.45-1.21,1.85-1.45,2.86-3.25,2.26-4.02Z"/><path class="c" d="M150.01,88.92c.32-.19,.66-.37,1.01-.55,.15-.08,.3-.15,.45-.23,.15-.07,.31-.15,.46-.22,.16-.08,.32-.15,.48-.22s.32-.14,.49-.21h0c.17-.07,.34-.14,.51-.21h0c-.12,0-.23-.01-.34-.02-.18,0-.36-.02-.53-.03-.1,0-.2,0-.3-.02-.11,0-.21-.01-.32-.02-.08,0-.15,0-.23-.01-.11,0-.22,0-.33-.01-.06,0-.12,0-.18,0-.39-.01-.79-.02-1.22,0-.08,0-.16,0-.24,0-.16,0-.32,.01-.48,.02h0c-.1,0-.2,.01-.29,.02-.1,0-.2,.02-.3,.02-.15,.01-.31,.03-.46,.05-.09,0-.19,.02-.28,.03-.14,.02-.29,.04-.44,.06-.15,.02-.3,.05-.46,.07-.11,.02-.21,.03-.32,.06-.22,.04-.44,.08-.67,.13-2.59,.52-4.21,1.03-5.52,1.34-1.28,.31-2.27,.41-3.58,.12-1.62-.36-3.13-1.27-4.42-2.05-.82-.5-1.55-.94-2.18-1.17-1.01-.37-1.05-2.74-.93-4.47h0c-.01-.07-.02-.13-.03-.19-.24,.09-.47,.19-.72,.29,0,0,0,0-.02,0-.19,.08-.38,.17-.57,.26-.39,.18-.79,.38-1.19,.59-.2,.11-.4,.22-.6,.33-.5,.28-1,.6-1.49,.95-.1,.07-.19,.14-.28,.2-.13,.09-.26,.19-.39,.29-.12,.09-.24,.18-.35,.28-.15,.12-.31,.25-.46,.38-.08,.07-.15,.13-.23,.2-.1,.08-.19,.17-.28,.25-1.95,1.79-3.67,4.14-4.83,7.22,0,0,2.1,.11,5.27,.43,2.25,.23,5.04,.56,7.99,1.03h0c2.45,.39,5.01,.88,7.47,1.48h0c1.42,.35,2.8,.73,4.11,1.16,0,0,.37-1.25,1.69-2.96,.24-.31,.51-.64,.82-.98"/><path class="c" d="M164.3,80.53c-.06,.32-.12,.55-.26,.75,0,.04,.01,.08,.02,.12,.04,.61-.52,1.07-.73,1.64-.15,.39-.18,.91-.4,1.23-.09,.13-.2,.24-.37,.28-.51,.13-.76-.35-1.03-.87h0c-.14-.28-.29-.57-.48-.78-.07-.08-.15-.15-.24-.2-.47-.32-1.12-.34-1.7-.44-1.55-.27-2.85-1.27-4.26-1.99-.18-.1-.37-.19-.55-.27-1.34-.6-3.12-.71-4.2,.14-.24,.18-.44,.41-.59,.68-.16,.29-.29,.64-.46,.93h0c-.16,.29-.37,.52-.69,.59-.75,.16-1.25-.72-1.92-1.1-.09-.05-.19-.1-.28-.12h0c-.15-.03-.29-.06-.44-.09-1.21-.07-2.51,1.12-3.84,1.38-2.06,.41-4.08-1.49-6.13-1.05-1.14,.24-2.05,1.16-3.04,1.76-.52,.32-1.07,.54-1.68,.54-.17,0-.36-.03-.48-.15-.26-.27-.03-.7,.14-1.03l.02-.04c-.86-.18-1.2-.56-1.29-1.03-.12,1.73-.08,4.1,.93,4.47,.63,.23,1.36,.67,2.18,1.17,1.29,.78,2.8,1.69,4.42,2.05,1.31,.29,2.29,.19,3.58-.12,1.31-.31,2.93-.83,5.52-1.34,.23-.05,.46-.09,.67-.13,.11-.02,.22-.04,.32-.06,.16-.02,.31-.05,.46-.07,.15-.02,.3-.04,.44-.06,.1-.01,.19-.02,.28-.03,.16-.02,.31-.03,.46-.05,.1,0,.2-.02,.3-.02,.1,0,.2-.02,.29-.02h0c.16,0,.33-.02,.48-.02,.08,0,.16,0,.24,0,.42-.01,.82,0,1.22,0,.06,0,.12,0,.18,0,.11,0,.22,0,.33,.01,.08,0,.15,0,.23,.01,.11,0,.21,0,.32,.02,.1,0,.2,.01,.3,.02,.18,.01,.35,.02,.53,.03,.11,0,.23,.01,.34,.02h0c.12,0,.24,0,.37,.01,.1,0,.2,0,.3,0,.04,0,.08,0,.13,0h.12s.1,0,.15,0c.14,0,.28,0,.43,0s.29,0,.45,0h.06c.16,0,.33,0,.5-.02,.07,0,.15,0,.22-.01,.07,0,.15,0,.23-.01,.29-.02,.61-.04,.93-.07,.76-.07,1.45-.16,2.08-.25,2.5-.4,4.01-1.01,4.69-1.55,.25-.19,.38-.38,.41-.54,.15-.73-.2-4.3-.2-4.3Z"/><path class="c" d="M161.12,76.91c-2.64-.29-2.64-1.03-6.6-1.91-2.75-.61-4.79-1.72-7.45-1.89-1.17-.08-2.47,.02-3.99,.43-4.99,1.32-5.87,2.05-9.09,3.52-2.74,1.24-3.89,1.33-4.27,2.04-.07,.13-.11,.28-.13,.45,0,.05-.01,.1-.02,.15-.03,.25-.11,.8-.15,1.48h0c0,.07-.01,.14-.02,.2h0c.09,.47,.43,.85,1.29,1.03,.26-.54,.32-1.17,.19-1.75-.06-.24-.14-.48-.27-.7,.09-.16,.2-.28,.33-.38,.83-.63,2.35-.11,3.51-.36,1.16-.25,1.99-1.35,3.14-1.63,1.63-.38,3.46,.98,4.93,.17,1.46-.8,1.83-2.95,3.4-3.67,1.9-.87,3.1,.84,4.5,1.83,1.91,1.35,4.5,.97,6.78,1.44,2.12,.44,3.99,1.62,5.82,2.77,.17,.11,.34,.22,.49,.35,.26,.21,.47,.46,.53,.77,.14-.2,.21-.43,.26-.75,.15-.86-.54-3.33-3.18-3.62Z"/><path class="c" d="M164.04,81.28c-.06-.31-.27-.56-.53-.77-.15-.13-.32-.24-.49-.35-1.83-1.16-3.7-2.34-5.82-2.77-2.29-.47-4.87-.1-6.78-1.44-1.4-.99-2.6-2.7-4.5-1.83-1.57,.72-1.94,2.86-3.4,3.67-1.47,.81-3.3-.55-4.93-.17-1.15,.27-1.98,1.37-3.14,1.63-1.16,.25-2.68-.27-3.51,.36-.13,.1-.24,.22-.33,.38,.12,.22,.21,.46,.27,.7,.13,.58,.07,1.21-.19,1.75l-.02,.04c-.17,.33-.4,.76-.14,1.03,.12,.12,.31,.15,.48,.15,.61,0,1.16-.22,1.68-.54,.99-.6,1.9-1.52,3.04-1.76,2.06-.44,4.07,1.46,6.13,1.05,1.33-.26,2.63-1.45,3.84-1.38,0,0,.02,0,.02,0h0c.13,0,.26,.03,.38,.08h.03c.09,.04,.19,.08,.28,.14,.66,.38,1.17,1.27,1.92,1.1,.32-.07,.52-.3,.69-.59h0c.17-.29,.29-.64,.46-.93,.15-.28,.36-.5,.59-.68,1.08-.85,2.86-.73,4.2-.14,.19,.08,.37,.17,.55,.27,1.41,.73,2.71,1.72,4.26,1.99,.58,.1,1.23,.12,1.7,.44,.09,.06,.16,.12,.24,.2,.19,.21,.33,.5,.48,.78h0c.27,.52,.52,1.01,1.03,.88,.17-.04,.29-.15,.37-.28,.21-.32,.25-.84,.4-1.23,.21-.57,.77-1.03,.73-1.64,0-.04,0-.08-.02-.12Z"/></g><g class="d"><path class="c" d="M40.68,203.88c25.41-18.83,30.85-33.14,30.85-33.14l-2.74-2.96"/><path class="c" d="M38.69,199.78s13.35-10.57,20.7-18.98c7.23-8.28,9.59-12.79,9.4-13.01s-4.46,1.75-13.77,3.92c-9.39,2.18-25.82,3.3-25.82,3.3"/><path class="c" d="M39.07,199.87s-3.46-3.52-7.36-9.11c-3.88-5.56-2.51-15.76-2.51-15.76,0,0-1.86-1.66-4.28-.8-2.42,.86-4.3,2.58-4.75,3.88-.45,1.31-.17,19.18,11.24,29.24-1.39-2.09-1.25-4.81,.27-6.6,1.74-2.07,4.97-2.51,7.39-.85Z"/><path class="c" d="M32.27,200.15c-2.26,1.91-2.64,5.12-.85,7.18s5.08,2.16,7.33,.23,2.6-5.13,.81-7.16-5.05-2.14-7.29-.25Z"/><path class="c" d="M36.1,179.29c-2.03,1.68-2.82,4.03-1.76,5.22s3.56,.8,5.59-.9c2.02-1.69,2.79-4.02,1.74-5.21s-3.54-.79-5.56,.88Z"/><path class="c" d="M50.22,178.78c-1.99,1.67-2.76,4-1.7,5.19s3.54,.79,5.53-.89c1.98-1.68,2.73-3.99,1.67-5.17-1.06-1.18-3.52-.79-5.5,.87Z"/><path class="c" d="M38.92,189.29c-1.78,1.5-2.47,3.58-1.54,4.64,.93,1.06,3.14,.7,4.91-.81,1.77-1.5,2.45-3.57,1.52-4.63-.93-1.05-3.12-.7-4.89,.8Z"/><path class="c" d="M44.91,183.87c-.29,.05-.89,.2-1.44,.69-.31,.28-.51,.58-.62,.79"/><path class="c" d="M52.86,174.93c-.46,.43-1.15,.94-1.79,.77-.61-.17-.73-.86-1.19-.93-.38-.06-1.01,.29-2.02,2.31"/></g><g class="d"><path class="c" d="M239.31,209.71c-3.88-3.12-8.81-4.99-14.18-4.99-12.51,0-22.65,10.14-22.65,22.65,0,3.06,.61,5.98,1.71,8.64,3.39,8.22,11.49,14.01,20.94,14.01,12.51,0,22.65-10.14,22.65-22.65,0-7.14-3.31-13.52-8.47-17.66Z"/><path class="c" d="M239.31,209.71c-3.88-3.12-8.81-4.99-14.18-4.99-12.51,0-22.65,10.14-22.65,22.65,0,3.06,.61,5.98,1.71,8.64,3.88,3.12,8.81,4.98,14.18,4.98,12.51,0,22.65-10.14,22.65-22.65,0-3.06-.61-5.98-1.71-8.64Z"/><ellipse class="c" cx="214.51" cy="218.54" rx="6.3" ry="3.85" transform="translate(-91.39 204.44) rotate(-42.89)"/><ellipse class="c" cx="231.86" cy="220.29" rx="4.33" ry="3.45" transform="translate(-74.61 128.85) rotate(-26.92)"/><ellipse class="c" cx="221" cy="233.26" rx="4.33" ry="3.45" transform="translate(-81.66 125.34) rotate(-26.92)"/><ellipse class="c" cx="227.49" cy="210.14" rx="3.27" ry="2.61" transform="translate(-36.8 48.71) rotate(-11.31)"/></g><g class="d"><path class="c" d="M120.96,155.99c-1.17-4.33-7.56-6.46-14.35-4.78s-11.51,6.64-10.42,11.05l.43,1.16c.34,.67,.83,1.27,1.42,1.8,.56-1.51,1.68-2.96,3.22-4.22,1.81-1.48,4.2-2.68,6.94-3.36s5.42-.74,7.71-.28c1.02,.21,1.96,.51,2.81,.91,.76,.36,1.44,.8,2.02,1.31,.17-.46,.29-.92,.35-1.38,.1-.71,.07-1.41-.1-2.1,0-.04-.02-.07-.03-.11Z"/><path class="c" d="M118.72,158.27c-.84-.4-1.79-.7-2.81-.91-2.29-.46-4.97-.4-7.71,.28s-5.13,1.88-6.94,3.36c-1.54,1.25-2.66,2.71-3.22,4.22,2.62,2.32,7.46,3.2,12.53,1.94,.13-.03,.27-.07,.4-.1,.2-.05,.39-.11,.58-.17,.14-.04,.28-.08,.41-.13,.41-.13,.83-.28,1.22-.45,.13-.05,.27-.11,.4-.16,.15-.06,.29-.12,.43-.19,.1-.05,.2-.1,.3-.15,.23-.1,.46-.22,.67-.34,.1-.06,.2-.11,.31-.16,.02-.02,.05-.03,.07-.04,.11-.06,.22-.13,.33-.19,.13-.07,.25-.15,.37-.23,.36-.23,.71-.47,1.04-.72,.22-.17,.43-.34,.63-.51l.15-.13c.08-.07,.17-.15,.25-.22,.26-.24,.5-.48,.73-.73,.09-.09,.17-.18,.26-.28l.23-.29c.07-.09,.15-.19,.22-.29,.07-.09,.14-.19,.21-.29,.05-.07,.1-.14,.15-.21,.34-.52,.61-1.05,.82-1.59-.58-.51-1.25-.95-2.02-1.31Z"/><path class="c" d="M110.56,167.16c-5.07,1.26-9.91,.38-12.53-1.94-.6-.52-1.08-1.13-1.42-1.8l1.11,2.94,2.02,5.38,6.06,16.14c.82,3.31,5.67,4.96,10.83,3.68,.13-.03,.27-.07,.4-.11l-6.06-24.4c-.13,.04-.27,.07-.4,.1Z"/><polyline class="c" points="119.11 136.2 107.64 142.18 108.93 162.55"/><path class="c" d="M120.74,159.58c-.2,.54-.47,1.07-.82,1.59-.04,.07-.09,.14-.15,.21-.07,.1-.14,.2-.21,.29-.07,.1-.15,.2-.22,.29l-.23,.29c-.09,.1-.17,.19-.26,.28-.22,.25-.47,.49-.73,.73-.08,.08-.17,.15-.25,.22l-.15,.13c-.2,.17-.41,.34-.63,.51-.33,.25-.68,.49-1.04,.72-.12,.08-.24,.16-.37,.23-.11,.07-.22,.13-.33,.19-.02,.02-.05,.03-.07,.04-.1,.06-.21,.11-.31,.16-.21,.12-.44,.24-.67,.34-.1,.05-.2,.09-.3,.15-.14,.06-.28,.13-.43,.19-.13,.06-.27,.11-.4,.16-.39,.16-.8,.31-1.22,.45-.14,.05-.27,.09-.41,.13-.19,.06-.38,.12-.58,.17l6.06,24.4c4.08-1.12,7.04-3.79,7.5-6.5,.1-.58,.09-1.15-.05-1.71l-.52-4.04h0l-2.87-21c-.06,.46-.18,.92-.35,1.38Z"/></g><g class="d"><path class="c" d="M304.75,139.65c-1.92,2.77-2.85,6.98-2.85,6.98,0,0-5.3,1.3-16.88,7.31-5.08,2.64-8.6,5.28-10.96,7.4,.94,1.5,2.95,4.33,4.73,4.22,1.31-.08,9.39-4.57,16.68-9.06,6.12-3.76,11.67-7.51,12.19-8.63,.9-1.93-1.73-6.38-2.91-8.22Z"/><path class="c" d="M298.84,142.22c-.25,.08-.51,.14-.77,.16-.97,.1-1.98-.01-2.89,.35-1.71,.67-2.35,2.69-3.58,4.07-.16,.18-.32,.34-.5,.5-.54,.46-1.17,.76-1.83,.98-1.9,.62-4.15,.58-5.87,1.67-2.29,1.45-3.34,4.73-5.99,5.33-.61,.14-1.25,.11-1.87,.23-.76,.14-1.48,.52-2.02,1.07-.56,.56-.94,1.28-1.48,1.85-.54,.58-1.35,1.02-2.11,.79-.19-.06-.36-.16-.51-.29-.21,1.02-.33,2.12-.18,3,.41,2.43,.72,3.99,.72,3.99,0,0,1.1-1.88,4.11-4.59,2.36-2.13,5.88-4.76,10.96-7.4,11.58-6.01,16.88-7.31,16.88-7.31,0,0,.94-4.21,2.85-6.98,.57-.82,1.22-1.52,1.97-1.94,0,0-1.55-.75-4.11-.77-.01,.47-.29,.95-.72,1.13-.32,.13-.71,.12-.99,.32-.74,.49-.3,1.63-.53,2.48-.06,.21-.15,.39-.28,.56"/><path class="c" d="M302.43,136.3c-.19-.29-.47-.46-.8-.53,.04,.14,.08,.28,.11,.43,.06,.28,.04,.55-.08,.81-.58,1.38-3.44,2.5-7.31,4.21-.64,.29-1.35,.65-2.12,1.06-4.72,2.58-11.33,7.3-13.68,8.85-1.14,.75-2.69,1.88-4.28,2.86-1.37,.85-2.77,1.59-3.94,1.86-.43,.11-.82,.15-1.18,.11-.24,.48-.4,1-.39,1.53,.01,.55,.25,1.11,.65,1.46,.15,.13,.32,.23,.51,.29,.76,.23,1.57-.22,2.11-.79,.54-.57,.92-1.29,1.48-1.85,.55-.55,1.26-.93,2.02-1.07,.61-.12,1.26-.09,1.87-.23,2.65-.59,3.7-3.87,5.99-5.33,1.72-1.09,3.97-1.04,5.87-1.67,.34-.1,.79-.27,1.27-.58,.48-.31,.83-.64,1.06-.9,1.22-1.38,1.87-3.4,3.58-4.07,.91-.36,1.92-.25,2.89-.35,.26-.03,.52-.08,.77-.16,.21-.06,.5-.18,.8-.39,.19-.13,.34-.27,.45-.4,.13-.16,.23-.35,.28-.56,.23-.85-.21-2,.53-2.48,.29-.19,.67-.18,.99-.32,.44-.18,.71-.67,.72-1.13,0-.23-.05-.45-.18-.64Z"/><path class="c" d="M301.74,136.19c-.03-.14-.07-.28-.11-.43h0c-.48-1.6-1.69-3.25-2.58-4.47-.04-.05-.07-.1-.11-.14-.06-.08-.11-.15-.18-.23-6.36,9.12-26.09,17.72-33.18,20.6h0c.04,.31-.21-.02,.02,.21,0,0,.43,1.06,.68,1.66,.31,.74,.94,1.71,2.19,2.35,.2,.11,.44,.17,.69,.19,.36,.04,.76,0,1.18-.11,1.18-.27,2.57-1.01,3.94-1.86,1.58-.98,3.13-2.12,4.28-2.86,2.35-1.55,8.96-6.27,13.68-8.85,.76-.41,1.48-.77,2.12-1.06,3.87-1.7,6.73-2.83,7.31-4.21,.11-.26,.14-.53,.08-.81Z"/><path class="c" d="M297.37,125.09c-1.32,1.57-5.44,6.02-13.18,10.61-7.66,4.55-19.45,10.11-23.95,12.19,.8,2.07,2.05,4.26,2.76,4.66,0,0,.96-.36,2.57-1.01h0c7.09-2.88,26.81-11.48,33.18-20.6,.38-.54,.71-1.09,.99-1.63,0,0,.04-2.23-2.37-4.22Z"/><path class="c" d="M295.2,123.73c-4.6-2.15-11.63-.61-21.15,5.02-8.04,4.76-15.07,10.82-14.54,16.46,.07,.73,.35,1.69,.73,2.68,4.5-2.08,16.29-7.64,23.95-12.19,7.73-4.59,11.86-9.04,13.18-10.61-.57-.48-1.29-.94-2.17-1.35Z"/><path class="c" d="M295.2,123.73c-4.6-2.15-11.63-.61-21.15,5.02-8.04,4.76-15.07,10.82-14.54,16.46,.07,.73,.35,1.69,.73,2.68,4.5-2.08,16.29-7.64,23.95-12.19,7.73-4.59,11.86-9.04,13.18-10.61-.57-.48-1.29-.94-2.17-1.35Z"/><ellipse class="c" cx="268.76" cy="135.77" rx="1.37" ry=".52" transform="translate(-31.93 119.95) rotate(-23.79)"/><ellipse class="c" cx="272.88" cy="132.19" rx="1.37" ry=".52" transform="translate(-30.14 121.31) rotate(-23.79)"/><ellipse class="c" cx="283.94" cy="128.79" rx="1.37" ry=".52" transform="translate(-27.83 125.48) rotate(-23.79)"/><ellipse class="c" cx="279.17" cy="128.79" rx="1.37" ry=".52" transform="translate(-28.23 123.56) rotate(-23.79)"/><ellipse class="c" cx="276.77" cy="133.12" rx="1.37" ry=".52" transform="translate(-30.18 122.96) rotate(-23.79)"/><ellipse class="c" cx="287.24" cy="125.57" rx="1.37" ry=".52" transform="translate(-26.25 126.54) rotate(-23.79)"/><ellipse class="c" cx="264.42" cy="139.65" rx="1.37" ry=".52" transform="translate(-33.86 118.53) rotate(-23.79)"/></g><g class="d"><path class="c" d="M53.84,84.19l.02,.1,1.33,5.96s3.6,2.25,7.99,5.43"/><path class="c" d="M66.73,98.33c1.95,1.52,3.92,3.14,5.68,4.77,1.93,1.79,4.1,4.13,6.24,6.57,5.63,6.45,11.03,13.69,11.03,13.69l1.9-2.45"/><g><path class="c" d="M90.55,95.86c.96,2.26,3.7,8.4,3.69,13.86,0,.61-.04,1.2-.11,1.78-.75,5.84,.5,10-.19,10.79-.69,.79-2.79-.33-2.98-4.16-.19-3.83,.84-5.22-2.03-5.73-2.88-.51-3.04,.89-3.57-1.46-.54-2.35-.64-4.55-2.82-5.48-2.18-.92-3.48-.05-4.28-2.92-.8-2.87-5.45-7.71-8.32-9.08-2.41-1.15-1.9,2.59-3.19,4.87-.25,.45-.58,.85-1,1.14-1.56,1.05-1.9-1.22-2.54-3.79-.43-1.73-1-3.6-2.17-4.68-2.89-2.68-2.71-2.77-4.81-3.89-1.06-.57-1.86-1.71-2.35-2.81-.48-1.07-.68-2.09-.55-2.47,.26-.78,2.08-2.36,2.08-2.36,0,0,.65-.66,2.13-.89,.6-.1,1.33-.12,2.21,0,3.05,.42,8.02,1.61,12.03,2.19,4,.58,4.18,.49,7.32,1.09,3.14,.58,6.11,3.44,7.17,5.52s3.26,5.99,4.32,8.5Z"/><path class="c" d="M68.4,84.41c-1.77-2.11-4.39-2.84-5.85-1.62-1.46,1.22-1.21,3.93,.56,6.04,1.77,2.11,4.38,2.83,5.84,1.61,1.46-1.22,1.21-3.92-.56-6.04Z"/><path class="c" d="M76.51,89.25c1.42,1.69,3.51,2.26,4.68,1.28,1.16-.97,.96-3.14-.45-4.83-1.42-1.69-3.51-2.27-4.68-1.29-1.16,.97-.96,3.14,.45,4.83Z"/><path class="c" d="M83.44,99.69c1.17-.98,.96-3.14-.45-4.83-1.42-1.69-3.51-2.26-4.67-1.29-1.17,.98-.97,3.14,.45,4.83,1.42,1.69,3.51,2.26,4.68,1.29Z"/><path class="c" d="M87.85,100.81c-1.45,.47-2.08,2.54-1.41,4.64,.67,2.1,2.39,3.42,3.84,2.96,1.45-.46,2.08-2.54,1.41-4.64-.67-2.1-2.39-3.43-3.84-2.97Z"/></g><path class="c" d="M62.55,82.8c-1.46,1.22-1.21,3.93,.56,6.04,1.77,2.11,4.38,2.83,5.84,1.61,1.46-1.22,1.21-3.92-.56-6.04s-4.39-2.84-5.85-1.62Z"/><path class="c" d="M82.99,94.86c-1.42-1.69-3.51-2.26-4.67-1.29-1.17,.98-.97,3.14,.45,4.83,1.42,1.69,3.51,2.26,4.68,1.29,1.17-.98,.96-3.14-.45-4.83Z"/><path class="c" d="M81.19,90.53c1.16-.97,.96-3.14-.45-4.83-1.42-1.69-3.51-2.27-4.68-1.29-1.16,.97-.96,3.14,.45,4.83,1.42,1.69,3.51,2.26,4.68,1.28Z"/><path class="c" d="M87.85,100.81c-1.45,.47-2.08,2.54-1.41,4.64,.67,2.1,2.39,3.42,3.84,2.96,1.45-.46,2.08-2.54,1.41-4.64-.67-2.1-2.39-3.43-3.84-2.97Z"/><path class="c" d="M68.4,84.41c-1.77-2.11-4.39-2.84-5.85-1.62-1.46,1.22-1.21,3.93,.56,6.04,1.77,2.11,4.38,2.83,5.84,1.61,1.46-1.22,1.21-3.92-.56-6.04Z"/><path class="c" d="M80.74,85.7c-1.42-1.69-3.51-2.27-4.68-1.29-1.16,.97-.96,3.14,.45,4.83,1.42,1.69,3.51,2.26,4.68,1.28,1.16-.97,.96-3.14-.45-4.83Z"/><path class="c" d="M82.99,94.86c-1.42-1.69-3.51-2.26-4.67-1.29-1.17,.98-.97,3.14,.45,4.83,1.42,1.69,3.51,2.26,4.68,1.29,1.17-.98,.96-3.14-.45-4.83Z"/><path class="c" d="M87.85,100.81c-1.45,.47-2.08,2.54-1.41,4.64,.67,2.1,2.39,3.42,3.84,2.96,1.45-.46,2.08-2.54,1.41-4.64-.67-2.1-2.39-3.43-3.84-2.97Z"/></g><line class="b" x1="196.02" y1="287.79" x2="196.02" y2="287.8"/><g class="d"><path class="c" d="M331.5,313.09c1.36-4.27-2.86-9.53-9.47-11.79-6.67-2.28-13.28-.65-14.74,3.64l-.27,1.21c-.07,.75,0,1.52,.22,2.28,1.29-.97,3.02-1.58,4.99-1.8,2.33-.27,4.98,.03,7.66,.94,2.68,.91,4.96,2.31,6.63,3.94,.74,.72,1.38,1.49,1.87,2.28,.44,.72,.78,1.45,.98,2.2,.39-.29,.74-.62,1.04-.97,.47-.54,.83-1.15,1.06-1.82,.01-.04,.02-.07,.03-.11Z"/><path class="c" d="M328.39,313.79c-.49-.79-1.12-1.56-1.87-2.28-1.68-1.63-3.96-3.03-6.63-3.94-2.67-.91-5.33-1.2-7.66-.94-1.98,.22-3.71,.83-4.99,1.8,.94,3.37,4.54,6.73,9.48,8.42,.13,.04,.26,.09,.39,.13,.19,.06,.39,.12,.58,.17,.14,.04,.27,.08,.41,.12,.42,.11,.85,.21,1.27,.29,.14,.03,.28,.06,.42,.08,.16,.03,.31,.05,.46,.07,.12,.01,.22,.03,.33,.04,.25,.04,.51,.06,.75,.08,.11,0,.23,.02,.35,.03,.03,0,.06,0,.08,0,.13,0,.26,.01,.39,.02,.15,0,.29,0,.44,0,.43,0,.85,0,1.26-.04,.27-.02,.54-.05,.81-.08l.2-.03c.11-.01,.22-.03,.33-.05,.34-.06,.68-.13,1.01-.22,.12-.03,.24-.06,.37-.09l.35-.11c.11-.04,.23-.08,.34-.12,.11-.04,.22-.09,.33-.13,.08-.03,.16-.06,.24-.1,.57-.25,1.09-.55,1.55-.9-.21-.74-.54-1.48-.98-2.2Z"/><path class="c" d="M316.72,316.84c-4.94-1.69-8.53-5.05-9.48-8.42-.22-.76-.3-1.53-.22-2.28l-.66,3.07-1.22,5.62-3.65,16.85c-1.1,3.23,2.08,7.24,7.1,8.96,.13,.04,.26,.09,.4,.12l8.13-23.79c-.13-.04-.26-.08-.39-.13Z"/><polyline class="c" points="340.67 295.45 327.79 294.26 317.84 312.08"/><path class="c" d="M329.37,315.98c-.46,.34-.98,.64-1.55,.9-.08,.04-.15,.07-.24,.1-.11,.05-.22,.09-.33,.13-.11,.04-.23,.09-.34,.12l-.35,.11c-.13,.04-.24,.07-.37,.09-.32,.09-.66,.16-1.01,.22-.11,.02-.22,.04-.33,.05l-.2,.03c-.26,.04-.53,.06-.81,.08-.41,.03-.83,.04-1.26,.04-.15,0-.29,0-.44,0-.13,0-.26,0-.39-.02-.03,0-.06,0-.08,0-.12,0-.23-.02-.35-.03-.25-.02-.5-.04-.75-.08-.11-.01-.22-.03-.33-.04-.15-.02-.3-.05-.46-.07-.14-.02-.29-.05-.42-.08-.42-.07-.84-.17-1.27-.29-.14-.03-.28-.07-.41-.12-.19-.05-.39-.11-.58-.17l-8.13,23.79c4.03,1.26,7.97,.63,9.83-1.4,.4-.43,.69-.92,.88-1.47l1.76-3.68h0l8.96-19.2c-.3,.35-.65,.67-1.04,.97Z"/></g><g class="d"><path class="c" d="M51.29,331.62c-3.36,.14-7.28,1.94-7.28,1.94,0,0-4.23-3.44-16.02-9.04-5.17-2.46-9.4-3.67-12.51-4.27-.63,1.65-1.67,4.97-.51,6.32,.86,1,9.31,4.73,17.29,7.83,6.69,2.61,13.04,4.77,14.24,4.51,2.08-.45,4.04-5.23,4.8-7.29Z"/><path class="c" d="M45.67,328.46c-.22-.15-.42-.32-.59-.51-.67-.71-1.19-1.59-2.02-2.09-1.56-.95-3.56-.25-5.4-.39-.24-.02-.47-.05-.7-.1-.7-.15-1.31-.47-1.89-.87-1.65-1.14-2.97-2.96-4.87-3.67-2.54-.95-5.79,.19-7.86-1.56-.48-.41-.84-.94-1.31-1.35-.58-.52-1.31-.86-2.07-.97-.79-.11-1.59,.03-2.37-.06-.79-.08-1.63-.46-1.91-1.2-.07-.19-.09-.39-.08-.58-.94,.45-1.88,1.02-2.5,1.67-1.69,1.8-2.75,2.98-2.75,2.98,0,0,2.17-.26,6.15,.51,3.12,.6,7.34,1.81,12.51,4.27,11.78,5.6,16.02,9.04,16.02,9.04,0,0,3.92-1.79,7.28-1.94,1-.04,1.95,.06,2.73,.4,0,0-.34-1.69-1.86-3.74-.38,.27-.93,.35-1.34,.11-.3-.18-.52-.49-.85-.6-.83-.29-1.48,.75-2.3,1.08-.2,.08-.4,.12-.62,.11"/><path class="c" d="M52.56,327.75c.12-.33,.08-.65-.06-.96-.09,.12-.18,.24-.27,.35-.19,.22-.42,.36-.69,.43-1.45,.37-4.07-1.23-7.76-3.29-.62-.34-1.33-.69-2.12-1.05-4.9-2.21-12.66-4.63-15.31-5.57-1.29-.46-3.13-1.01-4.86-1.68-1.51-.58-2.94-1.25-3.86-2.02-.34-.27-.61-.56-.8-.88-.53,.1-1.04,.28-1.46,.61-.43,.34-.74,.87-.78,1.4-.01,.2,.01,.39,.08,.58,.27,.74,1.12,1.12,1.91,1.2,.79,.09,1.59-.04,2.37,.06,.77,.11,1.5,.44,2.07,.97,.47,.42,.83,.94,1.31,1.35,2.08,1.76,5.32,.61,7.86,1.56,1.9,.71,3.23,2.53,4.87,3.67,.28,.21,.69,.47,1.23,.67,.54,.2,1.01,.27,1.36,.3,1.84,.14,3.84-.56,5.4,.39,.83,.51,1.36,1.38,2.02,2.09,.18,.19,.38,.36,.59,.51,.18,.13,.44,.29,.79,.4,.22,.07,.42,.1,.59,.12,.21,0,.41-.03,.62-.11,.82-.33,1.47-1.37,2.3-1.08,.33,.11,.55,.42,.85,.6,.41,.24,.96,.17,1.34-.11,.18-.13,.33-.31,.4-.53Z"/><path class="c" d="M52.23,327.13c.1-.11,.18-.23,.27-.35h0c.98-1.35,1.57-3.31,2-4.76,.01-.06,.03-.12,.05-.17,.03-.09,.05-.18,.07-.28-11.11,.43-29.88-10.1-36.45-14.02h0c-.22,.22-.1-.18-.15,.14,0,0-.58,.98-.91,1.54-.41,.69-.8,1.78-.55,3.16,.04,.23,.13,.45,.26,.66,.19,.31,.46,.6,.8,.88,.93,.78,2.36,1.44,3.86,2.02,1.74,.67,3.58,1.22,4.86,1.68,2.65,.94,10.41,3.36,15.31,5.57,.79,.36,1.51,.71,2.12,1.05,3.69,2.06,6.32,3.66,7.76,3.29,.28-.07,.5-.21,.69-.43Z"/><path class="c" d="M58.44,316.95c-2.05-.1-8.09-.7-16.42-4.1-8.25-3.36-19.8-9.41-24.18-11.74-1.16,1.89-2.16,4.21-2.05,5.01,0,0,.86,.55,2.36,1.44h0c6.57,3.91,25.33,14.45,36.45,14.01,.66-.03,1.3-.09,1.9-.2,0,0,1.8-1.31,1.93-4.43Z"/><path class="c" d="M58.21,314.4c-1.07-4.96-6.53-9.64-16.77-13.84-8.65-3.53-17.72-5.48-21.9-1.66-.54,.49-1.13,1.3-1.69,2.2,4.38,2.33,15.93,8.38,24.18,11.74,8.33,3.4,14.37,4,16.42,4.1,.03-.74-.03-1.59-.23-2.55Z"/><path class="c" d="M58.21,314.4c-1.07-4.96-6.53-9.64-16.77-13.84-8.65-3.53-17.72-5.48-21.9-1.66-.54,.49-1.13,1.3-1.69,2.2,4.38,2.33,15.93,8.38,24.18,11.74,8.33,3.4,14.37,4,16.42,4.1,.03-.74-.03-1.59-.23-2.55Z"/><ellipse class="c" cx="32.66" cy="300.58" rx=".52" ry="1.37" transform="translate(-245.91 183.03) rotate(-60.92)"/><ellipse class="c" cx="37.99" cy="301.71" rx=".52" ry="1.37" transform="translate(-244.15 188.28) rotate(-60.92)"/><ellipse class="c" cx="47.38" cy="308.47" rx=".52" ry="1.37" transform="translate(-245.23 199.96) rotate(-60.92)"/><ellipse class="c" cx="44.5" cy="304.66" rx=".52" ry="1.37" transform="translate(-243.39 195.48) rotate(-60.92)"/><ellipse class="c" cx="39.6" cy="305.37" rx=".52" ry="1.37" transform="translate(-246.53 191.56) rotate(-60.92)"/><ellipse class="c" cx="51.94" cy="309.16" rx=".52" ry="1.37" transform="translate(-243.49 204.3) rotate(-60.92)"/><ellipse class="c" cx="26.95" cy="299.46" rx=".52" ry="1.37" transform="translate(-247.87 177.47) rotate(-60.92)"/></g><g class="d"><path class="c" d="M28,12.43l-2.33-1.22s-2.97,3.33-3.37,8.63,3.13,8.13,3.13,8.13c-2.53-9.83,2.57-15.53,2.57-15.53Z"/><path class="c" d="M38.09,19.71c-.66,.11-1.34,.27-2.03,.5h0c-3.64,1.19-7.55,4.05-10.14,8.48,0,0-17.87,6.38-10.39,19.06,4.44,6.06,7.65,6.32,11.98,6.99,1.79,.27,3.76,.62,6.1,1.48,4.2,.6,6.05-3.6,7.8-4.6,1.75-1,7.78-1.93,8.63-6.63,.85-4.7-1.36-10.55-.51-15.25,.85-4.7-6.13-10.87-11.44-10.02Z"/><path class="c" d="M27.89,54.47c.18-1.24,2.38-1.76,3.56-3.2,2.37-2.88,6.77-3.68,6.87-8.13,.1-4.45,1.74-8.51,2.02-15.43,.18-4.76-3.41-4.9-4.15-7.11"/></g><g class="d"><path class="c" d="M35.43,136.01c17.01-5.49,11.73-22.88,11.73-22.88,0,0-.67,.22-1.92,.64-.16,4.76-1.53,14.39-9.62,17.42-13.18,4.91-20.77-4.67-23.04-8.21-.62,.15-1.25,.31-1.89,.45,0,0,7.91,18.01,24.73,12.57Z"/><path class="c" d="M45.25,113.78c-.19,.07-.41,.13-.62,.2-.09,.03-.18,.06-.29,.09-2.92,.94-7.93,2.51-14.36,4.33-.53,.15-1.06,.29-1.61,.45-.08,.03-.17,.06-.26,.07-.28,.09-.56,.16-.85,.24h-.02c-.46,.13-.92,.27-1.4,.4-3.79,1.03-7.95,2.12-12.37,3.2-.08,.02-.16,.04-.24,.06-.21,.05-.43,.11-.66,.16,2.27,3.54,9.86,13.12,23.04,8.21,8.08-3.03,9.45-12.65,9.62-17.42Z"/></g><g class="d"><path class="c" d="M322.79,169.29c-2.19,0-4.27,.52-6.11,1.43-4.51,2.24-7.61,6.91-7.61,12.29,0,7.58,6.15,13.72,13.72,13.72,5.38,0,10.04-3.1,12.29-7.61,.92-1.84,1.44-3.92,1.44-6.11,0-7.58-6.15-13.72-13.72-13.72Z"/><path class="c" d="M322.79,169.29c-2.19,0-4.27,.52-6.11,1.43-.92,1.84-1.44,3.92-1.44,6.11,0,7.58,6.15,13.72,13.72,13.72,2.2,0,4.27-.52,6.11-1.44,.92-1.84,1.44-3.92,1.44-6.11,0-7.58-6.15-13.72-13.72-13.72Z"/><ellipse class="c" cx="329.65" cy="175.75" rx="1.26" ry="1.09"/></g><g class="d"><path class="c" d="M180.61,42.75l.87,3.94s14.85,3.69,44.81-6.43"/><path class="c" d="M209.12,14.36s-10.29,12.86-17.44,19.32c-7.09,6.41-11.14,8.79-11.07,9.07s5.12,.91,16.05-.3c11.11-1.24,27.4-6.17,27.4-6.17"/><path class="c" d="M228.83,31.06c2.34-.22,4.65,1.22,5.58,3.55-1.75-15.11-16.27-25.54-17.61-25.92-1.33-.38-3.81,.18-5.9,1.69-2.08,1.5-1.78,3.97-1.78,3.97,0,0,9.16,4.69,11.51,11.05,2.37,6.4,3.28,11.24,3.28,11.24,.02-2.93,2.22-5.33,4.91-5.58Z"/><path class="c" d="M224.06,37.35c.65,2.63,3.49,4.17,6.35,3.42s4.66-3.51,3.99-6.16-3.53-4.16-6.38-3.39c-2.84,.76-4.61,3.5-3.96,6.13Z"/><path class="c" d="M204.81,26.52c.38,1.55,2.73,2.24,5.27,1.55,2.55-.7,4.31-2.52,3.93-4.08-.38-1.55-2.76-2.24-5.3-1.53-2.53,.7-4.27,2.52-3.9,4.06Z"/><path class="c" d="M196.38,37.78c.37,1.54,2.69,2.25,5.2,1.58,2.52-.67,4.26-2.48,3.88-4.03s-2.72-2.25-5.23-1.57c-2.5,.68-4.22,2.48-3.86,4.02Z"/><path class="c" d="M211.86,34.05c.33,1.37,2.42,1.99,4.67,1.39,2.25-.6,3.81-2.2,3.47-3.57s-2.44-1.99-4.69-1.38c-2.24,.6-3.78,2.2-3.45,3.56Z"/><path class="c" d="M209.84,31.46c-.24-.03-.6-.04-1.01,.06-.72,.17-1.18,.58-1.39,.79"/><path class="c" d="M200.19,30.86c-2.24-.32-2.88,0-3.05,.34-.21,.43,.3,.91,.09,1.51-.22,.62-1.03,.9-1.65,1.03"/></g><g class="d"><path class="c" d="M313.06,17.67c-3.88-3.12-8.81-4.99-14.18-4.99-12.51,0-22.65,10.14-22.65,22.65,0,3.06,.61,5.98,1.71,8.64,3.39,8.22,11.49,14.01,20.94,14.01,12.51,0,22.65-10.14,22.65-22.65,0-7.14-3.31-13.52-8.47-17.66Z"/><path class="c" d="M313.06,17.67c-3.88-3.12-8.81-4.99-14.18-4.99-12.51,0-22.65,10.14-22.65,22.65,0,3.06,.61,5.98,1.71,8.64,3.88,3.12,8.81,4.98,14.18,4.98,12.51,0,22.65-10.14,22.65-22.65,0-3.06-.61-5.98-1.71-8.64Z"/><ellipse class="c" cx="288.26" cy="26.49" rx="6.3" ry="3.85" transform="translate(59.04 203.28) rotate(-42.89)"/><ellipse class="c" cx="305.61" cy="28.24" rx="4.33" ry="3.45" transform="translate(20.33 141.43) rotate(-26.92)"/><ellipse class="c" cx="294.75" cy="41.22" rx="4.33" ry="3.45" transform="translate(13.28 137.92) rotate(-26.92)"/><ellipse class="c" cx="301.24" cy="18.09" rx="3.27" ry="2.61" transform="translate(2.3 59.44) rotate(-11.31)"/></g><g class="d"><path class="c" d="M170.31,332.67c5.42-.24,9.66-.14,9.66-.14l4.39-4.24,.07-.07"/><path class="c" d="M132.73,338.14l.24,3.09s8.48-3.08,16.73-5.37c3.13-.87,6.23-1.62,8.83-2.06,2.37-.4,4.9-.67,7.37-.86"/><g><path class="c" d="M155.64,313.04c2.02-1.16,6.08-1.91,9.02-.67,2.95,1.23,3.05,1.4,6.71,3.11,3.67,1.72,8.47,3.45,11.25,4.78,.8,.39,1.4,.81,1.85,1.22,1.11,1.01,1.29,1.92,1.29,1.92,0,0,.65,2.32,.43,3.12-.11,.39-.83,1.13-1.82,1.76-1.01,.65-2.31,1.17-3.51,1.06-2.37-.22-2.27-.05-6.16,.6-1.57,.26-3.07,1.51-4.38,2.72-1.95,1.8-3.49,3.5-4.21,1.77-.2-.48-.25-.98-.21-1.5,.18-2.62,2.66-5.46,.02-5.82-3.16-.43-9.7,1.06-11.95,3.01-2.25,1.96-2.85,.51-5.18,.08-2.34-.43-3.63,1.36-5.37,3.03-1.73,1.66-1.11,.41-3.79-.75s-2.58,.58-4.85,3.67c-2.27,3.09-4.64,2.87-4.78,1.83-.15-1.04,3.18-3.83,5.77-9.12,.25-.52,.55-1.04,.89-1.54,2.99-4.57,8.66-8.18,10.7-9.55,2.27-1.52,6.25-3.57,8.28-4.73Z"/><path class="c" d="M168.36,325.13c.55,1.82,3.13,2.66,5.77,1.87,2.64-.79,4.34-2.91,3.79-4.74-.55-1.82-3.13-2.66-5.77-1.86-2.64,.79-4.34,2.91-3.79,4.73Z"/><path class="c" d="M165.75,316.18c-.43-1.46-2.5-2.13-4.62-1.5-2.11,.63-3.47,2.33-3.03,3.78,.43,1.46,2.5,2.13,4.61,1.5,2.11-.64,3.47-2.33,3.03-3.79Z"/><path class="c" d="M155.8,326.38c2.11-.63,3.47-2.33,3.03-3.79-.44-1.45-2.5-2.12-4.61-1.49-2.11,.63-3.47,2.33-3.03,3.79,.44,1.46,2.51,2.13,4.62,1.5Z"/><path class="c" d="M142.05,323.77c-1.71,1.38-2.33,3.47-1.37,4.65,.96,1.18,3.12,1.02,4.84-.36,1.72-1.38,2.33-3.47,1.38-4.65-.96-1.18-3.13-1.02-4.84,.37Z"/></g><path class="c" d="M172.15,320.39c-2.64,.79-4.34,2.91-3.79,4.73,.55,1.82,3.13,2.66,5.77,1.87,2.64-.79,4.34-2.91,3.79-4.74-.55-1.82-3.13-2.66-5.77-1.86Z"/><path class="c" d="M151.19,324.88c.44,1.46,2.51,2.13,4.62,1.5,2.11-.63,3.47-2.33,3.03-3.79-.44-1.45-2.5-2.12-4.61-1.49-2.11,.63-3.47,2.33-3.03,3.79Z"/><path class="c" d="M162.72,319.97c2.11-.64,3.47-2.33,3.03-3.79-.43-1.46-2.5-2.13-4.62-1.5-2.11,.63-3.47,2.33-3.03,3.78,.43,1.46,2.5,2.13,4.61,1.5Z"/><path class="c" d="M142.05,323.77c-1.71,1.38-2.33,3.47-1.37,4.65,.96,1.18,3.12,1.02,4.84-.36,1.72-1.38,2.33-3.47,1.38-4.65-.96-1.18-3.13-1.02-4.84,.37Z"/><path class="c" d="M168.36,325.13c.55,1.82,3.13,2.66,5.77,1.87,2.64-.79,4.34-2.91,3.79-4.74-.55-1.82-3.13-2.66-5.77-1.86-2.64,.79-4.34,2.91-3.79,4.73Z"/><path class="c" d="M158.11,318.47c.43,1.46,2.5,2.13,4.61,1.5,2.11-.64,3.47-2.33,3.03-3.79-.43-1.46-2.5-2.13-4.62-1.5-2.11,.63-3.47,2.33-3.03,3.78Z"/><path class="c" d="M151.19,324.88c.44,1.46,2.51,2.13,4.62,1.5,2.11-.63,3.47-2.33,3.03-3.79-.44-1.45-2.5-2.12-4.61-1.49-2.11,.63-3.47,2.33-3.03,3.79Z"/><path class="c" d="M142.05,323.77c-1.71,1.38-2.33,3.47-1.37,4.65,.96,1.18,3.12,1.02,4.84-.36,1.72-1.38,2.33-3.47,1.38-4.65-.96-1.18-3.13-1.02-4.84,.37Z"/></g><g class="d"><path class="c" d="M73.3,212.47c-2.19,0-4.27,.52-6.11,1.43-4.51,2.24-7.61,6.91-7.61,12.29,0,7.58,6.15,13.72,13.72,13.72,5.38,0,10.04-3.1,12.29-7.61,.92-1.84,1.44-3.92,1.44-6.11,0-7.58-6.15-13.72-13.72-13.72Z"/><path class="c" d="M73.3,212.47c-2.19,0-4.27,.52-6.11,1.43-.92,1.84-1.44,3.92-1.44,6.11,0,7.58,6.15,13.72,13.72,13.72,2.2,0,4.27-.52,6.11-1.44,.92-1.84,1.44-3.92,1.44-6.11,0-7.58-6.15-13.72-13.72-13.72Z"/><ellipse class="c" cx="80.17" cy="218.93" rx="1.26" ry="1.09"/></g><g class="d"><g><path class="c" d="M105.31,31.64c3.94-1.92,6.31-5.27,7.74-8.88l-15.95-3.84c-.09,.05-.19,.08-.29,.11l4.45,14.18c1.29-.37,2.64-.88,4.05-1.57Z"/><path class="c" d="M105.69,38.38c19.15-8.25,12.58-28.17,12.58-28.17,0,0-.76,.33-2.16,.96-.03,5.62-1.27,17.1-10.36,21.52-14.82,7.17-23.76-3.31-26.46-7.24-.7,.24-1.41,.49-2.13,.73,0,0,9.58,20.37,28.52,12.2Z"/><path class="c" d="M94.27,20.02c-4.27,1.61-8.96,3.33-13.96,5.07,1.26,1.8,3.69,4.69,7.28,6.69l6.68-11.76Z"/><path class="c" d="M100.27,33.47l-4.41-14.07h-.02l-7.31,12.87c3.13,1.53,7.05,2.3,11.74,1.19Z"/><path class="c" d="M115.09,11.61c-3.28,1.41-8.93,3.79-16.18,6.61l14.52,3.5c1.26-3.67,1.6-7.46,1.66-10.12Z"/><path class="c" d="M105.76,32.68c9.09-4.42,10.33-15.9,10.36-21.52-.22,.1-.46,.19-.7,.31-.11,.04-.21,.09-.32,.14-.06,2.65-.4,6.44-1.66,10.12l-14.52-3.5c-.59,.23-1.2,.46-1.82,.7l15.95,3.84c-1.43,3.61-3.8,6.97-7.74,8.88-1.41,.68-2.76,1.2-4.05,1.57l-4.45-14.18c-.31,.13-.63,.24-.95,.37l4.41,14.07c-4.69,1.11-8.61,.34-11.74-1.19l7.31-12.86c-.52,.2-1.04,.4-1.57,.61l-6.68,11.76c-3.58-2-6.01-4.89-7.28-6.69-.09,.03-.18,.07-.27,.1-.24,.08-.49,.17-.74,.25,2.7,3.93,11.63,14.41,26.46,7.24Z"/></g><path class="c" d="M108.69,18.2s2.31,1.05,2.21-.01c-.1-1.06-2.21,.01-2.21,.01Z"/><path class="c" d="M108.55,16.16s2.42,.61,2.16-.43c-.26-1.03-2.16,.43-2.16,.43Z"/><path class="c" d="M105.64,17.71s2.42,.61,2.16-.42-2.16,.42-2.16,.42Z"/><path class="c" d="M102.91,25.65s.32,2.68,1.13,2.13c.81-.55-1.13-2.13-1.13-2.13Z"/><path class="c" d="M104.64,23.94s1.34,2.32,1.84,1.43-1.84-1.43-1.84-1.43Z"/><path class="c" d="M101.77,22.42s.69,2.61,1.41,1.93-1.41-1.93-1.41-1.93Z"/><path class="c" d="M93.76,27.75s-1.73,1.8-.82,2.19c.91,.39,.82-2.19,.82-2.19Z"/><path class="c" d="M96.11,28.27s-.82,2.49,.14,2.42c.96-.07-.14-2.42-.14-2.42Z"/><path class="c" d="M95.37,24.91s-1.45,2.09-.5,2.32c.95,.23,.5-2.32,.5-2.32Z"/><path class="c" d="M87.32,24.37s-2.54,.02-2,.94c.53,.92,2-.94,2-.94Z"/><path class="c" d="M88.31,26.17s-2.45,.47-1.78,1.29c.67,.83,1.78-1.29,1.78-1.29Z"/><path class="c" d="M90.29,23.54s-2.45,.46-1.78,1.29,1.78-1.29,1.78-1.29Z"/></g><g class="d"><g><path class="c" d="M242.57,72.97c-4.29-.89-8.22,.31-11.55,2.3l10.27,12.79c.1,.02,.2,.05,.29,.09l5.15-13.94c-1.25-.5-2.63-.91-4.16-1.23Z"/><path class="c" d="M246.39,67.41c-20.2-5.18-27.18,14.6-27.18,14.6,0,0,.8,.2,2.29,.56,3.46-4.43,11.46-12.76,21.35-10.7,16.12,3.39,16.78,17.15,16.51,21.91,.7,.23,1.41,.47,2.13,.72,0,0,4.87-21.98-15.11-27.09Z"/><path class="c" d="M244.2,88.92c4.37,1.34,9.13,2.84,14.14,4.52,.1-2.2-.05-5.97-1.67-9.74l-12.48,5.22Z"/><path class="c" d="M247.67,74.61l-5.11,13.83h.02l13.65-5.71c-1.54-3.12-4.17-6.13-8.56-8.12Z"/><path class="c" d="M222.58,82.84c3.46,.89,9.38,2.46,16.84,4.66l-9.35-11.65c-3.24,2.14-5.83,4.93-7.5,6.99Z"/><path class="c" d="M242.85,71.87c-9.89-2.06-17.89,6.26-21.35,10.7,.23,.06,.48,.13,.74,.19,.11,.03,.22,.05,.34,.09,1.67-2.06,4.26-4.85,7.5-6.99l9.35,11.65c.61,.18,1.23,.37,1.87,.56l-10.27-12.79c3.34-1.99,7.27-3.19,11.55-2.3,1.53,.32,2.92,.74,4.16,1.23l-5.15,13.94c.33,.08,.65,.19,.98,.29l5.11-13.83c4.39,1.99,7.02,5,8.56,8.12l-13.65,5.71c.53,.16,1.07,.32,1.62,.48l12.48-5.22c1.61,3.77,1.77,7.54,1.67,9.74,.09,.03,.18,.06,.27,.09,.24,.08,.49,.16,.74,.25,.27-4.76-.39-18.52-16.51-21.91Z"/></g><path class="c" d="M231.67,81.55s-1.19-2.24-1.76-1.34c-.57,.9,1.76,1.34,1.76,1.34Z"/><path class="c" d="M230.54,83.25s-1.55-1.96-1.97-.98,1.97,.98,1.97,.98Z"/><path class="c" d="M233.79,83.79s-1.54-1.96-1.97-.98,1.97,.98,1.97,.98Z"/><path class="c" d="M240.8,79.18s1.39-2.32,.41-2.38-.41,2.38-.41,2.38Z"/><path class="c" d="M238.39,79.48s.36-2.66-.58-2.26,.58,2.26,.58,2.26Z"/><path class="c" d="M239.74,82.44s1.05-2.49,.07-2.39-.07,2.39-.07,2.39Z"/><path class="c" d="M249.32,83.12s2.48-.37,1.99-1.23c-.48-.87-1.99,1.23-1.99,1.23Z"/><path class="c" d="M247.79,81.27s2.17-1.47,1.37-2-1.37,2-1.37,2Z"/><path class="c" d="M246.32,84.38s2.42-.77,1.81-1.53c-.61-.77-1.81,1.53-1.81,1.53Z"/><path class="c" d="M252.36,89.72s2.02,1.54,2.16,.48c.14-1.06-2.16-.48-2.16-.48Z"/><path class="c" d="M252.67,87.7s2.23,1.13,2.2,.07-2.2-.07-2.2-.07Z"/><path class="c" d="M249.5,88.57s2.22,1.13,2.2,.07-2.2-.07-2.2-.07Z"/></g><g class="d"><path class="c" d="M195.18,268.12c-.28-3.9-5.4-6.8-11.49-6.49-6.15,.31-10.97,3.77-10.77,7.72l.18,1.07c.18,.63,.49,1.23,.92,1.78,.73-1.2,1.93-2.26,3.46-3.07,1.8-.97,4.05-1.59,6.51-1.72s4.76,.27,6.65,1.05c.84,.35,1.6,.76,2.25,1.25,.59,.44,1.1,.92,1.51,1.46,.22-.37,.4-.74,.53-1.12,.21-.59,.3-1.2,.27-1.82,0-.03,0-.06,0-.1Z"/><path class="c" d="M192.88,269.7c-.66-.48-1.41-.9-2.25-1.25-1.89-.78-4.19-1.17-6.65-1.05s-4.71,.75-6.51,1.72c-1.53,.82-2.73,1.88-3.46,3.07,1.86,2.43,5.85,3.98,10.4,3.75,.12,0,.24-.01,.36-.02,.18-.01,.35-.03,.52-.05,.12-.01,.25-.02,.37-.04,.38-.05,.75-.1,1.12-.18,.12-.02,.25-.05,.37-.07,.14-.03,.27-.06,.4-.09,.1-.03,.19-.05,.28-.07,.22-.05,.43-.11,.63-.18,.09-.03,.19-.06,.29-.09,.02,0,.05-.02,.07-.03,.11-.04,.21-.07,.32-.11,.12-.04,.24-.09,.36-.13,.35-.13,.69-.28,1.01-.44,.21-.11,.43-.22,.63-.33l.15-.09c.08-.05,.17-.1,.25-.15,.26-.16,.51-.33,.74-.5,.09-.06,.18-.13,.27-.19l.25-.21c.08-.06,.16-.14,.24-.21,.07-.07,.15-.14,.23-.21,.06-.05,.11-.1,.16-.16,.38-.39,.7-.8,.96-1.23-.41-.54-.92-1.02-1.51-1.46Z"/><path class="c" d="M184.42,275.95c-4.55,.23-8.55-1.33-10.4-3.75-.43-.55-.74-1.15-.92-1.78l.46,2.7,.83,4.94,2.5,14.83c.15,2.98,4.03,5.2,8.66,4.96,.12,0,.24-.01,.36-.03l-1.12-21.91c-.12,.01-.24,.02-.36,.02Z"/><line class="c" x1="186.08" y1="254.07" x2="183.79" y2="271.73"/><path class="c" d="M194.39,271.16c-.26,.43-.58,.84-.96,1.23-.05,.05-.1,.1-.16,.16-.07,.07-.15,.15-.23,.21-.08,.07-.16,.15-.24,.21l-.25,.21c-.09,.07-.17,.13-.27,.19-.23,.18-.48,.34-.74,.5-.08,.05-.17,.1-.25,.15l-.15,.09c-.2,.11-.41,.22-.63,.33-.32,.16-.66,.31-1.01,.44-.12,.05-.23,.09-.36,.13-.11,.04-.21,.08-.32,.11-.02,0-.05,.02-.07,.03-.1,.03-.2,.06-.29,.09-.2,.07-.42,.13-.63,.18-.09,.03-.18,.05-.28,.07-.13,.03-.26,.06-.4,.09-.12,.03-.25,.05-.37,.07-.36,.07-.74,.13-1.12,.18-.12,.02-.25,.03-.37,.04-.17,.02-.35,.04-.52,.05l1.12,21.91c3.68-.28,6.66-2.07,7.51-4.31,.18-.48,.27-.97,.24-1.48l.23-3.55h0l1.05-18.46c-.13,.38-.31,.75-.53,1.12Z"/></g></svg>