<?xml version="1.0" encoding="UTF-8"?>
<svg xmlns="http://www.w3.org/2000/svg" xmlns:xlink="http://www.w3.org/1999/xlink" viewBox="0 0 964 976.64">
  <defs>
    <style>
      .cls-1, .cls-2, .cls-3, .cls-4, .cls-5 {
        fill: #fff;
      }

      .cls-6 {
        fill: #ffeea9;
      }

      .cls-7 {
        fill: #f29316;
      }

      .cls-8, .cls-9, .cls-10 {
        fill: #ffd31a;
      }

      .cls-11, .cls-12 {
        fill: #ffe600;
      }

      .cls-13 {
        isolation: isolate;
      }

      .cls-2, .cls-12 {
        opacity: .82;
      }

      .cls-2, .cls-12, .cls-3, .cls-14, .cls-4, .cls-5 {
        mix-blend-mode: overlay;
      }

      .cls-9 {
        opacity: .85;
      }

      .cls-9, .cls-10 {
        mix-blend-mode: multiply;
      }

      .cls-15 {
        fill: #ffbd1a;
      }

      .cls-3 {
        opacity: .4;
      }

      .cls-14 {
        fill: #d3aeff;
        opacity: .36;
      }

      .cls-16 {
        clip-path: url(#clippath);
      }

      .cls-17 {
        fill: none;
      }

      .cls-18 {
        fill: #a140ff;
      }

      .cls-4 {
        opacity: .65;
      }

      .cls-10 {
        opacity: .42;
      }

      .cls-5 {
        opacity: .94;
      }
    </style>
    <clipPath id="clippath">
      <rect class="cls-17" y=".68" width="964" height="945.27" rx="129.84" ry="129.84"/>
    </clipPath>
  </defs>
  <g class="cls-13">
    <g id="Layer_2" data-name="Layer 2">
      <g id="Layer_21" data-name="Layer 21">
        <path class="cls-18" d="M964,129.84V866.77c0,41.99-23.87,78.67-58.71,97.14-3.41,1.82-6.93,3.45-10.54,4.9-2.79,1.12-5.64,2.13-8.54,3.02-.04,.02-.08,.03-.12,.03-6.32,1.95-12.89,3.33-19.63,4.08-4.05,.46-8.16,.7-12.33,.7H109.87c-4.23,0-8.4-.24-12.5-.72-6.94-.79-13.69-2.24-20.18-4.27,0,0-.01,0-.02,0-2.9-.91-5.75-1.94-8.54-3.09-3.41-1.38-6.74-2.94-9.97-4.66C23.85,945.4,0,908.74,0,866.77V129.84C0,58.43,58.43,0,129.84,0H834.16c65.69,0,120.39,49.44,128.73,112.94,.73,5.54,1.11,11.18,1.11,16.9Z"/>
      </g>
      <g id="Layer_12" data-name="Layer 12">
        <g>
          <circle class="cls-14" cx="482" cy="488.32" r="397"/>
          <circle class="cls-14" cx="482" cy="488.32" r="358"/>
        </g>
      </g>
      <g id="_2" data-name="2">
        <g id="Layer_9_copy_2" data-name="Layer 9 copy 2">
          <g class="cls-16">
            <g>
              <g>
                <g>
                  <g>
                    <path class="cls-8" d="M780.4-42.68l-90.55,65.81c-3.27,2.38-7.49,2.56-10.88,.84-1.42-.71-2.69-1.78-3.69-3.15l-5.82-8.01c-6.95-9.57-7.26-7.61,2.31-14.57l90.55-65.81c8.44-6.13,7.61-7.26,14.57,2.31l5.82,8.01c3.37,4.64,2.33,11.2-2.3,14.57Z"/>
                    <path class="cls-10" d="M695.88,18.74l-6.04,4.39c-4.64,3.37-11.2,2.33-14.57-2.31l-5.82-8.01c-6.95-9.57-7.26-7.61,2.31-14.57l90.55-65.81c8.44-6.13,7.61-7.26,14.57,2.31l5.33,7.34c-2.48-1.15-5.46-1.47-8.18-.96-4.76,.89-8.9,3.74-12.87,6.52-19.16,13.41-38.32,26.83-57.49,40.24-6.4,4.48-13.39,9.9-14.26,17.66-.56,5.14,2.19,10.36,6.47,13.2Z"/>
                    <path class="cls-5" d="M780.4-42.68l-90.55,65.81c-3.27,2.38-7.49,2.56-10.88,.84,8.47-3.25,15.89-8.81,23.14-14.29,19.24-14.52,38.49-29.05,57.73-43.56,1.67-1.27,3.44-2.66,4.01-4.68,.44-1.53,.1-3.19,.3-4.78,.42-3.59,3.42-6.27,6.47-8.22,3.03-1.96,6.42-3.63,8.52-6.57,.51-.72,.9-1.57,1.16-2.45l2.42,3.34c3.37,4.64,2.33,11.2-2.3,14.57Z"/>
                  </g>
                  <g>
                    <path class="cls-8" d="M663.93,41.97l-90.55,65.81c-3.27,2.38-7.49,2.56-10.88,.84-1.42-.71-2.69-1.78-3.69-3.15l-5.82-8.01c-6.95-9.57-7.26-7.61,2.31-14.57l90.55-65.81c8.44-6.13,7.61-7.26,14.57,2.31l5.82,8.01c3.37,4.64,2.33,11.2-2.3,14.57Z"/>
                    <path class="cls-10" d="M579.41,103.39l-6.04,4.39c-4.64,3.37-11.2,2.33-14.57-2.31l-5.82-8.01c-6.95-9.57-7.26-7.61,2.31-14.57l90.55-65.81c8.44-6.13,7.61-7.26,14.57,2.31l5.33,7.34c-2.48-1.15-5.46-1.47-8.18-.96-4.76,.89-8.9,3.74-12.87,6.52-19.16,13.41-38.32,26.83-57.49,40.24-6.4,4.48-13.39,9.9-14.26,17.66-.56,5.14,2.19,10.36,6.47,13.2Z"/>
                    <path class="cls-5" d="M663.93,41.97l-90.55,65.81c-3.27,2.38-7.49,2.56-10.88,.84,8.47-3.25,15.89-8.81,23.14-14.29,19.24-14.52,38.49-29.05,57.73-43.56,1.67-1.27,3.44-2.66,4.01-4.68,.44-1.53,.1-3.19,.3-4.78,.42-3.59,3.42-6.27,6.47-8.22,3.03-1.96,6.42-3.63,8.52-6.57,.51-.72,.9-1.57,1.16-2.45l2.42,3.34c3.37,4.64,2.33,11.2-2.3,14.57Z"/>
                  </g>
                  <g>
                    <path class="cls-8" d="M536.39,56.89c-9.57,6.95-7.61,7.26-14.57-2.31l-5.82-8.01c-3.37-4.64-2.33-11.2,2.31-14.57l90.55-65.81c4.64-3.37,11.2-2.33,14.57,2.31l5.82,8.01c6.95,9.57,6.13,8.44-2.3,14.57l-90.55,65.81Z"/>
                    <path class="cls-10" d="M536.39,56.89c-9.57,6.95-7.61,7.26-14.57-2.31l-5.82-8.01c-3.37-4.64-2.33-11.2,2.31-14.57l10.62-7.72c-.4,2.61-.22,5.28,.64,7.78,1.39,4.03,4.47,6.22,9.39,5.67,2.56-.29,5.56-2.22,7.61-3.8,24.97-19.19,51.92-36.7,76.89-55.88,1.65-1.27,2.61-2.88,4.19-3.74l1.59,2.19c6.95,9.57,6.13,8.44-2.3,14.57l-90.55,65.81Z"/>
                  </g>
                  <g>
                    <path class="cls-8" d="M688.22-13.71l-75.79,55.08c-4.34,3.16-10.49,2.18-13.65-2.16l-7.41-10.2c-3.16-4.34-2.18-10.49,2.16-13.65l75.79-55.08c3.31-2.41,7.69-2.41,10.97-.34,.88,.54,1.68,1.25,2.36,2.1,.12,.12,.22,.25,.32,.39l7.41,10.2c.76,1.04,1.27,2.17,1.56,3.36,.12,.47,.2,.94,.24,1.43,.32,3.34-1.07,6.76-3.96,8.86Z"/>
                    <path class="cls-9" d="M688.22-13.71l-75.79,55.08c-4.34,3.16-10.49,2.18-13.65-2.16l-7.41-10.2c-3.16-4.34-2.18-10.49,2.16-13.65l75.79-55.08c3.31-2.41,7.69-2.41,10.97-.34-2.63-.03-6.93,.85-12.73,5.07l-56.54,41.09c-9.05,6.57,7.7,27.24,15.61,21.49l57.67-41.91c3.9-2.84,6.37-5.89,7.88-8.25,.32,3.34-1.07,6.76-3.96,8.86Z"/>
                    <path class="cls-4" d="M689.62-21.34c-3.72,2.82-8.84,2.65-13.23,4.19-3.03,1.06-5.7,2.93-8.33,4.78-13.16,9.24-26.32,18.49-39.48,27.74-2.72,1.91-5.6,3.88-8.9,4.23-.85,.1-1.77,.06-2.46-.44-1.93-1.37-.54-4.4,1.06-6.13,4.16-4.53,8.98-8.41,13.8-12.21,9.44-7.43,19.04-14.67,28.79-21.71,3.37-2.45,6.8-4.89,9.58-8,2.43-2.72,4.41-5.97,7.52-7.87,1.37-.82,3.08-1.25,4.69-1.18,.12,.12,.22,.25,.32,.39l7.41,10.2c.76,1.04,1.27,2.17,1.56,3.36-.59,1.02-1.38,1.93-2.32,2.65Z"/>
                  </g>
                  <g>
                    <path class="cls-8" d="M578.53,66.01l-75.79,55.08c-4.34,3.16-10.49,2.18-13.65-2.16l-7.41-10.2c-3.16-4.34-2.18-10.49,2.16-13.65l75.79-55.08c3.31-2.41,7.69-2.41,10.97-.34,.88,.54,1.68,1.25,2.36,2.1,.12,.12,.22,.25,.32,.39l7.41,10.2c.76,1.04,1.27,2.17,1.56,3.36,.12,.47,.2,.94,.24,1.43,.32,3.34-1.07,6.76-3.96,8.86Z"/>
                    <path class="cls-9" d="M578.53,66.01l-75.79,55.08c-4.34,3.16-10.49,2.18-13.65-2.16l-7.41-10.2c-3.16-4.34-2.18-10.49,2.16-13.65l75.79-55.08c3.31-2.41,7.69-2.41,10.97-.34-2.63-.03-6.93,.85-12.73,5.07l-56.54,41.09c-9.05,6.57,7.7,27.24,15.61,21.49l57.67-41.91c3.9-2.84,6.37-5.89,7.88-8.25,.32,3.34-1.07,6.76-3.96,8.86Z"/>
                    <path class="cls-4" d="M579.93,58.38c-3.72,2.82-8.84,2.65-13.23,4.19-3.03,1.06-5.7,2.93-8.33,4.78-13.16,9.24-26.32,18.49-39.48,27.74-2.72,1.91-5.6,3.88-8.9,4.23-.85,.1-1.77,.06-2.46-.44-1.93-1.37-.54-4.4,1.06-6.13,4.16-4.53,8.98-8.41,13.8-12.21,9.44-7.43,19.04-14.67,28.79-21.71,3.37-2.45,6.8-4.89,9.58-8,2.43-2.72,4.41-5.97,7.52-7.87,1.37-.82,3.08-1.25,4.69-1.18,.12,.12,.22,.25,.32,.39l7.41,10.2c.76,1.04,1.27,2.17,1.56,3.36-.59,1.02-1.38,1.93-2.32,2.65Z"/>
                  </g>
                </g>
                <g>
                  <g>
                    <path class="cls-8" d="M183.6-42.68L274.16,23.13c3.27,2.38,7.49,2.56,10.88,.84,1.42-.71,2.69-1.78,3.69-3.15l5.82-8.01c6.95-9.57,7.26-7.61-2.31-14.57l-90.55-65.81c-8.44-6.13-7.61-7.26-14.57,2.31l-5.82,8.01c-3.37,4.64-2.33,11.2,2.3,14.57Z"/>
                    <path class="cls-10" d="M268.12,18.74l6.04,4.39c4.64,3.37,11.2,2.33,14.57-2.31l5.82-8.01c6.95-9.57,7.26-7.61-2.31-14.57l-90.55-65.81c-8.44-6.13-7.61-7.26-14.57,2.31l-5.33,7.34c2.48-1.15,5.46-1.47,8.18-.96,4.76,.89,8.9,3.74,12.87,6.52,19.16,13.41,38.32,26.83,57.49,40.24,6.4,4.48,13.39,9.9,14.26,17.66,.56,5.14-2.19,10.36-6.47,13.2Z"/>
                    <path class="cls-5" d="M183.6-42.68L274.16,23.13c3.27,2.38,7.49,2.56,10.88,.84-8.47-3.25-15.89-8.81-23.14-14.29-19.24-14.52-38.49-29.05-57.73-43.56-1.67-1.27-3.44-2.66-4.01-4.68-.44-1.53-.1-3.19-.3-4.78-.42-3.59-3.42-6.27-6.47-8.22-3.03-1.96-6.42-3.63-8.52-6.57-.51-.72-.9-1.57-1.16-2.45l-2.42,3.34c-3.37,4.64-2.33,11.2,2.3,14.57Z"/>
                  </g>
                  <g>
                    <path class="cls-8" d="M300.07,41.97l90.55,65.81c3.27,2.38,7.49,2.56,10.88,.84,1.42-.71,2.69-1.78,3.69-3.15l5.82-8.01c6.95-9.57,7.26-7.61-2.31-14.57L318.15,17.09c-8.44-6.13-7.61-7.26-14.57,2.31l-5.82,8.01c-3.37,4.64-2.33,11.2,2.3,14.57Z"/>
                    <path class="cls-10" d="M384.59,103.39l6.04,4.39c4.64,3.37,11.2,2.33,14.57-2.31l5.82-8.01c6.95-9.57,7.26-7.61-2.31-14.57L318.15,17.09c-8.44-6.13-7.61-7.26-14.57,2.31l-5.33,7.34c2.48-1.15,5.46-1.47,8.18-.96,4.76,.89,8.9,3.74,12.87,6.52,19.16,13.41,38.32,26.83,57.49,40.24,6.4,4.48,13.39,9.9,14.26,17.66,.56,5.14-2.19,10.36-6.47,13.2Z"/>
                    <path class="cls-5" d="M300.07,41.97l90.55,65.81c3.27,2.38,7.49,2.56,10.88,.84-8.47-3.25-15.89-8.81-23.14-14.29-19.24-14.52-38.49-29.05-57.73-43.56-1.67-1.27-3.44-2.66-4.01-4.68-.44-1.53-.1-3.19-.3-4.78-.42-3.59-3.42-6.27-6.47-8.22-3.03-1.96-6.42-3.63-8.52-6.57-.51-.72-.9-1.57-1.16-2.45l-2.42,3.34c-3.37,4.64-2.33,11.2,2.3,14.57Z"/>
                  </g>
                  <g>
                    <path class="cls-8" d="M427.61,56.89c9.57,6.95,7.61,7.26,14.57-2.31l5.82-8.01c3.37-4.64,2.33-11.2-2.31-14.57l-90.55-65.81c-4.64-3.37-11.2-2.33-14.57,2.31l-5.82,8.01c-6.95,9.57-6.13,8.44,2.3,14.57l90.55,65.81Z"/>
                    <path class="cls-10" d="M427.61,56.89c9.57,6.95,7.61,7.26,14.57-2.31l5.82-8.01c3.37-4.64,2.33-11.2-2.31-14.57l-10.62-7.72c.4,2.61,.22,5.28-.64,7.78-1.39,4.03-4.47,6.22-9.39,5.67-2.56-.29-5.56-2.22-7.61-3.8-24.97-19.19-51.92-36.7-76.89-55.88-1.65-1.27-2.61-2.88-4.19-3.74l-1.59,2.19c-6.95,9.57-6.13,8.44,2.3,14.57l90.55,65.81Z"/>
                  </g>
                  <g>
                    <path class="cls-8" d="M275.78-13.71l75.79,55.08c4.34,3.16,10.49,2.18,13.65-2.16l7.41-10.2c3.16-4.34,2.18-10.49-2.16-13.65l-75.79-55.08c-3.31-2.41-7.69-2.41-10.97-.34-.88,.54-1.68,1.25-2.36,2.1-.12,.12-.22,.25-.32,.39l-7.41,10.2c-.76,1.04-1.27,2.17-1.56,3.36-.12,.47-.2,.94-.24,1.43-.32,3.34,1.07,6.76,3.96,8.86Z"/>
                    <path class="cls-9" d="M275.78-13.71l75.79,55.08c4.34,3.16,10.49,2.18,13.65-2.16l7.41-10.2c3.16-4.34,2.18-10.49-2.16-13.65l-75.79-55.08c-3.31-2.41-7.69-2.41-10.97-.34,2.63-.03,6.93,.85,12.73,5.07L352.98,6.11c9.05,6.57-7.7,27.24-15.61,21.49l-57.67-41.91c-3.9-2.84-6.37-5.89-7.88-8.25-.32,3.34,1.07,6.76,3.96,8.86Z"/>
                    <path class="cls-4" d="M274.38-21.34c3.72,2.82,8.84,2.65,13.23,4.19,3.03,1.06,5.7,2.93,8.33,4.78,13.16,9.24,26.32,18.49,39.48,27.74,2.72,1.91,5.6,3.88,8.9,4.23,.85,.1,1.77,.06,2.46-.44,1.93-1.37,.54-4.4-1.06-6.13-4.16-4.53-8.98-8.41-13.8-12.21-9.44-7.43-19.04-14.67-28.79-21.71-3.37-2.45-6.8-4.89-9.58-8-2.43-2.72-4.41-5.97-7.52-7.87-1.37-.82-3.08-1.25-4.69-1.18-.12,.12-.22,.25-.32,.39l-7.41,10.2c-.76,1.04-1.27,2.17-1.56,3.36,.59,1.02,1.38,1.93,2.32,2.65Z"/>
                  </g>
                  <g>
                    <path class="cls-8" d="M385.47,66.01l75.79,55.08c4.34,3.16,10.49,2.18,13.65-2.16l7.41-10.2c3.16-4.34,2.18-10.49-2.16-13.65l-75.79-55.08c-3.31-2.41-7.69-2.41-10.97-.34-.88,.54-1.68,1.25-2.36,2.1-.12,.12-.22,.25-.32,.39l-7.41,10.2c-.76,1.04-1.27,2.17-1.56,3.36-.12,.47-.2,.94-.24,1.43-.32,3.34,1.07,6.76,3.96,8.86Z"/>
                    <path class="cls-9" d="M385.47,66.01l75.79,55.08c4.34,3.16,10.49,2.18,13.65-2.16l7.41-10.2c3.16-4.34,2.18-10.49-2.16-13.65l-75.79-55.08c-3.31-2.41-7.69-2.41-10.97-.34,2.63-.03,6.93,.85,12.73,5.07l56.54,41.09c9.05,6.57-7.7,27.24-15.61,21.49l-57.67-41.91c-3.9-2.84-6.37-5.89-7.88-8.25-.32,3.34,1.07,6.76,3.96,8.86Z"/>
                    <path class="cls-4" d="M384.07,58.38c3.72,2.82,8.84,2.65,13.23,4.19,3.03,1.06,5.7,2.93,8.33,4.78,13.16,9.24,26.32,18.49,39.48,27.74,2.72,1.91,5.6,3.88,8.9,4.23,.85,.1,1.77,.06,2.46-.44,1.93-1.37,.54-4.4-1.06-6.13-4.16-4.53-8.98-8.41-13.8-12.21-9.44-7.43-19.04-14.67-28.79-21.71-3.37-2.45-6.8-4.89-9.58-8-2.43-2.72-4.41-5.97-7.52-7.87-1.37-.82-3.08-1.25-4.69-1.18-.12,.12-.22,.25-.32,.39l-7.41,10.2c-.76,1.04-1.27,2.17-1.56,3.36,.59,1.02,1.38,1.93,2.32,2.65Z"/>
                  </g>
                </g>
              </g>
              <path class="cls-8" d="M540.67,156.21c-3.3-11.87-10.12-22.28-19.26-30.06-10.62-9.04-24.39-14.51-39.41-14.51-17.22,0-32.81,7.19-43.88,18.73-6.89,7.15-12.03,15.99-14.78,25.8-.45,1.64-.85,3.29-1.16,4.97-.03,.11-.05,.22-.06,.33-.66,3.58-1.01,7.28-1.01,11.06,0,33.57,27.32,60.89,60.89,60.89s60.89-27.32,60.89-60.89c0-5.65-.77-11.12-2.23-16.32Zm-58.67,59.04c-23.56,0-42.72-19.16-42.72-42.72,0-.57,0-1.15,.04-1.72,.9-22.77,19.69-41,42.68-41,21.61,0,39.52,16.12,42.32,36.97,.26,1.88,.39,3.8,.39,5.74,0,23.56-19.16,42.72-42.72,42.72Z"/>
              <path class="cls-10" d="M537.22,164.41c-4.28,.87-8.58,1.66-12.9,2.37-2.81-20.85-20.71-36.97-42.32-36.97-22.98,0-41.78,18.23-42.68,41-4.34-.29-8.67-.67-13-1.13l-4.21-8.22-.16-.32c.07,0,.15,0,.23,0,5.25-.21,9.72-4.1,12.71-8.45,3.03-4.43,5.03-9.5,8.22-13.8,4.99-6.72,12.56-11.08,20.38-14.05,10.76-4.08,22.6-5.86,33.87-3.54,11.28,2.32,21.88,9.02,27.55,19.04,4.47,7.89,5.93,17.64,12.32,24.08Z"/>
              <path class="cls-3" d="M540.67,156.21c-.79-.32-1.31-1.3-1.67-2.15-2.64-6.18-6.47-11.84-11.22-16.58-1.74-1.73-3.63-3.35-4.94-5.43-1.11-1.74-1.77-3.9-1.42-5.9,9.13,7.77,15.96,18.19,19.26,30.06Z"/>
              <path class="cls-3" d="M438.73,134.75c-.47,2.58-2.04,4.81-3.43,7.04-1.54,2.48-2.9,5.06-4.07,7.73-.83,1.9-1.6,3.89-3.09,5.32-1.26,1.2-3.21,1.86-4.8,1.33,2.74-9.82,7.89-18.65,14.78-25.8,.67,1.3,.87,2.92,.61,4.38Z"/>
              <path class="cls-8" d="M521.37,84.63c-.11,.62-.25,1.25-.39,1.87l-7.23,30.59-4.58,19.4c-.46,1.95-1.35,3.75-2.53,5.32-2.81,3.75-7.33,6.17-11.84,6.17h-25.61c-4.25,0-8.51-2.14-11.33-5.53-.11-.12-.21-.25-.31-.37-1.28-1.64-2.24-3.53-2.73-5.59l-11.81-50c-.22-.91-.4-1.83-.55-2.73-1.1-6.66-.44-13.09,1.66-18.14,2.56-6.21,7.3-10.35,13.6-10.35h48.53c5.45,0,9.72,3.1,12.44,7.95,3.1,5.53,4.17,13.32,2.66,21.39Z"/>
              <path class="cls-3" d="M520.98,86.51l-7.23,30.59c1.26-9.03,2.15-18.1,2.25-27.21,.04-3.13-.05-6.35-1.34-9.2-2.87-6.28-10.55-8.59-17.4-9.46-12.43-1.58-25.17-.71-37.28,2.54-2.08,.56-4.22,1.23-5.89,2.59-3.79,3.09-4.16,8.66-4.05,13.55,.39,17.61,2.91,35.17,7.5,52.18-1.28-1.64-2.24-3.53-2.73-5.59l-11.81-50c-3.74-15.82,2.57-31.22,14.71-31.22h48.53c12.14,0,18.45,15.4,14.71,31.22Z"/>
              <path class="cls-10" d="M507.18,126.77c-.18,5.02-.35,10.03-.54,15.05-2.81,3.75-7.33,6.17-11.84,6.17h-25.61c-4.25,0-8.51-2.14-11.33-5.53,1.58-2.62,.68-6.43-.09-9.62-1.1-4.49-1.59-9.13-1.45-13.76,.05-1.5,.19-3.1,1.1-4.3,.83-1.08,2.14-1.64,3.41-2.14,10.25-3.92,21.48-5.25,32.36-3.87,4.18,.54,8.64,1.66,11.31,4.93,2.87,3.53,2.85,8.52,2.69,13.06Z"/>
              <path class="cls-5" d="M521.37,84.63c-1-1.35-2.25-2.54-3.65-3.45-4.15-2.72-9.26-3.48-14.2-3.96-16.02-1.56-32.16-.8-48.23-.04-3.41,.16-7.08,.43-9.68,2.64-1.26,1.07-2.18,2.54-3.14,3.95-1.1-6.66-.44-13.09,1.66-18.14,.38,.73,.95,1.34,1.74,1.77,1.5,.83,3.33,.63,5.03,.44,16.83-1.96,33.85-2.23,50.74-.78,3.86,.34,7.84,.75,11.57-.35,2.08-.62,4.07-1.84,5.49-3.47,3.1,5.53,4.17,13.32,2.66,21.39Z"/>
              <path class="cls-6" d="M811,483.35c0,13.45-.81,26.72-2.38,39.74-2.1,17.45-5.56,34.48-10.29,50.98-39.38,137.59-166.1,238.28-316.33,238.28-61.66,0-119.36-16.97-168.68-46.48-18.45-11.04-35.73-23.84-51.6-38.15-29.56-26.67-54.27-58.62-72.61-94.37-8.19-15.95-15.1-32.66-20.63-50-5.09-15.95-8.99-32.42-11.6-49.32-2.3-14.88-3.61-30.09-3.84-45.56-.04-1.7-.05-3.4-.05-5.11,0-51.08,11.64-99.44,32.42-142.57,53.11-110.31,165.95-186.43,296.58-186.43,43.69,0,85.39,8.52,123.53,23.98,53.07,21.5,99.25,56.47,134.3,100.64,6.59,8.29,12.78,16.9,18.54,25.82,6.57,10.13,12.59,20.65,18.02,31.52,8.06,16.11,14.84,32.98,20.2,50.47,9.37,30.54,14.41,62.96,14.41,96.56Z"/>
              <circle class="cls-8" cx="482" cy="483.35" r="317.19"/>
              <path class="cls-2" d="M739.83,278.98L159.36,494.26l-6.32-5.8c-.04-1.7-.05-3.4-.05-5.11,0-51.08,11.64-99.44,32.42-142.57,53.11-110.31,165.95-186.43,296.58-186.43,43.69,0,85.39,8.52,123.53,23.98,53.07,21.5,99.25,56.47,134.3,100.64Z"/>
              <path class="cls-2" d="M796.59,386.79L192.11,632.42c-1.02,.32-2.02,.63-3,.93-8.19-15.95-15.1-32.66-20.63-50-5.09-15.95-8.99-32.42-11.6-49.32l601.49-229.22c6.57,10.13,12.59,20.65,18.02,31.52,8.06,16.11,14.84,32.98,20.2,50.47Z"/>
              <path class="cls-2" d="M808.62,523.1c-2.1,17.45-5.56,34.48-10.29,50.98l-485.01,191.8c-18.45-11.04-35.73-23.84-51.6-38.15l546.9-204.63Z"/>
              <circle class="cls-7" cx="482" cy="483.35" r="262.65"/>
              <circle class="cls-15" cx="482" cy="488.35" r="257.66"/>
            </g>
          </g>
          <g>
            <path class="cls-11" d="M493,296.32c0,27.06-11,49-11,49,0,0-11-21.94-11-49s11-49,11-49c0,0,11,21.94,11,49Z"/>
            <g>
              <path class="cls-12" d="M435,340.32c19.68,0,35.64,8,35.64,8,0,0-15.95,8-35.64,8s-35.64-8-35.64-8c0,0,15.95-8,35.64-8Z"/>
              <path class="cls-12" d="M529,340.32c-19.68,0-35.64,8-35.64,8,0,0,15.95,8,35.64,8,19.68,0,35.64-8,35.64-8,0,0-15.95-8-35.64-8Z"/>
            </g>
            <g>
              <path class="cls-11" d="M459.04,308.48c11.91,17.31,14.52,36.18,14.52,36.18,0,0-16.69-9.19-28.59-26.5-11.91-17.31-14.52-36.18-14.52-36.18,0,0,16.69,9.19,28.59,26.5Z"/>
              <path class="cls-11" d="M504.96,308.48c-11.91,17.31-14.52,36.18-14.52,36.18,0,0,16.69-9.19,28.59-26.5,11.91-17.31,14.52-36.18,14.52-36.18,0,0-16.69,9.19-28.59,26.5Z"/>
            </g>
          </g>
          <g>
            <path class="cls-11" d="M493,661.32c0-27.06-11-49-11-49,0,0-11,21.94-11,49s11,49,11,49c0,0,11-21.94,11-49Z"/>
            <g>
              <path class="cls-12" d="M435,617.32c19.68,0,35.64-8,35.64-8,0,0-15.95-8-35.64-8s-35.64,8-35.64,8c0,0,15.95,8,35.64,8Z"/>
              <path class="cls-12" d="M529,617.32c-19.68,0-35.64-8-35.64-8,0,0,15.95-8,35.64-8s35.64,8,35.64,8c0,0-15.95,8-35.64,8Z"/>
            </g>
            <g>
              <path class="cls-11" d="M459.04,649.16c11.91-17.31,14.52-36.18,14.52-36.18,0,0-16.69,9.19-28.59,26.5-11.91,17.31-14.52,36.18-14.52,36.18,0,0,16.69-9.19,28.59-26.5Z"/>
              <path class="cls-11" d="M504.96,649.16c-11.91-17.31-14.52-36.18-14.52-36.18,0,0,16.69,9.19,28.59,26.5,11.91,17.31,14.52,36.18,14.52,36.18,0,0-16.69-9.19-28.59-26.5Z"/>
            </g>
          </g>
        </g>
        <g id="Layer_11" data-name="Layer 11">
          <path class="cls-1" d="M97,304.32s-12,34-41,53c33,19,41,48,41,48,0,0,12-31,37-48,0,0-25-19-37-53Z"/>
          <path class="cls-1" d="M781.67,127.32s-16.04,45.45-54.8,70.84c44.11,25.4,54.8,64.16,54.8,64.16,0,0,16.04-41.44,49.46-64.16,0,0-33.42-25.4-49.46-70.84Z"/>
          <path class="cls-1" d="M750.13,584.33s-6.77,19.18-23.13,29.9c18.62,10.72,23.13,27.08,23.13,27.08,0,0,6.77-17.49,20.87-27.08,0,0-14.1-10.72-20.87-29.9Z"/>
          <path class="cls-1" d="M216.17,730.32s-7.01,19.86-23.95,30.96c19.28,11.1,23.95,28.04,23.95,28.04,0,0,7.01-18.11,21.61-28.04,0,0-14.6-11.1-21.61-30.96Z"/>
        </g>
        <g id="Layer_10" data-name="Layer 10">
          <g>
            <g>
              <path class="cls-7" d="M371.01,389.87c-54.87,0-97.24,37.71-104.37,86.8l-.39-.35-.67,14.4c0,.22,0,.45,0,.67v.56c0,56.06,44.63,100.97,104.87,100.97s105.43-45.46,105.43-101.53v-.56c0-56.06-44.63-100.97-104.87-100.97Zm49.65,102.08c0,28.17-19.8,52.16-49.65,52.16s-49.93-24.54-49.93-52.71v-.56c0-28.17,19.8-52.16,49.37-52.16s50.2,24.54,50.2,52.72v.56Z"/>
              <path class="cls-7" d="M598.61,474.94v39.61h38.49v23.71c-8.09,5.3-18.13,8.09-31.24,8.09-30.96,0-52.99-22.59-52.99-54.11v-.56c0-29.84,21.76-53.55,49.93-53.55,19.25,0,33.19,6.69,47.14,18.41l31.8-38.21c-.16-.14-.31-.27-.47-.4v-14.6l-16.52,2.58c-16.98-10.24-36.85-16.03-62.22-16.03-60.52,0-105.15,44.63-105.15,101.53v.56c0,59.13,45.46,100.97,106.27,100.97,35.42,0,64.15-13.11,84.79-30.12v-87.86h-89.81Z"/>
            </g>
            <g>
              <path class="cls-11" d="M458.51,419.15c-6.69-9.75-15.12-18.27-24.96-25.15-17.17-12.05-38.63-19.13-62.54-19.13-53.36,0-94.9,35.65-103.7,82.75-1.14,6.08-1.73,12.36-1.73,18.77v.56c0,5.77,.47,11.43,1.39,16.92,6.11,36.76,31.94,66.58,68.04,78.47,10.96,3.62,22.86,5.58,35.44,5.58,43.55,0,79.24-23.77,95.66-58.13,6.3-13.16,9.77-27.87,9.77-43.4v-.56c0-21.07-6.3-40.56-17.37-56.68Zm-137.43,57.24v-.56c0-1.04,.03-2.07,.09-3.1,1.38-26.81,20.8-49.05,49.28-49.05,14.87,0,27.39,6.1,36.21,15.7,8.87,9.66,13.99,22.88,13.99,37.01v.56c0,28.17-19.8,52.16-49.64,52.16s-49.93-24.55-49.93-52.72Z"/>
              <path class="cls-11" d="M598.6,459.94v39.6h38.49v23.71c-8.08,5.3-18.12,8.09-31.23,8.09-28.41,0-49.3-19.02-52.55-46.5-.3-2.47-.45-5.01-.45-7.61v-.56c0-29.84,21.76-53.55,49.93-53.55,19.24,0,33.19,6.69,47.13,18.41l31.8-38.21c-20.64-17.85-44.9-28.45-79.21-28.45-60.52,0-105.15,44.62-105.15,101.52v.56c0,10.14,1.34,19.76,3.86,28.76h0c12.18,43.48,52.02,72.21,102.41,72.21,35.42,0,64.15-13.11,84.79-30.13v-87.85h-89.82Z"/>
            </g>
            <path class="cls-2" d="M433.55,394l-166.24,63.62c8.8-47.1,50.34-82.75,103.7-82.75,23.91,0,45.37,7.08,62.54,19.13Z"/>
            <path class="cls-2" d="M475.88,475.83v.56c0,15.53-3.47,30.24-9.77,43.4l-131.1,52.55c-36.1-11.89-61.93-41.71-68.04-78.47l54.2-21.14c-.06,1.03-.09,2.06-.09,3.1v.56c0,28.17,20.36,52.72,49.93,52.72s49.64-23.99,49.64-52.16v-.56c0-14.13-5.12-27.35-13.99-37.01l51.85-20.23c11.07,16.12,17.37,35.61,17.37,56.68Z"/>
            <polygon class="cls-3" points="598.6 459.94 615.42 459.94 598.6 466.68 598.6 459.94"/>
            <path class="cls-2" d="M681.72,403.32l-31.8,38.21c-13.94-11.72-27.89-18.41-47.13-18.41-28.17,0-49.93,23.71-49.93,53.55v.56c0,2.6,.15,5.14,.45,7.61l-52.09,20.87c-2.52-9-3.86-18.62-3.86-28.76v-.56c0-56.9,44.63-101.52,105.15-101.52,34.31,0,58.57,10.6,79.21,28.45Z"/>
          </g>
        </g>
      </g>
    </g>
  </g>
</svg>