<?xml version="1.0" encoding="UTF-8"?>
<svg xmlns="http://www.w3.org/2000/svg" viewBox="0 0 964 976.64">
  <defs>
    <style>
      .cls-1 {
        fill: #8deeee;
      }

      .cls-2 {
        fill: #fff;
      }

      .cls-3 {
        isolation: isolate;
      }

      .cls-4 {
        fill: #d3aeff;
        mix-blend-mode: overlay;
        opacity: .36;
      }

      .cls-5 {
        fill: #a140ff;
      }
    </style>
  </defs>
  <g class="cls-3">
    <g id="Layer_2" data-name="Layer 2">
      <g id="Layer_21" data-name="Layer 21">
        <path class="cls-5" d="M964,129.84V866.77c0,41.99-23.87,78.67-58.71,97.14-3.41,1.82-6.93,3.45-10.54,4.9-2.79,1.12-5.64,2.13-8.54,3.02-.04,.02-.08,.03-.12,.03-6.32,1.95-12.89,3.33-19.63,4.08-4.05,.46-8.16,.7-12.33,.7H109.87c-4.23,0-8.4-.24-12.5-.72-6.94-.79-13.69-2.24-20.18-4.27,0,0-.01,0-.02,0-2.9-.91-5.75-1.94-8.54-3.09-3.41-1.38-6.74-2.94-9.97-4.66C23.85,945.4,0,908.74,0,866.77V129.84C0,58.43,58.43,0,129.84,0H834.16c65.69,0,120.39,49.44,128.73,112.94,.73,5.54,1.11,11.18,1.11,16.9Z"/>
      </g>
      <g id="Layer_12" data-name="Layer 12">
        <g>
          <circle class="cls-4" cx="482" cy="488.32" r="397"/>
          <circle class="cls-4" cx="482" cy="488.32" r="358"/>
        </g>
      </g>
      <g id="Layer_9_copy" data-name="Layer 9 copy">
        <path class="cls-1" d="M481.85,398.14c-32.72,0-61.03-11.02-83.87-34.46-17.34-17.78-27.61-39.33-30.69-64.18-2.59-20.97,.25-41.2,9.24-60.19,15.61-32.95,41.2-54.38,76.88-62.6,27.27-6.27,54.3-4.48,79.86,7.58,26.24,12.38,45.21,32.24,56.22,59.18,9.85,24.18,11.04,48.98,3.71,74.08-4.44,15.32-12.21,29.48-22.75,41.45-23.46,26.81-53.39,38.94-88.6,39.14Z"/>
        <path class="cls-1" d="M449.6,542.55c1,60.65-51.05,112.19-112.25,111.79-60.14-.39-111.9-48.85-111.7-112.26,.19-61.55,48.95-111.48,111.96-111.73,62.38-.2,112.67,50.72,111.99,112.21Z"/>
        <path class="cls-1" d="M514.62,542.14c-.56-60.67,49.26-112.16,112.42-111.75,62.75,.41,111.54,50.46,111.55,112.26,0,62.49-51.38,111.5-112.16,111.73-59.54,.22-112.93-49.99-111.81-112.24Z"/>
        <path class="cls-1" d="M569.97,737.94c.19,8.65-2.61,17.1-7.94,23.91-1.85,2.46-3.31,2.95-5.19-.1-3.81-6.12-7.8-12.13-11.86-18.08-1.29-1.89-1.18-2.69,1.07-3.51,7.09-2.51,13.81-5.98,19.96-10.31,2.69-1.87,3.36-.76,3.54,1.79,.15,2.1,.28,4.2,.41,6.3Z"/>
        <path class="cls-1" d="M395.4,728.02c6.95,5.09,14.58,9.19,22.66,12.17,2.27,.82,2.12,1.85,.9,3.58-3.95,5.83-7.94,11.64-11.55,17.67-2.06,3.44-3.49,2.69-5.37,.11-7.32-9.89-9.1-20.9-6.63-33.53Z"/>
        <path id="Top_eye" data-name="Top eye" d="M482.2,419.03c-72.01-.08-130.09-58.54-130.02-130.85,.06-71.59,58.82-129.87,130.77-129.67,71.76,.19,129.98,58.74,129.77,130.65-.21,73.16-60.04,130-130.52,129.87Zm-38.9-142.49c.32-1.95,.23-3.95-.27-5.87-2.27-11.35-4.48-22.71-6.62-34.1-1.35-7.32-.09-9.46,6.58-12.36,1.79-.78,3.58-1.64,5.37-2.42,33.96-14.59,75.15-5.74,100.54,21.6,25.76,27.77,31.67,69.22,14.66,102.19-3.33,6.45-7.6,12.3-11.59,18.33,27.87-23.01,45.42-71.39,24.38-117.8-20.89-46.06-71.81-69.86-121.04-56.83-47.08,12.48-80.15,59.32-75.76,107.26,2.48,27.02,23.77,68.02,36.11,68.9-2.5-2.67-4.7-5.6-6.58-8.73-20.46-31.61-21.62-63.97-4.06-97.19,1.79-3.41,4.01-3.74,6.94-2.02,5.32,3.13,10.58,6.37,15.85,9.57,5.11,3.07,10.17,6.2,15.47,9.46Z"/>
        <path id="Left_eye" data-name="Left eye" d="M336.52,675.04c-71.99-.08-130.07-58.56-129.99-130.89,.07-71.59,58.83-129.87,130.77-129.65,71.77,.19,129.97,58.75,129.76,130.67-.21,73.18-60.04,130.01-130.53,129.87Zm-66.43-53.48c-3.58-3.51-5.89-7.51-8.28-11.41-17.91-29.15-19.53-59.22-4.69-90.05,3.91-8.12,3.08-10.59,13.76-3.93,8.78,5.48,17.65,10.79,26.66,16.29,.67-2.23,.22-3.92-.13-5.67-2.25-11.36-4.48-22.71-6.63-34.09-1.38-7.43-.14-9.56,6.84-12.65,1.38-.61,2.74-1.26,4.12-1.86,35.44-15.63,79.35-5.56,103.8,23.81,26.59,31.94,29.33,75.43,6.84,108.67-2.05,3.04-4.11,6.07-6.63,9.78,25.62-20.6,45-66.12,27.56-111.96-17.82-47.36-67.34-74.82-116.95-64.84-49.52,9.97-84.19,54.27-82.63,105.6,.81,26.55,22.53,70.32,36.36,72.31Z"/>
        <path id="Right_eye" data-name="Right eye" d="M627.18,675.04c-70.34-.13-130.35-57.02-130.28-130.61,.05-71.59,58.64-130.01,130.53-129.93,71.9,.09,130.09,58.51,130.04,130.39-.09,71.9-58.4,130.13-130.29,130.15Zm65.38-50.41l-.67,.12,.55-.23,1.01-.82c27.47-24.18,39.92-54.45,36.05-90.96-6.52-61.42-67.61-103.35-127.76-87.88-43.16,10.93-74.39,48.37-77.39,92.79-2.1,31.35,8.46,58.22,30.58,80.61,.98,.99,1.79,2.82,4.26,2.03-.9-1.23-1.52-2.2-2.25-3.1-22.25-27.68-25.81-67.12-8.96-98.68,16.97-31.71,51.17-50.3,87.01-47.29,12.19,1.06,23.5,4.85,34.63,9.7,2.94,1.27,4.34,2.81,4.75,5.77,.23,2.25,.09,4.53-.4,6.74-1.54,8.13-3.33,16.21-4.73,24.36-.81,4.71-2.61,9.34-2.08,14.77,2.14-1.27,3.82-2.23,5.46-3.23,8.49-5.17,16.96-10.36,25.46-15.5,2.69-1.64,5.05-2.2,7.17,1.32,19.07,32.06,15.86,74.22-7.84,102.94-1.45,1.79-3.83,3.01-3.91,5.74-.83-.37-1.12,0-.95,.82Z"/>
        <path id="Mouth" d="M481.42,727.05c22.69,.11,45.17-4.33,66.11-13.06,9.85-4.14,9.77-4.42,3.82-12.82-3.17-4.22-5.8-8.82-7.82-13.69-2.43-6.35-.39-12.3,4.88-14.7,5.12-2.33,10.86-.19,13.92,5.85,7.91,15.67,19.7,27.14,35.72,34.34,5.47,2.45,7.6,6.92,6.41,11.64s-5.12,7.17-11.27,6.8c-4.67-.29-2.05,2.9-1.88,4.13,2.19,15.41-1.49,29.28-10.69,41.73-2.76,3.79-6.13,7.09-9.97,9.78-7.17,5-14.13,4.16-19.38-2.88-8.06-10.86-15.92-21.93-23.65-33.07-2.19-3.15-4.23-3.92-8.16-3.13-24.72,5.08-50.22,5.01-74.91-.2-3.13-.66-4.92,0-6.73,2.6-7.86,11.23-15.73,22.45-23.93,33.42-5.81,7.77-13.15,8.63-20.72,2.42-15.88-13-21.94-30.03-19.5-50.16,.39-3.29,.77-5.18-3.78-4.56-4.25,.43-8.19-2.28-9.31-6.4-1.31-3.88,.17-8.15,3.58-10.4,1.99-1.34,4.08-2.5,6.27-3.48,13.61-6.64,23.7-16.84,30.78-30.13,.73-1.49,1.56-2.92,2.49-4.29,3.22-4.42,8.32-5.97,12.75-3.97,4.42,2,6.87,6.81,5.61,12.09-1.79,7.5-6.45,13.52-10.95,19.56-3.36,4.48-3.51,4.55,1.37,7.17,15.12,8.06,31.66,11.27,48.3,14.12,7.15,1.12,14.41,.92,20.61,1.28Zm-60.7,14.42c-8.86-3.33-17.25-7.79-24.96-13.27-2.62,13.91-.5,25.97,9.67,36.47l15.29-23.2Zm148.47-13.35c-7.71,5.51-16.12,10-24.99,13.34l15.23,23.19c10.19-10.45,12.26-22.48,9.76-36.53Z"/>
        <path id="Chin" d="M486.84,818.13c-14.11-.04-23.38-1.91-31.27-8.35-2.27-1.74-4.3-3.78-6.01-6.06-1.85-2.62-3.89-5.44-1.58-8.62,2.31-3.18,5.37-1.52,8.2-.56,17.07,5.82,35.59,5.81,52.65-.04,2.69-.9,5.55-2.51,7.85,.39,2.45,3.09,.79,6.08-1.19,8.63-8.35,10.69-19.72,14.72-28.64,14.62Z"/>
        <path class="cls-2" d="M799,185.74s12,34,41,53c-33,19-41,48-41,48,0,0-12-31-37-48,0,0,25-19,37-53Z"/>
        <path class="cls-2" d="M244.9,91s16.04,45.45,54.8,70.84c-44.11,25.4-54.8,64.16-54.8,64.16,0,0-16.04-41.44-49.46-64.16,0,0,33.42-25.4,49.46-70.84Z"/>
        <path class="cls-2" d="M321.32,826.32s7.01,19.86,23.95,30.96c-19.28,11.1-23.95,28.04-23.95,28.04,0,0-7.01-18.11-21.61-28.04,0,0,14.6-11.1,21.61-30.96Z"/>
      </g>
    </g>
  </g>
</svg>