<?xml version="1.0" encoding="UTF-8"?>
<svg xmlns="http://www.w3.org/2000/svg" viewBox="0 0 964 976.64">
  <defs>
    <style>
      .cls-1 {
        fill: #fcfcfc;
        opacity: .72;
      }

      .cls-1, .cls-2, .cls-3, .cls-4 {
        mix-blend-mode: overlay;
      }

      .cls-5 {
        isolation: isolate;
      }

      .cls-6 {
        fill: #ffb000;
      }

      .cls-7 {
        fill: #1372d8;
      }

      .cls-8 {
        fill: #27364c;
      }

      .cls-9 {
        fill: #ffa80d;
      }

      .cls-2 {
        opacity: .58;
      }

      .cls-2, .cls-4 {
        fill: #fff;
      }

      .cls-3 {
        fill: #d3aeff;
        opacity: .36;
      }

      .cls-10 {
        fill: #3d536d;
      }

      .cls-11 {
        fill: #ff2ce6;
      }

      .cls-12 {
        fill: none;
      }

      .cls-13 {
        fill: #f27c7c;
      }

      .cls-14 {
        fill: #2ed8ff;
      }

      .cls-15 {
        fill: #ffdb27;
      }

      .cls-16 {
        fill: #a140ff;
      }

      .cls-4 {
        opacity: .71;
      }
    </style>
  </defs>
  <g class="cls-5">
    <g id="Layer_2" data-name="Layer 2">
      <g id="Layer_21" data-name="Layer 21">
        <path class="cls-16" d="M964,129.84V866.77c0,41.99-23.87,78.67-58.71,97.14-3.41,1.82-6.93,3.45-10.54,4.9-2.79,1.12-5.64,2.13-8.54,3.02-.04,.02-.08,.03-.12,.03-6.32,1.95-12.89,3.33-19.63,4.08-4.05,.46-8.16,.7-12.33,.7H109.87c-4.23,0-8.4-.24-12.5-.72-6.94-.79-13.69-2.24-20.18-4.27,0,0-.01,0-.02,0-2.9-.91-5.75-1.94-8.54-3.09-3.41-1.38-6.74-2.94-9.97-4.66C23.85,945.4,0,908.74,0,866.77V129.84C0,58.43,58.43,0,129.84,0H834.16c65.69,0,120.39,49.44,128.73,112.94,.73,5.54,1.11,11.18,1.11,16.9Z"/>
      </g>
      <g id="Layer_12" data-name="Layer 12">
        <g>
          <circle class="cls-3" cx="482" cy="488.32" r="397"/>
          <circle class="cls-3" cx="482" cy="488.32" r="358"/>
        </g>
      </g>
      <g id="_4" data-name="4">
        <g>
          <path class="cls-9" d="M651.17,357.52c-1.23,6.06-1.86,11.94-1.48,17.76,.1,1.42,.26,2.85,.49,4.27,.21,1.36,.49,2.72,.85,4.08,.19,.77,.41,1.55,.66,2.32,.41,1.32,.89,2.64,1.45,3.96,.21,.51,.44,1.01,.67,1.5,3,6.48,7.21,11.73,12.53,15.76l-27.91,5.39-2.38,.46-11.18,2.15-18.91,3.65-59.89,11.56-6.84,1.32-4.66,.9-16.51-21.58-6.44-8.42-15.28-19.97-7.88-10.31-22.69-29.65-1.67-2.18-12.77-16.71-12.07-15.77-10.1-13.2s0,0-.03-.02c-.02,0-.04-.01-.07-.03-.69-.35-4.87-2.55-10.37-6.7-.32-.23-.64-.48-.97-.74-.72-.56-1.46-1.15-2.22-1.77-.38-.32-.77-.64-1.15-.97-.39-.32-.78-.66-1.17-1.01-.39-.34-.78-.69-1.18-1.06-.31-.28-.62-.56-.93-.86-.88-.82-1.78-1.69-2.68-2.61-.41-.41-.81-.83-1.21-1.25-.41-.43-.81-.87-1.21-1.31-.49-.53-.98-1.09-1.47-1.65,0-.01-.01-.01-.01-.02-.38-.44-.76-.89-1.15-1.36-.29-.35-.58-.71-.87-1.07-.42-.53-.84-1.07-1.26-1.62-.77-1.01-1.52-2.06-2.26-3.13-.13-.19-.26-.37-.38-.56-.21-.31-.42-.62-.62-.94-.31-.46-.61-.93-.9-1.41-.3-.48-.59-.96-.88-1.45-.29-.49-.58-.99-.85-1.48-.28-.49-.55-.99-.83-1.5-.27-.52-.54-1.04-.8-1.57-.26-.52-.52-1.05-.77-1.58-.02-.04-.04-.08-.06-.12-.23-.5-.45-1-.68-1.51-.24-.54-.47-1.1-.7-1.66-.23-.56-.46-1.12-.67-1.69-.15-.38-.29-.76-.42-1.15-.03-.04-.04-.08-.05-.13-.18-.47-.34-.95-.5-1.43-.09-.26-.17-.52-.26-.79-.19-.6-.37-1.2-.55-1.8-.18-.61-.35-1.22-.51-1.84-.16-.62-.32-1.25-.46-1.88-.15-.63-.29-1.27-.42-1.91-.11-.56-.22-1.13-.32-1.7-.04-.17-.07-.35-.09-.53-.1-.56-.19-1.13-.27-1.71-.02-.14-.04-.28-.06-.42-.06-.4-.11-.8-.16-1.21-.09-.68-.16-1.36-.22-2.06-.03-.31-.06-.62-.08-.94-.03-.41-.06-.82-.09-1.24-.02-.26-.03-.53-.04-.8-1.2-23.54,8.57-53.9,41.34-91.67C485.34,72.49,482.49,26.4,471.65,.68c-.09-.23-.19-.46-.29-.68h28.49c.32,.22,.64,.45,.96,.68,36.22,25.92,75.06,74,39.03,151.07-14.6,31.23-5.43,60.78,16.72,87.6,.14,.17,.28,.35,.43,.53,.14,.16,.27,.32,.4,.48,3.69,4.39,7.73,8.7,12.06,12.94,10.46,10.23,22.65,20,35.92,29.24,19.84,13.83,42.06,26.49,64.43,37.75-.59,.82-1.19,1.64-1.78,2.45-3.17,4.09-6.07,8.28-8.43,12.95-3.46,6.82-6.89,14.26-8.42,21.83Z"/>
          <path class="cls-15" d="M512.74,74.2c-8.8,62.88-74.86,101.08-58.22,158.02,0,.05,.02,.1,.04,.15,3.29,11.19,9.78,23.11,20.53,36.09,9.27,11.19,12.49,19.55,11.19,25.63-2.5,11.73-21.83,15.02-47.02,13.92l-10.1-13.2s0,0-.03-.02c-.02,0-.04-.01-.07-.03-.69-.35-4.87-2.55-10.37-6.7-.32-.23-.64-.48-.97-.74-.72-.56-1.46-1.15-2.22-1.77-.38-.32-.77-.64-1.15-.97-.39-.32-.78-.66-1.17-1.01-.39-.34-.78-.69-1.18-1.06-.31-.28-.62-.56-.93-.86-.88-.82-1.78-1.69-2.68-2.61-.41-.41-.81-.83-1.21-1.25-.41-.43-.81-.87-1.21-1.31-.5-.54-.99-1.1-1.48-1.67-.38-.44-.76-.89-1.15-1.36-.29-.35-.58-.71-.87-1.07-.42-.53-.84-1.07-1.26-1.62-.77-1.01-1.52-2.06-2.26-3.13-.13-.19-.26-.37-.38-.56-.21-.31-.42-.62-.62-.94-.31-.46-.61-.93-.9-1.41-.3-.48-.59-.96-.88-1.45-.29-.49-.58-.99-.85-1.48-.28-.49-.55-.99-.83-1.5-.27-.52-.54-1.04-.8-1.57-.26-.52-.52-1.05-.77-1.58-.02-.04-.04-.08-.06-.12-.23-.5-.45-1-.68-1.51-.24-.54-.47-1.1-.7-1.66-.23-.56-.46-1.12-.67-1.69-.15-.38-.29-.76-.42-1.15-.03-.04-.04-.08-.05-.13-.18-.47-.34-.95-.5-1.43-.09-.26-.17-.52-.26-.79-.19-.6-.37-1.2-.55-1.8-.18-.61-.35-1.22-.51-1.84-.16-.62-.32-1.25-.46-1.88-.15-.63-.29-1.27-.42-1.91-.11-.56-.22-1.13-.32-1.7-.04-.17-.07-.35-.09-.53-.1-.56-.19-1.13-.27-1.71-.03-.14-.05-.28-.07-.43h0c-.05-.4-.1-.8-.15-1.2-.09-.68-.16-1.36-.22-2.06-.03-.31-.06-.62-.08-.94-.03-.41-.06-.82-.09-1.24-.02-.26-.03-.53-.04-.8-1.2-23.54,8.57-53.9,41.34-91.67C485.34,72.49,482.49,26.4,471.65,.68c-.09-.23-.19-.46-.29-.68h19.32c.22,.22,.44,.45,.65,.68,14.3,15.26,26.27,38.78,21.41,73.52Z"/>
        </g>
        <g>
          <path class="cls-9" d="M667.65,453.01c-9.62,6.11-17.42,13.24-21.99,23.87-3.08,7.16-4.13,14.35-3.3,21.47l-109.64-77.38,23.79-155.06,2.52-16.43s-32.06-101.82,111.34-109.08c142.74-7.23,136.11-92.36,136.05-93.14,.03,.04,.09,.18,.2,.41,.03,.06,.05,.12,.08,.18,.03,.07,.06,.14,.1,.22,5.15,11.47,59.01,138.86-67.92,182.08-70.67,24.06-58.44,123.03-31.48,210.49-1,.14-2,.27-3,.41-5.15,.55-10.18,1.36-15.18,2.89-7.31,2.23-15.06,4.91-21.57,9.05Z"/>
          <path class="cls-15" d="M776.02,156.88c-61.59,44.57-154.54,5.45-166.16,107.46-4.81,42.28-28.04,30.32-53.35,1.57l2.52-16.43s-32.06-101.82,111.34-109.08c142.74-7.23,136.11-92.36,136.05-93.14,.03,.04,.09,.18,.2,.41,.02,.05,.05,.12,.08,.18,.03,.07,.06,.14,.1,.22,3.34,7.69,26.73,67.18-30.78,108.8Z"/>
        </g>
        <g>
          <path class="cls-9" d="M964,293.31v62.8c-20.77,25.72-54.45,44.6-109.05,37.06-24.54-3.39-44.62,4.69-61.06,20.29-.36,.35-.72,.7-1.08,1.05-1.83,1.79-3.6,3.67-5.34,5.63-2.85,3.24-5.58,6.71-8.2,10.4-9.2,12.96-16.98,28.57-23.55,45.74-1.28,3.33-2.51,6.71-3.69,10.15-1.75,5.06-3.4,10.24-4.96,15.5-1.43,4.82-2.79,9.72-4.07,14.67-.04,.13-.08,.26-.1,.39-2.98,11.48-5.57,23.25-7.82,35.05-.02,.05-.03,.1-.03,.15-.72,3.74-1.4,7.48-2.05,11.22-.01,.07-.03,.14-.03,.21-.21,1.18-.41,2.35-.61,3.53-.16-.05-.32-.11-.48-.16-.8-.27-1.59-.55-2.38-.82-1-.38-2.01-.74-3.01-1.09-3.86-1.33-7.77-2.44-11.86-3.14-2.31-.39-4.67-.76-7.05-1.07-5.41-.7-10.96-1.05-16.29-.52-9.65,.98-18.46,3.2-26.32,8.44-1.38,.91-2.72,1.91-4.04,3.02-5.97,5.02-10.13,10.97-12.58,17.72l-2.66-4.98-9.07-16.98-2.97-5.55-2.94-5.5-10.23-19.13-12.39-23.2h-.01l-3.57-6.69-5.29-9.89h0s-14.13-26.44-14.13-26.44l6.27-8.82,12.36-17.4h0s21.15-29.78,21.15-29.78l3.57-5.02,4.57-6.43,9.27-13.06,3.62-5.09,1.55-2.19,2.73-3.83,2.87-4.04,22.89-32.23,7.71-10.85,1.91-2.7s.18-1.09,.63-2.99c.16-.67,.36-1.44,.6-2.3,5.63-20.62,33.9-92.12,147.22-42.23,64.83,28.55,105.46,23.53,129.99,11.1Z"/>
          <path class="cls-15" d="M964,293.31v33.2c-10.6,8.26-24.58,14.85-42.98,17.84-75.04,12.19-140.55-64.49-196.71,21.47-2,3.06-3.94,5.7-5.82,7.95-2.62,3.13-5.13,5.5-7.54,7.17-.34,.25-.69,.47-1.03,.68-6.87,4.28-12.85,2.87-18.04-2.54-.09-.09-.18-.18-.27-.28-6.36-6.84-11.53-19.73-15.67-35.52l7.71-10.85,1.91-2.7s.18-1.09,.63-2.99c.16-.67,.36-1.44,.6-2.3,5.63-20.62,33.9-92.12,147.22-42.23,64.83,28.55,105.46,23.53,129.99,11.1Z"/>
        </g>
        <g>
          <g>
            <path class="cls-9" d="M474.1,322.45l-7,16.99-1.33,3.23-11.95,29.02-3.38,8.21-.95,2.3-12.36,30.03h0s-9.67,23.49-9.67,23.49l-4.46,10.82-11.56,.83-8.49,.61-5.62,.41-23.79,1.71h0l-65.83,4.73-12.16,.87-29,2.09-.4,.03h-.01l-2.49,.18-13.68,.98s-.07,.04-.21,.12c-1.25,.7-7.92,4.29-17.79,7.02-3.92,1.08-8.34,2.03-13.12,2.6-2.92,.36-5.96,.57-9.12,.59-3.32,.04-6.76-.15-10.28-.62-.38-.04-.75-.09-1.13-.15-27.75-4.06-60.13-25.37-79.44-93.88C83.68,249.76,13.22,259.18,0,262.14v-1.06c16.5-11.99,123.33-83.27,191.17,26.84,18.2,29.54,48.2,38.03,83.06,34.05,6.42-.73,12.99-1.88,19.7-3.4h.01c3.59-.82,7.21-1.74,10.87-2.76,10.37-2.88,20.97-6.56,31.65-10.83,6.35-2.55,12.74-5.3,19.11-8.23,15.83-7.27,31.63-15.59,46.9-24.37,.31-.18,.61-.35,.92-.53,.36,.95,.71,1.89,1.06,2.84,.01,.04,.03,.08,.04,.12,0,.01,.01,.01,.01,.02,1.68,4.85,3.56,9.52,6.15,14.02,3.8,6.63,8.13,13.58,13.62,19.02,7.84,7.76,16.22,13.65,27.06,15.91,.36,.08,.72,.15,1.09,.22,7.67,1.42,14.91,.84,21.68-1.55Z"/>
            <path class="cls-15" d="M283.16,427.1c-2.3,8.61-8.33,19.19-16.5,30.53-.04,.05-.08,.11-.12,.16l-.4,.03-2.5,.18-13.68,.98s-.07,.04-.21,.12c-1.25,.7-7.92,4.29-17.79,7.02-3.92,1.08-8.34,2.03-13.12,2.6-2.92,.36-5.96,.57-9.12,.59-3.32,.04-6.76-.15-10.28-.62-.38-.04-.75-.09-1.13-.15-27.75-4.06-60.13-25.37-79.44-93.88C83.68,249.76,13.22,259.18,0,262.14v-1.02c10.89-7.5,60.93-37.49,111.47,6.87,41.27,36.23,43.6,98.11,80.18,125.41,3.99,2.98,8.4,5.55,13.31,7.62,.41,.18,.83,.36,1.25,.52,7.78,3.11,16.81,5.01,27.45,5.4,3.23,.13,6.62,.11,10.16-.06,2.99-.15,6.1-.39,9.33-.75,1.66-.18,3.24-.32,4.75-.41,3.87-.25,7.25-.19,10.19,.14,3.02,.32,5.57,.93,7.69,1.81,8.03,3.27,9.83,10.24,7.38,19.43Z"/>
          </g>
          <g>
            <path class="cls-9" d="M513.13,346.52c-.17,11.4,1.5,21.83,7.87,31.48,4.29,6.51,9.72,11.33,16.14,14.55l-124.88,49.14-116.53-105.02-12.34-11.13s-102.7-29.12-30.03-152.95c72.33-123.27-2.46-164.47-3.14-164.85,.05,0,.2,.02,.46,.06,.06,.01,.13,.02,.2,.03,.07,.02,.15,.03,.24,.04,12.41,1.99,148.46,26.92,114.88,156.74-18.69,72.28,70.74,116.4,158.64,141.88-.43,.92-.87,1.82-1.31,2.73-2.37,4.61-4.45,9.25-5.92,14.28-2.15,7.34-4.16,15.28-4.28,23Z"/>
            <path class="cls-15" d="M325.14,93.36c3.43,75.95-80.3,132.15-1.42,197.87,32.69,27.24,9.94,40.08-27.98,45.45l-12.34-11.13s-102.7-29.12-30.03-152.95c72.33-123.27-2.46-164.47-3.14-164.85,.05,0,.2,.02,.46,.06,.06,.01,.13,.02,.2,.03,.07,.02,.15,.03,.24,.04,8.26,1.43,70.82,14.54,74.03,85.47Z"/>
          </g>
        </g>
        <g>
          <g>
            <path class="cls-9" d="M281.4,450.4c9.48-6.33,17.11-13.64,21.43-24.37,2.92-7.23,3.8-14.44,2.8-21.55l111.4,74.83-20.2,155.56-2.14,16.48s34.4,101.05-108.79,111.62c-142.53,10.52-133.94,95.48-133.86,96.25-.03-.04-.09-.18-.21-.41-.03-.06-.05-.12-.09-.18-.03-.07-.06-.14-.1-.22-5.41-11.34-62.21-137.46,63.7-183.6,70.1-25.69,55.58-124.35,26.61-211.16,1-.16,2-.32,2.99-.48,5.14-.67,10.14-1.6,15.11-3.24,7.26-2.4,14.94-5.26,21.36-9.55Z"/>
            <path class="cls-15" d="M179.9,748.95c60.55-45.98,154.37-9.01,163.63-111.27,3.84-42.38,27.33-30.96,53.3-2.8l-2.14,16.48s34.4,101.05-108.79,111.62c-142.53,10.52-133.94,95.48-133.86,96.25-.03-.04-.09-.18-.21-.41-.02-.05-.05-.12-.09-.18-.03-.07-.06-.14-.1-.22-3.52-7.61-28.28-66.54,28.26-109.48Z"/>
          </g>
          <g>
            <path class="cls-9" d="M410.14,488.87l-126.16,93.23-13.37,9.87s-1.76,3.39-5.33,8.25h0c-15.31,20.82-63.93,68.41-150.53-9.34-49.38-44.33-87.76-54.06-114.75-51.69v-48.22c28.51-24.99,70.81-40.66,129.42-12.06,67.09,32.75,128.17-46.08,170.69-127.12,.81,.61,1.61,1.21,2.41,1.82,4.05,3.24,8.18,6.21,12.81,8.65,6.76,3.57,14.15,7.13,21.69,8.78,11.13,2.45,21.69,2.89,32.42-1.43,7.23-2.91,13.04-7.27,17.47-12.91l20.4,116.09,2.83,16.08Z"/>
            <path class="cls-15" d="M283.98,582.1l-13.37,9.87s-1.76,3.39-5.33,8.25h0c-15.31,20.82-63.93,68.41-150.53-9.34-49.38-44.33-87.76-54.06-114.75-51.69v-28.91c13.55-5.92,30.49-8.85,51.42-5.56,75.11,11.8,113.47,105.07,193.61,40.89,6.18-4.94,11.48-8.11,16.01-9.74,19.84-7.16,24.82,15.1,22.94,46.23Z"/>
          </g>
        </g>
        <g>
          <g>
            <path class="cls-9" d="M686.94,976.64h-36.44c-16.9-6.25-35.02-15.89-49.67-30.68-21.4-21.61-35.41-54.22-27.41-103.42,6.16-37.91-15.5-65.78-50.22-86.26-7.92-4.67-16.52-8.95-25.62-12.89-10.23-4.42-21.08-8.39-32.33-11.96-20.17-6.41-41.59-11.52-62.82-15.61,.35-.95,.7-1.9,1.05-2.84,1.93-4.81,3.58-9.62,4.58-14.76,.32-1.62,.63-3.27,.9-4.93,1.03-6.05,1.71-12.33,1.25-18.37-.87-11.36-3.5-21.6-10.73-30.62-1.08-1.34-2.2-2.6-3.38-3.77-4.11-4.14-8.81-7.2-14.02-9.24l7.57-3.82,8.71-4.38,12.61-6.36,10.93-5.51,80.02-40.32,.97,.73,21.16,15.8,30.73,22.96,7.99,5.97,25.04,18.7,6.06,4.53,31.44,23.49,2.28,1.7,13.32,9.95s6.85,1.27,16.02,5.34c7.63,3.38,16.87,8.69,25.12,16.79,20.72,20.31,35.27,58.22,2.8,127.41-27.06,57.67-26.52,96.42-17.53,121.69,5.02,14.13,12.67,24.04,19.62,30.68Z"/>
            <path class="cls-15" d="M686.94,976.64h-22.21c-11.5-6.25-23.35-15.87-32.05-30.68-5.69-9.68-10.02-21.57-12.04-36.19-10.27-74.49,66.13-137.56-14.01-195.25-.89-.64-1.8-1.28-2.73-1.92-2-1.38-3.82-2.73-5.46-4.05-11.52-9.24-14.33-17.04-11.05-23.58,3.86-7.71,16.16-13.68,32.62-18.24,2.44-.69,4.97-1.33,7.58-1.95l13.32,9.95s6.85,1.27,16.02,5.34c7.63,3.38,16.87,8.69,25.12,16.79,20.72,20.31,35.27,58.22,2.8,127.41-27.06,57.67-26.52,96.42-17.53,121.69,5.02,14.13,12.67,24.04,19.62,30.68Z"/>
          </g>
          <g>
            <path class="cls-9" d="M387.67,542.5c8.91-7.12,15.89-15.05,19.29-26.1,2.29-7.45,2.56-14.71,.96-21.71l117.35,65.11-6.93,156.72-.73,16.6s42.85,97.77-98.92,120.46c-141.13,22.58-125.36,106.51-125.21,107.27-.03-.03-.11-.17-.24-.39-.03-.06-.06-.11-.1-.17-.03-.07-.07-.14-.12-.21-6.36-10.84-73.65-131.68,47.88-188.35,67.66-31.55,44.83-128.62,8.59-212.65,.98-.25,1.96-.49,2.94-.73,5.06-1.1,9.97-2.45,14.78-4.51,7.03-3.01,14.44-6.51,20.47-11.33Z"/>
            <path class="cls-15" d="M311.88,848.59c56.43-50.96,153.05-22.08,153.59-124.76,.22-42.55,24.6-33.17,52.87-7.31l-.73,16.6s42.85,97.77-98.92,120.46c-141.13,22.58-125.36,106.51-125.21,107.27-.03-.03-.11-.17-.24-.39-.03-.05-.06-.11-.1-.17-.03-.07-.07-.14-.12-.21-4.15-7.29-33.82-63.9,18.87-111.49Z"/>
          </g>
        </g>
        <g>
          <g>
            <path class="cls-9" d="M964,546.25v76.6c-28.38,5.02-61.44-1.38-96.81-31.85-25.96-22.36-56.67-21.67-88.27-7.84-18.54,8.11-37.39,20.74-55.76,35.9-18.54,15.29-36.6,33.14-53.37,51.5-.37-.47-.75-.95-1.12-1.43-.25-.31-.5-.63-.75-.95-3.09-4.16-6.33-8.08-10.19-11.62-3.68-3.38-7.62-6.82-11.84-9.78-2.22-1.57-4.53-3-6.9-4.22-10.15-5.2-20.24-8.31-31.72-6.86-4.86,.61-9.33,1.92-13.4,3.89-2.4,1.16-4.66,2.55-6.78,4.15l.72-8.68,2.5-29.97,.79-9.58,2.6-31.2,.31-3.68,.85-10.3,1.69-20.26,1.39-16.74,.28-3.32,6.29-2.51,23.37-9.31,9.11-3.63,5.11-2.04,7.59-3.03,18.89-7.53,13.34-5.32,2.46-.98,30.19-12.03,11.46-4.57,13.62-5.43,2.72-1.09h.01l.94-.37h.01l.61-.25,14.51-5.78,.93-.37s7.33-8.13,19.89-15.23c2.56-1.45,5.34-2.86,8.31-4.14,1.81-.79,3.7-1.53,5.66-2.21,.21-.07,.43-.15,.65-.22,28.3-9.53,70.92-5.93,115.95,62.48,18.82,28.59,37.15,47.53,54.16,59.8Z"/>
            <path class="cls-15" d="M964,546.25v44.92c-4.78-1.32-9.71-3.07-14.81-5.3-69.24-30.32-82.87-129.27-175.2-89.49-.55,.24-1.1,.48-1.66,.73-.18,.08-.36,.16-.54,.24-9.98,4.37-17.46,5.84-22.85,4.99h-.01c-.66-.1-1.27-.24-1.86-.41-1.02-.29-1.95-.68-2.79-1.17-9.68-5.51-8.31-23.15-1.52-45.15,.01-.01,0-.01,0-.01,.28-.9,.57-1.81,.87-2.73,.1-.32,.21-.63,.31-.95l14.51-5.78,.93-.37s7.33-8.13,19.89-15.23c2.56-1.45,5.34-2.86,8.31-4.14,1.81-.79,3.7-1.53,5.66-2.21,.21-.07,.43-.15,.65-.22,28.3-9.53,70.92-5.93,115.95,62.48,18.82,28.59,37.15,47.53,54.16,59.8Z"/>
          </g>
          <g>
            <path class="cls-9" d="M500.53,708.1c-7.98-8.14-16.58-14.29-27.92-16.55-7.64-1.53-14.89-1.06-21.69,1.24l52.89-123.34,156.61-8.97,16.59-.95s92.93-52.53,129.85,86.22c36.75,138.11,118.65,113.93,119.39,113.71-.03,.03-.16,.12-.36,.28-.05,.04-.1,.07-.16,.12-.06,.04-.13,.08-.2,.14-10.14,7.42-123.55,86.6-192.23-28.57-38.23-64.12-132.49-31.58-212.43,12.98-.35-.95-.68-1.9-1.02-2.85-1.61-4.92-3.45-9.67-5.99-14.25-3.71-6.69-7.94-13.71-13.34-19.22Z"/>
            <path class="cls-15" d="M812.72,752.52c-56.41-50.98-37.46-150.03-139.66-140.18-42.36,4.08-35.49-21.12-12.63-51.86l16.59-.95s92.93-52.53,129.85,86.22c36.75,138.11,118.65,113.93,119.39,113.71-.03,.03-.16,.12-.36,.28-.05,.03-.1,.07-.16,.12-.06,.04-.13,.08-.2,.14-6.83,4.87-60.15,40.12-112.82-7.49Z"/>
          </g>
        </g>
        <path class="cls-6" d="M744.65,486.81c0,141.8-114.95,256.76-256.76,256.76s-256.76-114.95-256.76-256.76c0-80.98,37.49-153.2,96.06-200.26,43.99-35.35,99.87-56.5,160.7-56.5s117.12,21.31,161.18,56.89c58.29,47.07,95.58,119.12,95.58,199.87Z"/>
        <circle class="cls-15" cx="487.89" cy="468.37" r="238.31"/>
        <path class="cls-2" d="M649.07,286.94c-12.19-7.46-24.76-14.23-37.87-19.96-33.82-14.79-71.75-22.29-107.96-15.16,16.91,16.08,14.48,45.55-.27,63.63-14.76,18.08-38.3,26.62-61.29,30.55-17.85,3.05-36.38,3.79-53.89-.79-8.85-2.32-17.6-6.15-23.82-12.86-8.43-9.1-11.06-22.62-8.58-34.76,2.48-12.15,9.59-22.97,18.36-31.73-15.92,5.44-31.74,12.28-46.56,20.7,43.99-35.35,99.87-56.5,160.7-56.5s117.12,21.31,161.18,56.89Z"/>
        <path class="cls-10" d="M488.25,628.49c-19.85,0-40.08-2.42-60.47-7.25-54.41-12.88-90.6-38.12-92.12-39.19l4.77-6.77s0,0,0,0h0c.44,.31,36.67,25.51,89.54,37.96,70.68,16.65,135.96,3.89,194.03-37.94l4.84,6.72c-33.09,23.84-69.12,38.67-107.09,44.1-11.02,1.57-22.2,2.36-33.51,2.36Z"/>
        <path class="cls-13" d="M340.69,548.93s17.32,34.64-25.6,59.48c0,0,29.37-24.85,25.6-59.48Z"/>
        <path class="cls-13" d="M624.99,548.93s-17.32,34.64,25.6,59.48c0,0-29.37-24.85-25.6-59.48Z"/>
        <path class="cls-7" d="M784.36,403.99c-113.93-26.68-282.41-21.59-296.47-21.12-14.06-.48-182.54-5.56-296.47,21.12-14.31,5.27-8.28,31.62-8.28,36.89s9.79,8.28,12.8,13.55,2.26,37.65,12.05,68.52c9.79,30.87,24.09,40.66,51.2,43.67,27.11,3.01,122.35,7.15,150.21-19.95,27.86-27.11,44.78-87.52,51.2-101.65,3.6-7.92,17.52-8.27,27.29-8.28,9.77,.02,23.69,.36,27.29,8.28,6.42,14.13,23.34,74.54,51.2,101.65,27.86,27.11,123.11,22.97,150.21,19.95,27.11-3.01,41.41-12.8,51.2-43.67,9.79-30.87,9.04-63.25,12.05-68.52,3.01-5.27,12.8-8.28,12.8-13.55s6.02-31.62-8.28-36.89Z"/>
        <path class="cls-14" d="M792.64,430.34c0,2.82-2.81,5-5.88,7.22,0,0,0,.02-.02,.02-2.66,1.92-5.51,3.88-6.9,6.32-3.01,5.27-2.26,37.65-12.05,68.52s-24.09,40.66-51.2,43.67-122.35,7.15-150.21-19.95c-27.86-27.11-44.78-87.52-51.2-101.65-3.6-7.92-17.51-8.27-27.29-8.28-9.77,.02-23.69,.36-27.29,8.28-6.42,14.13-23.34,74.54-51.2,101.65s-123.11,22.97-150.21,19.95-41.41-12.8-51.2-43.67-9.04-63.25-12.05-68.52c-.75-1.33-1.94-2.5-3.28-3.61-.24-.2-.49-.4-.75-.59-3.92-3.06-8.77-5.65-8.77-9.36,0-2.33-1.18-8.79-1.25-15.73v-.02c0-.8,0-1.6,.02-2.42v-.03c.25-8,2.29-16.03,9.51-18.7,113.93-26.68,282.4-21.59,296.47-21.11,14.07-.48,182.54-5.56,296.47,21.11,7.22,2.67,9.26,10.7,9.51,18.7v.03c.24,7.81-1.23,15.56-1.23,18.17Z"/>
        <g>
          <path class="cls-8" d="M435.57,437.12c-2.66,13.72-11.57,37.18-23.15,57.19-7.76,13.43-16.73,25.31-25.8,31.65-22.59,15.81-92.92,21.32-131.77,13.55-21.35-4.27-38.11-56.02-37.53-93.7,.24-15.49,3.43-28.6,10.42-35.06,19.58-18.07,134.78-23.34,173.93-21.08,39.15,2.26,38.4,24.09,33.88,47.44Z"/>
          <path class="cls-8" d="M752.33,491.34c-6.66,24.55-18.16,45.53-31.42,48.18-38.84,7.77-109.18,2.26-131.77-13.55s-44.5-65.92-48.94-88.85c-.91-4.69-1.66-9.32-1.97-13.74-1.23-17.58,4.57-31.89,35.86-33.69,39.15-2.26,154.36,3.01,173.93,21.08,13.45,12.41,12.79,49.37,4.31,80.57Z"/>
        </g>
        <path class="cls-11" d="M365.44,466.14l-1.01-9.9-48.24,4.89,.11,1.08,2.05,20.2,20.67-2.1,1.29,12.73c-4.05,3.29-9.29,5.34-16.33,6.05-16.63,1.69-29.7-9.25-31.42-26.18l-.03-.3c-.62-6.14,.52-11.97,3.01-16.91,1.71-3.38,4.05-6.35,6.89-8.71,3.85-3.21,8.63-5.32,14-5.86,10.34-1.05,18.19,1.78,26.32,7.32l8.83-13.1,6.17-9.16c-10.4-7.3-21.95-11.56-36.75-11.39h-.01c-2.36,.02-4.8,.16-7.34,.42-2.8,.28-5.52,.74-8.15,1.36-1.73,.4-3.43,.88-5.09,1.42-6.43,2.11-12.23,5.21-17.25,9.1-9.95,7.72-16.84,18.55-19.52,30.9-.06,.26-.11,.52-.16,.78-1.07,5.34-1.36,10.95-.78,16.71l.03,.3c3.23,31.76,29.93,51.76,62.59,48.44,19.02-1.93,33.74-10.54,43.9-20.8l-3.78-37.29Z"/>
        <path class="cls-11" d="M700.39,416.29l-12.66-1.08-28.54,38.52-20.76-41.17-.82-1.63-1.26-.11-7.91-.67-21.58-1.85-.9,10.52-2.24,26.12h0s-2.11,24.65-2.11,24.65l-2.39,28.01h0s-1.35,15.72-1.35,15.72h.07s10.14,.87,10.14,.87h.01l18.29,1.57,1.5-17.57,.81-9.49,2.82-32.95,12.99,24.1,5.19,9.64,5.04,9.35,.6,.05,13.25-16.93,5.67-7.24,11.46-14.64-1.33,15.58-.12,1.33-3.71,43.4,28.95,2.48,4.25-49.62,.82-9.62,3.92-45.79-18.1-1.55Z"/>
        <path class="cls-1" d="M435.57,437.12c-2.66,13.72-11.57,37.18-23.15,57.19,4.22-20.43,2.42-42.14-5.91-61.3-7.43,22.33-32.74,33.88-56.21,35.59-11.37,.84-23.3-.15-33.16-5.89-10.02-5.83-17.07-16.5-18.5-28-1.43-11.51,2.79-23.57,11.08-31.68-21.03,2.12-42.57,4.38-61.55,13.69-12.85,6.3-24.41,16.57-30.85,29.1,.24-15.49,3.43-28.6,10.42-35.06,19.58-18.07,134.78-23.34,173.93-21.08,39.15,2.26,38.4,24.09,33.88,47.44Z"/>
        <path class="cls-1" d="M752.33,491.34c-.54-14.37-3.9-28.62-10.12-41.59-14.14,23.82-47,34.39-72.37,23.29-25.37-11.11-39.91-42.42-31.99-68.96-22.08-1.86-44.35-1.33-66.31,1.58-7.92,1.05-16.01,2.47-22.88,6.54-4.43,2.62-8.29,6.57-10.44,11.17-1.23-17.58,4.57-31.89,35.86-33.69,39.15-2.26,154.36,3.01,173.93,21.08,13.45,12.41,12.79,49.37,4.31,80.57Z"/>
        <path class="cls-4" d="M792.64,430.34c0,2.82-2.81,5-5.88,7.22,.35-4.5,.7-9.48,.81-10.99,.75-10.54-.75-20.33-35.39-29.37-73.46-15.07-140.64-17.05-241.28-17.29,0,0,0,.02,.02,.02,4.08,11.24,7.09,27.05,8.6,43.62-4.09-3.92-11.94-5.34-17.54-6.21-2.86-.44-3.97-.27-5.26-2.88-.59-1.19-.59-2.57-.57-3.89,.05-5.87-2.08-25.01-3.54-27.91-.52-1.02-1.2-1.95-2-2.78-14.04,0-28.71,0-44.13,0-138.54,0-221.37,12.8-242.45,22.59-21.08,9.79-16.56,14.31-14.31,24.09,.59,2.58,1.39,8.85,2.19,13.12-3.92-3.06-8.77-5.65-8.77-9.36,0-2.33-1.18-8.79-1.25-15.73v-.02c.04-.85,.05-1.66,.02-2.42v-.03c.25-8,2.29-16.03,9.51-18.7,113.93-26.68,282.4-21.59,296.47-21.11,14.07-.48,182.54-5.56,296.47,21.11,7.22,2.67,9.26,10.7,9.51,18.7v.03c.24,7.81-1.23,15.56-1.23,18.17Z"/>
        <rect class="cls-12" y=".68" width="964" height="945.28" rx="129.84" ry="129.84"/>
      </g>
    </g>
  </g>
</svg>