<?xml version="1.0" encoding="UTF-8"?>
<svg xmlns="http://www.w3.org/2000/svg" viewBox="0 0 964 976.64">
  <defs>
    <style>
      .cls-1 {
        fill: #849695;
      }

      .cls-2, .cls-3 {
        fill: #fff;
      }

      .cls-4, .cls-5, .cls-6, .cls-7 {
        fill: #becdce;
      }

      .cls-8, .cls-9 {
        fill: #cedbdd;
      }

      .cls-10 {
        fill: #a5b7b6;
      }

      .cls-5 {
        opacity: .4;
      }

      .cls-5, .cls-6, .cls-7 {
        mix-blend-mode: multiply;
      }

      .cls-11 {
        isolation: isolate;
      }

      .cls-12 {
        fill: #eefeff;
      }

      .cls-13 {
        opacity: .63;
      }

      .cls-13, .cls-14, .cls-15 {
        fill: #cedddd;
      }

      .cls-16 {
        fill: #9eb2b2;
      }

      .cls-14 {
        opacity: .58;
      }

      .cls-6 {
        opacity: .35;
      }

      .cls-17 {
        fill: #d3aeff;
        opacity: .36;
      }

      .cls-17, .cls-3, .cls-9 {
        mix-blend-mode: overlay;
      }

      .cls-18 {
        fill: #03f1b5;
      }

      .cls-19 {
        fill: none;
      }

      .cls-15 {
        opacity: .51;
      }

      .cls-7 {
        opacity: .19;
      }

      .cls-20 {
        fill: #a140ff;
      }

      .cls-3, .cls-9 {
        opacity: .65;
      }

      .cls-21 {
        fill: #d7e2e2;
      }
    </style>
  </defs>
  <g class="cls-11">
    <g id="Layer_2" data-name="Layer 2">
      <g id="Layer_21" data-name="Layer 21">
        <path class="cls-20" d="M964,129.84V866.77c0,41.99-23.87,78.67-58.71,97.14-3.41,1.82-6.93,3.45-10.54,4.9-2.79,1.12-5.64,2.13-8.54,3.02-.04,.02-.08,.03-.12,.03-6.32,1.95-12.89,3.33-19.63,4.08-4.05,.46-8.16,.7-12.33,.7H109.87c-4.23,0-8.4-.24-12.5-.72-6.94-.79-13.69-2.24-20.18-4.27,0,0-.01,0-.02,0-2.9-.91-5.75-1.94-8.54-3.09-3.41-1.38-6.74-2.94-9.97-4.66C23.85,945.4,0,908.74,0,866.77V129.84C0,58.43,58.43,0,129.84,0H834.16c65.69,0,120.39,49.44,128.73,112.94,.73,5.54,1.11,11.18,1.11,16.9Z"/>
      </g>
      <g id="Layer_12" data-name="Layer 12">
        <g>
          <circle class="cls-17" cx="482" cy="488.32" r="397"/>
          <circle class="cls-17" cx="482" cy="488.32" r="358"/>
        </g>
      </g>
      <g id="_3" data-name="3">
        <g id="Layer_9_copy_3" data-name="Layer 9 copy 3">
          <g>
            <path class="cls-18" d="M129,135s9-20,53-23,79-1,110-31c0,0-11,62-65,70s-70.78,20.3-70.78,20.3c0,0,13.78-26.3-27.22-36.3Z"/>
            <path class="cls-2" d="M316.4,332.69l-7.25,6.69-2.31,2.13-2.21-2.4L124.31,143.46c-.27,.02-.54,.04-.81,.04-1.37,0-2.69-.25-3.9-.72-4.15-1.56-7.1-5.57-7.1-10.28,0-6.08,4.92-11,11-11,5.16,0,9.48,3.54,10.67,8.33,.22,.85,.33,1.75,.33,2.67,0,.87-.11,1.7-.3,2.51l2.13,2.32,122.33,132.72,57.74,62.64Z"/>
            <path class="cls-14" d="M258.66,270.05c-1.46-.58-2.89-1.22-4.28-1.94-7.55-3.88-13.87-9.75-19.97-15.65-14.11-13.66-27.61-27.92-41.11-42.18-7.12-7.52-14.24-15.04-21.36-22.56-11.17-11.79-22.37-23.64-31.78-36.88-2.01-2.83-4.01-5.92-4.16-9.38-.06-1.33,.14-2.74,.33-4.13l-2.13-2.32c.13-.54,.2-1.09,.25-1.65-.85,3.76-3.76,6.98-8.75,6.98-2.01,0-3.67-.53-5.01-1.39-.43,1.26-.8,2.54-1.09,3.84,1.21,.47,2.53,.72,3.9,.72,.27,0,.54-.02,.81-.04l180.32,195.65c1.21,.09,2.42,.16,3.63,.23,.29,.01,.59,.03,.89,.04l7.25-6.69-57.74-62.64Z"/>
            <circle class="cls-2" cx="123" cy="132" r="13"/>
            <path class="cls-21" d="M964,129.84v29.2s-.02,.01-.02,.01c-30.41,23.68-107.98,46.95-107.98,46.95l-249.83-8.95-19.52-.7s.04-2.7,.58-6.82c1.1-8.51,4.34-23.1,13.77-32.53,14-14,116-56,281-59,31.14,1.17,52.28,3.85,66.49,8.34,1.36,.43,2.66,.88,3.89,1.34,4.16,1.56,7.63,3.31,10.51,5.26,.73,5.54,1.11,11.18,1.11,16.9Z"/>
            <path class="cls-4" d="M263,358l-191,227s-22-38-22-71h.01c50-99,152.99-164,171.99-167,15.25-2.41,32.42,6.13,38.62,9.6,1.52,.85,2.38,1.4,2.38,1.4Z"/>
            <path class="cls-5" d="M658.65,179.13c3.75-9.37,14.44-19.89,21.73-24.6,9.26-5.99,12.21-2.85,22.82-4.81,7.5-1.38,20.39-9.2,25.94-14.97,3.05-3.17,1.43-8.1,4.88-11.08,3.62-3.13,10.44-2.13,15.55-2.65,31.51-3.24,61.03-8.8,93.38-8.8,20.92,0,45.53-4.27,64.5,.06,8.75,2,18.7,7.02,26.49,10.54,15.88,7.19,20.47,21.42,25.08,38.47-48.67,13.84-105.37,6.64-155.52,8.3-25.02,.83-49.08,2.61-73.34,9.42-19.33,5.43-38.39,17.21-58.6,18.89l-12.91-18.78Z"/>
            <path class="cls-5" d="M64.65,547.74c-.87-15.77-6.66-19.25-2.03-32.55,1.9-5.45,3.57-17.47,11.1-15.76,3.9-3.21,11.7-8.96,14.15-11.82,4.48-5.23,4.34-12.48,7.89-17.44-.25,.35,5.46-.37,7.04-2.22,3.06-3.59,1.88-6.64,3-10.67,1.9-6.88,3.22-9.7,9.04-16.41,6.86-7.91,14.87-10.99,22.02-18.74,5.69-6.17,9.53-13.46,15.78-19.01,7.38-6.56,16.16-13.46,24.39-18.84,10.12-6.63,8.37-2,17.9-.86,11.17,1.33,13.08-4.75,22.33-9.7,10.62-5.68,26.02-2,38.49-3.27-23.2,37.65-48.1,79.2-77.87,112.01-16.95,18.68-39.3,40.68-61.17,53.67-12.59,7.48-16.15,4.08-29.13,4.68-5.47,.25-9.05,.56-13.55,4.6l-9.39,2.35Z"/>
            <path class="cls-3" d="M948.49,106.34c-5.49-.36-11.28-1.78-15.63-2.45-14.33-2.22-30.2-2.71-45.29-3.46-74.09-3.66-146.54,15.32-216.03,37.35-13.04,4.14-29.74,4.9-37.31,16.96-3.34,5.33-5,11.43-7.28,17.09-.23,.58-4.44,6.42-4.69,6.72-4.2,5.2,3.87,8.06-9.39,9.97l-6.7,8.53-19.52-.7s.35-25.35,14.35-39.35,116-56,281-59c31.14,1.17,52.28,3.85,66.49,8.34Z"/>
            <path class="cls-9" d="M260.62,356.6c-10.67,5.81-23.52-1.33-34.94,1.85-5.59,1.56-9.88,5.23-16.69,6.25-4.58,.68-10.58-.16-15.71,2.24-44.69,20.96-81.32,69.09-111.04,106.9-4.85,6.18-11.78,10.34-16.73,16.35-6.18,7.5-9.94,16-15.5,23.8,50-98.99,152.99-163.99,171.99-166.99,15.25-2.41,32.42,6.13,38.62,9.6Z"/>
            <path class="cls-12" d="M964,135.9V866.77c0,60.43-49.44,109.87-109.87,109.87H109.87c-60.43,0-109.87-49.44-109.87-109.87v-242.93c17.71-24.78,36.55-49.63,56.52-74.19,2.43-2.99,4.88-5.97,7.34-8.95,7.19-8.7,14.53-17.36,22.01-25.96,12.43-14.3,25.25-28.44,38.49-42.36,34.05-35.83,70.78-70.2,110.24-101.95,4.8-3.88,9.64-7.7,14.53-11.49,2.14-1.66,4.3-3.31,6.46-4.95,12.29-9.37,24.83-18.47,37.62-27.27,3.61-2.49,7.23-4.95,10.88-7.38,39.27-26.21,80.89-49.63,124.91-69.34,56-25.07,108.91-44.88,158.23-60.47,11.75-3.72,23.3-7.2,34.63-10.45,9.2-2.64,18.26-5.14,27.17-7.48,5.83-1.54,11.6-3.01,17.3-4.43h.01c12.59-3.13,24.88-5.99,36.85-8.57,112.82-24.45,197.76-25.93,245.39-23.64h.01c4.66,.22,8.95,.48,12.88,.75,.86,.07,1.71,.13,2.53,.19Z"/>
            <path class="cls-15" d="M964,298.76V866.77c0,60.43-49.44,109.87-109.87,109.87H109.87c-60.43,0-109.87-49.44-109.87-109.87v-21.63c.55-1.09,1.01-2.15,1.36-3.18,.08-.22,.15-.44,.21-.67,3.25-10.51-1.83-21.34,1.87-30.12,1.68-3.97,18.45-19.35,22.48-23.95,7.26-8.3,17.42-14.5,22.21-24.54,2.4-5.05-1.25-40.18,18.4-16.19,1.13-8.89,10.1-15.57,18.58-21.51,.47-.33,.93-.66,1.4-.98,1.82-1.27,3.59-2.51,5.23-3.74,1.47-1.08,2.83-2.16,4.03-3.23,3.25-2.91,17.95-14.48,20.59-18.85,1.5-2.49,2.43-4.87,2.97-7.16,.63-2.62,.76-5.13,.71-7.61-.02-.82-.05-1.65-.1-2.47-.06-1.08-.14-2.16-.22-3.25-.29-4.43-.45-8.9,1.26-13.78,.6-1.71,1.38-3.49,2.3-5.31,5.68-11.29,16.66-24.03,23.61-31.03,1.29-1.3,2.53-2.47,3.74-3.52,15.52-13.58,25.26-8.52,42.91-13.33,24.4-6.65,22.22-27.81,35.28-42.49,5.1-5.72,21.6-13.49,28.41-18.71,11.6-8.89,23.36-19.48,37.45-25.83,4.69-2.12,10.75-7.89,15.97-8.52,4.41-.54,12.33,6.32,16.11,6.42,.07,.01,.13,.01,.19,0,.21,0,.42-.03,.6-.09,15.64-5.07,7.92-10.23,18.14-19.12,1.35-1.17,2.72-2.27,4.12-3.33h.01c.91-.72,1.84-1.39,2.78-2.04,2.77-1.96,5.61-3.77,8.47-5.51,10.59-6.43,21.43-12.01,29.95-21.13,2.24-2.39,4.31-5.02,6.17-7.98,.31-.48,.61-.96,.9-1.46,2.64-4.5-1.66-10.9,2.26-16.07,.11-.15,.22-.29,.34-.42,1.57-1.92,3.14-2.7,4.68-3.01,3.19-.64,6.26,.7,9.16-2.16,.57-.56,1.12-1.13,1.66-1.71,1.43-1.52,2.76-3.08,4.02-4.67h0c.82-1.02,1.6-2.04,2.37-3.07,4.27-5.71,8.11-11.68,13.28-17.37,.29-.33,.6-.66,.91-.99,.66-.7,1.33-1.38,2.03-2.05,6.97-6.77,15.92-12.42,25.35-16.57h.01c3.64-1.6,7.34-2.97,11.04-4.1,6.8-2.09,13.56-3.35,19.74-3.63,4.18-.19,7.82,.32,11.45,.83,5.47,.77,10.95,1.54,18.3-.07,2.05-.44,4.25-1.08,6.64-1.95,1.39-.51,2.74-1.08,4.05-1.71,11.17-5.36,19.63-14.59,29.69-19.92,1.41-.76,2.86-1.43,4.35-2.01,2.18-.84,4.44-1.16,6.78-1.24,7.31-.21,15.33,2.04,23.92-1.55,6.16-2.58,11.27-6.22,16.3-9.89,2.76-2.01,5.5-4.02,8.37-5.85,3.21-2.05,6.6-3.89,10.38-5.25,7.23-2.61,24.11-1.33,29.99-5.23,.71-.47,1.37-.95,1.97-1.42,1.88-1.48,3.28-2.97,4.45-4.45,.83-1.03,1.54-2.07,2.24-3.09h0c1.58-2.37,3.02-4.65,5.35-6.77,.98-.89,2.11-1.75,3.48-2.57,.49-.29,.98-.58,1.47-.85h.01c19.65-11.17,38.25-8.98,57.26-1.51,23.57,9.27,32.2,4.69,50.56-1.54,3.18-1.08,6.65-2.21,10.55-3.33,12.5-3.58,12.3,1.94,23.54-4.01,1.98-1.05,3.4-2.26,4.55-3.52,4.29-4.71,4.85-10.22,16.4-11.19,9.23-.77,23.82,8.23,34.7,8.92,16.2,1.03,26-8.49,39.92-9.04,11.23-.44,20.99,9.61,31.56,11.32,3.67,.6,7.27,.7,10.82,.54Z"/>
            <path class="cls-6" d="M964,557.89v308.88c0,60.43-49.44,109.87-109.87,109.87H139.67c-.11-8.74-.79-17.7,4.77-24.88,6.84-8.85,16.41-5,24.09-11.71,10.96-9.55,8.78-19.57,15.75-30.86,4.22-6.83,15.63-19.19,21.41-24.11,5.42-4.63,11.76-5.34,16.1-8.88,10.75-8.79,21-17.94,28.52-29.83,4.97-7.85,6.21-19.82,13.05-26.63,1.06-1.07,2.27-2.01,3.64-2.79,8.48-4.82,24.95-.28,35.08-1.73,9.8-1.41,10.45-.33,20.62-6.21,1.16-.68,2.44-1.44,3.87-2.3,19.58-11.83,35.52-32.83,55.06-43.01,15.97-8.33,31.4-6.08,42.55-26.4,5.5-10.03,3.46-25,10.04-33.42,12.49-16,19.29-8,34.43-10.05,12.09-1.64,5.05,.67,18.68-5.13,25.7-10.95,34.09-8.24,55.22-30.43,18.3-19.23,36.45-40.65,46.19-65.73,12.09,20.36,38.05,6.12,44.66-11.75,3.07,1.37,12.25,4.33,16.21,1.86,14.75-9.23,9.3-22.95,18.44-30.49,11.9-9.83,14.7-3.3,28.18-.37,17.68,3.85,23.11,3.29,41.89,.61,5.78-.83,8.74,3.74,14.29,2.54,11.52-2.5,19.06-16.35,28.84-18.45,21.01-4.51,31.18,16.9,48.91,20.23,1.12,.21,2.19,.32,3.24,.33,9.15,.17,15.73-6.34,24.87-8.2,12.37-2.51,12.31-1.75,16.24-.58,1.51,.44,3.61,.95,7.25,1.35,19.04,2.1,39.42,4.26,58.56,5.11,8.02,.36,15.88,1.57,23.68,3.16Z"/>
            <path class="cls-13" d="M776.04,212c-18.8-.87-86.48,12.08-79.68,41.79,5.31,23.23,71.11,6.07,83.11-.68,28.78-16.2,24.12-39.15-8.12-38.76l4.7-2.35Z"/>
            <path class="cls-13" d="M67,599.39c-17.51,7.63-63.8,73.45-42.47,89.6s58.92-37.33,66.33-51.02c12.05-22.27,9.11-42.43-23.87-38.58Z"/>
            <path class="cls-13" d="M320.57,446.78c-26.87,9.41-26.44,43.1,2.98,25.53,11.91-7.11,25.14-36.75,1.71-30.23l-4.7,4.7Z"/>
            <path class="cls-13" d="M466.13,266c-37.78,19.03-56.82,79.01,2.83,77.27,26.19-.76,105.78-46.61,105.2-77.2-.89-46.33-89.87-14.95-108.03-.08Z"/>
            <path class="cls-13" d="M964,194.86v73.1c-2.05-.21-4.02-.44-5.91-.68-21.86-2.77-63.17-14.84-55.58-43.42,6.3-23.73,36.24-29.92,61.49-29Z"/>
            <path class="cls-13" d="M158.57,519.57c-5.27,5.12-9.51,10.93-12.73,17.43,8.43,8.45,18.98,4.48,26.46-3.8-1.13-5.21-4.3-8.58-9.04-11.28l-4.7-2.35Z"/>
            <path class="cls-7" d="M665.7,402.18c-44.27,15.41-25.98,55.12,14.13,28.23,23.38-15.67,21.56-32.73-7.09-32.92l-7.04,4.7Z"/>
            <path class="cls-6" d="M356.57,622.09c-16.1,7.26-98.85,73.61-72.03,93.91,22.09,16.72,99.32-52.16,109.61-69.08,22.18-36.46-17.97-29.44-37.58-24.83Z"/>
            <path class="cls-6" d="M924.74,387.31c-21.93-7.37-75.92,16.65-49.43,41.53,18.91,17.76,51.57,14.1,70.63-1.23,22.96-18.46,4.56-42.85-21.21-40.3Z"/>
            <g>
              <path class="cls-8" d="M545,489s15.14-3.56,38.5-9.85c3.09-.83,6.33-1.71,9.69-2.64,13.06-3.59,28.05-7.88,44.03-12.74,3.18-.97,6.4-1.96,9.65-2.97,11.75-3.66,23.91-7.61,36.13-11.8,.96-.33,1.92-.67,2.85-1.01,3.25-1.17,6.36-2.4,9.31-3.68,18.23-7.87,31.01-17.62,39.01-28.41,2.44-3.28,4.44-6.67,6.01-10.12,9.53-20.94,3.47-44.5-13.88-65.25-.43-.51-.86-1.02-1.3-1.53-20.76-18.01-44.89-25.76-70.04-26.64-5.88-.21-11.83-.04-17.8,.46-14,1.17-28.13,4.18-42.02,8.45-3.95,1.22-7.87,2.53-11.77,3.94-11.77,4.25-23.27,9.31-34.26,14.83-3.33,1.67-6.61,3.39-9.83,5.14-11.39,6.16-22.1,12.73-31.84,19.28-3.14,2.11-6.18,4.21-9.11,6.3-14.05,10.02-25.53,19.64-33.33,27.24,6.56,2.6,12.66,5.78,18.32,9.37,44.38,28.15,61.68,81.63,61.68,81.63Z"/>
              <path class="cls-8" d="M964,632.56v115.29c-5.45,3.9-11.6,7.47-18.45,10.64-2.94,1.38-6.02,2.68-9.22,3.89-10.75,4.1-22.94,7.32-36.51,9.48-3.33,.54-6.74,1.01-10.24,1.41-12.23,1.42-25.48,2.02-39.71,1.71-3.5-.08-7.06-.21-10.68-.4-11.48-.6-23.55-1.77-36.19-3.58,0,0-2.93-14.89-11.15-34.48-4.84-11.53-11.5-24.68-20.48-37.39-2.91-4.14-6.08-8.22-9.5-12.19-5.83-6.77-12.43-13.21-19.87-18.94,.85-.66,1.75-1.34,2.69-2.03,6.24-4.61,14.3-9.84,23.7-15.2,.81-.47,1.63-.94,2.47-1.4,2.14-1.21,4.35-2.41,6.61-3.61,.82-.44,1.65-.87,2.48-1.31,7.59-3.96,15.8-7.89,24.43-11.58,.88-.38,1.77-.76,2.66-1.13,1.24-.52,2.49-1.03,3.74-1.54,1.17-.47,2.35-.94,3.53-1.4,.88-.35,1.77-.69,2.66-1.03,10.23-3.92,20.89-7.43,31.69-10.23,.98-.26,1.96-.5,2.94-.75,2.22-.55,4.45-1.07,6.67-1.54,.53-.13,1.05-.24,1.58-.35,.98-.2,1.95-.4,2.93-.59h0c11.04-2.18,22.1-3.52,32.89-3.69,1.82-.03,3.63-.04,5.43,0,3.87,.07,7.69,.3,11.46,.71,1.82,.19,3.62,.43,5.41,.71,17.1,2.61,32.9,8.99,46.02,20.52Z"/>
              <path class="cls-8" d="M404.65,557.42c13.95-5.57,27.33-13.2,37.96-19.25,2.64-1.51,5.12-2.92,7.39-4.17,.45-.25,.89-.49,1.34-.74,9.03-4.98,18.38-10.12,26.96-14.82,3.07-1.68,6.03-3.31,8.85-4.85,14.35-7.86,24.85-13.59,24.85-13.59,0,0-22.67-49.46-58.33-76.64-7.36-5.62-15.28-10.28-23.67-13.36-7.66,3.77-15.22,7.78-22.56,11.99-3.17,1.82-6.29,3.68-9.36,5.57-8.8,5.43-17.17,11.16-24.89,17.15-2.73,2.11-5.38,4.26-7.93,6.44-9.12,7.78-17.05,15.93-23.31,24.37-2.07,2.78-3.95,5.59-5.64,8.42-10.82,18.24-13.44,37.57-3.31,57.06,4.12,7.92,9.14,13.56,14.79,17.37,13.43,9.07,30.42,7.84,47.28,2.5,3.2-1.01,6.41-2.17,9.58-3.45Z"/>
              <path class="cls-8" d="M557.66,976.64h-174.16c.3-1.24,.61-2.5,.95-3.79,2.08-8.05,4.83-16.96,8.42-26.73,.56-1.54,1.15-3.1,1.76-4.68,.62-1.64,1.28-3.3,1.96-4.98,.46-1.14,.93-2.29,1.41-3.46,.17-.4,.33-.8,.5-1.19,4.23-9.91,9.23-18.26,14.82-25.18,1.19-1.49,2.41-2.91,3.67-4.27,1.47-1.61,2.99-3.14,4.54-4.57,1.57-1.46,3.17-2.82,4.8-4.09,12.79-10.07,27.28-14.78,41.73-15.42,4.58-.2,9.14,0,13.65,.57,26.2,3.32,50.32,19.05,61.29,39.15,1.17,2.15,2.27,4.27,3.3,6.37,.98,1.99,1.89,3.96,2.74,5.9,1.29,2.96,2.44,5.88,3.44,8.76,.64,1.81,1.22,3.62,1.74,5.41,.56,1.93,1.06,3.84,1.49,5.74,2.06,9.01,2.68,17.74,1.95,26.46Z"/>
              <path class="cls-8" d="M279.82,674.72c-5.27-11.34-15.39-21.5-31.82-29.72-3.78-1.89-7.56-3.46-11.34-4.72-21.55-7.23-42.92-4.67-62.77,3.78-5.52,2.35-10.93,5.16-16.19,8.34-14.54,8.79-27.96,20.42-39.63,33.12-2.72,2.96-5.35,5.98-7.87,9.03-9.38,11.34-17.34,23.16-23.48,34.31-1.76,3.18-3.36,6.3-4.81,9.34-4.84,10.18-7.93,19.45-8.91,26.8,0,0,10.7,3.3,26.22,8.68,30.48,10.54,79.59,29.09,102.78,46.32,11.14-9.1,23.95-20.94,36.08-34.3,2.33-2.56,4.63-5.18,6.89-7.84,9.93-11.69,19.07-24.28,26.04-37.05,1.62-2.95,3.11-5.91,4.48-8.87,6.97-15.13,10.49-30.28,8.27-44.25-.7-4.46-1.99-8.79-3.94-12.97Z"/>
              <path class="cls-8" d="M63,797s-6.14,7.71-12.97,20.49c-1.53,2.85-3.08,5.95-4.62,9.28-3.93,8.54-7.7,18.56-10.26,29.55-.75,3.21-1.4,6.5-1.91,9.87-1.63,10.55-2,21.8-.32,33.37,.5,3.44,1.18,6.9,2.06,10.38,.01,.02,.01,.04,.02,.06,4.95,19.45,15.97,32.81,29.25,40.98,27.01,16.63,63.34,11.79,76.75-6.98,2.86-4.01,5.33-8.26,7.52-12.69,1.49-3,2.84-6.08,4.1-9.22,2.86-7.14,5.24-14.61,7.51-22.17,.97-3.21,1.92-6.45,2.88-9.68,2.56-8.57,5.21-17.14,8.51-25.36,1.25-3.1,2.59-6.15,4.05-9.14,1.64-3.34,3.44-6.59,5.43-9.74-27.34-23.74-76.41-38.68-101.8-45.2-9.9-2.54-16.2-3.8-16.2-3.8Z"/>
              <path class="cls-8" d="M697,685s-8.32,1.08-21.01,3.86c-3.42,.75-7.17,1.63-11.15,2.64-9.85,2.51-21.16,5.85-32.75,10.21-3.23,1.22-6.47,2.51-9.71,3.89-8.95,3.79-17.88,8.23-26.26,13.38-2.87,1.77-5.68,3.62-8.41,5.56-9.38,6.69-17.73,14.42-24.16,23.34-2.19,3.01-4.14,6.15-5.84,9.43-4.88,9.38-7.71,19.9-7.71,31.69,.77,3.78,2.11,7.39,3.98,10.81,7.84,14.47,24.91,25.61,46.94,31.85,4.11,1.17,8.4,2.16,12.83,2.98,14.34,2.64,30.19,3.38,46.63,1.89h.01c3.49-.31,7.01-.73,10.55-1.26,10.55-1.55,21.25-4.03,31.86-7.53,3.18-1.05,6.35-2.19,9.51-3.42,11.19-4.37,22.21-9.91,32.76-16.74,2.8-1.82,5.58-3.72,8.31-5.73,5.37-3.92,10.59-8.2,15.62-12.85,0,0-13.68-46.89-45.77-81.81-7.66-8.35-16.39-16.02-26.23-22.19Z"/>
            </g>
            <path class="cls-16" d="M511,495s-10.5,5.73-24.85,13.59c-2.82,1.54-5.78,3.17-8.85,4.85-8.58,4.7-17.93,9.84-26.96,14.82-.45,.25-.89,.49-1.34,.74-2.27,1.25-4.75,2.66-7.39,4.17-10.63,6.05-24.01,13.68-37.96,19.25-3.17,1.28-6.38,2.44-9.58,3.45-16.86,5.34-33.85,6.57-47.28-2.5-5.65-3.81-10.67-9.45-14.79-17.37-10.13-19.49-7.51-38.82,3.31-57.06,1.69-2.83,3.57-5.64,5.64-8.42,6.26-8.44,14.19-16.59,23.31-24.37,2.55-2.18,5.2-4.33,7.93-6.44,7.72-5.99,16.09-11.72,24.89-17.15,3.07-1.89,6.19-3.75,9.36-5.57,7.34-4.21,14.9-8.22,22.56-11.99,8.39,3.08,16.31,7.74,23.67,13.36,35.66,27.18,58.33,76.64,58.33,76.64Z"/>
            <path class="cls-16" d="M739.18,400.78c-1.57,3.45-3.57,6.84-6.01,10.12-8,10.79-20.78,20.54-39.01,28.41-2.95,1.28-6.06,2.51-9.31,3.68-.93,.34-1.89,.68-2.85,1.01-12.22,4.19-24.38,8.14-36.13,11.8-3.25,1.01-6.47,2-9.65,2.97-15.98,4.86-30.97,9.15-44.03,12.74-3.36,.93-6.6,1.81-9.69,2.64-23.36,6.29-38.5,9.85-38.5,9.85,0,0-17.3-53.48-61.68-81.63-5.66-3.59-11.76-6.77-18.32-9.37,7.8-7.6,19.28-17.22,33.33-27.24,2.93-2.09,5.97-4.19,9.11-6.3,9.74-6.55,20.45-13.12,31.84-19.28,3.22-1.75,6.5-3.47,9.83-5.14,10.99-5.52,22.49-10.58,34.26-14.83,3.9-1.41,7.82-2.72,11.77-3.94,13.89-4.27,28.02-7.28,42.02-8.45,5.97-.5,11.92-.67,17.8-.46,25.15,.88,49.28,8.63,70.04,26.64,.44,.51,.87,1.02,1.3,1.53,17.35,20.75,23.41,44.31,13.88,65.25Z"/>
            <path class="cls-16" d="M274.49,726.94c-1.37,2.96-2.86,5.92-4.48,8.87-6.97,12.77-16.11,25.36-26.04,37.05-2.26,2.66-4.56,5.28-6.89,7.84-12.13,13.36-24.94,25.2-36.08,34.3-23.19-17.23-72.3-35.78-102.78-46.32-15.52-5.38-26.22-8.68-26.22-8.68,.98-7.35,4.07-16.62,8.91-26.8,1.45-3.04,3.05-6.16,4.81-9.34,6.14-11.15,14.1-22.97,23.48-34.31,2.52-3.05,5.15-6.07,7.87-9.03,11.67-12.7,25.09-24.33,39.63-33.12,5.26-3.18,10.67-5.99,16.19-8.34,19.85-8.45,41.22-11.01,62.77-3.78,3.78,1.26,7.56,2.83,11.34,4.72,16.43,8.22,26.55,18.38,31.82,29.72,1.95,4.18,3.24,8.51,3.94,12.97,2.22,13.97-1.3,29.12-8.27,44.25Z"/>
            <path class="cls-16" d="M180,841c-1.99,3.15-3.79,6.4-5.43,9.74-1.46,2.99-2.8,6.04-4.05,9.14-3.3,8.22-5.95,16.79-8.51,25.36-.96,3.23-1.91,6.47-2.88,9.68-2.27,7.56-4.65,15.03-7.51,22.17-1.26,3.14-2.61,6.22-4.1,9.22-2.19,4.43-4.66,8.68-7.52,12.69-13.41,18.77-49.74,23.61-76.75,6.98-13.28-8.17-24.3-21.53-29.25-40.98-.01-.02-.01-.04-.02-.06-.88-3.48-1.56-6.94-2.06-10.38-1.68-11.57-1.31-22.82,.32-33.37,.51-3.37,1.16-6.66,1.91-9.87,2.56-10.99,6.33-21.01,10.26-29.55,1.54-3.33,3.09-6.43,4.62-9.28,6.83-12.78,12.97-20.49,12.97-20.49,0,0,6.3,1.26,16.2,3.8,25.39,6.52,74.46,21.46,101.8,45.2Z"/>
            <path class="cls-16" d="M768,784c-5.03,4.65-10.25,8.93-15.62,12.85-2.73,2.01-5.51,3.91-8.31,5.73-10.55,6.83-21.57,12.37-32.76,16.74-3.16,1.23-6.33,2.37-9.51,3.42-10.61,3.5-21.31,5.98-31.86,7.53-3.54,.53-7.06,.95-10.55,1.26h-.01c-16.44,1.49-32.29,.75-46.63-1.89-4.43-.82-8.72-1.81-12.83-2.98-22.03-6.24-39.1-17.38-46.94-31.85-1.87-3.42-3.21-7.03-3.98-10.81,0-11.79,2.83-22.31,7.71-31.69,1.7-3.28,3.65-6.42,5.84-9.43,6.43-8.92,14.78-16.65,24.16-23.34,2.73-1.94,5.54-3.79,8.41-5.56,8.38-5.15,17.31-9.59,26.26-13.38,3.24-1.38,6.48-2.67,9.71-3.89,11.59-4.36,22.9-7.7,32.75-10.21,3.98-1.01,7.73-1.89,11.15-2.64,12.69-2.78,21.01-3.86,21.01-3.86,9.84,6.17,18.57,13.84,26.23,22.19,32.09,34.92,45.77,81.81,45.77,81.81Z"/>
            <path class="cls-16" d="M964,628.45v113.67c-5.68,4.19-12.18,8.01-19.45,11.37-2.94,1.38-6.02,2.68-9.22,3.89-10.75,4.1-22.94,7.32-36.51,9.48-3.33,.54-6.74,1.01-10.24,1.41-12.23,1.42-25.48,2.02-39.71,1.71-3.5-.08-7.06-.21-10.68-.4-11.48-.6-23.55-1.77-36.19-3.58,0,0-2.53-12.83-9.46-30.34-4.56-11.5-11.02-25.03-19.91-38.27-3.53-5.24-7.44-10.44-11.76-15.45-4.85-5.63-10.23-11.03-16.18-15.97-1.21-1.02-2.44-2-3.69-2.97,6.54-5.07,15.58-11.06,26.39-17.23,2.9-1.67,5.94-3.34,9.08-5.01,8.27-4.4,17.33-8.79,26.91-12.89,3.25-1.4,6.57-2.76,9.93-4.07,.06-.02,.13-.05,.19-.08,10.98-4.3,22.49-8.16,34.16-11.18,3.72-.97,7.45-1.85,11.19-2.64,.42-.09,.84-.18,1.26-.26,11.59-2.38,23.23-3.84,34.57-4.02,5.72-.11,11.37,.12,16.89,.71,19.62,2.09,37.75,8.8,52.43,22.12Z"/>
            <path class="cls-16" d="M556.56,972.88c-.12,1.25-.27,2.5-.45,3.76h-174.76c.28-1.31,.59-2.65,.91-4.01,2.2-9.26,5.29-19.77,9.61-31.51,1.14-3.13,2.38-6.35,3.72-9.66,.46-1.14,.93-2.29,1.41-3.46,4.33-10.43,9.51-19.17,15.32-26.37,2.61-3.26,5.36-6.2,8.21-8.84,17.79-16.52,39.63-21.54,60.18-18.94,26.2,3.32,50.32,19.05,61.29,39.15,2.28,4.18,4.3,8.27,6.04,12.27,2.11,4.83,3.83,9.54,5.18,14.17,1.06,3.63,1.89,7.2,2.49,10.74,1.31,7.68,1.58,15.19,.85,22.7Z"/>
            <path class="cls-10" d="M592.19,471.51c-3.36,.93-6.6,1.81-9.69,2.64-16.16-41.46-37.13-68.03-52.95-83.67-4.47-4.41-8.75-8.18-12.7-11.38-8.4-6.82-15.35-11.06-19.52-13.34,2.93-2.09,5.97-4.19,9.11-6.3,5.01,3.03,11.69,7.57,19.31,14.01,3.3,2.78,6.78,5.92,10.38,9.46,16.8,16.5,39.11,44.63,56.06,88.58Z"/>
            <path class="cls-10" d="M645.87,455.8c-3.25,1.01-6.47,2-9.65,2.97-18.84-39.34-45.89-74.9-78.85-103.38-6.16-5.33-12.53-10.4-19.09-15.21,3.22-1.75,6.5-3.47,9.83-5.14,6.5,4.92,12.81,10.11,18.92,15.53,32.95,29.23,59.98,65.37,78.84,105.23Z"/>
            <path class="cls-10" d="M694.16,439.31c-2.95,1.28-6.06,2.51-9.31,3.68-18.66-41.28-46.75-78.16-81.66-107.04-6.7-5.56-13.64-10.81-20.82-15.74,3.9-1.41,7.82-2.72,11.77-3.94,7.07,5.12,13.91,10.55,20.5,16.27,33.84,29.29,61.14,65.96,79.52,106.77Z"/>
            <path class="cls-10" d="M739.18,400.78c-1.57,3.45-3.57,6.84-6.01,10.12-17.56-32.97-42.14-62.44-71.47-85.44-8.16-6.4-16.69-12.3-25.54-17.64,5.97-.5,11.92-.67,17.8-.46,8.23,5.62,16.19,11.72,23.82,18.27,14.14,12.14,27.15,25.81,38.68,40.73,8.44,10.92,16.04,22.45,22.72,34.42Z"/>
            <path class="cls-10" d="M486.15,508.59c-2.82,1.54-5.78,3.17-8.85,4.85-15.97-29.34-37.46-55.85-62.87-77.39-5.59-4.75-11.38-9.25-17.35-13.49,3.07-1.89,6.19-3.75,9.36-5.57,6.02,4.42,11.84,9.07,17.48,13.98,15.22,13.21,29.02,28.18,41.25,44.72,7.81,10.56,14.81,21.54,20.98,32.9Z"/>
            <path class="cls-10" d="M450.34,528.26c-.45,.25-.89,.49-1.34,.74-2.27,1.25-4.75,2.66-7.39,4.17-17.17-26.85-37.77-51.42-61.28-73.06-5.21-4.8-10.57-9.45-16.07-13.96,2.55-2.18,5.2-4.33,7.93-6.44,5.42,4.49,10.71,9.13,15.85,13.91,23.9,22.14,44.83,47.24,62.3,74.64Z"/>
            <path class="cls-10" d="M403.65,552.42c-3.17,1.28-6.38,2.44-9.58,3.45-12.44-21.08-26.32-41.7-42.54-60.1-5.16-5.85-10.56-11.48-16.22-16.83,1.69-2.83,3.57-5.64,5.64-8.42,5.58,5.2,10.91,10.65,16.01,16.3,18.05,20.03,33.21,42.6,46.69,65.6Z"/>
            <path class="cls-10" d="M848.87,769.98c-3.5-.08-7.06-.21-10.68-.4-3.65-10.8-7.62-21.48-12.02-31.95-11.15-26.58-24.31-49.81-39.32-69.45-6.18-8.09-12.67-15.56-19.46-22.41,2.9-1.67,5.94-3.34,9.08-5.01,6.79,7.02,13.28,14.63,19.46,22.84,15.06,20,28.27,43.46,39.47,70.17,4.98,11.88,9.42,23.98,13.47,36.21Z"/>
            <path class="cls-10" d="M898.82,766.86c-3.33,.54-6.74,1.01-10.24,1.41-17.02-41.23-37.43-82.1-65.17-117.36-6.29-7.99-12.95-15.69-20.03-23.04,3.25-1.4,6.57-2.76,9.93-4.07,6.97,7.43,13.54,15.19,19.74,23.2,28.08,36.31,48.63,77.99,65.77,119.86Z"/>
            <path class="cls-10" d="M944.55,753.49c-2.94,1.38-6.02,2.68-9.22,3.89-17.5-42.74-38.98-84.91-67.64-121.51-6.32-8.07-12.98-15.86-20.03-23.33,3.72-.97,7.45-1.85,11.19-2.64,6.9,7.58,13.43,15.45,19.62,23.57,27.87,36.52,48.89,78.03,66.08,120.02Z"/>
            <path class="cls-10" d="M964,670.07v20.47c-12.39-23.58-26.5-43.83-42.2-60.59h-.01c-6.61-7.07-13.51-13.52-20.68-19.33-2.12-1.73-4.26-3.39-6.43-5,5.72-.11,11.37,.12,16.89,.71,2.16,1.85,4.29,3.75,6.41,5.71,6.32,5.87,12.42,12.24,18.29,19.1,9.93,11.6,19.19,24.58,27.73,38.93Z"/>
            <path class="cls-10" d="M752.38,796.85c-2.73,2.01-5.51,3.91-8.31,5.73-17.42-35.05-39-68.01-64.23-97.99-5.18-6.16-10.51-12.19-16-18.09,3.98-1.01,7.73-1.89,11.15-2.64,5.71,6.28,11.26,12.71,16.63,19.27,23.68,28.88,44.07,60.36,60.76,93.72Z"/>
            <path class="cls-10" d="M711.31,819.32c-3.16,1.23-6.33,2.37-9.51,3.42-19.51-37.31-42.2-72.83-67.9-106.28-4.09-5.34-8.27-10.63-12.52-15.86,3.24-1.38,6.48-2.67,9.71-3.89,4.34,5.38,8.59,10.81,12.77,16.3,25.5,33.51,48.04,69.04,67.45,106.31Z"/>
            <path class="cls-10" d="M669.94,830.27c-3.54,.53-7.06,.95-10.55,1.26h-.01c-17.43-34.51-36.99-67.93-61.07-98.1-3.74-4.71-7.61-9.35-11.6-13.89,2.73-1.94,5.54-3.79,8.41-5.56,4.13,4.75,8.14,9.58,12.01,14.49,24.9,31.43,44.96,66.11,62.81,101.8Z"/>
            <path class="cls-10" d="M612.75,829.64c-4.43-.82-8.72-1.81-12.83-2.98-11.21-21.31-23.17-42.21-35.85-62.65-2.42-3.92-4.88-7.82-7.36-11.7,1.7-3.28,3.65-6.42,5.84-9.43,2.72,4.22,5.41,8.45,8.07,12.71,15.04,24.08,29.1,48.8,42.13,74.05Z"/>
            <path class="cls-10" d="M553.22,939.44c-11.94-6.61-24.24-13.06-37.02-17.7-18.46-6.71-38.41-9.84-57.7-12.87l-24.46-3.84-21.72-3.4c2.61-3.26,5.36-6.2,8.21-8.84l21.49,3.37,18.03,2.83c19.76,3.1,40.19,6.31,59.57,13.35,9.84,3.58,19.27,8.1,28.42,12.93,2.11,4.83,3.83,9.54,5.18,14.17Z"/>
            <path class="cls-10" d="M556.56,972.88c-.12,1.25-.27,2.5-.45,3.76h-17.25c-40.54-15.42-82.99-26.5-125.81-32.79-6.13-.91-12.27-1.71-18.42-2.41-.92-.11-1.84-.22-2.76-.32,1.14-3.13,2.38-6.35,3.72-9.66,.97,.11,1.94,.22,2.91,.35,6.09,.72,12.19,1.55,18.27,2.47,47.77,7.22,95.06,20.27,139.79,38.6Z"/>
            <path class="cls-10" d="M414.54,976.64h-33.19c.28-1.31,.59-2.65,.91-4.01,.73,.07,1.46,.14,2.19,.22,6.92,.69,13.81,1.51,20.69,2.44,3.14,.42,6.27,.87,9.4,1.35Z"/>
            <path class="cls-10" d="M282.76,682.69c-31.24-15.47-64.86-26.32-99.21-31.96-8.91-1.47-17.87-2.58-26.85-3.33,5.26-3.18,10.67-5.99,16.19-8.34,8.53,1.09,17.03,2.5,25.47,4.22,27.7,5.63,54.79,14.54,80.46,26.44,1.95,4.18,3.24,8.51,3.94,12.97Z"/>
            <path class="cls-10" d="M243.97,772.86c-2.26,2.66-4.56,5.28-6.89,7.84-40.25-18.33-82.66-32.42-125.8-41.75-10.09-2.18-20.22-4.1-30.37-5.75,1.45-3.04,3.05-6.16,4.81-9.34,10.05,1.7,20.09,3.65,30.08,5.86,44,9.69,87.2,24.24,128.17,43.14Z"/>
            <path class="cls-10" d="M274.49,726.94c-1.37,2.96-2.86,5.92-4.48,8.87-36.78-18.88-80.33-32.6-132.61-41.83-9.13-1.61-18.53-3.09-28.2-4.43,2.52-3.05,5.15-6.07,7.87-9.03,8.81,1.27,17.95,2.74,27.34,4.47,41.3,7.57,87.24,19.99,130.08,41.95Z"/>
            <path class="cls-10" d="M174.57,850.74c-1.46,2.99-2.8,6.04-4.05,9.14-34.33-14.2-69.78-25.51-106.03-33.83-6.67-1.53-13.36-2.95-20.08-4.28,1.54-3.33,3.09-6.43,4.62-9.28,6.33,1.28,12.64,2.64,18.92,4.1,36.45,8.43,72.1,19.85,106.62,34.15Z"/>
            <path class="cls-10" d="M162.01,885.24c-.96,3.23-1.91,6.47-2.88,9.68-32.87-15.11-67.81-25.55-103.6-30.93-7.73-1.18-15.5-2.11-23.29-2.8,.51-3.37,1.16-6.66,1.91-9.87,7.73,.71,15.44,1.64,23.11,2.81,36.16,5.47,71.48,15.97,104.75,31.11Z"/>
            <path class="cls-10" d="M151.62,917.09c-1.26,3.14-2.61,6.22-4.1,9.22-2.78-.81-5.54-1.54-8.23-2.23-28.63-7.35-58.16-12.31-87.39-16.59-5.99-.87-11.97-1.72-17.92-2.55-.88-3.48-1.56-6.94-2.06-10.38,6.64,.92,13.31,1.86,20,2.83,29.96,4.36,60.3,9.42,89.85,17,3.22,.82,6.52,1.7,9.85,2.7Z"/>
            <path class="cls-1" d="M452.67,418.36c-9.73,3.7-19.39,7.88-28.75,12.61-3.2,1.62-6.37,3.31-9.49,5.08-9.29,5.21-18.16,11.04-26.39,17.57-2.64,2.08-5.22,4.25-7.71,6.49-8.86,7.93-16.77,16.79-23.37,26.71-1.46,2.18-2.85,4.42-4.17,6.71-.43,.74-.85,1.49-1.26,2.24-5.78,10.55-9.93,22.17-10.17,34.16-.16,8.08,1.64,16.35,5.43,23.44-5.65-3.81-10.67-9.45-14.79-17.37-10.13-19.49-7.51-38.82,3.31-57.06,1.69-2.83,3.57-5.64,5.64-8.42,6.26-8.44,14.19-16.59,23.31-24.37,2.55-2.18,5.2-4.33,7.93-6.44,7.72-5.99,16.09-11.72,24.89-17.15,3.07-1.89,6.19-3.75,9.36-5.57,7.34-4.21,14.9-8.22,22.56-11.99,8.39,3.08,16.31,7.74,23.67,13.36Z"/>
            <path class="cls-1" d="M725.3,335.53c-15.07-5.83-31.15-9-47.52-9.9-5.34-.3-10.71-.35-16.08-.17-15.87,.5-31.78,2.98-47.06,7.08-2.48,.67-4.93,1.37-7.37,2.12-1.37,.42-2.73,.85-4.08,1.29-12.41,4.03-24.43,8.99-36.16,14.62-3.24,1.56-6.46,3.16-9.66,4.82-10.76,5.57-21.27,11.66-31.62,18.08-2.98,1.85-5.95,3.72-8.9,5.63-11.68,7.5-23.16,15.36-34.53,23.27-5.66-3.59-11.76-6.77-18.32-9.37,7.8-7.6,19.28-17.22,33.33-27.24,2.93-2.09,5.97-4.19,9.11-6.3,9.74-6.55,20.45-13.12,31.84-19.28,3.22-1.75,6.5-3.47,9.83-5.14,10.99-5.52,22.49-10.58,34.26-14.83,3.9-1.41,7.82-2.72,11.77-3.94,13.89-4.27,28.02-7.28,42.02-8.45,5.97-.5,11.92-.67,17.8-.46,25.15,.88,49.28,8.63,70.04,26.64,.44,.51,.87,1.02,1.3,1.53Z"/>
            <path class="cls-1" d="M235.66,635.28c-12.75,.31-25.55,3.09-37.3,8-.45,.17-.89,.36-1.33,.55-4.65,2.01-9.15,4.32-13.48,6.9-14.93,8.83-27.98,20.75-39.14,34.26-2.43,2.93-4.76,5.93-7.01,8.99-2.18,2.98-4.28,6.01-6.3,9.09-5.62,8.58-10.66,17.51-15.3,26.65-1.55,3.05-3.05,6.13-4.52,9.23-4.64,9.76-8.92,19.72-13.06,29.73-15.52-5.38-26.22-8.68-26.22-8.68,.98-7.35,4.07-16.62,8.91-26.8,1.45-3.04,3.05-6.16,4.81-9.34,6.14-11.15,14.1-22.97,23.48-34.31,2.52-3.05,5.15-6.07,7.87-9.03,11.67-12.7,25.09-24.33,39.63-33.12,5.26-3.18,10.67-5.99,16.19-8.34,19.85-8.45,41.22-11.01,62.77-3.78Z"/>
            <path class="cls-1" d="M78.2,795.8c-4,6.63-7.38,13.59-10.25,20.79-1.25,3.11-2.4,6.27-3.46,9.46-3.04,9.13-5.38,18.55-7.23,28.08-.63,3.28-1.21,6.57-1.73,9.86-.75,4.64-1.39,9.3-1.95,13.94-.78,6.44-1.43,12.95-1.66,19.46-.13,3.37-.15,6.74-.02,10.1,.27,6.53,1.1,13.01,2.77,19.35,1.78,6.75,4.67,13.33,8.58,19.14-13.28-8.17-24.3-21.53-29.25-40.98-.01-.02-.01-.04-.02-.06-.88-3.48-1.56-6.94-2.06-10.38-1.68-11.57-1.31-22.82,.32-33.37,.51-3.37,1.16-6.66,1.91-9.87,2.56-10.99,6.33-21.01,10.26-29.55,1.54-3.33,3.09-6.43,4.62-9.28,6.83-12.78,12.97-20.49,12.97-20.49,0,0,6.3,1.26,16.2,3.8Z"/>
            <path class="cls-1" d="M480.71,873.85c-4.32,1.13-8.55,2.61-12.65,4.43-6.97,3.08-13.53,7.11-19.39,11.9-2.32,1.89-4.53,3.89-6.65,5.98-2.84,2.8-5.5,5.76-7.98,8.87-7.07,8.81-12.78,18.75-17.27,29.25-1.35,3.14-2.59,6.34-3.72,9.57-1.55,4.41-2.91,8.88-4.08,13.38-1.55,5.97-2.81,11.99-3.83,18.06-.08,.45-.15,.9-.22,1.35h-23.57c.28-1.31,.59-2.65,.91-4.01,2.2-9.26,5.29-19.77,9.61-31.51,1.14-3.13,2.38-6.35,3.72-9.66,.46-1.14,.93-2.29,1.41-3.46,4.33-10.43,9.51-19.17,15.32-26.37,2.61-3.26,5.36-6.2,8.21-8.84,17.79-16.52,39.63-21.54,60.18-18.94Z"/>
            <path class="cls-1" d="M722.23,702.19c-10.21-.38-20.44-.07-30.61,.94-3.94,.38-7.87,.87-11.78,1.46-12.2,1.83-24.24,4.65-35.98,8.42-3.35,1.07-6.67,2.22-9.96,3.45-9.17,3.41-18.12,7.42-26.77,12.01-.37,.19-.75,.39-1.12,.59-2.59,1.39-5.16,2.84-7.7,4.37-10.23,6.11-19.85,13.32-27.69,22.16-1.86,2.09-3.62,4.28-5.26,6.56-.44,.61-.87,1.23-1.29,1.86-6.15,9.16-10.25,19.92-11.09,30.8-1.87-3.42-3.21-7.03-3.98-10.81,0-11.79,2.83-22.31,7.71-31.69,1.7-3.28,3.65-6.42,5.84-9.43,6.43-8.92,14.78-16.65,24.16-23.34,2.73-1.94,5.54-3.79,8.41-5.56,8.38-5.15,17.31-9.59,26.26-13.38,3.24-1.38,6.48-2.67,9.71-3.89,11.59-4.36,22.9-7.7,32.75-10.21,3.98-1.01,7.73-1.89,11.15-2.64,12.69-2.78,21.01-3.86,21.01-3.86,9.84,6.17,18.57,13.84,26.23,22.19Z"/>
            <path class="cls-1" d="M964,628.45v8.76c-8.95-2.88-18.26-4.88-27.73-6.07-4.79-.6-9.62-.99-14.47-1.19h-.01c-12.87-.5-25.83,.42-38.38,2.6-1.65,.29-3.3,.59-4.94,.92-3.62,.71-7.21,1.52-10.78,2.4-6.51,1.61-12.95,3.5-19.32,5.62-5.15,1.69-10.25,3.54-15.32,5.51-3.23,1.26-6.44,2.56-9.64,3.91-9.27,3.91-18.42,8.19-27.48,12.69-.8,.39-1.59,.79-2.38,1.19-2.24,1.11-4.48,2.25-6.7,3.39-8.73,4.48-17.38,9.11-25.98,13.76-4.85-5.63-10.23-11.03-16.18-15.97-1.21-1.02-2.44-2-3.69-2.97,6.54-5.07,15.58-11.06,26.39-17.23,2.9-1.67,5.94-3.34,9.08-5.01,8.27-4.4,17.33-8.79,26.91-12.89,3.25-1.4,6.57-2.76,9.93-4.07,.06-.02,.13-.05,.19-.08,10.98-4.3,22.49-8.16,34.16-11.18,3.72-.97,7.45-1.85,11.19-2.64,.42-.09,.84-.18,1.26-.26,11.59-2.38,23.23-3.84,34.57-4.02,5.72-.11,11.37,.12,16.89,.71,19.62,2.09,37.75,8.8,52.43,22.12Z"/>
            <path class="cls-19" d="M964,161.2V846.8c0,1.77-.04,3.54-.11,5.3-2.8,68.98-60.1,124.54-129.73,124.54H129.84C58.43,976.64,0,918.21,0,846.8V161.2C0,89.79,58.43,31.37,129.84,31.37H834.16c52.36,0,97.73,31.4,118.22,76.31,4.05,8.86,7.12,18.25,9.09,28.03,1.52,7.57,2.38,15.37,2.51,23.34,.01,.72,.02,1.43,.02,2.15Z"/>
          </g>
        </g>
      </g>
    </g>
  </g>
</svg>