<?xml version="1.0" encoding="UTF-8"?>
<svg xmlns="http://www.w3.org/2000/svg" xmlns:xlink="http://www.w3.org/1999/xlink" viewBox="0 0 964 976.64">
  <defs>
    <style>
      .cls-1, .cls-2 {
        fill: #fff;
      }

      .cls-3 {
        fill: #d15642;
      }

      .cls-4 {
        isolation: isolate;
      }

      .cls-5 {
        fill: #e8da9a;
      }

      .cls-6 {
        fill: #d3e1e2;
      }

      .cls-7 {
        fill: #d3aeff;
        opacity: .36;
      }

      .cls-7, .cls-2 {
        mix-blend-mode: overlay;
      }

      .cls-8 {
        fill: #aabbbc;
      }

      .cls-9 {
        clip-path: url(#clippath);
      }

      .cls-10 {
        fill: none;
      }

      .cls-2 {
        opacity: .43;
      }

      .cls-11 {
        fill: #677f8c;
        opacity: .35;
      }

      .cls-11, .cls-12 {
        mix-blend-mode: multiply;
      }

      .cls-12 {
        fill: #b76791;
        opacity: .14;
      }

      .cls-13 {
        fill: #a140ff;
      }
    </style>
    <clipPath id="clippath">
      <rect class="cls-10" y="31.37" width="964" height="945.27" rx="129.84" ry="129.84"/>
    </clipPath>
  </defs>
  <g class="cls-4">
    <g id="Layer_2" data-name="Layer 2">
      <g id="Layer_21" data-name="Layer 21">
        <path class="cls-13" d="M964,129.84V866.77c0,41.99-23.87,78.67-58.71,97.14-3.41,1.82-6.93,3.45-10.54,4.9-2.79,1.12-5.64,2.13-8.54,3.02-.04,.02-.08,.03-.12,.03-6.32,1.95-12.89,3.33-19.63,4.08-4.05,.46-8.16,.7-12.33,.7H109.87c-4.23,0-8.4-.24-12.5-.72-6.94-.79-13.69-2.24-20.18-4.27,0,0-.01,0-.02,0-2.9-.91-5.75-1.94-8.54-3.09-3.41-1.38-6.74-2.94-9.97-4.66C23.85,945.4,0,908.74,0,866.77V129.84C0,58.43,58.43,0,129.84,0H834.16c65.69,0,120.39,49.44,128.73,112.94,.73,5.54,1.11,11.18,1.11,16.9Z"/>
      </g>
      <g id="Layer_12" data-name="Layer 12">
        <g>
          <circle class="cls-7" cx="482" cy="488.32" r="397"/>
          <circle class="cls-7" cx="482" cy="488.32" r="358"/>
        </g>
      </g>
      <g id="_5" data-name="5">
        <g id="Layer_18" data-name="Layer 18">
          <g>
            <g class="cls-9">
              <ellipse class="cls-1" cx="501.81" cy="636.33" rx="580.5" ry="401" transform="translate(-230.7 289.68) rotate(-26.42)"/>
              <ellipse class="cls-6" cx="508.81" cy="641.34" rx="580.5" ry="401" transform="translate(-232.19 293.31) rotate(-26.42)"/>
              <ellipse class="cls-1" cx="488.03" cy="617.2" rx="435.91" ry="265.88" transform="translate(-223.62 281.55) rotate(-26.42)"/>
              <ellipse class="cls-8" cx="485.68" cy="611.18" rx="435.91" ry="265.88" transform="translate(-221.19 279.88) rotate(-26.42)"/>
              <ellipse class="cls-6" cx="492.28" cy="617.45" rx="427.57" ry="260.79" transform="translate(-223.29 283.47) rotate(-26.42)"/>
              <path class="cls-11" d="M722.31,413.45c17.84,8.35,35.69,16.7,53.53,25.05-14.08,8.06-28.27,16.19-40.46,26.89-31.39,27.55-46.95,69.68-78.06,97.54-11.03,9.88-23.78,17.73-34.51,27.93-13.66,12.98-23.57,29.3-34.34,44.76-35.48,50.94-81.28,93.77-128.21,134.42-14.24,12.34-28.65,24.54-41.6,38.22-14.54,15.35-27.18,32.51-37.54,50.95-2.15,3.83-4.68,8.1-8.95,9.12-2.75,.66-5.61-.21-8.3-1.09-59.55-19.38-117.6-43.36-173.47-71.67-1.77-.9-3.61-1.86-4.71-3.51-2.97-4.43,1.05-10.13,4.86-13.86,83.19-81.66,186.14-139.82,277.92-211.68,60.55-47.4,119.19-102.41,193.45-122.39"/>
              <path class="cls-5" d="M762.02,432.07c-26.02,2.93-48.48,22.96-62.25,46.36-13.77,23.4-25.05,50.03-47.69,65.02-14.51,9.61-32.65,13.58-45.36,25.47-18.8,17.58-20.31,46.93-34.52,68.39-17.39,26.25-50.3,36.36-76.61,53.89-7.52,5.01-14.5,10.62-20.42,17.39-16.77,19.16-23.26,45.61-39.79,64.98-11.53,13.51-27.19,22.71-40.86,34.05-13.67,11.34-26.08,26.44-26.9,44.18-13.15,2.63-26.45,.02-38.83-5.42-8.37-3.66-16.31-8.63-23.5-14.14-5.67-4.35-11.05-9.06-16.34-13.86-8.15-7.4-16.09-15.03-24.57-21.99-3.33-2.75-6.75-5.39-10.3-7.87-11.36-7.93-24.73-14.12-38.3-15.99-8.44-1.17-16.95-.67-25.1,2.13,.42-23.03,18.25-42,37.2-55.09,18.95-13.09,40.52-23.19,55.58-40.62,10.25-11.85,16.8-26.34,23.77-40.5,5.97-12.18,12.26-24.13,21.46-33.96,25.69-27.47,69.05-33.26,93.39-61.92,18.26-21.5,23.05-52.94,44.23-71.56,12.68-11.13,29.7-16.19,42.75-26.88,15.89-13.03,24.18-32.83,34.79-50.43,10.61-17.59,43.49-39.79,43.49-39.79,10.53,.12,21.04,.97,31.45,2.51,21.81,3.22,43.18,9.49,63.35,18.46,8.12,3.61,16.04,7.65,23.72,12.12,13.11,7.61,25.51,16.44,36.96,26.38,6.75,5.85,13.16,12.09,19.2,18.69Z"/>
              <path class="cls-3" d="M682.14,374.88c-32.92,16.12-61.57,40.9-82.21,71.21-10.27,15.07-18.78,31.69-32.2,44.04-14.36,13.21-33.45,20.66-46.94,34.75-12.38,12.93-18.96,30.3-29.68,44.64-25.09,33.55-69.63,46.81-99.16,76.24-1.79,1.78-3.53,3.63-5.2,5.54-22.46,25.66-31.45,61.12-54.56,86.2-13.58,14.75-31.24,25.01-46.88,37.57-7.7,6.2-15.1,13.31-20.93,21.32-3.33-2.75-6.75-5.39-10.3-7.87-11.36-7.93-24.73-14.12-38.3-15.99,6.61-14.13,19.05-25.89,32.01-35.17,17.64-12.64,37.48-22.85,51.66-39.28,15.08-17.48,22.43-40.52,37.12-58.33,1.71-2.07,3.5-4.05,5.36-5.95,25.97-26.56,65.84-38.06,89.66-66.96,16.34-19.82,23.56-46.07,40.66-65.24,14.79-16.56,35.66-26.38,52.09-41.32,18.59-16.91,30.7-39.58,45.13-60.15,12.79-18.24,28.84-35.82,49.32-43.71,21.81,3.22,43.18,9.49,63.35,18.46Z"/>
              <path class="cls-3" d="M742.82,413.38c-.89,.54-1.78,1.04-2.66,1.52-24.57,13.38-49.66,28.29-65.01,51.68-10.37,15.79-15.82,34.82-28.48,48.84-16.46,18.24-42.3,24.99-60.77,41.19-23.01,20.19-32.32,52.95-56.18,72.12-16.28,13.07-37.55,18.32-54.71,30.21-8.6,5.97-15.8,13.3-22.21,21.4-19.85,25.06-32.19,57.55-55.49,80.07-15.5,14.97-35.59,25.24-48.47,42.51-9.59,12.84-14.31,28.39-20.05,43.46-8.37-3.66-16.31-8.63-23.5-14.14-5.67-4.35-11.05-9.06-16.34-13.86,1.72-3.73,3.74-7.33,5.92-10.77,23.26-36.66,64.49-58.45,90.14-93.48,12.66-17.29,21.61-37.87,36.51-52.87,2.37-2.4,4.91-4.66,7.63-6.74,14.8-11.28,33.79-16.05,48.45-27.51,26.44-20.65,33.61-58.44,57.98-81.49,12.18-11.51,27.85-18.54,41.38-28.42,26.63-19.44,43.79-48.81,63.4-75.31,17.18-23.22,38.61-45.78,65.5-54.79,13.11,7.61,25.51,16.44,36.96,26.38Z"/>
              <path class="cls-12" d="M495.59,691.2c-7.52,5.01-14.5,10.62-20.42,17.39-16.77,19.16-23.26,45.61-39.79,64.98-11.53,13.51-27.19,22.71-40.86,34.05-13.67,11.34-26.08,26.44-26.9,44.18-13.15,2.63-26.45,.02-38.83-5.42-8.37-3.66-16.31-8.63-23.5-14.14-5.67-4.35-11.05-9.06-16.34-13.86-8.15-7.4-16.09-15.03-24.57-21.99-3.33-2.75-6.75-5.39-10.3-7.87-11.36-7.93-24.73-14.12-38.3-15.99-8.44-1.17-16.95-.67-25.1,2.13,.42-23.03,18.25-42,37.2-55.09,18.95-13.09,40.52-23.19,55.58-40.62,10.25-11.85,16.8-26.34,23.77-40.5,11.09-3.6,22.92-5.04,34.7-4.65,5.39,.17,10.76,.73,16.05,1.64,11.71,2.01,23.05,5.63,33.97,10.32,10.22,4.38,20.09,9.7,29.57,15.5,.55,.33,1.1,.66,1.64,1,9.82,6.08,19.44,12.75,29.64,18.08,5.66,2.97,11.5,5.53,17.64,7.36,8.2,2.44,16.64,3.48,25.15,3.5Z"/>
            </g>
            <path class="cls-2" d="M68.63,476.32c47.74-34.96,112.84-44.84,168.8-25.61-5.23,4.95-10.47,9.9-15.7,14.85,83.82-67.34,182.11-116.58,286.23-143.4-35.41,6.28-71.11,12.58-107.06,11.72-25.8-.62-51.35-4.93-77.04-7.35-17.38-1.63-34.85-2.4-52.31-2.29-7.47,.05-15.02,.26-22.26,2.14-8.68,2.26-16.56,6.84-24.21,11.54-52.09,32.02-99.07,72.33-138.63,118.95l-17.83,19.47Z"/>
            <path class="cls-2" d="M554.33,880.06c36.89-15.07,73.78-30.15,110.67-45.22,20.56-8.4,41.32-16.86,63.18-20.78,19.69-3.53,39.85-3.29,59.82-2.29,39.67,1.99,79.18,6.95,118.1,14.84,3.07,.62,6.26,1.26,9.3,.52,3.01-.74,5.52-2.74,7.87-4.76,15.64-13.45,28.57-30.03,37.8-48.49-48.85-34.95-115.78-24.05-174.18-38.1,3.98-8.28,7.96-16.56,11.94-24.84-58.99,65.27-131.85,117.94-212.32,153.49l-32.2,15.64Z"/>
            <path class="cls-1" d="M230.26,161.68s-12,34-41,53c33,19,41,48,41,48,0,0,12-31,37-48,0,0-25-19-37-53Z"/>
            <path class="cls-1" d="M126.2,301.68s-6.42,18.19-21.94,28.36c17.66,10.17,21.94,25.69,21.94,25.69,0,0,6.42-16.59,19.8-25.69,0,0-13.38-10.17-19.8-28.36Z"/>
            <path class="cls-1" d="M658.89,71.08s-9.77,27.67-33.37,43.13c26.86,15.46,33.37,39.06,33.37,39.06,0,0,9.77-25.23,30.11-39.06,0,0-20.35-15.46-30.11-43.13Z"/>
            <path class="cls-1" d="M827.12,119.5s-5.15,14.59-17.6,22.75c14.16,8.15,17.6,20.6,17.6,20.6,0,0,5.15-13.3,15.88-20.6,0,0-10.73-8.15-15.88-22.75Z"/>
            <path class="cls-1" d="M65.12,192.5s-5.15,14.59-17.6,22.75c14.16,8.15,17.6,20.6,17.6,20.6,0,0,5.15-13.3,15.88-20.6,0,0-10.73-8.15-15.88-22.75Z"/>
          </g>
          <path class="cls-6" d="M133.46,976.64h-23.59c-60.43,0-109.87-49.44-109.87-109.87v-15.46c19.62,10.05,43.11,26.23,66.57,46.65,32.43,28.22,56.85,57.65,66.89,78.68Z"/>
        </g>
      </g>
    </g>
  </g>
</svg>