<?xml version="1.0" encoding="UTF-8"?>
<svg xmlns="http://www.w3.org/2000/svg" viewBox="0 0 964 976.64">
  <defs>
    <style>
      .cls-1, .cls-2, .cls-3 {
        fill: #fff;
      }

      .cls-4 {
        opacity: .49;
      }

      .cls-4, .cls-2, .cls-5, .cls-3, .cls-6 {
        mix-blend-mode: overlay;
      }

      .cls-7 {
        fill: #4630a0;
      }

      .cls-8, .cls-9 {
        fill: #b76c21;
      }

      .cls-10 {
        isolation: isolate;
      }

      .cls-11 {
        fill: #d89245;
      }

      .cls-12 {
        fill: none;
        stroke: #6753db;
        stroke-miterlimit: 10;
      }

      .cls-13 {
        opacity: .58;
      }

      .cls-13, .cls-9, .cls-14 {
        mix-blend-mode: multiply;
      }

      .cls-13, .cls-14 {
        fill: #6b9dc6;
      }

      .cls-9 {
        opacity: .19;
      }

      .cls-15 {
        fill: #b0f8ff;
      }

      .cls-14 {
        opacity: .24;
      }

      .cls-16 {
        fill: #5fffd1;
      }

      .cls-2 {
        opacity: .6;
      }

      .cls-5 {
        fill: #d3aeff;
        opacity: .36;
      }

      .cls-17 {
        fill: #09d8a2;
      }

      .cls-18 {
        fill: #6753db;
      }

      .cls-19 {
        fill: #a140ff;
      }

      .cls-3 {
        opacity: .35;
      }

      .cls-6 {
        fill: #ffe0a9;
        opacity: .33;
      }

      .cls-20 {
        fill: #6ef5ff;
        opacity: .18;
      }
    </style>
  </defs>
  <g class="cls-10">
    <g id="Layer_2" data-name="Layer 2">
      <g id="Layer_21" data-name="Layer 21">
        <path class="cls-19" d="M964,129.84V866.77c0,41.99-23.87,78.67-58.71,97.14-3.41,1.82-6.93,3.45-10.54,4.9-2.79,1.12-5.64,2.13-8.54,3.02-.04,.02-.08,.03-.12,.03-6.32,1.95-12.89,3.33-19.63,4.08-4.05,.46-8.16,.7-12.33,.7H109.87c-4.23,0-8.4-.24-12.5-.72-6.94-.79-13.69-2.24-20.18-4.27,0,0-.01,0-.02,0-2.9-.91-5.75-1.94-8.54-3.09-3.41-1.38-6.74-2.94-9.97-4.66C23.85,945.4,0,908.74,0,866.77V129.84C0,58.43,58.43,0,129.84,0H834.16c65.69,0,120.39,49.44,128.73,112.94,.73,5.54,1.11,11.18,1.11,16.9Z"/>
      </g>
      <g id="Layer_12" data-name="Layer 12">
        <g>
          <circle class="cls-5" cx="482" cy="488.32" r="397"/>
          <circle class="cls-5" cx="482" cy="488.32" r="358"/>
        </g>
      </g>
      <g id="_1" data-name="1">
        <g id="Layer_5" data-name="Layer 5">
          <g>
            <path class="cls-17" d="M725.77,752.51c-19.61,19.19-62.06,26.09-129.43,13.45-67.37-12.64-107.06-32.66-110.99-66.56-3.76-32.41,55.95-319.56,61.18-344.58,.24-1.14,.36-1.74,.36-1.74,0,0,14.7-5.24,44.59,6.08s58.88,21.34,119.14,29.21c60.26,7.88,93.88,17.61,93.88,17.61l-1.16,6.18-44.22,235.69c-12.85,68.48-13.75,85.46-33.35,104.65Z"/>
            <path class="cls-16" d="M804.5,405.99l-1.16,6.18c-4.61,4.57-12,4.62-18.54,4.35-24.78-1.04-49.55-2.08-74.33-3.12-12.47-.52-24.98-1.05-37.23-3.42-38.8-7.51-71.84-32.72-109.53-44.57-5.78-1.82-12.05-3.56-15.82-8.29-.57-.7-1.02-1.48-1.37-2.32,.24-1.14,.36-1.74,.36-1.74,0,0,14.7-5.24,44.59,6.08s58.88,21.34,119.14,29.21c60.26,7.88,93.88,17.61,93.88,17.61Z"/>
            <path class="cls-16" d="M566.83,423.59c-4.63,3.75-6.61,10.09-5.49,15.87,.59,3,2.15,5.98,4.52,7.95,2.53,2.12,5.82,2.78,9.02,2.06,13.25-2.95,13.14-25.2,.23-28.58-6.27-1.64-13.48,3.76-12.34,10.43,.32,1.9,3.21,1.09,2.89-.8-.73-4.29,4.52-7.61,8.34-6.82,4.52,.94,7.29,5.7,7.78,9.99,.57,4.96-1.56,10.87-6.65,12.59-2.27,.77-4.82,.65-6.82-.76s-3.29-3.72-3.89-6.05c-1.3-5.01,.52-10.53,4.53-13.77,1.5-1.21-.63-3.33-2.12-2.12h0Z"/>
            <path class="cls-16" d="M567.96,423.68c-1.77,2.21-3.53,4.41-5.3,6.62,.74,5.57,8.42,8.75,12.88,5.34s3.4-11.66-1.78-13.83"/>
            <path class="cls-16" d="M763.3,475.77c-3.2-10.14-10.44-18.67-19.81-23.64-1.24-.66-2.52-1.24-3.82-1.77-.2-.4-.57-.73-1.14-.85-.72-.15-1.42-.25-2.11-.32-.16-.05-.32-.11-.49-.16-.43-.13-.79-.09-1.08,.05-15.98-.5-22.08,19.25-28.24,31.31-1.65,3.23-3.47,6.38-6.01,8.99-3.4,3.49-7.26,6.51-10.98,9.64-7.5,6.33-16.3,13.63-18.83,23.58-2.61,10.26,4.29,19.94,12.43,25.47,8.66,5.89,19.56,8.61,29.99,7.73,4.96-.42,9.84-1.71,14.22-4.08,5.37-2.91,10.24-6.82,14.54-11.13,8.68-8.69,15.16-19.61,19.15-31.2,3.75-10.89,5.72-22.4,2.17-33.62Zm-3.21,25.36c-2.82,11.32-8.02,22.15-15.32,31.27-3.65,4.56-7.83,8.7-12.52,12.18-4.14,3.07-8.51,5.64-13.53,6.92-9.31,2.36-19.71,.9-28.33-3.19-8.09-3.84-16.72-11.43-16.81-21.11-.08-9.36,8.34-17.04,14.8-22.7,6.42-5.62,14-10.61,18.63-17.93,4.16-6.59,6.76-14.03,10.49-20.86,3.19-5.82,7.7-12.35,14.85-13.2,1.16-.14,2.31-.11,3.45,0,9.33,3.1,17.31,9.65,21.86,18.41,2.3,4.42,3.66,9.32,4.08,14.28,.45,5.41-.35,10.7-1.66,15.94Z"/>
            <path class="cls-16" d="M712.92,469.67c-1.19,3.5-1.84,7.25-1.29,10.9,.55,3.65,2.38,7.2,5.41,9.33,3.3,2.32,7.71,2.72,11.61,1.68,3.9-1.04,7.35-3.38,10.31-6.13,3.68-3.42,6.77-7.6,8.25-12.4s1.22-10.25-1.35-14.56c-10.02-16.82-28.65-1.38-32.93,11.18Z"/>
            <path class="cls-16" d="M696.76,513.46c-2.97,1.59-5.65,4.12-6.44,7.39-1.21,5.02,2.83,10.39,7.89,11.43,5.06,1.04,10.42-1.7,13.37-5.94,2.29-3.3,3.21-8.03,.83-11.27-3.52-4.79-11-4.1-15.64-1.62Z"/>
            <path class="cls-16" d="M599.52,530.69c-2.21-5.59-3.43-10.86-3.83-16.87-.35-5.42-.61-10.82-2.48-15.98-3.05-8.36-9.72-15.34-19.1-15.29-3.45,.02-7.8,.92-11.25,2.86-11.88,4.59-17.35,23.63-17.96,34.52-.95,17.06,5.48,38.36,20.31,48.29,13.39,8.97,31.85,4.94,37.36-11,3.2-9.24,.4-17.83-3.05-26.53Zm-13.64,36.28c-19.42,5.99-31.62-17.31-34.78-32.63-1.99-9.66-1.38-19.6,1.57-29,1.03-3.27,2.45-7.16,4.49-10.53,.31,.52,1.15,.6,1.59,.14,6-6.23,16.4-10.68,23.93-4.07,8.46,7.43,6.71,19.26,8.1,29.23,1.33,9.61,7.6,18.16,7.71,27.92,.09,8.24-4.45,16.41-12.62,18.93Z"/>
            <path class="cls-16" d="M565.83,487.29c-7.66,2.86-11.01,12.33-9.82,20.42,.7,4.79,2.75,9.51,6.39,12.71,3.64,3.19,9,4.6,13.52,2.84,1.94-.75,3.64-2.03,5.16-3.46,5.27-4.95,8.64-12.22,7.77-19.39s-6.58-13.82-13.76-14.67"/>
            <path class="cls-16" d="M582.87,543.1c4.14-.75,8.15,4.01,6.73,7.96-1.42,3.95-7.55,5.06-10.26,1.85s-.61-9.07,3.53-9.81"/>
            <path class="cls-16" d="M666.89,448.76c3.77-.85,7.72,3.16,6.81,6.92-.91,3.76-6.25,5.52-9.22,3.03-2.96-2.48-2.17-8.05,1.37-9.61"/>
            <path class="cls-16" d="M711.36,609.8c-8.59-12.69-26.91-15.08-36.89-3.94-9.06,5.61-15.84,15.13-16.94,25.78-1.53,14.82,9.25,29.33,24.63,29.66,23.61,.51,42.81-31.39,29.2-51.5Zm-12.52,39.94c-11.26,9.56-28.48,8.26-34.53-6.66-5.09-12.57,1.33-26.46,11.81-34.39,6.54-3.69,13-7.26,20.82-3.99,6.03,2.52,11.06,7.44,12.99,13.74,3.41,11.14-2.59,24.07-11.09,31.29Z"/>
            <path class="cls-16" d="M685.54,603.24c-4.03-.76-8.41,1.99-9.47,5.94s1.35,8.53,5.22,9.88c2.83,.99,6.01,.35,8.7-.96,2.76-1.35,5.23-3.48,6.47-6.29,1.24-2.81,1.06-6.33-.89-8.71s-5.76-3.16-8.25-1.36"/>
            <path class="cls-16" d="M678.64,636.84c-1.08,1.56-1.89,3.31-2.37,5.14,.95,2.52,5.18,2.73,6.37,.32,1.2-2.41-1.53-5.65-4.11-4.88"/>
            <path class="cls-16" d="M555.69,610.54c-4.55-8.79-14.7-2.57-19.35,2.67-5.12,4.41-8.68,10.44-5.56,17.36,3.42,7.58,12.26,6.07,17.52,1.44,5.17-4.56,10.97-14.55,7.39-21.46Zm-9.63,17.47c-4.2,4.18-11.44,5.76-12.74-1.84-.67-3.91,1.11-7.29,3.74-10.1,.19,.04,.4,.03,.6-.04,0,.15-.01,.3-.01,.45-.55,1.42-.45,2.89,1.03,4.16,.4,.34,.85,.61,1.34,.83,1.75,1.29,3.63,1.27,5.27,.49,.95-.14,1.87-.36,2.67-.62,1.39-.46,2.72-1.2,3.77-2.19-1.19,3.45-3.66,6.87-5.66,8.86Z"/>
            <path class="cls-16" d="M619.42,616.8c-1.09-3.15-4.64-3.64-7.13-1.77-.11,.09-.21,.18-.32,.27-.47-.23-1.06-.19-1.52,.31-2.05,2.25-3.17,5.57-1.14,8.22,1.59,2.07,4.54,3.02,6.97,1.93,3.14-1.42,4.2-5.89,3.14-8.95Z"/>
            <path class="cls-16" d="M648.94,698.02c-.56-16.33-13.28-26.51-27.53-31.84-7.25-2.71-15.2-3.33-22.72-1.35-5.99,1.58-14.99,5.91-15.18,13.04,0,.15,.02,.3,.06,.43-.06,.16-.12,.31-.18,.48-2.2,6.67,.63,12.15,5.89,16.22,6.86,5.31,13.5,10.57,20.11,16.21,5.98,5.11,13.03,10.19,21.17,10.65,13.09,.74,18.77-12.61,18.39-23.83Zm-5.41,8.31c-1.65,6.38-6.02,11.52-13.08,11-8.48-.63-15.43-7-21.48-12.36-5.67-5.03-11.49-9.04-17.64-13.38-3.74-2.64-6.16-5.97-5.36-10.84,.12-.75,.32-1.48,.56-2.18,2.27-1.69,3.82-4.13,6.2-5.77,1.18-.81,2.47-1.48,3.81-2.02,.07,0,.14-.02,.21-.02,.31-.02,.53-.14,.67-.31,1.88-.68,3.85-1.14,5.79-1.4,7.41-1.02,14.22,.86,20.94,3.84,13.53,6,23.39,17.93,19.36,33.45Z"/>
            <path class="cls-16" d="M599.25,668.58c-2.62,.65-5.29,1.33-7.58,2.76s-4.18,3.77-4.38,6.46c-.25,3.45,2.41,6.63,5.64,7.89s6.85,.95,10.22,.17c3.76-.86,7.81-2.69,9.1-6.33,1.07-3.03-.24-6.57-2.67-8.68s-5.76-2.94-8.97-2.92"/>
            <path class="cls-16" d="M623.9,693.96c-2.18,.07-3.57,2.92-2.54,4.84s3.79,2.49,5.69,1.44c1.95-1.07,2.93-3.74,1.93-5.73s-3.99-2.71-5.65-1.22"/>
            <path class="cls-16" d="M698.77,705.71c-3.06-3.18-8.13-2.48-10.5,.87-1.7,1.14-2.94,2.86-3.38,5.1-.61,3.09,.44,6.87,3.23,8.6,3.53,2.19,7.43-.24,9.84-2.96,2.86-3.22,4.08-8.21,.81-11.62Zm-5.83,11.84c-2.71,1.45-4.81-.55-5.21-3.27-.27-1.8,.23-3.32,1.22-4.45,.69-.22,1.44-.9,2.11-1.5,.64-.28,1.34-.47,2.09-.57,.57-.07,.93-.4,1.11-.8,.69,.06,1.36,.33,1.94,.8,3.52,2.94-.25,8.19-3.25,9.8Z"/>
            <path class="cls-16" d="M529.99,690.71c-3.86,.17-6.38,3.63-6.46,7.14-.27,1.79,.07,3.67,1.17,5.17,3,4.1,8.52,1.94,10.55-1.88,2.21-4.17,.29-10.68-5.25-10.43Z"/>
            <path class="cls-20" d="M616.53,198.38s-1.01,32.67-9.71,42.47c-8.7,9.8-55.92,23.81-72.35,50.45-16.43,26.64-53.93,189.96-58.21,218.89-4.28,28.92-50.96,198.52-13.35,229.59,37.62,31.07,149.99,84.16,220.13,69.88,70.14-14.28,86.77-23.74,97.89-70.81,11.12-47.08,66.16-328.3,62.23-362.19-3.93-33.89-28.78-84.29-46.1-95.54-17.33-11.25,.83-59.3,.83-59.3,0,0-179.26-37.61-181.37-23.44"/>
            <path class="cls-1" d="M811.48,287.4c-5.85-6.01-10.47-10.75-11-14.65-3.06-22.34,4.29-45.45,4.37-45.68l-8.02-2.6-8.01-2.61c-.35,1.09-8.64,26.92-5.04,53.18,1.29,9.39,7.93,16.21,15.62,24.12,18.32,18.82,46.01,47.27,28.95,138.17l-55.74,297.1c-5.17,27.55-20.91,45.89-48.12,56.09-29.8,11.17-72.47,11.82-126.84,1.96-54.25-10.52-93.78-26.59-117.5-47.8-21.66-19.37-29.68-42.18-24.51-69.72l55.74-297.1c17.05-90.9,53.17-107.38,77.07-118.28,10.03-4.58,18.7-8.53,23.3-16.82,12.87-23.17,14.52-50.25,14.58-51.39l-16.83-.94c-.01,.24-1.47,24.32-12.49,44.14-1.91,3.44-7.93,6.19-15.56,9.67-25.42,11.6-67.97,31.01-86.63,130.51l-55.74,297.1c-8.8,46.89,10.76,108.28,152.17,136.55v.04c1.11,.21,2.2,.4,3.31,.6,1.1,.21,2.19,.43,3.31,.64v-.04c142.05,24.91,182.53-25.22,191.32-72.11l55.74-297.1c18.67-99.49-13.95-133.01-33.44-153.03Z"/>
            <path class="cls-3" d="M570.06,260.5c6.45-2.24,13.1-4.46,19.93-4.27,6.83,.2,13.99,3.3,17.16,9.36,4.96,9.46-1.69,21.02-9.87,27.88-8.84,7.41-19.78,12.29-31.2,13.94-5.67,.81-11.67,.8-16.85-1.64s-9.31-7.76-8.94-13.47c.24-3.77,2.32-7.16,4.57-10.18,5.17-6.96,11.62-12.96,18.93-17.62"/>
            <path class="cls-3" d="M824.71,328.12c-1.73-12.76-8.15-24.84-17.77-33.41l-6.13-5.49c-11.16-1.73-22.32-3.46-33.49-5.19-3.72-19.28-1.01-39.78,7.76-57.36-8.86-3.57-18.01-6.43-27.33-8.53-1.62-.37-3.4-.69-4.88,.07-1.71,.88-2.43,2.91-2.97,4.75-5.31,18.03-7.78,36.89-7.36,55.68-7-1.09-14-2.17-21-3.26-9.32-1.45-19.98-2.54-27.13,3.62-8.21,7.07-7.44,20.08-3.81,30.28,1.95,5.47,4.55,10.78,8.32,15.2,5.81,6.83,14,11.14,22.23,14.7,3.02,1.31,6.08,2.53,9.16,3.68,1.35,2.95,2.64,5.93,3.71,8.99,6.9,19.78,3.77,41.49,.43,62.17-19.29,119.36-43.18,237.97-71.59,355.49-3.32,13.75-10.42,30.58-24.57,30.49,18.85,16.01,51.5,11.05,64.75-9.83,4.79-7.54,7.12-16.34,9.37-24.98,32.09-123.44,59.8-248.02,83.08-373.42,2.26-12.16,4.46-24.58,4.02-36.86,2.08-.03,4.16-.07,6.23-.17,10.69-.48,23.13-3.09,27.64-12.79,1.98-4.25,1.99-9.17,1.36-13.81Z"/>
            <path class="cls-1" d="M804.76,289.62c-2.11,3.97-4.69,7.69-7.65,11.07-17.32-4.48-35.28-6.47-53.16-5.87-4.6,.15-9.33,.51-13.45,2.55-4.12,2.04-7.52,6.16-7.41,10.76,.08,3.49,2.11,6.62,4.35,9.29,11.38,13.55,29.56,19.72,47.21,20.94,8.12,.56,16.48,.17,24.05-2.82,7.57-2.99,14.3-8.88,16.79-16.62,2.5-7.75-.06-17.26-6.96-21.58"/>
            <g>
              <rect class="cls-15" x="664.68" y="21.78" width="100.01" height="287.67" rx="13.48" ry="13.48" transform="translate(420.13 837.51) rotate(-79.37)"/>
              <path class="cls-13" d="M849.91,224.89l-.59,3.15c-1.37,7.29-8.45,12.13-15.74,10.77l-256.23-48.07c-7.29-1.37-12.13-8.45-10.77-15.74l.78-4.16c4.79,3.24,17.63,8.76,52.03,15.21l194.38,36.47c17.12,3.21,29.19,3.04,36.14,2.38Z"/>
              <path class="cls-14" d="M649.14,204.2l-70.11-13.15c4.26-22.91,8.52-45.85,12.79-68.77,1.51-8.14,3.11-16.5,7.43-23.57,1.07-1.75,2.35-3.41,3.8-4.91l65.46,12.28c-3.97,3.83-4.44,7.62-5.42,11.56-5.7,22.91-16.16,80.61-13.95,86.56Z"/>
              <path class="cls-2" d="M862.79,156.24l-.29,1.56c-2.79-5.11-6.93-8.63-10.82-9.36-6.63-1.24-8.84-1.66-8.84-1.66,0,0-10.22,66.68-17.38,77.81-2.45,3.8-5.78,7.6-9.12,10.97l-41.28-7.75c2.91-3.28,5.46-6.88,6.48-10.22,2.97-9.73,19.13-77.59,6.98-79.87l-195.49-36.68c-5.52-1.04-10.56,2.49-13.57,5.28l.59-3.14c1.37-7.29,8.45-12.13,15.74-10.77l256.23,48.07c7.29,1.37,12.13,8.45,10.77,15.74Z"/>
            </g>
          </g>
        </g>
        <g id="Layer_2-2" data-name="Layer 2">
          <g>
            <path class="cls-7" d="M341.3,314.28c-.11-.27-.16-.42-.16-.42,0,0-14.4-3.26-39.97,5.92-25.57,9.17-27.54,17.09-59.89,27.49-31.06,9.98-47.23,21.28-46.79,26.88,.02,.23,.07,.46,.14,.67,0,0,106.26,313.07,130.1,369.46,23.83,56.4,49.21,128.75,90.28,144.41,19.5,7.44,92.7-2.05,92.74-63.33,.05-75.59-160.62-495.87-166.45-511.09Z"/>
            <path class="cls-18" d="M341.3,314.28c-.44,.31-.87,.61-1.31,.9-15.32,10.22-30.83,20.52-48.12,26.85-13.98,5.11-28.82,7.51-42.9,12.34-14.94,5.12-28.82,12.91-43.58,18.53-3.4,1.29-7.64,2.2-10.91,1.24-.45-5.6,15.73-16.9,46.79-26.88,32.35-10.4,34.32-18.32,59.89-27.49,25.57-9.17,39.97-5.92,39.97-5.92,0,0,.05,.15,.16,.42Z"/>
            <path class="cls-18" d="M315.57,415.61c-3.71,7.46-4.34,16.26-1.79,24.19,2.25,6.99,8.17,16.78,16.86,15.12,3.78-.72,6.95-3.74,8.61-7.12,2.1-4.27,1.9-9.17,1.11-13.74s-1.82-9.24-3.63-13.47c-1.67-3.9-4.39-7.44-8.42-9.06-8.31-3.35-15.78,5.51-15.03,13.44,.41,4.3,3.38,7.35,7.59,8.16,3.63,.7,8.4,.34,10.96-2.66s2.01-7.77,.54-11.22c-1.37-3.21-4.23-6.61-8.09-6.28-7.32,.62-9.04,12.75-4.16,17.07,3.14,2.79,7.73,.87,9.18-2.75,.83-2.1,.56-4.49-.26-6.55-.7-1.78-1.77-3.94-3.86-4.29s-3.74,1.22-4.29,3.04-.29,4.11,.36,5.85c.59,1.56,1.79,3.04,3.6,3.04,1.93,0,3.3-1.71,3.46-3.53,.18-2.07-1.18-3.73-2.52-5.15-.44-.46-1.27-.59-1.82-.23-2.53,1.64-2.56,5.83,.29,7.2,1.73,.83,3.26-1.76,1.51-2.59-.71-.34-1.07-1.51-.29-2.02l-1.82-.23c.51,.54,2.53,2.54,1.45,3.39-.8,.63-1.24-1.42-1.33-1.91-.17-.91-.54-3.22,.52-3.77s2.02,2.4,2.24,3.2c.41,1.49,.42,3.19-.6,4.44-.8,.99-2.18,1.65-3.39,.97-2.07-1.16-2.25-4.53-2.04-6.6s1.15-5.02,3.52-5.52c2.58-.55,4.49,2.06,5.45,4.1,1.07,2.3,1.86,5.85,.3,8.1s-5.27,2.46-7.77,2.09c-2.9-.43-5.3-2.1-5.74-5.16-.41-2.9,.73-6.13,2.56-8.36s4.4-3.5,7.21-2.83c3.13,.75,5.46,3.2,6.98,5.92s2.39,5.98,3.14,9.09c.87,3.64,1.78,7.34,1.74,11.1-.03,3.13-.8,6.24-2.84,8.68-1.74,2.08-4.31,3.66-7.11,3.33-3.42-.4-6.06-3.31-7.87-6s-3.21-5.86-4.01-9.1c-1.63-6.6-.97-13.74,2.07-19.84,.86-1.72-1.73-3.24-2.59-1.51h0Z"/>
            <path class="cls-18" d="M320.12,417.59c-4.85,1.25-5.94,7.97-2.8,11.42,3.81,4.18,11.24,2.96,14.43-1.33,1.07-1.44,1.46-3.2,1.08-4.95s-1.54-3.25-2.62-4.65c-.5-.64-1.6-.52-2.12,0-.63,.63-.5,1.48,0,2.12,1.21,1.57,2.61,3.54,1.41,5.48-1.02,1.65-2.95,2.54-4.77,2.83-1.58,.25-3.52-.07-4.77-1.12-.18-.15-.35-.32-.52-.5-.07-.07-.13-.15-.19-.23,.04,.06,.13,.19-.03-.05-.09-.14-.18-.29-.26-.44-.02-.03-.15-.3-.08-.15,.06,.14-.08-.2-.09-.23-.06-.19-.12-.38-.16-.57-.01-.05-.1-.61-.07-.33-.05-.44-.05-.9,0-1.34-.03,.24,.04-.24,.07-.33,.05-.24,.13-.47,.2-.71,.01-.04,.1-.27,0-.05,.05-.11,.1-.22,.16-.33,.1-.19,.21-.37,.33-.55,.34-.5,.88-.89,1.6-1.08,1.87-.48,1.08-3.38-.8-2.89h0Z"/>
            <path class="cls-18" d="M280.95,525.82c-4.24,5.19-2.94,12.56-.97,18.43,2.17,6.48,6.18,12.49,12.26,15.86,5.7,3.16,12.71,3.56,18.38,.13,6.02-3.65,8.09-10.38,6.99-17.1-.61-3.67-2.15-7.14-3.84-10.43-1.56-3.04-3.14-6.18-5.2-8.92s-4.44-4.79-7.59-5.93-6.65-1.14-9.78-.11c-6.23,2.07-11.22,8.23-11.22,14.91,0,6.19,4.74,12,10.87,13.03s12.54-2.24,14.99-8.12,.9-12.3-4.11-15.95c-2.27-1.65-5.15-2.51-7.94-2.04-3.2,.54-5.55,2.98-7.3,5.55-1.85,2.72-3,6.04-2.55,9.36,.4,2.96,2.07,5.88,4.84,7.2s6.31,1.11,8.88-.65,4.12-4.73,4.33-7.85-1.15-6.02-3.63-7.73-5.75-1.26-7.72,1.01-3.16,6.09-1.97,8.97,4.4,4.49,7.44,3.85c6.39-1.34,7.62-10.18,2.32-13.63-2.42-1.58-5.86-1.53-8.28,.03s-3.71,4.66-3.26,7.6c1,6.54,9.6,8.36,13.63,3.4,2.15-2.65,2.33-6.09,1.05-9.18-1.03-2.5-3.45-6.72-6.73-6.17-3.88,.66-2.59,5.7-1.59,8.14s3.52,6.66,6.6,4.14c1.07-.88,1.57-2.34,1.34-3.7-.28-1.62-1.42-2.84-2.56-3.93-.86-.82-2.13-.4-2.51,.66-.79,2.21-.79,4.58,0,6.79,.56,1.58,2.87,1.34,2.95-.4,.09-2.12-1.06-4.12-2.96-5.07-.79-.4-1.54-.15-2.05,.54-1.56,2.07-2.26,4.7-1.92,7.27,.17,1.31,.67,1.91,1.87,2.45,.94,.43,1.95,.66,2.99,.68,3.91,.11,7.98-2.68,8.62-6.66,.14-.84-.38-2.03-1.45-1.9-2.13,.26-4.04-.19-5.81-1.41-.91-.63-2.32,.2-2.26,1.3l.36,5.79,2.56-1.06c-.69-.8-1.25-1.7-1.64-2.69s-2.17-1.68-2.74-.36l-.94,2.2,2.05-.54c-.32-.18-.53-.33-.56-.73-.14-1.91-3.14-1.93-3,0,.1,1.44,.75,2.61,2.05,3.32,.64,.35,1.72,.23,2.05-.54l.94-2.2-2.74-.36c.59,1.5,1.36,2.8,2.41,4.01,.84,.97,2.64,.21,2.56-1.06l-.36-5.79-2.26,1.3c2.14,1.48,4.74,2.14,7.33,1.82l-1.45-1.9c-.58,3.63-5.13,5.7-8.21,3.61l.69,.9c-.44-2.15,.15-4.2,1.46-5.93l-2.05,.54c1.02,.51,1.53,1.35,1.48,2.48l2.95-.4c-.63-1.76-.63-3.43,0-5.19l-2.51,.66c.64,.61,1.85,1.57,1.76,2.57-.14,1.54-1.27-.38-1.5-.79-.62-1.1-1.07-2.28-1.37-3.51-.09-.38-.42-1.4-.2-1.81,.26-.5,.66-.14,1.05,.18,1.74,1.4,3.1,4.26,3.17,6.47s-1.24,4.31-3.3,5.09c-1.94,.73-4.37,.06-5.56-1.66-1.09-1.58-1.04-3.97,.15-5.49,1.25-1.6,3.66-2.08,5.49-1.31s2.82,2.84,2.61,4.78c-.23,2.08-2.06,3.86-4.2,3.82-2.59-.05-3.74-2.47-3.24-4.74,.39-1.79,1.49-4.35,3.68-4.34,1.99,0,3.42,2.17,3.83,3.9,1.07,4.51-3.07,9.31-7.74,8.11-4.95-1.27-4.95-7.48-3.01-11.16,1.1-2.07,2.75-4.39,4.97-5.35,1.74-.75,3.76-.48,5.43,.31,3.93,1.87,5.87,6.02,5.34,10.26-.56,4.56-3.83,8.18-8.31,9.19s-9.08-1.09-11.32-5.15c-2.42-4.38-1.04-9.66,2.23-13.2s8.1-5.14,12.75-3.84c4.95,1.38,7.66,5.82,9.97,10.07,2.56,4.7,5.36,9.68,5.69,15.14,.3,4.94-1.6,9.52-5.95,12.08-4.1,2.42-9.06,2.49-13.4,.67-4.58-1.92-8.14-5.62-10.5-9.92s-3.99-9.5-3.92-14.4c.03-2.19,.52-4.43,1.93-6.15,1.21-1.48-.9-3.62-2.12-2.12h0Z"/>
            <path class="cls-18" d="M301.57,527.53c.96,.92,1.38,2.09,1.29,3.41l2.8-.76c-2.64-4.87-10.07-9.91-15.11-5.27-2.16,1.99-4.12,5.38-3.65,8.39s3.65,5.21,6.43,3.68c2.57-1.42,2.53-4.92,2.11-7.42-.13-.8-1.12-1.25-1.85-1.05-.85,.23-1.18,1.04-1.05,1.85,.14,.86,.21,1.9,0,2.77-.16,.7-.42,1.36-1.14,1.36-.89,0-1.52-1.08-1.59-1.85-.13-1.32,.62-2.61,1.3-3.67,.64-.99,1.39-2.09,2.5-2.58,1.23-.54,2.71-.25,3.9,.22,2.39,.95,4.33,2.85,5.54,5.09,.75,1.39,2.69,.64,2.8-.76,.15-2.06-.67-4.1-2.16-5.53-1.4-1.33-3.52,.79-2.12,2.12h0Z"/>
            <path class="cls-12" d="M288.67,522.88c-3.07-.62-6.02,2.16-6.64,5.23s.49,6.22,1.85,9.04c.8,1.66,1.72,3.32,3.14,4.51,3.49,2.92,8.78,2.08,12.91,.16,2.13-.99,4.32-2.45,4.91-4.72,.31-1.17,.14-2.41-.03-3.62-.39-2.78-.8-5.64-2.21-8.07s-4.06-4.36-6.85-4.05"/>
            <path class="cls-18" d="M289.1,522.04c-5.05,1.34-8.32,7.02-7.46,12.18,.86,5.15,5.37,9.32,10.49,10.34,5.17,1.03,11.17-1.36,13.2-6.22,1.08-2.59,.97-5.55,.34-8.29-.72-3.15-2.19-6.25-4.72-8.26-2.53-2.01-6.27-2.69-9.07-1.06"/>
            <path class="cls-18" d="M297.21,523.41c.2,2.04,.82,4.04,1.8,5.83,.44,.81,1.02,1.62,1.88,1.95,1.3,.49,2.8-.36,3.51-1.56s.82-2.65,.91-4.04"/>
            <path class="cls-18" d="M321.05,416.94c-1.73,2.45-3,5.42-2.63,8.4s2.77,5.83,5.77,5.9c1.42,.04,2.81-.53,3.99-1.33,2.46-1.65,4.22-4.43,4.35-7.39s-1.5-6.01-4.18-7.28"/>
            <g>
              <path class="cls-18" d="M234.9,391.13s0-.01,0-.02c0-.03,0-.06-.01-.09,.03,.21,.03,.19,.02,.1Z"/>
              <path class="cls-18" d="M234.55,390.12s.03,.05,.05,.08c0,0,0-.02-.01-.03-.01-.02-.02-.04-.03-.06Z"/>
              <path class="cls-18" d="M232.29,385.29c-1.39-.04-2.69,.54-3.65,1.52-.74,.75-1.13,1.75-1.3,2.79-.42,1.21-.61,2.52-.36,3.79,.28,1.45,.91,2.69,1.93,3.76,1.72,1.8,4.56,2.43,6.71,1.01,1.27-.84,1.97-2.24,2.38-3.66,.45-1.55,.5-3.24,.05-4.79-.75-2.56-3.11-4.33-5.75-4.41Zm2.32,4.93c.1,.21,.18,.44,.24,.66,.01,.04,.02,.08,.03,.13,0-.04-.01-.09-.02-.15,.01,.08,.02,.16,.04,.24,0,0,0,.01,0,.02,.01,.07,.02,.13,.03,.2,.03,.27,.04,.54,.04,.81,0,.01,0,.01,0,.02,0,.02,0,.03,0,.06-.02,.21-.05,.41-.08,.62-.05,.32-.12,.64-.2,.95-.01,.04-.02,.07-.03,.11-.06,.15-.11,.29-.18,.44-.05,.12-.11,.23-.17,.35-.01,.02-.03,.05-.05,.08-.12,.16-.24,.32-.38,.47-.07,.05-.14,.11-.22,.16-.08,.05-.17,.1-.25,.15,.06-.04,.1-.07,.14-.09-.03,.02-.07,.03-.1,.04-.06,.02-.12,.04-.18,.06-.15,.02-.29,.02-.44,.02,0,0-.01,0-.01,0-.09-.01-.18-.03-.28-.05-.09-.02-.18-.05-.27-.07,.05,.01,.09,.02,.13,.03-.04-.01-.07-.02-.1-.03-.17-.07-.32-.16-.48-.24-.09-.07-.19-.14-.27-.21-.1-.08-.19-.16-.28-.25-.01-.01-.02-.02-.04-.04-.15-.19-.3-.38-.44-.58-.03-.04-.06-.08-.09-.13-.03-.07-.06-.13-.09-.2-.1-.23-.18-.47-.25-.71,.06,.22,0,.04-.02-.07,0,0,0-.01,0-.02-.01-.05-.02-.1-.04-.15,.01,.05,.02,.09,.03,.13-.02-.13-.04-.26-.05-.39-.01-.15-.02-.3-.02-.44,0-.02,0-.05,0-.07,.25-.31,.39-.72,.37-1.16,0-.13,0-.25,0-.38,0-.03,0-.07,0-.1,0,0,0,0,0,0,.09-.21,.13-.44,.13-.67,0,0,0,0,0-.01,0-.01,0-.02,.01-.03,.04-.1,.08-.19,.13-.28,0-.01,.02-.04,.03-.06,.04-.06,.09-.13,.12-.16,.04-.05,.09-.1,.13-.14,.07-.06,.15-.11,.23-.16,0,0,0,0,0,0,.13-.06,.27-.12,.41-.16,.06,0,.12-.02,.18-.03,.1,0,.2-.02,.3-.02,.17,.02,.34,.04,.51,.08,.02,0,.05,0,.09,.01,.04,.01,.07,.03,.11,.04,.2,.08,.38,.17,.57,.27,.07,.05,.13,.1,.2,.15,.08,.06,.16,.13,.23,.2,.03,.03,.07,.07,.11,.11-.03-.03-.06-.07-.1-.13,.13,.17,.27,.33,.39,.51,.04,.06,.08,.13,.12,.19-.11-.2-.03-.06,.03,.06,0,.01,.01,.02,.02,.03,.02,.04,.04,.08,.06,.12-.03-.05-.05-.08-.07-.12,0,0,0,.02,.01,.02Z"/>
              <path class="cls-18" d="M233.55,395.44c.14-.07,.26-.17,0,0h0Z"/>
              <path class="cls-18" d="M230.34,392.98s0,.04,.01,.05c0,.01,0,.02,.01,.03,0-.03-.02-.06-.03-.11,0,0,0,.01,0,.02Z"/>
              <path class="cls-18" d="M234.13,389.55c.16,.21,.1,.11,0,0h0Z"/>
              <path class="cls-18" d="M232.39,395.47c.16,.05,.32,.07,0,0h0Z"/>
            </g>
            <path class="cls-18" d="M325.87,352.08c-2.94,3.29-5.12,7.61-4.4,12.14,.59,3.68,3.43,7.3,7.24,7.94,4.41,.75,8.38-2.2,9.98-6.17s1.14-8.93-1.4-12.27c-2.69-3.53-8.29-4.36-11.08-.47-.47,.66-.11,1.67,.54,2.05,.76,.44,1.58,.12,2.05-.54,1.51-2.1,4.74-.99,6.06,.68,1.9,2.4,2.12,6.09,1.24,8.92s-3.53,5.32-6.63,4.9c-2.62-.36-4.45-2.8-4.99-5.24-.8-3.57,1.2-7.25,3.51-9.82,1.28-1.44-.83-3.56-2.12-2.12h0Z"/>
            <path class="cls-18" d="M264.66,433.15c-3.94,4.34-6.97,10.1-6.34,16.13,.57,5.46,4.16,11.19,9.9,12.24,6.48,1.2,10.6-5.79,12.21-11.06s1.39-11.85-2.58-16.11-11.18-4.33-14.35,.62c-1.05,1.63,1.55,3.14,2.59,1.51,1.99-3.1,6.83-2.72,9.26-.39,3.2,3.06,3.51,8.08,2.57,12.16-.56,2.41-1.54,4.68-2.92,6.73-1.27,1.89-3.04,3.84-5.52,3.7-4.52-.25-7.51-5.02-8.11-9.07-.79-5.33,1.94-10.5,5.42-14.33,1.3-1.43-.82-3.55-2.12-2.12h0Z"/>
            <path class="cls-18" d="M263.01,440.34c-.91,1.76-1.76,3.61-1.86,5.59s.69,4.11,2.41,5.1c1.99,1.14,4.65,.4,6.28-1.21s2.42-3.88,2.91-6.12c.59-2.68,.75-5.75-.97-7.88s-5.88-2.13-6.68,.49"/>
            <path class="cls-18" d="M326.17,355.74c-1.6,1.86-3.25,4.61-1.73,6.54,1.51,1.9,4.81,.81,6.06-1.27,.68-1.13,1-2.56,.53-3.79s-1.88-2.13-3.15-1.75"/>
            <path class="cls-18" d="M329.94,472.91c-1.5,1.68-2.45,4.12-1.62,6.21,.85,2.13,3.61,3.26,5.71,2.33s3.12-3.73,2.11-5.79-3.84-2.98-5.86-1.9"/>
            <path class="cls-18" d="M410.53,550.74c-3.55-5.46-9.43-9.7-15.43-12.09-6.08-2.42-13.49-3.05-18.7,1.62-1.36,1.22-2.42,2.65-3.34,4.23-.3,.51-.28,.99-.09,1.38-2.17,4.2-2.99,8.89-2.74,13.9,.34,6.89,1.96,13.79,.54,20.67-2.3,11.12-10.02,28.7,3.29,36,7.28,3.99,16.48,3.13,23.64-.59,7.41-3.84,13.28-10.35,17.36-17.54,4.19-7.39,5.88-15.66,4.71-24.09-1.17-8.39-4.65-16.4-9.24-23.47Zm5.11,19.78c1.83,7.51,1.47,15.42-1.71,22.51-5.93,13.23-20.29,26.84-35.9,21.46-13.19-4.54-7.06-21.26-4.54-30.91,1.67-6.39,1.22-12.61,.54-19.11-.63-6.07-1-12.27,2.19-17.74,.91-1.55,2.07-2.94,3.32-4.23,.2-.21,.33-.43,.4-.65,8.01-5.13,20.88,2.21,26.35,8.86,2.18,2.65,3.87,5.82,5.36,8.9,1.69,3.49,3.06,7.15,3.98,10.92Z"/>
            <path class="cls-18" d="M377.65,541.56c-7.02,6.13-7.81,18.1-1.65,25.09,1.02,1.16,2.21,2.2,3.62,2.84,3.41,1.57,7.49,.59,10.8-1.17,4.31-2.29,7.98-5.97,9.68-10.54s1.21-10.04-1.77-13.9-8.53-5.73-13.05-3.92"/>
            <path class="cls-18" d="M376.47,595.62c-2.91,2.83-1.53,8.62,2.34,9.84s8.32-2.74,7.56-6.72c-.76-3.98-6.35-6.03-9.5-3.48"/>
            <path class="cls-18" d="M320.83,611.99c-5.18-.34-12.33,3.02-11.94,8.73-.84,5.57,.98,11.04,5.13,15.05,3.66,3.54,9.41,6.19,14.5,4.39,13.35-4.71,3.64-27.42-7.69-28.17Zm8.8,23.07c-2.87,3.48-8.5,1.88-11.75-.13-4.11-2.55-6.57-6.63-7.02-11.17,.11,0,.22,0,.33-.02,.37-.07,.65-.15,.97-.35,.79-.5,.9-1.43,.71-2.25-.63-2.75,2.21-4.3,4.45-4.99,3.02-.93,5.43-.37,7.81,1.7,4.18,3.63,8.76,12.03,4.5,17.21Z"/>
            <path class="cls-18" d="M390.52,704.52c-4.38-1.28-8.96-2.02-12.67-4.87-3.8-2.91-6.47-7.41-9.48-11.06-5.63-6.83-12.5-13.43-21.92-13.47-14.3-.05-20.09,11.08-19.42,22.69-.36,12.73,8.13,25.29,18.54,32.83,8.9,6.45,19.15,6.52,28.94,10.65,8.68,3.66,18.08,9.3,27.16,3.07,7.43-5.1,9.87-15.3,7.45-23.67-2.61-9.03-10-13.66-18.59-16.16Zm11.54,33.26c-7.49,9.22-17.95,2.22-26.41-.98-7.76-2.94-16.37-3.01-23.75-7.03-7.78-4.24-15.08-11.53-19.06-19.93-4.46-11.73-2.24-29.54,13.21-29.77,15.63-.23,19.78,19.24,31.93,25.44,6.42,3.28,14.06,3.14,20.14,7.25,7.93,5.35,10.07,17.47,3.94,25.02Z"/>
            <path class="cls-18" d="M310.66,618.95c-1.13,3.12-1.53,6.76,.11,9.64s5.91,4.32,8.45,2.18c1.67-1.42,2.1-3.93,1.52-6.04s-2.01-3.89-3.55-5.45c-1.16-1.17-3.41-2.1-4.14-.63"/>
            <path class="cls-18" d="M342.79,678.74c-3.45,1.44-5.43,5.35-5.39,9.09s1.78,7.28,4.01,10.28c2.33,3.14,5.36,5.92,9.08,7.11,3.72,1.2,8.2,.53,10.86-2.33,2.45-2.63,2.98-6.64,2.12-10.13s-2.91-6.57-5.12-9.41c-1.52-1.95-3.16-3.87-5.27-5.16s-4.77-1.89-7.09-1.05"/>
            <path class="cls-18" d="M386.82,715.63c-1.68,.96-2.32,3.2-1.85,5.07s1.84,3.41,3.38,4.58c2.67,2.04,6.83,3.05,9.2,.66,1.22-1.23,1.63-3.08,1.45-4.8-.53-5.24-6.71-9.05-11.63-7.17"/>
            <path class="cls-18" d="M434.9,657.03c-3.72-2.62-9.1-2.35-11.81,1.56-.3,.44-.38,.9-.31,1.32-1.17,3.04,0,6.25,2.92,8.27,3.1,2.14,7.74,2.63,10.51-.33,3.13-3.33,2.29-8.29-1.32-10.83Zm-1.05,8.85c-3.04,3.08-9.39-.47-8.69-4.43,.24-.11,.46-.29,.65-.57,3.41-5.18,12.55,.44,8.04,5.01Z"/>
            <path class="cls-18" d="M465.8,771.42c-3.19-5.72-9.23-8.38-15.62-7.23-4.59,.83-14.09,4.57-15.98,9.33-2.39,1.69-4.61,3.57-6.45,5.88-3.92,4.91-6.81,11.34-6.33,17.75,1.22,16.38,19.15,9.28,28.37,5,6.15-2.85,12.72-6.25,15.89-12.56,2.79-5.55,3.18-12.65,.11-18.17Zm-20.74,27.52c-3.99,1.72-10.12,5.14-14.57,4.07-4.84-1.16-4.85-7.2-3.99-11.08,1.62-7.33,6.63-12.3,12.22-16.74,2.69-1.13,5.39-3.38,7.81-4.33,5.31-2.09,11.34-2.68,14.74,2.92,7.45,12.28-6.94,21.18-16.2,25.16Z"/>
            <path class="cls-18" d="M373.11,782.11c-2.59-.36-5.19,1.64-5.7,4.09-.08,.09-.15,.18-.21,.29-1.19,2.15-1.35,4.87,.63,6.62,1.68,1.48,4.28,1.78,6.31,.87,4.99-2.24,4.96-11.05-1.03-11.88Zm.78,7.89c-.67,1.15-2.16,1.62-3.41,1.18-.74-.26-1.07-.74-1.17-1.3,.71,.04,1.45-.31,1.86-1.05,.47-.85,.5-2.07,1.11-2.65-.14,.13,.33-.12,.09-.06,.35-.09,.46-.09,.74,.02,1.35,.52,1.56,2.54,.79,3.85Z"/>
            <path class="cls-18" d="M449.22,707.82c-10.88,3.9-4.84,20.83,6.07,16.92s4.84-20.83-6.07-16.92Z"/>
            <path class="cls-18" d="M442.74,771.84c-2.29,1.75-4.69,4.12-4.39,6.98,.22,1.99,1.8,3.65,3.65,4.43s3.93,.79,5.92,.59c3.73-.39,7.58-1.67,10-4.55s2.82-7.61,.14-10.24c-2.92-2.85-7.99-1.99-11.16,.58"/>
            <path class="cls-18" d="M433.27,792.73c.45,1.8,1.25,3.52,2.33,5.03,1.57-.25,3.06-1.27,3.61-2.75s-.03-3.39-1.44-4.11-3.45,.13-3.74,1.69"/>
            <path class="cls-11" d="M253.12,31.54s2.18,6.41,5.8,17.17c3.2,9.51,7.54,22.42,12.51,37.32,.22,.65,.43,1.31,.66,1.98,.48,1.43,.96,2.87,1.44,4.33,.41,1.25,.84,2.51,1.26,3.79,1.93,5.81,3.94,11.85,5.99,18.04,.27,.82,.55,1.63,.82,2.46,.11,.33,.22,.68,.33,1.02,.28,.8,.54,1.6,.8,2.41,2.74,8.32,5.57,16.88,8.42,25.52,.42,1.29,.84,2.57,1.27,3.86,1.12,3.42,2.24,6.86,3.36,10.28,.27,.84,.54,1.68,.82,2.51,.54,1.67,1.09,3.34,1.63,5.01,.28,.84,.55,1.67,.81,2.5,.28,.84,.54,1.67,.81,2.5,.27,.83,.55,1.66,.81,2.49,.56,1.73,1.12,3.47,1.68,5.19,.43,1.34,.86,2.67,1.29,4,.34,1.06,.68,2.1,1.02,3.14,.51,1.6,1.02,3.19,1.54,4.79,.21,.66,.42,1.32,.63,1.96,.21,.66,.42,1.3,.63,1.95,.1,.32,.21,.65,.31,.96,.25,.8,.51,1.6,.76,2.39,.05,.18,.12,.36,.17,.53,.42,1.29,.82,2.57,1.23,3.84,.03,.12,.07,.23,.11,.34,.25,.79,.5,1.56,.74,2.34,.24,.78,.49,1.54,.73,2.31,.24,.77,.49,1.53,.73,2.3,.02,.08,.04,.15,.07,.23,.4,1.24,.78,2.47,1.17,3.69,.06,.21,.12,.4,.19,.6,.24,.76,.47,1.49,.71,2.24,.08,.26,.17,.53,.25,.79,.55,1.73,1.08,3.44,1.61,5.12,.29,.94,.59,1.87,.87,2.79,.39,1.26,.78,2.51,1.16,3.74,.93,3,1.83,5.9,2.68,8.71,.32,1.05,.64,2.09,.95,3.12,.44,1.43,.86,2.83,1.27,4.2,.48,1.58,.94,3.13,1.38,4.63,.14,.47,.28,.94,.41,1.39,.27,.91,.53,1.81,.78,2.69,.15,.52,.31,1.02,.45,1.52,.23,.8,.45,1.57,.67,2.33,.74,2.56,1.4,4.96,2.01,7.14,.17,.64,.34,1.25,.5,1.85-.21,.29-.46,.6-.78,.92-1.69,1.72-4.94,3.89-9.43,6.35-17.35,9.51-53.25,23.45-89.54,33.69-17.21,4.86-34.5,8.89-49.95,11.2-3.09,.47-6.12,.87-9.05,1.19-.04,0-.07,.01-.1,.01-27.33-38.75-73.99-173.47-86.61-210.72-2.08-6.12-3.23-9.62-3.23-9.62-1.42-3.96,.77-8.06,6.27-12.6,8.85-7.32,26.26-15.82,50.96-26.84,1.24-.55,2.51-1.12,3.79-1.68,45.33-16.26,73.48-23.19,90.13-26.08,15.85-2.76,21.32-1.86,21.32-1.86Z"/>
            <path class="cls-6" d="M253.12,31.54s2.18,6.41,5.8,17.17c3.2,9.51,7.54,22.42,12.51,37.32,.22,.65,.43,1.31,.66,1.98,.48,1.43,.96,2.87,1.44,4.33,.41,1.25,.84,2.51,1.26,3.79,1.93,5.81,3.94,11.85,5.99,18.04,.28,.81,.55,1.63,.82,2.46,.11,.33,.22,.68,.33,1.02,.28,.8,.54,1.6,.8,2.41,2.74,8.32,5.57,16.88,8.42,25.52,.42,1.29,.84,2.57,1.27,3.86,1.12,3.42,2.24,6.86,3.36,10.28,.28,.84,.54,1.67,.82,2.51,.54,1.67,1.09,3.34,1.63,5.01,.28,.84,.55,1.67,.81,2.5,.28,.84,.54,1.67,.81,2.5,.27,.83,.55,1.66,.81,2.49,.56,1.73,1.12,3.47,1.68,5.19,.43,1.34,.86,2.67,1.29,4,.34,1.06,.68,2.1,1.02,3.14,.52,1.61,1.03,3.2,1.54,4.79,.21,.66,.42,1.32,.63,1.96,.21,.66,.42,1.3,.63,1.95,.1,.32,.21,.65,.31,.96,.25,.8,.51,1.6,.76,2.39,.05,.18,.12,.36,.17,.53,.42,1.29,.82,2.57,1.23,3.84,.03,.12,.07,.23,.11,.34,.25,.79,.49,1.57,.74,2.34,.24,.78,.49,1.54,.73,2.31,.24,.77,.48,1.55,.73,2.3,.02,.08,.04,.15,.07,.23,.4,1.24,.78,2.47,1.17,3.69,.06,.21,.12,.4,.19,.6,.23,.75,.46,1.49,.71,2.24,.08,.26,.17,.53,.25,.79,.54,1.73,1.08,3.44,1.61,5.12,.29,.94,.59,1.87,.87,2.79,.39,1.27,.78,2.51,1.16,3.74,.93,3,1.83,5.9,2.68,8.71,.32,1.05,.64,2.09,.95,3.12,.44,1.43,.86,2.83,1.27,4.2,.47,1.59,.94,3.13,1.38,4.63,.14,.47,.28,.94,.41,1.39,.27,.91,.53,1.81,.78,2.69,.15,.52,.31,1.02,.45,1.52,.23,.8,.45,1.57,.67,2.33,.74,2.56,1.4,4.96,2.01,7.14,.17,.64,.34,1.25,.5,1.85-.21,.29-.46,.6-.78,.92-1.69,1.72-4.94,3.89-9.43,6.35-1.65-2.62-2.61-5.88-3.39-8.92-3.62-14.18-7.07-28.41-10.83-42.55-16.43-61.84-38.68-122.01-63.47-180.99-3.71-.64-7.48-.96-11.23-.96-10.86-.01-21.59,2.33-32.09,5.16-32.02,8.62-62.79,21.9-91.02,39.28-6.6,4.06-13.18,8.45-17.99,14.53-2.29,2.9-4.15,6.27-5.23,9.83-2.08-6.12-3.23-9.62-3.23-9.62-3.82-10.66,18.48-22.26,61.02-41.13,45.33-16.26,73.48-23.19,90.13-26.08,15.85-2.76,21.32-1.86,21.32-1.86Z"/>
            <path class="cls-8" d="M328.58,268.49c-11.93,12.17-101.59,46.25-157.97,52.43-.04-2.82,3.08-4.71,5.75-5.87,46.97-20.5,94.9-41.28,145.91-46.37,2.08-.2,4.24-.36,6.32-.19Z"/>
            <g>
              <path class="cls-8" d="M135.02,150.86c-8.11,2.91-17.97-3.9-22.03-15.21-4.05-11.31-.77-22.83,7.34-25.74,7.58-2.72,16.69,3.05,21.16,13.06-5.32-12.1-16.3-19.1-25.42-15.83-9.71,3.48-13.65,17.28-8.79,30.81s16.66,21.69,26.37,18.2,13.65-17.28,8.79-30.81c-.02-.05-.04-.1-.06-.15,4.01,11.28,.72,22.76-7.37,25.66Z"/>
              <path class="cls-8" d="M141.64,123.31c.22,.52,.44,1.05,.63,1.58-.2-.54-.41-1.07-.63-1.58Z"/>
            </g>
            <g>
              <path class="cls-8" d="M188.37,115.78c-4.58,1.64-10.16-2.2-12.45-8.59s-.43-12.9,4.15-14.55c4.29-1.54,9.44,1.73,11.96,7.38-3.01-6.84-9.21-10.8-14.37-8.95-5.49,1.97-7.71,9.77-4.97,17.42,2.74,7.65,9.42,12.26,14.91,10.29s7.71-9.77,4.97-17.42c-.01-.03-.02-.06-.03-.08,2.27,6.38,.41,12.86-4.17,14.51Z"/>
              <path class="cls-8" d="M192.11,100.21c.13,.29,.25,.59,.36,.9-.11-.3-.23-.6-.36-.9Z"/>
            </g>
            <g>
              <path class="cls-8" d="M252.14,260.08c-4.58,1.64-10.16-2.2-12.45-8.59s-.43-12.9,4.15-14.55c4.29-1.54,9.44,1.73,11.96,7.38-3.01-6.84-9.21-10.8-14.37-8.95-5.49,1.97-7.71,9.77-4.97,17.42s9.42,12.26,14.91,10.29,7.71-9.77,4.97-17.42c-.01-.03-.02-.06-.03-.08,2.27,6.38,.41,12.86-4.17,14.51Z"/>
              <path class="cls-8" d="M255.88,244.51c.13,.29,.25,.59,.36,.9-.11-.3-.23-.6-.36-.9Z"/>
            </g>
            <g>
              <path class="cls-8" d="M172.96,210.3c-4.58,1.64-10.16-2.2-12.45-8.59s-.43-12.9,4.15-14.55c4.29-1.54,9.44,1.73,11.96,7.38-3.01-6.84-9.21-10.8-14.37-8.95-5.49,1.97-7.71,9.77-4.97,17.42s9.42,12.26,14.91,10.29,7.71-9.77,4.97-17.42c-.01-.03-.02-.06-.03-.08,2.27,6.38,.41,12.86-4.17,14.51Z"/>
              <path class="cls-8" d="M176.7,194.73c.13,.29,.25,.59,.36,.9-.11-.3-.23-.6-.36-.9Z"/>
            </g>
            <g>
              <path class="cls-8" d="M259.1,174.91c-8.11,2.91-17.97-3.9-22.03-15.21-4.05-11.31-.77-22.83,7.34-25.74,7.58-2.72,16.69,3.05,21.16,13.06-5.32-12.1-16.3-19.1-25.42-15.83-9.71,3.48-13.65,17.28-8.79,30.81,4.85,13.54,16.66,21.69,26.37,18.2,9.71-3.48,13.65-17.28,8.79-30.81-.02-.05-.04-.1-.06-.15,4.01,11.28,.72,22.76-7.37,25.66Z"/>
              <path class="cls-8" d="M265.72,147.36c.22,.52,.44,1.05,.63,1.58-.2-.54-.41-1.07-.63-1.58Z"/>
            </g>
            <g>
              <path class="cls-8" d="M192.08,283.13c-8.11,2.91-17.97-3.9-22.03-15.21s-.77-22.83,7.34-25.74c7.58-2.72,16.69,3.05,21.16,13.06-5.32-12.1-16.3-19.1-25.42-15.83-9.71,3.48-13.65,17.28-8.79,30.81s16.66,21.69,26.37,18.2,13.65-17.28,8.79-30.81c-.02-.05-.04-.1-.06-.15,4.01,11.28,.72,22.76-7.37,25.66Z"/>
              <path class="cls-8" d="M198.7,255.59c.22,.52,.44,1.05,.63,1.58-.2-.54-.41-1.07-.63-1.58Z"/>
            </g>
            <ellipse class="cls-8" cx="180.78" cy="150.08" rx="6.23" ry="7.92" transform="translate(-40.05 69.84) rotate(-19.73)"/>
            <ellipse class="cls-8" cx="226.09" cy="205.99" rx="6.23" ry="7.92" transform="translate(-56.27 88.42) rotate(-19.73)"/>
            <ellipse class="cls-8" cx="289.55" cy="225.33" rx="6.23" ry="7.92" transform="translate(-59.07 110.97) rotate(-19.73)"/>
            <ellipse class="cls-8" cx="141.82" cy="232.61" rx="6.23" ry="7.92" transform="translate(-70.2 61.53) rotate(-19.73)"/>
            <ellipse class="cls-8" cx="229.11" cy="70.21" rx="6.23" ry="7.92" transform="translate(-10.25 81.46) rotate(-19.73)"/>
            <path class="cls-9" d="M229.6,308.54c-17.21,4.86-34.5,8.89-49.95,11.2-5.84-5.41-9.84-13.03-13.39-20.34-29.84-61.47-52.39-126.17-74.39-190.85-2.28-6.69-4.57-13.51-4.95-20.55,8.85-7.32,26.26-15.82,50.96-26.84-1.18,2.37-1.97,4.96-2.31,7.56-1.1,8.25,1.37,16.52,3.85,24.46,19.23,61.32,41.61,121.64,66.79,180.76,5.52,12.97,12,26.77,23.38,34.58Z"/>
            <path class="cls-20" d="M100.67,210.08s-16.24,41.9,9.9,57.78c26.14,15.88,185.69,484.22,203.87,528.21s72.54,151.98,155.42,111.43c73.89-42.13,69.26-88.58,63.06-109.21-6.2-20.63-205.1-598.73-205.1-598.73,0,0,21.25,5.61,15.28-21.11-5.98-26.72-29.9-39.79-29.9-39.79l-44.62,6.38-148.72,58.15-19.18,6.88Z"/>
            <g class="cls-4">
              <path class="cls-1" d="M307.12,153.5c-3.48-3.73-7.72-6.91-12.64-8.25-11.72-3.19-23.54,4.61-35.66,5.32l-32.33,20.1c6.92-1.99,14.33-3.97,21.18-1.77,4.7,1.51,8.59,4.85,11.96,8.47,9.79,10.52,16.36,25.31,13.02,39.29,12.97-4.79,25.93-9.58,38.9-14.37,1.54-.57,3.15-1.18,4.25-2.41,.95-1.05,1.41-2.44,1.79-3.81,4.06-14.72-.05-31.41-10.47-42.57Z"/>
              <path class="cls-1" d="M472.84,801.81c17.58,49.02,8.66,97.92,8.66,97.92,0,0,42.02-10.26,26.99-89.06-15.03-78.8-198.58-607.2-198.58-607.2l-37.2,13.46s182.56,535.86,200.14,584.87Z"/>
            </g>
            <path class="cls-1" d="M288.13,130.83l-87.38,31.34-87.38,31.34c-28.33,10.16-35.18,37.72-27.3,59.7,8.3,23.14,23.34,30.73,35.11,30.82l156.27,435.72c27.63,77.05,52.07,135.36,81.52,169.44,30.47,35.27,66.17,43.98,112.36,27.42,46.19-16.56,68.22-45.98,69.32-92.57,1.07-45.03-17.11-105.58-44.75-182.63L339.63,205.68c9.02-7.55,15.82-22.97,7.52-46.11-7.88-21.98-30.68-38.91-59.02-28.74Zm38.31,63.23l-7.99,2.87,161.46,450.22c55.65,155.18,65.96,224.69-14.32,253.49-80.28,28.79-116.5-31.43-172.16-186.61L131.97,263.8l-7.99,2.87c-5.15,1.85-15.65-1.73-21.92-19.2-5.04-14.06-1.73-31.25,17.05-37.98l87.38-31.34,87.38-31.34c18.77-6.73,32.26,4.44,37.3,18.49,6.26,17.47,.43,26.91-4.72,28.75Z"/>
            <path class="cls-1" d="M333.89,182.97s3.74,7.08-27.16,18.16c-20.25,7.26-70.63,27.74-70.63,27.74,0,0,80.08-21.5,91.72-29.29s6.07-16.61,6.07-16.61Z"/>
            <path class="cls-1" d="M117.73,267.7c2.13-.76,74.67-23.17,74.67-23.17,0,0-45.74,20.01-61.72,25.74s-12.95-2.57-12.95-2.57Z"/>
            <path class="cls-1" d="M232.54,165.83c6.28-3.12,13.09-5.17,20.05-6.03,2.01-.25,4.18-.37,5.91,.67,4.2,2.51,2.6,8.96,4.38,13.51,2.57,6.58,11.35,7.69,18.38,7.03,5.52-.52,11.22-1.55,15.73-4.78s7.49-9.17,5.75-14.43c-.67-2.02-1.99-4.03-1.49-6.1,.49-2,2.51-3.21,4.46-3.88,8.04-2.77,17.36,.19,23.43,6.15,6.06,5.96,9.15,14.46,9.91,22.93,3.97-15.55-1.9-33.16-14.4-43.23-2.83-2.28-6.05-4.22-9.63-4.83-3.96-.67-7.99,.33-11.85,1.45-14.52,4.22-28.55,10.15-41.68,17.64"/>
          </g>
        </g>
      </g>
    </g>
  </g>
</svg>