<?xml version="1.0" encoding="UTF-8"?><svg xmlns="http://www.w3.org/2000/svg" width="150" height="150" xmlns:xlink="http://www.w3.org/1999/xlink" viewBox="0 0 150 150"><defs><style>.c{fill:#849695;}.d,.e{fill:#fff;}.f{fill:#4fbe98;}.g{isolation:isolate;}.h{opacity:.63;}.h,.i,.j{fill:#cedddd;}.k{opacity:.35;}.k,.l,.m{mix-blend-mode:multiply;}.k,.l,.m,.n{fill:#becdcd;}.l{opacity:.4;}.o{fill:#a6b7b6;}.p{fill:#eff8fb;}.m{opacity:.19;}.q{clip-path:url(#b);}.r{fill:#d8e2e2;}.i{opacity:.58;}.s{fill:none;}.t{fill:#9fb2b3;}.j{opacity:.51;}.u,.v{fill:#cfdcdd;}.v,.e{mix-blend-mode:overlay;opacity:.65;}</style><clipPath id="b"><rect class="s" x="-2.39" y=".63" width="154.79" height="151.78" rx="20.85" ry="20.85"/></clipPath></defs><g class="g"><g id="a"><path class="f" d="M26.03,14.18s1.4-3.11,8.24-3.58c6.84-.47,12.28-.16,17.1-4.82,0,0-1.71,9.64-10.11,10.88s-11,3.16-11,3.16c0,0,2.14-4.09-4.23-5.64Z"/><path class="d" d="M55.16,44.91l-1.13,1.04-.36,.33-.34-.37L25.3,15.5s-.08,0-.13,0c-.21,0-.42-.04-.61-.11-.65-.24-1.1-.87-1.1-1.6,0-.95,.76-1.71,1.71-1.71,.8,0,1.47,.55,1.66,1.3,.03,.13,.05,.27,.05,.42,0,.14-.02,.26-.05,.39l.33,.36,19.02,20.63,8.98,9.74Z"/><path class="i" d="M46.19,35.18c-.23-.09-.45-.19-.67-.3-1.17-.6-2.16-1.52-3.1-2.43-2.19-2.12-4.29-4.34-6.39-6.56-1.11-1.17-2.21-2.34-3.32-3.51-1.74-1.83-3.48-3.68-4.94-5.73-.31-.44-.62-.92-.65-1.46,0-.21,.02-.43,.05-.64l-.33-.36c.02-.08,.03-.17,.04-.26-.13,.58-.59,1.09-1.36,1.09-.31,0-.57-.08-.78-.22-.07,.2-.12,.39-.17,.6,.19,.07,.39,.11,.61,.11,.04,0,.08,0,.13,0l28.03,30.42c.19,.01,.38,.02,.56,.04,.05,0,.09,0,.14,0l1.13-1.04-8.98-9.74Z"/><circle class="d" cx="25.1" cy="13.71" r="2.02"/><g class="q"><path class="r" d="M154.32,18.4c0,4.5-19.27,10.28-19.27,10.28l-40.11-1.44-3.13-.11s.06-4.07,2.3-6.32,18.63-8.99,45.12-9.47c5,.19,8.39,.62,10.68,1.34,3.58,1.13,4.42,2.98,4.42,5.73Z"/><path class="n" d="M39.84,53.08L9.17,89.53s-3.53-6.1-3.53-11.4h0c8.03-15.9,24.57-26.33,27.62-26.81,2.45-.39,5.21,.98,6.2,1.54,.24,.14,.38,.22,.38,.22Z"/><path class="l" d="M103.36,24.36c.6-1.5,2.32-3.19,3.49-3.95,1.49-.96,1.96-.46,3.66-.77,1.2-.22,3.27-1.48,4.17-2.4,.49-.51,.23-1.3,.78-1.78,.58-.5,1.68-.34,2.5-.43,5.06-.52,9.8-1.41,14.99-1.41,3.36,0,7.31-.68,10.36,.01,1.4,.32,3,1.13,4.25,1.69,2.55,1.15,3.29,3.44,4.03,6.18-7.82,2.22-16.92,1.07-24.97,1.33-4.02,.13-7.88,.42-11.78,1.51-3.1,.87-6.16,2.76-9.41,3.03"/><path class="l" d="M7.99,83.55c-.14-2.53-1.07-3.09-.33-5.23,.3-.87,.57-2.8,1.78-2.53,.63-.51,1.88-1.44,2.27-1.9,.72-.84,.7-2,1.27-2.8-.04,.06,.88-.06,1.13-.36,.49-.58,.3-1.07,.48-1.71,.31-1.1,.52-1.56,1.45-2.64,1.1-1.27,2.39-1.76,3.54-3.01,.91-.99,1.53-2.16,2.53-3.05,1.19-1.05,2.6-2.16,3.92-3.03,1.62-1.06,1.34-.32,2.87-.14,1.79,.21,2.1-.76,3.59-1.56,1.71-.91,4.18-.32,6.18-.53-3.73,6.05-7.72,12.72-12.5,17.98-2.72,3-6.31,6.53-9.82,8.62-2.02,1.2-2.59,.66-4.68,.75-.88,.04-1.45,.09-2.18,.74"/><path class="e" d="M149.9,12.67c-.88-.06-1.81-.29-2.51-.39-2.3-.36-4.85-.44-7.27-.56-11.9-.59-23.53,2.46-34.69,6-2.09,.66-4.78,.79-5.99,2.72-.54,.86-.8,1.84-1.17,2.74-.04,.09-.71,1.03-.75,1.08-.67,.83,.62,1.29-1.51,1.6l-1.08,1.37-3.13-.11s.06-4.07,2.3-6.32,18.63-8.99,45.12-9.47c5,.19,8.39,.62,10.68,1.34Z"/><path class="v" d="M39.45,52.85c-1.71,.93-3.78-.21-5.61,.3-.9,.25-1.59,.84-2.68,1-.74,.11-1.7-.03-2.52,.36-7.18,3.37-13.06,11.09-17.83,17.16-.78,.99-1.89,1.66-2.69,2.63-.99,1.2-1.6,2.57-2.49,3.82,8.03-15.89,24.57-26.33,27.62-26.81,2.45-.39,5.21,.98,6.2,1.54Z"/><path class="p" d="M156.89,17.92s-36.22-6.43-90.4,17.82C-5.6,68.01-37.56,162.26-37.56,162.26c0,0,127.33,44.48,140.17,43.35,12.85-1.12,99.87-32.76,99.87-32.76l-.8-29.38L156.89,17.92Z"/><path class="j" d="M-6.34,136.32c1.02-1.48,3.55-3.75,4.16-5.54s-.27-3.5,.33-4.94c.27-.64,2.96-3.11,3.61-3.85,1.17-1.33,2.8-2.33,3.57-3.94,.39-.81-.2-6.45,2.96-2.6,.26-2.09,3.23-3.42,4.69-4.73,.52-.47,2.88-2.32,3.31-3.03,1.22-2.03,.06-3.56,.74-5.5s2.87-4.53,4.16-5.84c2.86-2.88,4.43-1.87,7.49-2.71,3.92-1.07,3.57-4.47,5.67-6.82,.82-.92,3.47-2.17,4.56-3,1.86-1.43,3.75-3.13,6.01-4.15,.75-.34,1.73-1.27,2.57-1.37,.76-.09,2.18,1.19,2.71,1.02,2.51-.81,1.27-1.64,2.91-3.07,2.8-2.44,6.42-3.27,8.41-6.66,.42-.72-.27-1.75,.36-2.58,.8-1.05,1.57-.2,2.28-.9,1.39-1.38,2.18-2.99,3.57-4.46,2.31-2.46,6.27-4.09,9.34-4.23,1.97-.09,3.18,.78,5.84-.19,2.4-.88,3.98-2.97,6.12-3.8,1.45-.56,3.11,.31,4.93-.45,2.14-.9,3.49-2.6,5.63-3.37,1.16-.42,3.87-.21,4.82-.84,1.53-1.02,1.41-2.1,2.81-2.94,3.24-1.95,6.3-1.61,9.43-.38,4.44,1.75,5.58,.43,9.81-.78,2.01-.58,1.97,.31,3.78-.64,1.5-.79,1.01-2.17,3.36-2.36,1.48-.12,3.83,1.32,5.57,1.43,2.6,.16,4.17-1.36,6.41-1.45,1.8-.07,3.37,1.54,5.07,1.82,2.56,.42,4.91-.67,7.31-.2,3.18,.61,5.23,3.34,7.06,5.76,5.87,7.76,7.66,13.63,6.55,23.57-1.89,16.95,.13,32.87,1.13,49.82,.91,15.5,1.62,32.41-6.91,46.15-10.74,17.32-33.52,27.58-52.5,32.34-9.29,2.33-18.6,4.02-28.16,4.74-13.84,1.04-28.58,2.29-42.46,1.87-13.79-.42-28.12-5.94-40.94-11-12.07-4.76-20.23-16.64-25.42-28.16"/><path class="k" d="M13.64,163.09c1.55-2.74,4.99-5.47,6.08-8.24,.79-1.99-.36-4.58,1.07-6.44,1.1-1.42,2.64-.8,3.87-1.88,1.76-1.53,1.41-3.14,2.53-4.96,.68-1.1,2.51-3.08,3.44-3.87,.87-.74,1.89-.86,2.59-1.43,1.73-1.41,3.37-2.88,4.58-4.79,.92-1.46,1.05-3.8,2.68-4.72,1.36-.77,4.01-.04,5.63-.28,1.75-.25,1.68,0,3.93-1.37,3.14-1.9,5.7-5.27,8.84-6.91,2.56-1.34,5.04-.98,6.83-4.24,.88-1.61,.56-4.01,1.61-5.37,2.01-2.57,3.1-1.28,5.53-1.61,1.94-.26,.81,.11,3-.82,4.13-1.76,5.47-1.32,8.87-4.89,2.94-3.09,5.85-6.53,7.42-10.55,1.94,3.27,6.11,.98,7.17-1.89,.49,.22,1.97,.7,2.6,.3,2.37-1.48,1.49-3.69,2.96-4.9,1.91-1.58,2.36-.53,4.52-.06,2.84,.62,3.71,.53,6.73,.1,.93-.13,1.4,.6,2.29,.41,1.85-.4,3.06-2.63,4.63-2.96,3.37-.72,5.01,2.71,7.85,3.25,1.75,.33,2.88-.93,4.51-1.26,2.75-.56,1.67-.11,3.77,.12,3.06,.34,6.33,.68,9.4,.82,4.87,.22,9.39,2.4,14.28,2.32,.3,8.59,.74,17.24,1.77,25.81,2.06,17.18,8.39,39.79-5.01,53.98-8.95,9.48-22.22,14.43-34.43,17.98-14.02,4.07-28.61,7.37-43.15,8.87-12.13,1.25-23.21-1.06-34.91-3.74-5.28-1.21-12.06-3.25-17.28-1.16"/><path class="h" d="M122.21,29.64c-3.02-.14-13.89,1.94-12.79,6.71,.85,3.73,11.42,.97,13.34-.11,4.62-2.6,3.87-6.29-1.3-6.22"/><path class="h" d="M8.37,91.84c-2.81,1.23-10.24,11.79-6.82,14.39s9.46-5.99,10.65-8.19c1.93-3.58,1.46-6.81-3.83-6.19Z"/><path class="h" d="M49.08,67.33c-4.31,1.51-4.25,6.92,.48,4.1,1.91-1.14,4.04-5.9,.27-4.85"/><path class="h" d="M72.45,38.31c-6.07,3.06-9.12,12.69,.45,12.41,4.2-.12,16.99-7.48,16.89-12.4-.14-7.44-14.43-2.4-17.35-.01Z"/><path class="h" d="M156.14,27.37c-4.02-.99-12.26-.96-13.62,4.17-1.22,4.59,5.42,6.53,8.92,6.97s8.7,.64,11.13-2.37c3.01-3.73-.35-5.29-1.91-8.76"/><path class="h" d="M23.07,79.02c-.85,.82-1.53,1.75-2.04,2.8,1.35,1.36,3.05,.72,4.25-.61-.18-.84-.69-1.38-1.45-1.81"/><path class="m" d="M104.5,60.17c-7.11,2.47-4.17,8.85,2.27,4.53,3.75-2.52,3.46-5.26-1.14-5.29"/><path class="k" d="M54.86,95.48c-2.58,1.17-15.87,11.82-11.57,15.08,3.55,2.68,15.95-8.38,17.6-11.09,3.56-5.85-2.88-4.73-6.03-3.99Z"/><path class="k" d="M146.09,57.78c-3.52-1.18-12.19,2.67-7.94,6.67,3.04,2.85,8.28,2.26,11.34-.2,3.69-2.96,.73-6.88-3.4-6.47Z"/><g><path class="u" d="M85.12,74.11s2.43-.57,6.18-1.58c.5-.13,1.02-.27,1.56-.42,2.1-.58,4.5-1.27,7.07-2.05,.51-.16,1.03-.31,1.55-.48,1.89-.59,3.84-1.22,5.8-1.89,.15-.05,.31-.11,.46-.16,.52-.19,1.02-.39,1.49-.59,2.93-1.26,4.98-2.83,6.26-4.56,.39-.53,.71-1.07,.97-1.62,1.53-3.36,.56-7.15-2.23-10.48-.07-.08-.14-.16-.21-.25-3.33-2.89-7.21-4.14-11.25-4.28-.94-.03-1.9,0-2.86,.07-2.25,.19-4.52,.67-6.75,1.36-.63,.2-1.26,.41-1.89,.63-1.89,.68-3.74,1.49-5.5,2.38-.53,.27-1.06,.54-1.58,.83-1.83,.99-3.55,2.04-5.11,3.1-.5,.34-.99,.68-1.46,1.01-2.26,1.61-4.1,3.15-5.35,4.37,1.05,.42,2.03,.93,2.94,1.5,7.13,4.52,9.9,13.11,9.9,13.11Z"/><path class="u" d="M154.45,99.42h0c-.14-.19-.29-.39-.45-.58-2.56-3.17-6.03-4.68-9.86-5.09-.89-.09-1.79-.13-2.71-.11-1.89,.03-3.82,.28-5.75,.69-.6,.13-1.2,.27-1.8,.42-1.89,.49-3.74,1.11-5.52,1.81-.54,.21-1.07,.43-1.59,.65-1.54,.66-2.99,1.36-4.32,2.07-.5,.27-.99,.54-1.46,.8-1.74,.99-3.19,1.95-4.24,2.77,1.19,.92,2.25,1.95,3.19,3.04,5.11,5.93,6.6,13.5,6.6,13.5,2.03,.29,3.97,.48,5.81,.57,.58,.03,1.15,.05,1.71,.06,2.28,.05,4.41-.05,6.38-.27,.56-.06,1.11-.14,1.64-.23,2.18-.35,4.14-.86,5.86-1.52,.51-.19,1.01-.4,1.48-.62,2.52-1.17,4.46-2.67,5.78-4.39,.41-.53,.76-1.09,1.05-1.66,1.79-3.55,1.27-7.78-1.8-11.91Z"/><path class="u" d="M62.58,85.1c2.24-.89,4.39-2.12,6.1-3.09,.42-.24,.82-.47,1.19-.67,.07-.04,.14-.08,.22-.12,1.45-.8,2.95-1.62,4.33-2.38,.49-.27,.97-.53,1.42-.78,2.3-1.26,3.99-2.18,3.99-2.18,0,0-3.64-7.94-9.37-12.31-1.18-.9-2.45-1.65-3.8-2.15-1.23,.61-2.44,1.25-3.62,1.93-.51,.29-1.01,.59-1.5,.89-1.41,.87-2.76,1.79-4,2.75-.44,.34-.86,.68-1.27,1.03-1.46,1.25-2.74,2.56-3.74,3.91-.33,.45-.63,.9-.91,1.35-1.74,2.93-2.16,6.03-.53,9.16,.66,1.27,1.47,2.18,2.37,2.79,2.16,1.46,4.88,1.26,7.59,.4,.51-.16,1.03-.35,1.54-.55Z"/><path class="u" d="M85.76,144.97c-.28-.64-.6-1.3-.97-1.97-1.76-3.23-5.63-5.75-9.84-6.29-3.3-.42-6.81,.39-9.66,3.04-.46,.42-.9,.9-1.32,1.42-.93,1.16-1.76,2.56-2.46,4.23-.08,.19-.15,.37-.23,.56-.22,.53-.41,1.05-.6,1.55-.69,1.89-1.19,3.57-1.54,5.06-.13,.55-.24,1.08-.34,1.58-.82,4.3-.35,6.51-.35,6.51l3.61,.26,21.12,1.51c.47-.73,.89-1.45,1.28-2.15,.27-.48,.52-.96,.75-1.43,.78-1.59,1.34-3.11,1.66-4.61,.12-.55,.2-1.09,.25-1.63,.17-1.76,0-3.52-.54-5.37-.22-.74-.49-1.5-.83-2.28Z"/><path class="u" d="M42.54,103.93c-.85-1.82-2.47-3.45-5.11-4.77-.61-.3-1.21-.56-1.82-.76-3.46-1.16-6.89-.75-10.08,.61-.89,.38-1.75,.83-2.6,1.34-2.33,1.41-4.49,3.28-6.36,5.32-.44,.48-.86,.96-1.26,1.45-1.51,1.82-2.78,3.72-3.77,5.51-.28,.51-.54,1.01-.77,1.5-.78,1.63-1.27,3.12-1.43,4.3,0,0,1.72,.53,4.21,1.39,4.89,1.69,12.78,4.67,16.5,7.44,1.79-1.46,3.85-3.36,5.79-5.51,.37-.41,.74-.83,1.11-1.26,1.59-1.88,3.06-3.9,4.18-5.95,.26-.47,.5-.95,.72-1.42,1.12-2.43,1.68-4.86,1.33-7.11-.11-.72-.32-1.41-.63-2.08Z"/><path class="u" d="M7.72,123.57s-.99,1.24-2.08,3.29c-.25,.46-.49,.96-.74,1.49-.63,1.37-1.24,2.98-1.65,4.74-.12,.52-.22,1.04-.31,1.58-.26,1.69-.32,3.5-.05,5.36,.08,.55,.19,1.11,.33,1.67h0c.79,3.13,2.56,5.28,4.7,6.59,4.34,2.67,10.17,1.89,12.32-1.12,.46-.64,.86-1.33,1.21-2.04,.24-.48,.46-.98,.66-1.48,.46-1.15,.84-2.35,1.21-3.56,.16-.52,.31-1.04,.46-1.55,.41-1.38,.84-2.75,1.37-4.07,.2-.5,.42-.99,.65-1.47,.26-.54,.55-1.06,.87-1.56-4.39-3.81-12.27-6.21-16.35-7.26-1.59-.41-2.6-.61-2.6-.61Z"/><path class="u" d="M109.52,105.58s-1.34,.17-3.37,.62c-.55,.12-1.15,.26-1.79,.42-1.58,.4-3.4,.94-5.26,1.64-.52,.2-1.04,.4-1.56,.62-1.44,.61-2.87,1.32-4.22,2.15-.46,.28-.91,.58-1.35,.89-1.51,1.07-2.85,2.32-3.88,3.75-.35,.48-.66,.99-.94,1.51-.78,1.51-1.24,3.2-1.24,5.09,.12,.61,.34,1.19,.64,1.74,1.26,2.32,4,4.11,7.54,5.11,.66,.19,1.35,.35,2.06,.48,2.3,.42,4.85,.54,7.49,.3h0c.56-.05,1.13-.12,1.69-.2,1.69-.25,3.41-.65,5.12-1.21,.51-.17,1.02-.35,1.53-.55,1.8-.7,3.57-1.59,5.26-2.69,.45-.29,.9-.6,1.33-.92,.86-.63,1.7-1.32,2.51-2.06,0,0-2.2-7.53-7.35-13.14-1.23-1.34-2.63-2.57-4.21-3.56Z"/></g><path class="t" d="M79.66,75.08s-1.69,.92-3.99,2.18c-.45,.25-.93,.51-1.42,.78-1.38,.75-2.88,1.58-4.33,2.38-.07,.04-.14,.08-.22,.12-.36,.2-.76,.43-1.19,.67-1.71,.97-3.86,2.2-6.1,3.09-.51,.21-1.02,.39-1.54,.55-2.71,.86-5.44,1.05-7.59-.4-.91-.61-1.71-1.52-2.37-2.79-1.63-3.13-1.21-6.23,.53-9.16,.27-.45,.57-.91,.91-1.35,1.01-1.36,2.28-2.66,3.74-3.91,.41-.35,.83-.7,1.27-1.03,1.24-.96,2.58-1.88,4-2.75,.49-.3,.99-.6,1.5-.89,1.18-.68,2.39-1.32,3.62-1.93,1.35,.49,2.62,1.24,3.8,2.15,5.73,4.36,9.37,12.31,9.37,12.31Z"/><path class="t" d="M116.29,59.95c-.25,.55-.57,1.1-.97,1.62-1.28,1.73-3.34,3.3-6.26,4.56-.47,.21-.97,.4-1.49,.59-.15,.05-.3,.11-.46,.16-1.96,.67-3.91,1.31-5.8,1.89-.52,.16-1.04,.32-1.55,.48-2.57,.78-4.97,1.47-7.07,2.05-.54,.15-1.06,.29-1.56,.42-3.75,1.01-6.18,1.58-6.18,1.58,0,0-2.78-8.59-9.9-13.11-.91-.58-1.89-1.09-2.94-1.5,1.25-1.22,3.1-2.76,5.35-4.37,.47-.34,.96-.67,1.46-1.01,1.56-1.05,3.28-2.11,5.11-3.1,.52-.28,1.04-.56,1.58-.83,1.76-.89,3.61-1.7,5.5-2.38,.63-.23,1.26-.44,1.89-.63,2.23-.69,4.5-1.17,6.75-1.36,.96-.08,1.91-.11,2.86-.07,4.04,.14,7.91,1.39,11.25,4.28,.07,.08,.14,.16,.21,.25,2.79,3.33,3.76,7.11,2.23,10.48Z"/><path class="t" d="M41.68,112.32c-.22,.48-.46,.95-.72,1.42-1.12,2.05-2.59,4.07-4.18,5.95-.36,.43-.73,.85-1.11,1.26-1.95,2.15-4,4.05-5.79,5.51-3.72-2.77-11.61-5.75-16.5-7.44-2.49-.86-4.21-1.39-4.21-1.39,.16-1.18,.65-2.67,1.43-4.3,.23-.49,.49-.99,.77-1.5,.99-1.79,2.26-3.69,3.77-5.51,.4-.49,.83-.97,1.26-1.45,1.87-2.04,4.03-3.91,6.36-5.32,.84-.51,1.71-.96,2.6-1.34,3.19-1.36,6.62-1.77,10.08-.61,.61,.2,1.21,.45,1.82,.76,2.64,1.32,4.26,2.95,5.11,4.77,.31,.67,.52,1.37,.63,2.08,.36,2.24-.21,4.68-1.33,7.11Z"/><path class="t" d="M26.51,130.63c-.32,.51-.61,1.03-.87,1.56-.23,.48-.45,.97-.65,1.47-.53,1.32-.96,2.7-1.37,4.07-.15,.52-.31,1.04-.46,1.55-.36,1.21-.75,2.41-1.21,3.56-.2,.5-.42,1-.66,1.48-.35,.71-.75,1.39-1.21,2.04-2.15,3.01-7.99,3.79-12.32,1.12-2.13-1.31-3.9-3.46-4.7-6.58h0c-.14-.57-.25-1.12-.33-1.68-.27-1.86-.21-3.66,.05-5.36,.08-.54,.19-1.07,.31-1.58,.41-1.76,1.02-3.37,1.65-4.74,.25-.53,.5-1.03,.74-1.49,1.1-2.05,2.08-3.29,2.08-3.29,0,0,1.01,.2,2.6,.61,4.08,1.05,11.96,3.45,16.35,7.26Z"/><path class="t" d="M120.92,121.48c-.81,.75-1.65,1.43-2.51,2.06-.44,.32-.88,.63-1.33,.92-1.69,1.1-3.46,1.99-5.26,2.69-.51,.2-1.02,.38-1.53,.55-1.7,.56-3.42,.96-5.12,1.21-.57,.09-1.13,.15-1.69,.2h0c-2.64,.24-5.18,.12-7.49-.3-.71-.13-1.4-.29-2.06-.48-3.54-1-6.28-2.79-7.54-5.11-.3-.55-.52-1.13-.64-1.74,0-1.89,.45-3.58,1.24-5.09,.27-.53,.59-1.03,.94-1.51,1.03-1.43,2.37-2.67,3.88-3.75,.44-.31,.89-.61,1.35-.89,1.35-.83,2.78-1.54,4.22-2.15,.52-.22,1.04-.43,1.56-.62,1.86-.7,3.68-1.24,5.26-1.64,.64-.16,1.24-.3,1.79-.42,2.04-.45,3.37-.62,3.37-.62,1.58,.99,2.98,2.22,4.21,3.56,5.15,5.61,7.35,13.14,7.35,13.14Z"/><path class="t" d="M156.09,110.53c-.29,.57-.64,1.13-1.05,1.66-1.32,1.72-3.25,3.23-5.78,4.39-.47,.22-.97,.43-1.48,.62-1.73,.66-3.68,1.18-5.86,1.52-.53,.09-1.08,.16-1.64,.23-1.96,.23-4.09,.32-6.38,.27-.56-.01-1.13-.03-1.71-.06-1.84-.1-3.78-.28-5.81-.57,0,0-1.49-7.57-6.6-13.5-.94-1.09-2-2.12-3.19-3.04,1.05-.81,2.5-1.78,4.24-2.77,.47-.27,.95-.54,1.46-.8,1.33-.71,2.78-1.41,4.32-2.07,.52-.22,1.05-.44,1.59-.65,1.77-.7,3.63-1.32,5.52-1.81,.6-.16,1.2-.3,1.8-.42,1.93-.41,3.87-.66,5.75-.69,.92-.02,1.83,.02,2.71,.11,3.83,.41,7.31,1.91,9.86,5.09,.16,.19,.31,.39,.45,.58h0c3.08,4.13,3.6,8.36,1.8,11.91Z"/><path class="t" d="M86.97,151.81c-.05,.54-.14,1.09-.25,1.63-.32,1.5-.88,3.02-1.66,4.61-.23,.47-.48,.94-.75,1.43-.39,.7-.82,1.41-1.28,2.15l-21.12-1.51-3.61-.26s-.47-2.2,.35-6.51c.09-.5,.21-1.02,.34-1.58,.35-1.49,.85-3.17,1.54-5.06,.18-.5,.38-1.02,.6-1.55,.07-.18,.15-.37,.23-.56,.7-1.67,1.53-3.08,2.46-4.23,.42-.52,.86-1,1.32-1.42,2.86-2.65,6.36-3.46,9.66-3.04,4.21,.53,8.08,3.06,9.84,6.29,.37,.67,.69,1.33,.97,1.97,.34,.78,.61,1.53,.83,2.28,.54,1.84,.71,3.61,.54,5.37Z"/><path class="o" d="M92.69,71.31c-.54,.15-1.06,.29-1.56,.42-2.59-6.66-5.96-10.92-8.5-13.43-.72-.71-1.4-1.31-2.04-1.83-1.35-1.1-2.46-1.78-3.13-2.14,.47-.34,.96-.67,1.46-1.01,.8,.49,1.88,1.22,3.1,2.25,.53,.45,1.09,.95,1.67,1.52,2.7,2.65,6.28,7.17,9,14.22Z"/><path class="o" d="M101.31,68.78c-.52,.16-1.04,.32-1.55,.48-3.03-6.32-7.37-12.03-12.66-16.6-.99-.86-2.01-1.67-3.07-2.44,.52-.28,1.04-.56,1.58-.83,1.04,.79,2.06,1.62,3.04,2.49,5.29,4.69,9.63,10.5,12.66,16.9Z"/><path class="o" d="M109.07,66.14c-.47,.21-.97,.4-1.49,.59-3-6.63-7.51-12.55-13.11-17.19-1.08-.89-2.19-1.74-3.34-2.53,.63-.23,1.26-.44,1.89-.63,1.14,.82,2.23,1.69,3.29,2.61,5.43,4.7,9.82,10.59,12.77,17.14Z"/><path class="o" d="M116.29,59.95c-.25,.55-.57,1.1-.97,1.62-2.82-5.29-6.77-10.03-11.48-13.72-1.31-1.03-2.68-1.97-4.1-2.83,.96-.08,1.91-.11,2.86-.07,1.32,.9,2.6,1.88,3.82,2.93,2.27,1.95,4.36,4.14,6.21,6.54,1.36,1.75,2.58,3.6,3.65,5.53Z"/><path class="o" d="M75.67,77.26c-.45,.25-.93,.51-1.42,.78-2.56-4.71-6.01-8.97-10.09-12.43-.9-.76-1.83-1.49-2.79-2.17,.49-.3,.99-.6,1.5-.89,.97,.71,1.9,1.46,2.81,2.24,2.44,2.12,4.66,4.52,6.62,7.18,1.25,1.7,2.38,3.46,3.37,5.28Z"/><path class="o" d="M69.92,80.42c-.07,.04-.14,.08-.22,.12-.36,.2-.76,.43-1.19,.67-2.76-4.31-6.06-8.26-9.84-11.73-.84-.77-1.7-1.52-2.58-2.24,.41-.35,.83-.7,1.27-1.03,.87,.72,1.72,1.47,2.54,2.23,3.84,3.55,7.2,7.59,10,11.98Z"/><path class="o" d="M62.42,84.3c-.51,.21-1.02,.39-1.54,.55-2-3.38-4.23-6.7-6.83-9.65-.83-.94-1.7-1.84-2.6-2.7,.27-.45,.57-.91,.91-1.35,.9,.83,1.75,1.71,2.57,2.62,2.9,3.22,5.33,6.84,7.5,10.53Z"/><path class="o" d="M133.91,119.23c-.56-.01-1.13-.03-1.71-.06-.59-1.73-1.22-3.45-1.93-5.13-1.79-4.27-3.9-8-6.31-11.15-.99-1.3-2.03-2.5-3.12-3.6,.47-.27,.95-.54,1.46-.8,1.09,1.13,2.13,2.35,3.12,3.67,2.42,3.21,4.54,6.98,6.34,11.27,.8,1.91,1.51,3.85,2.16,5.81Z"/><path class="o" d="M141.93,118.73c-.53,.09-1.08,.16-1.64,.23-2.73-6.62-6.01-13.18-10.46-18.84-1.01-1.28-2.08-2.52-3.22-3.7,.52-.22,1.05-.44,1.59-.65,1.12,1.19,2.17,2.44,3.17,3.73,4.51,5.83,7.81,12.52,10.56,19.25Z"/><path class="o" d="M149.27,116.58c-.47,.22-.97,.43-1.48,.62-2.81-6.86-6.26-13.63-10.86-19.51-1.01-1.3-2.08-2.55-3.22-3.75,.6-.16,1.2-.3,1.8-.42,1.11,1.22,2.16,2.48,3.15,3.78,4.47,5.86,7.85,12.53,10.61,19.27Z"/><path class="o" d="M156.09,110.53c-.29,.57-.64,1.13-1.05,1.66-.8-1.94-1.67-3.84-2.64-5.69-1.99-3.8-4.26-7.06-6.79-9.75h0c-1.38-1.47-2.83-2.77-4.35-3.91,.92-.02,1.83,.02,2.71,.11,1.39,1.19,2.71,2.52,3.97,3.98,2.17,2.53,4.13,5.47,5.89,8.82,.82,1.56,1.57,3.16,2.26,4.78Z"/><path class="o" d="M118.41,123.54c-.44,.32-.88,.63-1.33,.92-2.8-5.63-6.26-10.92-10.31-15.73-.83-.99-1.69-1.96-2.57-2.9,.64-.16,1.24-.3,1.79-.42,.92,1.01,1.81,2.04,2.67,3.09,3.8,4.64,7.08,9.69,9.76,15.05Z"/><path class="o" d="M111.82,127.15c-.51,.2-1.02,.38-1.53,.55-3.13-5.99-6.78-11.69-10.9-17.06-.66-.86-1.33-1.71-2.01-2.55,.52-.22,1.04-.43,1.56-.62,.7,.86,1.38,1.74,2.05,2.62,4.09,5.38,7.71,11.09,10.83,17.07Z"/><path class="o" d="M105.18,128.91c-.57,.09-1.13,.15-1.69,.2h0c-2.8-5.54-5.94-10.91-9.81-15.75-.6-.76-1.22-1.5-1.86-2.23,.44-.31,.89-.61,1.35-.89,.66,.76,1.31,1.54,1.93,2.33,4,5.05,7.22,10.62,10.09,16.35Z"/><path class="o" d="M95.99,128.81c-.71-.13-1.4-.29-2.06-.48-1.8-3.42-3.72-6.78-5.76-10.06-.39-.63-.78-1.26-1.18-1.88,.27-.53,.59-1.03,.94-1.51,.44,.68,.87,1.36,1.3,2.04,2.41,3.87,4.67,7.84,6.76,11.89Z"/><path class="o" d="M86.44,146.44c-1.92-1.06-3.89-2.1-5.94-2.84-2.96-1.08-6.17-1.58-9.26-2.07l-3.93-.62-3.49-.55c.42-.52,.86-1,1.32-1.42l3.45,.54,2.9,.45c3.17,.5,6.45,1.01,9.56,2.14,1.58,.57,3.09,1.3,4.56,2.08,.34,.78,.61,1.53,.83,2.28Z"/><path class="o" d="M86.97,151.81c-.05,.54-.14,1.09-.25,1.63-7.28-3.02-15-5.15-22.79-6.29-1.13-.17-2.27-.31-3.4-.44,.18-.5,.38-1.02,.6-1.55,1.13,.13,2.27,.28,3.4,.45,7.67,1.16,15.26,3.25,22.45,6.2Z"/><path class="o" d="M43.01,105.21c-5.02-2.48-10.41-4.23-15.93-5.13-1.43-.24-2.87-.41-4.31-.53,.84-.51,1.71-.96,2.6-1.34,1.37,.18,2.73,.4,4.09,.68,4.45,.9,8.8,2.33,12.92,4.25,.31,.67,.52,1.37,.63,2.08Z"/><path class="o" d="M36.78,119.69c-.36,.43-.73,.85-1.11,1.26-6.46-2.94-13.27-5.21-20.2-6.7-1.62-.35-3.25-.66-4.88-.92,.23-.49,.49-.99,.77-1.5,1.61,.27,3.23,.59,4.83,.94,7.06,1.56,14,3.89,20.58,6.93Z"/><path class="o" d="M41.68,112.32c-.22,.48-.46,.95-.72,1.42-5.91-3.03-12.9-5.23-21.29-6.72-1.47-.26-2.98-.5-4.53-.71,.4-.49,.83-.97,1.26-1.45,1.41,.2,2.88,.44,4.39,.72,6.63,1.22,14.01,3.21,20.89,6.74Z"/><path class="o" d="M25.64,132.2c-.23,.48-.45,.97-.65,1.47-5.51-2.28-11.2-4.1-17.02-5.43-1.07-.25-2.15-.47-3.22-.69,.25-.53,.5-1.03,.74-1.49,1.02,.21,2.03,.42,3.04,.66,5.85,1.35,11.58,3.19,17.12,5.48Z"/><path class="o" d="M23.62,137.74c-.15,.52-.31,1.04-.46,1.55-5.28-2.43-10.89-4.1-16.63-4.97-1.24-.19-2.49-.34-3.74-.45,.08-.54,.19-1.07,.31-1.58,1.24,.11,2.48,.26,3.71,.45,5.81,.88,11.48,2.56,16.82,5Z"/><path class="o" d="M21.95,142.85c-.2,.5-.42,1-.66,1.48-.45-.13-.89-.25-1.32-.36-4.6-1.18-9.34-1.98-14.03-2.66-.96-.14-1.92-.28-2.88-.41-.14-.56-.25-1.11-.33-1.67,1.07,.15,2.14,.3,3.21,.45,4.81,.7,9.68,1.51,14.43,2.73,.52,.13,1.05,.27,1.58,.43Z"/><path class="c" d="M70.29,62.77c-1.56,.59-3.11,1.27-4.62,2.02-.51,.26-1.02,.53-1.52,.82-1.49,.84-2.92,1.77-4.24,2.82-.42,.33-.84,.68-1.24,1.04-1.42,1.27-2.69,2.7-3.75,4.29-.23,.35-.46,.71-.67,1.08-.07,.12-.14,.24-.2,.36-.93,1.69-1.59,3.56-1.63,5.48-.03,1.3,.26,2.63,.87,3.76-.91-.61-1.71-1.52-2.37-2.79-1.63-3.13-1.21-6.23,.53-9.16,.27-.45,.57-.91,.91-1.35,1.01-1.36,2.28-2.66,3.74-3.91,.41-.35,.83-.7,1.27-1.03,1.24-.96,2.58-1.88,4-2.75,.49-.3,.99-.6,1.5-.89,1.18-.68,2.39-1.32,3.62-1.93,1.35,.49,2.62,1.24,3.8,2.15Z"/><path class="c" d="M114.07,49.47c-2.42-.94-5-1.45-7.63-1.59-.86-.05-1.72-.06-2.58-.03-2.55,.08-5.1,.48-7.56,1.14-.4,.11-.79,.22-1.18,.34-.22,.07-.44,.14-.66,.21-1.99,.65-3.92,1.44-5.81,2.35-.52,.25-1.04,.51-1.55,.77-1.73,.89-3.42,1.87-5.08,2.9-.48,.3-.96,.6-1.43,.9-1.88,1.2-3.72,2.47-5.54,3.74-.91-.58-1.89-1.09-2.94-1.5,1.25-1.22,3.1-2.76,5.35-4.37,.47-.34,.96-.67,1.46-1.01,1.56-1.05,3.28-2.11,5.11-3.1,.52-.28,1.04-.56,1.58-.83,1.76-.89,3.61-1.7,5.5-2.38,.63-.23,1.26-.44,1.89-.63,2.23-.69,4.5-1.17,6.75-1.36,.96-.08,1.91-.11,2.86-.07,4.04,.14,7.91,1.39,11.25,4.28,.07,.08,.14,.16,.21,.25Z"/><path class="c" d="M35.45,97.6c-2.05,.05-4.1,.5-5.99,1.28-.07,.03-.14,.06-.21,.09-.75,.32-1.47,.69-2.16,1.11-2.4,1.42-4.49,3.33-6.28,5.5-.39,.47-.76,.95-1.13,1.44-.35,.48-.69,.97-1.01,1.46-.9,1.38-1.71,2.81-2.46,4.28-.25,.49-.49,.98-.73,1.48-.75,1.57-1.43,3.17-2.1,4.77-2.49-.86-4.21-1.39-4.21-1.39,.16-1.18,.65-2.67,1.43-4.3,.23-.49,.49-.99,.77-1.5,.99-1.79,2.26-3.69,3.77-5.51,.4-.49,.83-.97,1.26-1.45,1.87-2.04,4.03-3.91,6.36-5.32,.84-.51,1.71-.96,2.6-1.34,3.19-1.36,6.62-1.77,10.08-.61Z"/><path class="c" d="M10.16,123.38c-.64,1.06-1.18,2.18-1.65,3.34-.2,.5-.39,1.01-.56,1.52-.49,1.47-.86,2.98-1.16,4.51-.1,.53-.19,1.05-.28,1.58-.12,.75-.22,1.49-.31,2.24-.13,1.03-.23,2.08-.27,3.12-.02,.54-.02,1.08,0,1.62,.04,1.05,.18,2.09,.44,3.11,.29,1.08,.75,2.14,1.38,3.07-2.13-1.31-3.9-3.46-4.7-6.58h0c-.14-.57-.25-1.12-.33-1.68-.27-1.86-.21-3.66,.05-5.36,.08-.54,.19-1.07,.31-1.58,.41-1.76,1.02-3.37,1.65-4.74,.25-.53,.5-1.03,.74-1.49,1.1-2.05,2.08-3.29,2.08-3.29,0,0,1.01,.2,2.6,.61Z"/><path class="c" d="M74.79,135.91c-1.87,.49-3.65,1.4-5.14,2.62-.37,.3-.73,.62-1.07,.96-.46,.45-.88,.92-1.28,1.42-1.14,1.41-2.05,3.01-2.77,4.7-.22,.5-.42,1.02-.6,1.54-.25,.71-.47,1.43-.66,2.15-.25,.96-.45,1.93-.61,2.9-.09,.53-.17,1.05-.24,1.59-.27,2.1-.41,4.21-.51,6.33l-3.61-.26s-.47-2.2,.35-6.51c.09-.5,.21-1.02,.34-1.58,.35-1.49,.85-3.17,1.54-5.06,.18-.5,.38-1.02,.6-1.55,.07-.18,.15-.37,.23-.56,.7-1.67,1.53-3.08,2.46-4.23,.42-.52,.86-1,1.32-1.42,2.86-2.65,6.36-3.46,9.66-3.04Z"/><path class="c" d="M113.57,108.34c-1.64-.06-3.28-.01-4.91,.15-.63,.06-1.26,.14-1.89,.23-1.96,.29-3.89,.75-5.78,1.35-.54,.17-1.07,.36-1.6,.55-1.47,.55-2.91,1.19-4.3,1.93-.06,.03-.12,.06-.18,.09-.42,.22-.83,.46-1.24,.7-1.64,.98-3.19,2.14-4.45,3.56-.3,.34-.58,.69-.84,1.05-.07,.1-.14,.2-.21,.3-.99,1.47-1.65,3.2-1.78,4.95-.3-.55-.52-1.13-.64-1.74,0-1.89,.45-3.58,1.24-5.09,.27-.53,.59-1.03,.94-1.51,1.03-1.43,2.37-2.67,3.88-3.75,.44-.31,.89-.61,1.35-.89,1.35-.83,2.78-1.54,4.22-2.15,.52-.22,1.04-.43,1.56-.62,1.86-.7,3.68-1.24,5.26-1.64,.64-.16,1.24-.3,1.79-.42,2.04-.45,3.37-.62,3.37-.62,1.58,.99,2.98,2.22,4.21,3.56Z"/><path class="c" d="M154.29,98.62c-2-.86-4.15-1.41-6.35-1.68-.77-.1-1.54-.16-2.32-.19h0c-2.07-.08-4.15,.07-6.16,.42-.26,.05-.53,.09-.79,.15-.58,.11-1.16,.24-1.73,.39-1.89,.47-3.74,1.08-5.56,1.79-.52,.2-1.03,.41-1.55,.63-1.49,.63-2.96,1.32-4.41,2.04-.49,.24-.97,.49-1.46,.74-1.4,.72-2.79,1.46-4.17,2.21-.94-1.09-2-2.12-3.19-3.04,1.05-.81,2.5-1.78,4.24-2.77,.47-.27,.95-.54,1.46-.8,1.33-.71,2.78-1.41,4.32-2.07,.52-.22,1.05-.44,1.59-.65,1.77-.7,3.63-1.32,5.52-1.81,.6-.16,1.2-.3,1.8-.42,1.93-.41,3.87-.66,5.75-.69,.92-.02,1.83,.02,2.71,.11,3.83,.41,7.31,1.91,9.86,5.09,.16,.19,.31,.39,.45,.58Z"/></g></g></g></svg>