<svg width="395" height="222" viewBox="0 0 395 222" fill="none" xmlns="http://www.w3.org/2000/svg">
<g clip-path="url(#clip0_24_6266)">
<path fill-rule="evenodd" clip-rule="evenodd" d="M258.489 54.023L279.335 50.6L275.27 63.263L258.489 54.023Z" fill="#09D8A2"/>
<path fill-rule="evenodd" clip-rule="evenodd" d="M253.589 39.056L267.352 27.781L269.72 38.728L253.589 39.056Z" fill="#09D8A2"/>
<path fill-rule="evenodd" clip-rule="evenodd" d="M253.378 70.477L270.263 76.083L262.276 83.935L253.378 70.477Z" fill="#09D8A2"/>
<path fill-rule="evenodd" clip-rule="evenodd" d="M227.358 0.0890059C220.67 0.873006 214.019 1.66268 207.405 2.45801C200.505 3.30501 193.649 4.14401 186.797 4.96401C180.292 5.73801 173.818 6.51234 167.374 7.28701C160.677 8.08701 154.008 8.87968 147.367 9.66501C139.659 10.576 134.694 18.575 136.188 27.248C136.607 29.662 137.026 32.062 137.445 34.448C135.131 31.196 133.173 26.267 124.945 31.169C118.485 35.031 113.174 42.502 116.445 56.988C120.919 76.767 135.751 78.735 144.925 77.915L145.472 80.994C146.665 87.855 158.163 92.884 164.859 92.31L166.772 92.146L168.039 111.159L197.129 88.975C201.796 88.565 206.475 88.146 211.168 87.718C216.817 87.199 222.502 86.67 228.178 86.178C231.684 85.7775 234.928 84.1247 237.313 81.5236C239.698 78.9225 241.064 75.5478 241.16 72.02L241.178 71.328C216.935 71.811 195.744 65.443 177.787 51.786C200.144 52.679 221.764 51.039 241.625 43.331C241.698 39.149 241.77 34.858 241.834 30.558C241.925 25.547 241.998 20.418 242.08 15.207C242.217 6.011 235.512 -0.866994 227.358 0.0890059ZM127.542 54.58C124.335 40.395 133.856 38.837 138.211 38.837C138.375 39.775 138.539 40.713 138.694 41.643C139.486 46.326 140.294 50.917 141.072 55.443C141.7 59.069 142.313 62.6647 142.912 66.23C137.373 67.149 130.111 65.949 127.542 54.58ZM196.436 38.709C192.874 39.493 189.166 36.058 188.155 31.029C187.144 26 189.202 21.281 192.774 20.488C196.346 19.695 200.044 23.139 201.055 28.168C202.066 33.197 200.008 37.917 196.436 38.709ZM222.092 34.573C218.739 35.311 215.241 32.073 214.284 27.339C213.327 22.605 215.277 18.156 218.639 17.418C222.001 16.68 225.481 19.905 226.439 24.642C227.397 29.379 225.444 33.826 222.089 34.573H222.092Z" fill="#09D8A2"/>
<path fill-rule="evenodd" clip-rule="evenodd" d="M258.489 54.023L279.335 50.6L275.27 63.263L258.489 54.023Z" fill="#09D8A2"/>
<path fill-rule="evenodd" clip-rule="evenodd" d="M253.589 39.056L267.352 27.781L269.72 38.728L253.589 39.056Z" fill="#09D8A2"/>
<path fill-rule="evenodd" clip-rule="evenodd" d="M253.378 70.477L270.263 76.083L262.276 83.935L253.378 70.477Z" fill="#09D8A2"/>
<path d="M342.207 120.87H324.585V133.33H342.207V120.87Z" fill="white"/>
<path fill-rule="evenodd" clip-rule="evenodd" d="M25.189 186.874C35.78 186.874 42.189 182.424 46.638 175.838L35.157 167.561C32.487 170.676 30.084 172.634 26.079 172.634C20.379 172.634 16.467 167.917 16.467 161.687C16.467 155.635 20.205 150.829 26.346 150.829C29.995 150.829 32.754 152.342 35.068 155.546L46.368 147.358C42.274 140.858 35.688 136.589 25.809 136.589C10.59 136.589 -0.000963813 148.07 -0.000963813 161.689C-0.0413674 165.008 0.58263 168.301 1.8343 171.376C3.08597 174.45 4.94002 177.242 7.28729 179.589C9.63456 181.936 12.4276 183.79 15.502 185.041C18.5764 186.292 21.8701 186.915 25.189 186.874Z" fill="white"/>
<path fill-rule="evenodd" clip-rule="evenodd" d="M92.6671 144.049C88.9861 140.086 83.201 137.818 74.567 137.481C67.8956 137.115 61.2205 138.132 54.961 140.469L57.977 152.522C62.2343 150.907 66.7748 150.173 71.324 150.363C77.811 150.609 80.824 153.57 80.624 158.563L80.596 159.355C76.9101 157.977 73.028 157.196 69.096 157.041C57.808 156.622 50.055 161.478 49.681 171.454C49.308 181.23 56.122 186.742 65.281 187.088C67.935 187.278 70.5984 186.884 73.0837 185.934C75.569 184.984 77.8158 183.5 79.666 181.588L79.475 186.562L96.1841 187.209L97.2401 159.55C97.5051 152.783 96.1741 147.744 92.6671 144.049ZM80.4041 169.14C80.2131 173.94 76.632 176.92 71.7311 176.74C68.278 176.613 65.864 174.554 65.982 171.265C66.119 167.538 69.052 165.243 73.954 165.434C76.2072 165.507 78.425 166.015 80.486 166.928L80.4041 169.14Z" fill="white"/>
<path fill-rule="evenodd" clip-rule="evenodd" d="M108.937 185.717H125.758V151.096H136.527V138.102H125.489V136.949C125.489 133.834 127.18 132.41 130.295 132.41C132.44 132.396 134.574 132.726 136.614 133.389V121.459C133.024 120.459 129.303 120.009 125.578 120.124C119.878 120.124 115.966 121.37 113.029 124.307C110.181 127.155 108.935 131.249 108.935 136.767V137.835H103.328V151.096H108.935L108.937 185.717Z" fill="white"/>
<path fill-rule="evenodd" clip-rule="evenodd" d="M166.982 137.021C152.882 135.035 141.39 144.647 139.432 158.577C137.327 173.555 146.501 184.997 161.479 187.093C170.99 188.441 178.151 185.493 183.554 180.315L175.373 171.341C171.473 174.22 168.084 175.276 164.121 174.703C158.928 173.974 155.493 170.803 154.901 165.428L186.807 169.901C187.052 168.762 187.226 167.532 187.38 166.476C189.339 152.464 183.463 139.326 166.982 137.021ZM155.849 156.837C157.449 151.762 160.932 148.746 165.333 149.366C169.933 150.013 172.539 153.785 172.421 159.166L155.849 156.837Z" fill="white"/>
<path fill-rule="evenodd" clip-rule="evenodd" d="M213.958 186.696C218.045 186.787 222.087 185.837 225.706 183.937V170.676C223.717 171.684 221.527 172.231 219.298 172.276C216.183 172.276 214.67 170.852 214.67 167.47V151.185H225.883V137.568H214.67V125.375H197.76V137.568H192.06V151.185H197.76V170.765C197.76 182.249 203.812 186.696 213.958 186.696Z" fill="white"/>
<path fill-rule="evenodd" clip-rule="evenodd" d="M286.489 185.717H303.399V170.765C303.399 159.64 308.383 154.565 317.194 154.565H318.618V136.765C310.608 136.409 306.158 140.681 303.399 147.265V137.565H286.489V185.717Z" fill="white"/>
<path d="M341.852 137.567H324.942V185.716H341.852V137.567Z" fill="white"/>
<path fill-rule="evenodd" clip-rule="evenodd" d="M390.637 141.558C387.102 137.458 381.39 134.999 372.78 134.379C366.123 133.777 359.413 134.56 353.074 136.679L355.674 148.824C359.985 147.365 364.546 146.791 369.084 147.138C375.571 147.603 378.477 150.664 378.113 155.638L378.058 156.438C374.423 154.928 370.569 154.011 366.643 153.723C355.382 152.903 347.465 157.504 346.743 167.453C346.032 177.219 352.664 182.953 361.802 183.624C364.445 183.904 367.117 183.6 369.629 182.735C372.142 181.869 374.434 180.462 376.343 178.613L375.987 183.587L392.669 184.787L394.669 157.187C395.174 150.449 394.017 145.376 390.637 141.558ZM377.527 166.211C377.181 171.004 373.491 173.864 368.608 173.5C365.146 173.245 362.808 171.113 363.041 167.833C363.315 164.107 366.321 161.92 371.204 162.267C373.453 162.433 375.65 163.021 377.682 163.998L377.527 166.211Z" fill="white"/>
<path fill-rule="evenodd" clip-rule="evenodd" d="M270.189 166.375C267.538 170.43 264.741 172.598 260.842 173.482C255.713 174.639 251.394 172.862 248.942 168.034L280.373 160.991C280.2 159.843 279.936 158.631 279.708 157.591C276.601 143.779 266.47 133.566 250.244 137.191C236.351 140.316 228.971 153.363 232.05 167.074C235.358 181.842 247.976 189.313 262.726 186.006C272.11 183.906 277.758 178.626 281.002 171.875L270.189 166.375ZM253.04 149.339C257.568 148.327 261.34 150.933 263.126 156.017L246.799 159.67C246.517 154.349 248.713 150.304 253.04 149.339Z" fill="white"/>
<path fill-rule="evenodd" clip-rule="evenodd" d="M61.479 218.075H64.979V211.921H72.563V208.742H64.979V205.359H73.585V202.18H61.485L61.479 218.075Z" fill="#09D8A2"/>
<path fill-rule="evenodd" clip-rule="evenodd" d="M76.08 204.564H79.713V201.499H76.08V204.564ZM76.171 218.075H79.622V205.904H76.171V218.075Z" fill="#09D8A2"/>
<path fill-rule="evenodd" clip-rule="evenodd" d="M82.869 218.075H86.32V211.286C86.32 209.651 87.161 208.81 88.478 208.81C89.795 208.81 90.567 209.651 90.567 211.286V218.075H94.018V210.196C94.018 207.403 92.497 205.677 89.886 205.677C89.1768 205.684 88.4802 205.866 87.8581 206.206C87.236 206.547 86.7076 207.036 86.32 207.63V205.904H82.869V218.075Z" fill="#09D8A2"/>
<path fill-rule="evenodd" clip-rule="evenodd" d="M102.011 218.302C102.758 218.316 103.496 218.142 104.158 217.797C104.821 217.452 105.386 216.947 105.803 216.327V218.075H109.255V201.499H105.803V207.493C105.357 206.915 104.781 206.45 104.123 206.135C103.464 205.819 102.741 205.663 102.011 205.677C99.127 205.677 96.471 207.902 96.471 211.967C96.471 216.077 99.171 218.302 102.011 218.302ZM102.897 215.373C102.209 215.467 101.509 215.349 100.89 215.035C100.271 214.721 99.7618 214.226 99.4312 213.616C99.1006 213.005 98.9639 212.309 99.0393 211.618C99.1148 210.928 99.3988 210.278 99.8535 209.753C100.308 209.228 100.912 208.855 101.584 208.682C102.257 208.509 102.966 208.546 103.617 208.786C104.268 209.027 104.831 209.46 105.23 210.028C105.628 210.596 105.844 211.273 105.849 211.967C105.891 212.387 105.847 212.811 105.719 213.213C105.592 213.615 105.383 213.987 105.107 214.306C104.831 214.625 104.492 214.884 104.112 215.068C103.732 215.251 103.319 215.355 102.897 215.373Z" fill="#09D8A2"/>
<path fill-rule="evenodd" clip-rule="evenodd" d="M122.061 221.776C124.128 221.776 125.127 220.845 126.061 218.37L130.738 205.904H127.151L124.494 214.192L121.724 205.904H118.068L122.836 218.12C122.756 218.369 122.593 218.583 122.375 218.728C122.157 218.872 121.897 218.938 121.636 218.915C121.112 218.882 120.604 218.718 120.16 218.438L119.002 220.938C119.922 221.5 120.983 221.791 122.061 221.776Z" fill="#09D8A2"/>
<path fill-rule="evenodd" clip-rule="evenodd" d="M138.07 218.349C139.314 218.305 140.517 217.896 141.53 217.174C142.543 216.451 143.321 215.446 143.766 214.284C144.212 213.122 144.306 211.855 144.036 210.64C143.767 209.425 143.146 208.316 142.25 207.452C141.355 206.587 140.225 206.006 139.002 205.779C137.778 205.552 136.515 205.691 135.369 206.177C134.224 206.663 133.247 207.476 132.56 208.514C131.873 209.552 131.507 210.769 131.507 212.013C131.514 212.862 131.69 213.702 132.025 214.482C132.36 215.263 132.847 215.969 133.458 216.559C134.069 217.149 134.792 217.611 135.584 217.918C136.376 218.226 137.221 218.372 138.07 218.349ZM138.115 215.374C137.682 215.37 137.255 215.279 136.858 215.106C136.461 214.934 136.103 214.684 135.804 214.37C135.506 214.057 135.273 213.687 135.121 213.282C134.968 212.877 134.898 212.445 134.915 212.013C134.883 211.581 134.941 211.147 135.086 210.738C135.231 210.33 135.458 209.956 135.755 209.64C136.052 209.324 136.411 209.073 136.809 208.903C137.208 208.733 137.638 208.648 138.071 208.653C138.504 208.657 138.931 208.748 139.328 208.921C139.725 209.093 140.083 209.343 140.381 209.657C140.68 209.97 140.912 210.34 141.065 210.745C141.218 211.149 141.288 211.581 141.271 212.013C141.303 212.445 141.244 212.879 141.099 213.287C140.955 213.696 140.727 214.07 140.43 214.385C140.134 214.701 139.775 214.952 139.376 215.122C138.978 215.292 138.548 215.377 138.115 215.373V215.374Z" fill="#09D8A2"/>
<path fill-rule="evenodd" clip-rule="evenodd" d="M151.217 218.302C151.926 218.296 152.623 218.114 153.245 217.773C153.867 217.433 154.395 216.943 154.782 216.349V218.075H158.234V205.904H154.782V212.693C154.782 214.328 153.942 215.168 152.625 215.168C151.308 215.168 150.536 214.328 150.536 212.693V205.904H147.089V213.783C147.089 216.576 148.606 218.302 151.217 218.302Z" fill="#09D8A2"/>
<path fill-rule="evenodd" clip-rule="evenodd" d="M161.322 218.075H164.773V213.575C164.773 210.669 166.181 209.283 168.473 209.283H168.654V205.673C167.798 205.609 166.946 205.84 166.24 206.328C165.534 206.815 165.015 207.529 164.771 208.352V205.9H161.32L161.322 218.075Z" fill="#09D8A2"/>
<path fill-rule="evenodd" clip-rule="evenodd" d="M178.216 218.075H181.667V208.856H184.415V206.04H181.622V205.563C181.622 204.655 182.076 204.246 182.871 204.246C183.407 204.248 183.938 204.348 184.438 204.541V201.68C183.644 201.434 182.816 201.319 181.985 201.34C181.479 201.304 180.971 201.37 180.492 201.534C180.012 201.697 179.57 201.956 179.192 202.294C178.841 202.697 178.574 203.165 178.407 203.672C178.239 204.179 178.174 204.714 178.216 205.246V206.017H176.789V208.856H178.22L178.216 218.075Z" fill="#09D8A2"/>
<path fill-rule="evenodd" clip-rule="evenodd" d="M192.045 218.349C193.289 218.305 194.492 217.896 195.505 217.174C196.518 216.451 197.296 215.446 197.741 214.284C198.187 213.122 198.281 211.855 198.011 210.64C197.742 209.425 197.121 208.316 196.225 207.452C195.33 206.587 194.2 206.006 192.977 205.779C191.753 205.552 190.49 205.691 189.344 206.177C188.199 206.663 187.222 207.476 186.535 208.514C185.848 209.552 185.482 210.769 185.482 212.013C185.489 212.862 185.665 213.702 186 214.483C186.335 215.263 186.822 215.969 187.433 216.559C188.044 217.149 188.767 217.611 189.559 217.919C190.351 218.226 191.196 218.372 192.045 218.349ZM192.09 215.374C191.657 215.37 191.23 215.279 190.833 215.106C190.436 214.934 190.078 214.684 189.779 214.37C189.481 214.057 189.248 213.687 189.096 213.282C188.943 212.877 188.873 212.445 188.89 212.013C188.858 211.581 188.917 211.147 189.061 210.738C189.206 210.33 189.434 209.956 189.731 209.64C190.028 209.324 190.387 209.073 190.785 208.903C191.184 208.734 191.614 208.648 192.047 208.653C192.48 208.657 192.907 208.748 193.304 208.92C193.701 209.093 194.059 209.343 194.358 209.656C194.656 209.97 194.889 210.34 195.041 210.744C195.194 211.149 195.264 211.581 195.247 212.013C195.279 212.445 195.22 212.879 195.076 213.288C194.931 213.697 194.703 214.071 194.406 214.387C194.109 214.702 193.75 214.953 193.351 215.123C192.952 215.293 192.522 215.378 192.089 215.373L192.09 215.374Z" fill="#09D8A2"/>
<path fill-rule="evenodd" clip-rule="evenodd" d="M201.15 218.075H204.602V213.575C204.602 210.669 206.009 209.283 208.302 209.283H208.483V205.673C207.627 205.609 206.776 205.84 206.069 206.328C205.363 206.815 204.845 207.529 204.601 208.352V205.9H201.149L201.15 218.075Z" fill="#09D8A2"/>
<path fill-rule="evenodd" clip-rule="evenodd" d="M216.069 218.349C217.018 218.384 217.961 218.197 218.825 217.803C219.688 217.409 220.447 216.818 221.042 216.078L219.066 214.329C218.687 214.73 218.229 215.048 217.721 215.263C217.213 215.478 216.666 215.585 216.114 215.578C215.41 215.624 214.714 215.405 214.163 214.964C213.613 214.523 213.247 213.891 213.139 213.194H221.609C221.632 212.876 221.655 212.558 221.655 212.286C221.655 208.834 219.793 205.678 215.728 205.678C214.078 205.766 212.527 206.495 211.407 207.709C210.286 208.924 209.684 210.528 209.728 212.18C209.772 213.832 210.46 215.401 211.645 216.553C212.829 217.705 214.416 218.35 216.069 218.349ZM213.094 211.037C213.367 209.47 214.294 208.448 215.728 208.448C216.409 208.46 217.058 208.737 217.538 209.221C218.017 209.704 218.288 210.356 218.294 211.037H213.094Z" fill="#09D8A2"/>
<path fill-rule="evenodd" clip-rule="evenodd" d="M227.354 218.166H230.489L235.28 205.904H231.689L228.941 214.056L226.216 205.904H222.56L227.354 218.166Z" fill="#09D8A2"/>
<path fill-rule="evenodd" clip-rule="evenodd" d="M242.363 218.349C243.312 218.385 244.255 218.198 245.119 217.803C245.982 217.409 246.742 216.818 247.336 216.078L245.361 214.329C244.982 214.73 244.524 215.048 244.016 215.263C243.508 215.478 242.961 215.585 242.409 215.578C241.705 215.624 241.009 215.405 240.458 214.964C239.908 214.523 239.542 213.891 239.434 213.194H247.904C247.927 212.876 247.95 212.558 247.95 212.286C247.95 208.834 246.088 205.678 242.023 205.678C240.373 205.766 238.822 206.495 237.702 207.709C236.581 208.923 235.979 210.527 236.023 212.179C236.067 213.831 236.755 215.4 237.939 216.553C239.123 217.705 240.711 218.35 242.363 218.349ZM239.389 211.037C239.661 209.47 240.589 208.448 242.023 208.448C242.704 208.46 243.353 208.737 243.833 209.221C244.312 209.704 244.583 210.356 244.589 211.037H239.389Z" fill="#09D8A2"/>
<path fill-rule="evenodd" clip-rule="evenodd" d="M250.515 218.075H253.967V213.575C253.967 210.669 255.375 209.283 257.667 209.283H257.849V205.673C256.993 205.609 256.141 205.84 255.435 206.328C254.729 206.815 254.21 207.529 253.966 208.352V205.9H250.514L250.515 218.075Z" fill="#09D8A2"/>
<path fill-rule="evenodd" clip-rule="evenodd" d="M272.269 221.754C274.63 221.754 276.379 221.254 277.514 220.119C278.076 219.462 278.501 218.7 278.766 217.878C279.031 217.055 279.13 216.188 279.058 215.327V205.904H275.607V207.493C275.133 206.911 274.534 206.446 273.853 206.131C273.172 205.816 272.429 205.661 271.679 205.677C270.219 205.754 268.845 206.389 267.839 207.449C266.834 208.51 266.273 209.915 266.273 211.377C266.273 212.839 266.834 214.244 267.839 215.305C268.845 216.365 270.219 217 271.679 217.077C272.452 217.095 273.218 216.925 273.91 216.581C274.602 216.236 275.2 215.728 275.652 215.101V215.692C275.652 217.872 274.54 219.007 272.178 219.007C270.732 219.017 269.311 218.632 268.068 217.894L266.889 220.482C268.554 221.335 270.4 221.772 272.271 221.754H272.269ZM272.678 214.215C272.295 214.231 271.913 214.17 271.555 214.034C271.196 213.899 270.869 213.692 270.592 213.427C270.316 213.162 270.096 212.844 269.946 212.491C269.795 212.139 269.718 211.76 269.718 211.377C269.718 210.993 269.795 210.614 269.946 210.262C270.096 209.909 270.316 209.591 270.592 209.326C270.869 209.061 271.196 208.854 271.555 208.719C271.913 208.583 272.295 208.522 272.678 208.538C273.063 208.519 273.447 208.578 273.808 208.712C274.169 208.846 274.499 209.052 274.778 209.318C275.057 209.583 275.279 209.903 275.431 210.256C275.583 210.61 275.661 210.991 275.661 211.377C275.661 211.762 275.583 212.143 275.431 212.497C275.279 212.851 275.057 213.17 274.778 213.435C274.499 213.701 274.169 213.907 273.808 214.041C273.447 214.175 273.063 214.234 272.678 214.215Z" fill="#09D8A2"/>
<path fill-rule="evenodd" clip-rule="evenodd" d="M282.146 218.075H285.598V213.575C285.598 210.669 287.006 209.283 289.298 209.283H289.48V205.673C288.624 205.609 287.772 205.84 287.066 206.328C286.36 206.815 285.841 207.529 285.597 208.352V205.9H282.145L282.146 218.075Z" fill="#09D8A2"/>
<path fill-rule="evenodd" clip-rule="evenodd" d="M297.269 218.349C298.513 218.305 299.716 217.897 300.729 217.174C301.742 216.451 302.52 215.446 302.966 214.284C303.412 213.123 303.506 211.855 303.237 210.64C302.967 209.425 302.346 208.316 301.451 207.452C300.556 206.588 299.426 206.006 298.202 205.779C296.978 205.552 295.715 205.691 294.57 206.177C293.424 206.663 292.447 207.476 291.76 208.514C291.073 209.552 290.707 210.769 290.707 212.013C290.714 212.862 290.89 213.702 291.224 214.482C291.559 215.263 292.047 215.969 292.658 216.559C293.269 217.149 293.991 217.611 294.783 217.918C295.575 218.226 296.42 218.372 297.269 218.349ZM297.315 215.374C296.882 215.37 296.455 215.279 296.058 215.106C295.661 214.934 295.303 214.684 295.004 214.37C294.706 214.057 294.473 213.687 294.321 213.282C294.168 212.877 294.098 212.445 294.115 212.013C294.083 211.581 294.142 211.147 294.286 210.738C294.431 210.33 294.659 209.956 294.956 209.64C295.252 209.324 295.611 209.074 296.01 208.904C296.408 208.734 296.838 208.648 297.271 208.653C297.704 208.657 298.131 208.748 298.528 208.92C298.925 209.093 299.283 209.343 299.582 209.656C299.88 209.97 300.113 210.34 300.265 210.744C300.418 211.149 300.488 211.581 300.471 212.013C300.503 212.445 300.444 212.879 300.299 213.287C300.155 213.696 299.927 214.07 299.63 214.385C299.334 214.701 298.975 214.952 298.576 215.122C298.178 215.292 297.748 215.377 297.315 215.373V215.374Z" fill="#09D8A2"/>
<path fill-rule="evenodd" clip-rule="evenodd" d="M310.417 218.302C311.126 218.295 311.822 218.113 312.444 217.773C313.066 217.432 313.594 216.943 313.982 216.349V218.075H317.433V205.904H313.982V212.693C313.982 214.328 313.142 215.168 311.825 215.168C310.508 215.168 309.736 214.328 309.736 212.693V205.904H306.284V213.783C306.284 216.576 307.805 218.302 310.417 218.302Z" fill="#09D8A2"/>
<path fill-rule="evenodd" clip-rule="evenodd" d="M320.521 221.708H323.973V216.486C324.419 217.064 324.995 217.529 325.653 217.844C326.312 218.16 327.035 218.317 327.765 218.302C330.649 218.302 333.306 216.077 333.306 212.012C333.306 207.902 330.606 205.677 327.765 205.677C327.018 205.663 326.28 205.837 325.618 206.182C324.955 206.527 324.39 207.032 323.973 207.652V205.904H320.521V221.704V221.708ZM326.879 215.373C326.192 215.462 325.495 215.339 324.879 215.022C324.263 214.705 323.759 214.208 323.433 213.597C323.106 212.986 322.974 212.29 323.052 211.602C323.131 210.914 323.417 210.266 323.872 209.745C324.328 209.223 324.931 208.852 325.603 208.682C326.274 208.512 326.981 208.55 327.63 208.791C328.28 209.032 328.84 209.465 329.237 210.032C329.634 210.6 329.85 211.274 329.854 211.967C329.898 212.389 329.854 212.816 329.726 213.22C329.598 213.625 329.387 213.998 329.108 214.318C328.829 214.638 328.487 214.896 328.104 215.078C327.72 215.259 327.303 215.36 326.879 215.373Z" fill="#09D8A2"/>
</g>
<defs>
<clipPath id="clip0_24_6266">
<rect width="394.785" height="221.776" fill="white"/>
</clipPath>
</defs>
</svg>
