<?xml version="1.0" encoding="UTF-8"?>
<svg xmlns="http://www.w3.org/2000/svg" viewBox="0 0 901.97 301">
  <defs>
    <style>
      .cls-1 {
        fill: #f1df38;
      }

      .cls-2 {
        fill: #915325;
      }

      .cls-3 {
        fill: #ff9429;
      }

      .cls-4 {
        fill: #7a441f;
      }

      .cls-5 {
        isolation: isolate;
      }

      .cls-6 {
        fill: #927c5d;
      }

      .cls-7 {
        fill: #bc5229;
      }

      .cls-8 {
        fill: #8bfcc4;
      }

      .cls-9 {
        opacity: .47;
      }

      .cls-9, .cls-10, .cls-11, .cls-12, .cls-13 {
        fill: #b26d43;
      }

      .cls-9, .cls-10, .cls-11, .cls-12, .cls-13, .cls-14, .cls-15 {
        mix-blend-mode: multiply;
      }

      .cls-10 {
        opacity: .53;
      }

      .cls-11 {
        opacity: .33;
      }

      .cls-16 {
        fill: #ff88c1;
      }

      .cls-12 {
        opacity: .31;
      }

      .cls-17 {
        fill: #e24b97;
      }

      .cls-18 {
        fill: #ac7146;
      }

      .cls-19 {
        fill: #e87925;
      }

      .cls-20 {
        fill: #b0ef43;
      }

      .cls-21 {
        fill: #ffce30;
      }

      .cls-22 {
        fill: #ebab66;
      }

      .cls-23 {
        fill: #f89d30;
      }

      .cls-13 {
        opacity: .41;
      }

      .cls-24 {
        fill: #62d397;
      }

      .cls-25 {
        fill: #df8040;
      }

      .cls-26 {
        fill: #e24268;
      }

      .cls-27 {
        fill: #e46b2a;
      }

      .cls-28 {
        fill: #d8c428;
      }

      .cls-14 {
        fill: #9a2c45;
        opacity: .4;
      }

      .cls-29 {
        fill: #9c5f33;
      }

      .cls-15 {
        fill: #475f89;
        opacity: .35;
      }

      .cls-30 {
        fill: #ffee9d;
      }

      .cls-31 {
        fill: #f5923a;
      }

      .cls-32 {
        fill: #c8824e;
      }
    </style>
  </defs>
  <g class="cls-5">
    <g id="Layer_2" data-name="Layer 2">
      <g id="Layer_1-2" data-name="Layer 1">
        <g>
          <g>
            <path class="cls-19" d="M194.13,197.94c3.92-5.52,4.67-11.83,3.93-17.79l-24.49,6.6c-.09,.13-.19,.25-.31,.36l16.54,15.96c1.48-1.46,2.93-3.15,4.34-5.13Z"/>
            <path class="cls-31" d="M199.64,206.8c19.89-25.39-3.78-47.56-3.78-47.56,0,0-.78,1.02-2.22,2.9,4.13,7.66,10.94,24.16,1.87,36.89-14.81,20.72-34.71,13.1-41.28,9.76-.77,.85-1.55,1.71-2.35,2.57,0,0,28.1,20.56,47.75-4.55Z"/>
            <path class="cls-19" d="M170.53,190.34c-4.61,5.35-9.7,11.16-15.19,17.22,3.05,1.51,8.49,3.64,14.83,3.7l.36-20.92Z"/>
            <path class="cls-19" d="M188.64,204.15l-16.41-15.83-.02,.03-.4,22.88c5.38-.24,11.28-2.1,16.83-7.08Z"/>
            <path class="cls-19" d="M192.58,163.5c-3.41,4.35-9.32,11.75-17.06,20.96l22.31-5.99c-1.02-5.92-3.35-11.32-5.24-14.96Z"/>
            <path class="cls-30" d="M195.51,199.02c9.07-12.73,2.25-29.23-1.87-36.89-.22,.29-.48,.6-.73,.94-.11,.13-.21,.28-.34,.43,1.89,3.65,4.23,9.05,5.24,14.96l-22.31,5.99c-.64,.75-1.29,1.51-1.95,2.29l24.49-6.6c.74,5.96,0,12.27-3.93,17.79-1.41,1.97-2.86,3.67-4.34,5.13l-16.54-15.96c-.32,.41-.67,.8-1.02,1.21l16.41,15.83c-5.55,4.98-11.44,6.83-16.83,7.08l.4-22.88c-.55,.65-1.11,1.32-1.68,2l-.36,20.92c-6.34-.06-11.78-2.19-14.83-3.7-.09,.11-.2,.22-.29,.33-.26,.29-.53,.6-.82,.89,6.57,3.34,26.47,10.95,41.28-9.76Z"/>
          </g>
          <path class="cls-23" d="M186.51,177.79s3.92-.29,3-1.65c-.92-1.37-3,1.65-3,1.65Z"/>
          <path class="cls-23" d="M184.81,175.12s3.74-.97,2.62-2.18c-1.12-1.21-2.62,2.18-2.62,2.18Z"/>
          <path class="cls-23" d="M182.02,179.38s3.73-.96,2.61-2.17-2.61,2.17-2.61,2.17Z"/>
          <path class="cls-23" d="M186.44,191.59s2.42,3.41,3.12,2.06c.69-1.35-3.12-2.06-3.12-2.06Z"/>
          <path class="cls-23" d="M187.52,187.98s3.55,2.16,3.56,.58-3.56-.58-3.56-.58Z"/>
          <path class="cls-23" d="M182.49,188.05s2.87,3.03,3.34,1.58c.47-1.46-3.34-1.58-3.34-1.58Z"/>
          <path class="cls-23" d="M175.57,201.2s-1.02,3.73,.51,3.59c1.53-.15-.51-3.59-.51-3.59Z"/>
          <path class="cls-23" d="M179.13,200.17s.72,3.99,1.98,3.18c1.25-.81-1.98-3.18-1.98-3.18Z"/>
          <path class="cls-23" d="M175.65,196.16s-.42,3.91,1.04,3.52c1.47-.39-1.04-3.52-1.04-3.52Z"/>
        </g>
        <g>
          <path class="cls-26" d="M859.38,164.24c17.8-21.14-3.38-39.61-3.38-39.61,0,0-.7,.85-1.99,2.41,3.69,6.38,9.79,20.12,1.68,30.72-13.25,17.25-31.06,10.91-36.94,8.13-.69,.71-1.38,1.42-2.1,2.14,0,0,25.14,17.13,42.73-3.79Z"/>
          <path class="cls-30" d="M854.02,127.04c-.2,.24-.43,.5-.65,.78-.1,.11-.19,.23-.3,.36-3.05,3.62-8.34,9.79-15.27,17.46-.57,.62-1.15,1.26-1.75,1.91-.08,.11-.17,.21-.28,.3-.29,.34-.6,.67-.91,1.01t-.02,.02c-.49,.54-1,1.1-1.51,1.66-4.13,4.45-8.68,9.29-13.6,14.34-.08,.09-.18,.19-.26,.28-.23,.24-.48,.5-.73,.74,5.88,2.78,23.69,9.12,36.94-8.13,8.12-10.6,2.02-24.35-1.68-30.72Z"/>
        </g>
        <g>
          <path class="cls-30" d="M49.08,212.1c-.26-.13-.85-.24-1.15-.38-.12-.07-.25-.12-.39-.2-3.95-1.98-10.68-5.44-19.14-10.07-.69-.38-1.39-.77-2.11-1.17-.12-.05-.23-.11-.33-.19-.37-.19-.73-.4-1.11-.61t-.02,0c-.6-.33-1.21-.67-1.83-1.01-4.93-2.78-10.31-5.86-15.95-9.23-.1-.06-.21-.12-.31-.18-.27-.16-.55-.33-.83-.5-1.25,5.94-3.15,23.46,15.37,31.75,11.37,5.07,22.82-3.48,27.8-8.21Z"/>
          <path class="cls-26" d="M14.92,224.27c23.03,11.57,35.2-11.64,35.2-11.64l-1.04-.53c-4.98,4.73-18.15,13.37-29.08,7.42-12.72-6.93-10.72-22.3-9.46-28.23-.79-.47-7.5-4.46-8.3-4.96,0,0-10.09,26.51,12.69,37.94Z"/>
        </g>
        <g>
          <g>
            <path class="cls-22" d="M590.39,11.57c.91,2.44,14.92,29.86,23.37,46.35v.03c3.71,7.21,6.34,12.32,6.34,12.32l19.43-11.05s-7.25-9.58-12.27-17.33c-5.02-7.77-6.81-17.78-13.66-27.28-6.85-9.49-11.58-13.35-14.78-12.54-.67,.17-1.47,.52-2.33,1.02-3.26,1.87-7.14,5.7-6.11,8.48Z"/>
            <path class="cls-12" d="M590.39,11.57c.91,2.44,14.92,29.86,23.37,46.35v.03s6.39,9.43,6.39,9.43l6.59-9.79s-11.98-20.52-16.44-29.54c-4.19-8.47-10.96-22.27-13.8-24.96-3.26,1.87-7.14,5.7-6.11,8.48Z"/>
            <path class="cls-32" d="M514.81,54.8l-4.17,8.82s15.62,12.58,41.12,17.64c19.12,3.79,43.8,3.35,71.63-9.78l-1.59-4.72s-36.81,5.41-70.44,.34c-13.57-2.04-26.63-5.79-36.54-12.3Z"/>
            <path class="cls-10" d="M514.81,54.8l-4.17,8.82s15.62,12.58,41.12,17.64l17.16-6.89-17.57-7.27c-13.57-2.04-26.63-5.79-36.54-12.3Z"/>
            <path class="cls-22" d="M514.82,54.81s20.7,35.96,106.98,11.96c-23.94-47.89-28.59-54.12-28.59-54.12,0,0-45.35,40.26-78.4,42.16Z"/>
            <path class="cls-21" d="M512.4,56.6c-.66,1.1-1.05,2.46-.67,3.64,.38,1.18,1.72,2.03,2.91,1.55,1.6-.65,2.36-3.3,4.02-3.02,2.03,.34,.84,4.12,2.54,5.24,.74,.48,1.72,.26,2.62,.17,7.92-.81,12.23,9.38,19.86,11.12,4.72,1.07,9.63-1.3,14.5-2.05,5.13-.79,10.26,.22,15.38,1.05,5.05,.84,10.08,1.51,15.06,.09,2-.57,3.91-1.46,5.8-2.4,3.3-1.65,6.55-3.47,10.12-4.04,4.01-.64,8.07,.39,12.06-.38,.81-.15,1.65-.41,2.2-1.06,.99-1.18,.44-2.9-.16-4.25-.49-1.1-.98-2.22-1.47-3.33-6.87-15.47-13.79-30.94-21.43-46-.61-1.21-1.28-2.47-2.46-3.11-3.67-1.98-6.93,6.77-9.21,8.92-4.01,3.77-8.97,6.29-13.28,9.65-3.49,2.71-6.53,6-10.03,8.72-4.94,3.84-10.68,6.43-16.35,8.98-4.3,1.94-8.68,3.9-13.28,4.56-3.36,.48-6.76,.27-10.11,.83-.15,.02-.31,.06-.47,.09-3.2,.62-6.46,2.17-8.16,5.01Z"/>
            <path class="cls-32" d="M638.48,66.19s-.67,4.22-8.01,5.57c-7.35,1.34-12.48,.82-10.32-4.38,2.16-5.21,4.92-12.85,11.04-12.26s11.28,4.06,7.29,11.08Z"/>
            <ellipse class="cls-26" cx="603.34" cy="56.24" rx="4.55" ry="6.06" transform="translate(178.42 488.24) rotate(-50.8)"/>
            <ellipse class="cls-26" cx="548.76" cy="57.56" rx="6.25" ry="8.33" transform="translate(157.31 446.43) rotate(-50.8)"/>
            <ellipse class="cls-26" cx="582.1" cy="36.71" rx="6.25" ry="8.33" transform="translate(185.73 464.59) rotate(-50.8)"/>
            <ellipse class="cls-26" cx="577.06" cy="61.2" rx="6.25" ry="8.33" transform="translate(164.9 469.7) rotate(-50.8)"/>
            <path class="cls-20" d="M556.1,49.68l2.09-.4c-.17-1.25-.18-2.9,.74-3.62,1.16-.9,3.82-.54,7.12,.96,2.02,.92,3.63,.94,4.79,.06,1.77-1.35,1.5-4.14,1.46-4.45l-2.1,.37,1.05-.18-1.05,.18c.07,.59,.02,1.96-.58,2.41-.45,.34-1.41,.22-2.63-.33-2.92-1.33-6.91-2.52-9.29-.67-1.43,1.11-1.97,3.02-1.61,5.69Z"/>
            <rect class="cls-30" x="599.48" y="37.62" width="2.18" height="5.56" transform="translate(189.66 480.26) rotate(-50.8)"/>
            <polygon class="cls-30" points="588.14 57.44 591.71 56.19 591.11 54.18 587.55 55.42 588.14 57.44"/>
            <path class="cls-11" d="M512.4,56.6c-.66,1.1-1.05,2.46-.67,3.64,.38,1.18,1.72,2.03,2.91,1.55,1.6-.65,2.36-3.3,4.02-3.02,2.03,.34,.84,4.12,2.54,5.24,.74,.48,1.72,.26,2.62,.17,7.92-.81,12.23,9.38,19.86,11.12,4.72,1.07,9.63-1.3,14.5-2.05,5.13-.79,10.26,.22,15.38,1.05,7.28-.71,14.41-1.52,20.85-2.31,3.3-1.65,6.55-3.47,10.12-4.04,4.01-.64,8.07,.39,12.06-.38,.81-.15,1.65-.41,2.2-1.06,.99-1.18,.44-2.9-.16-4.25-.49-1.1-.98-2.22-1.47-3.33-.67-1.12-1.13-1.88-1.13-1.88,0,0-14.7,2.69-22.82,6.69-8.13,4-26.21-1.94-36.75-1.38-10.54,.58-17.4-2.09-27.19-7.13-2.87-1.48-5.86-2.72-8.73-3.66-3.2,.62-6.46,2.17-8.16,5.01Z"/>
          </g>
          <ellipse class="cls-26" cx="483.45" cy="55.18" rx="9.92" ry="5.37" transform="translate(17.89 196.69) rotate(-23.42)"/>
          <ellipse class="cls-26" cx="551.11" cy="14.52" rx="7.88" ry="4.27" transform="translate(2.91 72.94) rotate(-7.59)"/>
          <ellipse class="cls-26" cx="541.61" cy="102.49" rx="10.96" ry="7.76" transform="translate(86.16 413) rotate(-45)"/>
        </g>
        <g>
          <g>
            <path class="cls-22" d="M117.5,91c-1.81,1.01-24.57,10.48-38.26,16.17h-.02c-5.99,2.5-10.24,4.25-10.24,4.25l-6.52-15.94s9.42-2.17,16.51-4.34c7.1-2.18,13.33-7.25,22.46-9.56,9.12-2.32,14.05-2.32,15.64-.29,.33,.42,.66,1.02,.94,1.73,1.08,2.68,1.56,6.83-.51,7.98Z"/>
            <path class="cls-12" d="M117.5,91c-1.81,1.01-24.57,10.48-38.26,16.17h-.02s-8.8,2.52-8.8,2.52l.87-8.98s17.96-6.37,25.35-9.56c6.94-2.99,18.21-7.9,21.36-8.12,1.08,2.68,1.56,6.83-.51,7.98Z"/>
            <path class="cls-32" d="M142.71,153.15l-1.89,7.24s-16.18-.09-34.72-9.42c-13.89-7-29.1-19.18-39.81-40.41l3.4-2.03s20.26,20.99,43.88,34.24c9.53,5.35,19.61,9.44,29.12,10.37Z"/>
            <path class="cls-10" d="M142.71,153.15l-1.89,7.24s-16.18-.09-34.72-9.42l-7.22-12.38,14.7,4.19c9.53,5.35,19.61,9.44,29.12,10.37Z"/>
            <path class="cls-22" d="M142.71,153.14s-31.29,11.3-73.01-44.61c39.4-16.8,45.48-18.25,45.48-18.25,0,0,7.82,45.77,27.52,62.87Z"/>
            <path class="cls-21" d="M143.3,155.37c-.15,.97-.59,1.97-1.44,2.48-.84,.52-2.12,.37-2.61-.49-.67-1.16,.21-3.09-.98-3.73-1.44-.78-2.63,2.03-4.26,1.88-.71-.07-1.21-.68-1.73-1.17-4.54-4.31-12.43-.35-18.1-3.01-3.5-1.64-5.36-5.42-8.02-8.22-2.8-2.95-6.53-4.83-10.16-6.81-3.59-1.94-7.07-3.98-9.46-7.22-.96-1.3-1.7-2.75-2.4-4.23-1.22-2.58-2.33-5.23-4.27-7.29-2.18-2.32-5.25-3.67-7.35-6.05-.43-.48-.82-1.04-.83-1.69-.02-1.18,1.2-1.93,2.27-2.44,.87-.42,1.74-.84,2.62-1.26,12.19-5.85,24.4-11.67,36.86-16.9,.99-.42,2.06-.84,3.13-.65,3.31,.6,.88,7.36,1.21,9.74,.58,4.17,2.4,8.06,3.38,12.13,.8,3.29,1.02,6.71,1.83,10.01,1.13,4.66,3.4,8.97,5.64,13.22,1.7,3.23,3.44,6.5,5.98,9.12,1.85,1.91,4.09,3.43,5.9,5.38,.08,.09,.17,.18,.25,.28,1.68,1.92,2.93,4.4,2.54,6.91Z"/>
            <path class="cls-32" d="M59.56,100.13s-1.74,2.82,2.17,7.17c3.91,4.35,7.39,6.52,8.69,2.39s3.48-9.99-.65-12.6c-4.13-2.61-9.13-3.04-10.21,3.04Z"/>
            <ellipse class="cls-26" cx="86.61" cy="111.21" rx="4.89" ry="3.48"/>
            <ellipse class="cls-26" cx="120.07" cy="138.37" rx="6.72" ry="4.78"/>
            <ellipse class="cls-26" cx="109.86" cy="109.91" rx="6.72" ry="4.78"/>
            <ellipse class="cls-26" cx="100.52" cy="126.85" rx="6.72" ry="4.78"/>
            <path class="cls-20" d="M119.5,130.16l-1.1-1.25c.75-.66,1.59-1.63,1.38-2.5-.27-1.09-2.11-2.17-4.94-2.87-1.73-.43-2.75-1.2-3.02-2.28-.42-1.66,1.18-3.18,1.36-3.34l1.12,1.23-.56-.62,.56,.61c-.35,.32-1.01,1.16-.87,1.71,.11,.42,.77,.81,1.81,1.07,2.5,.63,5.61,1.84,6.15,4.09,.33,1.35-.31,2.74-1.89,4.15Z"/>
            <rect class="cls-30" x="94.18" y="102.34" width="4.49" height="1.67"/>
            <rect class="cls-30" x="94.58" y="116.12" width="1.67" height="2.93" transform="translate(-48.57 70.69) rotate(-32.9)"/>
            <path class="cls-11" d="M143.3,155.37c-.15,.97-.59,1.97-1.44,2.48-.84,.52-2.12,.37-2.61-.49-.67-1.16,.21-3.09-.98-3.73-1.44-.78-2.63,2.03-4.26,1.88-.71-.07-1.21-.68-1.73-1.17-4.54-4.31-12.43-.35-18.1-3.01-3.5-1.64-5.36-5.42-8.02-8.22-2.8-2.95-6.53-4.83-10.16-6.81-4.19-3.94-8.23-7.86-11.86-11.45-1.22-2.58-2.33-5.23-4.27-7.29-2.18-2.32-5.25-3.67-7.35-6.05-.43-.48-.82-1.04-.83-1.69-.02-1.18,1.2-1.93,2.27-2.44,.87-.42,1.74-.84,2.62-1.26,.99-.34,1.67-.57,1.67-.57,0,0,7.82,8.7,10.86,14.99,3.04,6.3,17.39,11.52,23.69,16.95,6.3,5.44,11.95,7.17,20.64,8.91,2.55,.51,5.05,1.22,7.32,2.05,1.68,1.92,2.93,4.4,2.54,6.91Z"/>
          </g>
          <ellipse class="cls-26" cx="143.28" cy="103.03" rx="6.95" ry="6.37" transform="translate(-10.6 189.43) rotate(-65.03)"/>
          <path class="cls-26" d="M102.68,162.13c0,3.36-1.96,6.09-4.38,6.09s-4.38-2.72-4.38-6.09,1.96-6.09,4.38-6.09,4.38,2.72,4.38,6.09Z"/>
          <ellipse class="cls-26" cx="151.63" cy="136.45" rx="4.38" ry="7.62" transform="translate(-19.64 247.26) rotate(-74.88)"/>
        </g>
        <g>
          <path class="cls-25" d="M404.01,22.94s-4.44-11.44-13.13-18.2c-8.69-6.76-24.17-5.56-38.62-.97-21.24,6.76-25.43,19.31-27.68,26.71-2.25,7.4,4.41,19.69,4.41,19.69l75.02-27.25Z"/>
          <ellipse class="cls-29" cx="366.5" cy="36.56" rx="39.91" ry="16.25" transform="translate(9.54 127.31) rotate(-19.96)"/>
          <path class="cls-22" d="M428.97,86.26c-.49,.99-2.48,3.12-5.98,5.74-4.94,3.68-12.9,8.3-23.95,11.99-3.35,1.12-6.65,2.03-9.83,2.76-14.74,3.39-27.06,2.94-31.92,1.97-5.91-1.18-7.09-2.76-7.09-2.76l-3.55-9.06,79.96-24.81s3.55,11.81,2.36,14.18Z"/>
          <path class="cls-13" d="M426.62,74.74l-3.64,17.26c-4.94,3.68-12.9,8.3-23.95,11.99-3.35,1.12-6.65,2.03-9.83,2.76-9.06-5.13-27.88-11.98-27.88-11.98l65.3-20.02Z"/>
          <path class="cls-18" d="M388.01,94.93c-3.15,1.18-37.81,7.88-41.36,1.97-3.54-5.91,20.48-17.33,33.09-20.88,12.6-3.54,44.51-11.42,46.87-3.94,2.36,7.48-38.6,22.85-38.6,22.85Z"/>
          <path class="cls-20" d="M435.66,72.41c-.13,.56-.49,1.04-.86,1.48-3.16,3.69-8.03,5.87-12.89,5.75-1.27-.04-2.7-.16-3.63,.69-.59,.54-.84,1.34-1.11,2.08-2.05,5.65-7.04,10.14-12.86,11.6-2.88,.72-5.97,.76-8.67,2.02-2.67,1.25-5.13,3.71-8.04,3.22-2.21-.37-3.93-2.43-6.16-2.54-2.51-.14-4.51,2.2-6.99,2.6-4.69,.75-8.46-5.46-13.12-4.54-2,.39-3.8,2.09-5.79,1.65-1.8-.39-2.92-2.41-4.73-2.73-3.8-.67-6.6,6.34-9.95,4.42-.83-.48-1.31-1.42-2.12-1.93-1.52-.95-4.08-.4-4.76-2.05-.39-.96,.2-2.02,.76-2.88,.29-.45,.59-.88,.88-1.33,3.44-5.18,7.15-10.34,12.44-13.53,4.89-2.94,10.67-3.91,16.23-5.16,7.31-1.65,14.49-3.87,21.46-6.64,9.11-.48,18.32,.04,27.47,0,1.92,.76,4,1.31,5.65,2.11,2.65,1.28,1.83,1.43,5.04,1.49,2.74,.06,5.19-.19,7.9,.48,.12,.02,.25,.06,.37,.09,1.8,.48,3.9,1.83,3.49,3.66Z"/>
          <path class="cls-15" d="M431.8,68.66c.16,2.34-2.84,5.14-5.18,6.08-3,1.21-6.45,.78-9.5,1.86-4.68,1.66-7.5,6.47-11.83,8.91-5.19,2.93-11.73,2.05-17.26,4.27-3.25,1.31-6.03,3.63-9.32,4.83-3.99,1.46-8.41,1.15-12.54,.2-4.14-.96-8.1-2.53-12.21-3.59-5.96-1.55-12.22-1.99-18.35-1.3,3.44-5.18,7.15-10.34,12.44-13.53,4.89-2.94,10.67-3.91,16.23-5.16,7.31-1.65,14.49-3.87,21.46-6.64,9.11-.48,18.32,.04,27.47,0,1.92,.76,4,1.31,5.65,2.11,2.65,1.28,1.83,1.43,5.04,1.49,2.74,.06,5.19-.19,7.9,.48Z"/>
          <path class="cls-11" d="M409.23,70.2c-8.52,2.14-14.71,5.22-19.18,8.38h0c-8.34,1.56-19.82,3.63-26.45,1.77-8.08-2.26-20.67-9.03-24.93-11.39,11.98-11.01,28.08-11.45,28.08-11.45,16.89,2.08,30.65,5.66,39.14,8.26l3.36,4.43Z"/>
          <path class="cls-11" d="M413.02,63.22s-.28,5.59-.64,9.13c-1.27,.2-2.66,.38-4.18,.51-9.75,.88-12.41-1.19-22.75,.88-5.21,1.04-8.48,2.08-11.11,2.71-.08-.74-.23-1.82-.52-3.2-.59-2.76-5.31-8.27-5.31-8.27l44.51-1.77Z"/>
          <ellipse class="cls-20" cx="409.82" cy="39.49" rx="5.83" ry="8.57" transform="translate(120.05 331.97) rotate(-50.77)"/>
          <ellipse class="cls-30" cx="346.4" cy="48.55" rx="8.57" ry="3.6" transform="translate(43.43 223.36) rotate(-37.96)"/>
          <path class="cls-21" d="M415.18,68.93c-2.09,.37-4.08,.8-5.95,1.27-1.54,.39-3.01,.8-4.4,1.25-6.3,2.01-11.12,4.54-14.79,7.13h0c-2.52,1.78-4.5,3.59-6.03,5.27-4.01,4.39-5.06,7.92-5.06,7.92-20.48-6.7-50.03-8.28-50.03-8.28,2.34-6.21,5.81-10.94,9.73-14.54,.26-.23,.5-.46,.77-.69,5.13-4.46,10.92-7.08,15.85-8.61,6.48-2.02,11.47-2.16,11.47-2.16,16.89,2.08,30.65,5.66,39.13,8.26,5.97,1.82,9.31,3.16,9.31,3.16Z"/>
          <path class="cls-9" d="M406.19,70.19l-1.36,1.25c-6.3,2.01-11.12,4.54-14.79,7.13h0c-2.52,1.78-4.5,3.59-6.03,5.27-3.77-.64-8.61-1.56-12.69-2.68-6.61-1.8-25.37-10.01-31.89-12.9,5.13-4.46,10.92-7.08,15.85-8.61l40.68,4.19,10.24,6.34Z"/>
          <path class="cls-4" d="M422.67,68.14c-.25,1.25-3.44,3.12-10.29,4.21-1.27,.2-2.66,.38-4.18,.51-9.75,.88-12.41-1.19-22.75,.88-5.21,1.04-8.48,2.08-11.11,2.71-2.59,.62-4.57,.83-7.21,.24-5.32-1.18-10.05-5.31-13.29-6.49-3.25-1.19-1.48-12.71-1.48-12.71l69.91,1.97s.69,7.19,.39,8.67Z"/>
          <path class="cls-2" d="M422.28,59.48c.3-1.74-1.08-6.7-6.4-7.29-5.32-.59-5.32-2.07-13.29-3.84-7.98-1.77-13-5.61-23.04-2.95-10.04,2.66-11.82,4.14-18.32,7.09s-8.57,2.66-8.86,5.02c-.3,2.36-1.77,5.32,2.95,5.91,4.73,.59,2.66,3.25,12.7,4.43,10.04,1.18,13.59-2.66,24.52-2.95s15.66,1.18,22.16-.89,7.19-2.26,7.58-4.53Z"/>
          <path class="cls-26" d="M394.32,50.24c3.85,2.72,9.05,1.96,13.66,2.91,4.26,.88,8.04,3.25,11.72,5.58,.95,.6,2.01,1.38,2.08,2.5,.07,1.22-1.05,2.15-1.48,3.3-.42,1.12-.39,2.74-1.55,3.04-1.57,.4-1.95-2.12-3.04-3.33-.93-1.04-2.52-1.05-3.89-1.29-3.54-.61-6.42-3.09-9.7-4.56s-7.89-1.48-9.65,1.65c-.65,1.16-1.01,2.78-2.31,3.07-1.5,.33-2.52-1.46-3.86-2.22-2.86-1.63-5.98,1.7-9.2,2.34-4.15,.83-8.21-3-12.35-2.12-3.5,.74-5.93,4.66-9.51,4.63-.35,0-.73-.06-.97-.31-.52-.54-.06-1.4,.28-2.07,.79-1.56,.74-3.5-.12-5.02,1.38-2.38,5.05-.9,7.74-1.49,2.33-.51,4-2.72,6.33-3.27,3.29-.77,6.97,1.97,9.93,.34,2.93-1.61,3.68-5.94,6.85-7.38,3.82-1.74,6.23,1.7,9.06,3.69Z"/>
        </g>
        <g>
          <path class="cls-8" d="M725.41,122.95c1.62-2.73,.42-6.02-.09-9.15-.52-3.23-.14-6.38,1.39-9.27,2.49-4.7,5.18-9.58,9.59-12.55,5.29-3.57,12.13-3.77,18.49-3.31,2.47,.18,4.98,.45,7.27,1.41,5.4,2.26,8.55,7.79,11.3,12.95,.87,1.64,.35,2.62,.67,4.45,.91,5.32-1.74,11.18-1.07,16.54-5.01-5.11-12.05-8.16-19.21-8.34-3.4-.08-6.77,.45-10.13,.99-5.15,.82-10.51,1.73-14.77,4.74l-3.44,1.54Z"/>
          <path class="cls-24" d="M763.07,113.42c2.21,.33,4.5,.69,6.34,1.94,2.25,1.52,3.48,4.11,4.62,6.57,.44,.94,.88,1.92,.91,2.96,.06,1.79-1.14,3.44-2.66,4.37s-3.34,1.27-5.11,1.5c-6,.75-12.13,.38-18-1.1-2.43-.61-4.84-1.42-7.34-1.58-2.5-.16-5.01,.33-7.52,.2-2.46-.13-4.85-.85-7.2-1.59-2.1-.66-4.65-1.96-4.45-4.16,.1-1.03,.83-1.89,1.56-2.62,10.82-10.83,25.17-8.54,38.84-6.5Z"/>
          <path class="cls-3" d="M771.16,130.27l-.32,1.03-.91,2.99-3.32,10.77-.93,3.02-2.97,9.63-.32,1.04-.93,3.04-2.15,6.97-.7,2.26-.93,3.02-3.1,10.06-.92,2.99-2.26,7.33-.21,.68-2.48-7.76-1.05-3.26-2.81-8.76-1.76-5.5-.59-1.87-.48-1.48h0s-5.62-17.58-5.62-17.58l-1.03-3.22-1.51-4.7-2.49-7.78-1.91-5.97s1.69-1.64,4.96-3.33c.71-.37,1.48-.73,2.33-1.09,2.39-.99,5.35-1.88,8.87-2.32,.94-.12,1.92-.21,2.95-.25,.59-.03,1.19-.04,1.81-.03,.68,0,1.37,.02,2.08,.05,.27,.01,.53,.03,.79,.05,2.84,.22,5.27,.73,7.32,1.43,1.62,.55,3.01,1.21,4.21,1.92,.24,.14,.46,.28,.69,.43,.51,.32,.97,.66,1.4,1,3.27,2.57,4.31,5.2,4.31,5.2Z"/>
          <path class="cls-25" d="M762.39,158.75l-.93,3.03-.6-.83-7.49-10.5-1.63-2.29-8.18-11.45-1.6-2.25-7.55-10.57c.7-.36,1.48-.73,2.33-1.08l6.62,9.28h0s1.6,2.25,1.6,2.25l8.09,11.34,1.64,2.29,7.55,10.57,.15,.21Z"/>
          <path class="cls-25" d="M766.6,145.06l-.93,3.01-6.39-8.78-1.65-2.27-7.89-10.84-1.62-2.23-2.53-3.48c.94-.12,1.92-.2,2.95-.25l.98,1.35,1.62,2.23h0s7.81,10.74,7.81,10.74l1.65,2.27,5.99,8.24Z"/>
          <path class="cls-25" d="M770.84,131.3l-.92,2.99-4.66-6.24-1.67-2.23-3.05-4.09c1.62,.55,3.01,1.21,4.21,1.92,.24,.14,.47,.28,.69,.43l1.13,1.51,4.27,5.71Z"/>
          <polygon class="cls-25" points="758.61 171.01 757.67 174.04 756.9 172.96 755.28 170.71 747.98 160.58 746.34 158.3 737.81 146.46 736.19 144.23 733.84 140.96 731.35 133.19 737.6 141.85 739.2 144.09 747.66 155.82 749.3 158.1 756.66 168.31 758.28 170.55 758.61 171.01"/>
          <polygon class="cls-25" points="754.58 184.09 753.66 187.08 750.93 183.43 749.28 181.23 744.85 175.31 743.09 169.81 742.49 167.94 743.42 169.18 750.64 178.84 752.29 181.04 754.58 184.09"/>
          <path class="cls-25" d="M766.85,125.07l-.27,.51-1.31,2.46-4.66,8.77-1.32,2.48-4.6,8.66-1.33,2.49-4.06,7.65-1.32,2.49-4.57,8.6-.33,.63-.6-1.87-.48-1.48h0s4.33-8.15,4.33-8.15l1.32-2.49,4.07-7.66,1.32-2.49,4.59-8.64,1.32-2.48,4.64-8.74,1.16-2.17c.24,.14,.47,.28,.69,.43,.51,.33,.98,.66,1.4,1Z"/>
          <polygon class="cls-25" points="762.71 157.71 762.39 158.75 761.46 161.78 759.31 168.75 758.28 170.55 756.9 172.96 752.29 181.04 750.93 183.43 748.7 187.33 747.66 184.08 749.28 181.23 750.64 178.84 755.28 170.71 756.66 168.31 760.86 160.95 762.24 158.54 762.71 157.71"/>
          <path class="cls-25" d="M753.23,120.3l-2.08,3.51h0s-1.4,2.38-1.4,2.38l-4.8,8.14-1.4,2.38-4.35,7.38-1.4,2.38-1.42,2.42-1.03-3.22,.84-1.43,1.4-2.38,4.35-7.39,1.4-2.38h0s4.78-8.12,4.78-8.12l1.4-2.38,.82-1.39c.68,0,1.37,.02,2.08,.05,.27,.02,.53,.03,.79,.05Z"/>
          <g>
            <path class="cls-1" d="M695.72,68.16c-2.57,3.35-3.62,7.64-3.89,11.84-.38,5.88,.67,11.85,3.03,17.25,.96,2.2,2.18,4.36,4,5.93,2.85,2.46,6.78,3.15,10.49,3.76,.71,.11,1.44,.23,2.12,0,.88-.28,1.49-1.07,2.05-1.81,1.95-2.6,3.9-5.19,5.85-7.79,1.51-2.01,3.03-4.05,3.93-6.39,1.65-4.28,1.32-9.26,1.49-13.77,.13-3.57,4.24-9.66,2.85-13.07-2.7-6.66-14.59-4.08-20.48-2.73-4.39,1-8.66,3.14-11.45,6.77Z"/>
            <path class="cls-28" d="M721.56,65.98c-.23-1.89-.48-4.06,.83-5.44,1.51-1.59,4.34-1.03,5.83,.57s1.98,3.87,2.38,6.02c.81,4.43,1.44,9.03,.35,13.4-.78,3.14-2.42,6-3.51,9.05-1.28,3.58-1.82,7.48-3.77,10.74-1.56,2.6-3.9,4.61-6.21,6.57-1.64,1.39-3.48,2.86-5.63,2.83-8.54-.15,4.44-15.36,5.73-18.24,3.58-7.94,5.05-16.84,4-25.5Z"/>
          </g>
          <g>
            <path class="cls-16" d="M761.33,34.37c2.22-3.56,4.72-7.35,8.66-8.77,2.72-.98,5.73-.67,8.56-.04,3.28,.73,6.55,1.91,9.1,4.11,2.47,2.14,4.09,5.09,5.45,8.06,2.27,4.94,4.03,10.42,3.03,15.77-.96,5.11-4.56,9.65-9.32,11.74-1.13,.5-2.38,.87-3.6,.65-1.67-.29-2.94-1.61-4.1-2.85-3.55-3.83-7.1-7.66-10.64-11.49-2.34-2.53-4.77-5.21-5.58-8.56"/>
            <path class="cls-17" d="M769.29,45.41c1.49,1.85,3.24,3.48,4.72,5.33,2.64,3.3,4.56,7.37,8.14,9.61,1.43,.9,3.19,1.56,3.93,3.08,1.01,2.05-.57,4.66-2.72,5.43s-4.56,.14-6.63-.85c-8.08-3.86-12.64-12.42-16.64-20.43-1.53-3.07-3.1-6.25-3.29-9.67-.09-1.7,.29-3.63,1.71-4.58,5.99-3.99,8.14,8.81,10.78,12.07Z"/>
          </g>
          <path class="cls-10" d="M771.16,130.27l-.32,1.03-.91,2.99-3.32,10.77-.93,3.02-2.97,9.63-.32,1.04-.93,3.04-2.15,6.97-.7,2.26-.93,3.02-3.1,10.06-.92,2.99-2.26,7.33,1.83-74.12c2.84,.22,5.27,.73,7.32,1.43,1.62,.55,3.01,1.21,4.21,1.92,.24,.14,.46,.28,.69,.43,.51,.32,.97,.66,1.4,1,3.27,2.57,4.31,5.2,4.31,5.2Z"/>
        </g>
        <g>
          <path class="cls-8" d="M219.77,54.96c.49,2.67,3.12,4.12,5.22,5.85,2.16,1.79,3.68,4.03,4.33,6.76,1.04,4.44,2.06,9.09,.89,13.49-1.4,5.28-5.69,9.26-10.06,12.55-1.7,1.28-3.47,2.51-5.48,3.19-4.75,1.59-9.9-.21-14.58-1.98-1.49-.56-1.7-1.49-2.94-2.49-3.59-2.91-5.18-8.19-8.63-11.26,6.11,.47,12.37-1.53,17.08-5.45,2.24-1.86,4.11-4.11,5.97-6.34,2.86-3.43,5.8-7.03,6.85-11.38l1.35-2.93Z"/>
          <path class="cls-24" d="M200.87,82.32c-1.61,1.03-3.29,2.09-5.18,2.32-2.31,.28-4.56-.68-6.68-1.63-.81-.36-1.65-.74-2.26-1.39-1.05-1.12-1.2-2.86-.75-4.32s1.43-2.7,2.45-3.84c3.44-3.86,7.61-7.08,12.22-9.43,1.91-.98,3.92-1.81,5.62-3.12,1.7-1.31,3.04-3.04,4.73-4.37,1.66-1.3,3.61-2.18,5.54-3.03,1.73-.76,4.1-1.35,5.21,.18,.52,.72,.53,1.68,.47,2.57-.87,13.08-11.41,19.69-21.37,26.07Z"/>
          <path class="cls-3" d="M186.16,76.01l-.37-.84-1.09-2.44-3.93-8.82-1.1-2.47-3.51-7.88-.38-.85-1.11-2.48-2.54-5.7-.82-1.85-1.11-2.47-3.67-8.23-1.09-2.44-2.67-6-.25-.56,5.97,3.6,2.51,1.51,6.75,4.07,4.24,2.55,1.43,.87,1.15,.69h0s13.52,8.16,13.52,8.16l2.48,1.49,3.62,2.18,5.99,3.61,4.6,2.77s-.16,2.01-1.32,4.94c-.25,.64-.54,1.3-.89,2.01-.98,1.99-2.39,4.23-4.41,6.49-.54,.6-1.12,1.22-1.76,1.82-.36,.35-.74,.7-1.15,1.04-.44,.38-.89,.76-1.37,1.14-.18,.14-.36,.28-.54,.42-1.95,1.46-3.81,2.5-5.52,3.2-1.36,.56-2.62,.91-3.79,1.13-.23,.04-.46,.08-.69,.11-.51,.08-1,.12-1.47,.14-3.55,.19-5.71-.92-5.71-.92Z"/>
          <path class="cls-25" d="M175.77,52.71l-1.11-2.48,.85,.2,10.75,2.55,2.35,.56,11.72,2.77,2.3,.55,10.82,2.56c-.25,.63-.54,1.3-.89,2.01l-9.49-2.25h0s-2.3-.55-2.3-.55l-11.6-2.75-2.35-.55-10.82-2.56-.21-.05Z"/>
          <path class="cls-25" d="M180.76,63.91l-1.1-2.46,9.06,2.06,2.34,.53,11.19,2.54,2.3,.52,3.59,.82c-.54,.6-1.12,1.21-1.76,1.82l-1.4-.32-2.3-.52h0s-11.08-2.52-11.08-2.52l-2.34-.53-8.51-1.94Z"/>
          <path class="cls-25" d="M185.78,75.17l-1.09-2.44,6.52,1.4,2.33,.5,4.27,.92c-1.36,.56-2.63,.92-3.79,1.13-.23,.05-.46,.08-.69,.11l-1.58-.34-5.97-1.28Z"/>
          <polygon class="cls-25" points="171.3 42.68 170.19 40.21 171.3 40.46 173.61 41 184.02 43.42 186.36 43.96 198.54 46.79 200.83 47.32 204.19 48.1 210.17 51.71 201.27 49.64 198.97 49.1 186.92 46.31 184.57 45.76 174.08 43.33 171.77 42.79 171.3 42.68"/>
          <polygon class="cls-25" points="166.52 31.98 165.44 29.54 169.25 30.35 171.55 30.84 177.74 32.16 181.98 34.71 183.42 35.58 182.12 35.3 172.02 33.15 169.72 32.66 166.52 31.98"/>
          <path class="cls-25" d="M191.87,76.93l-.11-.48-.54-2.32-1.94-8.28-.55-2.34-1.91-8.18-.55-2.35-1.69-7.22-.55-2.35-1.9-8.11-.14-.59,1.44,.87,1.14,.69h0s1.8,7.69,1.8,7.69l.55,2.35,1.69,7.23,.55,2.35,1.91,8.15,.55,2.34,1.93,8.24,.48,2.05c-.23,.05-.46,.08-.69,.11-.51,.07-1,.12-1.47,.14Z"/>
          <polygon class="cls-25" points="176.15 53.57 175.77 52.71 174.66 50.23 172.12 44.53 171.77 42.79 171.3 40.46 169.72 32.66 169.25 30.35 168.49 26.58 170.99 28.09 171.55 30.84 172.02 33.15 173.61 41 174.08 43.33 175.52 50.43 175.99 52.77 176.15 53.57"/>
          <path class="cls-25" d="M203.34,72.34l-.64-3.43h0s-.43-2.32-.43-2.32l-1.49-7.95-.43-2.32-1.35-7.21-.44-2.32-.44-2.36,2.48,1.49,.26,1.4,.43,2.32,1.36,7.22,.43,2.32h0s1.49,7.93,1.49,7.93l.44,2.32,.25,1.36c-.44,.38-.89,.76-1.37,1.14-.18,.14-.36,.28-.54,.41Z"/>
          <g>
            <path class="cls-16" d="M258.74,97.34c1.85-2.4,3.59-6.86,3.79-9.89,.28-4.23-1.43-7.16-3.12-11.06-.69-1.59-1.56-3.15-2.87-4.28-2.05-1.77-4.87-2.28-7.55-2.72-.51-.08-1.04-.17-1.53,0-.63,.2-1.08,.76-1.48,1.3-1.41,1.87-2.82,3.73-4.23,5.6-1.09,1.44-2.19,2.91-2.85,4.59-1.19,3.08-.97,6.67-1.1,9.91-.1,2.57-3.07,6.95-2.08,9.41,1.93,4.8,10.5,2.96,14.74,2,3.16-.71,6.24-2.25,8.26-4.85Z"/>
            <path class="cls-17" d="M240.13,98.86c.16,1.36,.34,2.93-.61,3.92-1.09,1.14-3.12,.73-4.2-.42s-1.42-2.79-1.7-4.34c-.57-3.19-1.02-6.5-.23-9.65,.57-2.26,1.76-4.32,2.54-6.51,.93-2.58,1.32-5.38,2.74-7.73,1.13-1.87,2.82-3.31,4.48-4.72,1.18-1,2.51-2.06,4.06-2.03,6.15,.12-3.22,11.06-4.16,13.12-2.59,5.71-3.67,12.12-2.93,18.36Z"/>
          </g>
          <path class="cls-10" d="M186.16,76.01l-.37-.84-1.09-2.44-3.93-8.82-1.1-2.47-3.51-7.88-.38-.85-1.11-2.48-2.54-5.7-.82-1.85-1.11-2.47-3.67-8.23-1.09-2.44-2.67-6,40.58,48.81c-1.95,1.46-3.81,2.5-5.52,3.2-1.36,.56-2.62,.91-3.79,1.13-.23,.04-.46,.08-.69,.11-.51,.08-1,.12-1.47,.14-3.55,.19-5.71-.92-5.71-.92Z"/>
        </g>
        <g>
          <path class="cls-6" d="M876.26,229.42s3.55-6.02,11.76-6.56,13.95,3.28,13.95,3.28l-1.37,3.83s-9.84-6.56-24.34-.55Z"/>
          <path class="cls-26" d="M882,263.88c-7.38-.27-15.86,4.37-23.24,4.1-7.38-.27-10.12-9.3-12.03-11.76-1.91-2.46-8.75-4.37-8.75-10.94,.8-3.77,.9-6.87,.93-9.66,.08-6.77-.22-11.75,8.09-19.87,17.78-14.22,31.45,11.75,31.45,11.75,7.36,2.99,12.58,8.36,15.2,13.67h0c.5,1.02,.9,2.03,1.21,3.01,2.46,7.93-5.46,19.97-12.85,19.69Z"/>
          <path class="cls-14" d="M882,263.88c-7.38-.27-15.86,4.37-23.24,4.1-7.38-.27-10.12-9.3-12.03-11.76-1.91-2.46-8.75-4.37-8.75-10.94,.8-3.77,.9-6.87,.93-9.66,1.47,2.22,3.72,3.79,6.18,5.29,4.92,3,7.11,9.57,13.94,8.75,6.83-.82,13.4,.82,24.07-.27,7.33-.75,9.75-5.38,10.55-8.2,.5,1.01,.9,2.02,1.21,3,2.46,7.93-5.46,19.97-12.85,19.69Z"/>
        </g>
        <g>
          <path class="cls-27" d="M101.79,279.78c0,3.39-.8,6.61-2.22,9.45-3.47,6.98-10.68,11.77-19.01,11.77-11.72,0-21.23-9.51-21.23-21.23,0-8.33,4.8-15.53,11.77-19.01,2.84-1.42,6.06-2.22,9.45-2.22,11.72,0,21.23,9.51,21.23,21.23Z"/>
          <path class="cls-3" d="M101.79,279.78c0,3.39-.8,6.61-2.22,9.45-2.85,1.42-6.06,2.22-9.46,2.22-11.72,0-21.23-9.51-21.23-21.23,0-3.4,.8-6.61,2.22-9.46,2.84-1.42,6.06-2.22,9.45-2.22,11.72,0,21.23,9.51,21.23,21.23Z"/>
          <ellipse class="cls-7" cx="91.18" cy="268.55" rx="1.95" ry="1.68"/>
        </g>
      </g>
    </g>
  </g>
</svg>