<?xml version="1.0" encoding="utf-8"?>
<!-- Generator: Adobe Illustrator 16.0.0, SVG Export Plug-In . SVG Version: 6.00 Build 0)  -->
<!DOCTYPE svg PUBLIC "-//W3C//DTD SVG 1.1//EN" "http://www.w3.org/Graphics/SVG/1.1/DTD/svg11.dtd">
<svg version="1.1" id="Layer_1" xmlns="http://www.w3.org/2000/svg" xmlns:xlink="http://www.w3.org/1999/xlink" x="0px" y="0px"
	 width="100px" height="100px" viewBox="0 0 100 100" enable-background="new 0 0 100 100" xml:space="preserve">
<g>
	<defs>
		<rect id="SVGID_1_" width="100" height="100"/>
	</defs>
	<clipPath id="SVGID_2_">
		<use xlink:href="#SVGID_1_"  overflow="visible"/>
	</clipPath>
	<polygon clip-path="url(#SVGID_2_)" fill="#65C191" points="4.345,64.277 4.336,59.391 7.496,60.168 7.313,63.923 	"/>
	<polygon clip-path="url(#SVGID_2_)" fill="#65C191" points="95.667,41.423 95.667,36.901 93.328,36.992 92.504,40.84 93.97,42.397 
			"/>
	<polygon clip-path="url(#SVGID_2_)" fill="#65C191" points="95.709,63.444 95.709,58.978 87.74,58.978 89.938,65.206 	"/>
	<g clip-path="url(#SVGID_2_)">
		<defs>
			<rect id="SVGID_3_" width="100" height="100"/>
		</defs>
		<clipPath id="SVGID_4_">
			<use xlink:href="#SVGID_3_"  overflow="visible"/>
		</clipPath>
		<path clip-path="url(#SVGID_4_)" fill="#65C191" d="M87.304,73.726c-1.554,2.705-1.68,9.642-3.882,11.851
			c-2.196,2.213-9.138,2.364-11.832,3.929c-2.7,1.563-6.275,7.511-9.291,8.322c-3.004,0.814-9.093-2.523-12.211-2.515
			c-3.118,0.005-9.187,3.364-12.203,2.564c-3.013-0.801-6.615-6.731-9.321-8.289c-2.703-1.55-9.641-1.678-11.848-3.878
			c-2.211-2.201-2.364-9.137-3.927-11.835c-1.566-2.697-7.51-6.276-8.325-9.286C3.65,61.58,6.988,55.492,6.983,52.376
			c-0.011-3.117-3.371-9.19-2.568-12.205c0.803-3.013,6.735-6.617,8.289-9.32c1.552-2.703,1.677-9.642,3.879-11.85
			c2.2-2.21,9.136-2.362,11.832-3.927c2.699-1.564,6.277-7.512,9.288-8.323c3.011-0.814,9.094,2.521,12.212,2.516
			c3.12-0.006,9.192-3.366,12.207-2.563c3.013,0.794,6.613,6.73,9.319,8.283c2.701,1.554,9.644,1.68,11.848,3.882
			c2.21,2.201,2.365,9.137,3.928,11.835c1.564,2.697,7.51,6.275,8.324,9.284c0.813,3.009-2.522,9.096-2.517,12.214
			c0.008,3.118,3.365,9.191,2.562,12.203C94.788,67.422,88.854,71.022,87.304,73.726"/>
		<path clip-path="url(#SVGID_4_)" fill="#8BFCC4" d="M87.304,69.146c-1.554,2.704-1.68,9.642-3.882,11.851
			c-2.196,2.211-9.138,2.364-11.832,3.929c-2.7,1.563-6.275,7.511-9.291,8.322c-3.004,0.814-9.093-2.523-12.211-2.515
			c-3.118,0.004-9.187,3.364-12.203,2.564c-3.013-0.801-6.615-6.731-9.321-8.289c-2.703-1.551-9.641-1.678-11.848-3.878
			c-2.211-2.201-2.364-9.138-3.927-11.835c-1.566-2.697-7.51-6.276-8.325-9.286c-0.814-3.01,2.524-9.097,2.519-12.212
			c-0.011-3.118-3.371-9.191-2.568-12.205c0.803-3.013,6.735-6.617,8.289-9.32c1.552-2.703,1.677-9.642,3.879-11.85
			c2.2-2.21,9.136-2.362,11.832-3.927c2.699-1.564,6.277-7.512,9.288-8.323c3.011-0.814,9.094,2.521,12.212,2.516
			c3.12-0.006,9.192-3.366,12.207-2.564c3.013,0.795,6.613,6.731,9.319,8.284c2.701,1.554,9.644,1.68,11.848,3.882
			c2.21,2.201,2.365,9.137,3.928,11.835c1.564,2.697,7.51,6.275,8.324,9.284c0.813,3.009-2.522,9.096-2.517,12.215
			c0.008,3.118,3.365,9.19,2.562,12.203C94.788,62.842,88.854,66.442,87.304,69.146"/>
		<path clip-path="url(#SVGID_4_)" fill="#ABFFD3" d="M81.771,65.967c-1.323,2.304-1.431,8.212-3.307,10.093
			c-1.87,1.884-7.781,2.014-10.077,3.347c-2.3,1.332-5.345,6.396-7.912,7.088c-2.56,0.693-7.745-2.149-10.4-2.142
			c-2.656,0.004-7.825,2.865-10.394,2.184c-2.566-0.682-5.634-5.733-7.939-7.06c-2.303-1.321-8.211-1.429-10.091-3.303
			c-1.883-1.875-2.013-7.782-3.345-10.08c-1.333-2.297-6.396-5.345-7.09-7.909c-0.694-2.563,2.15-7.747,2.145-10.402
			c-0.008-2.655-2.871-7.827-2.187-10.394c0.684-2.567,5.737-5.636,7.061-7.938c1.321-2.302,1.427-8.212,3.303-10.093
			c1.873-1.882,7.781-2.012,10.077-3.345c2.299-1.331,5.346-6.397,7.911-7.088c2.564-0.693,7.745,2.147,10.401,2.143
			c2.657-0.005,7.829-2.867,10.396-2.184c2.565,0.678,5.633,5.733,7.938,7.056c2.301,1.323,8.214,1.43,10.091,3.305
			c1.883,1.875,2.015,7.783,3.346,10.081c1.332,2.297,6.396,5.344,7.09,7.907c0.691,2.563-2.149,7.748-2.145,10.403
			c0.007,2.656,2.866,7.828,2.183,10.395C88.146,60.598,83.092,63.665,81.771,65.967"/>
		<path clip-path="url(#SVGID_4_)" fill="#DEFFEC" d="M77.062,63.26c-1.127,1.963-1.218,6.995-2.816,8.598
			c-1.593,1.604-6.628,1.716-8.583,2.851c-1.959,1.134-4.553,5.448-6.739,6.037c-2.18,0.591-6.597-1.831-8.859-1.824
			c-2.262,0.003-6.665,2.44-8.853,1.86c-2.185-0.581-4.798-4.884-6.761-6.014c-1.962-1.125-6.994-1.217-8.596-2.813
			c-1.604-1.597-1.714-6.628-2.849-8.586c-1.135-1.956-5.448-4.553-6.039-6.736c-0.591-2.183,1.831-6.599,1.827-8.859
			c-0.007-2.263-2.445-6.668-1.862-8.854c0.582-2.186,4.885-4.801,6.013-6.761c1.126-1.961,1.216-6.995,2.814-8.597
			c1.596-1.603,6.628-1.714,8.583-2.849c1.958-1.134,4.554-5.449,6.739-6.037c2.183-0.591,6.597,1.828,8.859,1.824
			c2.263-0.004,6.668-2.441,8.854-1.86c2.186,0.578,4.798,4.883,6.761,6.01c1.96,1.127,6.996,1.218,8.595,2.816
			c1.604,1.597,1.717,6.629,2.85,8.586c1.136,1.957,5.448,4.552,6.039,6.735c0.59,2.183-1.83,6.599-1.826,8.861
			c0.006,2.262,2.441,6.667,1.859,8.853C82.491,58.688,78.187,61.3,77.062,63.26"/>
		<path clip-path="url(#SVGID_4_)" fill="#F4AA62" d="M95.856,21.258l-0.12,1.537l-0.255,3.257c0,0-4.943,2.697-11.086,7.941
			c-6.144,5.244-17.08,14.532-25.32,22.997c-2.21,2.271-4.361,4.554-6.326,6.676c-3.862,4.173-7.001,7.733-8.455,9.397
			c-1.19-2.171-1.944-4.581-2.199-7.043c-0.143-1.384-0.124-2.817,0.357-4.123c0.441-1.196,1.245-2.22,2.059-3.201
			c6.463-7.794,14.317-14.3,22.167-20.695c3.104-2.531,6.224-5.055,9.407-7.489l8.011-4.385L95.856,21.258z"/>
		<g opacity="0.39" clip-path="url(#SVGID_4_)">
			<g>
				<defs>
					<rect id="SVGID_5_" x="42.018" y="21.258" width="53.839" height="51.805"/>
				</defs>
				<clipPath id="SVGID_6_">
					<use xlink:href="#SVGID_5_"  overflow="visible"/>
				</clipPath>
				<path clip-path="url(#SVGID_6_)" fill="#D68C50" d="M95.856,21.258l-0.12,1.537c-1.448,1.43-3.602,1.952-5.258,3.164
					c-1.145,0.837-2.024,1.983-3.082,2.927c-3.478,3.098-8.947,4.122-10.995,8.304c-0.638,1.302-0.981,2.941-2.273,3.599
					c-0.638,0.324-1.391,0.331-2.064,0.573c-1.549,0.554-2.396,2.201-3.716,3.18c-1.318,0.976-3.035,1.238-4.449,2.068
					c-1.337,0.785-2.329,2.031-3.289,3.248c-1.347,1.708-2.692,3.415-4.039,5.123c-1.339,1.698-2.709,3.456-3.295,5.538
					c-0.288,1.024-0.375,2.093-0.526,3.146c-3.862,4.173-7.001,7.733-8.455,9.397c-1.19-2.171-1.944-4.581-2.199-7.043
					c-0.143-1.384-0.124-2.817,0.357-4.123c0.441-1.196,1.245-2.22,2.059-3.201c6.463-7.794,14.317-14.3,22.167-20.695
					c3.104-2.531,6.224-5.055,9.407-7.489l8.011-4.385L95.856,21.258z"/>
			</g>
		</g>
		<path clip-path="url(#SVGID_4_)" fill="#FFCC3E" d="M97.076,18.685c-0.467-0.309-1-0.466-1.556-0.548
			c-0.512-0.077-1.042-0.09-1.559-0.098c-1.444-0.021-2.925-0.036-4.284,0.453c-3.011,1.084-4.877,4.427-7.987,5.177
			c-1.415,0.342-3.109,0.171-4.1,1.239c-0.351,0.377-0.556,0.863-0.843,1.29c-0.687,1.016-1.89,1.632-3.108,1.687
			c-0.811,0.708-1.887,1.171-2.959,1.279c-0.253,0.478-0.567,0.914-0.916,1.263c-0.938,0.939-2.333,1.516-3.66,1.516
			c-0.362,0-0.714-0.04-1.053-0.113c-0.275,0.672-0.682,1.295-1.149,1.763c-0.863,0.863-2.112,1.42-3.34,1.504
			c-2.669,2.584-6.262,4.213-9.973,4.467c-0.229,0.597-0.53,1.16-0.889,1.683c-0.081,1.182-0.707,2.446-1.511,3.25
			c-0.938,0.939-2.333,1.516-3.66,1.516c-0.793,0-1.536-0.187-2.214-0.518c-0.488,0.275-1.052,0.432-1.597,0.432
			c-0.981,0-1.823-0.438-2.4-1.117c-0.076,0-0.153,0.003-0.23,0.009c-0.704,0.053-1.365,0.342-2.01,0.627
			c-2.859,1.261-5.718,2.522-8.577,3.783c2.698,3.387,5.772,6.472,9.149,9.182c1.245,0.998,2.566,1.963,4.028,2.572
			c0.437,0.183,0.885,0.333,1.349,0.444c0.719,0.172,1.458,0.242,2.194,0.309c2.643,0.234,5.821,0.157,7.266-2.068
			c0.981-1.509,0.827-3.618,2.033-4.954c1.145-1.27,3.102-1.386,4.511-2.354c2.394-1.645,2.732-5.362,5.241-6.824
			c1.674-0.976,4.085-0.79,5.185-2.384c0.684-0.99,0.664-2.47,1.66-3.146c1.287-0.871,3.127,0.345,4.56-0.258
			c1.102-0.463,1.518-1.807,1.599-2.998s-0.024-2.457,0.542-3.508c0.733-1.357,2.365-1.94,3.885-2.205
			c1.52-0.266,3.131-0.351,4.447-1.154c2.137-1.303,3.088-4.261,5.481-4.989l0.206-0.114c2.206-1.054,3.728-1.632,5.934-2.686
			c0.353-0.169,0.716-0.345,0.972-0.639C98.446,20.641,97.974,19.276,97.076,18.685"/>
		<path clip-path="url(#SVGID_4_)" fill="#FFB140" d="M97.743,21.454c-0.256,0.295-0.619,0.471-0.972,0.64
			c-2.206,1.053-3.728,1.631-5.934,2.685l-0.206,0.114c-2.394,0.729-3.345,3.686-5.481,4.99c-1.316,0.802-2.928,0.887-4.447,1.153
			s-3.151,0.848-3.885,2.206c-0.566,1.05-0.461,2.316-0.542,3.507c-0.081,1.192-0.497,2.536-1.599,2.998
			c-1.433,0.603-3.272-0.613-4.56,0.259c-0.996,0.675-0.977,2.155-1.66,3.145c-1.1,1.595-3.511,1.409-5.185,2.384
			c-2.509,1.463-2.848,5.179-5.241,6.824c-1.409,0.968-3.366,1.084-4.511,2.354c-1.206,1.336-1.052,3.445-2.033,4.954
			c-1.445,2.226-4.623,2.303-7.266,2.068c-0.736-0.066-1.475-0.137-2.194-0.309c-0.464-0.111-0.912-0.262-1.349-0.444
			c0.012-0.017,0.024-0.033,0.036-0.05c1.49-2.008,4.467-2.122,6.484-3.6c1.423-1.043,2.284-2.707,3.677-3.79
			c1.016-0.789,2.265-1.23,3.286-2.011c2.205-1.683,3.076-4.707,5.313-6.347c1.243-0.91,2.803-1.309,4.042-2.222
			c1.353-0.996,2.232-2.535,3.605-3.502c1.585-1.116,3.688-1.37,5.163-2.628c1.635-1.394,2.191-3.762,3.851-5.129
			c1.924-1.587,4.747-1.391,7.015-2.43c2.702-1.24,4.313-4.076,6.796-5.712c1.746-1.151,3.92-1.709,5.327-3.256
			c0.552-0.607,0.867-1.712,0.246-2.17c0.556,0.082,1.089,0.24,1.556,0.548C97.974,19.276,98.446,20.64,97.743,21.454"/>
		<path clip-path="url(#SVGID_4_)" fill="#FFC271" d="M45.478,71.247c-0.697,4.668-5.474,7.056-8.983,6.739
			c-0.014-0.001-0.027-0.002-0.04-0.004c-3.021-0.28-3.639-1.265-5.782-4.118c-0.32-0.426-0.674-0.893-1.075-1.405
			c-3.1-3.965-6.189-6.87-11.097-12.586c-4.906-5.717-6.297-6.053-10.506-8.502c-4.208-2.449-6.851-1.894-5.873-8.112
			c0.251-1.589,0.954-2.797,1.862-3.715c2.644-2.673,7.027-2.886,7.027-2.886c1.961,0.034,3.406,0.529,7.704,3.444
			c4.297,2.915,15.239,12.683,21.137,18.91c1.876,1.98,3.197,3.467,4.105,4.723C45.905,66.428,45.953,68.063,45.478,71.247"/>
		<g opacity="0.26" clip-path="url(#SVGID_4_)">
			<g>
				<defs>
					<rect id="SVGID_7_" x="1.918" y="39.544" width="35.941" height="38.438"/>
				</defs>
				<clipPath id="SVGID_8_">
					<use xlink:href="#SVGID_7_"  overflow="visible"/>
				</clipPath>
				<path clip-path="url(#SVGID_8_)" fill="#B78C7B" d="M36.454,77.982c-3.021-0.28-3.638-1.265-5.782-4.118
					c-0.32-0.426-0.674-0.893-1.075-1.405c-3.1-3.965-6.189-6.87-11.096-12.586c-4.907-5.717-6.298-6.053-10.506-8.502
					c-4.208-2.45-6.852-1.894-5.874-8.112c0.251-1.59,0.954-2.797,1.862-3.715c0.268,0.902,1.067,1.669,1.949,2.084
					C7.1,42.179,8.419,42.29,9.669,42.62c1.736,0.458,3.354,1.356,4.663,2.586c1.451,1.364,2.508,3.11,3.993,4.439
					c1.942,1.735,4.486,2.646,6.557,4.225c3.604,2.749,5.489,7.281,9.038,10.1c0.404,0.32,0.831,0.62,1.166,1.014
					c0.361,0.423,0.597,0.935,0.83,1.44c0.84,1.826,1.692,3.693,1.898,5.692C38.024,74.165,37.491,76.205,36.454,77.982"/>
			</g>
		</g>
		<path clip-path="url(#SVGID_4_)" fill="#CE8F51" d="M45.478,71.247c-0.697,4.668-5.474,7.056-8.983,6.739
			c-3.056-0.275-3.669-1.256-5.822-4.122c-0.13-0.858-0.107-1.75,0.037-2.604c0.813-4.808,5.61-8.595,10.474-8.27
			c0.954,0.064,1.935,0.297,2.773,0.744C45.905,66.428,45.953,68.063,45.478,71.247"/>
		<path clip-path="url(#SVGID_4_)" fill="#E0464E" d="M49.25,42.941c2.368,1.133,3.959,3.227,3.959,5.622
			c0,3.599-3.589,6.517-8.017,6.517c-4.427,0-8.017-2.918-8.017-6.517c0-1.318,0.483-2.546,1.311-3.571
			c0.566,0.573,1.343,0.934,2.233,0.934c0.544,0,1.107-0.158,1.595-0.432c0.679,0.331,1.422,0.519,2.216,0.519
			c1.326,0,2.721-0.578,3.66-1.516C48.609,44.078,48.979,43.534,49.25,42.941"/>
		<path clip-path="url(#SVGID_4_)" fill="#E0464E" d="M73.003,28.357c0.851,0.924,1.354,2.071,1.354,3.313
			c0,3.061-3.052,5.542-6.816,5.542c-2.328,0-4.384-0.949-5.614-2.399c0.744-0.259,1.437-0.681,1.977-1.221
			c0.467-0.467,0.872-1.091,1.148-1.763c0.34,0.074,0.691,0.113,1.054,0.113c1.327,0,2.722-0.578,3.66-1.516
			c0.349-0.348,0.664-0.784,0.916-1.262C71.492,29.083,72.306,28.796,73.003,28.357"/>
		<path clip-path="url(#SVGID_4_)" fill="#8AB537" d="M59.395,48.53c-1.848-0.656-3.102-2.721-2.918-4.802
			c0.167-1.89,1.414-3.665,3.255-4.634c0.785-0.413,1.541-0.607,2.249-0.579c0.9,0.037,1.712,0.454,2.169,1.117l-0.739,0.51
			c-0.294-0.425-0.855-0.704-1.467-0.729c-0.548-0.022-1.15,0.138-1.794,0.477c-1.549,0.815-2.639,2.352-2.777,3.917
			c-0.148,1.686,0.85,3.353,2.323,3.876L59.395,48.53z"/>
		<path clip-path="url(#SVGID_4_)" fill="#8AB537" d="M81.003,28.613c-0.347,0-0.681-0.06-0.988-0.18
			c-1.064-0.417-1.679-1.639-1.315-2.616l0.843,0.314c-0.211,0.566,0.257,1.253,0.801,1.465c0.584,0.229,1.334,0.124,2.056-0.287
			c0.603-0.342,1.063-0.821,1.299-1.348c0.255-0.572,0.243-1.223-0.029-1.702l0.78-0.445c0.413,0.722,0.439,1.685,0.069,2.513
			c-0.4,0.898-1.131,1.454-1.673,1.763C82.237,28.436,81.601,28.613,81.003,28.613"/>
		<polygon clip-path="url(#SVGID_4_)" fill="#FAEBFF" points="52.708,40.735 52.783,43.282 54.057,43.207 53.981,40.66 		"/>
	</g>
</g>
</svg>
