<?xml version="1.0" encoding="UTF-8"?><svg id="Layer_2" xmlns="http://www.w3.org/2000/svg" xmlns:xlink="http://www.w3.org/1999/xlink" viewBox="0 0 1887.51 1178.81"><defs><style>.cls-1{opacity:.18;}.cls-2{fill:#625ea8;}.cls-3{clip-path:url(#clippath);}.cls-4{fill:none;}</style><clipPath id="clippath"><polyline class="cls-4" points="0 1178.81 0 0 1887.51 0 1887.51 1178.81"/></clipPath></defs><g id="Layer_1-2"><g class="cls-1"><g class="cls-3"><g><path class="cls-2" d="M-192.01,239.91l-.16-.59c-1.62-6.1-2.96-12.38-3.98-18.67l-.03-.18,.13-.13L25.08-.79l.18,.03c6.29,1.02,12.57,2.36,18.67,3.98l.59,.16L-192.01,239.91Zm-3.41-19.19c.98,6,2.25,11.99,3.78,17.83L43.15,3.75C37.31,2.22,31.32,.94,25.32-.03L-195.42,220.71Z"/><path class="cls-2" d="M-186.54,257.04l-.19-.52c-2.04-5.5-3.87-11.29-5.44-17.21l-.05-.2L43.73,3.17l.2,.05c5.91,1.57,11.7,3.4,17.21,5.44l.52,.19-.39,.39-247.8,247.8Zm-4.89-17.71c1.51,5.64,3.25,11.16,5.18,16.43L60.37,9.13c-5.27-1.93-10.79-3.67-16.43-5.18L-191.44,239.33Z"/><path class="cls-2" d="M-142.32,325.83l-.25-.25c-3.62-3.64-7.26-7.63-10.8-11.84l-.21-.25,.23-.23L118.1,41.81l.25,.21c4.22,3.55,8.2,7.18,11.84,10.8l.25,.25L-142.32,325.83Zm-10.3-12.3c3.39,4.01,6.85,7.81,10.31,11.3L129.44,53.07c-3.49-3.45-7.29-6.92-11.3-10.31L-152.63,313.54Z"/><path class="cls-2" d="M-153.13,314.04l-.25-.29c-3.36-3.99-6.67-8.29-9.86-12.79l-.17-.24L105.32,31.98l.24,.17c4.5,3.19,8.8,6.5,12.79,9.86l.29,.25-.27,.27L-153.13,314.04Zm-9.36-13.25c3.04,4.28,6.21,8.39,9.4,12.2L117.6,42.31c-3.82-3.2-7.92-6.36-12.2-9.4L-162.49,300.79Z"/><path class="cls-2" d="M-171.9,287.61l-.23-.39c-2.93-4.98-5.58-9.95-7.87-14.77l-.11-.23,.18-.18L76.82,15.28l.23,.11c4.82,2.3,9.79,4.95,14.77,7.87l.39,.23L-171.9,287.61Zm-7.36-15.24c2.2,4.61,4.73,9.35,7.51,14.1L91.07,23.64c-4.75-2.78-9.49-5.3-14.1-7.51L-179.26,272.36Z"/><path class="cls-2" d="M-162.99,301.3l-.24-.34c-3.18-4.49-6.18-9.12-8.9-13.75l-.14-.24L91.58,23.12l.24,.14c4.63,2.72,9.26,5.72,13.75,8.9l.34,.24L-162.99,301.3Zm-8.39-14.21c2.61,4.42,5.46,8.83,8.49,13.12L104.82,32.49c-4.29-3.03-8.7-5.88-13.12-8.49L-171.39,287.09Z"/><path class="cls-2" d="M-179.79,272.89l-.22-.45c-2.48-5.21-4.75-10.57-6.73-15.92l-.08-.21L60.92,8.58l.21,.08c5.35,1.98,10.71,4.24,15.92,6.73l.45,.22-.35,.35L-179.79,272.89Zm-6.2-16.4c1.9,5.11,4.05,10.21,6.41,15.2L76.29,15.81c-4.98-2.36-10.09-4.51-15.2-6.41l-247.09,247.09Z"/><path class="cls-2" d="M-196.04,221.33l-.11-.68c-1.11-6.83-1.85-13.71-2.22-20.43v-.16s.1-.11,.1-.11L4.67-2.98h.16c6.72,.37,13.59,1.12,20.43,2.23l.68,.11L-196.04,221.33Zm-1.61-20.99c.35,6.42,1.06,12.98,2.09,19.51L24.46-.17C17.93-1.2,11.37-1.91,4.95-2.26L-197.65,200.34Z"/><path class="cls-2" d="M-198.32,201.01l-.04-.79c-.2-3.76-.3-7.23-.3-10.61,0-3.68,.13-7.54,.42-12.15v-.13s.1-.09,.1-.09L-18.06-2.85h.13c4.61-.29,8.47-.43,12.15-.43,3.38,0,6.85,.1,10.61,.3l.79,.04L-198.32,201.01Zm.77-23.37c-.28,4.53-.41,8.34-.41,11.97,0,3.13,.09,6.34,.26,9.78L4-2.31c-3.45-.18-6.65-.26-9.78-.26-3.63,0-7.43,.13-11.97,.41L-197.55,177.64Z"/><path class="cls-2" d="M-17.74,382.08h-.16c-6.74-.43-13.57-1.22-20.3-2.36l-.67-.11L184.22,156.52l.11,.67c1.14,6.73,1.93,13.56,2.35,20.3v.16S-17.74,382.08-17.74,382.08Zm-19.66-2.94c6.44,1.07,12.95,1.81,19.39,2.22L185.97,177.37c-.4-6.43-1.15-12.95-2.22-19.39L-37.41,379.14Z"/><path class="cls-2" d="M-5.79,382.49c-3.68,0-7.53-.13-12.12-.42l-.78-.05L186.63,176.71l.05,.78c.28,4.59,.42,8.44,.42,12.12,0,3.36-.09,6.76-.29,10.4v.14s-.1,.1-.1,.1L4.75,382.2h-.14c-3.63,.2-7.03,.29-10.4,.29Zm-11.29-1.08c4.23,.25,7.84,.37,11.29,.37s6.65-.09,10.22-.28L186.12,199.83c.19-3.57,.28-6.92,.28-10.22s-.12-7.06-.37-11.29L-17.08,381.42Z"/><path class="cls-2" d="M3.69,382.25L186.86,199.08l-.05,.92c-.45,8.47-1.51,17.15-3.15,25.8l-.02,.11-.08,.08L30.52,379.03l-.11,.02c-8.65,1.64-17.33,2.7-25.8,3.15l-.92,.05ZM186.06,200.89L5.5,381.45c8.11-.47,16.41-1.51,24.67-3.07L182.99,225.56c1.57-8.27,2.6-16.56,3.07-24.67Z"/><path class="cls-2" d="M29.28,379.27l.81-.81L183.87,224.67l-.21,1.13c-2.04,10.76-5,21.33-8.77,31.42l-.08,.13-112.91,112.91-.07,.03c-10.09,3.78-20.66,6.73-31.42,8.77l-1.13,.21ZM182.75,226.8L31.41,378.14c10.3-2.02,20.42-4.88,30.1-8.5l112.74-112.74c3.62-9.68,6.48-19.8,8.5-30.1Z"/><path class="cls-2" d="M60.3,370.85l115.16-115.16-.57,1.53c-19.57,52.28-60.78,93.49-113.06,113.06l-1.53,.57Zm113.34-112.34l-110.52,110.52c50.84-19.53,90.99-59.68,110.52-110.52Z"/><path class="cls-2" d="M-38.02,379.76l-.18-.03c-6.25-1.06-12.49-2.43-18.55-4.09l-.59-.16,.43-.43L180.08,138.05l.16,.59c1.66,6.06,3.03,12.3,4.09,18.55l.03,.18L-38.02,379.76Zm-17.96-4.64c5.8,1.56,11.75,2.87,17.72,3.89L183.61,157.13c-1.02-5.97-2.32-11.92-3.89-17.72L-55.98,375.11Z"/><path class="cls-2" d="M-104.18,355.51l-.24-.14c-4.52-2.69-9.11-5.71-13.66-8.98l-.34-.24,.29-.29L150.75,76.97l.24,.34c3.27,4.55,6.29,9.15,8.98,13.66l.14,.24L-104.18,355.51Zm-13.15-9.45c4.35,3.11,8.73,5.98,13.04,8.56L159.22,91.1c-2.58-4.31-5.46-8.69-8.56-13.04L-117.33,346.05Z"/><path class="cls-2" d="M-117.84,346.56l-.24-.18c-4.38-3.14-8.66-6.49-12.71-9.94l-.29-.25,.27-.27L140.81,64.31l.25,.29c3.45,4.05,6.79,8.32,9.94,12.71l.18,.24L-117.84,346.56Zm-12.2-10.4c3.87,3.29,7.95,6.47,12.12,9.48L150.24,77.48c-3.01-4.18-6.19-8.25-9.48-12.12L-130.04,336.16Z"/><path class="cls-2" d="M-56.56,375.69l-.2-.05c-5.85-1.6-11.61-3.46-17.11-5.54l-.51-.19,.39-.39L174.51,121.02l.19,.51c2.08,5.5,3.94,11.26,5.54,17.11l.05,.2-.14,.15L-56.56,375.69Zm-16.54-6.06c5.26,1.97,10.75,3.74,16.33,5.27L179.51,138.63c-1.53-5.58-3.3-11.07-5.27-16.33L-73.1,369.63Z"/><path class="cls-2" d="M-130.54,336.66l-.25-.21c-4.33-3.69-8.18-7.24-11.78-10.86l-.25-.25,.25-.25L129.94,52.57l.25,.25c3.62,3.6,7.17,7.45,10.86,11.78l.21,.25L-130.54,336.66Zm-11.28-11.32c3.44,3.45,7.13,6.84,11.24,10.36L140.3,64.81c-3.52-4.12-6.91-7.8-10.36-11.24L-141.82,325.34Z"/><path class="cls-2" d="M-73.65,370.18l-.21-.08c-5.56-2.1-10.89-4.38-15.86-6.78l-.45-.22L167.7,105.22l.22,.45c2.4,4.97,4.69,10.3,6.78,15.86l.08,.21L-73.65,370.18Zm-15.32-7.29c4.76,2.29,9.85,4.46,15.14,6.46L173.96,121.57c-2-5.3-4.18-10.39-6.46-15.14L-88.96,362.89Z"/><path class="cls-2" d="M-89.49,363.42l-.23-.11c-4.83-2.34-9.77-5.01-14.7-7.95l-.39-.23,.32-.32L159.74,90.58l.23,.39c2.94,4.92,5.61,9.87,7.95,14.7l.11,.23L-89.49,363.42Zm-14.17-8.43c4.7,2.79,9.41,5.34,14.03,7.58L167.17,105.75c-2.24-4.61-4.79-9.33-7.58-14.03L-103.67,354.99Z"/></g><g><path class="cls-2" d="M1605.21,49.5l-.25-.25c-3.62-3.64-7.26-7.63-10.8-11.84l-.21-.25,.23-.23,271.46-271.46,.25,.21c4.22,3.55,8.2,7.18,11.84,10.8l.25,.25L1605.21,49.5Zm-10.3-12.3c3.39,4.01,6.85,7.81,10.31,11.3l271.76-271.76c-3.49-3.45-7.29-6.92-11.3-10.31L1594.91,37.2Z"/><path class="cls-2" d="M1594.41,37.7l-.25-.29c-3.36-3.99-6.67-8.29-9.86-12.79l-.17-.24,268.73-268.73,.24,.17c4.5,3.19,8.8,6.5,12.79,9.86l.29,.25-.27,.27L1594.41,37.7Zm-9.36-13.25c3.04,4.28,6.21,8.39,9.4,12.2l270.68-270.68c-3.82-3.2-7.92-6.36-12.2-9.4L1585.05,24.46Z"/><path class="cls-2" d="M1575.63,11.27l-.23-.39c-2.93-4.98-5.58-9.95-7.87-14.77l-.11-.23,.18-.18,256.76-256.76,.23,.11c4.82,2.3,9.79,4.95,14.77,7.87l.39,.23L1575.63,11.27Zm-7.36-15.24c2.2,4.61,4.73,9.35,7.51,14.1l262.82-262.82c-4.75-2.78-9.49-5.3-14.1-7.51L1568.27-3.97Z"/><path class="cls-2" d="M1584.54,24.96l-.24-.34c-3.18-4.49-6.18-9.12-8.9-13.75l-.14-.24,263.86-263.86,.24,.14c4.63,2.72,9.26,5.72,13.75,8.9l.34,.24L1584.54,24.96Zm-8.39-14.21c2.61,4.42,5.46,8.83,8.49,13.12l267.72-267.72c-4.29-3.03-8.7-5.88-13.12-8.49L1576.15,10.75Z"/><path class="cls-2" d="M1729.79,105.75h-.16c-6.74-.43-13.57-1.22-20.3-2.36l-.67-.11,223.1-223.1,.11,.67c1.14,6.73,1.93,13.56,2.35,20.3v.16s-204.43,204.44-204.43,204.44Zm-19.66-2.94c6.44,1.07,12.95,1.81,19.39,2.22l203.99-203.99c-.4-6.43-1.15-12.95-2.22-19.39l-221.16,221.16Z"/><path class="cls-2" d="M1741.75,106.16c-3.68,0-7.53-.13-12.12-.42l-.78-.05,205.32-205.32,.05,.78c.28,4.59,.42,8.44,.42,12.12,0,3.36-.09,6.76-.29,10.4v.14s-.1,.1-.1,.1l-181.97,181.96h-.14c-3.63,.2-7.03,.29-10.4,.29Zm-11.29-1.08c4.23,.25,7.84,.37,11.29,.37s6.65-.09,10.22-.28l181.68-181.68c.19-3.57,.28-6.92,.28-10.22s-.12-7.06-.37-11.29l-203.1,203.1Z"/><path class="cls-2" d="M1751.23,105.92l183.17-183.17-.05,.92c-.45,8.47-1.51,17.15-3.15,25.8l-.02,.11-.08,.08-153.05,153.05-.11,.02c-8.65,1.64-17.33,2.7-25.8,3.15l-.92,.05Zm182.37-181.37l-180.56,180.56c8.11-.47,16.41-1.51,24.67-3.07l152.82-152.82c1.57-8.27,2.6-16.56,3.07-24.67Z"/><path class="cls-2" d="M1776.82,102.93l.81-.81,153.78-153.78-.21,1.13c-2.04,10.76-5,21.33-8.77,31.42l-.08,.13-112.91,112.91-.07,.03c-10.09,3.78-20.66,6.73-31.42,8.77l-1.13,.21Zm153.47-152.47l-151.34,151.34c10.3-2.02,20.42-4.88,30.1-8.5l112.74-112.74c3.62-9.68,6.48-19.8,8.5-30.1Z"/><path class="cls-2" d="M1807.84,94.51l115.16-115.16-.57,1.53c-19.57,52.28-60.78,93.49-113.06,113.06l-1.53,.57Zm113.34-112.34l-110.52,110.52c50.84-19.53,90.99-59.68,110.52-110.52Z"/><path class="cls-2" d="M1709.52,103.42l-.18-.03c-6.25-1.06-12.49-2.43-18.55-4.09l-.59-.16,.43-.43,236.99-236.99,.16,.59c1.66,6.06,3.03,12.3,4.09,18.55l.03,.18-222.39,222.39Zm-17.96-4.64c5.8,1.56,11.75,2.87,17.72,3.89l221.87-221.87c-1.02-5.97-2.32-11.92-3.89-17.72l-235.7,235.7Z"/><path class="cls-2" d="M1643.35,79.17l-.24-.14c-4.52-2.69-9.11-5.71-13.66-8.98l-.34-.24,.29-.29,268.88-268.88,.24,.34c3.27,4.55,6.29,9.15,8.98,13.66l.14,.24L1643.35,79.17Zm-13.15-9.45c4.35,3.11,8.73,5.98,13.04,8.56l263.52-263.52c-2.58-4.31-5.46-8.69-8.56-13.04L1630.2,69.72Z"/><path class="cls-2" d="M1629.7,70.22l-.24-.18c-4.38-3.14-8.66-6.49-12.71-9.94l-.29-.25,.27-.27,271.61-271.61,.25,.29c3.45,4.05,6.79,8.32,9.94,12.71l.18,.24L1629.7,70.22Zm-12.2-10.4c3.87,3.29,7.95,6.47,12.12,9.48l268.16-268.16c-3.01-4.18-6.19-8.25-9.48-12.12L1617.5,59.82Z"/><path class="cls-2" d="M1690.98,99.35l-.2-.05c-5.85-1.6-11.61-3.46-17.11-5.54l-.51-.19,.39-.39,248.5-248.5,.19,.51c2.08,5.5,3.94,11.26,5.54,17.11l.05,.2-.14,.15-236.71,236.71Zm-16.54-6.06c5.26,1.97,10.75,3.74,16.33,5.27l236.27-236.27c-1.53-5.58-3.3-11.07-5.27-16.33l-247.33,247.33Z"/><path class="cls-2" d="M1616.99,60.32l-.25-.21c-4.33-3.69-8.18-7.24-11.78-10.86l-.25-.25,.25-.25,272.51-272.51,.25,.25c3.62,3.6,7.17,7.45,10.86,11.78l.21,.25L1616.99,60.32Zm-11.28-11.32c3.44,3.45,7.13,6.84,11.24,10.36l270.88-270.88c-3.52-4.12-6.91-7.8-10.36-11.24L1605.71,49Z"/><path class="cls-2" d="M1673.89,93.84l-.21-.08c-5.56-2.1-10.89-4.38-15.86-6.78l-.45-.22,257.87-257.87,.22,.45c2.4,4.97,4.69,10.3,6.78,15.86l.08,.21-248.43,248.43Zm-15.32-7.29c4.76,2.29,9.85,4.46,15.14,6.46l247.79-247.79c-2-5.3-4.18-10.39-6.46-15.14L1658.57,86.56Z"/><path class="cls-2" d="M1658.04,87.09l-.23-.11c-4.83-2.34-9.77-5.01-14.7-7.95l-.39-.23,.32-.32,264.23-264.23,.23,.39c2.94,4.92,5.61,9.87,7.95,14.7l.11,.23L1658.04,87.09Zm-14.17-8.43c4.7,2.79,9.41,5.34,14.03,7.58l256.81-256.81c-2.24-4.61-4.79-9.33-7.58-14.03L1643.87,78.65Z"/></g><g><g><rect class="cls-2" x="247.66" y="-2.36" width="5.75" height="5.75" transform="translate(73.01 177.3) rotate(-45)"/><rect class="cls-2" x="268.1" y="18.08" width="5.38" height="5.38" transform="translate(64.63 197.56) rotate(-45)"/><rect class="cls-2" x="288.54" y="38.52" width="5.01" height="5.01" transform="translate(56.24 217.82) rotate(-45)"/><rect class="cls-2" x="308.98" y="58.96" width="4.65" height="4.65" transform="translate(47.84 238.08) rotate(-45)"/><rect class="cls-2" x="329.43" y="79.4" width="4.28" height="4.28" transform="translate(39.45 258.34) rotate(-45)"/><rect class="cls-2" x="349.87" y="99.84" width="3.91" height="3.91" transform="translate(31.06 278.59) rotate(-45)"/><rect class="cls-2" x="370.31" y="120.29" width="3.54" height="3.54" transform="translate(22.67 298.85) rotate(-45)"/><rect class="cls-2" x="390.75" y="140.73" width="3.18" height="3.18" transform="translate(14.28 319.11) rotate(-45)"/></g><g><rect class="cls-2" x="284.51" y="1.67" width="5.38" height="5.38" transform="translate(81.04 204.36) rotate(-45)"/><rect class="cls-2" x="304.96" y="22.11" width="5.01" height="5.01" transform="translate(72.65 224.62) rotate(-45)"/><rect class="cls-2" x="325.4" y="42.55" width="4.65" height="4.65" transform="translate(64.26 244.88) rotate(-45)"/><rect class="cls-2" x="345.84" y="62.99" width="4.28" height="4.28" transform="translate(55.86 265.13) rotate(-45)"/><rect class="cls-2" x="366.28" y="83.43" width="3.91" height="3.91" transform="translate(47.48 285.39) rotate(-45)"/><rect class="cls-2" x="386.72" y="103.87" width="3.54" height="3.54" transform="translate(39.08 305.64) rotate(-45)"/><rect class="cls-2" x="407.16" y="124.31" width="3.18" height="3.18" transform="translate(30.69 325.91) rotate(-45)"/></g><g><rect class="cls-2" x="321.37" y="5.69" width="5.01" height="5.01" transform="translate(89.06 231.42) rotate(-45)"/><rect class="cls-2" x="341.81" y="26.14" width="4.65" height="4.65" transform="translate(80.67 251.67) rotate(-45)"/><rect class="cls-2" x="362.25" y="46.58" width="4.28" height="4.28" transform="translate(72.28 271.93) rotate(-45)"/><rect class="cls-2" x="382.69" y="67.02" width="3.91" height="3.91" transform="translate(63.89 292.19) rotate(-45)"/><rect class="cls-2" x="403.13" y="87.46" width="3.54" height="3.54" transform="translate(55.49 312.43) rotate(-45)"/><rect class="cls-2" x="423.57" y="107.9" width="3.18" height="3.18" transform="translate(47.11 332.7) rotate(-45)"/></g><g><rect class="cls-2" x="358.22" y="9.72" width="4.65" height="4.65" transform="translate(97.08 258.47) rotate(-45)"/><rect class="cls-2" x="378.66" y="30.16" width="4.28" height="4.28" transform="translate(88.69 278.73) rotate(-45)"/><rect class="cls-2" x="399.11" y="50.61" width="3.91" height="3.91" transform="translate(80.3 298.99) rotate(-45)"/><rect class="cls-2" x="419.55" y="71.05" width="3.54" height="3.54" transform="translate(71.92 319.26) rotate(-45)"/><rect class="cls-2" x="439.99" y="91.49" width="3.18" height="3.18" transform="translate(63.52 339.5) rotate(-45)"/></g><g><rect class="cls-2" x="395.08" y="13.75" width="4.28" height="4.28" transform="translate(105.11 285.54) rotate(-45)"/><rect class="cls-2" x="415.52" y="34.19" width="3.91" height="3.91" transform="translate(96.71 305.79) rotate(-45)"/><rect class="cls-2" x="435.96" y="54.63" width="3.54" height="3.54" transform="translate(88.33 326.06) rotate(-45)"/><rect class="cls-2" x="456.4" y="75.08" width="3.18" height="3.18" transform="translate(79.93 346.3) rotate(-45)"/></g><g><rect class="cls-2" x="411.49" y="-2.66" width="4.28" height="4.28" transform="translate(121.52 292.33) rotate(-45)"/><rect class="cls-2" x="431.93" y="17.78" width="3.91" height="3.91" transform="translate(113.13 312.58) rotate(-45)"/><rect class="cls-2" x="452.37" y="38.22" width="3.54" height="3.54" transform="translate(104.74 332.84) rotate(-45)"/><rect class="cls-2" x="472.81" y="58.66" width="3.18" height="3.18" transform="translate(96.35 353.1) rotate(-45)"/></g><g><rect class="cls-2" x="448.34" y="1.37" width="3.91" height="3.91" transform="translate(129.54 319.38) rotate(-45)"/><rect class="cls-2" x="468.79" y="21.81" width="3.54" height="3.54" transform="translate(121.15 339.64) rotate(-45)"/><rect class="cls-2" x="489.23" y="42.25" width="3.18" height="3.18" transform="translate(112.76 359.9) rotate(-45)"/></g><g><rect class="cls-2" x="485.2" y="5.4" width="3.54" height="3.54" transform="translate(137.56 346.44) rotate(-45)"/><rect class="cls-2" x="505.64" y="25.84" width="3.18" height="3.18" transform="translate(129.17 366.7) rotate(-45)"/></g><rect class="cls-2" x="522.05" y="9.42" width="3.18" height="3.18" transform="translate(145.58 373.49) rotate(-45)"/></g><g><g><rect class="cls-2" x="1882.51" y="314.62" width="3.36" height="3.36" transform="translate(672.1 1793.14) rotate(-60.15)"/><rect class="cls-2" x="1864.66" y="304.44" width="3.1" height="3.1" transform="translate(672.02 1772.36) rotate(-60.15)"/><rect class="cls-2" x="1846.81" y="294.25" width="2.83" height="2.83" transform="translate(671.93 1751.59) rotate(-60.15)"/><rect class="cls-2" x="1828.96" y="284.07" width="2.56" height="2.56" transform="translate(671.85 1730.81) rotate(-60.15)"/><rect class="cls-2" x="1811.11" y="273.88" width="2.3" height="2.3" transform="translate(671.77 1710.03) rotate(-60.15)"/></g><g><rect class="cls-2" x="1874.15" y="329.19" width="3.36" height="3.36" transform="translate(655.26 1793.21) rotate(-60.15)"/><rect class="cls-2" x="1856.3" y="319.01" width="3.1" height="3.1" transform="translate(655.14 1772.4) rotate(-60.15)"/><rect class="cls-2" x="1838.45" y="308.82" width="2.83" height="2.83" transform="translate(655.1 1751.65) rotate(-60.15)"/><rect class="cls-2" x="1820.6" y="298.64" width="2.56" height="2.56" transform="translate(654.97 1730.83) rotate(-60.15)"/><rect class="cls-2" x="1802.75" y="288.45" width="2.3" height="2.3" transform="translate(654.93 1710.09) rotate(-60.15)"/></g><g><rect class="cls-2" x="1883.64" y="353.95" width="3.63" height="3.63" transform="translate(638.51 1814.06) rotate(-60.15)"/><rect class="cls-2" x="1865.79" y="343.76" width="3.36" height="3.36" transform="translate(638.43 1793.28) rotate(-60.15)"/><rect class="cls-2" x="1847.94" y="333.58" width="3.1" height="3.1" transform="translate(638.35 1772.5) rotate(-60.15)"/><rect class="cls-2" x="1830.09" y="323.39" width="2.83" height="2.83" transform="translate(638.26 1751.72) rotate(-60.15)"/><rect class="cls-2" x="1812.24" y="313.21" width="2.56" height="2.56" transform="translate(638.13 1730.9) rotate(-60.15)"/><rect class="cls-2" x="1794.39" y="303.02" width="2.3" height="2.3" transform="translate(638.1 1710.16) rotate(-60.15)"/></g><g><rect class="cls-2" x="1875.28" y="368.52" width="3.63" height="3.63" transform="translate(621.68 1814.13) rotate(-60.15)"/><rect class="cls-2" x="1857.43" y="358.33" width="3.36" height="3.36" transform="translate(621.59 1793.35) rotate(-60.15)"/><rect class="cls-2" x="1839.58" y="348.15" width="3.1" height="3.1" transform="translate(621.51 1772.57) rotate(-60.15)"/><rect class="cls-2" x="1821.73" y="337.96" width="2.83" height="2.83" transform="translate(621.42 1751.78) rotate(-60.15)"/><rect class="cls-2" x="1803.88" y="327.78" width="2.56" height="2.56" transform="translate(621.39 1731.05) rotate(-60.15)"/><rect class="cls-2" x="1786.03" y="317.59" width="2.3" height="2.3" transform="translate(621.27 1710.23) rotate(-60.15)"/></g><g><rect class="cls-2" x="1884.77" y="393.27" width="3.89" height="3.89" transform="translate(604.96 1835) rotate(-60.15)"/><rect class="cls-2" x="1866.92" y="383.08" width="3.63" height="3.63" transform="translate(604.87 1814.22) rotate(-60.15)"/><rect class="cls-2" x="1849.07" y="372.9" width="3.36" height="3.36" transform="translate(604.76 1793.41) rotate(-60.15)"/><rect class="cls-2" x="1831.22" y="362.71" width="3.1" height="3.1" transform="translate(604.71 1772.67) rotate(-60.15)"/><rect class="cls-2" x="1813.37" y="352.53" width="2.83" height="2.83" transform="translate(604.59 1751.85) rotate(-60.15)"/><rect class="cls-2" x="1795.52" y="342.34" width="2.56" height="2.56" transform="translate(604.55 1731.12) rotate(-60.15)"/><rect class="cls-2" x="1777.67" y="332.16" width="2.3" height="2.3" transform="translate(604.42 1710.3) rotate(-60.15)"/></g><g><rect class="cls-2" x="1876.41" y="407.84" width="3.89" height="3.89" transform="translate(588.12 1835.07) rotate(-60.15)"/><rect class="cls-2" x="1858.56" y="397.65" width="3.63" height="3.63" transform="translate(588 1814.26) rotate(-60.15)"/><rect class="cls-2" x="1840.71" y="387.47" width="3.36" height="3.36" transform="translate(587.96 1793.51) rotate(-60.15)"/><rect class="cls-2" x="1822.86" y="377.28" width="3.1" height="3.1" transform="translate(587.84 1772.7) rotate(-60.15)"/><rect class="cls-2" x="1805.01" y="367.1" width="2.83" height="2.83" transform="translate(587.75 1751.92) rotate(-60.15)"/><rect class="cls-2" x="1787.16" y="356.91" width="2.56" height="2.56" transform="translate(587.67 1731.14) rotate(-60.15)"/><rect class="cls-2" x="1769.31" y="346.73" width="2.3" height="2.3" transform="translate(587.59 1710.36) rotate(-60.15)"/></g><g><rect class="cls-2" x="1885.89" y="432.59" width="4.16" height="4.16" transform="translate(571.3 1855.86) rotate(-60.15)"/><rect class="cls-2" x="1868.05" y="422.41" width="3.89" height="3.89" transform="translate(571.23 1835.09) rotate(-60.15)"/><rect class="cls-2" x="1850.2" y="412.22" width="3.63" height="3.63" transform="translate(571.17 1814.32) rotate(-60.15)"/><rect class="cls-2" x="1832.35" y="402.04" width="3.36" height="3.36" transform="translate(571.09 1793.55) rotate(-60.15)"/><rect class="cls-2" x="1814.5" y="391.85" width="3.1" height="3.1" transform="translate(571 1772.77) rotate(-60.15)"/><rect class="cls-2" x="1796.65" y="381.67" width="2.83" height="2.83" transform="translate(570.92 1751.99) rotate(-60.15)"/><rect class="cls-2" x="1778.8" y="371.48" width="2.56" height="2.56" transform="translate(570.84 1731.21) rotate(-60.15)"/><rect class="cls-2" x="1760.95" y="361.3" width="2.3" height="2.3" transform="translate(570.75 1710.43) rotate(-60.15)"/></g><g><rect class="cls-2" x="1877.53" y="447.16" width="4.16" height="4.16" transform="translate(554.5 1855.95) rotate(-60.15)"/><rect class="cls-2" x="1859.69" y="436.98" width="3.89" height="3.89" transform="translate(554.42 1835.17) rotate(-60.15)"/><rect class="cls-2" x="1841.84" y="426.79" width="3.63" height="3.63" transform="translate(554.33 1814.39) rotate(-60.15)"/><rect class="cls-2" x="1823.99" y="416.61" width="3.36" height="3.36" transform="translate(554.22 1793.59) rotate(-60.15)"/><rect class="cls-2" x="1806.14" y="406.42" width="3.1" height="3.1" transform="translate(554.17 1772.84) rotate(-60.15)"/><rect class="cls-2" x="1788.29" y="396.24" width="2.83" height="2.83" transform="translate(554.08 1752.06) rotate(-60.15)"/><rect class="cls-2" x="1770.44" y="386.05" width="2.56" height="2.56" transform="translate(554 1731.28) rotate(-60.15)"/><rect class="cls-2" x="1752.59" y="375.87" width="2.3" height="2.3" transform="translate(553.92 1710.5) rotate(-60.15)"/></g><g><rect class="cls-2" x="1887.02" y="471.91" width="4.43" height="4.43" transform="translate(537.75 1876.8) rotate(-60.15)"/><rect class="cls-2" x="1869.18" y="461.73" width="4.16" height="4.16" transform="translate(537.66 1856.02) rotate(-60.15)"/><rect class="cls-2" x="1851.33" y="451.55" width="3.89" height="3.89" transform="translate(537.58 1835.24) rotate(-60.15)"/><rect class="cls-2" x="1833.48" y="441.36" width="3.63" height="3.63" transform="translate(537.5 1814.46) rotate(-60.15)"/><rect class="cls-2" x="1815.63" y="431.18" width="3.36" height="3.36" transform="translate(537.39 1793.66) rotate(-60.15)"/><rect class="cls-2" x="1797.78" y="420.99" width="3.1" height="3.1" transform="translate(537.32 1772.9) rotate(-60.15)"/><rect class="cls-2" x="1779.93" y="410.81" width="2.83" height="2.83" transform="translate(537.24 1752.12) rotate(-60.15)"/><rect class="cls-2" x="1762.08" y="400.62" width="2.56" height="2.56" transform="translate(537.16 1731.34) rotate(-60.15)"/><rect class="cls-2" x="1744.23" y="390.44" width="2.3" height="2.3" transform="translate(537.08 1710.57) rotate(-60.15)"/></g><g><rect class="cls-2" x="1878.66" y="486.48" width="4.43" height="4.43" transform="translate(520.94 1876.89) rotate(-60.15)"/><rect class="cls-2" x="1860.82" y="476.3" width="4.16" height="4.16" transform="translate(520.83 1856.09) rotate(-60.15)"/><rect class="cls-2" x="1842.97" y="466.11" width="3.89" height="3.89" transform="translate(520.78 1835.34) rotate(-60.15)"/><rect class="cls-2" x="1825.12" y="455.93" width="3.63" height="3.63" transform="translate(520.66 1814.53) rotate(-60.15)"/><rect class="cls-2" x="1807.27" y="445.74" width="3.36" height="3.36" transform="translate(520.58 1793.75) rotate(-60.15)"/><rect class="cls-2" x="1789.42" y="435.56" width="3.1" height="3.1" transform="translate(520.5 1772.97) rotate(-60.15)"/><rect class="cls-2" x="1771.57" y="425.37" width="2.83" height="2.83" transform="translate(520.41 1752.19) rotate(-60.15)"/><rect class="cls-2" x="1753.72" y="415.19" width="2.56" height="2.56" transform="translate(520.33 1731.41) rotate(-60.15)"/><rect class="cls-2" x="1735.87" y="405" width="2.3" height="2.3" transform="translate(520.2 1710.59) rotate(-60.15)"/></g><g><rect class="cls-2" x="1888.15" y="511.24" width="4.69" height="4.69" transform="translate(504.18 1897.74) rotate(-60.15)"/><rect class="cls-2" x="1870.3" y="501.05" width="4.43" height="4.43" transform="translate(504.1 1876.96) rotate(-60.15)"/><rect class="cls-2" x="1852.46" y="490.87" width="4.16" height="4.16" transform="translate(504.02 1856.18) rotate(-60.15)"/><rect class="cls-2" x="1834.61" y="480.68" width="3.89" height="3.89" transform="translate(503.94 1835.41) rotate(-60.15)"/><rect class="cls-2" x="1816.76" y="470.5" width="3.63" height="3.63" transform="translate(503.86 1814.63) rotate(-60.15)"/><rect class="cls-2" x="1798.91" y="460.31" width="3.36" height="3.36" transform="translate(503.78 1793.85) rotate(-60.15)"/><rect class="cls-2" x="1781.06" y="450.13" width="3.1" height="3.1" transform="translate(503.7 1773.07) rotate(-60.15)"/><rect class="cls-2" x="1763.21" y="439.94" width="2.83" height="2.83" transform="translate(503.58 1752.26) rotate(-60.15)"/><rect class="cls-2" x="1745.36" y="429.76" width="2.56" height="2.56" transform="translate(503.54 1731.52) rotate(-60.15)"/><rect class="cls-2" x="1727.52" y="419.57" width="2.3" height="2.3" transform="translate(503.41 1710.7) rotate(-60.15)"/></g><g><rect class="cls-2" x="1879.79" y="525.81" width="4.69" height="4.69" transform="translate(487.35 1897.81) rotate(-60.15)"/><rect class="cls-2" x="1861.94" y="515.62" width="4.43" height="4.43" transform="translate(487.27 1877.03) rotate(-60.15)"/><rect class="cls-2" x="1844.1" y="505.44" width="4.16" height="4.16" transform="translate(487.15 1856.22) rotate(-60.15)"/><rect class="cls-2" x="1826.25" y="495.25" width="3.89" height="3.89" transform="translate(487.1 1835.47) rotate(-60.15)"/><rect class="cls-2" x="1808.4" y="485.07" width="3.63" height="3.63" transform="translate(486.99 1814.66) rotate(-60.15)"/><rect class="cls-2" x="1790.55" y="474.88" width="3.36" height="3.36" transform="translate(486.94 1793.92) rotate(-60.15)"/><rect class="cls-2" x="1772.7" y="464.7" width="3.1" height="3.1" transform="translate(486.82 1773.1) rotate(-60.15)"/><rect class="cls-2" x="1754.85" y="454.51" width="2.83" height="2.83" transform="translate(486.78 1752.37) rotate(-60.15)"/><rect class="cls-2" x="1737" y="444.33" width="2.56" height="2.56" transform="translate(486.68 1731.57) rotate(-60.15)"/><rect class="cls-2" x="1719.16" y="434.14" width="2.3" height="2.3" transform="translate(486.62 1710.81) rotate(-60.15)"/></g></g><path class="cls-2" d="M2034.47,341.08c-25.97-3.51-50.78-21.94-68.08-41.96-7.14-8.27-13.9-17.19-20.43-25.83-15.44-20.41-31.41-41.52-53.33-54.71-48.15-28.98-108.54-13.52-166.26,4.8-55.83,17.72-119.55,34.02-169.18,2.97-40.86-25.57-57.08-75.51-63.49-112.89-2.95-17.21-4.66-34.88-6.31-51.97-2.52-25.99-5.11-52.86-12.13-78.34-19.72-71.68-75.56-131.47-145.72-156.04l1.24-3.54c71.31,24.97,128.06,85.74,148.1,158.59,7.1,25.79,9.71,52.83,12.24,78.97,1.65,17.03,3.35,34.63,6.28,51.7,6.28,36.63,22.09,85.51,61.78,110.35,48.27,30.21,111.02,14.1,166.05-3.37,58.54-18.58,119.83-34.23,169.33-4.44,22.54,13.57,38.73,34.97,54.39,55.66,6.5,8.59,13.21,17.47,20.28,25.64,23.16,26.78,60.04,50.71,94.14,37.53l1.35,3.5c-10.01,3.87-20.22,4.73-30.25,3.38Z"/><polygon class="cls-2" points="279.06 235.16 288.94 225.28 283.94 220.28 274.06 230.16 264.6 220.7 259.38 225.92 268.84 235.38 258.96 245.26 263.96 250.26 273.84 240.38 283.3 249.84 288.52 244.62 279.06 235.16"/><polygon class="cls-2" points="64.51 475.56 74.39 465.68 69.39 460.68 59.51 470.56 50.05 461.1 44.83 466.32 54.29 475.78 44.41 485.66 49.41 490.66 59.29 480.78 68.75 490.24 73.97 485.02 64.51 475.56"/><polygon class="cls-2" points="1380.68 74.31 1390.56 64.43 1385.56 59.43 1375.68 69.31 1366.22 59.85 1361 65.07 1370.46 74.53 1360.58 84.4 1365.58 89.41 1375.46 79.53 1384.92 88.99 1390.14 83.77 1380.68 74.31"/><polygon class="cls-2" points="1655.66 347.15 1665.54 337.27 1660.54 332.27 1650.66 342.15 1641.2 332.69 1635.98 337.91 1645.44 347.37 1635.56 357.25 1640.57 362.25 1650.44 352.37 1659.9 361.83 1665.12 356.61 1655.66 347.15"/></g></g></g></svg>