<svg xmlns="http://www.w3.org/2000/svg" width="267" height="267" fill-rule="evenodd" stroke-linejoin="round" stroke-miterlimit="2" clip-rule="evenodd"><path d="M112.628 178.901C118.786 172.744 118.786 162.761 112.628 156.603L112.621 156.596C106.464 150.439 96.481 150.439 90.324 156.596 72.792 174.128 34.081 212.838 16.55 230.37 10.393 236.527 10.393 246.51 16.55 252.667L16.557 252.675C22.714 258.832 32.697 258.832 38.855 252.675L112.628 178.901zM108.209 174.481L34.435 248.255C30.719 251.972 24.693 251.972 20.977 248.255 20.976 248.255 20.969 248.248 20.969 248.248 17.253 244.531 17.253 238.506 20.969 234.789 20.969 234.789 94.743 161.016 94.743 161.016 98.46 157.299 104.485 157.299 108.201 161.015 108.202 161.016 108.209 161.023 108.209 161.023 111.925 164.739 111.925 170.765 108.209 174.481zM250.117 36.297C256.274 30.139 256.274 20.157 250.117 13.999L250.11 13.992C243.952 7.835 233.969 7.835 227.812 13.992 210.281 31.524 171.57 70.234 154.038 87.766 147.881 93.923 147.881 103.906 154.038 110.063L154.046 110.071C160.203 116.228 170.186 116.228 176.343 110.071L250.117 36.297zM245.698 31.877L171.924 105.651C168.207 109.368 162.182 109.368 158.465 105.651 158.465 105.651 158.458 105.644 158.458 105.644 154.741 101.927 154.741 95.902 158.458 92.185 158.458 92.185 232.232 18.411 232.232 18.411 235.948 14.695 241.974 14.695 245.69 18.411 245.69 18.412 245.697 18.419 245.697 18.419 249.414 22.135 249.414 28.161 245.698 31.877z"/><path d="M87.647 141.249C81.723 148.601 80.375 158.42 83.602 166.895L89.443 164.671C86.746 157.587 88.25 149.269 93.957 143.562 93.957 143.562 95.724 141.795 95.724 141.795 96.513 141.006 96.822 139.855 96.533 138.777 96.244 137.699 95.401 136.856 94.323 136.567L66.948 129.232C65.606 128.873 64.188 129.442 63.467 130.63 53.122 147.682 53.456 169.394 64.469 186.146L69.692 182.713C60.433 168.629 59.754 150.561 67.655 135.892L87.647 141.249zM105.259 183.549C112.816 184.341 120.653 181.841 126.444 176.049 126.444 176.049 145.692 156.802 145.692 156.802 145.692 156.802 167.103 162.539 167.103 162.539 165.771 164.335 164.29 166.057 162.661 167.686 162.661 167.686 140.371 189.976 140.371 189.976 125.937 204.41 104.263 207.194 87.038 198.326L84.177 203.883C103.754 213.962 128.386 210.8 144.79 194.395 144.79 194.395 167.08 172.106 167.08 172.106 170.105 169.08 172.68 165.774 174.805 162.272 175.315 161.432 175.399 160.4 175.033 159.487 174.666 158.574 173.892 157.888 172.942 157.633L145.567 150.298C144.488 150.009 143.337 150.317 142.548 151.107L122.025 171.63C117.62 176.035 111.659 177.936 105.911 177.334L105.259 183.549zM176.706 127.295C182.137 120.553 183.722 111.739 181.46 103.788L175.448 105.498C177.355 112.199 175.671 119.706 170.395 124.982 170.395 124.982 168.628 126.748 168.628 126.748 167.839 127.538 167.531 128.688 167.82 129.767 168.108 130.845 168.951 131.688 170.029 131.976L197.404 139.312C198.746 139.671 200.164 139.102 200.885 137.914 210.82 121.538 210.906 100.865 201.143 84.415L195.769 87.604C203.961 101.408 204.27 118.592 196.698 132.651L176.706 127.295zM158.723 84.958C151.281 84.285 143.605 86.798 137.908 92.495 137.908 92.495 118.661 111.742 118.661 111.742 118.661 111.742 97.249 106.005 97.249 106.005 98.581 104.209 100.062 102.487 101.692 100.858 101.692 100.858 123.981 78.568 123.981 78.568 138.15 64.399 159.295 61.456 176.361 69.741L179.091 64.118C159.696 54.703 135.665 58.046 119.562 74.149 119.562 74.149 97.272 96.438 97.272 96.438 94.247 99.464 91.672 102.769 89.548 106.271 89.037 107.112 88.953 108.144 89.319 109.057 89.686 109.969 90.461 110.656 91.411 110.911L118.786 118.246C119.864 118.535 121.015 118.226 121.804 117.437L142.327 96.914C146.66 92.581 152.499 90.671 158.16 91.183L158.723 84.958zM213.17 149.493L229.392 145.828C231.074 145.447 232.131 143.773 231.751 142.091 231.371 140.408 229.696 139.351 228.014 139.731L211.792 143.397C210.11 143.777 209.053 145.452 209.433 147.134 209.813 148.816 211.488 149.874 213.17 149.493zM51.618 114.626L35.396 118.292C33.714 118.672 32.657 120.346 33.037 122.029 33.417 123.711 35.092 124.768 36.774 124.388L52.996 120.722C54.678 120.342 55.735 118.668 55.355 116.985 54.975 115.303 53.3 114.246 51.618 114.626zM200.795 169.299L214.571 180.028C215.932 181.087 217.897 180.843 218.957 179.482 220.017 178.121 219.772 176.156 218.411 175.096L204.635 164.368C203.274 163.308 201.309 163.553 200.249 164.913 199.19 166.274 199.434 168.239 200.795 169.299zM63.993 94.82L50.217 84.092C48.856 83.032 46.891 83.276 45.831 84.637 44.771 85.998 45.016 87.963 46.376 89.023L60.153 99.751C61.514 100.811 63.479 100.567 64.539 99.206 65.598 97.845 65.354 95.88 63.993 94.82zM186.441 180.628L190.273 195.812C190.695 197.484 192.395 198.499 194.067 198.077 195.74 197.655 196.755 195.955 196.333 194.283L192.501 179.099C192.079 177.427 190.379 176.412 188.707 176.834 187.034 177.256 186.019 178.956 186.441 180.628zM78.347 83.491L74.515 68.308C74.093 66.635 72.393 65.62 70.721 66.042 69.048 66.464 68.033 68.164 68.455 69.837L72.287 85.02C72.709 86.692 74.409 87.707 76.081 87.285 77.754 86.863 78.769 85.163 78.347 83.491z"/></svg>