<?xml version="1.0" encoding="UTF-8"?>
<svg id="Layer_2" data-name="Layer 2" xmlns="http://www.w3.org/2000/svg" xmlns:xlink="http://www.w3.org/1999/xlink" viewBox="0 0 445.33 54.71">
  <defs>
    <style>
      .cls-1 {
        fill: url(#linear-gradient);
      }
    </style>
    <linearGradient id="linear-gradient" x1="158.54" y1="122.05" x2="278.5" y2="-85.74" gradientUnits="userSpaceOnUse">
      <stop offset="0" stop-color="#15b7a1"/>
      <stop offset=".14" stop-color="#1da0a0"/>
      <stop offset=".37" stop-color="#2782a0"/>
      <stop offset=".59" stop-color="#2e6da0"/>
      <stop offset=".8" stop-color="#3360a0"/>
      <stop offset="1" stop-color="#355ca0"/>
    </linearGradient>
  </defs>
  <g id="Layer_1-2" data-name="Layer 1">
    <path class="cls-1" d="M0,1.36H20.58V7.61H7.13v4.37h12.17v5.92H7.13v9.19H0V1.36ZM23.49,.26h7.24V5.4h-7.24V.26Zm.15,6.95h6.95V27.09h-6.95V7.2Zm10.46,.44l6.98-.31,.12,2.79c1.21-1.71,2.98-3.37,5.81-3.49,4.26-.19,6.88,2.46,7.08,7.01l.57,13-6.94,.31-.47-10.76c-.1-2.2-1.25-3.33-2.98-3.25s-2.89,1.3-2.79,3.51l.47,10.76-6.98,.31-.87-19.86Zm22.99,9.59v-.07c0-6.47,4.08-10.4,8.78-10.4,2.98,0,4.78,1.36,6.06,2.87V.26h6.98V27.09h-6.98v-2.65c-1.36,1.65-3.05,3.09-6.03,3.09-4.7,0-8.82-3.93-8.82-10.29Zm15-.07v-.07c0-2.65-1.8-4.52-4.08-4.52s-4.08,1.87-4.08,4.52v.07c0,2.65,1.87,4.52,4.08,4.52s4.08-1.87,4.08-4.52ZM108.03,7.47l7.15,.44-8.44,18.93c-2.05,4.59-3.95,6.24-7.95,6-2.5-.15-4.44-.93-6.24-2.11l2.43-4.75c1.1,.77,2.21,1.2,2.98,1.25,.7,.04,1.19-.11,1.7-.71l-6.59-19.95,7.26,.44,3.23,12.2,4.47-11.73Zm6.79,9.77v-.07c0-5.7,4.63-10.4,10.99-10.4s10.95,4.67,10.95,10.33v.07c0,5.7-4.67,10.4-11.03,10.4s-10.92-4.63-10.92-10.33Zm15.18,0v-.07c0-2.46-1.76-4.52-4.26-4.52s-4.15,1.98-4.15,4.45v.07c0,2.43,1.76,4.48,4.23,4.48s4.19-2.02,4.19-4.41Zm9.75,3.53l-.78-12.95,6.97-.42,.65,10.75c.13,2.2,1.3,3.27,3.03,3.17s2.87-1.31,2.73-3.52l-.65-10.75,6.93-.42,1.2,19.85-6.93,.42-.17-2.75c-1.15,1.73-2.93,3.38-5.75,3.55-4.26,.26-6.96-2.38-7.23-6.93Zm23.26-13.56h6.98v4.01c1.14-2.68,2.94-4.48,6.28-4.34v7.35h-.59c-3.67,0-5.7,2.06-5.7,6.65v6.21h-6.98V7.2Zm28.01,5.59h-2.31V7.28h2.31v-.4c0-2.32,.55-4.01,1.69-5.15,1.21-1.21,2.83-1.73,5.22-1.73,2.09,0,3.45,.22,4.52,.55V5.48c-.85-.26-1.58-.4-2.61-.4-1.32,0-1.99,.62-1.99,1.87v.48h4.59v5.37h-4.45v14.3h-6.98V12.79Zm12.46,4.45v-.07c0-5.7,4.63-10.4,10.99-10.4s10.95,4.67,10.95,10.33v.07c0,5.7-4.67,10.4-11.03,10.4s-10.92-4.63-10.92-10.33Zm15.18,0v-.07c0-2.46-1.76-4.52-4.26-4.52s-4.15,1.98-4.15,4.45v.07c0,2.43,1.76,4.48,4.23,4.48s4.19-2.02,4.19-4.41Zm9.71-10.03h6.98v4.01c1.14-2.68,2.94-4.48,6.28-4.34v7.35h-.59c-3.67,0-5.7,2.06-5.7,6.65v6.21h-6.98V7.2Zm14.7,8.49v-.07c.9-5.7,5.72-9.64,11.53-8.73,6.75,1.05,9.1,6.51,8.2,12.29-.07,.44-.15,.94-.26,1.41l-13.15-2.05c.2,2.26,1.57,3.55,3.74,3.89,1.71,.27,3.03-.12,4.67-1.32l3.32,3.75c-2.27,2.14-5.2,3.28-9.12,2.67-6.17-.96-9.89-5.78-8.94-11.85Zm13.63,.38c.08-2.22-1.01-3.8-2.9-4.1s-3.23,.91-3.97,3.03l6.86,1.07Zm6.88-8.87h7.35l3.82,11.61,3.86-11.61h7.2l-7.94,20.03h-6.36l-7.94-20.03Zm22.63,11.58v-.07c-.91-5.7,2.48-10.92,8.29-11.83,6.75-1.06,10.66,3.43,11.56,9.2,.07,.44,.15,.94,.19,1.42l-13.14,2.06c.89,2.09,2.58,2.91,4.75,2.57,1.71-.27,2.85-1.04,4.04-2.68l4.31,2.56c-1.51,2.73-3.95,4.71-7.87,5.33-6.17,.97-11.18-2.49-12.13-8.55Zm13.09-3.8c-.6-2.14-2.12-3.31-4.01-3.02s-2.8,1.85-2.85,4.09l6.86-1.08Zm9.82-7.78h6.98v4.01c1.14-2.68,2.94-4.48,6.28-4.34v7.35h-.59c-3.67,0-5.7,2.06-5.7,6.65v6.21h-6.98V7.2Zm26.61,23.56l2.24-4.63c2.17,1.18,4.26,1.87,6.95,1.87,3.49,0,5.18-1.69,5.18-4.89v-.77c-1.43,1.62-3.2,2.98-6.1,2.98-4.89,0-8.86-3.53-8.86-9.23v-.07c0-5.73,4.04-9.26,8.6-9.26,3.05,0,4.78,1.21,6.25,2.79v-2.35h6.98v15.11c0,3.6-.85,6.25-2.57,7.94-1.8,1.87-4.59,2.79-8.75,2.79-3.82,0-7.02-.81-9.92-2.28Zm14.41-14.66v-.07c0-2.2-1.73-3.86-4.08-3.86s-4.08,1.65-4.08,3.9v.07c0,2.2,1.69,3.82,4.08,3.82s4.08-1.65,4.08-3.86Zm11.28-9.33l6.97,.48-.28,4c1.32-2.6,3.24-4.27,6.57-3.89l-.51,7.33-.59-.04c-3.67-.25-5.83,1.66-6.14,6.24l-.43,6.2-6.97-.48,1.38-19.84Zm13.9,10.47v-.07c0-5.7,4.63-10.4,10.99-10.4s10.95,4.67,10.95,10.33v.07c0,5.7-4.67,10.4-11.03,10.4s-10.92-4.63-10.92-10.33Zm15.18,0v-.07c0-2.46-1.76-4.52-4.26-4.52s-4.15,1.98-4.15,4.45v.07c0,2.43,1.76,4.48,4.23,4.48s4.19-2.02,4.19-4.41Zm9.69,3.36l-.55-12.96,6.98-.3,.46,10.76c.09,2.2,1.24,3.29,2.97,3.22,1.73-.07,2.89-1.26,2.79-3.47l-.46-10.76,6.94-.29,.84,19.87-6.94,.29-.12-2.75c-1.18,1.71-2.99,3.33-5.81,3.45-4.26,.18-6.91-2.5-7.11-7.05Zm23.32-13.39h6.98v2.65c1.36-1.65,3.05-3.09,6.03-3.09,4.7,0,8.82,3.93,8.82,10.29v.07c0,6.47-4.08,10.4-8.78,10.4-3.01,0-4.74-1.36-6.06-2.87v8.31h-6.98V7.2Zm14.99,9.96v-.07c0-2.65-1.87-4.52-4.08-4.52s-4.08,1.87-4.08,4.52v.07c0,2.65,1.8,4.52,4.08,4.52s4.08-1.84,4.08-4.52ZM37.79,41.98h4.04c3.26,0,5.51,2.23,5.51,5.15v.03c0,2.92-2.25,5.18-5.51,5.18h-4.04v-10.36Zm2.28,2.06v6.25h1.76c1.85,0,3.12-1.26,3.12-3.09v-.03c0-1.84-1.27-3.12-3.12-3.12h-1.76Zm9.1-2.5h2.37v2h-2.37v-2Zm.06,2.87h2.25v7.93h-2.25v-7.93Zm3.74,6.88l.96-1.48c.87,.64,1.75,.95,2.5,.95,.65,0,.95-.24,.95-.59v-.03c0-.49-.77-.64-1.64-.92-1.11-.31-2.37-.84-2.37-2.38v-.03c0-1.61,1.3-2.52,2.9-2.52,1.01,0,2.09,.34,2.96,.92l-.86,1.55c-.78-.46-1.57-.74-2.15-.74-.55,0-.83,.24-.83,.55v.03c0,.41,.75,.68,1.61,.95,1.11,.35,2.4,.9,2.4,2.35v.03c0,1.76-1.32,2.56-3.03,2.56-1.12,0-2.34-.37-3.4-1.2Zm7.67-2.87v-.03c0-2.26,1.73-4.13,4.16-4.13,1.5,0,2.41,.5,3.17,1.33l-1.38,1.48c-.52-.53-.99-.87-1.81-.87-1.12,0-1.92,.98-1.92,2.16v.03c0,1.23,.78,2.19,2.01,2.19,.75,0,1.27-.33,1.82-.84l1.32,1.33c-.77,.84-1.66,1.45-3.24,1.45-2.38,0-4.13-1.85-4.13-4.1Zm8.23,0v-.03c0-2.28,1.83-4.13,4.31-4.13s4.28,1.81,4.28,4.1v.03c0,2.28-1.83,4.13-4.31,4.13s-4.28-1.81-4.28-4.1Zm6.36,0v-.03c0-1.17-.84-2.19-2.09-2.19s-2.06,.98-2.06,2.16v.03c0,1.17,.84,2.19,2.09,2.19s2.06-.98,2.06-2.16Zm2.69-4.01h2.38l1.78,5.31,1.79-5.31h2.34l-3.12,7.99h-2.04l-3.12-7.99Zm8.76,4.01v-.03c0-2.26,1.61-4.13,3.92-4.13,2.65,0,3.86,2.06,3.86,4.31,0,.18-.01,.37-.03,.59h-5.52c.22,1.02,.93,1.55,1.94,1.55,.75,0,1.29-.24,1.92-.81l1.29,1.14c-.75,.93-1.81,1.48-3.24,1.48-2.38,0-4.14-1.67-4.14-4.1Zm5.59-.67c-.13-1.01-.73-1.69-1.67-1.69s-1.54,.67-1.72,1.69h3.39Zm3.86-3.34h2.25v1.6c.46-1.08,1.18-1.81,2.53-1.75v2.35h-.12c-1.5,0-2.41,.89-2.41,2.8v2.93h-2.25v-7.93Zm10.99,5.68v-3.76h-.95v-1.92h.95v-2.03h2.25v2.03h1.87v1.92h-1.87v3.39c0,.52,.24,.77,.73,.77,.4,0,.77-.09,1.11-.28v1.81c-.47,.28-1.02,.46-1.78,.46-1.36,0-2.31-.55-2.31-2.38Zm5.77-8.56h2.25v4c.52-.67,1.2-1.27,2.32-1.27,1.72,0,2.69,1.11,2.69,2.95v5.14h-2.25v-4.43c0-1.07-.49-1.61-1.36-1.61s-1.41,.55-1.41,1.61v4.43h-2.25v-10.8Zm8.83,6.88v-.03c0-2.26,1.61-4.13,3.92-4.13,2.65,0,3.86,2.06,3.86,4.31,0,.18-.01,.37-.03,.59h-5.52c.22,1.02,.93,1.55,1.94,1.55,.75,0,1.29-.24,1.92-.81l1.29,1.14c-.75,.93-1.81,1.48-3.24,1.48-2.38,0-4.14-1.67-4.14-4.1Zm5.59-.67c-.13-1.01-.73-1.69-1.67-1.69s-1.54,.67-1.72,1.69h3.39Zm8.67,2.34v-3.76h-.95v-1.92h.95v-2.03h2.25v2.03h1.87v1.92h-1.87v3.39c0,.52,.24,.77,.73,.77,.4,0,.77-.09,1.11-.28v1.81c-.47,.28-1.02,.46-1.78,.46-1.36,0-2.31-.55-2.31-2.38Zm5.77-5.68h2.25v1.6c.46-1.08,1.18-1.81,2.53-1.75v2.35h-.12c-1.5,0-2.41,.89-2.41,2.8v2.93h-2.25v-7.93Zm6.13,5.14v-5.14h2.25v4.43c0,1.07,.49,1.61,1.36,1.61s1.41-.55,1.41-1.61v-4.43h2.25v7.93h-2.25v-1.12c-.52,.67-1.2,1.27-2.32,1.27-1.72,0-2.69-1.11-2.69-2.95Zm8.89-1.12v-.03c0-2.26,1.61-4.13,3.92-4.13,2.65,0,3.86,2.06,3.86,4.31,0,.18-.01,.37-.03,.59h-5.52c.22,1.02,.93,1.55,1.94,1.55,.75,0,1.29-.24,1.92-.81l1.29,1.14c-.75,.93-1.81,1.48-3.24,1.48-2.38,0-4.14-1.67-4.14-4.1Zm5.59-.67c-.13-1.01-.73-1.69-1.67-1.69s-1.54,.67-1.72,1.69h3.39Zm8.3-3.34h2.25v1.14c.55-.75,1.29-1.29,2.47-1.29,1.85,0,3.61,1.45,3.61,4.1v.03c0,2.65-1.73,4.1-3.61,4.1-1.2,0-1.94-.55-2.47-1.18v3.4h-2.25v-10.3Zm6.08,3.98v-.03c0-1.32-.89-2.19-1.94-2.19s-1.92,.87-1.92,2.19v.03c0,1.32,.87,2.19,1.92,2.19s1.94-.86,1.94-2.19Zm3.52,.03v-.03c0-2.28,1.83-4.13,4.31-4.13s4.28,1.81,4.28,4.1v.03c0,2.28-1.83,4.13-4.31,4.13s-4.28-1.81-4.28-4.1Zm6.36,0v-.03c0-1.17-.84-2.19-2.09-2.19s-2.06,.98-2.06,2.16v.03c0,1.17,.84,2.19,2.09,2.19s2.06-.98,2.06-2.16Zm4.22,1.67v-3.76h-.95v-1.92h.95v-2.03h2.25v2.03h1.87v1.92h-1.87v3.39c0,.52,.24,.77,.73,.77,.4,0,.77-.09,1.11-.28v1.81c-.47,.28-1.02,.46-1.78,.46-1.36,0-2.31-.55-2.31-2.38Zm5.16-1.67v-.03c0-2.26,1.61-4.13,3.92-4.13,2.65,0,3.86,2.06,3.86,4.31,0,.18-.01,.37-.03,.59h-5.52c.22,1.02,.93,1.55,1.94,1.55,.75,0,1.29-.24,1.92-.81l1.29,1.14c-.75,.93-1.81,1.48-3.24,1.48-2.38,0-4.14-1.67-4.14-4.1Zm5.59-.67c-.13-1.01-.73-1.69-1.67-1.69s-1.54,.67-1.72,1.69h3.39Zm3.86-3.34h2.25v1.12c.52-.67,1.2-1.27,2.32-1.27,1.72,0,2.69,1.11,2.69,2.95v5.14h-2.25v-4.43c0-1.07-.49-1.61-1.36-1.61s-1.41,.55-1.41,1.61v4.43h-2.25v-7.93Zm9.59,5.68v-3.76h-.95v-1.92h.95v-2.03h2.25v2.03h1.87v1.92h-1.87v3.39c0,.52,.24,.77,.73,.77,.4,0,.77-.09,1.11-.28v1.81c-.47,.28-1.02,.46-1.78,.46-1.36,0-2.31-.55-2.31-2.38Zm5.81-8.56h2.37v2h-2.37v-2Zm.06,2.87h2.25v7.93h-2.25v-7.93Zm3.89,5.65v-.03c0-1.72,1.32-2.53,3.2-2.53,.81,0,1.36,.13,1.94,.33v-.13c0-.95-.58-1.45-1.7-1.45-.87,0-1.47,.15-2.19,.43l-.56-1.72c.87-.37,1.73-.64,3.08-.64,1.24,0,2.1,.31,2.68,.89,.59,.59,.86,1.47,.86,2.53v4.6h-2.18v-.86c-.55,.61-1.29,1.01-2.4,1.01-1.49,0-2.72-.84-2.72-2.43Zm5.17-.52v-.4c-.4-.18-.89-.3-1.44-.3-.96,0-1.55,.38-1.55,1.1v.03c0,.61,.5,.96,1.23,.96,1.07,0,1.76-.56,1.76-1.39Zm4.17-8.01h2.25v10.8h-2.25v-10.8Zm8.42,6.88v-.03c0-2.28,1.83-4.13,4.31-4.13s4.28,1.81,4.28,4.1v.03c0,2.28-1.83,4.13-4.31,4.13s-4.28-1.81-4.28-4.1Zm6.36,0v-.03c0-1.17-.84-2.19-2.09-2.19s-2.06,.98-2.06,2.16v.03c0,1.17,.84,2.19,2.09,2.19s2.06-.98,2.06-2.16Zm4.23-2.09h-.93v-1.85h.93v-.5c0-.86,.21-1.49,.64-1.92,.42-.41,1.02-.62,1.82-.62,.71,0,1.18,.09,1.6,.22v1.87c-.34-.12-.62-.19-1.02-.19-.55,0-.81,.28-.81,.86v.31h1.82v1.84h-1.79v6.01h-2.25v-6.01Zm9.32,2.09v-.03c0-2.28,1.83-4.13,4.31-4.13s4.28,1.81,4.28,4.1v.03c0,2.28-1.83,4.13-4.31,4.13s-4.28-1.81-4.28-4.1Zm6.36,0v-.03c0-1.17-.84-2.19-2.09-2.19s-2.06,.98-2.06,2.16v.03c0,1.17,.84,2.19,2.09,2.19s2.06-.98,2.06-2.16Zm3.85-4.01h2.25v1.12c.52-.67,1.2-1.27,2.32-1.27,1.72,0,2.69,1.11,2.69,2.95v5.14h-2.25v-4.43c0-1.07-.49-1.61-1.36-1.61s-1.41,.55-1.41,1.61v4.43h-2.25v-7.93Zm9.32-2.87h2.25v10.8h-2.25v-10.8Zm4.41,0h2.37v2h-2.37v-2Zm.06,2.87h2.25v7.93h-2.25v-7.93Zm4.37,0h2.25v1.12c.52-.67,1.2-1.27,2.32-1.27,1.72,0,2.69,1.11,2.69,2.95v5.14h-2.25v-4.43c0-1.07-.49-1.61-1.36-1.61s-1.41,.55-1.41,1.61v4.43h-2.25v-7.93Zm8.83,4.01v-.03c0-2.26,1.61-4.13,3.92-4.13,2.65,0,3.86,2.06,3.86,4.31,0,.18-.01,.37-.03,.59h-5.52c.22,1.02,.93,1.55,1.94,1.55,.75,0,1.29-.24,1.92-.81l1.29,1.14c-.75,.93-1.81,1.48-3.24,1.48-2.38,0-4.14-1.67-4.14-4.1Zm5.59-.67c-.13-1.01-.73-1.69-1.67-1.69s-1.54,.67-1.72,1.69h3.39Zm7.91,.67v-.03c0-2.26,1.73-4.13,4.16-4.13,1.5,0,2.41,.5,3.17,1.33l-1.38,1.48c-.52-.53-.99-.87-1.81-.87-1.12,0-1.92,.98-1.92,2.16v.03c0,1.23,.78,2.19,2.01,2.19,.75,0,1.27-.33,1.82-.84l1.32,1.33c-.77,.84-1.66,1.45-3.24,1.45-2.38,0-4.13-1.85-4.13-4.1Zm8.23,0v-.03c0-2.28,1.83-4.13,4.31-4.13s4.28,1.81,4.28,4.1v.03c0,2.28-1.83,4.13-4.31,4.13s-4.28-1.81-4.28-4.1Zm6.36,0v-.03c0-1.17-.84-2.19-2.09-2.19s-2.06,.98-2.06,2.16v.03c0,1.17,.84,2.19,2.09,2.19s2.06-.98,2.06-2.16Zm3.85-4.01h2.25v1.12c.52-.67,1.2-1.27,2.34-1.27,1.05,0,1.82,.44,2.24,1.26,.7-.83,1.52-1.26,2.6-1.26,1.67,0,2.68,1.01,2.68,2.92v5.17h-2.25v-4.43c0-1.07-.47-1.61-1.32-1.61s-1.36,.55-1.36,1.61v4.43h-2.25v-4.43c0-1.07-.47-1.61-1.32-1.61s-1.36,.55-1.36,1.61v4.43h-2.25v-7.93Zm14.06,0h2.25v1.12c.52-.67,1.2-1.27,2.34-1.27,1.05,0,1.82,.44,2.24,1.26,.7-.83,1.52-1.26,2.6-1.26,1.67,0,2.68,1.01,2.68,2.92v5.17h-2.25v-4.43c0-1.07-.47-1.61-1.32-1.61s-1.36,.55-1.36,1.61v4.43h-2.25v-4.43c0-1.07-.47-1.61-1.32-1.61s-1.36,.55-1.36,1.61v4.43h-2.25v-7.93Zm14,5.14v-5.14h2.25v4.43c0,1.07,.49,1.61,1.36,1.61s1.41-.55,1.41-1.61v-4.43h2.25v7.93h-2.25v-1.12c-.52,.67-1.2,1.27-2.32,1.27-1.72,0-2.69-1.11-2.69-2.95Zm9.28-5.14h2.25v1.12c.52-.67,1.2-1.27,2.32-1.27,1.72,0,2.69,1.11,2.69,2.95v5.14h-2.25v-4.43c0-1.07-.49-1.61-1.36-1.61s-1.41,.55-1.41,1.61v4.43h-2.25v-7.93Zm9.26-2.87h2.37v2h-2.37v-2Zm.06,2.87h2.25v7.93h-2.25v-7.93Zm4.74,5.68v-3.76h-.95v-1.92h.95v-2.03h2.25v2.03h1.87v1.92h-1.87v3.39c0,.52,.24,.77,.73,.77,.4,0,.77-.09,1.11-.28v1.81c-.47,.28-1.02,.46-1.78,.46-1.36,0-2.31-.55-2.31-2.38Zm5.81-8.56h2.37v2h-2.37v-2Zm.06,2.87h2.25v7.93h-2.25v-7.93Zm3.98,4.01v-.03c0-2.26,1.61-4.13,3.92-4.13,2.65,0,3.86,2.06,3.86,4.31,0,.18-.01,.37-.03,.59h-5.52c.22,1.02,.93,1.55,1.94,1.55,.75,0,1.29-.24,1.92-.81l1.29,1.14c-.75,.93-1.81,1.48-3.24,1.48-2.38,0-4.14-1.67-4.14-4.1Zm5.59-.67c-.13-1.01-.73-1.69-1.67-1.69s-1.54,.67-1.72,1.69h3.39Zm3.24,3.54l.96-1.48c.87,.64,1.75,.95,2.5,.95,.65,0,.95-.24,.95-.59v-.03c0-.49-.77-.64-1.64-.92-1.11-.31-2.37-.84-2.37-2.38v-.03c0-1.61,1.3-2.52,2.9-2.52,1.01,0,2.09,.34,2.96,.92l-.86,1.55c-.78-.46-1.57-.74-2.15-.74-.55,0-.83,.24-.83,.55v.03c0,.41,.75,.68,1.61,.95,1.11,.35,2.4,.9,2.4,2.35v.03c0,1.76-1.32,2.56-3.03,2.56-1.12,0-2.34-.37-3.4-1.2Z"/>
  </g>
</svg>