<?xml version="1.0" encoding="UTF-8"?><svg xmlns="http://www.w3.org/2000/svg" viewBox="0 0 501.06 522.58"><defs><style>.cls-1{fill:#b88b64;}.cls-2{opacity:.25;}.cls-2,.cls-3{fill:#49656d;}.cls-4,.cls-5,.cls-6,.cls-7,.cls-8,.cls-9,.cls-10,.cls-11,.cls-12,.cls-13,.cls-14,.cls-15{mix-blend-mode:multiply;}.cls-4,.cls-5,.cls-6,.cls-9,.cls-12,.cls-14,.cls-15{fill:#3d4f9f;}.cls-4,.cls-7{opacity:.22;}.cls-16{fill:#e6faff;}.cls-17{fill:#4c95b4;}.cls-18{fill:#9dbac5;}.cls-19{fill:#ff822e;}.cls-20{fill:#56a0c4;}.cls-21{fill:#ffce31;}.cls-3{opacity:.47;}.cls-22{fill:#327c69;}.cls-23{fill:#e7af85;}.cls-24{fill:#4e2c79;}.cls-25{fill:#59767d;}.cls-26{fill:#7eabb3;}.cls-27{isolation:isolate;}.cls-28{fill:#ffed97;}.cls-5{opacity:.2;}.cls-29{fill:#d77227;}.cls-6{opacity:.29;}.cls-30{fill:#927c5d;}.cls-31{fill:#2e7d9a;}.cls-32,.cls-33{fill:#fff;mix-blend-mode:overlay;}.cls-32,.cls-34{opacity:.64;}.cls-35{fill:#9bc3cc;}.cls-7,.cls-36{fill:#79959c;}.cls-37{fill:#2c183e;opacity:.35;}.cls-38,.cls-8,.cls-10,.cls-11{fill:#30385f;}.cls-39{fill:#cc3b89;}.cls-40{stroke:#7fd0e9;stroke-width:1.64px;}.cls-40,.cls-41{fill:none;stroke-miterlimit:10;}.cls-33{opacity:.85;}.cls-8,.cls-15{opacity:.26;}.cls-42{fill:#b7d7e3;}.cls-43{fill:#f958ad;}.cls-44{fill:#f0c5a1;}.cls-45{fill:#ce49b5;}.cls-46{fill:#3c9780;}.cls-47{fill:#e4eff4;}.cls-48{fill:#ae377e;}.cls-41{stroke:#eef0f3;stroke-width:2.19px;}.cls-49{fill:#7fd0e9;}.cls-50{fill:#a35f26;}.cls-51{fill:#3690a4;}.cls-52{fill:#7ae5ac;}.cls-9{opacity:.18;}.cls-53{fill:#acbac2;}.cls-54{fill:#ff6ea9;}.cls-34{fill:#334d55;}.cls-55{fill:#eef0f3;}.cls-56{fill:#7fa2a4;}.cls-10{opacity:.28;}.cls-11{opacity:.39;}.cls-57{fill:#ed6ec9;}.cls-58{fill:#678388;}.cls-59{fill:#3d87a5;}.cls-60{fill:#51dbfc;}.cls-61{fill:#e2b488;}.cls-12{opacity:.38;}.cls-62{fill:#be802b;}.cls-13{fill:#1a2550;opacity:.56;}.cls-63{fill:#ce3698;}.cls-14{opacity:.5;}.cls-64{fill:#b3549e;}.cls-65{fill:#fdd5b5;}</style></defs><g class="cls-27"><g id="Layer_2"><g id="left"><g id="Layer_33"><polyline class="cls-37" points="59.57 501.49 344.53 501.49 391.38 256.04 126.33 255.57 59.57 501.49"/></g><g id="Layer_4_copy_2"><g><path class="cls-37" d="M473.06,342.18l-5.75,24.89s18.27,6.38,16.68,10.35c-2.08,5.2-16.52,40.7-27.61,40.27-2.44-.14-18.06,7.47-37.39,7.48-32.41,.02-77.09-8.05-77.09-8.05l39.12-75.55,92.04,.61Z"/><path class="cls-62" d="M462.71,249.91s-16.11,50.62-20.33,55.23c-4.22,4.6-13.42,5.75-18.03,5.75s-58.68-1.15-58.68-1.15l24.93-98.56h76.7l-4.6,38.73Z"/><path class="cls-36" d="M445.21,293.33l1.62,4.83,4.28,12.76,12.04,35.92c1.49,.74,3.23,.75,4.73,.35,2.04-.54,3.65-1.84,3.65-3.08,0-1.61-6.86-40.51-10.24-59.6-.05,.04-.11,.08-.17,.12-2.75,1.74-6.45,2.22-9.61,2.68-.87,.12-1.84,.26-2.82,.32-.4,.65-.72,1.32-.8,2.05,0,.22,0,.43-.02,.65-.13,1.8-1.33,2.81-2.65,3.02Z"/><polygon class="cls-3" points="446.83 298.16 451.11 310.91 457.98 288.38 451.71 289.03 446.83 298.16"/><path class="cls-42" d="M461.12,284.61c.06-.04,.11-.08,.17-.12,3.38,19.09,10.24,57.99,10.24,59.6,0,1.23-1.61,2.53-3.65,3.08l-15.6-60c2.98-.43,6.3-.96,8.84-2.56Z"/><path class="cls-58" d="M388.94,310.61c4.06,.22,8.08,.79,12.13,1.09-5.04,16.61-10.16,33.34-10.64,34.29-.56,1.1-2.58,1.54-4.65,1.1-1.52-.31-3.07-1.11-4.06-2.44l5.09-34.92c.51,.5,1.22,.84,2.14,.89Z"/><path class="cls-18" d="M401.07,311.7c-5.04,16.61-10.16,33.34-10.64,34.29-.56,1.1-2.58,1.53-4.65,1.1l7.83-36.1c2.48,.24,4.96,.53,7.45,.71Z"/><path class="cls-36" d="M419.63,313.91l6.12,18.26,17.98,53.62c1.57,.79,3.41,.8,5,.37,2.16-.58,3.86-1.95,3.86-3.25,0-2-9.94-58.03-12.28-71.19-.31-1.75-.49-2.75-.49-2.75l-7.19,1.76-12.99,3.18Z"/><path class="cls-42" d="M429.62,312.67l2.68,10.29,16.43,63.19c2.16-.58,3.86-1.95,3.86-3.25,0-2-9.94-58.03-12.28-71.19-.31-1.75-.49-2.75-.49-2.75l-7.19,1.76-3,1.95Z"/><path class="cls-36" d="M355.17,302.74l-2.25,23.8-6.59,69.89c1.39,1.69,3.47,2.62,5.48,2.94,2.74,.43,5.36-.27,6.01-1.75,1.01-2.27,17.93-70.85,21.91-86.97,.53-2.15,.83-3.36,.83-3.36l-9.05-1.62-16.34-2.93Z"/><path class="cls-3" d="M367.13,306.37l-2.15,13.03-13.17,79.98c2.74,.43,5.36-.27,6.01-1.75,1.01-2.27,17.93-70.85,21.91-86.97,.53-2.15,.83-3.36,.83-3.36l-9.05-1.62-4.38,.7Z"/><path class="cls-3" d="M419.63,315.1l7.6,22.67,8.12-11.42,9.94-13.97c-.39-2.18-.61-3.41-.61-3.41l-8.93,2.19-16.13,3.95Z"/><path class="cls-50" d="M366.06,312.93c48.8,3.36,66.34,3.13,73.72,.47,3.83-1.39,4.93-3.43,6.24-5.96,3.5-6.77,17.2-47.7,19.54-54.71,.23-.66,.34-1.02,.34-1.02l-5.88-1.22s-.03,.1-.09,.29c-1.15,3.47-12.36,37.27-20.62,51.3-.41,.69-.76,1.35-1.11,1.96-1.31,2.29-2.59,3.9-6.38,3.6-23.78,1.34-64.62-2.49-64.62-2.49l-1.15,7.8Z"/><path class="cls-21" d="M438.21,304.03c.03,.09,.08,.14,.15,.15l1.43,9.22c3.83-1.39,4.93-3.43,6.24-5.96,.75-1.47,1.99-4.53,3.49-8.5-.15,0,2.57-7.62,2.79-7.64-.22,.02-.34,.03-.34,.03,0,0-5.88-8.69,2.05-8.43,.42,.01,.85,0,1.27,0,4.47-12.8,9.02-26.39,10.28-30.17,.23-.66,.34-1.02,.34-1.02l-5.88-1.22s-.03,.1-.09,.29c-1.15,3.47-12.36,37.27-20.62,51.3-.41,.69-.76,1.35-1.11,1.96Z"/><polygon class="cls-21" points="501.06 100.59 479.77 186.43 465.39 186.43 489.55 100.14 501.06 100.59"/><path class="cls-28" d="M473.16,235.09c.93-.38,1.77-.77,2.5-1.15l5.61-21.53,9.82-37.67,3.92-29.1,6.06-45.04-21.29,85.84-6.62,48.65Z"/><path class="cls-28" d="M470.76,252.72l1.25-4.79c-.21,.07-.42,.14-.63,.21l-.62,4.58Z"/><g><path class="cls-28" d="M472.24,241.85c.53-.21,1.05-.45,1.53-.7l1.88-7.21c-.73,.37-1.57,.77-2.5,1.15l-.92,6.76Z"/><path class="cls-34" d="M473.78,241.15c1.61-.85,2.84-1.95,3.15-3.37,.26-1.19,.59-2.93,.98-5.1-.47,.29-1.25,.75-2.25,1.26l-1.88,7.21Z"/><polygon class="cls-42" points="494.46 136.07 500.52 136.07 496.69 145.63 491.38 145.63 494.46 136.07"/><path class="cls-16" d="M480.67,242.46c2.09-2.3,5.24-9.64,6.3-14.97,1.27-6.33,13.37-90.09,13.55-91.41l-3.82,9.55v.02c-.2,1.68-10.57,89-15.62,96.27-.13,.18-.26,.36-.4,.54Z"/><path class="cls-50" d="M459.76,252.72h11l.62-4.58,.86-6.29,.92-6.76,6.62-48.65h-9.28c3.93,29.25-1.26,48.9-1.26,48.9-1.55,6.36-4.68,11.85-9.37,16.3l-.09,1.09Z"/><path class="cls-28" d="M471.38,248.14c.21-.07,.42-.14,.63-.21l1.76-6.78c-.49,.25-1,.49-1.53,.7l-.86,6.29Z"/><path class="cls-26" d="M472.01,247.93c3.32-1.16,6.62-2.89,8.66-5.46,.14-.17,.27-.35,.4-.53,5.05-7.27,15.42-94.59,15.62-96.27v-.02h-5.31s-5.72,39.03-10.11,66.78c-1.29,8.15-2.47,15.34-3.36,20.27-.39,2.17-.73,3.91-.98,5.1-.31,1.42-1.54,2.52-3.15,3.37l-1.76,6.78Z"/><path class="cls-21" d="M451.97,291.32s.12,0,.34-.03c.97-2.69,1.97-5.53,2.98-8.41-.42,.01-.85,.02-1.27,0-7.93-.26-2.05,8.43-2.05,8.43Z"/><path class="cls-25" d="M452.31,291.29c2.24-.23,14.95-1.75,16.15-7.26,.31-1.43,.72-3.52,1.19-6.13-1.92,1.19-8.12,4.71-14.36,4.98-1.01,2.88-2.01,5.72-2.98,8.41Z"/><polygon class="cls-42" points="489.55 161.7 496.84 161.7 492.24 173.2 485.85 173.2 489.55 161.7"/><path class="cls-16" d="M472.96,289.67c2.52-2.76,6.3-11.6,7.58-18,1.52-7.61,16.08-108.36,16.3-109.95l-4.6,11.49v.03c-.25,2.02-12.72,107.06-18.79,115.79-.15,.22-.31,.44-.49,.65Z"/><path class="cls-35" d="M452.27,291.41s.02-.08,.04-.12c2.24-.23,14.95-1.75,16.15-7.26,.31-1.43,.72-3.52,1.19-6.13,4.69-26.1,16.2-104.7,16.2-104.7h6.4v.03c-.25,2.02-12.72,107.06-18.79,115.79-.15,.22-.31,.44-.49,.65-6.08,7.67-21.39,9.1-23.45,9.26,.84-2.25,1.77-4.81,2.75-7.52Z"/></g><path class="cls-21" d="M452.31,291.29l-2.79,7.64-.73-.13,1.01-5.11s1.63-2.72,2.52-2.4"/></g><polygon class="cls-50" points="465.39 186.43 459.76 252.72 470.76 252.72 479.77 186.43 465.39 186.43"/></g><g id="Layer_7_copy"><g><polygon class="cls-37" points="27.96 393.96 20.41 399.48 140.94 401.01 163.95 337.73 83.48 307.31 54.08 299.51 27.96 393.96"/><polygon class="cls-16" points="33.35 218.78 45.48 289.53 51.95 276.19 38.61 201.4 33.35 218.78"/><polygon class="cls-35" points="29.71 230.91 42.24 297.61 47.1 291.14 34.97 220.8 29.71 230.91"/><path class="cls-35" d="M71.08,303.67l-8.01,23.9-23.52,70.16c-2.06,1.03-4.46,1.04-6.54,.49-2.82-.75-5.05-2.55-5.05-4.26,0-2.61,13.01-75.93,16.07-93.16,.41-2.29,.64-3.6,.64-3.6l9.41,2.3,17,4.16Z"/><path class="cls-16" d="M58.01,302.06l-3.5,13.47-21.5,82.69c-2.82-.75-5.05-2.55-5.05-4.26,0-2.61,13.01-75.93,16.07-93.16,.41-2.29,.64-3.6,.64-3.6l9.41,2.3,3.93,2.55Z"/><path class="cls-50" d="M38,292.36s.61,11.12,2.73,12.33c2.12,1.21,32.04,7.48,42.45,6.67,10.41-.81,5.76-12.43,5.76-12.43l-50.94-6.57Z"/><path class="cls-62" d="M93.99,303.27s-42.85-4.04-54.17-8.09c-11.32-4.04,36.38-69.53,36.38-69.53l50.13,29.91-32.34,47.7Z"/><g><polygon class="cls-21" points="67.71 162.19 27.89 242.83 13.34 175.53 63.85 100.92 67.71 162.19"/><polygon class="cls-50" points="13.34 175.53 0 171.89 13.95 235.56 27.89 242.83 13.34 175.53"/><polygon class="cls-28" points="0 171.89 52.76 100.34 63.85 100.92 13.34 175.53 0 171.89"/></g></g></g><g id="Layer_27"><path class="cls-29" d="M310.04,12.36c.75,1.34,2.62,4.79,4.53,9.37-2.07-.05-3.35-.4-3.35-1.16,0-1.51-.52-4.74-1.18-8.21Z"/></g><g id="Layer_3_copy"><g><polygon class="cls-16" points="334.55 341.56 334.8 345.46 336.44 371.86 344.53 501.49 352.58 488.45 359.97 352 360.93 334.24 361.02 332.74 340.44 339.6 334.55 341.56"/><polygon class="cls-35" points="326.11 344.25 327.66 371.86 334.94 501.49 344.53 501.49 345.18 369.98 345.29 346.93 334.8 345.46 326.11 344.25"/><polygon class="cls-2" points="326.11 344.25 327.66 371.86 343.63 371.86 345.18 369.98 359.97 352 360.93 334.24 340.44 339.6 334.55 341.56 334.8 345.46 326.11 344.25"/><polygon class="cls-16" points="59.19 341.56 59.34 343.94 59.44 345.46 61.15 373.01 69.16 501.49 74.91 487.3 84.17 360.12 85.09 343.23 85.65 332.74 59.19 341.56"/><polygon class="cls-35" points="50.75 344.25 52.37 373.01 59.57 501.49 69.16 501.49 69.8 373.01 69.93 346.93 59.44 345.46 50.75 344.25"/><polygon class="cls-2" points="50.75 344.25 52.37 373.01 70.31 373.01 84.17 360.12 85.09 343.23 59.34 343.94 59.44 345.46 50.75 344.25"/><polygon class="cls-22" points="357.95 322.2 357.37 349.24 45.57 346.36 45.57 316.45 357.95 322.2"/><polygon class="cls-52" points="45.57 316.45 189.39 77.71 424.68 77.13 357.95 322.2 45.57 316.45"/><polygon class="cls-46" points="357.37 349.24 374.37 286.01 382.09 257.33 385.84 243.4 386.26 241.82 424.68 98.99 424.68 77.13 380.09 240.86 378.49 246.77 377.28 251.17 375.03 259.48 357.95 322.2 357.37 349.24"/></g><path class="cls-8" d="M376.67,279.56l-1.02-23.78s-35.48-8.37-49.28-10.1c-13.81-1.73-28.76-4.03-36.24-4.03s-8.42-4.37-8.42-4.37l6.33-11.51,19.92,2.07s10.93-23.59,6.9-29.91c-4.03-6.33-43.15-4.6-61.55-5.75-18.41-1.15-40.71-3.59-45.64-5.56-9.59-3.84-10.74-15.15,1.34-18.6s14.65-9.83,31.64-4.41c18.03,5.75,44.87,4.99,55.8,3.26,10.93-1.73,21.29-13.23,27.61-13.23s48.9,8.63,48.9,8.63l17.26,15.53,4.6,27.61-18.15,74.15Z"/><path class="cls-8" d="M76.7,264.1s34.52,1.15,50.62-2.3,25.89-32.22,37.97-52.35c12.08-20.13,21.29-28.19,9.78-32.22-11.51-4.03-32.85,1.09-32.85,1.09l-65.52,85.78Z"/><polyline class="cls-11" points="175.19 234.59 186 237.06 229.15 237.63 251.01 170.9 246.61 169.67 175.19 234.59"/></g><g id="Layer_31"><ellipse class="cls-10" cx="274.88" cy="120.63" rx="64.72" ry="21"/><ellipse class="cls-55" cx="274.88" cy="117.69" rx="64.72" ry="21"/><ellipse class="cls-53" cx="274.88" cy="118.67" rx="44.01" ry="14.28"/><ellipse class="cls-47" cx="274.88" cy="117.69" rx="44.01" ry="14.28"/></g><g id="Layer_2_copy"><g><polygon class="cls-37" points="301.89 472.73 306.62 473.37 264.69 522.58 139.66 521.43 186.71 475.41 301.89 472.73"/><g><path class="cls-56" d="M275.94,401.27l.09,.31,.33,1.15,4.98,17.5,16.08,56.46c1.79,.39,3.16,.28,4.19-.06,2.36-.77,2.97-2.75,2.97-2.75l-11.16-90.74-.13-1.08-.22-1.75-4.85,5.93-1.57,1.92-10.72,13.11Z"/><path class="cls-3" d="M276.03,401.58l21.39,75.11c1.79,.39,3.16,.28,4.19-.06l-13.38-90.39v-.05l-1.57,1.97-10.63,13.43Z"/><polygon class="cls-34" points="276.35 402.73 281.34 420.23 293.42 383.14 293.29 382.06 276.35 402.73"/></g><g><path class="cls-56" d="M165.68,401.27l.09,.31,.33,1.15,4.98,17.5,16.08,56.46c1.79,.39,3.16,.28,4.19-.06,2.36-.77,2.97-2.75,2.97-2.75l-11.16-90.74-.13-1.08-.22-1.75-4.85,5.93-1.57,1.92-10.72,13.11Z"/><path class="cls-3" d="M165.77,401.58l21.39,75.11c1.79,.39,3.16,.28,4.19-.06l-13.38-90.39v-.05l-1.57,1.97-10.63,13.43Z"/><polygon class="cls-34" points="157.47 402.73 162.45 420.23 174.53 383.14 174.4 382.06 157.47 402.73"/></g><g><path class="cls-16" d="M250.88,417.5l1.08,14.03,6.32,82.14,.08,1.04s.09,.07,.13,.11c2.6,2.14,5.49,1.95,7.78,1.19,2.43-.81,4.18-2.25,4.18-2.25l7.3-105.84,.23-3.24,.15-2.15-7.71,4.23-2.21,1.22h0l-17.3,9.51Z"/><path class="cls-35" d="M249.93,417.12s.38,5.71,.99,14.41c1.66,23.51,5.05,68.84,7.36,82.15,.07,.42,.14,.8,.21,1.15,2.6,2.14,5.49,1.95,7.78,1.19l3.52-93.02,.59-15.75,.02-.48,.04-1.17-7.27,4.08-13.25,7.43Z"/><path class="cls-2" d="M249.93,417.12s.38,5.71,.99,14.41h1.04l13.24,.17,4.59-8.69,7.95-15.07,.23-3.24-7.59,2.56-2.19,.74h0l-5.01,1.7-13.25,7.43Z"/></g><g><path class="cls-35" d="M151.17,417.5l1.08,14.03,6.32,82.14,.08,1.04s.09,.07,.13,.11c2.6,2.14,5.49,1.95,7.78,1.19,2.43-.81,4.18-2.25,4.18-2.25l7.3-105.84,.23-3.24,.15-2.15-7.71,4.23-2.21,1.22h0l-17.3,9.51Z"/><path class="cls-26" d="M150.21,417.12s.38,5.71,.99,14.41c1.66,23.51,5.05,68.84,7.36,82.15,.07,.42,.14,.8,.21,1.15,2.6,2.14,5.49,1.95,7.78,1.19l3.52-93.02,.59-15.75,.02-.48,.04-1.17-7.27,4.08-13.25,7.43Z"/><path class="cls-2" d="M150.21,417.12s.38,5.71,.99,14.41h1.04l13.24,.17,4.59-8.69,7.95-15.07,.23-3.24-7.59,2.56-2.19,.74h0l-5.01,1.7-13.25,7.43Z"/></g><g><polygon class="cls-50" points="258.17 419.04 155.39 419.42 151.55 409.83 263.92 410.21 258.17 419.04"/><polygon class="cls-21" points="294.6 362.28 294.6 380.3 267.37 419.8 263.92 410.21 294.6 362.28"/><polygon class="cls-62" points="294.6 362.28 149.25 362.66 151.55 409.83 263.92 410.21 294.6 362.28"/></g><g><polygon class="cls-28" points="281.56 257.32 286.42 326.86 280.29 336.84 274.15 265.5 281.56 257.32"/><polygon class="cls-21" points="274.15 265.5 111.28 262.18 117.42 252.21 281.56 257.32 274.15 265.5"/><polygon class="cls-62" points="111.28 262.18 126.63 336.96 141.04 336.95 235.48 336.87 248.68 336.86 280.28 336.83 274.15 265.5 111.28 262.18"/><polygon class="cls-50" points="131.13 336.96 141.04 336.95 138.39 293.63 131.13 336.96"/><polygon class="cls-50" points="235.4 336.87 235.48 336.87 248.68 336.86 242.19 293.63 235.4 336.87"/></g><g><polygon class="cls-16" points="259.06 293.11 270.83 415.33 267.5 421.46 254.21 298.74 259.06 293.11"/><polygon class="cls-35" points="254.21 298.74 237.59 299.51 252.99 421.34 267.5 421.46 254.21 298.74"/><polygon class="cls-26" points="259.06 293.11 242.19 293.63 237.59 299.51 254.21 298.74 259.06 293.11"/></g><g><polygon class="cls-16" points="155.26 293.11 167.02 415.33 163.7 421.46 150.4 298.74 155.26 293.11"/><polygon class="cls-35" points="150.4 298.74 133.78 299.51 149.19 421.34 163.7 421.46 150.4 298.74"/><polygon class="cls-26" points="155.26 293.11 138.39 293.63 133.78 299.51 150.4 298.74 155.26 293.11"/></g></g></g><g id="Layer_23"><path class="cls-24" d="M55.03,246.07s-2.68,27.61,15.72,35.28c18.41,7.67,29.91-9.97,29.91-9.97l-6.52-18.41-19.94-5.37-19.18-1.53Z"/><path class="cls-17" d="M149.38,173.97l-1.15,20.71s-29.15,63.28-55.61,67.11c-.9,.13-1.78,.24-2.65,.31-24.76,2.2-38-16.42-38-16.42,0,0-1.53-29.91,0-58.29,1.53-28.38,13.42-42.96,13.42-42.96l22.63,3.45,45.64,10.74,15.72,15.34Z"/><path class="cls-59" d="M149.38,173.97l-1.15,20.71s-29.15,63.28-55.61,67.11c-.9,.13-1.78,.24-2.65,.31-.96-6.89-2.91-18.94-6.17-30.99-4.99-18.41-20.71-51.39-20.71-51.39l24.93-31.83,45.64,10.74,15.72,15.34Z"/><path class="cls-31" d="M96.45,225.17s21.73-10.55,19.18-40.84l-19.94-1.41s-8.95,28.25,.77,42.25Z"/><path class="cls-1" d="M130.71,168.09s-2.56,8.95-13.55,6.65c-10.99-2.3-16.11-10.99-16.11-10.99l.77-5.62,28.89,9.97Z"/><path class="cls-43" d="M161.91,73.49s-29.92,53.69-30.68,54.46c-.37,.37-5.21,6.33-10.15,12.43-5.35,6.62-10.82,13.39-10.82,13.39l2.55,27.87c-4.6-1.79-19.43-14.32-19.43-14.32l-4.09-17.13-.25,12.79-25.06-17.64s-3.07-12.02,6.65-48.32c1.81-6.75,4.29-12.23,7.13-16.68,12.42-19.46,31.73-19.12,31.73-19.12,33.24-13.29,52.42,12.27,52.42,12.27Z"/><path class="cls-63" d="M110.26,153.77l2.55,27.87c-4.6-1.79-19.43-14.32-19.43-14.32l-4.09-17.13-.25,12.79-25.06-17.64s-3.07-12.02,6.65-48.32c1.81-6.75,4.29-12.23,7.13-16.68,.83,3.57,2.87,7.42,7.18,10.8,12.28,9.59,17.26,11.12,17.26,11.12,0,0,9.2,2.3,13.04,0l3.84-2.3,1.99,40.43c-5.35,6.62-10.82,13.39-10.82,13.39Z"/><path class="cls-61" d="M163.19,193.15s-6.14,.51-18.66-11.25c-12.53-11.76,8.44-15.85,8.44-15.85l15.6,6.65-5.37,20.45Z"/><path class="cls-65" d="M176.48,182.15c-1.23,7.17-5.42,10.73-9.93,11.2-1.12,.12-2.25,.04-3.37-.21-5.63-1.27-8.95-3.07-9.97-7.41-1.02-4.35,2.3-25.31,2.3-25.31l16.1-7.66h0s6.4,20.45,4.86,29.4Z"/><path class="cls-44" d="M164.98,171.16c0,8.84,1.11,18.48,1.58,22.19-1.12,.12-2.25,.04-3.37-.21-5.63-1.27-8.95-3.07-9.97-7.41-1.02-4.35,2.3-25.31,2.3-25.31l16.1-7.66c-.2,.22-6.64,7.33-6.64,18.41Z"/><path class="cls-65" d="M164.47,162.47s.04,2.87-1.19,4.61c-.78,1.11-2.09,1.76-4.25,.91-3.84-1.51-3.31-8.69-2.62-12.99l4.68-6.34,.69-1.91,4.24-4.48s2.59,.65,4.54,2.86c1.05,1.19,1.93,2.83,2.1,5.07,.51,6.4-8.18,12.28-8.18,12.28Z"/><path class="cls-61" d="M166.06,154.99c-5.3,6.75-4.68,10.73-2.79,12.08-.78,1.11-2.09,1.76-4.25,.91-3.84-1.51-3.31-8.69-2.62-12.99l4.68-6.34,.69-1.91,4.24-4.48s2.59,.65,4.54,2.86c-.15,1.97-1,5.43-4.48,9.86Z"/><path class="cls-65" d="M159.09,167.32c0,.23-.02,.44-.07,.66-.66,2.96-5.55,4.97-5.55,4.97,0,0-2.04,8.18-12.27,14.31,0,0,8.18,33.75,.77,42.7-.97,1.17-2.63,2.85-3.84,3.58-8.06,4.84-25.45-3.19-43.47-17.64,0,0-1.53-17.9,12.79-25.83l15.34,13.29s.51-24.03,1.53-27.35c1.02-3.32,8.18-11,8.18-11l23.01-5.88s3.58,4.86,3.58,8.18Z"/><path class="cls-61" d="M138.13,233.54c-8.06,4.84-25.45-3.19-43.47-17.64,0,0-1.53-17.9,12.79-25.83,0,0-5.88,13.29-4.86,17.39,.98,3.93,21.33,27.44,35.54,26.08Z"/><path class="cls-61" d="M159.09,167.32c0,.23-.02,.44-.07,.66-.71-.39-1.57-1.56-3.25-1.68-3.58-.25-5.17,7.68-13.55,12.02-7.41,3.84-9.96,.06-10.23,7.93-.26,7.41,.51,29.66,.51,29.66-1.02-3.32-9.72-12.53-9.72-12.53,0,0,.51-24.03,1.53-27.35,1.02-3.32,8.18-11,8.18-11l23.01-5.88s3.58,4.86,3.58,8.18Z"/><path class="cls-65" d="M168.55,112.1s.51,21.99-2.81,34.52c-3.01,11.35-11.49,20.19-22.19,22.51-1.1,.24-2.22,.41-3.37,.5-12.27,1.02-25.83-2.3-32.22-9.71,0,0-14.06-1.53-13.8-11.25,.25-9.71,12.53-12.78,19.18-4.6l.35-13.16,.16-5.76,54.72-13.04Z"/><path class="cls-23" d="M143.55,169.12c-1.1,.24-2.22,.41-3.37,.5-12.27,1.02-25.83-2.3-32.22-9.71,0,0-14.06-1.53-13.8-11.25,.25-9.71,12.53-12.78,19.18-4.6l.35-13.16,.67-.13,15.34,4.09s-2.56,19.18,6.39,28.63c2.47,2.61,5.04,4.41,7.46,5.64Z"/><path class="cls-48" d="M119.21,140.99s-1.28,25.82,.51,31.45c0,0-8.69-14.32-12.27-35.28-3.58-20.97,3.84-34.26,3.84-34.26l7.93,38.1Z"/><path class="cls-43" d="M180.57,105.7l-9.72,10.74-1.53-6.65c-.25,1.53-.77,9.2-.77,9.2-2.3,2.56-14.19,13.94-14.19,13.94l-2.43-10.87,.32,12.4c-.67,.67-8.24,9.68-13.41,15.85-2.74,3.27-4.81,5.75-4.81,5.75-2.05-1.02-7.41-22.75-7.41-22.75-1.79,4.35-.77,21.47-.77,21.47l-10.74-6.64s-9.2-25.57-4.86-46.28c4.35-20.71,24.8-30.68,24.8-30.68,0,0,1.22-.75,2.95-1.74h0c2.89-1.64,7.18-3.92,9.58-4.4,3.84-.76,14.06,5.12,19.69,9.97,16.37,16.11,13.3,30.68,13.3,30.68Z"/><path class="cls-60" d="M110.56,213.01c-3.13,4.17-7.65,8.34-14.1,12.16,0,0-15.92-10.93-25.5-27.81-9.59-16.87-18.21-25.95-5.69-40.27,0,0,.99-.92,2.7-1.87,2.96-1.64,8.08-3.36,13.92-.44,9.21,4.61,33.75,29.53,33.75,29.53,0,0,5.68,14.35-5.07,28.69Z"/><g><path class="cls-30" d="M144.27,158.73c-.29,0-.53-.06-.71-.13-.55-.21-1.46-.86-1.44-2.79l.11-10.83c.02-2.36,1.36-5.6,3.05-7.37l11.43-11.98c1.35-1.42,2.45-1.25,2.99-1.02,.55,.23,1.46,.93,1.39,3l-.38,10.46c-.08,2.18-1.3,5.17-2.77,6.82l-11.11,12.41c-1.02,1.14-1.91,1.44-2.55,1.44Zm14.36-31.56s-.1,.09-.15,.15l-11.43,11.98c-1.25,1.31-2.35,3.97-2.37,5.7l-.11,10.82c0,.09,0,.17,0,.23,.12-.1,.26-.23,.42-.41l11.11-12.41c1.11-1.23,2.09-3.65,2.15-5.27l.38-10.46c0-.14,0-.25,0-.35Z"/><path class="cls-30" d="M164.33,136.51c-.28,0-.52-.06-.69-.13-.53-.22-1.41-.88-1.33-2.88l.44-10.36c.1-2.26,1.31-5.22,2.76-6.74l9.76-10.23c1.18-1.24,2.18-1.06,2.67-.85,.65,.29,1.41,1.05,1.28,3.06l-.63,10c-.13,2.09-1.24,4.85-2.53,6.28l-9.53,10.65c-.86,.96-1.62,1.21-2.19,1.21Zm12.44-28.38l-9.49,9.96c-1.04,1.09-2.02,3.5-2.09,5.16l-.44,10.35,9.47-10.58c.94-1.05,1.81-3.24,1.91-4.8l.63-10s0-.05,0-.08Z"/><rect class="cls-30" x="158.86" y="129.14" width="5.19" height="2.45" transform="translate(-43.89 160.31) rotate(-47.22)"/></g><path class="cls-20" d="M110.56,213.01c-3.13,4.17-7.65,8.34-14.1,12.16,0,0-15.92-10.93-25.5-27.81-9.59-16.87-18.21-25.95-5.69-40.27,0,0,.99-.92,2.7-1.87-.19,2.31-.22,8.32,3.38,14.91,4.18,7.66,33.8,37.45,39.22,42.87Z"/><path class="cls-39" d="M138.85,150.32c-2.74,3.27-4.81,5.75-4.81,5.75-2.05-1.02-7.41-22.75-7.41-22.75-1.79,4.35-.77,21.47-.77,21.47l-10.74-6.64s-9.2-25.57-4.86-46.28c4.35-20.71,24.8-30.68,24.8-30.68,0,0,1.22-.75,2.95-1.74h0c.08,.06,.16,.13,.25,.2,0,0-8.44,9.21-7.29,29.54,.86,15.13,5.54,39.61,7.88,51.14Z"/></g><path class="cls-52" d="M45.57,316.45l32.21-54.94s10.2,1.97,19.1-.82,9.59,17.16,9.59,17.16l-60.9,38.6Z"/><g id="Layer_24"><g><path class="cls-38" d="M233.87,113.28s-4.72,3.33-5.83,4.72c-1.11,1.38-2.23,8.33-3.33,8.89-1.11,.55-6.95,2.78-6.95,2.78l4.72,14.72c-.83,2.5-4.72,1.94-4.72,1.94l-7.36-7.83s-.01-.01-.02-.02l-9.85-10.48s-3.06-.84-5-3.06c-1.94-2.22-1.94-10.56-1.11-16.11,.83-5.56,3.89-9.45,5.28-10.28,1.39-.83,15-6.11,15-6.11l11.39,2.22,7.52,17.99,.26,.62Z"/><path class="cls-11" d="M233.87,113.28s-4.72,3.33-5.83,4.72c-1.11,1.38-2.23,8.33-3.33,8.89-1.11,.55-6.95,2.78-6.95,2.78l4.72,14.72c-.83,2.5-4.72,1.94-4.72,1.94l-7.36-7.83s-.01-.01-.02-.02c-4.56-6.27-9.53-12.95-10.68-13.81-2.23-1.67-2.23-4.45-1.67-6.39,.55-1.94,10.84-6.95,15-10.84,4.06-3.79,2.84-7.32,2.78-7.5l17.79,12.71,.26,.62Z"/><path class="cls-16" d="M266.37,102.44l-36.26,13.75s-8.57-3.35-13.38-10.93c-2.38-3.75-3.84-8.55-2.87-14.49l33.34-24.59,10.62,20.08,8.55,16.18Z"/><path class="cls-9" d="M266.37,102.44l-36.26,13.75s-8.57-3.35-13.38-10.93l41.09-19,8.55,16.18Z"/><path class="cls-38" d="M343.05,231.41c-.24,.75-.57,1.44-.96,2.1-1.57,2.65-4.21,4.53-7.38,5.19-3.96,.84-22.5-1.87-28.33-2.92-5.84-1.04-7.29-1.46-9.38-1.25-2.09,.21-7.09,3.33-7.09,3.33l-5.83-3.55s3.96-7.7,3.96-8.54c0-.76,2.24-8.06,4.99-10.32,.28-.23,.56-.4,.84-.52,3.13-1.25,34.17,4.17,34.17,4.17l12.09,2.71s4.16,5.83,2.92,9.58Z"/><path class="cls-11" d="M343.05,231.41c-.24,.75-.57,1.44-.96,2.1-1.65,.59-3.71,.96-6.27,.88-9.17-.28-13.89-1.67-23.34-3.61-9.44-1.94-9.72-2.22-13.61-2.22s-7.78,1.11-7.78,1.11l1.94-14.21c.28-.23,.56-.4,.84-.52,3.13-1.25,34.17,4.17,34.17,4.17l12.09,2.71s4.16,5.83,2.92,9.58Z"/><path class="cls-16" d="M326.79,36.6l-11.67,52.92s-11.25,17.92-20,22.09c-8.75,4.16-47.09-1.25-64.18-41.26,0,0,0-.01,0-.02C213.88,30.34,246.37-3.82,282.63,.35c29.83,3.43,40.48,25.77,43.31,33.57,.61,1.68,.86,2.68,.86,2.68Z"/><g><path class="cls-36" d="M481.77,378.67s1.77-4.11,1.64-5.77-3.55-10.8-5.28-11.5c-1.73-.7-6.15,4.24-6.15,4.24l9.78,13.04Z"/><path class="cls-16" d="M481.77,378.67s-17.53,8.46-30.76,10.32c-.5,.07-1.02,.14-1.55,.2-13.7,1.59-37.23,.78-37.23,.78l-1.08-8.49,6.74-2.92,17.52-7.6,44.09-2.84,2.28,10.55Z"/><path class="cls-60" d="M479.49,368.12c-1.05,1.98-16.46,10.46-30.23,12.65-.42,.06-.86,.13-1.3,.19l-.13-.71-29.95-1.69-6.74,2.92s.51-2.02,.87-8.18c.36-6.16,3.96-7.92,7.29-9.58,2.74-1.36,25.71-5.47,25.71-5.47,1.19-.15,2.33-.28,3.44-.39,5.63-.59,10.23-.73,13.98-.61,12.96,.44,15.7,4.15,15.7,4.15,0,0,3.18,3.31,1.36,6.72Z"/><path class="cls-60" d="M447.96,380.96c-13.94,1.9-36.81,.52-36.81,.52l6.74-2.92,29.95,1.69,.13,.71Z"/><path class="cls-14" d="M475.01,365.53c-1.39,3.33-17.92,6.94-21.53,9.16-3.62,2.23-5.52,6.27-5.52,6.27l-36.81,.52s.51-2.02,.87-8.18c.36-6.16,3.96-7.92,7.29-9.58,2.74-1.36,25.71-5.47,25.71-5.47,1.19-.15,2.33-.28,3.44-.39l2.8-.1,17.23,2.22s7.92,2.22,6.53,5.56Z"/><path class="cls-9" d="M449.45,389.19c-13.7,1.59-37.23,.78-37.23,.78l-1.08-8.49s22.87,1.37,36.81-.52l1.5,8.23Z"/><path class="cls-16" d="M470.17,245.54c-.02,4.4-.02,6.98-.02,6.98,0,0-1.94,4.19-7.49,7.87-1.37,.91-2.96,1.79-4.79,2.57-2.57,1.09-5.62,1.99-9.22,2.48-.16,.02-.32,.04-.49,.06-13.64,1.72-21.76-2.1-24.43-3.68-.65-.38-.97-.63-.97-.63l-.65-2.26-.4-1.38-14.06-49.11-.45-1.58-10.2-35.62s6.64-5.95,12.72-8.5c2.48-1.04,12.56-7.56,23.61-14.9,8.62-5.72,17.84-11.95,24.5-16.48,2.19-1.49,4.12-2.79,5.64-3.83,3.15,5.73,5.67,11.94,6.7,16.77,.02,2.1,.04,4.62,.05,7.47,.12,24.95,0,75.34-.06,93.79Z"/><path class="cls-60" d="M470.17,245.54c-.01,4.4-.02,6.98-.02,6.98,0,0-5.02,10.83-21.99,12.98-16.97,2.14-25.41-4.31-25.41-4.31l-1.05-3.65,.03-1.29s16.14,3.35,26.07,1.96c7.39-1.03,17.62-8.78,22.36-12.67Z"/><polygon class="cls-19" points="409.91 216.34 422.41 218.8 434.55 261.69 436.08 261.25 423.68 217.42 409.41 214.61 409.91 216.34"/><path class="cls-19" d="M420.8,250.33s-3.09,6.93-.83,14.55c2.26,7.63,10.98,12.25,10.98,12.25l-10.15-26.8Z"/><path class="cls-16" d="M474.76,296.04c1.41,23.72-6.28,64.85-6.28,64.85,0,0-2.57,1.81-6.28,3.1-3.84,1.33-8.91,2.1-13.57-.31l-22.88-101.47s29.05,8.2,39.34-4.71c0,0,.19,.34,.52,1.01,1.84,3.71,7.95,17.43,9.15,37.53Z"/><path class="cls-5" d="M462.95,327.04c1.31,20.76,.13,31.95-.74,36.94-3.84,1.33-8.91,2.1-13.57-.31l-22.88-101.47s29.05,8.2,39.34-4.71c0,0,.19,.34,.52,1.01-2.21,3.61-6.34,10.19-8.28,12.13-2.72,2.71,3.68,26.04,5.61,56.41Z"/></g><path class="cls-9" d="M462.79,263.57l-13.34,3.33-.8-1.47-15.87-29.37-24.73-26.94-.4-.7-10.65-37.2s6.64-5.95,12.72-8.5c2.48-1.04,12.56-7.56,23.61-14.9,8.62-5.72,17.84-11.95,24.5-16.48,.24,.04,.41,.13,.51,.27,0,0,6.66,20.28,6.94,31.67,.28,11.39-3.61,83.9-3.06,90.84,.22,2.74,.36,4.78,.44,6.26,.12,2.27,.12,3.19,.12,3.19Z"/><path class="cls-16" d="M349.44,175.78c-.84,4.16-8.34,46.67-8.34,46.67-3.38,4.62-7.54,5.86-11.29,5.69-5.49-.23-14.06-3.4-14.06-3.4,0,0-7.98-43.69-7.98-47.3s1.52-7.5,1.52-7.5l15.14-3.89,23.61,4.3s1.18,.67,1.5,2.64c.12,.73,.12,1.65-.11,2.78Z"/><g><path class="cls-36" d="M455.35,414.56s2.08-3.96,2.08-5.63-2.71-11.04-4.38-11.88-6.46,3.75-6.46,3.75l8.75,13.75Z"/><path class="cls-16" d="M455.35,414.56s-18.13,7.09-31.46,7.92c-.5,.03-1.03,.06-1.57,.08-13.79,.53-38.99-2.3-38.99-2.3l1.39-8.33,6.94-2.39,18.06-6.22,44.17,.56,1.46,10.69Z"/><path class="cls-60" d="M453.89,403.86c-.27,.43-1.31,1.13-2.91,1.98-5.46,2.89-17.46,7.43-28.2,8.3-.43,.03-.87,.06-1.32,.09l-.07-.71-29.73-3.99-6.94,2.39s-.42,1.03,.42-5.07c.72-5.28,2.45-9.51,4.86-10.84,.38-.21,.78-.35,1.19-.41,4.37-.62,29.1-4.23,29.1-4.23,28.34-1.39,32.78,5.69,32.78,5.69,0,0,2.92,3.54,.84,6.81Z"/><path class="cls-60" d="M421.47,414.23c-14.05,.82-36.75-2.31-36.75-2.31l6.94-2.39,29.73,3.99,.07,.71Z"/><path class="cls-14" d="M453.89,403.86s-1,.81-2.91,1.98c-4.74,2.9-15.06,8.01-29.51,8.39l-.07-.71-29.73-3.99-6.94,2.39s-.42,1.03,.42-5.07c.72-5.28,2.45-9.51,4.86-10.84,1.08,.75,2.36,1.38,3.68,1.47,3.33,.21,33.13-6.04,33.13-6.04l16.04,3.33s5.21,3.54,6.46,5c1.25,1.46,4.58,4.1,4.58,4.1Z"/><path class="cls-16" d="M454.73,331.63c-.42,23.75-11.26,64.17-11.26,64.17,0,0-2.7,1.6-6.5,2.6-3.93,1.03-9.05,1.41-13.5-1.35l-15-102.93s28.33,10.42,39.58-1.67c0,0,.17,.36,.44,1.05,1.54,3.84,6.58,17.99,6.23,38.12Z"/><path class="cls-9" d="M422.32,422.55c-13.79,.53-38.99-2.3-38.99-2.3l1.39-8.33s22.7,3.13,36.75,2.31l.86,8.32Z"/><path class="cls-16" d="M462.23,173.28c0,4.94-6.26,83.57-8.19,107.64-.35,4.38-.56,6.95-.56,6.95,0,0-3.51,6.26-13.05,9.46-2.76,.93-6.04,1.6-9.88,1.79-13.73,.67-21.54-3.78-24.07-5.55-.62-.43-.93-.7-.93-.7l-.47-2.31-.29-1.41-17.99-87.96s7.08-5.42,13.33-7.5c2.56-.85,13.11-6.57,24.7-13.04,16.78-9.37,35.73-20.3,35.73-20.3,0,0,1.67,7.09,1.67,12.92Z"/><path class="cls-9" d="M440.56,361.63c-.29,20.8-2.33,31.86-3.58,36.77-3.93,1.03-9.05,1.41-13.5-1.35l-15-102.93s28.33,10.42,39.58-1.67c0,0,.17,.36,.44,1.05-2.48,3.43-7.11,9.67-9.19,11.45-2.92,2.5,1.67,26.25,1.25,56.67Z"/><path class="cls-60" d="M454.04,280.92c-.35,4.38-.56,6.95-.56,6.95,0,0-5.84,10.42-22.92,11.25-17.08,.83-25-6.25-25-6.25l-.76-3.72,.13-1.28s15.84,4.58,25.84,3.96c7.44-.46,18.24-7.4,23.27-10.91Z"/><polygon class="cls-60" points="396.21 247.18 408.48 250.59 417.28 294.28 418.84 293.97 409.85 249.32 395.84 245.41 396.21 247.18"/><path class="cls-9" d="M440.56,297.05c-.04,.1-.08,.2-.13,.29-2.76,.93-6.04,1.6-9.88,1.79-13.73,.67-21.54-3.78-24.07-5.55l-1.4-3.01-.29-1.41-17.99-87.96s7.08-5.42,13.33-7.5c2.56-.85,13.11-6.57,24.7-13.04,.61,7.11,31.59-11.15,32.81,3.04-42.92,35.42-23.59,104.28-23.33,107.51,.42,5.42,6.25,5.84,6.25,5.84Z"/><path class="cls-64" d="M404.44,281.9s-3.61,6.67-1.94,14.45c1.67,7.78,10,13.06,10,13.06l-8.06-27.5Z"/></g><path class="cls-16" d="M470.56,150.15c-.09,.44-.2,.97-.33,1.59-.71,3.27-2.06,8.79-4.16,14.82-3.06,8.81-7.71,18.7-14.26,24.22-1.52,1.28-3.28,2.5-5.21,3.65-11.6,6.94-29.41,11.46-39.41,12.41-1.32,.13-2.5,.19-3.51,.19-10.01,0-19.38-5.62-19.38-5.62,0,0-.34-4.34-.76-9.2-.35-3.93-.76-8.22-1.11-10.81-1.04-7.71,2.5-12.5,2.5-12.5l47.43-65.43,1.95-2.7s15.63,8.13,23.13,17.5c2.12,2.65,4.2,5.86,6.04,9.23,1.41,2.56,2.68,5.21,3.76,7.79,1.34,3.21,2.36,6.3,2.94,8.98,.52,2.37,.68,4.41,.38,5.88Z"/><path class="cls-60" d="M470.56,150.15c-.09,.44-.2,.97-.33,1.59-1.74,8.04-7.39,29.75-18.42,39.04-1.52,1.28-3.28,2.5-5.21,3.65-11.6,6.94-29.41,11.46-39.41,12.41-1.32,.13-2.5,.19-3.51,.19-10.01,0-19.38-5.62-19.38-5.62,0,0-.34-4.34-.76-9.2,5.56,2.56,14.8,6.35,20.35,6.07,8.33-.42,39.58-9.58,46.26-20.42,5.35-8.7,13.92-33.22,17.1-42.57,1.34,3.21,2.36,6.3,2.94,8.98,.52,2.37,.68,4.41,.38,5.88Z"/><path class="cls-32" d="M470.18,144.27c-.58-2.67-1.6-5.77-2.94-8.98-1.08-2.58-2.36-5.23-3.76-7.79-1.85-3.37-3.92-6.58-6.04-9.23-4.39-5.49-11.56-10.54-16.75-13.8,.51,5.71,.54,11.41,.37,17.13,5.34,6.46,11.7,15,16.18,23.75,4.1,8.01,6.95,15.44,8.84,21.2,2.1-6.03,3.45-11.55,4.16-14.82,.13-.61,.24-1.14,.33-1.59,.3-1.47,.14-3.51-.38-5.88Z"/><path class="cls-15" d="M446.6,194.43c-11.6,6.94-29.41,11.46-39.41,12.41-1.32,.13-2.5,.19-3.51,.19-10.01,0-19.38-5.62-19.38-5.62,0,0-1.09-14.22-1.87-20-1.04-7.71,2.5-12.5,2.5-12.5l49.38-68.13s-2.58,30.33-.98,47.04c1.27,13.27,9.81,37.28,13.27,46.61Z"/><path class="cls-16" d="M428.41,135.38c-.62,1.36-1.29,2.75-2.02,4.15-2.13,4.1-4.78,7.87-7.68,11.29-7.14,8.43-15.8,14.73-21.86,18.56-4.48,2.83-7.55,4.32-7.55,4.32,0,0-20.39-7.61-32.12-14.17-3.55-1.98-6.3-3.87-7.47-5.42l6.28-17.77,9.91-28.02,5.47-15.46,27.51-26.26s.71,.44,1.96,1.27c1.67,1.11,4.31,2.91,7.5,5.28,7.94,5.91,19.29,15.35,27.62,26.37,0,0,1.46,16.04-7.57,35.86Z"/><path class="cls-32" d="M428.41,135.38l-.91,1.79s3.62-26.95,1.39-30.28c-2.22-3.33-18.96-17.99-18.96-17.99l-1.58-15.75c7.94,5.91,19.29,15.35,27.62,26.37,0,0,1.46,16.04-7.57,35.86Z"/><path class="cls-60" d="M396.86,169.38c-4.48,2.83-7.55,4.32-7.55,4.32,0,0-34.59-12.92-39.59-19.58l6.28-17.77c3.02,4.45,9.43,12.42,20.38,19.44,12.7,8.14,18.53,12.21,20.47,13.6Z"/><path class="cls-9" d="M420.56,147.65c-.58,1.06-1.2,2.11-1.84,3.16-7.14,8.43-15.8,14.73-21.86,18.56-4.48,2.83-7.55,4.32-7.55,4.32,0,0-20.39-7.61-32.12-14.17l-7.88-.83-7.39-16.13,1.76-11.17,22.24-23.08,27.14-28.17c.48,1.94-.54,15.57,3.66,25.07,1.21,2.74,2.85,5.13,5.09,6.8,10.01,7.5,24.38,13.13,24.38,13.13,0,0,1.25,10-5.63,22.5Z"/><path class="cls-16" d="M400.85,67.87c-.12,3.82-.36,8.75-.83,14.2-.62,7.28-1.63,15.48-3.31,23.16-.66,3.03-1.42,5.98-2.29,8.76-.67,2.1-1.4,4.1-2.2,5.96-9.16,21.25-35,39.59-35,39.59h-.03l-7.88-.84-7.39-16.13-21.84-47.67-2.04-4.47-7.48-16.33s2.55-18.9,8.65-31.58c.43-.9,.88-1.77,1.35-2.59,7.08-12.5,14.58-12.92,19.17-12.5,.7,.06,2.54,.79,5.18,1.98,11.37,5.14,37.45,19.03,49.67,26.28,3.5,2.08,5.86,3.62,6.41,4.24,0,0,.03,3.06-.12,7.93Z"/><path class="cls-60" d="M400.85,67.87c-.29,8.92-1.21,23.93-4.13,37.35-.66,3.03-1.42,5.98-2.29,8.76-.67,2.1-1.4,4.1-2.2,5.96-9.16,21.25-35,39.59-35,39.59h-.03l-7.88-.84s5-3.75,9.58-7.92c4.58-4.17,26.67-33.34,28.75-39.59,1.86-5.59,6.06-46.86,6.92-55.5,3.5,2.08,5.86,3.62,6.41,4.24,0,0,.03,3.06-.12,7.93Z"/><path class="cls-60" d="M344.89,29.41c-3.5,5.75-12.25,21-16.85,36.77-3.79,13-6.52,23.18-7.98,28.72l-9.53-20.8s2.92-21.67,10.01-34.17c7.08-12.5,14.58-12.92,19.17-12.5,.7,.06,2.54,.79,5.18,1.98Z"/><path class="cls-33" d="M400.85,67.87c-.12,3.82-.36,8.75-.83,14.2-5.5-3.84-51.86-36.1-63.23-39.63-6.5-2.01-12.99-1.14-17.6,.1,.43-.9,.88-1.77,1.35-2.59,7.08-12.5,14.58-12.92,19.17-12.5,.7,.06,2.54,.79,5.18,1.98,11.37,5.14,37.45,19.03,49.67,26.28,3.5,2.08,5.86,3.62,6.41,4.24,0,0,.03,3.06-.12,7.93Z"/><path class="cls-9" d="M394.42,113.98c-.67,2.1-1.4,4.1-2.2,5.96-9.16,21.25-35,39.59-35,39.59h-.03l-7.88-.84-7.39-16.13-21.84-47.67-2.04-4.47,4.61-11.33,12.08-11.67s20.84,16.67,35.84,27.92c10.35,7.76,19.31,14.93,23.87,18.63Z"/><path class="cls-6" d="M340.13,178.7c-7.29,3.54-13.13,3.96-13.13,3.96l2.81,45.49c-5.49-.23-14.06-3.4-14.06-3.4,0,0-7.98-43.69-7.98-47.3s1.52-7.5,1.52-7.5l15.14-3.89,23.61,4.3s1.18,.67,1.5,2.64c-1.66,1.28-4.78,3.45-9.41,5.7Z"/><path class="cls-16" d="M351.38,117.86l-.69,10.79-.22,3.48-2.43,38.24c-2.86,2.86-6.08,4.58-9.42,5.5-4.47,1.24-9.15,1.04-13.42,.2-1.49-.29-2.92-.65-4.28-1.06-6.73-2.01-11.63-5.05-11.63-5.05l-.42-41.26,13.52-3.45,28.99-7.39Z"/><path class="cls-9" d="M350.7,128.65l-.22,3.48c-1.37,2.27-3.57,5.28-6.6,7.54-5.55,4.17-13.61,2.5-15.56,13.89-1.94,11.39-1.39,22.71-1.39,22.71l-1.73-.21c-1.49-.29-2.92-.65-4.28-1.06-6.73-2.01-11.63-5.05-11.63-5.05l-.42-41.26,13.52-3.45,28.3,3.4Z"/><path class="cls-60" d="M354.8,113.86c-.01,.69-.04,1.33-.09,1.92-.84,10.42-7.92,17.92-7.92,17.92-6.67,7.5-34.17,.84-34.17,.84,0,0-7.32-7.35-9.08-18.18-.03-.19-.06-.38-.09-.57-.97-6.78-.22-15.81,.85-23.53,1.23-8.9,2.9-16.06,2.9-16.06,4.1-5.32,8.74-8.23,13.33-9.62,5.23-1.59,10.4-1.22,14.68-.24,6.08,1.4,10.33,4.03,10.33,4.03,2.09,2.73,4.06,8.56,5.63,15.28,2.28,9.74,3.75,21.38,3.62,28.22Z"/><path class="cls-12" d="M354.8,113.86c-.01,.69-.04,1.33-.09,1.92-.84,10.42-7.92,17.92-7.92,17.92-6.67,7.5-34.17,.84-34.17,.84,0,0-7.32-7.35-9.08-18.18,1.69-4.2,4.95-9.52,11.16-13.07,10.55-6.03,34.4-5.58,40.09,10.59Z"/><path class="cls-45" d="M336.66,91.33c-9.72-2.5-16.39-.28-16.39-.28l.27-24.48c5.23-1.59,10.4-1.22,14.68-.24l1.44,25Z"/><path class="cls-32" d="M345.55,70.35c2.09,2.73,4.06,8.56,5.63,15.28-8.95-6.79-24.1-7.29-34.53-3.75-6.35,2.16-10.12,6.28-12.35,10.36,1.23-8.9,2.9-16.06,2.9-16.06,4.1-5.32,8.74-8.23,13.33-9.62,5.23-1.59,10.4-1.22,14.68-.24,6.08,1.4,10.33,4.03,10.33,4.03Z"/><path class="cls-57" d="M339.99,176.34c0,2.98-1.2,5.67-3.14,7.62-1.96,1.98-4.69,3.21-7.69,3.21-5.98,0-10.84-4.85-10.84-10.84s4.85-10.84,10.84-10.84c.78,0,1.53,.08,2.26,.23,4.9,1.04,8.57,5.39,8.57,10.6Z"/><path class="cls-9" d="M326.79,36.6l-11.67,52.92s-11.25,17.92-20,22.09c-4.31,2.05-15.78,1.78-28.35-3.79-5.91-2.61-12.06-6.4-17.83-11.67-6.91-6.3-13.27-14.72-18-25.8,0,0,0-.01,0-.02,.45-5.72,.54-11.7-.13-17.07-2.22-17.78,22.5-41.39,44.45-38.34,21.95,3.06,35.28,25.56,41.39,26.11,5.32,.48,8.54-5.55,9.28-7.12,.61,1.68,.86,2.68,.86,2.68Z"/><path class="cls-4" d="M336.85,183.96c-1.96,1.98-4.69,3.21-7.69,3.21-5.98,0-10.84-4.85-10.84-10.84s4.85-10.84,10.84-10.84c.78,0,1.53,.08,2.26,.23-1.73,1.77-7.07,7.66-4.48,10.53,2.54,2.83,8.37,3.89,9.91,7.69Z"/><path class="cls-9" d="M292.62,74.1s-4.58,11.25-16.67,24.17c-4.12,4.4-7.07,7.44-9.18,9.55-5.91-2.61-12.06-6.4-17.83-11.67l43.68-22.05Z"/><path class="cls-64" d="M233.14,74.83s-8.16-6.23-8.16-16.29c0-.56,1.53-5.7,1.53-5.7,0,0,3.3,16.15,6.63,21.98Z"/><path class="cls-38" d="M295.82,70.22c-.57,.93-1.18,1.84-1.83,2.73-8.95,12.44-24.53,21.29-34.32,25.96-5.26,2.51-8.85,3.81-8.85,3.81-18.62-8.61-20-28.89-20-28.89,2.29-.95,4.62-1.95,6.94-3,13.19-5.94,26.37-13.16,34.6-17.87,5.22-2.99,8.46-4.96,8.46-4.96l9.75,14.45,.77,1.14,4.48,6.63Z"/><path class="cls-45" d="M272.83,53.68l-5-2.92,10.21-27.09s10.63-.21,21.25,10.21l-22.7,20.68-3.76-.88Z"/><path class="cls-11" d="M293.99,72.95c-8.95,12.44-24.53,21.29-34.32,25.96-1.63-.91-3.73-2.25-6.36-4.24-7.18-5.45-14.14-20.6-15.56-23.83,13.19-5.94,26.37-13.16,34.6-17.87l18.21,9.49,.53,.27,.24,.87,2.65,9.37Z"/><g><ellipse class="cls-49" cx="289.87" cy="56.43" rx="13.36" ry="16.73" transform="translate(62 244.27) rotate(-50.52)"/><ellipse class="cls-60" cx="286.5" cy="60.52" rx="13.36" ry="16.73" transform="translate(57.62 243.16) rotate(-50.52)"/><ellipse class="cls-13" cx="285.42" cy="61.84" rx="9.13" ry="11.43" transform="translate(56.2 242.8) rotate(-50.52)"/><ellipse class="cls-51" cx="286.14" cy="60.96" rx="9.13" ry="11.43" transform="translate(57.15 243.04) rotate(-50.52)"/></g></g><polyline class="cls-40" points="254.81 81.75 244.96 79.23 243.28 87.89"/></g><g id="Layer_25"><g><polygon class="cls-16" points="223.44 234.99 246.61 169.67 246.34 166.01 234.41 179.29 221.67 229.71 223.44 234.99"/><polygon class="cls-36" points="173.16 231.06 175.19 234.59 223.44 234.99 222.76 232.28 222.22 230.93 173.16 231.06"/><polygon class="cls-16" points="173.16 231.06 204.46 165.94 236.16 165.94 219.1 231.88 173.16 231.06"/><polygon class="cls-42" points="218.96 227.95 195.92 227.68 220.32 171.3 234.41 170.76 218.96 227.95"/><polygon class="cls-16" points="222.76 232.28 246.34 166.01 247.56 124.14 219.1 185.93 222.76 232.28"/><polygon class="cls-36" points="219.1 185.93 214.22 185.12 242.27 123.73 247.56 124.14 219.1 185.93"/><polygon class="cls-25" points="214.22 185.12 219.1 231.88 222.76 232.28 219.1 185.93 214.22 185.12"/><polygon class="cls-42" points="198.16 185.73 189.42 203.62 203.24 203.21 211.17 186.14 198.16 185.73"/><ellipse class="cls-42" cx="235.36" cy="175.36" rx="4.47" ry="10.77"/></g></g><g id="Layer_28"><g><ellipse class="cls-11" cx="265.33" cy="242.39" rx="9.35" ry="10.86" transform="translate(-40.17 431.66) rotate(-74.19)"/><path class="cls-55" d="M276.17,215.25c-.07,.06-.14,.12-.21,.19-.1,.09-.2,.17-.3,.25-.1,.09-.21,.17-.31,.25-.11,.08-.21,.16-.32,.24-.12,.08-.23,.16-.34,.23-.3,.2-.62,.39-.96,.58-.11,.06-.22,.12-.33,.17-.06,.03-.12,.06-.19,.1-.26,.13-.52,.25-.8,.37-.41,.18-.84,.34-1.28,.49-.15,.05-.3,.1-.45,.14-.13,.04-.27,.08-.4,.12-.03,0-.06,.01-.09,.02-.12,.03-.25,.06-.37,.1-.26,.07-.53,.13-.8,.18-.12,.02-.24,.05-.36,.07-.16,.03-.33,.06-.5,.09-.15,.03-.31,.05-.47,.07-.46,.07-.93,.12-1.4,.15-.15,.01-.31,.02-.47,.03-.22,0-.44,.02-.66,.02v-.8l10.49-6.44,2.76-1.69h-27.59l.15,1.34,.39,3.39,.72,6.21,2.17,18.63h20.93l.51-4.4h0l2.47-22.92c-.19,.47-.43,.92-.73,1.36-.36,.52-.78,1.01-1.28,1.47Z"/><path class="cls-53" d="M278.62,210.05l-.2,.12-2.76,1.69-10.49,6.44v.8c-.15,0-.3,0-.45,0-5.67,0-10.56-2.19-12.71-5.33-.49-.71-.85-1.47-1.03-2.27-.1-.44-.15-.88-.15-1.34,0-4.93,6.23-8.93,13.89-8.93s13.8,3.93,13.9,8.81Z"/><path class="cls-54" d="M275.66,211.86l-10.49,6.44v.8c-.15,0-.3,0-.45,0-5.67,0-10.56-2.19-12.71-5.33,.98-1.45,2.55-2.69,4.5-3.61,2.3-1.09,5.14-1.72,8.21-1.72s5.91,.63,8.22,1.72c1.02,.48,1.94,1.05,2.72,1.69Z"/><path class="cls-55" d="M275.19,239.73c0,.63-.13,1.24-.39,1.83-1.2,2.74-5.03,4.77-9.62,4.89-.15,0-.3,0-.45,0-5.78,0-10.46-3.01-10.46-6.73s4.68-6.73,10.46-6.73c.15,0,.3,0,.45,0,5.26,.14,9.52,2.78,9.97,6.13,.03,.2,.04,.39,.04,.6Z"/><line class="cls-41" x1="263.62" y1="213.37" x2="267.59" y2="191.53"/><path class="cls-54" d="M277.45,213.78c-.36,.52-.78,1.01-1.28,1.47-.07,.06-.14,.12-.21,.19-.1,.09-.2,.17-.3,.25-.1,.09-.21,.17-.31,.25-.11,.08-.21,.16-.32,.24-.12,.08-.23,.16-.34,.23-.3,.2-.62,.39-.96,.58-.11,.06-.22,.12-.33,.17-.06,.03-.12,.06-.19,.1-.26,.13-.52,.25-.8,.37-.41,.18-.84,.34-1.28,.49-.15,.05-.3,.1-.45,.14-.13,.04-.27,.08-.4,.12-.03,0-.06,.01-.09,.02-.12,.03-.25,.06-.37,.1-.26,.07-.53,.13-.8,.18-.12,.02-.24,.05-.36,.07-.16,.03-.33,.06-.5,.09-.15,.03-.31,.05-.47,.07-.46,.07-.93,.12-1.4,.15-.15,.01-.31,.02-.47,.03-.22,0-.44,.02-.66,.02v-.8l10.49-6.44c.71,.58,1.31,1.22,1.79,1.91Z"/><path class="cls-53" d="M278.42,210.17l-.24,2.24c-.19,.47-.43,.92-.73,1.36-.48-.69-1.08-1.33-1.79-1.91l2.76-1.69Z"/><path class="cls-7" d="M277.45,213.78c.3-.44,.54-.89,.73-1.36l-2.47,22.9h0l-.56,3.82-.09,.6-.26,1.83c-1.2,2.74-5.03,4.77-9.62,4.89v-27.35c.22,0,.44-.01,.66-.02,.15,0,.31-.01,.47-.03,.48-.03,.95-.08,1.4-.15,.15-.02,.31-.04,.47-.07,.17-.02,.34-.05,.5-.09,.12-.02,.24-.05,.36-.07,.27-.05,.54-.12,.8-.18,.12-.03,.25-.06,.37-.1,.03,0,.06-.01,.09-.02,.13-.04,.27-.08,.4-.12,.15-.04,.3-.09,.45-.14,.44-.14,.87-.31,1.28-.49,.28-.12,.54-.24,.8-.37,.07-.03,.13-.06,.19-.1,.11-.05,.22-.11,.33-.17,.33-.18,.65-.37,.96-.58,.12-.07,.23-.15,.34-.23,.11-.08,.22-.16,.32-.24,.11-.08,.21-.16,.31-.25,.1-.08,.2-.17,.3-.25,.07-.06,.14-.12,.21-.19,.49-.46,.92-.95,1.28-1.47Z"/><path class="cls-53" d="M278.62,210.17c0,.77-.15,1.53-.45,2.24l.24-2.24,.2-.12s0,.08,0,.12Z"/></g></g></g></g></g></svg>