<svg xmlns="http://www.w3.org/2000/svg" viewBox="0 0 514.67 87.73"><defs><style>.cls-1,.cls-2{fill:#4630a0;}.cls-2{fill-rule:evenodd;}</style></defs><g id="Layer_2" data-name="Layer 2"><g id="Layer_1-2" data-name="Layer 1"><rect class="cls-1" x="423.15" y="0.97" width="22.97" height="16.24"/><path class="cls-2" d="M32.83,87c13.81,0,22.17-5.8,28-14.39l-15-10.79C42.35,65.9,39.22,68.45,34,68.45c-7.43,0-12.54-6.14-12.54-14.27C21.46,46.29,26.34,40,34.34,40c4.76,0,8.36,2,11.37,6.15L60.45,35.5c-5.34-8.47-13.92-14-26.8-14C13.81,21.46,0,36.43,0,54.18A32.44,32.44,0,0,0,32.83,87Z"/><path class="cls-2" d="M85.11,87.3c8.24.3,14.27-2.6,18.74-7.18l-.24,6.48,21.78.85,1.38-36.06c.34-8.82-1.39-15.38-6-20.2C116,26,108.46,23.06,97.2,22.62a63.26,63.26,0,0,0-25.55,3.9l3.92,15.71A44.05,44.05,0,0,1,93,39.42c8.45.32,12.38,4.18,12.12,10.68l0,1a48.24,48.24,0,0,0-15-3c-14.72-.55-24.83,5.79-25.31,18.79-.49,12.75,8.4,19.93,20.34,20.39Zm8.41-13.5C89,73.64,85.86,71,86,66.66c.18-4.86,4-7.84,10.39-7.6A22.86,22.86,0,0,1,104.93,61l-.11,2.88C104.57,70.16,99.9,74,93.52,73.8Z"/><path class="cls-2" d="M142,85.51H164V40.38h14V23.44H163.6V21.93c0-4.06,2.2-5.92,6.26-5.92a26.14,26.14,0,0,1,8.24,1.28V1.74A48.24,48.24,0,0,0,163.71,0c-7.42,0-12.53,1.62-16.36,5.45S142,14.5,142,21.7v1.39h-7.31V40.38H142Z"/><path class="cls-2" d="M210.52,87.31c12.4,1.75,21.73-2.09,28.77-8.84l-10.67-11.7c-5.08,3.75-9.5,5.12-14.66,4.38-6.78-.94-11.25-5.08-12-12.09l41.59,5.83c.32-1.49.55-3.09.75-4.46C246.84,42.16,239.17,25,217.69,22c-18.39-2.6-33.36,9.94-35.92,28.1C179,69.66,191,84.57,210.52,87.31Zm-7.34-39.45c2.09-6.62,6.63-10.54,12.36-9.74,6,.84,9.39,5.76,9.23,12.78Z"/><path class="cls-2" d="M278.93,86.79a31.45,31.45,0,0,0,15.31-3.6V65.9A19.28,19.28,0,0,1,285.89,68c-4.06,0-6-1.86-6-6.26V40.49h14.61V22.74H279.86V6.85H257.81V22.74h-7.42V40.49h7.42V66C257.81,81,265.7,86.79,278.93,86.79Z"/><path class="cls-2" d="M373.49,85.51h22V66c0-14.51,6.5-21.12,18-21.12h1.85V21.7c-10.44-.47-16.24,5.1-19.84,13.69V22.74h-22Z"/><rect class="cls-1" x="423.61" y="22.74" width="22.04" height="62.77"/><path class="cls-2" d="M471.67,82.79c8.2.59,14.33-2.11,19-6.53l-.48,6.48,21.75,1.57,2.62-36c.65-8.8-.85-15.43-5.26-20.4-4.61-5.34-12.06-8.55-23.28-9.35a63.15,63.15,0,0,0-25.7,3l3.4,15.83a44.24,44.24,0,0,1,17.48-2.2c8.45.61,12.24,4.6,11.77,11.08l-.07,1.05A48.23,48.23,0,0,0,478,43.81c-14.69-1.06-25,4.93-26,17.9-.93,12.73,7.72,20.2,19.64,21.08Zm8.87-13.2c-4.51-.33-7.57-3.11-7.25-7.39.34-4.86,4.27-7.71,10.63-7.26a23.36,23.36,0,0,1,8.45,2.26l-.21,2.88C491.71,66.33,486.9,70.06,480.54,69.59Z"/><path class="cls-2" d="M342.51,85.89c12.22-2.73,19.59-9.62,23.81-18.42l-14.09-7.18c-3.46,5.29-7.1,8.12-12.19,9.27-6.68,1.51-12.32-.81-15.51-7.1l41-9.19c-.22-1.49-.57-3.07-.87-4.43-4.05-18-17.26-31.32-38.41-26.58-18.11,4.06-27.73,21.07-23.72,39,4.31,19.26,20.76,29,40,24.68ZM321.74,51.56c-.37-6.94,2.49-12.21,8.14-13.47,5.9-1.32,10.82,2.08,13.14,8.7Z"/></g></g></svg>