<?xml version="1.0" encoding="utf-8"?>
<!-- Generator: Adobe Illustrator 24.1.2, SVG Export Plug-In . SVG Version: 6.00 Build 0)  -->
<svg version="1.1" id="Layer_1" xmlns="http://www.w3.org/2000/svg" xmlns:xlink="http://www.w3.org/1999/xlink" x="0px" y="0px"
	 viewBox="0 0 500 500" style="enable-background:new 0 0 500 500;" xml:space="preserve">
<style type="text/css">
	.st0{fill:#FFFFFF;}
</style>
<g>
	<path class="st0" d="M109,128.8c0,89.4,0,177.9,0,267c88.9,0,177.7,0,267.2,0c0-2,0-3.9,0-5.9c0-60.4,0-120.7,0-181.1
		c0-12.4,11-20.4,21.9-16c6.3,2.5,10,8.2,10,15.8c0,22.5,0,44.9,0,67.4c0,39.2,0,78.5,0,117.7c0,20.4-14,34.4-34.5,34.4
		c-87.5,0-174.9,0-262.4,0c-20.4,0-34.5-14-34.5-34.5c0-87.5,0-174.9,0-262.4c0-20.4,14-34.5,34.5-34.5c64,0,128,0,192.1,0
		c8.3,0,14.1,4.1,16.4,11.2c2.1,6.7-0.2,14.4-6.4,17.8c-3.3,1.8-7.5,2.8-11.3,2.8L109,128.8z"/>
	<path class="st0" d="M378.7,71.8c15,16.7,29.6,32.9,44.5,49.5c-63.4,73-126.6,145.9-190.2,219.1c-33.3-31.6-66.4-63.1-99.9-94.9
		c14.1-13.3,27.9-26.2,42-39.5c19.3,32.1,38.4,63.9,57.9,96.3C281.7,225.3,330,148.8,378.7,71.8z"/>
</g>
</svg>
