<?xml version="1.0" ?><svg data-name="Layer 1" id="Layer_1" viewBox="0 0 32 32" xmlns="http://www.w3.org/2000/svg"><path d="M25.5,5H23V4.5A2.5,2.5,0,0,0,20.5,2H6.5A2.5,2.5,0,0,0,4,4.5v20A2.5,2.5,0,0,0,6.5,27H9v.5A2.5,2.5,0,0,0,11.5,30h14A2.5,2.5,0,0,0,28,27.5V7.5A2.5,2.5,0,0,0,25.5,5ZM6.5,26A1.5,1.5,0,0,1,5,24.5V4.5A1.5,1.5,0,0,1,6.5,3h14A1.5,1.5,0,0,1,22,4.5V5H11.5A2.5,2.5,0,0,0,9,7.5V26ZM27,27.5A1.5,1.5,0,0,1,25.5,29h-14A1.5,1.5,0,0,1,10,27.5V7.5A1.5,1.5,0,0,1,11.5,6h14A1.5,1.5,0,0,1,27,7.5Z"/><path d="M23.5,10.6a2.54,2.54,0,0,0-1.52.48,1.66,1.66,0,0,1-2,0,2.57,2.57,0,0,0-1.52-.48,2.51,2.51,0,0,0-1.52.48,1.66,1.66,0,0,1-2,0,2.54,2.54,0,0,0-1.52-.48.5.5,0,0,0,0,1,1.51,1.51,0,0,1,1,.32A2.54,2.54,0,0,0,16,12.4a2.57,2.57,0,0,0,1.52-.48,1.66,1.66,0,0,1,2,0A2.54,2.54,0,0,0,21,12.4a2.57,2.57,0,0,0,1.52-.48,1.51,1.51,0,0,1,1-.32.5.5,0,0,0,0-1Z"/><path d="M23.5,16.6a2.54,2.54,0,0,0-1.52.48,1.66,1.66,0,0,1-2,0,2.57,2.57,0,0,0-1.52-.48,2.51,2.51,0,0,0-1.52.48,1.66,1.66,0,0,1-2,0,2.54,2.54,0,0,0-1.52-.48.5.5,0,0,0,0,1,1.51,1.51,0,0,1,1,.32A2.54,2.54,0,0,0,16,18.4a2.57,2.57,0,0,0,1.52-.48,1.66,1.66,0,0,1,2,0A2.54,2.54,0,0,0,21,18.4a2.57,2.57,0,0,0,1.52-.48,1.51,1.51,0,0,1,1-.32.5.5,0,0,0,0-1Z"/><path d="M23.5,22.6a2.54,2.54,0,0,0-1.52.48,1.66,1.66,0,0,1-2,0,2.57,2.57,0,0,0-1.52-.48,2.51,2.51,0,0,0-1.52.48,1.66,1.66,0,0,1-2,0,2.54,2.54,0,0,0-1.52-.48.5.5,0,0,0,0,1,1.51,1.51,0,0,1,1,.32A2.54,2.54,0,0,0,16,24.4a2.57,2.57,0,0,0,1.52-.48,1.66,1.66,0,0,1,2,0A2.54,2.54,0,0,0,21,24.4a2.57,2.57,0,0,0,1.52-.48,1.51,1.51,0,0,1,1-.32.5.5,0,0,0,0-1Z"/></svg>