<?xml version="1.0" encoding="UTF-8"?>
<svg id="Layer_2" data-name="Layer 2" xmlns="http://www.w3.org/2000/svg" viewBox="0 0 445.33 33.04">
  <defs>
    <style>
      .cls-1 {
        fill: #4630a0;
      }
    </style>
  </defs>
  <g id="Layer_1-2" data-name="Layer 1">
    <g>
      <polygon class="cls-1" points="0 27.09 7.13 27.09 7.13 17.9 19.29 17.9 19.29 11.98 7.13 11.98 7.13 7.61 20.58 7.61 20.58 1.36 0 1.36 0 27.09"/>
      <rect class="cls-1" x="23.49" y=".26" width="7.24" height="5.15"/>
      <rect class="cls-1" x="23.63" y="7.2" width="6.95" height="19.88"/>
      <path class="cls-1" d="M54.08,13.65c-.2-4.55-2.82-7.2-7.08-7.01-2.83,.12-4.59,1.78-5.81,3.49l-.12-2.79-6.98,.31,.87,19.86,6.98-.31-.47-10.76c-.1-2.2,1.06-3.43,2.79-3.51,1.73-.08,2.88,1.05,2.98,3.25l.47,10.76,6.94-.31-.57-13Z"/>
      <path class="cls-1" d="M71.93,24.44v2.65h6.98V.26h-6.98V9.63c-1.29-1.51-3.09-2.87-6.06-2.87-4.7,0-8.78,3.93-8.78,10.4v.07c0,6.36,4.12,10.29,8.82,10.29,2.98,0,4.67-1.43,6.03-3.09Zm-8.01-7.28v-.07c0-2.65,1.87-4.52,4.08-4.52s4.08,1.87,4.08,4.52v.07c0,2.65-1.8,4.52-4.08,4.52s-4.08-1.87-4.08-4.52Z"/>
      <path class="cls-1" d="M115.18,7.9l-7.15-.44-4.47,11.73-3.23-12.2-7.26-.44,6.59,19.95c-.51,.59-1,.75-1.7,.71-.77-.05-1.89-.48-2.98-1.25l-2.43,4.75c1.81,1.18,3.75,1.96,6.24,2.11,4,.24,5.9-1.41,7.95-6l8.44-18.93Z"/>
      <path class="cls-1" d="M136.76,17.09c0-5.66-4.59-10.33-10.95-10.33s-10.99,4.7-10.99,10.4v.07c0,5.7,4.59,10.33,10.92,10.33s11.03-4.7,11.03-10.4v-.07Zm-6.76,.15c0,2.39-1.65,4.41-4.19,4.41s-4.23-2.06-4.23-4.48v-.07c0-2.46,1.62-4.45,4.15-4.45s4.26,2.06,4.26,4.52v.07Z"/>
      <path class="cls-1" d="M152.73,24.14l.17,2.75,6.93-.42-1.2-19.85-6.93,.42,.65,10.75c.13,2.2-1.01,3.41-2.73,3.52s-2.89-.97-3.03-3.17l-.65-10.75-6.97,.42,.78,12.95c.27,4.55,2.97,7.18,7.23,6.93,2.82-.17,4.6-1.82,5.75-3.55Z"/>
      <path class="cls-1" d="M175.69,14.22h.59V6.87c-3.35-.15-5.15,1.65-6.28,4.34V7.2h-6.98V27.09h6.98v-6.21c0-4.59,2.02-6.65,5.7-6.65Z"/>
      <path class="cls-1" d="M191.02,27.09h6.98V12.79h4.45V7.42h-4.59v-.48c0-1.25,.66-1.87,1.99-1.87,1.03,0,1.76,.15,2.61,.4V.55c-1.07-.33-2.43-.55-4.52-.55-2.39,0-4.01,.51-5.22,1.73-1.14,1.14-1.69,2.83-1.69,5.15v.4h-2.31v5.51h2.31v14.3Z"/>
      <path class="cls-1" d="M214.39,27.56c6.36,0,11.03-4.7,11.03-10.4v-.07c0-5.66-4.59-10.33-10.95-10.33s-10.99,4.7-10.99,10.4v.07c0,5.7,4.59,10.33,10.92,10.33Zm-4.15-10.47c0-2.46,1.62-4.45,4.15-4.45s4.26,2.06,4.26,4.52v.07c0,2.39-1.65,4.41-4.19,4.41s-4.23-2.06-4.23-4.48v-.07Z"/>
      <path class="cls-1" d="M235.34,11.21V7.2h-6.98V27.09h6.98v-6.21c0-4.59,2.02-6.65,5.7-6.65h.59V6.87c-3.35-.15-5.15,1.65-6.28,4.34Z"/>
      <path class="cls-1" d="M253.13,22.43c-2.18-.34-3.54-1.63-3.74-3.89l13.15,2.05c.11-.47,.19-.97,.26-1.41,.9-5.77-1.45-11.24-8.2-12.29-5.81-.91-10.63,3.03-11.52,8.73v.07c-.96,6.06,2.76,10.88,8.93,11.85,3.92,.61,6.85-.53,9.12-2.67l-3.32-3.75c-1.64,1.2-2.96,1.58-4.67,1.32Zm.66-10.46c1.89,.29,2.98,1.88,2.9,4.1l-6.86-1.07c.74-2.12,2.12-3.32,3.97-3.03Z"/>
      <polygon class="cls-1" points="274.74 18.82 270.92 7.2 263.57 7.2 271.51 27.23 277.87 27.23 285.81 7.2 278.6 7.2 274.74 18.82"/>
      <path class="cls-1" d="M306.2,22.01l-4.31-2.56c-1.19,1.64-2.34,2.41-4.04,2.68-2.18,.34-3.87-.47-4.75-2.57l13.14-2.06c-.04-.48-.12-.99-.19-1.42-.91-5.77-4.81-10.26-11.56-9.2-5.81,.91-9.19,6.13-8.3,11.83v.07c.96,6.06,5.97,9.52,12.14,8.55,3.92-.61,6.36-2.6,7.87-5.33Zm-10.91-10.04c1.89-.3,3.41,.88,4.01,3.02l-6.86,1.08c.06-2.24,1-3.8,2.85-4.09Z"/>
      <path class="cls-1" d="M316.1,20.88c0-4.59,2.02-6.65,5.7-6.65h.59V6.87c-3.35-.15-5.15,1.65-6.28,4.34V7.2h-6.98V27.09h6.98v-6.21Z"/>
      <path class="cls-1" d="M356.97,22.31V7.2h-6.98v2.35c-1.47-1.58-3.2-2.79-6.25-2.79-4.56,0-8.6,3.53-8.6,9.26v.07c0,5.7,3.97,9.23,8.86,9.23,2.9,0,4.67-1.36,6.1-2.98v.77c0,3.2-1.69,4.89-5.18,4.89-2.68,0-4.78-.7-6.95-1.87l-2.24,4.63c2.9,1.47,6.1,2.28,9.92,2.28,4.15,0,6.95-.92,8.75-2.79,1.73-1.69,2.57-4.34,2.57-7.94Zm-6.84-6.21c0,2.21-1.69,3.86-4.08,3.86s-4.08-1.62-4.08-3.82v-.07c0-2.24,1.69-3.9,4.08-3.9s4.08,1.65,4.08,3.86v.07Z"/>
      <path class="cls-1" d="M373.57,14.65l.59,.04,.51-7.33c-3.33-.38-5.25,1.29-6.57,3.89l.28-4-6.97-.48-1.38,19.84,6.97,.48,.43-6.2c.32-4.58,2.48-6.5,6.14-6.24Z"/>
      <path class="cls-1" d="M386.22,27.56c6.36,0,11.03-4.7,11.03-10.4v-.07c0-5.66-4.59-10.33-10.95-10.33s-10.99,4.7-10.99,10.4v.07c0,5.7,4.59,10.33,10.92,10.33Zm-4.15-10.47c0-2.46,1.62-4.45,4.15-4.45s4.26,2.06,4.26,4.52v.07c0,2.39-1.65,4.41-4.19,4.41s-4.23-2.06-4.23-4.48v-.07Z"/>
      <path class="cls-1" d="M412.36,7.09l.46,10.76c.09,2.2-1.07,3.39-2.79,3.47-1.73,.07-2.88-1.02-2.97-3.22l-.46-10.76-6.98,.3,.55,12.96c.19,4.55,2.85,7.24,7.11,7.05,2.83-.12,4.63-1.74,5.81-3.45l.12,2.75,6.94-.29-.84-19.86-6.94,.29Z"/>
      <path class="cls-1" d="M436.51,6.76c-2.98,0-4.67,1.43-6.03,3.09v-2.65h-6.98v25.76h6.98v-8.31c1.32,1.51,3.05,2.87,6.06,2.87,4.7,0,8.78-3.93,8.78-10.4v-.07c0-6.36-4.12-10.29-8.82-10.29Zm1.99,10.4c0,2.68-1.88,4.52-4.08,4.52s-4.08-1.87-4.08-4.52v-.07c0-2.65,1.8-4.52,4.08-4.52s4.08,1.87,4.08,4.52v.07Z"/>
    </g>
  </g>
</svg>