<?xml version="1.0" encoding="UTF-8"?>
<svg id="Layer_2" data-name="Layer 2" xmlns="http://www.w3.org/2000/svg" viewBox="0 0 207.59 141.76">
  <defs>
    <style>
      .cls-1 {
        fill: #ff9429;
      }

      .cls-2 {
        fill: #bc5229;
      }

      .cls-3 {
        fill: #e87925;
      }

      .cls-4 {
        fill: #f89d30;
      }

      .cls-5 {
        fill: #e24268;
      }

      .cls-6 {
        fill: #e46b2a;
      }

      .cls-7 {
        fill: #ffee9d;
      }

      .cls-8 {
        fill: #f5923a;
      }
    </style>
  </defs>
  <g id="Layer_1-2" data-name="Layer 1">
    <g>
      <g>
        <path class="cls-3" d="M194.13,38.7c3.92-5.52,4.67-11.83,3.93-17.79l-24.49,6.6c-.09,.13-.19,.25-.31,.36l16.54,15.96c1.48-1.46,2.93-3.15,4.34-5.13Z"/>
        <path class="cls-8" d="M199.64,47.56c19.89-25.39-3.78-47.56-3.78-47.56,0,0-.78,1.02-2.22,2.9,4.13,7.66,10.94,24.16,1.87,36.89-14.81,20.72-34.71,13.1-41.28,9.76-.77,.85-1.55,1.71-2.35,2.57,0,0,28.1,20.56,47.75-4.55Z"/>
        <path class="cls-3" d="M170.53,31.1c-4.61,5.35-9.7,11.16-15.19,17.22,3.05,1.51,8.49,3.64,14.83,3.7l.36-20.92Z"/>
        <path class="cls-3" d="M188.64,44.91l-16.41-15.83-.02,.03-.4,22.88c5.38-.24,11.28-2.1,16.83-7.08Z"/>
        <path class="cls-3" d="M192.58,4.26c-3.41,4.35-9.32,11.75-17.06,20.96l22.31-5.99c-1.02-5.92-3.35-11.32-5.24-14.96Z"/>
        <path class="cls-7" d="M195.51,39.78c9.07-12.73,2.25-29.23-1.87-36.89-.22,.29-.48,.6-.73,.94-.11,.13-.21,.28-.34,.43,1.89,3.65,4.23,9.05,5.24,14.96l-22.31,5.99c-.64,.75-1.29,1.51-1.95,2.29l24.49-6.6c.74,5.96,0,12.27-3.93,17.79-1.41,1.97-2.86,3.67-4.34,5.13l-16.54-15.96c-.32,.41-.67,.8-1.02,1.21l16.41,15.83c-5.55,4.98-11.44,6.83-16.83,7.08l.4-22.88c-.55,.65-1.11,1.32-1.68,2l-.36,20.92c-6.34-.06-11.78-2.19-14.83-3.7-.09,.11-.2,.22-.29,.33-.26,.29-.53,.6-.82,.89,6.57,3.34,26.47,10.95,41.28-9.76Z"/>
      </g>
      <path class="cls-4" d="M186.51,18.55s3.92-.29,3-1.65c-.92-1.37-3,1.65-3,1.65Z"/>
      <path class="cls-4" d="M184.81,15.88s3.74-.97,2.62-2.18c-1.12-1.21-2.62,2.18-2.62,2.18Z"/>
      <path class="cls-4" d="M182.02,20.14s3.73-.96,2.61-2.17-2.61,2.17-2.61,2.17Z"/>
      <path class="cls-4" d="M186.44,32.35s2.42,3.41,3.12,2.06c.69-1.35-3.12-2.06-3.12-2.06Z"/>
      <path class="cls-4" d="M187.52,28.74s3.55,2.16,3.56,.58-3.56-.58-3.56-.58Z"/>
      <path class="cls-4" d="M182.49,28.81s2.87,3.03,3.34,1.58c.47-1.46-3.34-1.58-3.34-1.58Z"/>
      <path class="cls-4" d="M175.57,41.96s-1.02,3.73,.51,3.59c1.53-.15-.51-3.59-.51-3.59Z"/>
      <path class="cls-4" d="M179.13,40.93s.72,3.99,1.98,3.18c1.25-.81-1.98-3.18-1.98-3.18Z"/>
      <path class="cls-4" d="M175.65,36.92s-.42,3.91,1.04,3.52c1.47-.39-1.04-3.52-1.04-3.52Z"/>
    </g>
    <g>
      <path class="cls-7" d="M49.08,52.86c-.26-.13-.85-.24-1.15-.38-.12-.07-.25-.12-.39-.2-3.95-1.98-10.68-5.44-19.14-10.07-.69-.38-1.39-.77-2.11-1.17-.12-.05-.23-.11-.33-.19-.37-.19-.73-.4-1.11-.61t-.02,0c-.6-.33-1.21-.67-1.83-1.01-4.93-2.78-10.31-5.86-15.95-9.23-.1-.06-.21-.12-.31-.18-.27-.16-.55-.33-.83-.5-1.25,5.94-3.15,23.46,15.37,31.75,11.37,5.07,22.82-3.48,27.8-8.21Z"/>
      <path class="cls-5" d="M14.92,65.03c23.03,11.57,35.2-11.64,35.2-11.64l-1.04-.53c-4.98,4.73-18.15,13.37-29.08,7.42-12.72-6.93-10.72-22.3-9.46-28.23-.79-.47-7.5-4.46-8.3-4.96,0,0-10.09,26.51,12.69,37.94Z"/>
    </g>
    <g>
      <path class="cls-6" d="M101.79,120.54c0,3.39-.8,6.61-2.22,9.45-3.47,6.98-10.68,11.77-19.01,11.77-11.72,0-21.23-9.51-21.23-21.23,0-8.33,4.8-15.53,11.77-19.01,2.84-1.42,6.06-2.22,9.45-2.22,11.72,0,21.23,9.51,21.23,21.23Z"/>
      <path class="cls-1" d="M101.79,120.54c0,3.39-.8,6.61-2.22,9.45-2.85,1.42-6.06,2.22-9.46,2.22-11.72,0-21.23-9.51-21.23-21.23,0-3.4,.8-6.61,2.22-9.46,2.84-1.42,6.06-2.22,9.45-2.22,11.72,0,21.23,9.51,21.23,21.23Z"/>
      <ellipse class="cls-2" cx="91.18" cy="109.31" rx="1.95" ry="1.68"/>
    </g>
  </g>
</svg>