<?xml version="1.0" encoding="UTF-8"?><svg id="Layer_2" xmlns="http://www.w3.org/2000/svg" viewBox="0 0 84.36 44.28"><defs><style>.cls-1{fill:#f89d30;}.cls-2{fill:#e24268;}.cls-3{fill:#acbac2;}.cls-4{fill:#acbbc2;}.cls-5{fill:#ffee9d;}</style></defs><g id="right"><g id="Layer_5"><g><path class="cls-3" d="M74.55,40.34s6.49,6.3,7.63,2.96c1.14-3.34-7.63-2.96-7.63-2.96Z"/><path class="cls-3" d="M76.16,31.32s8.63,2.98,8.18-.54c-.44-3.52-8.18,.54-8.18,.54Z"/><path class="cls-3" d="M64.56,34.51s7.4,5.27,8,1.79c.6-3.48-8-1.79-8-1.79Z"/></g><g><path class="cls-1" d="M73.6,39.71s6.49,6.3,7.63,2.96c1.14-3.34-7.63-2.96-7.63-2.96Z"/><path class="cls-1" d="M74.9,31.14s8.63,2.98,8.18-.54c-.44-3.52-8.18,.54-8.18,.54Z"/><path class="cls-1" d="M63.61,33.88s7.4,5.27,8,1.79c.6-3.48-8-1.79-8-1.79Z"/></g><ellipse class="cls-4" cx="37.89" cy="28.62" rx="9.22" ry="24.62" transform="translate(7.8 65.36) rotate(-87.74)"/></g></g><g id="Layer_37"><g><path class="cls-5" d="M58.56,11.86c-.11,.19-.22,.38-.34,.59-1.48,2.57-3.72,5.9-6.64,8.97-4.84,5.08-11.57,9.43-19.93,8.45-6.8-.8-11.89-3.13-15.71-6.17C7.14,16.68,5.14,5.86,4.69,1.16c.35,.09,.71,.18,1.05,.26,.12,.03,.26,.05,.38,.08,1.48,.35,2.95,.7,4.4,1.03,1.67,.39,3.31,.77,4.93,1.13v.1c0,4.79,3.89,8.67,8.67,8.67,.28,0,.57-.01,.85-.04,1.13,3.47,4.39,5.97,8.24,5.97,2.26,0,4.32-.86,5.86-2.29,1.54,1.43,3.6,2.29,5.87,2.29,4.27,0,7.81-3.09,8.53-7.15,1.21,.21,2.29,.38,3.24,.54,.17,.03,.33,.05,.48,.08,.37,.05,1.03-.02,1.35,.02Z"/><path class="cls-2" d="M26.2,36.21c28.41,4.66,33.64-24.14,33.64-24.14l-1.28-.22c-3.74,6.7-14.89,20.3-28.53,17.6C14.17,26.31,11.18,9.26,10.53,2.51,9.53,2.28,1.05,.26,.03,0,.03,0-1.89,31.62,26.2,36.21Z"/></g></g></svg>