<?xml version="1.0" encoding="UTF-8"?>
<svg xmlns="http://www.w3.org/2000/svg" viewBox="0 0 85.32 143.37">
  <defs>
    <style>
      .cls-1 {
        isolation: isolate;
      }

      .cls-2 {
        fill: #927c5d;
      }

      .cls-3 {
        fill: #e24268;
      }

      .cls-4 {
        fill: #9a2c45;
        mix-blend-mode: multiply;
        opacity: .4;
      }

      .cls-5 {
        fill: #ffee9d;
      }
    </style>
  </defs>
  <g class="cls-1">
    <g id="Layer_2" data-name="Layer 2">
      <g id="Layer_1-2" data-name="Layer 1">
        <g>
          <path class="cls-3" d="M42.73,39.61C60.54,18.47,39.36,0,39.36,0c0,0-.7,.85-1.99,2.41,3.69,6.38,9.79,20.12,1.68,30.72C25.79,50.39,7.98,44.05,2.1,41.26c-.69,.71-1.38,1.42-2.1,2.14,0,0,25.14,17.13,42.73-3.79Z"/>
          <path class="cls-5" d="M37.37,2.41c-.2,.24-.43,.5-.65,.78-.1,.11-.19,.23-.3,.36-3.05,3.62-8.34,9.79-15.27,17.46-.57,.62-1.15,1.26-1.75,1.91-.08,.11-.17,.21-.28,.3-.29,.34-.6,.67-.91,1.01t-.02,.02c-.49,.54-1,1.1-1.51,1.66-4.13,4.45-8.68,9.29-13.6,14.34-.08,.09-.18,.19-.26,.28-.23,.24-.48,.5-.73,.74,5.88,2.78,23.69,9.12,36.94-8.13,8.12-10.6,2.02-24.35-1.68-30.72Z"/>
        </g>
        <g>
          <path class="cls-2" d="M59.61,104.8s3.55-6.02,11.76-6.56,13.95,3.28,13.95,3.28l-1.37,3.83s-9.84-6.56-24.34-.55Z"/>
          <path class="cls-3" d="M65.35,139.25c-7.38-.27-15.86,4.37-23.24,4.1-7.38-.27-10.12-9.3-12.03-11.76-1.91-2.46-8.75-4.37-8.75-10.94,.8-3.77,.9-6.87,.93-9.66,.08-6.77-.22-11.75,8.09-19.87,17.78-14.22,31.45,11.75,31.45,11.75,7.36,2.99,12.58,8.36,15.2,13.67h0c.5,1.02,.9,2.03,1.21,3.01,2.46,7.93-5.46,19.97-12.85,19.69Z"/>
          <path class="cls-4" d="M65.35,139.25c-7.38-.27-15.86,4.37-23.24,4.1-7.38-.27-10.12-9.3-12.03-11.76-1.91-2.46-8.75-4.37-8.75-10.94,.8-3.77,.9-6.87,.93-9.66,1.47,2.22,3.72,3.79,6.18,5.29,4.92,3,7.11,9.57,13.94,8.75,6.83-.82,13.4,.82,24.07-.27,7.33-.75,9.75-5.38,10.55-8.2,.5,1.01,.9,2.02,1.21,3,2.46,7.93-5.46,19.97-12.85,19.69Z"/>
        </g>
      </g>
    </g>
  </g>
</svg>