<svg width="926" height="772" viewBox="0 0 926 772" fill="none" xmlns="http://www.w3.org/2000/svg">
<path d="M833.203 608.613L824.824 679.146L824.466 682.121C824.466 682.121 824.24 682.837 823.826 684.136C823.713 684.456 823.619 684.795 823.487 685.171C823.487 685.19 823.468 685.209 823.449 685.228V685.247C823.261 685.906 823.016 686.64 822.749 687.468C821.393 691.668 819.303 698.088 816.799 705.676C816.723 705.883 816.667 706.09 816.573 706.297V706.316C816.14 707.653 815.688 709.009 815.217 710.416C813.297 716.216 811.169 722.523 808.966 728.943C808.702 729.715 808.439 730.469 808.175 731.243H760.15L760.169 731.3C760.147 731.277 760.122 731.257 760.093 731.243H656.629L660.263 716.821V716.802L666.099 693.737L685.776 615.954V615.935L687.64 608.611L833.203 608.613Z" fill="#BE802B"/>
<path d="M830.532 685.529C830.532 685.529 830.306 686.207 829.892 687.468C829.741 687.92 829.572 688.447 829.383 689.031C829.271 689.331 829.176 689.631 829.063 689.973C828.216 692.458 827.063 695.904 825.674 700.046C825.523 700.498 825.374 700.946 825.203 701.439V701.458C824.959 702.174 824.714 702.87 824.45 703.624V703.643C824.469 703.661 824.469 703.661 824.45 703.68C823.923 705.224 823.377 706.843 822.812 708.519C822.68 708.952 822.53 709.385 822.379 709.819C822.21 710.252 822.079 710.704 821.927 711.156C821.927 711.175 821.927 711.194 821.908 711.194C820.666 714.847 819.348 718.744 817.954 722.794C817.728 723.472 817.484 724.15 817.254 724.828C816.538 726.937 815.804 729.083 815.054 731.248H802.303C804.562 725.355 806.69 719.575 808.667 714.148C808.912 713.47 809.156 712.811 809.382 712.148C809.42 712.054 809.458 711.941 809.495 711.848C809.853 710.831 810.211 709.833 810.568 708.854C810.587 708.771 810.613 708.689 810.644 708.609C810.738 708.346 810.832 708.063 810.944 707.781C811.415 706.444 811.867 705.145 812.319 703.881C812.676 702.881 813.019 701.881 813.354 700.925C814.409 697.875 815.369 695.125 816.178 692.735C816.404 692.057 816.63 691.398 816.837 690.795C816.95 690.475 817.044 690.174 817.157 689.895C817.252 689.613 817.347 689.331 817.44 689.048V689.029C817.478 688.935 817.496 688.841 817.534 688.747C817.628 688.427 817.741 688.147 817.834 687.862C817.892 687.658 817.961 687.458 818.041 687.262C818.141 686.98 818.211 686.735 818.305 686.472C818.456 685.982 818.605 685.53 818.738 685.153C818.87 684.739 818.983 684.4 819.077 684.118C819.097 684.027 819.129 683.938 819.171 683.854L819.19 683.76C819.303 683.402 819.378 683.214 819.378 683.214L820.941 683.534L823.464 684.061L823.822 684.137L824.707 684.325L830.532 685.529Z" fill="#A35F26"/>
<path d="M830.532 685.529C830.532 685.529 830.306 686.207 829.892 687.468C829.741 687.92 829.572 688.447 829.383 689.031C829.271 689.331 829.176 689.631 829.063 689.973C828.216 692.458 827.063 695.904 825.674 700.046C825.523 700.498 825.374 700.946 825.203 701.439V701.458C824.959 702.174 824.714 702.87 824.45 703.624V703.643C824.469 703.661 824.469 703.661 824.45 703.68C823.923 705.224 823.377 706.843 822.812 708.519C822.68 708.952 822.53 709.385 822.379 709.819C822.21 710.252 822.079 710.704 821.927 711.156C821.927 711.175 821.927 711.194 821.908 711.194C820.666 714.847 819.348 718.744 817.954 722.794C817.728 723.472 817.484 724.15 817.254 724.828C816.538 726.937 815.804 729.083 815.054 731.248H802.303C804.562 725.355 806.69 719.575 808.667 714.148C808.912 713.47 809.156 712.811 809.382 712.148C809.42 712.054 809.458 711.941 809.495 711.848C809.853 710.831 810.211 709.833 810.568 708.854C810.587 708.771 810.613 708.689 810.644 708.609C810.738 708.346 810.832 708.063 810.944 707.781C811.415 706.444 811.867 705.145 812.319 703.881C812.676 702.881 813.019 701.881 813.354 700.925C814.409 697.875 815.369 695.125 816.178 692.735C816.404 692.057 816.63 691.398 816.837 690.795C816.95 690.475 817.044 690.174 817.157 689.895C817.252 689.613 817.347 689.331 817.44 689.048V689.029C817.478 688.935 817.496 688.841 817.534 688.747C817.628 688.427 817.741 688.147 817.834 687.862C817.892 687.658 817.961 687.458 818.041 687.262C818.141 686.98 818.211 686.735 818.305 686.472C818.456 685.982 818.605 685.53 818.738 685.153C818.87 684.739 818.983 684.4 819.077 684.118C819.097 684.027 819.129 683.938 819.171 683.854L819.19 683.76C819.303 683.402 819.378 683.214 819.378 683.214L820.941 683.534L823.464 684.061L823.822 684.137L824.707 684.325L830.532 685.529Z" fill="#FFCE31"/>
<path d="M897.252 398.759L856.857 561.673H829.563L875.416 397.911L897.252 398.759Z" fill="#FFCE31"/>
<path d="M844.303 654.005C846.07 653.289 847.67 652.535 849.046 651.828L859.695 610.973L878.332 539.473L885.763 484.24L897.258 398.763L856.858 561.672L844.303 654.005Z" fill="#FFED97"/>
<path d="M839.753 687.466L842.125 678.371C841.725 678.51 841.334 678.641 840.934 678.771L839.753 687.466Z" fill="#FFED97"/>
<path d="M842.562 666.839C843.555 666.448 844.527 666.004 845.473 665.509L849.044 651.828C847.668 652.535 846.068 653.289 844.301 654.005L842.562 666.839Z" fill="#FFED97"/>
<path opacity="0.64" d="M845.473 665.509C848.523 663.9 850.858 661.809 851.453 659.109C851.946 656.849 852.578 653.557 853.322 649.437C852.429 649.995 850.941 650.86 849.044 651.827L845.473 665.509Z" fill="#334D55"/>
<path d="M884.733 466.083H896.233L888.972 484.236H878.883L884.733 466.083Z" fill="#B7D7E3"/>
<path d="M858.554 668.005C862.529 663.644 868.495 649.705 870.513 639.6C872.913 627.593 895.884 468.636 896.225 466.116L888.972 484.239L888.964 484.286C888.585 487.471 868.907 653.198 859.32 666.986C859.08 667.333 858.825 667.672 858.554 668.005Z" fill="#E6FAFF"/>
<path d="M818.884 687.466H839.753L840.934 678.771L842.562 666.839L844.301 654.005L856.856 561.673H839.242C846.691 617.173 836.842 654.473 836.842 654.473C834.066 666.3 827.884 677.054 819.061 685.405L818.884 687.466Z" fill="#A35F26"/>
<path d="M840.934 678.771C841.334 678.641 841.725 678.51 842.125 678.371L845.473 665.509C844.527 666.004 843.555 666.448 842.562 666.839L840.934 678.771Z" fill="#FFED97"/>
<path d="M842.125 678.371C848.425 676.176 854.689 672.893 858.558 668.001C858.828 667.676 859.079 667.332 859.321 666.988C868.909 653.196 888.588 487.468 888.96 484.288L888.969 484.242H878.879C878.879 484.242 868.026 558.308 859.693 610.974C857.237 626.45 855.005 640.084 853.322 649.439C852.578 653.559 851.946 656.851 851.453 659.111C850.853 661.811 848.523 663.901 845.473 665.511L842.125 678.371Z" fill="#7EABB3"/>
<path d="M875.417 514.727H889.246L880.512 536.562H868.381L875.417 514.727Z" fill="#B7D7E3"/>
<path d="M889.24 514.77C888.826 517.802 861.204 708.99 858.305 723.432C857.77 726.068 857.103 728.676 856.305 731.245H852.181C856.116 712.379 860.466 685.454 864.533 657.625C865.851 648.625 867.15 639.53 868.393 630.586V630.549C875.077 582.328 880.293 538.4 880.5 536.612L880.519 536.555L883.272 529.683V529.664L883.291 529.607L889.146 515.034V515.015L889.24 514.77Z" fill="#E6FAFF"/>
<path d="M880.523 536.555L880.504 536.612C880.297 538.4 875.081 582.328 868.397 630.549V630.586C867.154 639.53 865.855 648.625 864.537 657.625C860.47 685.454 856.12 712.379 852.185 731.245H838.346C838.741 728.986 839.156 726.557 839.589 723.997C841.789 710.986 844.465 694.303 847.308 676.265C848.005 671.803 848.702 667.278 849.399 662.69V662.671C850.039 658.698 850.66 654.671 851.281 650.639C852.181 644.727 853.089 638.758 853.993 632.865V632.827C861.562 583.1 868.378 536.555 868.378 536.555H880.523Z" fill="#9BC3CC"/>
<path d="M829.563 561.673L818.884 687.467H839.753L856.853 561.674L829.563 561.673Z" fill="#A35F26"/>
<path d="M44.803 731.246H28.177L12.777 641.376L10.894 630.376L9.63202 623.052L19.611 590.064L24.525 617.573V617.592L41.189 711.021L44.803 731.246Z" fill="#E6FAFF"/>
<path d="M30.703 731.246H18.744L4.86701 657.399L2.73901 646.083L10.892 630.383L12.7 626.9L14.564 637.745L30.493 730.025L30.703 731.246Z" fill="#9BC3CC"/>
<path d="M186.095 692.872L177.321 705.808V705.826L176.812 706.542V706.561L162.203 728.12L160.075 731.245H29.834C30.06 730.831 30.267 730.436 30.493 730.022C33.657 723.978 37.293 717.557 41.193 711.022C44.413 705.581 47.821 700.045 51.285 694.585C53.074 691.76 54.863 688.936 56.67 686.168C58.9494 682.647 61.2027 679.208 63.43 675.85C78.23 653.594 90.958 636.102 90.958 636.102L104.797 644.368L124.548 656.155L129.896 659.337L162.583 678.844L175.744 686.696L186.095 692.872Z" fill="#BE802B"/>
<path d="M74.847 515.655L-0.720966 668.71L-28.34 540.972L67.516 399.383L74.847 515.655Z" fill="#FFCE31"/>
<path d="M-53.658 534.068L46.461 398.274L67.516 399.383L-28.341 540.973L-53.658 534.068Z" fill="#FFED97"/>
<path d="M380.65 303.81C375.483 308.055 370.087 312.014 364.486 315.668C354.312 322.475 345.886 325.33 338.511 325.33C338.037 325.33 337.572 325.321 337.116 325.293H337.103C336.703 325.275 336.303 325.247 335.903 325.2C335.797 325.2 335.691 325.19 335.587 325.172C335.224 325.144 334.871 325.098 334.508 325.042C334.424 325.033 334.341 325.014 334.257 325.005C333.857 324.94 333.457 324.875 333.066 324.791C332.629 324.707 332.192 324.605 331.766 324.491C331.394 324.398 331.041 324.305 330.678 324.191C330.185 324.051 329.702 323.891 329.218 323.716C328.8 323.568 328.39 323.416 327.991 323.251C327.972 323.242 327.963 323.242 327.953 323.233C327.544 323.075 327.135 322.898 326.735 322.712C326.335 322.526 325.926 322.331 325.526 322.126C325.182 321.949 324.838 321.773 324.494 321.587C324.401 321.531 324.308 321.487 324.224 321.438C323.88 321.238 323.536 321.047 323.201 320.838C321.923 320.076 320.691 319.242 319.509 318.338C319.258 318.161 319.009 317.966 318.756 317.77C318.272 317.398 317.788 317.008 317.314 316.608C316.589 316.003 315.863 315.371 315.147 314.708C314.775 314.375 314.403 314.03 314.031 313.675C313.678 313.35 313.331 313.015 312.99 312.675C309.837 309.597 306.731 306.1 303.55 302.375C303.076 301.817 302.592 301.259 302.118 300.683C297.933 295.726 293.59 290.416 288.837 285.133C288.512 284.761 288.177 284.389 287.842 284.026C286.512 282.557 285.136 281.088 283.722 279.637L282.662 278.549L281.583 277.47C280.858 276.744 280.123 276.028 279.383 275.331C279.011 274.977 278.639 274.624 278.258 274.271C278.158 274.171 278.044 274.066 277.932 273.971C277.432 273.506 276.918 273.041 276.407 272.571C275.356 271.622 274.277 270.683 273.171 269.771C272.845 269.501 272.529 269.231 272.203 268.971C271.041 268.022 269.86 267.102 268.641 266.19C268.028 265.734 267.414 265.279 266.791 264.842C266.645 264.728 266.493 264.622 266.335 264.525C265.735 264.098 265.145 263.688 264.54 263.279C264.51 263.259 264.479 263.24 264.447 263.223C263.747 262.758 263.047 262.293 262.327 261.847C261.908 261.577 261.48 261.308 261.043 261.047C260.178 260.508 259.313 259.996 258.421 259.503C257.984 259.252 257.537 259.003 257.081 258.759C256.031 258.173 254.952 257.615 253.854 257.076C236.891 248.715 221.854 244.576 221.881 237.192C221.89 234.523 223.852 231.445 228.381 227.592C239.081 220.914 249.93 222.765 260.588 229.024C263.592 230.815 266.466 232.817 269.188 235.013C271.16 236.576 273.122 238.259 275.075 240.026C276.712 241.523 278.34 243.073 279.958 244.676C281.436 246.136 282.905 247.63 284.366 249.159C285.91 250.768 287.435 252.414 288.951 254.069C301.451 267.712 313.151 282.425 323.361 290.191C326.085 292.289 328.989 294.144 332.038 295.734C347.03 303.49 358.138 299.714 363.212 296.943C364.308 296.374 365.342 295.694 366.3 294.915C366.3 294.915 403.156 284.698 380.65 303.81Z" fill="#FF9429"/>
<path d="M262.325 261.848L257.079 258.76L256.959 258.686C258.704 254.46 260.189 250.13 261.404 245.722C261.831 242.977 261.971 240.196 261.822 237.422C261.748 236.11 261.004 232.251 260.586 229.033C263.59 230.824 266.464 232.826 269.186 235.022C270.425 244.271 267.533 254.436 262.325 261.848Z" fill="#D77227"/>
<path d="M279.958 244.683C279.948 244.906 279.939 245.102 279.93 245.241C279.579 253.633 276.551 261.693 271.29 268.241C271.095 268.083 270.89 267.925 270.69 267.776C272.55 263.814 273.61 258.643 274.298 255.295C274.837 252.691 275.183 250.05 275.331 247.395C275.386 246.363 275.191 243.257 275.07 240.039C276.711 241.53 278.34 243.078 279.958 244.683Z" fill="#D77227"/>
<path d="M288.951 254.073C288.895 254.631 288.851 255.078 288.811 255.373C288.273 259.7 286.818 263.863 284.543 267.583C282.85 270.355 280.443 272.183 278.256 274.261C278.156 274.161 278.042 274.056 277.93 273.961C280.278 270.272 281.976 266.208 282.952 261.945C283.445 259.825 283.631 253.966 284.366 249.158C285.91 250.772 287.435 252.418 288.951 254.073Z" fill="#D77227"/>
<g style="mix-blend-mode:multiply" opacity="0.5">
<path d="M380.65 303.81C375.483 308.055 370.087 312.014 364.486 315.668C354.312 322.475 345.886 325.33 338.511 325.33C338.037 325.33 337.572 325.321 337.116 325.293H337.103C336.703 325.275 336.303 325.247 335.903 325.2C335.797 325.2 335.691 325.19 335.587 325.172C335.224 325.144 334.871 325.098 334.508 325.042C334.424 325.033 334.341 325.014 334.257 325.005C333.857 324.94 333.457 324.875 333.066 324.791C332.629 324.707 332.192 324.605 331.766 324.491C331.394 324.398 331.041 324.305 330.678 324.191C330.185 324.051 329.702 323.891 329.218 323.716C328.8 323.568 328.39 323.416 327.991 323.251C327.972 323.242 327.963 323.242 327.953 323.233C327.544 323.075 327.135 322.898 326.735 322.712C326.335 322.526 325.926 322.331 325.526 322.126C325.182 321.949 324.838 321.773 324.494 321.587C324.401 321.531 324.308 321.487 324.224 321.438C323.88 321.238 323.536 321.047 323.201 320.838C321.923 320.076 320.691 319.242 319.509 318.338C319.258 318.161 319.009 317.966 318.756 317.77C318.272 317.398 317.788 317.008 317.314 316.608C316.589 316.003 315.863 315.371 315.147 314.708C314.775 314.375 314.403 314.03 314.031 313.675C313.678 313.35 313.331 313.015 312.99 312.675C309.837 309.597 306.731 306.1 303.55 302.375C303.076 301.817 302.592 301.259 302.118 300.683C297.933 295.726 293.59 290.416 288.837 285.133C288.521 284.77 288.186 284.398 287.842 284.026C286.512 282.557 285.136 281.088 283.722 279.637C283.378 279.274 283.025 278.911 282.662 278.549C282.309 278.186 281.946 277.823 281.583 277.47C280.858 276.744 280.123 276.028 279.383 275.331C279.011 274.968 278.639 274.615 278.258 274.271C278.158 274.171 278.044 274.066 277.932 273.971C277.432 273.497 276.918 273.032 276.407 272.571C275.356 271.622 274.277 270.683 273.171 269.771C272.854 269.501 272.529 269.241 272.203 268.971C271.041 268.022 269.86 267.102 268.641 266.19C268.041 265.734 267.414 265.29 266.791 264.842C266.645 264.728 266.493 264.622 266.335 264.525C265.735 264.098 265.145 263.688 264.54 263.279C264.51 263.259 264.479 263.24 264.447 263.223C263.747 262.749 263.047 262.293 262.327 261.847C261.899 261.568 261.471 261.298 261.043 261.047C260.178 260.508 259.313 259.996 258.421 259.503C257.984 259.243 257.537 258.992 257.081 258.759C256.031 258.173 254.952 257.615 253.854 257.076C236.891 248.715 221.854 244.576 221.881 237.192C256.081 227.706 304.763 285.869 316.444 292.742C320.899 295.365 326.59 295.997 332.044 295.737C347.036 303.493 358.144 299.717 363.218 296.946L380.65 303.81Z" fill="#D77227"/>
</g>
<path d="M474.385 51.826C474.385 51.826 499.131 27.079 533.339 28.535C533.339 28.535 526.789 37.997 527.517 40.908L535.523 48.187C535.523 48.187 521.694 62.743 521.694 78.028C521.694 93.313 474.385 51.826 474.385 51.826Z" fill="#D77227"/>
<path d="M519.51 66.746C519.51 66.746 526.789 52.554 527.881 51.098C518.283 53.3916 509.247 57.6 501.315 63.471C488.941 72.933 503.134 74.389 503.134 74.389L519.51 66.746Z" fill="#FCC792"/>
<path d="M706.078 315.305C706.078 315.305 713.36 326.223 699.531 326.949C690.61 331.764 681.358 335.937 671.845 339.439C658.22 344.563 640.736 349.739 622.136 351.696C589.418 355.137 456.222 363.107 401.37 366.316C386.657 367.181 377.581 367.702 377.581 367.702L351.381 363.34C351.381 363.34 360.84 273.083 375.395 241.783C375.395 241.783 352.833 258.523 331.731 259.258C310.629 259.993 266.956 197.384 266.956 197.384C259.45 192.777 253.441 186.094 249.656 178.142C249.535 177.873 249.479 177.733 249.479 177.733L282.96 155.896C282.96 155.896 283.713 155.143 285.415 153.525C288.158 150.925 293.357 146.057 301.885 138.431C306.563 134.246 310.162 133.39 312.618 134.385C317.426 136.31 317.863 145.266 313.529 150.075C306.982 157.357 306.256 167.549 306.256 167.549L310.72 172.302L315.64 177.528L322.392 184.717L327.823 190.493L340.462 203.941C342.359 201.138 344.507 198.514 346.879 196.101C347.986 194.938 349.251 193.701 350.655 192.464C352.921 190.432 355.337 188.573 357.881 186.903C359.453 185.87 361.077 184.917 362.745 184.048C364.716 183.023 366.754 182.132 368.845 181.379C370.905 180.639 373.042 180.136 375.215 179.879C391.909 177.805 410.09 183.557 410.09 183.557L511.499 179.917L518.111 181.507L542.617 187.407L551.154 189.462L561.18 191.871L567.625 193.424L569.001 193.75C569.001 193.75 571.968 190.895 576.311 186.542C577.334 185.519 578.432 184.403 579.594 183.231C582.294 180.479 585.294 177.382 588.327 174.155C589.238 173.197 590.15 172.22 591.061 171.234C594.883 167.096 598.631 162.864 601.761 159.005C602.766 157.768 603.705 156.568 604.57 155.424C607.37 151.676 609.313 148.505 609.75 146.44C611.936 136.247 595.196 117.331 601.75 111.509C602.859 110.49 604.256 109.84 605.75 109.649C612.056 108.84 619.756 116.243 622.128 127.515C622.128 127.515 640.319 135.522 638.868 150.077L638.877 150.086C638.877 150.095 638.886 150.095 638.886 150.104C639.444 150.737 650.13 162.939 653.729 171.309C654.507 172.851 654.903 174.557 654.883 176.284C654.883 176.284 641.053 186.468 633.771 187.928C633.771 187.928 603.927 228.69 587.187 238.148L534.502 230.206L534.056 230.141C534.056 230.141 534.298 230.541 534.716 231.294L534.725 231.304C537.926 237.062 540.796 242.999 543.319 249.085C549.057 262.877 554.981 282.073 552.982 299.285C552.982 299.285 652.939 304.385 668.219 295.649C668.219 295.649 672.59 276.723 681.319 276.723C690.048 276.723 690.052 284.73 690.052 284.73C690.052 284.73 703.752 284.73 703.127 294.97C703.048 296.192 702.812 297.398 702.427 298.56C702.427 298.56 715.536 305.112 706.078 315.305Z" fill="#FF9429"/>
<g style="mix-blend-mode:multiply" opacity="0.76">
<path d="M518.114 181.514C515.203 185.63 511.935 189.483 508.349 193.027C498.649 202.727 475.349 210.977 441.872 208.066C412.177 205.48 381.719 184.583 375.218 179.886C391.912 177.812 410.093 183.564 410.093 183.564L511.502 179.924L518.114 181.514Z" fill="#D77227"/>
</g>
<path d="M569.73 145.718C554.73 148.526 541.541 164.923 523.555 177.803C513.613 184.918 502.202 190.953 488.214 193.027C448.914 198.849 401.603 184.295 392.87 183.56C386.326 183.152 379.763 183.152 373.219 183.56L377.581 152.26C373.944 142.077 370.308 96.943 370.308 96.943C353.568 70.743 361.575 45.272 361.575 45.272L363.231 46.453L371.759 52.545C371.759 46.723 379.766 32.894 379.766 32.894C380.492 38.715 408.15 56.916 408.15 56.916C413.396 54.4194 418.859 52.4084 424.472 50.908C429.713 49.5074 435.046 48.4755 440.431 47.82C443.518 47.4387 446.603 47.169 449.684 47.011C458.446 46.5632 467.23 46.9119 475.929 48.053C478.868 48.443 481.729 48.918 484.494 49.453C488.363 50.216 492.046 51.118 495.459 52.141C503.885 54.641 510.749 57.841 515.147 61.283C525.777 69.597 531.125 83.491 534.538 94.391C535.217 96.567 535.822 98.622 536.38 100.491C537.105 103.256 538.035 105.963 539.16 108.591C542.797 115.864 566.093 131.879 566.093 131.879L560.993 135.515L569.73 145.718Z" fill="#FF9429"/>
<path d="M408.15 56.921C408.15 56.921 402.328 60.557 398.329 63.468C394.33 66.379 385.588 68.806 385.588 68.806L383.04 83.119C383.04 83.119 372.252 94.763 370.303 96.948C353.563 70.748 361.57 45.277 361.57 45.277L363.226 46.458L371.754 52.55C371.754 46.728 379.761 32.899 379.761 32.899C380.492 38.72 408.15 56.921 408.15 56.921Z" fill="#D77227"/>
<path d="M534.733 231.307C537.935 237.065 540.804 243.002 543.327 249.088C539.393 248.988 536.975 248.335 536.975 246.888C536.975 244.01 535.98 237.883 534.733 231.307Z" fill="#D77227"/>
<path d="M681.817 292.011C684.899 292.011 687.397 289.73 687.397 286.916C687.397 284.102 684.899 281.821 681.817 281.821C678.735 281.821 676.237 284.102 676.237 286.916C676.237 289.73 678.735 292.011 681.817 292.011Z" fill="#F5BAD3"/>
<path d="M693.462 300.502C696.544 300.502 699.042 298.221 699.042 295.407C699.042 292.593 696.544 290.312 693.462 290.312C690.38 290.312 687.882 292.593 687.882 295.407C687.882 298.221 690.38 300.502 693.462 300.502Z" fill="#F5BAD3"/>
<path d="M699.285 313.603C702.367 313.603 704.865 311.322 704.865 308.508C704.865 305.694 702.367 303.413 699.285 303.413C696.203 303.413 693.705 305.694 693.705 308.508C693.705 311.322 696.203 313.603 699.285 313.603Z" fill="#F5BAD3"/>
<path d="M689.288 320.354C694.525 316.126 695.017 308.049 690.387 302.313C685.757 296.577 677.757 295.354 672.52 299.581C667.283 303.809 666.791 311.886 671.421 317.622C676.051 323.358 684.05 324.581 689.288 320.354Z" fill="#F5BAD3"/>
<g style="mix-blend-mode:multiply" opacity="0.5">
<path d="M654.891 176.283C654.891 176.283 641.061 186.467 633.779 187.927C633.779 187.927 603.935 228.689 587.195 238.147L534.51 230.205C532.41 219.296 529.702 207.578 529.702 207.578C534.064 208.062 574.826 216.311 580.164 213.4C585.502 210.489 611.701 186.225 619.464 177.009C627.227 167.793 630.14 169.727 636.929 163.421C638.821 161.82 640.065 159.585 640.426 157.133C640.787 154.681 640.241 152.181 638.891 150.103C639.583 150.889 655.597 169.163 654.891 176.283Z" fill="#D77227"/>
</g>
<g style="mix-blend-mode:multiply" opacity="0.5">
<path d="M412.763 329.376V352.176L401.37 366.312C386.657 367.177 377.581 367.698 377.581 367.698L351.381 363.336C351.381 363.336 360.84 273.083 375.395 241.783C375.395 241.783 352.833 258.523 331.731 259.258C310.629 259.993 266.956 197.384 266.956 197.384C259.32 192.702 253.239 185.864 249.481 177.733L282.962 155.896C282.962 155.896 283.715 155.143 285.417 153.525C282.041 164.425 268.305 172.637 272.043 172.637C276.414 172.637 280.292 182.83 285.631 190.595C290.97 198.36 330.271 238.146 338.037 237.663C345.803 237.18 383.161 223.592 383.161 223.592C383.161 223.592 381.226 237.663 381.226 246.879C381.226 256.095 385.103 287.163 385.103 287.163L412.763 329.376Z" fill="#D77227"/>
</g>
<g style="mix-blend-mode:multiply" opacity="0.5">
<path d="M706.078 315.305C706.078 315.305 713.36 326.223 699.531 326.949C690.61 331.764 681.358 335.937 671.845 339.439L678.178 312.394C678.178 312.394 685.46 310.208 692.733 302.201C695.703 299.143 699.236 296.689 703.139 294.975C703.06 296.197 702.824 297.403 702.439 298.565C702.439 298.565 715.536 305.112 706.078 315.305Z" fill="#D77227"/>
</g>
<path d="M448.547 104.23L482.755 115.511L482.391 118.422L448.911 125.336L449.275 119.513L467.289 116.238L447.819 110.238L448.547 104.23Z" fill="#BC5229"/>
<path d="M538.072 113.326L522.783 114.783L520.607 110.774L534.538 94.397C535.217 96.573 535.822 98.628 536.38 100.497L528.98 108.96L537.35 108.597L538.072 113.326Z" fill="#BC5229"/>
<path d="M398.326 63.471L383.042 51.826C383.042 51.826 379.403 60.196 380.13 68.566C380.544 73.5132 381.521 78.3971 383.042 83.123C383.042 83.123 389.956 68.202 398.326 63.471Z" fill="#FCC792"/>
<path d="M525.331 156.636L520.346 169.098L519.993 169.982C519.908 170.077 519.815 170.164 519.714 170.242C518.929 170.876 518.052 171.387 517.114 171.758C513.34 173.243 509.365 174.155 505.321 174.464C503.079 174.706 500.817 174.69 498.579 174.418C497.107 174.233 495.654 173.922 494.236 173.488C490.202 172.217 486.525 170.012 483.503 167.052C480.612 164.28 478.263 160.994 476.575 157.362C476.575 157.362 483.726 157.845 496.951 157.603C510.176 157.361 514.9 151.177 514.9 151.177L525.331 156.636Z" fill="#6E3A45"/>
<path d="M484.817 158.575L490.154 164.155L491.854 158.575H484.817Z" fill="#E6FAFF"/>
<path d="M519.51 136.861C519.51 136.861 519.147 152.995 507.137 156.27C495.127 159.545 450.003 158.089 452.914 144.624" stroke="#BC5229" stroke-width="4.162" stroke-miterlimit="10"/>
<path d="M523.15 155.663L524.12 160.515L528.244 155.42L523.15 155.663Z" fill="#E6FAFF"/>
<path d="M519.51 139.53C519.51 139.53 499.821 131.03 508.593 127.52C517.084 124.12 527.881 124.245 527.153 128.976C526.425 133.707 519.51 139.53 519.51 139.53Z" fill="#30385F"/>
<path d="M514.658 152.145C514.658 152.145 524.787 157.362 531.158 153.722C537.529 150.082 535.889 141.531 535.889 141.531" stroke="#BC5229" stroke-width="4.162" stroke-miterlimit="10"/>
<path d="M551.046 217.775C551.046 217.775 551.046 217.04 548.87 204.675C547.863 198.587 545.744 192.736 542.62 187.414L551.157 189.469C554.31 200.198 551.046 217.775 551.046 217.775Z" fill="#E46B2A"/>
<path d="M566.819 209.768C566.437 204.411 562.736 195.427 561.183 191.874L567.628 193.427C568.158 200.049 566.819 209.768 566.819 209.768Z" fill="#E46B2A"/>
<path d="M587.688 194.72C585.317 189.837 580.053 187.568 576.314 186.545C577.337 185.522 578.435 184.406 579.597 183.234C588.069 186.843 587.688 194.72 587.688 194.72Z" fill="#E46B2A"/>
<path d="M597.388 178.956C595.119 175.556 591.194 174.474 588.33 174.156C589.241 173.198 590.153 172.221 591.064 171.235C596.709 174.529 597.388 178.956 597.388 178.956Z" fill="#E46B2A"/>
<path d="M611.459 163.183C609.059 159.826 604.559 159.101 601.768 159.008C602.773 157.771 603.712 156.571 604.577 155.427C610.957 158.013 611.459 163.183 611.459 163.183Z" fill="#E46B2A"/>
<path d="M362.059 207.583C356.823 199.65 350.759 196.983 346.881 196.107C347.988 194.944 349.253 193.707 350.657 192.47C363.138 197.668 362.059 207.583 362.059 207.583Z" fill="#E46B2A"/>
<path d="M373.461 201.035C368.848 191.084 361.491 187.903 357.883 186.908C359.455 185.875 361.079 184.922 362.747 184.053C375.256 189.465 373.461 201.035 373.461 201.035Z" fill="#E46B2A"/>
<path d="M315.642 177.533C313.272 181.369 309.958 184.532 306.016 186.722C306.016 186.722 306.258 185.262 309.169 179.922C310.412 177.586 310.951 174.941 310.722 172.305L315.642 177.533Z" fill="#E46B2A"/>
<path d="M327.825 190.498C325.993 199.723 320.325 201.035 320.325 201.035C324.417 195.864 323.283 188.349 322.39 184.722L327.825 190.498Z" fill="#E46B2A"/>
<path d="M487.126 86.03C479.035 65.53 459.326 52.419 449.684 47.016C458.446 46.5682 467.23 46.9169 475.929 48.058C490.846 65.412 487.126 86.03 487.126 86.03Z" fill="#E46B2A"/>
<path d="M496.584 75.121C494.52 62.11 488.94 54.021 484.494 49.462C488.363 50.225 492.046 51.127 495.459 52.15C499.244 63.663 496.584 75.121 496.584 75.121Z" fill="#E46B2A"/>
<path d="M465.652 73.661C465.652 73.661 447.341 58.539 424.472 50.913C429.713 49.5124 435.046 48.4805 440.431 47.825C447.843 52.215 463.448 62.622 465.652 73.661Z" fill="#E46B2A"/>
<g style="mix-blend-mode:multiply" opacity="0.5">
<path d="M523.555 177.803C513.613 184.918 502.202 190.953 488.214 193.027C448.914 198.849 401.603 184.295 392.87 183.56C386.326 183.152 379.763 183.152 373.219 183.56L377.581 152.26C373.944 142.077 370.308 96.943 370.308 96.943C353.568 70.743 361.575 45.272 361.575 45.272L363.231 46.453C364.644 55.13 369.49 81.012 378.315 90.638C378.315 90.638 386.555 127.029 391.415 134.311C396.275 141.593 400.148 144.011 400.148 144.011C400.148 144.011 395.786 160.026 397.72 164.397C399.654 168.768 458.375 190.111 492.339 185.257C506.359 183.262 516.487 180.435 523.555 177.803Z" fill="#D77227"/>
</g>
<path d="M371.76 362.61C371.76 362.61 376.127 305.839 383.406 280.365C390.685 254.891 392.868 223.594 422.706 216.316C452.544 209.038 510.773 211.949 516.596 220.683C522.419 229.417 472.196 318.213 472.196 318.213C472.196 318.213 410.336 369.889 371.76 362.61Z" fill="#F4B0CE"/>
<path d="M490.657 137.157C490.27 137.057 451.651 127.574 419.244 133.772L418.895 131.944C451.712 125.67 490.718 135.254 491.108 135.352L490.657 137.157Z" fill="#E6FAFF"/>
<path d="M421.476 152.101L420.544 150.491C448.17 134.497 490.126 141.091 490.544 141.16L490.244 142.995C489.834 142.929 448.522 136.444 421.476 152.101Z" fill="#E6FAFF"/>
<path d="M430.803 168.523L429.65 167.064C450.475 150.598 487.475 145.571 487.85 145.522L488.092 147.366C487.726 147.414 451.226 152.383 430.803 168.523Z" fill="#E6FAFF"/>
<path d="M541.313 133.67L540.407 132.046C540.582 131.946 558.046 122.435 574.329 132.057L573.382 133.657C558.008 124.575 541.478 133.583 541.313 133.67Z" fill="#E6FAFF"/>
<path d="M575.257 143.805C561.49 134.005 542.287 139.516 542.094 139.572L541.566 137.789C542.386 137.546 561.819 131.957 576.336 142.289L575.257 143.805Z" fill="#E6FAFF"/>
<path d="M565.814 154.739C558.445 144.147 542.53 144.939 542.37 144.947L542.261 143.09C542.955 143.048 559.371 142.22 567.34 153.676L565.814 154.739Z" fill="#E6FAFF"/>
<path d="M653.737 171.312C652.631 169.861 651.942 168.085 650.864 166.587C648.164 162.895 643.358 161.342 640.271 157.966C637.165 154.566 636.123 149.633 632.971 146.257C628.898 141.886 621.439 140.138 620.184 134.297C619.821 132.623 620.072 130.847 619.551 129.229C618.835 126.978 616.808 125.444 614.938 124.011C611.972 121.733 609.033 119.25 607.247 115.958C606.193 114.028 605.679 111.85 605.759 109.652C612.065 108.843 619.765 116.246 622.137 127.518C622.137 127.518 640.328 135.525 638.877 150.08L638.886 150.089C638.886 150.098 638.895 150.098 638.895 150.107C639.452 150.74 650.138 162.942 653.737 171.312Z" fill="#F5BAD3"/>
<path d="M312.62 134.39C312.55 135.943 311.923 137.419 310.853 138.547C309.216 140.305 306.937 141.282 304.835 142.435C300.397 144.866 296.519 148.202 293.452 152.228C291.425 154.897 289.752 157.873 287.258 160.105C283.864 163.165 279.316 164.541 275.038 166.159C270.287 167.959 265.698 170.158 261.32 172.735C257.61 174.929 253.871 177.459 249.658 178.147C249.537 177.878 249.481 177.738 249.481 177.738L282.962 155.901C282.962 155.901 283.715 155.148 285.417 153.53C288.16 150.93 293.359 146.062 301.887 138.436C306.565 134.251 310.164 133.395 312.62 134.39Z" fill="#F5BAD3"/>
<path d="M520.346 169.098L519.993 169.982C519.908 170.077 519.815 170.164 519.714 170.242C518.929 170.876 518.052 171.387 517.114 171.758C513.34 173.243 509.365 174.155 505.321 174.464C503.079 174.706 500.817 174.69 498.579 174.418C497.107 174.233 495.654 173.922 494.236 173.488C490.202 172.217 486.525 170.012 483.503 167.052C488.456 165.815 510.823 160.821 520.346 169.098Z" fill="#E84373"/>
<path d="M309.425 142.333C308.373 144.605 297.077 152.227 284.652 159.87C269.845 168.979 253.426 178.098 250.765 178.265C245.865 178.577 240.081 167.865 240.081 167.865C240.081 167.865 237.861 166.333 238.194 165.129C238.228 164.993 238.297 164.869 238.394 164.768C238.455 164.679 238.531 164.601 238.618 164.537C239.202 164.087 248.123 158.385 259.118 151.402C277.773 139.54 302.392 123.96 302.392 123.96C302.392 123.96 311.736 137.34 309.425 142.333Z" fill="#EBAB66"/>
<g style="mix-blend-mode:multiply" opacity="0.53">
<path d="M288.652 136.113C288.652 136.113 281.558 145.866 282.77 152.234C283.277 154.906 283.995 157.619 284.652 159.87C269.845 168.979 253.426 178.098 250.765 178.265C245.865 178.577 240.081 167.865 240.081 167.865C240.081 167.865 237.861 166.333 238.194 165.129L238.394 164.768L240.302 161.142L259.121 151.402L288.652 136.113Z" fill="#935932"/>
</g>
<path d="M233.829 157.896C233.829 157.896 230.503 165.99 231.351 170.92C232.199 175.85 232.804 179.028 232.804 179.028C232.804 179.028 239.911 166.881 263.423 154.659C286.935 142.437 297.709 139.81 297.709 139.81C297.709 139.81 300.909 125.41 307.493 121.71C304.42 120.46 301.103 119.928 297.793 120.154C291.803 120.406 233.829 157.896 233.829 157.896Z" fill="#FFCE31"/>
<path d="M298.784 118.83C298.965 119.135 299.08 119.474 299.123 119.826C299.165 120.177 299.134 120.534 299.03 120.873C298.927 121.212 298.753 121.526 298.521 121.794C298.29 122.062 298.004 122.279 297.684 122.43C296.99 122.58 296.312 122.796 295.659 123.077C294.17 124.067 295.059 126.401 294.595 128.128C294.08 130.04 291.895 130.984 289.932 131.196C287.969 131.408 285.901 131.171 284.06 131.896C280.153 133.442 278.983 138.454 275.783 141.179C271.541 144.794 264.843 143.594 260.132 146.573C255.47 149.522 253.342 156.184 247.96 157.395C246.713 157.676 245.412 157.615 244.16 157.858C242.605 158.163 241.176 158.922 240.053 160.039C238.915 161.176 238.145 162.633 237.045 163.807C235.945 164.981 234.297 165.881 232.759 165.407C232.05 165.127 231.444 164.637 231.021 164.003C230.599 163.368 230.38 162.62 230.395 161.858C230.457 160.331 230.951 158.852 231.821 157.595C234.321 153.513 238.187 150.468 242.104 147.714C250.1 142.293 258.366 137.282 266.871 132.7L286.471 121.708C288.669 120.476 296.513 115.414 298.784 118.83Z" fill="#719740"/>
<path d="M297.383 118.614C298.177 122.238 291.708 124.693 282.383 128.805C281.083 129.379 279.634 130.105 278.077 130.957C268.492 136.189 255.065 145.777 250.291 148.919C247.973 150.439 244.821 152.743 241.606 154.74C237.111 157.524 232.478 159.719 229.792 158.352C227.782 157.348 226.203 155.651 225.348 153.573C225.053 152.888 224.851 152.167 224.748 151.428C223.171 149.857 223.897 147.423 225.98 144.655C244.031 133.912 285.128 109.625 291.014 107.599C291.254 107.848 291.477 108.114 291.68 108.394C291.75 108.484 291.812 108.579 291.895 108.675C293.874 111.369 296.603 115.107 297.383 118.614Z" fill="#7A441F"/>
<g style="mix-blend-mode:multiply" opacity="0.31">
<path d="M291.893 108.675C291.862 110.264 290.834 113.42 284.969 118.12C277.916 123.771 277.83 129.063 278.075 130.957C268.49 136.189 255.063 145.777 250.289 148.919C247.971 150.439 244.819 152.743 241.604 154.74C241.54 152.796 240.718 149.479 235.725 150.166C232.113 150.772 228.614 151.921 225.346 153.573C225.051 152.888 224.849 152.167 224.746 151.428C223.169 149.857 223.895 147.423 225.978 144.655C244.029 133.912 285.126 109.625 291.012 107.599C291.216 107.5 291.442 107.457 291.668 107.473C291.844 107.848 291.922 108.262 291.893 108.675Z" fill="#935932"/>
</g>
<path d="M293.326 104.618C281.093 128.58 218.696 151.839 218.696 151.839C217.265 151.039 214.721 146.579 213.096 142.377C212.368 140.635 211.866 138.807 211.603 136.937C210.526 125.48 224.803 113.168 241.138 103.508C260.485 92.062 274.765 88.948 284.106 93.308C285.691 94.0281 287.175 94.9523 288.52 96.0571C293.403 100.091 293.326 104.618 293.326 104.618Z" fill="#9B5334"/>
<path d="M288.516 96.056C285.837 99.25 277.454 108.291 261.745 117.615C246.191 126.851 222.225 138.148 213.092 142.377C212.364 140.635 211.862 138.807 211.599 136.937C210.522 125.48 224.799 113.168 241.134 103.508C260.481 92.062 274.761 88.948 284.102 93.308C285.687 94.0278 287.171 94.9516 288.516 96.056Z" fill="#DF8040"/>
<path d="M228.801 119.016C230.204 118.398 231.152 117.469 230.919 116.94C230.686 116.412 229.36 116.484 227.958 117.102C226.556 117.719 225.608 118.649 225.841 119.177C226.073 119.706 227.399 119.633 228.801 119.016Z" fill="#EBAB66"/>
<path d="M239.188 111.454C240.591 110.836 241.539 109.907 241.306 109.378C241.073 108.85 239.747 108.922 238.345 109.54C236.943 110.157 235.995 111.086 236.228 111.615C236.46 112.144 237.786 112.071 239.188 111.454Z" fill="#EBAB66"/>
<path d="M258.075 103.326C259.478 102.708 260.426 101.779 260.193 101.25C259.96 100.722 258.634 100.794 257.232 101.412C255.83 102.029 254.882 102.959 255.115 103.487C255.347 104.016 256.673 103.943 258.075 103.326Z" fill="#EBAB66"/>
<path d="M251.14 102.705C252.543 102.087 253.491 101.158 253.258 100.629C253.025 100.101 251.699 100.173 250.297 100.791C248.895 101.408 247.947 102.338 248.18 102.866C248.412 103.395 249.738 103.323 251.14 102.705Z" fill="#EBAB66"/>
<path d="M247.08 113.344C248.483 112.726 249.431 111.797 249.198 111.268C248.965 110.74 247.639 110.812 246.237 111.43C244.835 112.047 243.887 112.977 244.12 113.505C244.352 114.034 245.678 113.961 247.08 113.344Z" fill="#EBAB66"/>
<path d="M268.354 97.9989C269.757 97.3813 270.705 96.4521 270.472 95.9235C270.239 95.3949 268.913 95.4671 267.511 96.0847C266.109 96.7023 265.161 97.6315 265.394 98.1601C265.626 98.6887 266.952 98.6165 268.354 97.9989Z" fill="#EBAB66"/>
<path d="M221.997 126.589C223.4 125.971 224.348 125.042 224.115 124.513C223.882 123.985 222.556 124.057 221.154 124.675C219.752 125.292 218.804 126.222 219.037 126.75C219.269 127.279 220.595 127.206 221.997 126.589Z" fill="#EBAB66"/>
<path d="M659.717 154.534L658.75 167.768L656.55 197.817L645.827 206.559C645.827 206.559 642.693 188.415 638.405 171.47C636.938 165.473 635.173 159.554 633.114 153.734C626.362 135.469 613.658 114.423 613.658 114.423L618.02 97.339L648.203 127.927L659.717 154.534Z" fill="#C8824E"/>
<g style="mix-blend-mode:multiply" opacity="0.53">
<path d="M658.75 167.768L656.55 197.817L645.827 206.559C645.827 206.559 642.693 188.415 638.405 171.47C638.898 170.121 639.419 168.689 639.968 167.192C643.976 156.273 642.516 143.892 642.516 143.892L658.75 167.768Z" fill="#B26D43"/>
</g>
<path d="M656.543 197.821C656.543 197.821 640.259 137.454 633.111 127.521C625.963 117.588 621.593 111.635 621.593 111.635L669.649 143.804C669.649 143.804 664.486 194.247 656.543 197.821Z" fill="#EBAB66"/>
<path d="M672.821 157.315C672.468 162.315 671.789 176.027 666.721 185.95C666.173 187.032 665.559 188.079 664.88 189.084C658.128 199.017 656.547 207.749 654.557 208.54C652.567 209.331 649.795 205.369 652.966 198.217C656.137 191.065 659.328 189.484 654.557 185.904C649.786 182.324 648.205 184.713 649.395 179.951C650.585 175.189 652.446 171.079 649.33 167.368C646.214 163.657 643.043 164.068 644.23 158.106C645.417 152.144 641.449 139.04 637.478 133.879C633.507 128.718 631.916 132.289 625.564 133.088C619.212 133.887 626.355 128.717 623.574 121.175C620.793 113.633 621.193 113.623 618.413 109.652C615.633 105.681 616.822 98.529 618.013 97.339C619.204 96.149 623.974 94.958 623.974 94.958C625.542 94.6014 627.181 94.7212 628.68 95.302C630.116 95.7776 631.473 96.4641 632.707 97.339C637.878 100.919 645.82 107.671 652.572 112.433C659.324 117.195 659.714 117.194 664.872 121.175C670.03 125.156 672.814 133.088 672.814 137.85C672.814 142.612 673.221 151.754 672.821 157.315Z" fill="#FFCE30"/>
<path d="M644.691 132.11C648.477 131.234 650.517 126.079 649.248 120.596C647.978 115.113 643.881 111.379 640.095 112.255C636.309 113.132 634.269 118.287 635.538 123.77C636.807 129.252 640.905 132.987 644.691 132.11Z" fill="#E84373"/>
<path d="M667.263 143.005C670.289 142.304 671.92 138.183 670.905 133.799C669.891 129.416 666.615 126.43 663.588 127.131C660.562 127.831 658.931 131.953 659.945 136.336C660.96 140.72 664.236 143.705 667.263 143.005Z" fill="#E84373"/>
<path d="M656.346 160.958C659.372 160.257 661.003 156.136 659.988 151.752C658.974 147.369 655.698 144.383 652.671 145.084C649.645 145.784 648.014 149.906 649.028 154.289C650.043 158.673 653.319 161.658 656.346 160.958Z" fill="#E84373"/>
<path d="M670.493 170.174C671.212 165.732 669.308 161.729 666.241 161.233C663.175 160.736 660.106 163.935 659.387 168.377C658.669 172.818 660.572 176.821 663.639 177.317C666.706 177.814 669.774 174.615 670.493 170.174Z" fill="#E84373"/>
<g style="mix-blend-mode:multiply" opacity="0.5">
<path d="M666.72 185.95C666.172 187.032 665.558 188.079 664.879 189.084C658.127 199.017 656.546 207.749 654.556 208.54C652.566 209.331 649.794 205.369 652.965 198.217C656.136 191.065 659.327 189.484 654.556 185.904C649.785 182.324 648.204 184.713 649.394 179.951C650.584 175.189 652.445 171.079 649.329 167.368C646.213 163.657 643.042 164.068 644.229 158.106C645.416 152.144 641.448 139.04 637.477 133.879C633.506 128.718 631.915 132.289 625.563 133.088C619.211 133.887 626.354 128.717 623.573 121.175C620.792 113.633 621.192 113.623 618.412 109.652C615.632 105.681 616.821 98.529 618.012 97.339C619.203 96.149 623.973 94.958 623.973 94.958C625.541 94.6014 627.18 94.7212 628.679 95.302C628.66 97.395 629.279 101.012 631.953 106.955C637.053 118.236 649.604 136.436 653.253 149.177C656.183 159.426 660.294 180.305 666.72 185.95Z" fill="#D77227"/>
</g>
<path d="M752.298 354.235L748.269 369.035L741.903 392.383L730.603 433.92L721.735 466.475L721.716 466.513L705.753 525.183L705.734 525.202L704.812 528.61V528.629L701.761 539.795V539.813L691.989 575.739V575.777L690.954 579.524L689.937 583.233V583.252L686.661 595.302L683.742 605.997L667.681 664.969L664.631 676.169L662.353 684.529L659.848 693.718L659.34 695.544V695.601L658.059 700.308L649.643 731.243H79.316L92.647 709.083H92.666L95.472 704.413L95.49 704.376L95.509 704.357L108.125 683.4L112.286 676.509L124.543 656.155L140.981 628.872L142.77 625.897L143.73 624.315L149.774 614.261L152.994 608.932L162.314 593.455C162.319 593.455 162.324 593.453 162.327 593.449C162.331 593.446 162.333 593.441 162.333 593.436L168.019 583.984L180.409 563.423L200.518 530.058L206.543 520.058L207.428 518.57L208.351 517.045L216.071 504.223L220.778 496.409L247.232 452.5L247.308 452.368L251.186 445.929L255.611 438.585L263.388 425.669L266.231 420.962L267.342 419.116L268.076 417.916L286.942 386.583L305.771 355.327L352.298 355.214L372.388 355.158L385.53 355.139H386.114L391.33 355.12L403.719 355.082L410.419 355.064H413.244L426.876 355.026L489.03 354.875L497.33 354.856H498.611L528.85 354.781L538.55 354.762H538.569L549.469 354.725H554.421L562.009 354.706H562.819L583.719 354.649H586.336L605.222 354.593H608.366L682.251 354.405L690.837 354.386H692.211L706.201 354.348L722.074 354.31L731.149 354.292L752.298 354.235Z" fill="#7AE5AC"/>
<path d="M752.298 354.235V395.715L750.923 400.815L740.662 438.983L740.062 441.205L720.443 514.167L719.143 518.987L707.843 561.013L703.757 576.151V576.17L701.968 582.835L697.676 598.84L695.039 608.612L688.92 631.32V631.339L679.393 666.774L678.583 669.768L672.183 693.587L672.146 693.738H672.127L671.468 696.223L662.053 731.244H649.643L658.059 700.309L659.34 695.602V695.545L659.848 693.719L662.353 684.53L664.631 676.17L667.681 664.97L683.742 605.998L686.661 595.303L689.937 583.253V583.234L690.954 579.525L691.989 575.778V575.74L701.761 539.814V539.796L704.812 528.63V528.611L705.734 525.203L705.753 525.184L721.72 466.514L721.739 466.476L730.607 433.921L741.903 392.383L748.267 369.036L752.298 354.235Z" fill="#3C9780"/>
<g style="mix-blend-mode:multiply" opacity="0.26">
<path d="M695.642 597.692L695.51 598.276H695.491L692.968 608.613L688.242 627.951L672.181 693.588L672.144 693.739L662.955 731.245H660.884L660.263 716.823V716.804L659.34 695.604V695.547L659.265 693.721L659.246 693.288C659.246 693.288 591.932 677.396 565.723 674.12C539.532 670.844 511.138 666.475 496.941 666.475C482.763 666.475 480.974 658.191 480.974 658.191L492.987 636.349L499.687 637.049L530.787 640.287C530.787 640.287 535.287 630.553 539.335 618.954C540.089 616.732 540.861 614.473 541.557 612.154V612.116C545.078 600.65 547.281 588.844 543.892 583.516C542.692 581.616 539.806 580.108 535.683 578.884C519.32 574.045 483.263 573.951 453.796 573.443C443.779 573.273 434.515 573.066 427.059 572.595C421.467 572.238 415.686 571.842 409.868 571.372C406.554 571.108 403.222 570.826 399.908 570.543C398.929 570.449 397.95 570.355 396.989 570.261C393.223 569.922 389.52 569.564 385.88 569.187C384.769 569.075 383.677 568.962 382.604 568.848C382.152 568.811 381.704 568.754 381.267 568.698C378.311 568.378 375.449 568.058 372.681 567.719C369.141 567.305 365.752 566.872 362.589 566.439C359.275 565.968 356.225 565.497 353.476 565.026C352.534 564.876 351.63 564.706 350.783 564.556C348.994 564.235 347.375 563.916 345.944 563.577C344.082 563.199 342.251 562.683 340.465 562.033C339.572 561.677 338.699 561.274 337.848 560.827H337.81C322.11 552.599 321.222 532.961 343.01 526.747C346.745 525.67 350.406 524.349 353.968 522.793C360.878 519.837 366.32 516.806 372.929 515.318C376.389 514.559 379.935 514.262 383.473 514.433C388.783 514.64 395.073 515.827 403.055 518.368C406.52 519.479 410.155 520.458 413.901 521.306C447.265 528.969 490.289 527.5 508.949 524.563C517.328 523.245 525.556 518.877 533.149 514.151C544.349 507.203 554.218 499.445 561.354 499.445C564.009 499.552 566.656 499.809 569.281 500.217C578.564 501.479 593.495 504.117 608.257 506.883C608.314 506.883 608.351 506.902 608.408 506.902C609.368 507.09 610.328 507.278 611.289 507.448H611.307C615.073 508.163 618.782 508.879 622.36 509.556C623.26 509.745 624.13 509.914 624.996 510.084C641.264 513.209 654.162 515.827 654.162 515.827L672.972 532.754L674.121 533.789L686.903 545.292L691.987 575.738V575.776L692.721 580.125V580.144L692.929 581.462L695.642 597.692Z" fill="#30385F"/>
</g>
<g style="mix-blend-mode:multiply" opacity="0.26">
<path d="M91.9091 709.059C91.9091 709.059 157.409 711.242 187.983 704.692C218.557 698.142 237.111 643.554 260.038 605.343C282.965 567.132 300.433 551.843 278.598 544.205C256.763 536.567 216.247 546.267 216.247 546.267L91.9091 709.059Z" fill="#30385F"/>
</g>
<g style="mix-blend-mode:multiply" opacity="0.39">
<path d="M278.817 653.057L299.341 657.747L381.222 658.839L422.708 532.196L414.357 529.861L278.816 653.061L278.817 653.057Z" fill="#30385F"/>
</g>
<g style="mix-blend-mode:multiply" opacity="0.28">
<path d="M468.016 476.638C535.849 476.638 590.838 458.797 590.838 436.789C590.838 414.781 535.849 396.94 468.016 396.94C400.183 396.94 345.194 414.781 345.194 436.789C345.194 458.797 400.183 476.638 468.016 476.638Z" fill="#30385F"/>
</g>
<path d="M468.016 471.058C535.849 471.058 590.838 453.217 590.838 431.209C590.838 409.201 535.849 391.36 468.016 391.36C400.183 391.36 345.194 409.201 345.194 431.209C345.194 453.217 400.183 471.058 468.016 471.058Z" fill="#EEF0F3"/>
<path d="M468.016 460.165C514.142 460.165 551.535 448.033 551.535 433.068C551.535 418.103 514.142 405.971 468.016 405.971C421.89 405.971 384.497 418.103 384.497 433.068C384.497 448.033 421.89 460.165 468.016 460.165Z" fill="#ACBAC2"/>
<path d="M468.016 458.305C514.142 458.305 551.535 446.173 551.535 431.208C551.535 416.243 514.142 404.111 468.016 404.111C421.89 404.111 384.497 416.243 384.497 431.208C384.497 446.173 421.89 458.305 468.016 458.305Z" fill="#E4EFF4"/>
<path d="M483.139 731.246H468.303L466.627 711.74V711.721L480.692 696.206L483.139 731.246Z" fill="#FFED97"/>
<path d="M466.624 711.728L157.538 705.42L169.183 686.496L480.695 696.196L466.624 711.728Z" fill="#FFCE31"/>
<path d="M468.303 731.246H162.841L162.201 728.121L158.115 708.275L157.531 705.413L177.32 705.827L181.349 705.902H181.368L182.554 705.921L213.17 706.542L272.029 707.742L466.629 711.734L468.303 731.246Z" fill="#BE802B"/>
<path d="M137.403 722.883C135.297 725.907 132.887 728.708 130.21 731.242H65.797C56.345 720.717 52.636 706.242 51.28 694.583C50.7278 689.922 50.4826 685.229 50.546 680.536V680.518C50.584 676.978 50.791 674.85 50.791 674.85L63.425 675.85L87.187 677.75L108.125 683.398L110.93 684.151L113.849 684.942L125.033 687.955L130.211 702.585L132.583 709.285L137.403 722.883Z" fill="#4E2C79"/>
<path d="M229.83 538.014L227.654 577.326C227.654 577.326 172.337 697.417 122.117 704.69C120.417 704.941 118.731 705.137 117.085 705.276C70.101 709.443 44.963 674.121 44.963 674.121C44.963 674.121 42.052 617.353 44.963 563.496C47.874 509.639 70.436 481.972 70.436 481.972L113.384 488.528L199.996 508.905L229.83 538.014Z" fill="#4C95B4"/>
<path d="M229.83 538.014L227.654 577.326C227.654 577.326 172.337 697.417 122.117 704.69C120.417 704.941 118.731 705.137 117.085 705.276C114.369 685.454 110.459 665.813 105.376 646.462C95.909 611.531 66.076 548.932 66.076 548.932L113.386 488.532L199.998 508.909L229.83 538.014Z" fill="#3D87A5"/>
<path d="M129.392 635.183C129.392 635.183 170.636 615.167 165.784 557.669L127.936 555C127.936 555 110.954 608.618 129.392 635.183Z" fill="#2E7D9A"/>
<path d="M194.412 526.858C194.412 526.858 189.56 543.841 168.695 539.474C156.176 536.767 145.208 529.281 138.126 518.609L139.582 507.934L194.412 526.858Z" fill="#B88B64"/>
<path d="M253.61 347.325C253.61 347.325 196.833 449.225 195.383 450.677C194.676 451.384 185.497 462.693 176.122 474.271C165.966 486.826 155.597 499.688 155.597 499.688L160.442 552.578C151.709 549.178 123.567 525.403 123.567 525.403L115.803 492.89L115.319 517.154L67.7681 483.674C67.7681 483.674 61.9461 460.874 80.3881 391.966C83.2425 380.783 87.807 370.107 93.9201 360.317C117.486 323.387 154.138 324.038 154.138 324.038C217.219 298.807 253.61 347.325 253.61 347.325Z" fill="#F958AD"/>
<path d="M155.597 499.688L160.442 552.578C151.709 549.178 123.567 525.403 123.567 525.403L115.803 492.89L115.319 517.154L67.7681 483.674C67.7681 483.674 61.9461 460.874 80.3881 391.966C83.2425 380.783 87.807 370.107 93.9201 360.317C95.4911 367.097 99.3601 374.407 107.554 380.805C130.854 399.005 140.309 401.917 140.309 401.917C140.309 401.917 157.774 406.278 165.056 401.917L172.338 397.546L176.123 474.271C165.966 486.826 155.597 499.688 155.597 499.688Z" fill="#CE3698"/>
<path d="M256.035 574.41C256.035 574.41 244.39 575.38 220.614 553.06C196.838 530.74 236.626 522.976 236.626 522.976L266.226 535.592L256.035 574.41Z" fill="#E2B488"/>
<path d="M281.269 553.545C278.935 567.161 270.983 573.912 262.427 574.805C260.29 575.025 258.131 574.89 256.038 574.405C245.361 571.987 239.056 568.583 237.112 560.334C235.168 552.085 241.474 512.299 241.474 512.299L272.034 497.754L272.043 497.745C272.043 497.745 284.18 536.563 281.269 553.545Z" fill="#FDD5B5"/>
<path d="M259.432 532.683C259.619 546.769 260.621 560.833 262.432 574.803C260.295 575.023 258.136 574.888 256.043 574.403C245.366 571.985 239.061 568.581 237.117 560.332C235.173 552.083 241.479 512.297 241.479 512.297L272.039 497.752C263.91 507.58 259.453 519.929 259.432 532.683Z" fill="#F0C5A1"/>
<path d="M258.465 516.183C258.465 516.183 258.54 521.623 256.205 524.925C254.717 527.036 252.243 528.264 248.133 526.645C240.851 523.772 241.846 510.156 243.157 502L252.029 489.975L253.329 486.348L261.374 477.848C264.691 478.831 267.673 480.706 269.995 483.27C272.358 485.942 273.762 489.326 273.985 492.886C274.954 505.027 258.465 516.183 258.465 516.183Z" fill="#FDD5B5"/>
<path d="M261.497 501.995C251.444 514.81 252.615 522.353 256.205 524.929C254.717 527.04 252.243 528.268 248.133 526.649C240.851 523.776 241.846 510.16 243.157 502.004L252.029 489.979L253.329 486.352L261.374 477.852C264.691 478.835 267.673 480.71 269.995 483.274C269.709 487.012 268.091 493.583 261.497 501.995Z" fill="#E2B488"/>
<path d="M248.272 525.403C248.273 525.822 248.226 526.24 248.133 526.649C246.887 532.276 237.596 536.08 237.596 536.08C237.596 536.08 233.718 551.601 214.308 563.245C214.308 563.245 229.833 627.3 215.762 644.282C213.662 646.872 211.212 649.159 208.483 651.075C193.194 660.263 160.183 645.03 125.995 617.595C125.995 617.595 123.084 583.631 150.259 568.583L179.368 593.815C179.368 593.815 180.344 548.207 182.279 541.901C184.214 535.595 197.81 521.032 197.81 521.032L241.474 509.872C241.474 509.872 248.272 519.098 248.272 525.403Z" fill="#FDD5B5"/>
<path d="M208.483 651.075C193.194 660.263 160.183 645.03 125.995 617.595C125.995 617.595 123.084 583.631 150.259 568.583C150.259 568.583 139.099 593.815 141.033 601.583C142.903 609.039 181.522 653.651 208.483 651.075Z" fill="#E2B488"/>
<path d="M248.272 525.403C248.273 525.822 248.226 526.24 248.133 526.649C246.784 525.905 245.144 523.685 241.964 523.461C235.174 522.978 232.146 538.043 216.247 546.267C202.175 553.545 197.353 546.372 196.838 561.309C196.353 575.38 197.808 617.594 197.808 617.594C195.865 611.289 179.368 593.815 179.368 593.815C179.368 593.815 180.344 548.207 182.279 541.901C184.214 535.595 197.81 521.032 197.81 521.032L241.474 509.872C241.474 509.872 248.272 519.098 248.272 525.403Z" fill="#E2B488"/>
<path d="M266.225 420.594C266.225 420.594 267.198 462.321 260.883 486.101C255.164 507.649 239.074 524.427 218.763 528.816C216.652 529.27 214.515 529.587 212.363 529.765C189.075 531.709 163.351 525.403 151.224 511.332C151.224 511.332 124.542 508.421 125.024 489.979C125.506 471.537 148.796 465.724 161.416 481.246L162.085 456.266L162.385 445.339L266.225 420.594Z" fill="#FDD5B5"/>
<path d="M218.763 528.816C216.652 529.27 214.515 529.587 212.363 529.765C189.075 531.709 163.351 525.403 151.224 511.332C151.224 511.332 124.542 508.421 125.024 489.979C125.506 471.537 148.796 465.724 161.416 481.246L162.085 456.266L163.35 456.015L192.469 463.781C192.469 463.781 187.614 500.172 204.596 518.121C208.664 522.478 213.458 526.097 218.763 528.816Z" fill="#E7AF85"/>
<path d="M172.577 475.424C172.577 475.424 170.151 524.432 173.547 535.107C173.547 535.107 157.047 507.934 150.257 468.146C143.467 428.358 157.535 403.126 157.535 403.126L172.577 475.424Z" fill="#AE377E"/>
<path d="M289.035 408.464L270.592 428.84L267.681 416.229C267.198 419.14 266.221 433.695 266.221 433.695C261.86 438.55 239.298 460.144 239.298 460.144L234.685 439.517L235.285 463.055C234.02 464.32 219.652 481.432 209.84 493.141C204.64 499.354 200.717 504.05 200.717 504.05C196.829 502.116 186.646 460.87 186.646 460.87C183.246 469.119 185.186 501.623 185.186 501.623L164.813 489.012C164.813 489.012 147.348 440.484 155.597 401.182C163.846 361.88 202.665 342.963 202.665 342.963C202.665 342.963 204.98 341.531 208.254 339.663H208.263C213.741 336.547 221.888 332.223 226.436 331.311C233.718 329.861 253.127 341.021 263.794 350.237C294.856 380.805 289.035 408.464 289.035 408.464Z" fill="#F958AD"/>
<path d="M156.155 612.108C150.212 620.022 141.637 627.937 129.389 635.181C129.389 635.181 99.1831 614.442 80.9891 582.413C62.7951 550.384 46.4201 533.169 70.1891 505.994C71.7586 504.628 73.4739 503.44 75.3041 502.451C80.9311 499.335 90.6401 496.08 101.726 501.623C119.201 510.365 165.775 557.665 165.775 557.665C165.775 557.665 176.559 584.896 156.155 612.108Z" fill="#51DBFC"/>
<path d="M251.921 447.965C251.812 447.246 251.562 446.555 251.186 445.932C250.784 445.227 250.163 444.671 249.417 444.35C248.381 443.917 246.291 443.597 243.73 446.289L237.63 452.672L235.107 455.346L222.058 469.016C218.639 472.914 216.6 477.832 216.258 483.006L216.239 485.491L216.051 503.548C216.051 503.793 216.051 504.019 216.07 504.226C216.239 507.389 217.802 508.462 218.781 508.858C219.215 509.02 219.674 509.102 220.137 509.102C221.36 509.102 223.037 508.538 224.976 506.372L246.064 482.817C249.094 479.14 250.932 474.629 251.336 469.882L251.694 459.809L251.957 452.672L252.057 450.037C252.084 449.344 252.038 448.649 251.921 447.965ZM246.686 469.713C246.338 473.381 244.916 476.864 242.6 479.729L221.512 503.266C221.273 503.548 221.008 503.806 220.721 504.038C220.721 503.925 220.702 503.774 220.702 503.605L220.778 496.412L220.91 483.062C220.971 481.689 221.231 480.332 221.682 479.033C222.439 476.532 223.708 474.216 225.41 472.233L235.257 461.896L238.857 458.13L247.104 449.487L247.386 449.205C247.405 449.393 247.405 449.6 247.405 449.864L247.311 452.364V452.421L246.686 469.713Z" fill="#927C5D"/>
<path d="M268.603 420.211L267.116 421.774C266.909 424.165 266.701 426.874 266.551 429.099L269.865 425.634L268.603 420.211ZM268.603 420.211L267.116 421.774C266.909 424.165 266.701 426.874 266.551 429.099L269.865 425.634L268.603 420.211ZM268.603 420.211L267.116 421.774C266.909 424.165 266.701 426.874 266.551 429.099L269.865 425.634L268.603 420.211ZM268.603 420.211L267.116 421.774C266.909 424.165 266.701 426.874 266.551 429.099L269.865 425.634L268.603 420.211ZM268.603 420.211L267.116 421.774C266.909 424.165 266.701 426.874 266.551 429.099L269.865 425.634L268.603 420.211ZM268.603 420.211L267.116 421.774C266.909 424.165 266.701 426.874 266.551 429.099L269.865 425.634L268.603 420.211ZM268.603 420.211L267.116 421.774C266.909 424.165 266.701 426.874 266.551 429.099L269.865 425.634L268.603 420.211ZM268.603 420.211L267.116 421.774C266.909 424.165 266.701 426.874 266.551 429.099L269.865 425.634L268.603 420.211ZM268.603 420.211L267.116 421.774C266.909 424.165 266.701 426.874 266.551 429.099L269.865 425.634L268.603 420.211ZM268.603 420.211L267.116 421.774C266.909 424.165 266.701 426.874 266.551 429.099L269.865 425.634L268.603 420.211ZM286.378 411.4V411.383C286.078 409.123 285.003 408.144 284.043 407.711C283.101 407.311 281.219 406.977 278.978 409.33L268.603 420.211L267.116 421.774L266.25 422.674L263.388 425.668L260.45 428.756C258.04 431.575 256.376 434.955 255.611 438.584C255.39 439.556 255.256 440.545 255.211 441.541L255.06 444.892V444.911L254.834 450.466L254.552 456.717L254.364 461.217C254.213 465.001 255.889 466.263 256.887 466.677C257.307 466.839 257.754 466.923 258.205 466.922C259.278 466.922 260.728 466.451 262.366 464.622L264.776 461.929L280.46 444.418C283.171 440.988 284.837 436.851 285.26 432.5L286.446 413.52C286.502 412.813 286.479 412.102 286.378 411.4ZM281.595 416.69L280.616 432.205C280.287 435.521 279.035 438.678 277.003 441.319L265.403 454.273L259.02 461.39L259.849 441.752C259.883 441.157 259.958 440.566 260.075 439.982C260.638 437.039 261.926 434.282 263.822 431.961L266.269 429.381L266.552 429.099L269.866 425.634L281.822 413.075V413.226L281.596 416.672L281.595 416.69ZM268.603 420.211L267.116 421.774C266.909 424.165 266.701 426.874 266.551 429.099L269.865 425.634L268.603 420.211ZM268.603 420.211L267.116 421.774C266.909 424.165 266.701 426.874 266.551 429.099L269.865 425.634L268.603 420.211ZM268.603 420.211L267.116 421.774C266.909 424.165 266.701 426.874 266.551 429.099L269.865 425.634L268.603 420.211ZM268.603 420.211L267.116 421.774C266.909 424.165 266.701 426.874 266.551 429.099L269.865 425.634L268.603 420.211ZM268.603 420.211L267.116 421.774C266.909 424.165 266.701 426.874 266.551 429.099L269.865 425.634L268.603 420.211ZM268.603 420.211L267.116 421.774C266.909 424.165 266.701 426.874 266.551 429.099L269.865 425.634L268.603 420.211ZM268.603 420.211L267.116 421.774C266.909 424.165 266.701 426.874 266.551 429.099L269.865 425.634L268.603 420.211ZM268.603 420.211L267.116 421.774C266.909 424.165 266.701 426.874 266.551 429.099L269.865 425.634L268.603 420.211ZM268.603 420.211L267.116 421.774C266.909 424.165 266.701 426.874 266.551 429.099L269.865 425.634L268.603 420.211Z" fill="#927C5D"/>
<path d="M254.382 450.065L247.692 457.294L251.105 460.452L257.795 453.223L254.382 450.065Z" fill="#927C5D"/>
<path d="M156.155 612.108C150.212 620.022 141.637 627.937 129.389 635.181C129.389 635.181 99.1831 614.442 80.9891 582.413C62.7951 550.384 46.4201 533.169 70.1891 505.994C71.7586 504.628 73.4739 503.44 75.3041 502.451C74.7014 512.299 76.9247 522.114 81.7121 530.741C89.6501 545.277 145.869 601.822 156.155 612.108Z" fill="#56A0C4"/>
<path d="M209.844 493.141C204.644 499.354 200.721 504.05 200.721 504.05C196.833 502.116 186.65 460.87 186.65 460.87C183.25 469.119 185.19 501.623 185.19 501.623L164.813 489.012C164.813 489.012 147.348 440.484 155.597 401.182C163.846 361.88 202.665 342.963 202.665 342.963C202.665 342.963 204.98 341.531 208.254 339.663H208.263C208.421 339.784 208.57 339.914 208.728 340.044C208.728 340.044 192.714 357.519 194.899 396.096C196.527 424.804 205.403 471.267 209.844 493.141Z" fill="#CC3B89"/>
<path d="M390.175 422.834C390.175 422.834 381.212 429.16 379.11 431.797C377.008 434.434 374.886 447.612 372.784 448.663C370.682 449.714 359.597 453.938 359.597 453.938L368.56 481.878C366.984 486.628 359.597 485.567 359.597 485.567L345.622 470.702C345.609 470.69 345.599 470.677 345.591 470.661L326.903 450.775C323.293 449.692 320.024 447.694 317.414 444.975C313.726 440.761 313.726 424.937 315.314 414.397C316.902 403.857 322.691 396.471 325.329 394.884C327.967 393.297 353.795 383.293 353.795 383.293L375.41 387.507L389.678 421.653L390.175 422.834Z" fill="#30385F"/>
<g style="mix-blend-mode:multiply" opacity="0.39">
<path d="M390.175 422.834C390.175 422.834 381.212 429.16 379.11 431.797C377.008 434.434 374.886 447.612 372.784 448.663C370.682 449.714 359.597 453.938 359.597 453.938L368.56 481.878C366.984 486.628 359.597 485.567 359.597 485.567L345.622 470.702C345.609 470.69 345.599 470.677 345.591 470.661C336.941 458.761 327.503 446.076 325.331 444.449C321.107 441.286 321.107 436.011 322.168 432.323C323.229 428.635 342.732 419.135 350.634 411.759C358.344 404.559 356.034 397.864 355.919 397.531L389.68 421.652L390.175 422.834Z" fill="#30385F"/>
</g>
<path d="M451.867 402.27L383.061 428.361C383.061 428.361 366.802 422.005 357.667 407.626C352.443 399.476 350.497 389.652 352.22 380.126L415.489 333.46L435.638 371.566L451.867 402.27Z" fill="#E6FAFF"/>
<g style="mix-blend-mode:multiply" opacity="0.18">
<path d="M451.867 402.27L383.061 428.361C383.061 428.361 366.802 422.005 357.667 407.626L435.638 371.57L451.867 402.27Z" fill="#3D4F9F"/>
</g>
<path d="M597.381 647.037C596.922 648.426 596.313 649.761 595.563 651.018C594.047 653.548 592.017 655.732 589.605 657.429C587.192 659.126 584.451 660.299 581.557 660.871C574.049 662.457 538.852 657.314 527.787 655.333C516.722 653.352 513.943 652.564 509.992 652.969C506.041 653.374 496.542 659.294 496.542 659.294L485.477 652.564C485.477 652.564 492.985 637.942 492.985 636.356C492.985 634.921 497.239 621.056 502.464 616.772C502.943 616.364 503.483 616.033 504.064 615.792C509.996 613.417 568.909 623.704 568.909 623.704L591.848 628.848C591.848 628.848 599.746 639.913 597.381 647.037Z" fill="#30385F"/>
<g style="mix-blend-mode:multiply" opacity="0.39">
<path d="M597.381 647.037C596.922 648.426 596.313 649.761 595.563 651.018C591.739 652.319 587.704 652.888 583.669 652.696C566.269 652.17 557.304 649.533 539.378 645.845C521.452 642.157 520.926 641.631 513.549 641.631C508.561 641.734 503.605 642.439 498.786 643.731L502.464 616.771C502.943 616.363 503.483 616.032 504.064 615.791C509.996 613.416 568.909 623.703 568.909 623.703L591.848 628.847C591.848 628.847 599.746 639.913 597.381 647.037Z" fill="#30385F"/>
</g>
<path d="M566.53 277.32L544.39 377.755C544.39 377.755 523.038 411.755 506.435 419.671C489.832 427.587 417.065 417.296 384.635 341.376C384.635 341.366 384.625 341.356 384.625 341.346C352.238 265.436 413.909 200.601 482.705 208.514C539.324 215.021 559.525 257.423 564.905 272.227C566.056 275.41 566.53 277.32 566.53 277.32Z" fill="#E6FAFF"/>
<path d="M838.632 673.836C838.602 682.183 838.591 687.074 838.591 687.074C838.591 687.074 834.903 695.016 824.384 702.009C821.51 703.911 818.465 705.541 815.289 706.88C809.69 709.219 803.805 710.803 797.789 711.589L796.859 711.71C770.98 714.974 755.559 707.718 750.497 704.727C749.856 704.369 749.238 703.971 748.647 703.535L747.415 699.235L746.657 696.608L719.979 603.398L719.12 600.398L699.769 532.804C699.769 532.804 712.369 521.517 723.9 516.666C728.609 514.686 747.738 502.317 768.716 488.382C785.077 477.519 802.569 465.706 815.216 457.107C819.38 454.277 823.027 451.807 825.928 449.831C831.91 460.704 836.68 472.497 838.65 481.652C838.69 485.644 838.721 490.423 838.741 495.83C838.965 543.183 838.733 638.811 838.632 673.836Z" fill="#E6FAFF"/>
<path d="M838.63 673.835C838.605 682.178 838.588 687.075 838.588 687.075C838.588 687.075 829.067 707.635 796.858 711.713C764.649 715.791 748.642 703.537 748.642 703.537L746.658 696.616L746.722 694.168C746.722 694.168 777.356 700.529 796.195 697.879C810.213 695.915 829.632 681.219 838.63 673.835Z" fill="#51DBFC"/>
<path d="M724.272 618.428L747.995 623.103L771.023 704.483L773.939 703.66L750.403 620.483L723.325 615.145L724.272 618.428Z" fill="#FF822E"/>
<path d="M760.15 731.245L760.169 731.302C760.147 731.279 760.122 731.259 760.093 731.245C754.915 727.645 746.293 720.419 743.373 710.553C740.417 700.553 742.281 691.215 743.712 686.376C744.053 685.205 744.462 684.055 744.936 682.931L749.38 694.683L753.861 706.489V706.508L755.631 711.158V711.196L763.238 731.248L760.15 731.245Z" fill="#FF822E"/>
<path d="M839.589 723.997C840.248 726.275 840.889 728.704 841.528 731.245H760.15L755.631 711.193V711.155L754.671 706.881V706.862L754.35 705.488C754.35 705.488 757.514 706.388 762.616 707.408C770.844 709.046 784.044 711.042 796.998 710.12C801.615 709.844 806.19 709.086 810.649 707.86C810.743 707.841 810.837 707.804 810.949 707.785C812.945 707.212 814.902 706.508 816.805 705.676C819.491 704.492 822.021 702.98 824.336 701.176C824.788 700.818 825.236 700.442 825.673 700.046C826.887 698.982 828.003 697.811 829.006 696.546C829.006 696.546 829.27 696.998 829.721 697.92V697.939C829.797 698.109 829.891 698.278 829.985 698.467C833.922 706.682 837.136 715.224 839.589 723.997Z" fill="#E6FAFF"/>
<g style="mix-blend-mode:multiply" opacity="0.2">
<path d="M829.986 698.465C828.517 700.856 826.616 703.925 824.601 707.065V707.084L823.81 708.27C823.189 709.231 822.567 710.21 821.927 711.151C821.927 711.17 821.927 711.189 821.908 711.189C818.971 715.614 816.128 719.643 814.283 721.469C813.078 722.669 812.814 726.045 813.172 731.241H760.15L755.631 711.189V711.151L754.671 706.877V706.858L754.35 705.484C754.35 705.484 757.514 706.384 762.616 707.404C770.844 709.042 784.044 711.038 796.998 710.116C801.615 709.84 806.19 709.082 810.649 707.856C810.743 707.837 810.837 707.8 810.949 707.781C812.945 707.208 814.902 706.504 816.805 705.672C819.491 704.488 822.021 702.976 824.336 701.172C824.788 700.814 825.236 700.438 825.673 700.042C826.887 698.978 828.003 697.807 829.006 696.542C829.006 696.542 829.27 696.994 829.721 697.916V697.935C829.798 698.107 829.892 698.276 829.986 698.465Z" fill="#3D4F9F"/>
</g>
<g style="mix-blend-mode:multiply" opacity="0.18">
<path d="M824.616 708.062L799.303 714.383L797.787 711.583L767.673 655.853L720.745 604.721L719.977 603.397L699.767 532.802C699.767 532.802 712.367 521.515 723.898 516.664C728.607 514.684 747.736 502.315 768.714 488.38C785.075 477.517 802.567 465.704 815.214 457.105C815.4 457.122 815.581 457.177 815.746 457.265C815.911 457.354 816.057 457.474 816.174 457.62C816.174 457.62 828.817 496.11 829.353 517.72C829.889 539.33 822.5 676.937 823.553 690.12C823.977 695.314 824.23 699.195 824.382 701.994C824.616 706.314 824.616 708.062 824.616 708.062Z" fill="#3D4F9F"/>
</g>
<path d="M609.508 541.458C607.921 549.358 593.683 630.03 593.683 630.03C587.266 638.801 579.374 641.146 572.26 640.83C561.842 640.386 545.578 634.377 545.578 634.377C545.578 634.377 530.425 551.47 530.425 544.619C530.425 537.768 533.315 530.381 533.315 530.381L562.054 523.004L606.87 531.169C606.87 531.169 609.103 532.432 609.71 536.169C609.956 537.93 609.887 539.721 609.508 541.458Z" fill="#E6FAFF"/>
<path d="M823.546 536.706C823.546 537.553 823.452 539.549 823.264 542.524C823.264 542.524 823.283 542.543 823.264 542.543V542.618C822.564 553.972 820.685 579.297 818.425 608.618C816.354 635.675 813.963 666.118 811.91 692.162V692.181C811.458 697.622 811.044 702.875 810.649 707.865C810.63 708.129 810.611 708.374 810.592 708.637C810.592 708.712 810.573 708.788 810.573 708.863C810.498 709.786 810.423 710.727 810.347 711.631C809.858 717.939 809.387 723.775 808.973 728.953C808.917 729.744 808.86 730.498 808.785 731.253H760.15L760.169 731.31C760.147 731.287 760.122 731.267 760.093 731.253H709.368L698.259 676.953L697.581 673.621L688.92 631.35V631.331L688.242 627.961L685.776 615.966V615.947L683.742 606.006L681.068 592.906L680.409 589.724C680.409 589.724 684.382 586.674 689.937 583.266V583.247C690.897 582.663 691.895 582.061 692.931 581.477C693.364 581.213 693.831 580.95 694.286 580.686C697.33 578.959 700.496 577.455 703.757 576.186V576.167C704.416 575.922 705.075 575.678 705.715 575.467C707.617 574.764 709.473 573.94 711.27 573.001C719.837 568.821 735.616 560.201 752.58 550.726C761.6 545.68 770.98 540.408 779.75 535.437V535.418C794.305 527.172 807.26 519.753 814.433 515.629H814.452L820.383 512.202C820.383 512.202 823.546 525.653 823.546 536.706Z" fill="#E6FAFF"/>
<path d="M724.168 681.01L734.279 731.245H731.172L721.55 683.439L698.259 676.939L697.581 673.607L724.168 681.01Z" fill="#51DBFC"/>
<g style="mix-blend-mode:multiply" opacity="0.18">
<path d="M814.866 556.476C807.967 562.167 801.664 568.545 796.056 575.512C796.055 575.526 796.048 575.54 796.038 575.55C787.984 585.607 781.368 596.734 776.38 608.613C770.546 622.599 766.522 637.272 764.405 652.277C763.784 656.438 763.288 660.581 762.917 664.704C762.654 667.698 762.447 670.654 762.277 673.611V673.629C761.863 681.594 761.825 689.329 762.07 696.713C762.203 700.385 762.385 703.95 762.616 707.408C762.692 708.218 762.748 709.008 762.805 709.781C763.405 717.613 764.273 724.844 765.196 731.245H760.15L760.169 731.302C760.147 731.279 760.122 731.259 760.093 731.245H709.368L698.259 676.945L697.581 673.613L688.92 631.342V631.323L688.242 627.953L685.776 615.958V615.939L683.742 605.998L681.068 592.898L680.409 589.716C680.409 589.716 684.382 586.666 689.937 583.258V583.239C690.897 582.655 691.895 582.053 692.931 581.469C693.364 581.205 693.831 580.942 694.286 580.678C697.33 578.951 700.496 577.447 703.757 576.178V576.159C704.416 575.914 705.075 575.67 705.715 575.459C707.617 574.756 709.473 573.932 711.27 572.993C719.837 568.813 735.616 560.193 752.58 550.718C753.164 557.553 768.566 552.018 783.912 548.418C789.271 547.02 794.761 546.182 800.293 545.918H800.312C808.257 545.8 814.17 548.283 814.866 556.476Z" fill="#3D4F9F"/>
</g>
<path d="M839.37 492.822C839.198 493.661 838.996 494.671 838.743 495.834C836.667 505.358 834.032 514.752 830.851 523.966C825.04 540.68 816.219 559.456 803.789 569.925C800.684 572.491 797.379 574.805 793.906 576.847C771.887 590.014 738.096 598.593 719.118 600.402C716.612 600.644 714.369 600.765 712.449 600.765C693.461 600.765 675.666 590.094 675.666 590.094C675.666 590.094 675.029 581.859 674.221 572.643C673.564 565.175 672.776 557.05 672.109 552.129C670.139 537.497 676.858 528.402 676.858 528.402L766.865 404.23L770.574 399.107C770.574 399.107 800.232 414.527 814.46 432.323C818.773 437.824 822.611 443.683 825.93 449.835C828.569 454.634 830.954 459.569 833.074 464.619C835.435 470.121 837.301 475.823 838.652 481.656C839.632 486.153 839.935 490.023 839.37 492.822Z" fill="#E6FAFF"/>
<path d="M839.37 492.822C839.198 493.661 838.996 494.671 838.743 495.834C835.443 511.092 824.727 552.291 803.789 569.925C800.684 572.491 797.379 574.805 793.906 576.847C771.887 590.014 738.096 598.593 719.118 600.402C716.612 600.644 714.369 600.765 712.449 600.765C693.461 600.765 675.666 590.094 675.666 590.094C675.666 590.094 675.029 581.859 674.221 572.643C684.771 577.503 702.303 584.688 712.843 584.163C728.657 583.374 787.965 565.973 800.626 545.409C810.782 528.909 827.041 482.363 833.074 464.619C835.435 470.121 837.301 475.823 838.652 481.656C839.632 486.153 839.935 490.023 839.37 492.822Z" fill="#51DBFC"/>
<g style="mix-blend-mode:overlay" opacity="0.64">
<path d="M838.652 481.656C837.301 475.823 835.435 470.121 833.074 464.619C830.954 459.569 828.569 454.634 825.93 449.835C822.611 443.683 818.773 437.824 814.46 432.323C806.127 421.9 792.523 412.311 782.665 406.141C783.538 416.953 783.771 427.808 783.365 438.648C793.498 450.904 805.565 467.121 814.065 483.728C820.685 496.69 826.297 510.142 830.85 523.966C834.031 514.752 836.666 505.358 838.742 495.834C838.995 494.671 839.197 493.661 839.369 492.822C839.935 490.023 839.632 486.153 838.652 481.656Z" fill="white"/>
</g>
<g style="mix-blend-mode:multiply" opacity="0.26">
<path d="M793.903 576.847C771.884 590.014 738.093 598.593 719.115 600.402C716.609 600.644 714.366 600.765 712.446 600.765C693.458 600.765 675.663 590.094 675.663 590.094C675.663 590.094 673.592 563.114 672.106 552.129C670.136 537.497 676.855 528.402 676.855 528.402L770.571 399.107C770.571 399.107 765.671 456.666 768.711 488.386C771.129 513.568 787.328 559.142 793.903 576.847Z" fill="#3D4F9F"/>
</g>
<path d="M759.377 464.783C758.205 467.37 756.928 469.994 755.547 472.655C751.507 480.319 746.619 487.505 740.976 494.078C727.425 510.085 710.994 522.039 699.494 529.305C694.86 532.279 690.077 535.016 685.165 537.505C685.165 537.505 646.472 523.055 624.201 510.615C617.46 506.856 612.236 503.279 610.033 500.338L621.957 466.617L640.773 413.434L651.151 384.083L703.351 334.254C703.351 334.254 704.695 335.083 707.07 336.659C710.243 338.759 715.255 342.177 721.308 346.683C736.375 357.89 757.919 375.807 773.734 396.734C773.737 396.732 776.503 427.183 759.377 464.783Z" fill="#E6FAFF"/>
<g style="mix-blend-mode:overlay" opacity="0.64">
<path d="M759.377 464.783L757.649 468.183C757.649 468.183 764.511 417.041 760.287 410.715C756.063 404.389 724.303 376.562 724.303 376.562L721.311 346.683C736.378 357.89 757.922 375.807 773.737 396.734C773.737 396.732 776.503 427.183 759.377 464.783Z" fill="white"/>
</g>
<path d="M699.494 529.302C694.86 532.276 690.077 535.013 685.165 537.502C685.165 537.502 619.522 512.983 610.033 500.33L621.957 466.609C627.687 475.047 639.857 490.175 660.64 503.493C684.741 518.944 695.803 526.664 699.494 529.302Z" fill="#51DBFC"/>
<g style="mix-blend-mode:multiply" opacity="0.18">
<path d="M744.472 488.073C743.372 490.084 742.198 492.084 740.972 494.073C727.421 510.08 710.99 522.034 699.49 529.3C694.856 532.274 690.073 535.011 685.161 537.5C685.161 537.5 646.468 523.05 624.197 510.61L609.241 509.034L595.215 478.425L598.56 457.235L640.769 413.429L692.275 359.963C693.195 363.641 691.254 389.51 699.227 407.548C701.282 412.61 704.606 417.057 708.878 420.462C727.865 434.7 755.149 445.371 755.149 445.371C755.149 445.371 757.518 464.346 744.472 488.073Z" fill="#3D4F9F"/>
</g>
<path d="M707.073 336.657C706.84 343.903 706.386 353.257 705.507 363.597C704.344 378.364 702.248 393.043 699.231 407.545C697.978 413.295 696.531 418.893 694.876 424.168C693.613 428.149 692.218 431.949 690.692 435.486C673.301 475.815 624.261 510.617 624.261 510.617L624.201 510.607L609.245 509.031L595.219 478.422L553.768 387.961L549.887 379.483L535.687 348.49C535.687 348.49 540.517 312.627 552.107 288.567C552.926 286.859 553.785 285.212 554.674 283.646C568.114 259.919 582.352 259.13 591.053 259.919C592.376 260.04 595.873 261.414 600.875 263.678C622.449 273.429 671.954 299.778 695.136 313.547C701.775 317.498 706.261 320.408 707.302 321.6C707.303 321.6 707.366 327.411 707.073 336.657Z" fill="#E6FAFF"/>
<path d="M707.073 336.657C706.527 353.593 704.779 382.08 699.231 407.545C697.978 413.295 696.531 418.893 694.876 424.168C693.613 428.149 692.218 431.949 690.692 435.486C673.301 475.815 624.261 510.617 624.261 510.617L624.201 510.607L609.245 509.031C609.245 509.031 618.734 501.917 627.434 494.004C636.134 486.091 678.041 430.736 682.003 418.873C685.54 408.262 693.503 329.947 695.14 313.547C701.779 317.498 706.265 320.408 707.306 321.6C707.303 321.6 707.366 327.411 707.073 336.657Z" fill="#51DBFC"/>
<path d="M600.878 263.678C594.239 274.578 577.636 303.532 568.905 333.464C561.705 358.131 556.526 377.452 553.768 387.964L535.69 348.493C535.69 348.493 541.227 307.375 554.677 283.649C568.127 259.923 582.355 259.133 591.056 259.922C592.379 260.04 595.876 261.414 600.878 263.678Z" fill="#51DBFC"/>
<g style="mix-blend-mode:overlay" opacity="0.85">
<path d="M707.073 336.657C706.84 343.903 706.386 353.257 705.507 363.597C695.078 356.312 607.082 295.085 585.518 288.385C573.19 284.565 560.872 286.222 552.11 288.567C552.929 286.859 553.788 285.212 554.677 283.646C568.117 259.919 582.355 259.13 591.056 259.919C592.379 260.04 595.876 261.414 600.878 263.678C622.452 273.429 671.957 299.778 695.139 313.547C701.778 317.498 706.264 320.408 707.305 321.6C707.303 321.6 707.366 327.411 707.073 336.657Z" fill="white"/>
</g>
<g style="mix-blend-mode:multiply" opacity="0.18">
<path d="M694.876 424.168C693.613 428.149 692.218 431.949 690.692 435.486C673.301 475.815 624.261 510.617 624.261 510.617L624.201 510.607L609.245 509.031L595.219 478.422L553.768 387.961L549.887 379.483L558.628 357.983L581.557 335.843C581.557 335.843 621.098 367.472 649.575 388.824C669.209 403.543 686.216 417.145 694.876 424.168Z" fill="#3D4F9F"/>
</g>
<g style="mix-blend-mode:multiply" opacity="0.29">
<path d="M591.844 546.996C578 553.716 566.935 554.504 566.935 554.504L572.26 640.832C561.842 640.388 545.578 634.379 545.578 634.379C545.578 634.379 530.425 551.472 530.425 544.621C530.425 537.77 533.315 530.383 533.315 530.383L562.054 523.006L606.87 531.171C606.87 531.171 609.103 532.434 609.71 536.171C604.135 540.373 598.149 543.999 591.844 546.996Z" fill="#3D4F9F"/>
</g>
<path d="M613.196 431.524L611.896 452.007L611.482 458.607L606.874 531.172C601.939 536.164 595.772 539.762 588.998 541.601C580.51 543.945 571.627 543.571 563.523 541.985C560.783 541.451 558.072 540.78 555.399 539.974C547.684 537.666 540.272 534.447 533.319 530.384L532.531 452.089L558.188 445.551L613.196 431.524Z" fill="#E6FAFF"/>
<g style="mix-blend-mode:multiply" opacity="0.18">
<path d="M611.892 452.007L611.478 458.607C608.237 464.118 603.99 468.972 598.958 472.916C588.418 480.828 573.129 477.665 569.431 499.28C567.178 513.53 566.297 527.962 566.798 542.38L563.519 541.986C560.779 541.452 558.068 540.781 555.395 539.975C547.68 537.667 540.268 534.448 533.315 530.385L532.527 452.09L558.184 445.552L611.892 452.007Z" fill="#3D4F9F"/>
</g>
<path d="M619.684 423.935C619.663 425.249 619.603 426.462 619.522 427.573C617.935 447.349 604.495 461.573 604.495 461.573C591.844 475.811 539.651 463.16 539.651 463.16C539.651 463.16 525.751 449.204 522.421 428.65C522.361 428.297 522.3 427.933 522.25 427.569C520.411 414.705 521.825 397.569 523.856 382.915C526.191 366.029 529.364 352.437 529.364 352.437C537.145 342.342 545.946 336.825 554.657 334.188C564.58 331.176 574.402 331.873 582.517 333.723C589.392 335.292 595.997 337.87 602.117 341.372C606.088 346.546 609.817 357.611 612.808 370.372C617.147 388.87 619.936 410.95 619.684 423.935Z" fill="#51DBFC"/>
<g style="mix-blend-mode:multiply" opacity="0.38">
<path d="M619.684 423.935C619.663 425.249 619.603 426.462 619.522 427.573C617.935 447.349 604.495 461.573 604.495 461.573C591.844 475.811 539.651 463.16 539.651 463.16C539.651 463.16 525.751 449.204 522.421 428.65C526.464 418.219 533.934 409.472 543.603 403.846C563.62 392.407 608.881 393.256 619.684 423.935Z" fill="#3D4F9F"/>
</g>
<path d="M585.255 381.183C566.803 376.434 554.142 380.658 554.142 380.658L554.657 334.195C564.58 331.183 574.402 331.88 582.517 333.73L585.255 381.183Z" fill="#CE49B5"/>
<g style="mix-blend-mode:overlay" opacity="0.64">
<path d="M602.121 341.376C606.092 346.55 609.821 357.615 612.812 370.376C595.825 357.482 567.066 356.532 547.29 363.252C537.237 366.543 528.842 373.588 523.856 382.917C526.191 366.031 529.364 352.439 529.364 352.439C537.145 342.344 545.946 336.827 554.657 334.19C564.58 331.178 574.402 331.875 582.517 333.725C589.393 335.295 595.999 337.873 602.121 341.376Z" fill="white"/>
</g>
<path d="M591.581 542.509C591.581 546.576 590.375 550.552 588.115 553.934C585.856 557.315 582.644 559.951 578.887 561.508C575.129 563.064 570.994 563.471 567.005 562.678C563.016 561.884 559.352 559.926 556.476 557.05C553.6 554.174 551.642 550.51 550.848 546.521C550.055 542.532 550.462 538.397 552.018 534.639C553.575 530.882 556.211 527.67 559.592 525.411C562.974 523.151 566.95 521.945 571.017 521.945C573.719 521.939 576.396 522.467 578.894 523.498C581.391 524.53 583.661 526.044 585.571 527.955C587.482 529.866 588.996 532.135 590.028 534.632C591.059 537.13 591.587 539.807 591.581 542.509Z" fill="#ED6EC9"/>
<g style="mix-blend-mode:multiply" opacity="0.18">
<path d="M566.53 277.32L544.39 377.755C544.39 377.755 523.038 411.755 506.435 419.671C498.26 423.561 476.494 423.046 452.635 412.476C440.234 406.97 428.805 399.494 418.793 390.336C405.687 378.381 393.611 362.395 384.638 341.376C384.638 341.366 384.628 341.356 384.628 341.346C385.613 330.564 385.528 319.711 384.375 308.946C380.161 275.205 427.075 230.388 468.733 236.189C510.391 241.99 535.69 284.689 547.29 285.744C557.39 286.664 563.49 275.215 564.904 272.224C566.056 275.41 566.53 277.32 566.53 277.32Z" fill="#3D4F9F"/>
</g>
<g style="mix-blend-mode:multiply" opacity="0.22">
<path d="M585.619 556.983C583.236 559.387 580.296 561.166 577.06 562.161C573.825 563.157 570.393 563.338 567.071 562.688C563.749 562.039 560.638 560.579 558.015 558.438C555.393 556.298 553.339 553.543 552.037 550.418C550.734 547.293 550.224 543.895 550.551 540.526C550.877 537.156 552.031 533.92 553.909 531.103C555.787 528.286 558.331 525.977 561.316 524.38C564.301 522.783 567.634 521.947 571.019 521.948C572.464 521.946 573.905 522.095 575.319 522.393C572.045 525.748 561.909 536.934 566.81 542.381C571.623 547.754 582.678 549.755 585.619 556.983Z" fill="#3D4F9F"/>
</g>
<g style="mix-blend-mode:multiply" opacity="0.18">
<path d="M501.686 348.49C501.686 348.49 492.986 369.843 470.057 394.358C462.245 402.704 456.637 408.485 452.635 412.476C440.234 406.97 428.805 399.494 418.793 390.336L501.686 348.49Z" fill="#3D4F9F"/>
</g>
<path d="M388.794 349.875C388.794 349.875 373.303 338.058 373.303 318.967C373.303 317.912 376.203 308.158 376.203 308.158C376.203 308.158 382.467 338.803 388.794 349.875Z" fill="#B3549E"/>
<path d="M507.749 341.114C506.668 342.872 505.513 344.6 504.283 346.297C487.296 369.903 457.728 386.708 439.145 395.56C429.161 400.33 422.345 402.795 422.345 402.795C387.017 386.455 384.38 347.965 384.38 347.965C388.735 346.165 393.151 344.265 397.557 342.276C422.588 330.998 447.598 317.296 463.23 308.353C473.144 302.684 479.288 298.935 479.288 298.935L497.788 326.36L499.253 328.523L507.749 341.114Z" fill="#30385F"/>
<path d="M464.121 309.74L454.631 304.204L474.003 252.8C474.003 252.8 494.169 252.4 514.336 272.175L471.261 311.416L464.121 309.74Z" fill="#CE49B5"/>
<g style="mix-blend-mode:multiply" opacity="0.39">
<path d="M504.283 346.297C487.296 369.903 457.728 386.708 439.145 395.56C434.937 393.165 430.905 390.473 427.079 387.506C413.458 377.169 400.25 348.406 397.552 342.276C422.583 330.998 447.593 317.296 463.225 308.353L497.785 326.36L498.785 326.875L499.249 328.523L504.283 346.297Z" fill="#30385F"/>
</g>
<path d="M520.984 335.133C529.888 324.326 526.133 306.525 512.598 295.374C499.062 284.223 480.872 283.945 471.968 294.752C463.065 305.56 466.82 323.361 480.355 334.511C493.89 345.662 512.081 345.941 520.984 335.133Z" fill="#7FD0E9"/>
<path d="M514.585 342.899C523.489 332.092 519.734 314.291 506.199 303.14C492.663 291.989 474.473 291.711 465.569 302.518C456.666 313.326 460.421 331.127 473.956 342.277C487.491 353.428 505.682 353.707 514.585 342.899Z" fill="#51DBFC"/>
<g style="mix-blend-mode:multiply" opacity="0.56">
<path d="M504.761 339.006C510.845 331.621 508.279 319.457 499.03 311.837C489.781 304.217 477.351 304.027 471.267 311.412C465.183 318.797 467.749 330.961 476.998 338.581C486.247 346.2 498.677 346.391 504.761 339.006Z" fill="#1A2550"/>
</g>
<path d="M506.134 337.339C512.218 329.954 509.652 317.79 500.403 310.17C491.154 302.55 478.724 302.36 472.64 309.745C466.556 317.13 469.122 329.294 478.371 336.914C487.62 344.533 500.05 344.724 506.134 337.339Z" fill="#3690A4"/>
<path d="M429.929 363.001L411.229 358.214L408.047 374.653" stroke="#7FD0E9" stroke-width="3.122" stroke-miterlimit="10"/>
<path d="M370.378 653.828L414.358 529.86L413.844 522.916L391.211 548.121L367.035 643.797L370.378 653.828Z" fill="#E6FAFF"/>
<path d="M274.959 646.37L278.817 653.057L370.378 653.829L369.092 648.683L368.063 646.111L274.959 646.37Z" fill="#79959C"/>
<path d="M274.959 646.37L334.37 522.783H394.535L362.147 647.913L274.959 646.37Z" fill="#E6FAFF"/>
<path d="M361.89 640.454L318.167 639.94L364.462 532.947L391.21 531.918L361.89 640.454Z" fill="#B7D7E3"/>
<path d="M369.092 648.683L413.843 522.917L416.158 443.444L362.147 560.725L369.092 648.683Z" fill="#E6FAFF"/>
<path d="M362.147 560.724L352.888 559.181L406.127 442.672L416.158 443.444L362.147 560.724Z" fill="#79959C"/>
<path d="M352.888 559.183L362.147 647.915L369.091 648.687L362.147 560.727L352.888 559.183Z" fill="#59767D"/>
<path d="M322.411 560.338L305.822 594.288L332.056 593.517L347.102 561.111L322.411 560.338Z" fill="#B7D7E3"/>
<path d="M393.01 561.11C397.697 561.11 401.497 551.956 401.497 540.663C401.497 529.37 397.697 520.216 393.01 520.216C388.323 520.216 384.523 529.37 384.523 540.663C384.523 551.956 388.323 561.11 393.01 561.11Z" fill="#B7D7E3"/>
<g style="mix-blend-mode:multiply" opacity="0.39">
<path d="M469.717 673.482C472.387 664.052 465.669 653.893 454.712 650.792C443.756 647.69 432.71 652.82 430.04 662.25C427.371 671.68 434.089 681.838 445.045 684.94C456.002 688.042 467.048 682.912 469.717 673.482Z" fill="#30385F"/>
</g>
<path d="M470.449 616.352C470.317 616.465 470.185 616.597 470.049 616.71C469.861 616.879 469.673 617.03 469.484 617.199C469.084 617.499 468.684 617.799 468.284 618.099C468.058 618.268 467.851 618.399 467.644 618.551C467.061 618.927 466.458 619.285 465.818 619.643C465.611 619.756 465.404 619.869 465.196 619.963C465.083 620.037 464.964 620.1 464.839 620.151C464.349 620.396 463.839 620.641 463.313 620.851C462.523 621.19 461.713 621.51 460.885 621.774C460.602 621.868 460.32 621.962 460.018 622.056C459.774 622.131 459.51 622.207 459.265 622.282C459.209 622.301 459.152 622.301 459.096 622.32C458.87 622.395 458.625 622.433 458.396 622.508C457.907 622.64 457.396 622.753 456.89 622.847C456.664 622.903 456.438 622.941 456.212 622.997C455.892 623.054 455.572 623.11 455.252 623.148C454.969 623.205 454.668 623.242 454.386 623.299C453.52 623.411 452.616 623.506 451.712 623.581C451.429 623.6 451.128 623.619 450.827 623.619L449.584 623.675V622.15L469.484 609.93L474.719 606.73H422.36L422.642 609.253L423.395 615.693L424.77 627.48L428.87 662.821H468.581L468.656 662.162L469.556 654.48V654.443L474.263 610.986C473.892 611.893 473.425 612.757 472.87 613.565C472.168 614.58 471.356 615.515 470.449 616.352Z" fill="#EEF0F3"/>
<path d="M475.103 606.483L474.719 606.721L469.486 609.93L449.586 622.157V623.671C449.303 623.68 449.02 623.68 448.728 623.68C437.96 623.68 428.696 619.522 424.612 613.568C423.691 612.268 423.026 610.804 422.651 609.255C422.458 608.424 422.36 607.574 422.359 606.721C422.359 597.356 434.176 589.77 448.728 589.77C463.168 589.773 474.912 597.232 475.103 606.483Z" fill="#ACBAC2"/>
<path d="M469.487 609.933L449.587 622.16V623.674C449.304 623.683 449.021 623.683 448.729 623.683C437.961 623.683 428.697 619.525 424.613 613.571C426.802 610.57 429.751 608.207 433.156 606.724C438.067 604.565 443.374 603.45 448.739 603.45C454.103 603.45 459.41 604.565 464.321 606.724C466.169 607.575 467.905 608.653 469.487 609.933Z" fill="#FF6EA9"/>
<path d="M468.593 662.826C468.592 664.021 468.337 665.202 467.846 666.291C465.575 671.491 458.308 675.345 449.583 675.573C449.3 675.591 449.017 675.591 448.734 675.591C437.766 675.591 428.876 669.874 428.876 662.826C428.876 655.778 437.766 650.052 448.734 650.052C449.017 650.052 449.3 650.052 449.583 650.07C459.567 650.334 467.645 655.349 468.511 661.695C468.566 662.069 468.593 662.447 468.593 662.826Z" fill="#EEF0F3"/>
<path d="M446.64 612.797L454.175 571.353" stroke="#EEF0F3" stroke-width="4.162" stroke-miterlimit="10"/>
<path d="M472.879 613.562C472.175 614.578 471.362 615.514 470.453 616.352C470.326 616.47 470.189 616.589 470.053 616.708C469.871 616.872 469.679 617.036 469.488 617.191C469.297 617.346 469.096 617.51 468.895 617.656C468.694 617.802 468.495 617.966 468.284 618.112C468.073 618.258 467.856 618.412 467.637 618.549C467.062 618.932 466.452 619.297 465.822 619.643C465.613 619.762 465.412 619.871 465.202 619.972C465.084 620.035 464.965 620.09 464.838 620.154C464.345 620.4 463.844 620.637 463.315 620.854C462.531 621.191 461.715 621.502 460.881 621.775C460.598 621.875 460.315 621.967 460.023 622.049C459.768 622.131 459.513 622.204 459.258 622.277C459.203 622.295 459.148 622.304 459.093 622.322C458.866 622.386 458.628 622.441 458.4 622.505C457.908 622.632 457.4 622.751 456.887 622.851L456.212 622.988C455.902 623.052 455.583 623.106 455.264 623.152C454.972 623.207 454.671 623.243 454.38 623.289C453.513 623.416 452.62 623.507 451.717 623.571C451.425 623.599 451.124 623.617 450.833 623.626C450.422 623.644 450.003 623.663 449.584 623.672V622.158L469.484 609.931C470.782 610.975 471.925 612.197 472.879 613.562Z" fill="#FF6EA9"/>
<path d="M474.72 606.724L474.265 610.981C473.899 611.889 473.434 612.755 472.879 613.562C471.926 612.198 470.784 610.976 469.487 609.933L474.72 606.724Z" fill="#ACBAC2"/>
<g style="mix-blend-mode:multiply" opacity="0.22">
<path d="M472.879 613.562C473.434 612.755 473.899 611.889 474.265 610.981L469.565 654.446V654.474L468.507 661.695L468.343 662.826L467.843 666.291C465.572 671.491 458.305 675.345 449.58 675.573V623.673C449.999 623.664 450.418 623.645 450.829 623.627C451.12 623.618 451.421 623.6 451.713 623.572C452.613 623.508 453.513 623.417 454.376 623.29C454.667 623.244 454.968 623.208 455.26 623.153C455.579 623.107 455.898 623.053 456.208 622.989L456.883 622.852C457.393 622.752 457.904 622.633 458.396 622.506C458.624 622.442 458.862 622.387 459.089 622.323C459.144 622.305 459.199 622.296 459.254 622.278C459.509 622.205 459.764 622.132 460.019 622.05C460.311 621.968 460.594 621.876 460.877 621.776C461.715 621.503 462.527 621.192 463.311 620.855C463.84 620.636 464.341 620.399 464.834 620.155C464.961 620.091 465.08 620.036 465.198 619.973C465.408 619.873 465.609 619.763 465.818 619.644C466.448 619.298 467.058 618.933 467.633 618.55C467.852 618.414 468.061 618.268 468.28 618.113C468.499 617.958 468.691 617.813 468.891 617.657C469.091 617.501 469.291 617.357 469.484 617.192C469.677 617.027 469.867 616.873 470.049 616.709C470.186 616.59 470.323 616.471 470.449 616.353C471.359 615.515 472.174 614.579 472.879 613.562Z" fill="#79959C"/>
</g>
<path d="M475.113 606.724C475.111 608.185 474.823 609.631 474.265 610.981L474.72 606.724L475.104 606.486C475.112 606.565 475.115 606.645 475.113 606.724Z" fill="#ACBAC2"/>
</svg>
