<?xml version="1.0" encoding="iso-8859-1"?>
<!-- Generator: Adobe Illustrator 19.0.0, SVG Export Plug-In . SVG Version: 6.00 Build 0)  -->
<svg version="1.1" id="Layer_1" xmlns="http://www.w3.org/2000/svg" xmlns:xlink="http://www.w3.org/1999/xlink" x="0px" y="0px"
	 viewBox="0 0 509.824 509.824" style="enable-background:new 0 0 509.824 509.824;" xml:space="preserve">
<g>
	<g>
		<g>
			<path d="M425.579,254.912c0-11.776,9.536-21.333,21.333-21.333h62.912c-4.523-54.571-26.155-104.277-59.605-143.808
				l-44.459,44.459c-4.16,4.181-9.621,6.251-15.083,6.251c-5.461,0-10.901-2.069-15.083-6.251c-8.32-8.32-8.32-21.824,0-30.165
				l44.459-44.459C380.544,26.155,330.816,4.523,276.245,0v62.912c0,11.776-9.536,21.333-21.333,21.333
				c-11.797,0-21.333-9.557-21.333-21.333V0C179.008,4.523,129.28,26.155,89.771,59.605l44.459,44.459
				c8.32,8.341,8.32,21.845,0,30.165c-4.181,4.181-9.621,6.251-15.083,6.251c-5.461,0-10.923-2.069-15.083-6.251L59.605,89.792
				C26.155,129.301,4.523,179.008,0,233.579h62.912c11.797,0,21.333,9.557,21.333,21.333s-9.536,21.333-21.333,21.333H0
				c4.523,54.571,26.155,104.277,59.605,143.808l44.459-44.459c8.32-8.341,21.824-8.341,30.165,0c8.32,8.32,8.32,21.824,0,30.165
				l-44.459,44.459c39.531,33.451,89.237,55.083,143.808,59.605v-62.912c0-11.776,9.536-21.333,21.333-21.333
				c11.797,0,21.333,9.557,21.333,21.333v62.912c54.571-4.523,104.299-26.155,143.808-59.605l-44.459-44.459
				c-8.32-8.341-8.32-21.845,0-30.165c8.341-8.341,21.845-8.341,30.165,0l44.459,44.459c33.451-39.531,55.083-89.237,59.605-143.808
				h-62.912C435.115,276.245,425.579,266.688,425.579,254.912z M254.912,382.912c-70.592,0-128-57.408-128-128s57.408-128,128-128
				c35.157,0,67.051,14.272,90.219,37.291c0.085,0.085,0.192,0.107,0.277,0.192s0.107,0.213,0.192,0.299
				c23.04,23.147,37.312,55.04,37.312,90.219C382.912,325.504,325.504,382.912,254.912,382.912z"/>
			<path d="M269.995,269.995c-4.16,4.16-9.621,6.251-15.083,6.251c-5.461,0-10.923-2.091-15.083-6.251
				c-8.341-8.32-8.341-21.824,0-30.165l58.155-58.155c-12.693-7.509-27.285-12.096-43.072-12.096
				c-47.061,0-85.333,38.272-85.333,85.333s38.272,85.333,85.333,85.333s85.333-38.272,85.333-85.333
				c0-15.787-4.608-30.379-12.096-43.072L269.995,269.995z"/>
		</g>
	</g>
</g>
<g>
</g>
<g>
</g>
<g>
</g>
<g>
</g>
<g>
</g>
<g>
</g>
<g>
</g>
<g>
</g>
<g>
</g>
<g>
</g>
<g>
</g>
<g>
</g>
<g>
</g>
<g>
</g>
<g>
</g>
</svg>
