<?xml version="1.0" encoding="UTF-8"?>
<svg xmlns="http://www.w3.org/2000/svg" width="61.6" height="58.49" viewBox="0 0 61.6 58.49">
  <defs>
    <style>
      .cls-1 {
        fill: #c17027;
      }

      .cls-2 {
        opacity: .56;
      }

      .cls-2, .cls-3, .cls-4, .cls-5 {
        fill: #bf6693;
        mix-blend-mode: multiply;
      }

      .cls-6 {
        fill: #fff42c;
      }

      .cls-6, .cls-7 {
        mix-blend-mode: overlay;
      }

      .cls-7 {
        fill: #ffdfb0;
        opacity: .17;
      }

      .cls-8 {
        fill: #db8e3a;
      }

      .cls-9 {
        isolation: isolate;
      }

      .cls-10 {
        fill: #e5a86c;
      }

      .cls-11 {
        fill: #ddb26c;
      }

      .cls-3 {
        opacity: .53;
      }

      .cls-12 {
        fill: #ffdc4a;
      }

      .cls-4 {
        opacity: .38;
      }

      .cls-13 {
        fill: #a9d13b;
      }

      .cls-14 {
        fill: #af5a46;
      }

      .cls-15 {
        fill: #ffce00;
      }

      .cls-16 {
        fill: #8e4335;
      }

      .cls-5 {
        opacity: .21;
      }
    </style>
  </defs>
  <g class="cls-9">
    <g id="Layer_2" data-name="Layer 2">
      <g id="Layer_1-2" data-name="Layer 1">
        <g>
          <g>
            <path class="cls-1" d="M58.11,33.13c0,.18-.01,.35-.02,.52,0,.04,0,.09-.02,.13-.06,6.63-3.09,12.64-7.99,17.08-5.19,4.71-12.49,7.63-20.57,7.63s-15.1-2.82-20.27-7.37c-.15-.13-.3-.26-.44-.4-3.62-3.33-6.2-7.54-7.28-12.22,0-.03-.01-.06-.02-.09-.23-1.01-.39-2.04-.47-3.08h0s-.26-3.45-.06-5.39c0,0,0-.02,0-.03,.03-.07,.14-.14,.33-.2,.07-.37,.14-.74,.22-1.1h0c.03-.11,.05-.22,.08-.33,.11-.44,.23-.87,.36-1.29,.01-.04,.02-.07,.03-.11,.11-.35,.23-.7,.36-1.05,.12-.33,.25-.66,.39-.98,.06-.14,.12-.28,.18-.42,.33-.73,.7-1.45,1.11-2.15,.1-.17,.2-.33,.3-.5,.55-.9,1.17-1.77,1.84-2.6,0-.01,.02-.02,.03-.04,5.17-6.36,13.68-10.52,23.3-10.52,1.41,0,2.79,.09,4.15,.26,.25,.03,.5,.07,.75,.11,4.31,.65,8.28,2.14,11.69,4.27,.38,.24,.76,.49,1.13,.74,.97,.67,1.9,1.4,2.76,2.18,1.88,1.69,3.49,3.62,4.77,5.72,0,.01,.02,.03,.03,.04,.48,.8,.91,1.62,1.29,2.46,.08,.18,.16,.37,.24,.55,.04,.1,.08,.2,.12,.29,.07,.18,.15,.36,.21,.55,.05,.14,.1,.28,.15,.42,.07,.21,.15,.43,.21,.64,0,.02,.01,.04,.02,.06h0c.03,.1,.06,.2,.09,.31,.29,.96,.51,1.94,.66,2.95,0,0,.01,0,.02,0h0c.13,0,.21,0,.23,0h0s0,.03,0,.1h0c0,.14,.02,.42,.03,.77h0c.01,.57,.03,1.33,0,2.05Z"/>
            <ellipse class="cls-10" cx="29.52" cy="30.66" rx="28.55" ry="24.92"/>
            <path class="cls-4" d="M56.29,36.58c-.22,2.95-1.27,5.84-2.99,8.26-.9,1.26-2,2.42-2.58,3.86-.28,.7-.43,1.44-.64,2.16-5.19,4.71-12.49,7.63-20.57,7.63s-15.1-2.82-20.27-7.37c-.32-.86-.58-1.75-.95-2.59-1.39-3.22-4.23-5.72-5.26-9.07l3.92-4.95c12.32-4.06,25.61-5.13,38.42-3.1,3.24,.51,6.49,1.23,9.41,2.71,.54,.27,1.11,.61,1.36,1.16,.18,.4,.17,.86,.14,1.3Z"/>
            <path class="cls-13" d="M58.13,31.01s-.01,.05-.02,.07h0s-.03,.08-.04,.12c-.19,.59-.41,1.17-.65,1.76-.08,.21-.16,.41-.25,.62h0s0,0,0,0c0,0,0,0,0,0h0c-.28,.71-.56,1.42-.78,2.14,0,0,0,0,0,0-.03,.09-.06,.19-.08,.28h0c-.03,.11-.06,.22-.09,.33-.53,2.05-.52,4.24-1.55,6.13,0,0,0,0,0,0h0c-.03,.06-.07,.12-.1,.18-.13,.21-.26,.42-.41,.62,0,0,0,0,0,0-.75,1-1.76,1.8-2.89,2.52-.25,.16-.5,.31-.76,.46-.12,.07-.25,.15-.37,.22-.17,.1-.35,.2-.52,.29-.14,.08-.28,.16-.43,.24-.08,.04-.16,.09-.24,.13-.24,.13-.48,.26-.72,.39-.16,.09-.32,.17-.47,.26,0,0,0,0,0,0-.07,.04-.14,.08-.21,.11,0,0,0,0,0,0-.24,.13-.47,.27-.71,.41-.1,.06-.2,.12-.3,.18-.04,.02-.08,.05-.11,.07-.07,.04-.14,.09-.21,.13-.08,.05-.16,.1-.24,.15-.05,.03-.09,.06-.14,.09-.08,.05-.15,.1-.23,.16-.1,.07-.19,.13-.29,.2-.05,.04-.11,.08-.16,.12-.05,.04-.1,.07-.14,.11-.06,.04-.11,.09-.17,.13,0,0,0,0,0,0,0,0,0,0,0,0-.05,.04-.11,.08-.16,.13-.03,.03-.07,.05-.1,.08,0,0,0,0,0,0-.05,.05-.11,.09-.16,.14-.06,.05-.12,.1-.18,.15-.06,.06-.13,.12-.19,.17-1.21,1.15-2.15,2.61-3.77,3.3-.93,.39-1.99,.48-3.02,.56-3.31,.25-6.63,.5-9.94,.75-1.41,.11-2.86,.21-4.22-.12-.06-.01-.11-.03-.17-.04-.04-.01-.09-.02-.13-.04-.03,0-.06-.02-.09-.03-.14-.04-.27-.09-.4-.14-.04-.01-.08-.03-.12-.05-.04-.02-.08-.03-.12-.05,0,0,0,0,0,0-.08-.03-.16-.07-.23-.1-.07-.03-.14-.06-.2-.09-.03-.02-.06-.03-.1-.05-.07-.03-.13-.07-.19-.1-.05-.03-.1-.05-.14-.08-.03-.02-.07-.04-.1-.05-.04-.02-.07-.04-.11-.06-.04-.02-.08-.05-.11-.07-.86-.52-1.65-1.15-2.45-1.78-.12-.1-.24-.19-.36-.28-.06-.05-.13-.1-.19-.14h0c-.13-.1-.26-.2-.39-.3-.06-.04-.12-.09-.17-.13-.02-.02-.05-.04-.07-.05-.05-.04-.11-.08-.16-.11-.06-.05-.13-.09-.2-.13-.06-.04-.13-.08-.19-.13-.02-.01-.03-.02-.05-.03-.06-.04-.12-.07-.17-.11-.06-.04-.11-.07-.17-.1-.02-.01-.04-.03-.06-.04-.05-.03-.09-.05-.14-.08,0,0-.02-.01-.03-.02-.02-.01-.04-.03-.07-.04-.06-.03-.11-.06-.17-.09-.06-.03-.13-.07-.19-.1-.04-.02-.09-.04-.13-.07-.21-.1-.42-.2-.64-.29-.04-.02-.08-.03-.12-.05-.15-.06-.3-.12-.45-.18-.1-.04-.21-.08-.32-.12-.13-.05-.27-.1-.4-.15h0c-.07-.03-.14-.05-.21-.08-.07-.03-.14-.05-.21-.08-.68-.25-1.35-.51-1.98-.84-.04-.02-.08-.04-.12-.06-.04-.02-.09-.05-.13-.07-.05-.03-.1-.06-.15-.09-.13-.08-.26-.15-.39-.24-.08-.05-.15-.1-.23-.16-.13-.09-.26-.19-.38-.29-.04-.03-.08-.06-.12-.1-.04-.03-.07-.06-.11-.1-.04-.03-.08-.07-.12-.1-.04-.03-.07-.06-.11-.1-.04-.03-.07-.07-.11-.1-.04-.03-.07-.07-.11-.1-.03-.03-.06-.06-.09-.09-.02-.02-.04-.05-.07-.07-.03-.03-.06-.07-.09-.1-.02-.02-.04-.04-.06-.06-.03-.03-.06-.06-.09-.09-.1-.11-.2-.23-.3-.35-.03-.04-.06-.08-.09-.11-.03-.04-.06-.08-.09-.12-.09-.11-.18-.23-.27-.35-.03-.04-.06-.08-.09-.12-.15-.2-.29-.4-.43-.6-.05-.08-.11-.16-.16-.24-.14-.21-.28-.42-.42-.63-.05-.07-.09-.14-.14-.21-.09-.13-.18-.26-.27-.4-.06-.08-.11-.16-.17-.24s-.11-.16-.17-.24c-.03-.04-.06-.08-.09-.12-.06-.08-.12-.16-.18-.24-.03-.04-.06-.08-.09-.12-.06-.08-.12-.16-.18-.23-.03-.04-.06-.07-.09-.11-.1-.12-.19-.23-.29-.34-.03-.03-.06-.07-.09-.1-.07-.08-.14-.15-.21-.23-.03-.03-.05-.06-.08-.08-.04-.04-.09-.09-.13-.13-.03-.03-.05-.05-.08-.08-.12-.11-.24-.22-.36-.33-.33-.28-.68-.54-1.04-.8-.04-.03-.08-.06-.13-.09-.06-.04-.11-.08-.17-.12-.45-.33-.89-.67-1.26-1.07-.03-.04-.07-.07-.1-.11,0,0-.01-.02-.02-.02C.1,36.9-.14,34.72,.06,32.71c.21-2.07,.81-4.11,.77-6.18-.03-1.37-.34-2.76-.04-4.11,.2-.87,.66-1.69,1.33-2.37,0,0,0,0,0,0,.11-.12,.23-.23,.36-.33,.19-.16,.39-.31,.61-.46,.04-.03,.08-.06,.12-.08,.52-.36,1.09-.69,1.6-1.04,.02-.01,.04-.02,.05-.04,0,0,0,0,0,0,.04-.03,.09-.06,.13-.09h0c.06-.04,.11-.08,.17-.13,.68-.51,1.23-1.1,1.38-1.87,0-.02,0-.05,.01-.07,0-.03,0-.06,.01-.1,.01-.11,.02-.21,.02-.32,0-.15,0-.3-.02-.44-.02-.2-.04-.39-.05-.59-.02-.26-.03-.52,.01-.78,0,0,0,0,0,0,.13-.86,.71-1.53,1.49-2.06,.32-.22,.67-.42,1.04-.6,.57-.28,1.18-.52,1.77-.73h.08s.63-.07,.63-.07c.1-.02,.19-.03,.28-.04,.16-.02,.3-.05,.42-.07h0c.23-.04,.41-.06,.57-.09,.3-.05,.53-.09,.91-.15,.12-.02,.26-.04,.43-.07h0c.13-.02,.28-.04,.45-.07,1.53-.24,3.08-.47,4.52-.98,.21-.08,.42-.16,.63-.24,.35-.14,.69-.3,1.03-.46h0c1.53-.73,3.01-1.56,4.7-1.9,3.87-.77,7.71,1.26,11.66,1.54,1.22,.09,2.48,.01,3.68,.14h0c.11,.01,.21,.03,.32,.04h0c.44,.06,.87,.16,1.29,.31,.07,.03,.14,.05,.21,.08,.35,.14,.67,.3,.98,.49,.4,.25,.78,.53,1.15,.82h0c.26,.21,.52,.43,.78,.65h0c.54,.45,1.09,.91,1.68,1.29,.24,.15,.49,.29,.74,.43,.03,.02,.06,.03,.1,.05h0c.3,.16,.62,.31,.93,.45h0c.46,.21,.92,.41,1.36,.63h0c.35,.17,.68,.34,1.01,.53,.49,.29,.94,.61,1.32,1,0,0,0,0,.01,.01,1.12,1.14,1.52,2.62,1.89,4.12,.04,.17,.08,.35,.13,.52,0,0,0,0,0,0,.03,.13,.06,.25,.1,.38,0,0,0,0,0,0,.17,.67,.37,1.33,.66,1.96,.03,.05,.05,.11,.08,.16t0,0c.07,.15,.15,.29,.23,.44,.31,.56,.67,1.09,1.03,1.62h0c.1,.15,.2,.29,.3,.44h0c.07,.11,.15,.22,.22,.33,.23,.36,.45,.73,.63,1.11t0,0h0c.15,.32,.29,.65,.39,.98,.13,.44,.2,.88,.22,1.32,.05,.99-.15,1.99-.46,2.98Z"/>
            <path class="cls-4" d="M55.13,36.71c-.25,2-1.35,3.69-1.93,5.6-.34,1.1-.68,2.2-1.56,3.12-.12,.13-.25,.25-.37,.37-2.36,1.5-5.23,2.65-7.22,4.53-1.21,1.15-2.15,2.61-3.77,3.3-.93,.39-1.99,.48-3.02,.56-3.31,.25-6.63,.5-9.94,.75-1.41,.11-2.86,.21-4.22-.12-2.89-.71-4.72-3.16-7.29-4.52-1.74-.92-3.8-1.34-5.43-2.41-2.75-1.8-3.7-5.08-6.15-7.18-.37-.32-.77-.6-1.17-.89-.98-1.19-1.21-2.57-1.08-4.17,.12-1.5,.52-3.55,1.6-4.65,.78-.8,2-1.26,3.02-1.64,2.1-.79,4.27-1.48,6.47-1.91,3.26-.63,6.61-.84,9.91-1.23,4-.48,7.96-1.06,11.98-.52l20.17,11.02Z"/>
            <path class="cls-16" d="M57.05,30.82c0,.06-.02,.12-.05,.18-.01,.23-.03,.45-.05,.67-.16,1.76-.54,3.47-1.11,5.11-1.88,5.38-5.87,9.95-11.12,13-4.36,2.53-9.58,4-15.2,4-.78,0-1.55-.03-2.32-.08-5.01-.36-9.64-1.9-13.53-4.3-.05-.03-.1-.06-.15-.09-6.32-3.94-10.64-10.17-11.4-17.29-.04-.18-.38-2.16-.09-6.03,.02-.22,.16-.41,.42-.58,.28-1.34,.69-2.64,1.22-3.9,.38-.91,.82-1.79,1.32-2.64,4.55-7.79,13.83-13.13,24.53-13.13,13.83,0,25.28,8.91,27.23,20.51h.28s.16,3.52,.02,4.57Z"/>
            <path class="cls-14" d="M3.02,20.07c-1,3.6-1.33,6.55-.68,10.31,.18,1.05,.63,1.99,.87,3.03,.29,1.32,.23,2.71,1.03,3.87,1.15,1.68,2.14,3.56,3.72,4.87,2.04,1.7,3.69,3.85,6.03,5.2s5.19,2.56,7.79,2.82c2.5,.25,5.05,.61,7.55,.76,1.39,.08,2.66-.23,4.01-.41,1.57-.21,3.17-.13,4.7-.6,2.22-.68,5.16-1.55,7.12-2.81,1.12-.72,2.4-1.44,3.45-2.23,.91-.68,1.18-1.6,1.84-2.51,2.9-4.01,6.38-7.98,6.11-13.31-.08-1.53,.07-3.37-.27-4.87-.41-1.78-.93-3.53-1.25-5.41-.22-1.31-.9-2.2-1.52-3.36-.78-1.43-1.18-2.75-2.44-3.79-1.9-1.58-3.88-2.62-5.92-3.97-1.38-.91-2.58-1.73-4.15-2.31-3.01-1.1-6.51-.32-9.58-1.49-1.16-.44-1.76-.94-2.99-.89-1.55,.06-2.98,.41-4.57,.43-2.01,.02-3.86,1.2-5.83,1.65-2.24,.51-4.37,1.92-6.24,3.22-1.54,1.07-2.64,2.84-4.02,4.13s-2.56,2.86-3.57,4.53c-.5,.83-1.35,2.23-1.19,3.13Z"/>
            <ellipse class="cls-14" cx="29.52" cy="27.06" rx="26.74" ry="23.34"/>
            <path class="cls-14" d="M14.88,8.07C8.8,11.8,3.59,17.71,2.77,24.75c-.67,5.76,1.69,11.54,5.25,16.13,.71,.91,1.47,1.79,2.3,2.6,3.61,3.54,8.47,5.69,13.48,6.48,5.01,.79,10.17,.27,15.07-1.03,1.71-.45,3.41-1.01,4.95-1.87,2.22-1.24,4.04-3.08,5.78-4.93,1.18-1.26,2.35-2.55,3.24-4.02,1.97-3.27,2.42-7.22,2.39-11.03-.02-2.15-.18-4.31-.72-6.39-1.85-7.06-8.12-12.47-15.16-14.53-7.05-2.05-14.71-1.1-21.62,1.39l-2.86,.52Z"/>
            <path class="cls-3" d="M29.62,43.55c.71,1.11,1.26,3.03,2.28,3.84,1.85,1.47,1.27-.98,.94-1.89-1.21-3.41-3.14-6.74-5.06-9.86-2.19-3.55-4.33-7.05-6.68-10.51-.56-.82-4.44-8.05-5.66-6.7-.93,1.03,.8,4.03,1.27,4.89,1.22,2.21,2.56,4.36,3.82,6.54,2.32,4.01,4.93,7.85,7.25,11.84l1.84,1.84Z"/>
            <path class="cls-3" d="M25.94,14.77c-.07,1.35,1.94,3.35,2.61,4.55,1.52,2.72,2.36,5.74,3.65,8.56,1.69,3.72,2.79,7.67,4.58,11.36,.53,1.1,2.11,4.45,3.67,4.32,.88-.07,1.6-1.41,1.5-2.19s-.9-1.87-1.23-2.63c-.66-1.52-1.1-3.13-1.7-4.67-1.29-3.34-1.76-6.92-3.08-10.23-1.46-3.67-4.36-6.33-6.65-9.45-.41-.57-1.89-2.93-2.75-2.98-1.32-.07-1.57,2.39-.6,2.93v.43Z"/>
            <path class="cls-4" d="M3.21,19.64c-.53-.07,1.01,2.93,1.17,3.4,.52,1.46,1.03,2.84,1.7,4.24,1.78,3.67,3.15,7.58,4.75,11.35,1.38,3.26,2.8,6.43,4.41,9.58,.73,1.42,1.5,2.62,2.9,3.3,.65,.32,1.18,.92,1.83,.42,.15-.12,.39-.9,.56-1.13,.28-.38,.65-.71,1.03-1.02,2.32-1.9,5.14-3.18,7.75-4.58,4.66-2.5,9.68-4.24,14.49-6.48,2.11-.99,4.26-1.91,6.38-2.77,1.82-.74,3.37-1.99,5.23-2.59,.39-.13,.68-.26,1.13-.22,.08-.33,.31-.82,.33-1.13,.07-1.69-2.15-3.44-3.46-4.38-5.71-4.11-13.71-5.29-20.39-6.79-5.27-1.18-10.78-2.89-16.18-3.37l-13.64,2.16Z"/>
            <path class="cls-3" d="M35.57,10.66c1.83,3.16,3.84,6.22,5.67,9.38s2.34,7.07,3.79,10.52c.71,1.69,1.46,3.38,2.16,5.08,.3,.72,.48,1.65,.99,2.25,.74,.87,1.38,.7,1.89-.39,1.33-2.87-.56-4.86-1.61-7.36-1.26-2.98-1.62-6.12-3.06-9.06-1.32-2.69-2.99-5.33-4.96-7.58-.28-.32-4.36-5.84-4.87-3.39v.54Z"/>
            <path class="cls-4" d="M54.15,38.2c-.92,2.49-2.62,3.92-4.38,5.82-1.22,1.33-2.89,2.46-3.86,3.99-.41,.65-.66,1.21-1.19,1.76-4.36,2.53-9.58,4-15.2,4-.78,0-1.55-.03-2.32-.08-5.01-.36-9.64-1.9-13.53-4.3-.05-.03-.1-.06-.15-.09-.57-.79-1.05-1.66-1.61-2.6-.6-1.02-1.31-1.82-2.15-2.66-.66-.65-1.98-1.8-2.21-2.72-.52-2.01,2.13-3.49,3.51-4.24,2.52-1.38,5.45-1.84,8.2-2.54,3.17-.82,6.29-1.45,9.55-1.82,3.04-.34,6.04-.51,9.09-.5,2.11,0,4.25-.2,6.3,.44,1.79,.56,2.82,2.39,4.75,2.73l5.2,2.81Z"/>
            <path class="cls-12" d="M58.19,33.16s-.64-.34-2.03-.22c-.24,.02-.5,.05-.78,.1-1.94,.35-24.27,10.03-32.5,14.86-1.08,.6-1.87,1.14-2.46,1.62-1.31,1.06-1.63,1.81-1.85,2.24l-.32,.63s-1-1.95-2.35-4.66c-2.4-4.79-5.91-11.94-6.98-14.84-1.95-5.29-5.88-14.1-5.88-14.1,0,0,.32-.75,1.3-1.99C6.73,13.82,13.01,7.97,28.21,2.84c0,0,7.19,.14,11.13,1.31,0,0,10.45,6.9,17.57,20.32h0c.06,.12,.13,.25,.19,.37,.07,.14,.14,.28,.22,.42,.96,4.09,.87,7.9,.87,7.9Z"/>
            <path class="cls-2" d="M58.19,33.16s-.64-.34-2.03-.22c.18-.62,.38-1.23,.53-1.85,.54-2.16,.61-4.43,.22-6.62,.06,.12,.13,.25,.19,.37,.07,.14,.14,.28,.22,.42,.96,4.09,.87,7.9,.87,7.9Z"/>
            <path class="cls-2" d="M20.43,49.54c-1.31,1.06-1.63,1.81-1.85,2.24l-.32,.63s-1-1.95-2.35-4.66c1.33,.95,2.9,1.57,4.53,1.78Z"/>
            <path class="cls-8" d="M58.01,27.42c0,.06,0,.12,0,.18,0,0,0,0,0,0,0,.08,0,.17,0,.25h0c0,.11,0,.22-.01,.32h0s0,.05,0,.07c0,.1,0,.19-.01,.29,0,0,0,0,0,0,0,.04,0,.08,0,.13,0,.08,0,.17-.02,.25,0,0,0,.02,0,.03,0,.04,0,.08,0,.12,0,.12-.02,.25-.03,.37-.02,.24-.05,.48-.07,.73,0,.01,0,.03,0,.04-.01,.12-.03,.25-.05,.37,0,.07-.02,.14-.03,.21-.01,.08-.02,.16-.04,.25,0,.02,0,.04,0,.06-.01,.1-.03,.19-.05,.29-.01,.07-.03,.15-.04,.22,0,.06-.02,.12-.03,.17-.02,.11-.04,.21-.06,.32-.01,.07-.03,.14-.04,.21-.02,.07-.03,.14-.05,.22-.01,.05-.02,.1-.03,.15-.02,.08-.04,.16-.06,.24,0,.01,0,.03-.01,.04,0,.04-.02,.07-.03,.1,0,.03-.02,.07-.03,.1-.01,.06-.03,.11-.04,.17-.02,.09-.05,.17-.07,.25,0,0,0,0,0,0h0s-.02,.08-.03,.12c-.02,.07-.04,.13-.06,.2-.02,.08-.05,.16-.07,.24,0,0,0,.02,0,.03-.03,.09-.06,.18-.09,.28,0,0,0,.02,0,.02-.03,.08-.06,.17-.09,.25,0,.01,0,.02-.01,.03-.03,.08-.06,.16-.09,.24-.01,.03-.02,.06-.03,.09-.03,.07-.05,.13-.08,.2,0,.02-.01,.03-.02,.05-.06,.14-.12,.27-.18,.4-.02,.03-.03,.07-.05,.1-.01,.03-.03,.06-.04,.09,0,0,0,0,0,0-.03,.06-.06,.12-.09,.18,0,0,0,.01,0,.02-.04,.07-.07,.15-.11,.22,0,0,0,0,0,0-.02,.04-.04,.07-.06,.11-.02,.04-.04,.08-.06,.11-.02,.03-.03,.06-.05,.09-.04,.07-.07,.13-.11,.2h0s0,.02-.01,.02c-.38,.65-.79,1.29-1.21,1.91-1.58,2.3-3.49,4.39-5.69,6.1-1.8,1.4-3.8,2.55-5.97,3.35-.88,.33-1.8,.59-2.73,.79-1.74,.38-3.6,.7-5.5,.93-1.45,.17-2.92,.29-4.38,.34-1.7,.05-3.4,0-5.03-.19-.6-.07-1.2-.16-1.78-.27-.53-.1-1.06-.21-1.59-.35-.36-.09-.71-.18-1.07-.29-1.79-.52-3.56-1.22-5.26-2.09-.41-.21-.81-.42-1.2-.65-.47-.27-.94-.55-1.4-.85-.35-.23-.7-.46-1.03-.7-1.66-1.18-3.18-2.54-4.46-4.04-.36-.42-.7-.86-1.03-1.3-.51-.71-1.11-1.47-1.7-2.28-.4-.55-.81-1.12-1.19-1.71-.46-.72-.88-1.45-1.22-2.21,0-.02-.02-.04-.02-.05-.01-.03-.03-.06-.04-.09-.47-1.09-.74-2.21-.68-3.33-.02-.21-.03-.42-.04-.62h0s0-.05,0-.07c0-.07,0-.14-.01-.2,0-.05,0-.1,0-.15,0-.08,0-.16-.01-.24,0,0,0,0,0,0h0c0-.14-.01-.28-.02-.41,0-.07,0-.15,0-.22,0-.07,0-.14,0-.21,0-.05,0-.09,0-.13,0-.03,0-.07,0-.1,0-.07,0-.14,0-.21,0-.34,0-.67,0-1,0-.12,0-.24,0-.36,0-.03,0-.06,0-.09,0-.09,0-.18,0-.27,0-.11,0-.22,.01-.32,0-.03,0-.06,0-.09,0-.1,0-.19,.01-.29,.01-.24,.02-.47,.04-.7,0-.1,.01-.19,.02-.29,0-.02,0-.05,0-.07,0-.11,.02-.22,.03-.33,0-.1,.02-.2,.03-.3,0-.01,0-.03,0-.04,0-.03,0-.05,0-.08,0-.09,.02-.17,.03-.26,.01-.11,.03-.23,.04-.34,.01-.11,.03-.22,.04-.33,.01-.1,.03-.2,.04-.31,0-.02,0-.03,0-.05,0-.07,.02-.14,.03-.21,0-.02,0-.03,0-.05,0-.06,.02-.11,.03-.17,0-.05,.02-.1,.02-.15,0-.02,0-.04,0-.06,0-.01,0-.03,0-.04,0-.02,0-.04,0-.06,.01-.07,.02-.14,.04-.21,.01-.08,.03-.17,.04-.25,.02-.09,.03-.18,.05-.27,0-.04,.02-.09,.02-.13,0-.03,.01-.06,.02-.09,0-.02,0-.03,0-.05,0-.01,0-.02,0-.03,0,0,0,0,0,0,0,0,0,0,0-.02,.02-.08,.03-.16,.05-.23,0-.02,0-.04,.01-.06,0-.01,0-.02,0-.03,.02-.1,.04-.2,.07-.3,0-.02,0-.03,.01-.05h0s0,0,0-.01c.03-.11,.05-.22,.08-.33,.01-.04,.02-.09,.03-.13,.02-.08,.04-.15,.06-.23,0-.02,0-.03,.01-.05,0-.02,.01-.04,.02-.06,.02-.08,.04-.15,.06-.23,0-.03,.01-.05,.02-.07,0,0,0,0,0,0,0-.02,0-.03,.01-.05,0-.01,0-.03,.01-.04,.03-.09,.05-.19,.08-.28,.03-.09,.05-.17,.08-.26,0-.01,0-.03,.01-.04,0-.02,.01-.04,.02-.06,0-.02,.01-.04,.02-.06,0-.03,.02-.06,.03-.1,.01-.04,.02-.07,.03-.11,0-.03,.02-.06,.03-.1,0-.01,0-.02,.01-.04,0-.02,.01-.04,.02-.05,.02-.06,.04-.13,.06-.19,0-.03,.02-.05,.03-.08,.02-.06,.04-.12,.06-.18,.02-.05,.04-.11,.06-.16,0,0,0-.01,0-.02,.01-.04,.03-.08,.04-.12,.02-.07,.05-.14,.07-.21,0,0,0-.01,0-.02h0s.01-.04,.02-.05c.03-.08,.06-.17,.09-.25,0-.02,.01-.03,.02-.04,0,0,0,0,0,0,0,0,0-.02,.01-.03,.04-.11,.08-.21,.13-.32,.02-.04,.03-.08,.05-.12,.01-.04,.03-.07,.05-.11,.02-.04,.03-.08,.05-.11,.04-.1,.09-.21,.13-.31,0,0,0-.02,.01-.02,0,0,0,0,0,0,.04-.09,.08-.18,.12-.27,.02-.04,.03-.07,.05-.11,.04-.09,.09-.19,.13-.28,0,0,0,0,0-.02,.05-.11,.1-.22,.16-.33,.05-.11,.11-.22,.16-.32,.05-.1,.1-.2,.16-.3,0,0,0-.01,.01-.02,0,0,0-.02,.01-.03,.05-.1,.11-.2,.16-.29,.12-.21,.24-.42,.36-.62,.06-.1,.12-.21,.19-.31,.06-.1,.13-.2,.19-.3,0,0,0,0,0-.01,.06-.1,.13-.19,.19-.29h0c.07-.1,.13-.2,.2-.3,.07-.1,.14-.2,.2-.29h0c.13-.19,.27-.37,.41-.55,.02-.03,.05-.06,.07-.09,.04-.06,.09-.11,.13-.17,.02-.02,.03-.04,.05-.06,.06-.08,.12-.16,.19-.24,0-.01,.02-.02,.03-.03,.07-.08,.14-.17,.21-.25,0,0,0,0,.01-.01,.08-.09,.15-.18,.23-.27,.08-.09,.15-.18,.23-.26,0,0,0,0,0,0,0,0,0,0,0,0,.08-.09,.16-.17,.24-.26,.07-.08,.15-.16,.22-.24l.02-.02s0,0,0,0c.07-.08,.15-.16,.23-.23,0,0,.01-.01,.02-.02,.07-.07,.14-.14,.21-.21,.01-.02,.03-.03,.05-.04h0s.01-.01,.02-.02c.08-.08,.16-.16,.24-.23,0,0,.01-.01,.02-.02,.08-.07,.16-.15,.24-.22,0,0,0,0,0,0h0s0,0,0,0c.08-.07,.16-.14,.24-.22,.02-.02,.03-.03,.05-.05,.06-.06,.13-.12,.2-.17,.18-.16,.37-.31,.56-.46,.03-.03,.07-.05,.1-.08,.02-.02,.05-.04,.07-.06,.03-.03,.07-.05,.1-.08,.04-.03,.07-.06,.11-.09,.05-.04,.11-.08,.16-.12,.04-.03,.08-.06,.12-.09,.08-.06,.17-.13,.26-.19,3.11-2.28,6.95-3.91,11.47-4.83,6.28-1.28,18.45-1.09,23.71,3.03,2.77,2.17,4.97,4.43,6.77,7.08,.7,1.04,1.34,2.13,1.94,3.31,.34,.68,.67,1.39,.98,2.12,.05,.11,.09,.22,.13,.33,.03,.06,.05,.12,.07,.19,0,.01,.01,.03,.02,.04,.03,.09,.07,.18,.1,.27,.01,.04,.03,.07,.04,.11,.03,.07,.05,.15,.08,.23,0,0,0,0,0,.01,.03,.08,.06,.16,.08,.24,0,.02,.02,.05,.02,.07,.02,.07,.05,.14,.07,.2,.01,.04,.03,.08,.04,.13,.02,.07,.05,.15,.07,.22,0,.02,.01,.04,.02,.06,0,.01,0,.03,.01,.04,.03,.09,.06,.19,.08,.28h0c.03,.09,.05,.18,.08,.27,0,.02,0,.04,.02,.05,0,.02,0,.03,.01,.05,.02,.09,.05,.18,.07,.26,0,0,0,0,0,0,.02,.09,.05,.18,.07,.28,0,.04,.02,.08,.03,.12,.01,.05,.02,.1,.04,.15,0,.02,.01,.05,.02,.07,0,.02,0,.03,.01,.05,.03,.11,.05,.22,.08,.34,0,.02,.01,.05,.02,.07,.02,.07,.03,.13,.04,.2,0,.01,0,.02,0,.03,0,.01,0,.02,0,.04,.02,.11,.05,.22,.07,.33,0,0,0,0,0,.01,0,.02,0,.05,.01,.07,.02,.09,.04,.18,.05,.27,0,0,0,0,0,0,.02,.08,.03,.15,.04,.23,0,.02,0,.03,0,.05,0,.02,0,.04,.01,.07,.02,.11,.04,.22,.05,.32,0,0,0,.02,0,.03,0,.01,0,.02,0,.03,.01,.07,.02,.14,.03,.21,0,.02,0,.03,0,.05,0,.02,0,.04,0,.06,.03,.2,.06,.39,.08,.59,0,0,0,.02,0,.03,0,.05,.01,.1,.02,.15,0,.01,0,.02,0,.03,0,.07,.02,.14,.03,.22,0,.02,0,.04,0,.06,.01,.09,.02,.19,.03,.28,0,0,0,0,0,.01,.01,.13,.03,.27,.04,.4,0,0,0,.02,0,.02,.01,.13,.02,.26,.03,.4,.01,.13,.02,.27,.03,.4,0,.02,0,.03,0,.05,0,.13,.02,.26,.02,.39,0,.11,.01,.22,.02,.33,0,.03,0,.05,0,.08,0,0,0,.02,0,.03,0,.12,0,.24,.01,.37,0,.01,0,.03,0,.04,0,0,0,.02,0,.03,0,.1,0,.19,0,.29,0,.29,0,.57,0,.86Z"/>
            <path class="cls-4" d="M58.01,27.42c0,.06,0,.12,0,.18,0,0,0,0,0,0,0,.08,0,.17,0,.25h0c0,.11,0,.22-.01,.32h0s0,.05,0,.07c0,.1,0,.19-.01,.29,0,0,0,0,0,0,0,.04,0,.08,0,.13,0,.08,0,.17-.02,.25,0,0,0,.02,0,.03,0,.04,0,.08,0,.12,0,.12-.02,.25-.03,.37-.02,.24-.04,.48-.07,.73,0,.01,0,.03,0,.04-.01,.12-.03,.25-.05,.37,0,.07-.02,.14-.03,.21-.01,.08-.02,.16-.04,.25,0,.02,0,.04,0,.06-.01,.1-.03,.19-.05,.29-.01,.07-.03,.15-.04,.22,0,.06-.02,.12-.03,.17-.02,.11-.04,.21-.06,.32-.01,.07-.03,.14-.04,.21-.02,.07-.03,.14-.05,.22-.01,.05-.02,.1-.03,.15-.02,.08-.04,.16-.06,.24,0,.01,0,.03,0,.04h0s-.02,.07-.03,.1c0,.03-.02,.07-.03,.1-.01,.06-.03,.11-.04,.17-.02,.09-.05,.17-.07,.25t0,0s0,0,0,0c-.01,.04-.03,.08-.04,.13-.02,.07-.04,.13-.06,.2-.02,.08-.05,.16-.07,.24,0,0,0,.02,0,.03-.03,.09-.06,.18-.09,.28,0,0,0,.02,0,.02-.03,.08-.06,.17-.09,.25,0,.01,0,.02-.01,.03-.03,.08-.06,.16-.09,.24-.01,.03-.02,.06-.03,.09-.03,.07-.05,.13-.08,.2,0,.02-.01,.03-.02,.05-.06,.13-.11,.27-.17,.4-.02,.04-.03,.07-.05,.11-.01,.03-.03,.06-.04,.09,0,0,0,0,0,0-.03,.06-.06,.12-.09,.18,0,0,0,.01,0,.02-.04,.07-.07,.15-.11,.22,0,0,0,0,0,0-.02,.04-.04,.07-.06,.11-.02,.04-.04,.08-.06,.11-.02,.03-.03,.06-.05,.09-.04,.07-.07,.13-.11,.2h0s0,.02-.01,.02c-.38,.65-.79,1.29-1.21,1.91-1.58,2.3-3.49,4.39-5.69,6.1-1.8,1.4-3.8,2.55-5.97,3.35-.88,.33-1.8,.59-2.73,.79-1.74,.38-3.6,.7-5.5,.93-1.45,.17-2.92,.29-4.38,.34-1.7,.05-3.4,0-5.03-.19-.6-.07-1.2-.16-1.78-.27-.53-.1-1.06-.21-1.59-.35-.36-.09-.71-.18-1.07-.29-1.79-.52-3.56-1.22-5.26-2.09-.41-.21-.81-.42-1.2-.65-.47-.27-.94-.55-1.4-.85-.35-.23-.7-.46-1.03-.7-1.66-1.18-3.18-2.54-4.46-4.04-.36-.42-.7-.86-1.03-1.3-.51-.71-1.11-1.47-1.7-2.28-.4-.55-.81-1.12-1.19-1.71-.46-.72-.88-1.45-1.22-2.21,0-.02-.02-.04-.02-.05-.01-.03-.03-.06-.04-.09-.47-1.09-.74-2.21-.68-3.33-.02-.21-.03-.42-.04-.62h0s0-.05,0-.07c0-.07,0-.14-.01-.2,0-.05,0-.1,0-.15,0-.06,0-.12,0-.18,0-.02,0-.04,0-.06,0,0,0,0,0,0h0c0-.11,0-.22-.01-.32,0-.03,0-.06,0-.09,0-.07,0-.15,0-.22,0-.07,0-.14,0-.21,0-.05,0-.09,0-.13,0-.03,0-.07,0-.1,0-.03,0-.06,0-.09,0-.04,0-.08,0-.12,0-.07,0-.13,0-.2,0-.08,0-.16,0-.25,0-.03,0-.05,0-.08,0-.04,0-.08,0-.12,0-.12,0-.24,0-.36v-.07c0-.1,0-.19,0-.29,0-.03,0-.06,0-.09,0-.09,0-.18,0-.27,0-.11,0-.22,.01-.32,0-.03,0-.06,0-.09,0-.1,0-.19,.01-.29,.01-.24,.02-.47,.04-.7,0-.1,.01-.19,.02-.29,0-.02,0-.05,0-.07,0-.11,.02-.22,.03-.33,0-.1,.02-.2,.03-.3,0-.01,0-.03,0-.04,0-.03,0-.05,0-.08,0-.09,.02-.17,.03-.26,.01-.11,.03-.23,.04-.34,0,0,0,0,0,0,.01-.11,.03-.22,.04-.33,0-.02,0-.05,0-.07,.01-.08,.02-.16,.03-.24,0-.02,0-.03,0-.05,0-.04,.01-.08,.02-.12,0-.03,0-.06,.01-.09,0-.07,.02-.15,.03-.22,0-.05,.02-.1,.02-.15,0-.02,0-.04,0-.06h0s0-.03,0-.04c0-.02,0-.04,0-.06,0-.06,.02-.11,.03-.17,0-.01,0-.03,0-.04,.01-.08,.03-.17,.04-.25,.02-.09,.03-.18,.05-.27,0-.04,.02-.09,.02-.13,0-.03,.01-.06,.02-.09,0-.02,0-.03,0-.05,0-.01,0-.02,0-.03,0,0,0,0,0,0,.02-.08,.03-.17,.05-.25,0-.02,0-.04,.01-.06,.03-.13,.05-.25,.08-.38,0,0,0,0,0-.01,.03-.11,.05-.22,.08-.33,.01-.04,.02-.09,.03-.13,.02-.08,.04-.15,.06-.23,0-.02,0-.03,.01-.05,0-.02,.01-.04,.02-.06,.03-.1,.05-.2,.08-.3,0,0,0,0,0,0,0-.02,0-.03,.01-.05,.03-.11,.06-.21,.09-.32,0,0,0,0,0,0,.03-.09,.05-.17,.08-.26,0-.01,0-.03,.01-.04,0-.02,.01-.04,.02-.06,0-.02,.01-.04,.02-.06,0-.03,.02-.06,.03-.1,.01-.04,.02-.07,.03-.11,0-.03,.02-.06,.03-.1,0-.01,0-.02,.01-.04,.03-.11,.07-.22,.11-.32,.02-.06,.04-.12,.06-.18,.02-.05,.04-.11,.06-.16,0,0,0-.01,0-.02,.01-.04,.03-.08,.04-.12,.03-.07,.05-.15,.08-.22,.04-.12,.09-.23,.13-.35,0,0,0-.02,.01-.03,.13-.33,.26-.65,.4-.97,0,0,0-.02,.01-.02,.04-.09,.08-.18,.12-.27,.02-.04,.03-.07,.05-.11,.04-.09,.09-.19,.13-.28,0,0,0,0,0-.02,.1-.22,.21-.43,.32-.65,0,0,0,0,0,0,.06-.11,.11-.21,.17-.32,0,0,0-.02,.01-.03,.05-.1,.11-.2,.16-.29,.12-.21,.24-.42,.36-.62,.06-.1,.12-.21,.19-.31,.06-.1,.13-.2,.19-.3,.06-.1,.13-.2,.2-.3h0c.07-.1,.13-.2,.2-.3,.07-.1,.14-.2,.2-.29h0c.13-.19,.27-.37,.41-.55,.02-.03,.05-.06,.07-.09,.04-.06,.09-.11,.13-.17,.02-.02,.03-.04,.05-.06,.06-.08,.12-.16,.19-.24,0-.01,.02-.02,.03-.03,.07-.09,.15-.18,.22-.26h0c.08-.09,.15-.18,.23-.27,.08-.09,.15-.18,.23-.26,0,0,0,0,0,0,.08-.09,.16-.18,.24-.26,0,0,0,0,0,0,.08-.09,.16-.17,.25-.26,0,0,0,0,0,0,.08-.09,.16-.17,.25-.25,.07-.07,.14-.14,.21-.21,.01-.02,.03-.03,.05-.04,0,0,.01-.01,.02-.02,.08-.08,.16-.16,.24-.23,0,0,.01-.01,.02-.02,.08-.07,.16-.15,.24-.22,0,0,0,0,0,0,.08-.07,.16-.14,.24-.22,.02-.02,.03-.03,.05-.05,.06-.06,.13-.12,.2-.17,.18-.16,.37-.31,.56-.46,.03-.03,.07-.05,.1-.08,.02-.02,.05-.04,.07-.06,.03-.03,.07-.05,.1-.08,.04-.03,.07-.06,.11-.09,.05-.04,.11-.08,.16-.12,.04-.03,.08-.06,.12-.09,.08-.06,.17-.13,.26-.19-1.24,1.93-2.3,3.98-3.12,6.1-.11,.28-.21,.56-.31,.84-.16,.44-.3,.88-.44,1.32-.05,.17-.1,.34-.15,.51-.07,.26-.14,.52-.21,.79-.04,.16-.08,.32-.12,.48,0,.03-.01,.06-.02,.09-.06,.27-.12,.54-.17,.8-.18,.89-.32,1.79-.4,2.7,0,.01,0,.02,0,.03-.15,1.61-.15,3.22,.02,4.81,.16,1.53,.49,3.04,.98,4.51,.06,.18,.12,.36,.19,.54,.09,.24,.18,.47,.28,.71h0c.14,.33,.28,.66,.43,.98,.46,.99,1.02,1.95,1.66,2.89,.42,.62,.88,1.22,1.38,1.81,.33,.39,.67,.76,1.02,1.11,.91,.91,1.91,1.7,2.97,2.4h0c2.64,1.72,5.71,2.82,8.89,3.42,1.64,.31,3.31,.48,4.97,.54,.94,.03,1.87,.03,2.79-.02,.31-.01,.62-.03,.93-.05,.65-.05,1.29-.11,1.92-.19,.22-.03,.44-.06,.66-.09,.99-.14,1.99-.37,2.98-.66,1.16-.34,2.32-.78,3.44-1.3,2.12-.97,4.13-2.2,5.87-3.56,.02-.02,.05-.04,.07-.05,.01,0,.02-.02,.03-.03,.56-.44,1.07-.93,1.54-1.45,.05-.06,.1-.11,.15-.17,.34-.38,.65-.78,.95-1.19,.02-.02,.03-.05,.05-.07,.32-.45,.62-.92,.91-1.4,.93-1.57,1.66-3.28,2.26-4.98,.02-.06,.04-.12,.06-.18,.45-1.27,.77-2.57,.97-3.88,.09-.58,.16-1.16,.2-1.74,0-.02,0-.05,0-.07,.02-.33,.04-.65,.05-.98,0-.18,0-.36,.01-.54,0-.23,0-.45,0-.68,0,0,0,0,0,0,0-.05,0-.1,0-.15,0-.14,0-.28-.02-.42-.02-.49-.06-.98-.11-1.46-.02-.23-.05-.46-.08-.68-.12-.92-.29-1.84-.51-2.75-.28-1.15-.63-2.28-1.05-3.39,.7,1.04,1.34,2.13,1.94,3.31,.34,.68,.67,1.39,.98,2.12,.05,.11,.09,.22,.13,.33,.03,.08,.06,.15,.09,.23,.03,.09,.07,.18,.1,.27,.01,.04,.03,.07,.04,.11,.03,.07,.05,.15,.08,.23,0,0,0,0,0,.01,.03,.08,.06,.16,.08,.24,0,.02,.02,.05,.02,.07,.02,.07,.05,.14,.07,.2,.01,.04,.03,.08,.04,.13,.02,.07,.05,.15,.07,.22,0,.02,.01,.04,.02,.06,0,.01,0,.03,.01,.04,.03,.09,.06,.19,.08,.28h0c.03,.09,.05,.18,.08,.27,0,.02,0,.04,.02,.05,0,.02,0,.03,.01,.05,.02,.09,.05,.18,.07,.26,0,0,0,0,0,0,.02,.09,.05,.18,.07,.28,0,.04,.02,.08,.03,.12,.01,.05,.02,.1,.04,.15,0,.02,.01,.05,.02,.07,0,.02,0,.03,.01,.05,.03,.11,.05,.22,.08,.34,0,.02,.01,.05,.02,.07,.02,.08,.03,.15,.05,.23,0,.01,0,.02,0,.04,.02,.11,.05,.22,.07,.33,0,0,0,0,0,.01,0,.02,0,.05,.01,.07,.02,.09,.04,.18,.05,.27,0,0,0,0,0,0,.02,.09,.04,.19,.05,.28,0,.02,0,.04,.01,.07,.02,.11,.04,.22,.05,.32,0,0,0,.02,0,.03,0,.01,0,.02,0,.03,.01,.07,.02,.14,.03,.21,0,.02,0,.03,0,.05,0,.02,0,.04,0,.06,.03,.2,.06,.39,.08,.59,0,0,0,.02,0,.03,0,.03,0,.06,.01,.1h0s0,.04,0,.05c0,.01,0,.02,0,.03,0,.07,.02,.14,.03,.22,0,.02,0,.04,0,.06,.01,.09,.02,.19,.03,.28,0,0,0,0,0,.01,.01,.13,.03,.27,.04,.4,0,0,0,.02,0,.02,.01,.12,.02,.24,.03,.36,0,.01,0,.02,0,.03,0,.11,.02,.22,.03,.33,0,.02,0,.05,0,.07,0,.02,0,.03,0,.05,0,.13,.02,.26,.02,.39,0,.11,.01,.22,.02,.33h0s0,.05,0,.08c0,0,0,.02,0,.03,0,.12,0,.24,.01,.37,0,.01,0,.03,0,.04,0,0,0,.02,0,.03,0,.1,0,.19,0,.29,0,.29,0,.57,0,.86Z"/>
            <ellipse class="cls-11" cx="13.4" cy="14.25" rx=".57" ry=".88" transform="translate(-2.57 2.95) rotate(-11.48)"/>
            <ellipse class="cls-11" cx="34.01" cy="8.3" rx=".57" ry=".88" transform="translate(-.97 6.94) rotate(-11.48)"/>
            <ellipse class="cls-11" cx="21.34" cy="17.61" rx=".57" ry=".88" transform="translate(-3.08 4.6) rotate(-11.48)"/>
            <ellipse class="cls-11" cx="28.97" cy="35.02" rx=".57" ry=".88" transform="translate(-6.39 6.47) rotate(-11.48)"/>
            <ellipse class="cls-11" cx="36.69" cy="38.45" rx=".57" ry=".88" transform="translate(-6.92 8.07) rotate(-11.48)"/>
            <ellipse class="cls-11" cx="33.25" cy="28.99" rx=".57" ry=".88" transform="translate(-5.1 7.2) rotate(-11.48)"/>
            <ellipse class="cls-11" cx="39.74" cy="14.56" rx=".57" ry=".88" transform="translate(-2.1 8.2) rotate(-11.48)"/>
            <ellipse class="cls-11" cx="46.69" cy="13.64" rx=".57" ry=".88" transform="translate(-1.78 9.56) rotate(-11.48)"/>
            <ellipse class="cls-11" cx="16.84" cy="27.69" rx=".57" ry=".88" transform="translate(-5.17 3.9) rotate(-11.48)"/>
            <ellipse class="cls-11" cx="38.98" cy="25.47" rx=".88" ry=".57" transform="translate(-7.48 28.67) rotate(-37.11)"/>
            <ellipse class="cls-11" cx="26.23" cy="24.48" rx=".88" ry=".57" transform="translate(-9.46 20.78) rotate(-37.11)"/>
            <ellipse class="cls-11" cx="10.65" cy="26.69" rx=".88" ry=".57" transform="translate(-13.95 11.83) rotate(-37.11)"/>
            <ellipse class="cls-11" cx="25.92" cy="11.81" rx=".88" ry=".57" transform="translate(-1.87 18.03) rotate(-37.11)"/>
            <ellipse class="cls-11" cx="13.09" cy="21.81" rx=".88" ry=".57" transform="translate(-12.16 24.89) rotate(-65.98)"/>
            <ellipse class="cls-11" cx="46.53" cy="27" rx=".88" ry=".57" transform="translate(2.93 58.52) rotate(-65.98)"/>
            <ellipse class="cls-11" cx="23.4" cy="31.12" rx=".88" ry=".57" transform="translate(-14.55 39.83) rotate(-65.98)"/>
            <ellipse class="cls-11" cx="15.46" cy="33.11" rx=".88" ry=".57" transform="translate(-21.07 33.76) rotate(-65.98)"/>
            <ellipse class="cls-11" cx="30.96" cy="18.91" rx=".88" ry=".57" transform="translate(1.09 39.49) rotate(-65.98)"/>
            <ellipse class="cls-11" cx="40.5" cy="32.19" rx=".88" ry=".57" transform="translate(-5.39 56.09) rotate(-65.98)"/>
            <ellipse class="cls-11" cx="45.92" cy="19.37" rx=".88" ry=".57" transform="translate(9.54 53.43) rotate(-65.98)"/>
            <ellipse class="cls-11" cx="43.25" cy="8.3" rx=".88" ry=".57" transform="translate(18.07 44.43) rotate(-65.98)"/>
            <ellipse class="cls-11" cx="20.27" cy="7.84" rx=".88" ry=".57" transform="translate(4.86 23.16) rotate(-65.98)"/>
            <path class="cls-7" d="M58.01,27.42c0,.06,0,.12,0,.18,0,0,0,0,0,0,0,.08,0,.17,0,.25h0c0,.11,0,.22-.01,.32h0s0,.05,0,.07c0,.1,0,.19-.01,.29,0,0,0,0,0,0,0,.04,0,.08,0,.13,0,.08,0,.17-.02,.25,0,0,0,.02,0,.03,0,.04,0,.08,0,.12,0,.12-.02,.25-.03,.37-.02,.24-.05,.48-.07,.73-.08-1.33-.34-2.66-.59-3.98,0,0,0,0,0,0-.03-.18-.07-.36-.1-.55-.05-.27-.1-.54-.14-.8-.01-.08-.03-.15-.04-.23-.04-.25-.09-.51-.14-.76h0c-.07-.38-.15-.75-.24-1.13-.38-1.6-.89-3.16-1.52-4.71-.15-.36-.29-.72-.44-1.06-.39-.9-.78-1.75-1.23-2.56-.86-1.55-1.91-2.95-3.44-4.27-1.84-1.59-3.97-2.64-6.23-3.39-.55-.18-1.11-.35-1.67-.5-.37-.1-.74-.19-1.11-.27-1.46-.34-2.94-.59-4.4-.82-6.75-1.04-13.97-.65-20.1,2.66,0,0,0,0,0,0-1.24,.67-2.45,1.42-3.61,2.24-1.93,1.37-3.72,2.95-5.28,4.71-.27,.3-.53,.61-.78,.92-.07,.09-.14,.18-.21,.27-.49,.63-.96,1.27-1.39,1.94-.24,.37-.47,.75-.69,1.13-.07,.13-.15,.25-.22,.38-.02,.03-.04,.06-.05,.1-.16,.3-.32,.6-.47,.91-.09,.19-.18,.39-.27,.58-.08,.19-.17,.37-.25,.56,0,0,0,0,0,0-.49,1.16-.88,2.36-1.16,3.61-.23,1.02-.38,2.07-.45,3.14,0,0,0,0,0,0-.02,.33-.04,.66-.04,.99,0-.02,0-.05,0-.07,0-.07,0-.14-.01-.2,0-.05,0-.1,0-.15,0-.06,0-.12,0-.18,0-.02,0-.04,0-.06h0c0-.11,0-.21-.01-.32,0-.03,0-.06,0-.09,0-.07,0-.15,0-.22,0-.07,0-.14,0-.21,0-.05,0-.09,0-.13,0-.03,0-.07,0-.1,0-.03,0-.06,0-.09,0-.11,0-.21,0-.32,0-.08,0-.16,0-.25,0-.03,0-.05,0-.08,0-.04,0-.08,0-.12,0-.14,0-.29,0-.43,0-.1,0-.19,0-.29,0-.03,0-.06,0-.09,0-.09,0-.18,0-.27,0-.11,0-.22,.01-.32,0-.03,0-.06,0-.09,0-.1,0-.19,.01-.29,.01-.24,.02-.47,.04-.7,0-.1,.01-.19,.02-.29,0-.02,0-.05,0-.07,0-.11,.02-.22,.03-.33,0-.1,.02-.2,.03-.3,0-.01,0-.03,0-.04,0-.03,0-.05,0-.08,0-.09,.02-.17,.03-.26,.01-.11,.03-.23,.04-.34,0,0,0,0,0,0,.02-.13,.03-.27,.05-.4,.01-.08,.02-.16,.03-.24,0-.02,0-.03,0-.05,0-.04,.01-.08,.02-.12,0-.05,.01-.09,.02-.14,0-.06,.02-.11,.03-.17,0-.05,.02-.1,.02-.15,0-.02,0-.04,0-.06,0-.01,0-.03,0-.04,0-.02,0-.04,0-.06,0-.06,.02-.11,.03-.17,.02-.1,.03-.2,.05-.29,.02-.09,.03-.18,.05-.27,0-.04,.02-.09,.02-.13,0-.03,.01-.06,.02-.09,0-.02,0-.03,0-.05,0-.01,0-.02,0-.03,0,0,0-.01,0-.02,.02-.08,.03-.16,.05-.23,0-.02,0-.04,.01-.06,0-.01,0-.02,0-.03,.02-.1,.04-.2,.07-.3,0-.02,0-.03,.01-.05,0,0,0,0,0-.01,.03-.11,.05-.22,.08-.33,.01-.04,.02-.09,.03-.13,.02-.08,.04-.15,.06-.23,0-.02,0-.03,.01-.05,0-.02,.01-.04,.02-.06,.02-.08,.04-.15,.06-.23,0-.03,.01-.05,.02-.08,0-.02,0-.03,.01-.05,0-.01,0-.03,.01-.04,.03-.09,.05-.19,.08-.28,0,0,0,0,0,0,.03-.09,.05-.17,.08-.26,0-.01,0-.03,.01-.04,0-.02,.01-.04,.02-.06,0-.02,.01-.04,.02-.06,0-.03,.02-.06,.03-.1,.01-.04,.02-.07,.03-.11,0-.03,.02-.06,.03-.1,0-.01,0-.02,.01-.04,0-.02,.01-.04,.02-.05,.02-.06,.04-.13,.06-.19,0-.03,.02-.05,.03-.08,.02-.06,.04-.12,.06-.18,.02-.05,.04-.11,.06-.16,0,0,0-.01,0-.02,.01-.04,.03-.08,.04-.12,.02-.07,.05-.14,.07-.21,0,0,0-.01,0-.02,0-.02,.01-.04,.02-.05,.03-.08,.06-.17,.09-.25,0-.02,.01-.03,.02-.05,0,0,0-.02,.01-.03,.04-.11,.08-.21,.13-.32,.02-.04,.03-.08,.05-.12,.01-.04,.03-.07,.05-.11,.02-.04,.03-.08,.05-.11,.04-.1,.09-.21,.13-.31,0,0,0-.02,.01-.03,.04-.09,.08-.18,.12-.27,.02-.04,.03-.07,.05-.11,.04-.09,.09-.19,.13-.28,0,0,0,0,0-.02,.05-.11,.1-.22,.16-.33,.05-.11,.11-.22,.16-.32,0,0,0,0,0,0,.05-.1,.1-.2,.16-.3,0,0,0-.01,.01-.02,0,0,0-.02,.01-.03,.05-.1,.11-.2,.16-.29,.12-.21,.24-.42,.36-.62,.06-.1,.12-.21,.19-.31,.06-.1,.13-.2,.19-.3,0,0,0,0,0-.01,.06-.1,.13-.19,.19-.29h0c.07-.1,.13-.2,.2-.3,.07-.1,.14-.2,.2-.29h0c.13-.19,.27-.37,.41-.55,.02-.03,.05-.06,.07-.09,.04-.06,.09-.11,.13-.17,.02-.02,.03-.04,.05-.06,.06-.08,.12-.16,.19-.24,0-.01,.02-.02,.03-.03,.07-.08,.14-.17,.21-.25,0,0,0,0,.01-.01h0c.08-.09,.15-.18,.23-.27,.08-.09,.15-.18,.23-.26,0,0,0,0,0,0,0,0,0,0,0,0,.08-.09,.16-.17,.24-.26,0,0,0,0,0,0,.07-.08,.15-.16,.22-.24l.02-.02s0,0,0,0c.07-.08,.15-.16,.23-.23,0,0,.01-.01,.02-.02,.07-.07,.14-.14,.21-.21,.01-.02,.03-.03,.05-.05,0,0,.01-.01,.02-.02,.08-.08,.16-.16,.24-.23,0,0,.01-.01,.02-.02,.08-.07,.16-.15,.24-.22,0,0,0,0,0,0,0,0,0,0,0,0,.08-.07,.16-.14,.24-.22,.02-.02,.03-.03,.05-.05,.06-.06,.13-.12,.2-.17,.18-.16,.37-.31,.56-.46,.03-.03,.07-.05,.1-.08,.02-.02,.05-.04,.07-.06,.03-.03,.07-.05,.1-.08,.04-.03,.07-.06,.11-.09,.05-.04,.11-.08,.16-.12,.04-.03,.08-.06,.12-.09,.08-.06,.17-.13,.26-.19,3.11-2.28,6.95-3.91,11.47-4.83,6.28-1.28,18.45-1.09,23.71,3.03,2.77,2.17,4.97,4.43,6.77,7.08,.7,1.04,1.34,2.13,1.94,3.31,.34,.68,.67,1.39,.98,2.12,.05,.11,.09,.22,.13,.33,.03,.06,.05,.12,.07,.19,0,.01,.01,.03,.02,.04,.03,.09,.07,.18,.1,.27,.01,.04,.03,.07,.04,.11,.03,.07,.05,.15,.08,.23,0,0,0,0,0,.01,.03,.08,.06,.16,.08,.24,0,.02,.02,.05,.02,.07,.02,.07,.05,.14,.07,.2,.01,.04,.03,.08,.04,.13,.02,.07,.05,.15,.07,.22,0,.02,.01,.04,.02,.06,0,.01,0,.03,.01,.04,.03,.09,.06,.19,.08,.28h0c.03,.09,.05,.18,.08,.27,0,.02,0,.04,.02,.05,0,.02,0,.03,.01,.05,.02,.09,.05,.18,.07,.26,0,0,0,0,0,0,.02,.09,.05,.18,.07,.28,0,.04,.02,.08,.03,.12,.01,.05,.02,.1,.04,.15,0,.02,.01,.05,.02,.07,0,.02,0,.03,.01,.05,.03,.11,.05,.22,.08,.34,0,.02,.01,.05,.02,.07,.02,.07,.03,.13,.04,.2,0,.02,0,.05,.01,.07,.02,.11,.05,.22,.07,.33,0,0,0,0,0,.01,0,.02,0,.05,.01,.07,.02,.09,.04,.18,.05,.27,0,0,0,0,0,0,.02,.08,.03,.15,.04,.23,0,.02,0,.03,0,.05,0,.02,0,.04,.01,.07,.02,.11,.04,.22,.05,.32,0,0,0,.02,0,.03,0,.01,0,.02,0,.03,.01,.07,.02,.14,.03,.21,0,.02,0,.03,0,.05,0,.02,0,.04,0,.06,.03,.2,.06,.39,.08,.59,0,.04,.01,.08,.02,.12h0s0,.06,.01,.09c0,.07,.02,.14,.03,.22,0,.02,0,.04,0,.06,.01,.09,.02,.19,.03,.28,0,0,0,0,0,.01,.01,.13,.03,.27,.04,.4,0,0,0,.02,0,.02,.01,.12,.02,.24,.03,.36,.01,.12,.02,.24,.03,.36,0,.02,0,.05,0,.07,0,.02,0,.03,0,.05,0,.13,.02,.26,.02,.39,0,.11,.01,.22,.02,.33h0s0,.05,0,.08c0,0,0,.02,0,.03,0,.12,0,.24,.01,.37,0,.01,0,.03,0,.04,0,0,0,.02,0,.03,0,.1,0,.19,0,.29,0,.29,0,.57,0,.86Z"/>
            <path class="cls-7" d="M58.01,27.42c0,.06,0,.12,0,.18,0,0,0,0,0,0,0,.08,0,.17,0,.25h0c0,.11,0,.22-.01,.32h0s0,.05,0,.07c0,.1,0,.19-.01,.29,0,0,0,0,0,0,0,.04,0,.08,0,.13,0,.08,0,.17-.02,.25,0,0,0,.02,0,.03,0,.04,0,.08,0,.12,0,.12-.02,.25-.03,.37-.02,.24-.05,.48-.07,.73,0,.01,0,.03,0,.04-.01,.12-.03,.25-.05,.37,0,.07-.02,.14-.03,.21-.01,.08-.02,.16-.04,.25,0,.02,0,.04,0,.06-.01,.1-.03,.19-.05,.29-.01,.07-.03,.15-.04,.22,0,.06-.02,.12-.03,.17-.02,.11-.04,.21-.06,.32-.01,.07-.03,.14-.04,.21-.02,.07-.03,.14-.05,.22-.01,.05-.02,.1-.03,.15-.02,.08-.04,.16-.06,.24,0,.01,0,.03-.01,.04,0,.04-.02,.07-.03,.1,0,.03-.02,.07-.03,.1-.01,.06-.03,.11-.04,.17-.02,.09-.05,.17-.07,.25,0,0,0,0,0,0h0s-.02,.08-.03,.12c-.02,.07-.04,.13-.06,.2-.02,.08-.05,.16-.07,.24,0,0,0,.02,0,.03-.03,.09-.06,.18-.09,.28,0,0,0,.02,0,.02-.03,.08-.06,.17-.09,.25,0,.01,0,.02-.01,.03-.03,.08-.06,.16-.09,.24-.01,.03-.02,.06-.03,.09-.03,.07-.05,.13-.08,.2,0,.02-.01,.03-.02,.05-.06,.14-.12,.27-.18,.4-.02,.03-.03,.07-.05,.1-.01,.03-.03,.06-.04,.09,0,0,0,0,0,0-.03,.06-.06,.12-.09,.18,0,0,0,.01,0,.02-.04,.07-.07,.15-.11,.22,0,0,0,0,0,0-.02,.04-.04,.07-.06,.11-.02,.04-.04,.08-.06,.11-.02,.03-.03,.06-.05,.09-.04,.07-.07,.13-.11,.2h0s0,.02-.01,.02c-.38,.65-.79,1.29-1.21,1.91-1.58,2.3-3.49,4.39-5.69,6.1-1.8,1.4-3.8,2.55-5.97,3.35-.88,.33-1.8,.59-2.73,.79-1.74,.38-3.6,.7-5.5,.93-1.45,.17-2.92,.29-4.38,.34-1.7,.05-3.4,0-5.03-.19-.6-.07-1.2-.16-1.78-.27-.53-.1-1.06-.21-1.59-.35-.36-.09-.71-.18-1.07-.29-1.79-.52-3.56-1.22-5.26-2.09-.41-.21-.81-.42-1.2-.65-.47-.27-.94-.55-1.4-.85-.35-.23-.7-.46-1.03-.7-1.66-1.18-3.18-2.54-4.46-4.04-.36-.42-.7-.86-1.03-1.3-.51-.71-1.11-1.47-1.7-2.28-.4-.55-.81-1.12-1.19-1.71-.46-.72-.88-1.45-1.22-2.21,0-.02-.02-.04-.02-.05-.01-.03-.03-.06-.04-.09-.47-1.09-.74-2.21-.68-3.33-.02-.21-.03-.42-.04-.62h0s0-.05,0-.07c0-.07,0-.14-.01-.2,0-.05,0-.1,0-.15,0-.08,0-.16-.01-.24,0,0,0,0,0,0h0c0-.14-.01-.28-.02-.41,0-.07,0-.15,0-.22,0-.07,0-.14,0-.21,0-.05,0-.09,0-.13,0-.03,0-.07,0-.1,0-.07,0-.14,0-.21,0-.34,0-.67,0-1,0-.12,0-.24,0-.36,0-.03,0-.06,0-.09,0-.09,0-.18,0-.27,0-.11,0-.22,.01-.32,0-.03,0-.06,0-.09,0-.1,0-.19,.01-.29,.01-.24,.02-.47,.04-.7,0-.1,.01-.19,.02-.29,0-.02,0-.05,0-.07,0-.11,.02-.22,.03-.33,0-.1,.02-.2,.03-.3,0-.01,0-.03,0-.04,0-.03,0-.05,0-.08,0-.09,.02-.17,.03-.26,.01-.11,.03-.23,.04-.34,.01-.11,.03-.22,.04-.33,.01-.1,.03-.2,.04-.31,0-.02,0-.03,0-.05,0-.07,.02-.14,.03-.21,0-.02,0-.03,0-.05,0-.06,.02-.11,.03-.17,0-.05,.02-.1,.02-.15,0-.02,0-.04,0-.06h0l.86-.17,.47-.09,.12-.02c-.05,.22-.09,.43-.14,.65,0,0,0,0,0,0-.28,1.27-.6,2.58-.79,3.89-.02,.14-.04,.27-.06,.41-.21,1.64-.21,3.28,.33,4.85,.08,.22,.16,.45,.24,.67,.04,.1,.08,.2,.12,.31,.2,.51,.42,1.02,.66,1.54,.11,.23,.21,.46,.33,.69,.43,.88,.9,1.74,1.4,2.54,.28,.46,.58,.89,.87,1.3,.47,.65,.99,1.28,1.55,1.88,1.54,1.68,3.38,3.17,5.36,4.41,.38,.24,.78,.47,1.17,.7,.22,.13,.45,.25,.68,.37,1.62,.85,3.3,1.54,4.96,2.02,.97,.28,1.9,.56,2.84,.81,.32,.09,.65,.17,.97,.25,1.87,.46,3.74,.78,5.77,.79,3.68,.02,7.24-.34,10.8-1.31,2.39-.65,4.64-1.65,6.67-2.98h0c1.84-1.2,3.5-2.67,4.91-4.39,.56-.68,1.08-1.41,1.56-2.17,.04-.06,.07-.11,.11-.17,.08-.13,.15-.25,.23-.38,.23-.38,.45-.77,.65-1.17,.32-.62,.63-1.25,.9-1.9,.18-.43,.36-.86,.52-1.29,.03-.08,.06-.16,.09-.24,.07-.2,.14-.39,.2-.59,.15-.46,.29-.91,.41-1.37,.04-.15,.08-.29,.11-.44,.19-.75,.18-2.25,.26-3.67h0c0-.06,0-.12,.01-.17,.02-.23,.03-.46,.06-.68,0-.02,0-.04,0-.06,.01-.11,.02-.22,.04-.33,.02-.19,.05-.37,.08-.54,.02-.09,.04-.18,.06-.26,.02-.07,.04-.15,.06-.22,.11-.4,.27-.71,.48-.89,0,0,0,0,0,.01,.01,.13,.03,.27,.04,.4,0,0,0,.02,0,.02,.01,.13,.02,.26,.03,.4,.01,.13,.02,.27,.03,.4,0,.02,0,.03,0,.05,0,.13,.02,.26,.02,.39,0,.11,.01,.22,.02,.33,0,.03,0,.05,0,.08,0,0,0,.02,0,.03,0,.12,0,.24,.01,.37,0,.01,0,.03,0,.04,0,0,0,.02,0,.03,0,.1,0,.19,0,.29,0,.29,0,.57,0,.86Z"/>
          </g>
          <path class="cls-5" d="M58.59,28.04l-.6,.15h0s-.05,.01-.05,.01l-.08,.02h-.04s.02-.07,.02-.11h0c.05-.31-.02-.67-.16-1.06,0,0,0,0,0,0-.1-.28-.25-.57-.43-.86,0,0,0,0,0,0-.04-.07-.09-.15-.14-.22,0,0,0-.01-.01-.02-.16-.25-.35-.49-.55-.72h0s-.07-.08-.11-.12c-.03-.04-.07-.08-.1-.11-.07-.07-.13-.14-.2-.21-.34-.34-.7-.63-1.06-.85-.17-.11-.34-.19-.5-.26-.23-.09-.45-.15-.66-.15-.96,0-1.98,.69-2.71,1.28-.36,.29-.73,.58-1.1,.87-.84,.64-1.69,1.27-2.55,1.88-.96,.69-1.93,1.36-2.9,2.04-.37,.26-.74,.52-1.11,.78-.3,.21-.6,.43-.9,.64-.01,0-.03,.02-.04,.03-.5,.36-.99,.72-1.49,1.08-.03,.02-.07,.05-.1,.07-.32,.24-.65,.48-.97,.71-.38,.28-.76,.56-1.15,.84-1.14,.83-2.28,1.66-3.44,2.45-1.26,.86-2.53,1.68-3.84,2.43-.52,.29-1.04,.58-1.56,.86-.91,.48-1.82,.95-2.75,1.39-1.08,.52-2.18,1.02-3.28,1.49-.65,.28-1.3,.55-1.96,.81-2.23,.89-4.63,1.38-6.99,1.89,0,0-.01,0-.02,0-.15,.03-.29,.06-.43,.09-.27,.06-.53,.12-.77,.18-.22,.06-.44,.12-.65,.18-.07,.02-.15,.05-.22,.07-.02,0-.05,.02-.07,.02-.28,.1-.55,.21-.81,.35-.16,.08-.31,.17-.46,.27-.36,.24-.71,.54-1.05,.92-.06,.07-.13,.14-.19,.22-.09,.11-.17,.21-.25,.31-.21,.27-.39,.54-.54,.81-.32,.55-.53,1.09-.68,1.68-.04,.17-.08,.34-.12,.51-3.62-3.33-6.2-7.54-7.28-12.22,0,0-.01-.02-.02-.02,0-.02,0-.04,0-.06,.02-.71,.09-1.42,.19-2.13h0c.14-.97,.35-1.95,.62-2.91,0-.02,0-.04,.01-.05,.13-.48,.28-.95,.43-1.43,.06-.18,.12-.36,.18-.54,.06-.17,.12-.34,.18-.51,0,0,0,0,0-.01,.66-1.83,1.45-3.58,2.23-5.2,.01-.02,.02-.04,.03-.07,.1-.21,.2-.41,.31-.62h0c.16-.31,.33-.62,.51-.94,1.07-1.89,2.46-3.82,4.03-5.49,1.26-1.34,2.64-2.51,4.08-3.37-.55,1.04-1.21,2.02-1.85,3.02h0c-.57,.9-1.12,1.81-1.56,2.82-1.14,2.6-2.32,5.15-3.03,7.9-.05,.21-.11,.43-.16,.64-.01,.06-.03,.12-.04,.18,0,.02,0,.04-.01,.07h0c-.05,.23-.09,.47-.13,.7h0c-.23,1.34-.28,2.67-.08,3.88,.24,1.52,.88,2.83,2.05,3.68,.4,.29,.86,.53,1.39,.7,.22,.07,.45,.13,.69,.18,.52,.11,1.1,.16,1.73,.16,.61,0,1.22-.04,1.82-.11h0c3.2-.37,6.19-1.6,9.03-3.17,.92-.51,1.83-1.06,2.72-1.62,.77-.49,1.54-.99,2.29-1.49,0,0,0,0,0,0,.25-.16,.5-.33,.74-.5,.86-.58,1.71-1.18,2.55-1.79h0c.2-.15,.41-.3,.61-.45,.05-.04,.1-.08,.16-.12,.19-.15,.38-.29,.58-.44,1.06-.81,2.1-1.64,3.14-2.49,.04-.03,.07-.06,.1-.09,.39-.32,.78-.64,1.16-.96,.42-.35,.84-.7,1.26-1.06,.79-.67,1.58-1.34,2.37-2,.17-.14,.34-.29,.51-.43,.86-.73,1.73-1.46,2.6-2.18,.13-.1,.25-.21,.38-.32,.4-.33,.8-.66,1.2-.98,.55-.44,1.09-.87,1.65-1.3,.5-.39,1.13-.88,1.84-1.37,.34-.24,.69-.47,1.05-.69,.14-.08,.27-.16,.41-.24,.11-.06,.22-.13,.34-.19,.03-.02,.06-.03,.09-.05,.13-.07,.27-.14,.4-.2,.14-.07,.28-.13,.42-.19,.11-.05,.22-.09,.33-.13,.12-.04,.23-.08,.34-.12,.24-.08,.48-.14,.72-.19,.3-.06,.6-.09,.89-.09,.34,.68,.67,1.39,.98,2.12,.05,.11,.09,.22,.13,.33,.03,.06,.05,.12,.07,.19,0,.01,.01,.03,.02,.04,.03,.09,.07,.18,.1,.27,.01,.04,.03,.07,.04,.11,.03,.07,.05,.15,.08,.23,0,0,0,0,0,.01,.03,.08,.06,.16,.08,.24,0,.02,.02,.05,.02,.07,.02,.07,.05,.14,.07,.2,.01,.04,.03,.08,.04,.13,.02,.07,.05,.15,.07,.22,0,.02,.01,.04,.02,.06,0,.01,0,.03,.01,.04,.03,.09,.06,.19,.08,.28h0c.03,.09,.05,.18,.08,.27,0,.02,0,.04,.02,.05,0,.02,0,.03,.01,.05,.02,.09,.05,.18,.07,.26,0,0,0,0,0,0,.02,.09,.05,.18,.07,.28,0,.04,.02,.08,.03,.12,.01,.05,.02,.1,.04,.15,0,.02,.01,.05,.02,.07,0,.02,0,.03,.01,.05,.03,.11,.05,.22,.08,.34,0,.02,.01,.05,.02,.07,.02,.07,.03,.13,.04,.2,0,.02,0,.05,.01,.07,.02,.11,.05,.22,.07,.33,0,0,0,0,0,.01,0,.02,0,.05,.01,.07,.02,.09,.04,.18,.05,.27,0,0,0,0,0,0,.02,.08,.03,.15,.04,.23,0,.02,0,.03,0,.05,0,.02,0,.04,.01,.07,.02,.11,.04,.22,.05,.32,0,0,0,.02,0,.03,0,.01,0,.02,0,.03,.01,.07,.02,.14,.03,.21,0,.02,0,.03,0,.05,0,.02,0,.04,0,.06,.03,.2,.06,.39,.08,.59,0,.04,.01,.08,.02,.12h0s0,.06,.01,.09c0,.07,.02,.14,.03,.22,0,.02,0,.04,0,.06,.01,.09,.02,.19,.03,.28,0,0,0,0,0,.01,.01,.13,.03,.27,.04,.4,0,0,0,.02,0,.02,.01,.12,.02,.24,.03,.36,.01,.12,.02,.24,.03,.36,0,.02,0,.05,0,.07,0,.02,0,.03,0,.05,0,.13,.02,.26,.02,.39,0,.11,.01,.22,.02,.33h0c.15,.32,.29,.65,.39,.98,.13,.44,.2,.88,.22,1.32Z"/>
          <path class="cls-15" d="M61.6,11.15s0,0,0,0c-.06,.07-.12,.15-.19,.22-1.71,1.7-3.4,3.41-5.13,5.09-1.36,1.31-2.74,2.59-4.15,3.84-1.67,1.48-3.34,2.96-5.07,4.37-2.32,1.89-4.65,3.77-7.05,5.56-1.5,1.12-3.03,2.21-4.57,3.27-4.29,2.93-8.76,5.57-13.52,7.74-2.96,1.35-5.99,2.47-9.2,3.08-1.21,.23-2.42,.38-3.63,.38-.81,0-1.61-.06-2.42-.21-1.47-.27-2.81-.84-3.92-1.87-1.1-1.02-1.8-2.3-2.19-3.75-.48-1.75-.52-3.53-.35-5.32,.31-3.3,1.26-6.43,2.45-9.51,.87-2.26,1.89-4.46,3-6.61,.01-.02,.02-.05,.04-.07,.16-.11,.32-.21,.49-.32,.59-.37,1.2-.71,1.82-1.02,.32-.16,.64-.31,.96-.46,.09-.04,.18-.08,.27-.12,.02,0,.11-.05,.15-.07,.16-.06,.31-.13,.47-.19,2.58-1.03,5.27-1.75,7.97-2.4-.58,.76-1.16,1.52-1.73,2.3-2.91,3.94-5.65,7.99-7.95,12.33-1.13,2.13-2.16,4.32-2.8,6.66-.29,1.08-.5,2.17-.38,3.3,.09,.83,.36,1.48,.82,1.93,0,0,0,0,.02,.01,.03,.03,.05,.05,.08,.08,.03,.03,.06,.05,.09,.08,.02,.01,.03,.03,.05,.04,.02,.02,.04,.03,.06,.05,0,0,.02,.01,.02,.02,.03,.02,.06,.04,.09,.06,0,0,0,0,.02,0,.03,.02,.06,.04,.1,.06,0,0,.02,.01,.03,.02,.03,.02,.06,.03,.1,.05,0,0,.02,0,.02,.01,.04,.02,.07,.03,.11,.05,0,0,0,0,0,0,.04,.02,.07,.03,.11,.04,.03,.01,.05,.02,.08,.03,0,0,0,0,.01,0,.03,.01,.07,.02,.1,.03,.01,0,.03,0,.04,.01,.05,.01,.1,.03,.15,.04,.03,0,.07,.01,.1,.02,.04,0,.09,.02,.13,.02,.02,0,.04,0,.06,0,.03,0,.07,0,.1,.01,.01,0,.03,0,.04,0,.04,0,.08,0,.12,.01,.02,0,.03,0,.05,0,.04,0,.09,0,.13,0,.05,0,.11,0,.16,0,1.33,0,2.58-.37,3.81-.82,2.66-.99,5.11-2.38,7.51-3.87,2.77-1.71,5.43-3.6,8.02-5.56,1.63-1.23,3.24-2.5,4.82-3.8,.16-.13,.32-.26,.49-.4,1.54-1.26,3.06-2.55,4.57-3.84,1.43-1.23,2.84-2.48,4.23-3.75,1.75-1.59,3.49-3.2,5.2-4.83,1.57-1.49,3.11-3.01,4.65-4.53,1.23-1.22,2.45-2.46,3.67-3.69,.05-.05,.1-.1,.18-.17l6.5,6.31Z"/>
          <path class="cls-6" d="M61.6,11.15s0,0,0,0l-6.39-.3s-3.54,3.34-8.63,7.73c0,0-.01,.01-.02,.02-6.68,5.75-16,13.29-23.49,17.45-8.99,4.99-16.78,7.43-19.65,4.47-1.35-1.39-1.61-3.96-.41-8.02,4.31-11.76,4.33-11.8,4.33-11.8l-1.69-3.26s.02-.05,.04-.07c.16-.11,.32-.21,.49-.32,.59-.37,1.2-.71,1.82-1.02,.32-.16,.64-.31,.96-.46,.09-.04,.18-.08,.27-.12,.02,0,.11-.05,.15-.07,.16-.06,.31-.13,.47-.19,2.58-1.03,5.27-1.75,7.97-2.4-.58,.76-1.16,1.52-1.73,2.3-2.91,3.94-5.65,7.99-7.95,12.33-1.13,2.13-2.16,4.32-2.8,6.66-.29,1.08-.5,2.17-.38,3.3,.09,.83,.36,1.48,.82,1.93,.51,.51,1.25,.77,2.19,.77,1.33,0,2.58-.37,3.81-.82,2.66-.99,5.11-2.38,7.51-3.87,2.77-1.71,5.43-3.6,8.02-5.56,1.63-1.23,3.24-2.5,4.82-3.8,.16-.13,.32-.26,.49-.4,1.54-1.26,3.06-2.55,4.57-3.84,1.43-1.23,2.84-2.48,4.23-3.75,1.75-1.59,3.49-3.2,5.2-4.83,1.57-1.49,3.11-3.01,4.65-4.53,1.23-1.22,2.45-2.46,3.67-3.69,.05-.05,.1-.1,.18-.17l6.5,6.31Z"/>
        </g>
      </g>
    </g>
  </g>
</svg>