<?xml version="1.0" encoding="UTF-8"?><svg id="Layer_2" xmlns="http://www.w3.org/2000/svg" viewBox="0 0 23.53 15.96"><defs><style>.cls-1{fill:#fff;fill-rule:evenodd;}</style></defs><g id="Layer_1-2"><g><polygon class="cls-1" points="20.54 7.76 23.53 7.27 22.95 9.08 20.54 7.76"/><polygon class="cls-1" points="19.83 5.61 21.81 3.99 22.15 5.56 19.83 5.61"/><polygon class="cls-1" points="19.8 10.12 22.23 10.93 21.08 12.05 19.8 10.12"/><path class="cls-1" d="M7.1,13.25l.27-.02,.18,2.73,4.18-3.19c.67-.06,1.34-.12,2.02-.18,.81-.07,1.63-.15,2.44-.22,1.01-.09,1.85-1,1.86-2.03v-.1c-3.48,.07-6.52-.85-9.1-2.81,3.21,.13,6.31-.11,9.17-1.21,.01-.6,.02-1.22,.03-1.83,.01-.72,.02-1.46,.03-2.2,.02-1.32-.94-2.31-2.11-2.17-.96,.11-1.92,.23-2.86,.34-.99,.12-1.98,.24-2.96,.36-.93,.11-1.86,.22-2.79,.33-.96,.11-1.92,.23-2.87,.34-1.11,.13-1.82,1.28-1.61,2.52,.06,.35,.12,.69,.18,1.03-.33-.47-.61-1.17-1.79-.47-.93,.55-1.69,1.63-1.22,3.71,.64,2.84,2.77,3.12,4.09,3.01l.08,.44c.17,.99,1.82,1.71,2.78,1.62h0ZM15.94,3.54c.14,.68-.14,1.32-.62,1.42s-.98-.36-1.12-1.04c-.14-.68,.14-1.32,.62-1.42,.48-.11,.98,.36,1.12,1.04h0Zm-3.64,.51c.15,.72-.15,1.4-.66,1.51-.51,.11-1.04-.38-1.19-1.1-.15-.72,.15-1.4,.66-1.51,.51-.11,1.04,.38,1.19,1.1h0ZM3.27,5.58c.02,.13,.05,.27,.07,.4,.11,.67,.23,1.33,.34,1.98,.09,.52,.18,1.04,.26,1.55-.79,.13-1.84-.04-2.21-1.67-.46-2.04,.91-2.26,1.53-2.26Z"/><polygon class="cls-1" points="20.54 7.76 23.53 7.27 22.95 9.08 20.54 7.76"/><polygon class="cls-1" points="19.83 5.61 21.81 3.99 22.15 5.56 19.83 5.61"/><polygon class="cls-1" points="19.8 10.12 22.23 10.93 21.08 12.05 19.8 10.12"/></g></g></svg>