<?xml version="1.0" encoding="UTF-8"?>
<svg xmlns="http://www.w3.org/2000/svg" viewBox="0 0 577.58 762.14">
  <defs>
    <style>
      .cls-1 {
        fill: #ffc863;
      }

      .cls-2, .cls-3 {
        fill: #49656d;
      }

      .cls-2, .cls-4 {
        opacity: .25;
      }

      .cls-5 {
        stroke: #86b440;
      }

      .cls-5, .cls-6, .cls-7 {
        fill: none;
        stroke-miterlimit: 10;
      }

      .cls-8 {
        fill: #ebd5b5;
      }

      .cls-9 {
        fill: #e6faff;
      }

      .cls-10 {
        fill: #a3354d;
      }

      .cls-11 {
        opacity: .6;
      }

      .cls-11, .cls-12, .cls-13, .cls-14, .cls-15, .cls-16, .cls-17, .cls-18, .cls-19, .cls-20, .cls-21, .cls-4, .cls-22, .cls-23, .cls-24, .cls-25, .cls-26, .cls-27, .cls-28, .cls-29 {
        mix-blend-mode: multiply;
      }

      .cls-11, .cls-15, .cls-20, .cls-4, .cls-26, .cls-30 {
        fill: #79959c;
      }

      .cls-31 {
        fill: #ff7b9e;
      }

      .cls-32 {
        fill: #9dbac5;
      }

      .cls-33 {
        fill: #a66e29;
      }

      .cls-12 {
        opacity: .42;
      }

      .cls-12, .cls-13, .cls-17, .cls-18, .cls-19, .cls-22, .cls-23, .cls-24, .cls-27 {
        fill: #9e1035;
      }

      .cls-34 {
        fill: #ff822e;
      }

      .cls-35 {
        fill: #ffce31;
      }

      .cls-36 {
        fill: #cddae1;
      }

      .cls-6 {
        stroke: #fff;
      }

      .cls-3 {
        opacity: .47;
      }

      .cls-13 {
        opacity: .29;
      }

      .cls-37 {
        fill: #327c69;
      }

      .cls-7 {
        stroke: #eef0f3;
        stroke-width: 4px;
      }

      .cls-38 {
        fill: #59767d;
      }

      .cls-39 {
        fill: #7a441f;
      }

      .cls-40 {
        fill: #7eabb3;
      }

      .cls-14, .cls-15 {
        opacity: .22;
      }

      .cls-14, .cls-41, .cls-16, .cls-25, .cls-28 {
        fill: #30385f;
      }

      .cls-42 {
        isolation: isolate;
      }

      .cls-43 {
        fill: #ffed97;
      }

      .cls-44 {
        fill: #1a2138;
      }

      .cls-45 {
        fill: #ce5729;
      }

      .cls-46 {
        fill: #927c5d;
      }

      .cls-47 {
        fill: #9bc3cc;
      }

      .cls-48 {
        fill: #fd3;
      }

      .cls-49 {
        fill: #424e77;
      }

      .cls-50 {
        fill: #2c183e;
        opacity: .35;
      }

      .cls-51 {
        fill: #d1a9cf;
      }

      .cls-52 {
        fill: #c44240;
      }

      .cls-53 {
        fill: #f4bd22;
      }

      .cls-54 {
        fill: #ae6c3e;
      }

      .cls-16 {
        opacity: .26;
      }

      .cls-55 {
        fill: #b7d7e3;
      }

      .cls-56 {
        fill: #e84373;
      }

      .cls-17, .cls-26 {
        opacity: .24;
      }

      .cls-18 {
        opacity: .5;
      }

      .cls-57 {
        fill: #a94125;
      }

      .cls-19 {
        opacity: .43;
      }

      .cls-58 {
        fill: #ebab66;
      }

      .cls-59 {
        fill: #3c9780;
      }

      .cls-20 {
        opacity: .3;
      }

      .cls-60 {
        fill: #f89d30;
      }

      .cls-61 {
        fill: #a02d47;
      }

      .cls-21, .cls-25 {
        opacity: .39;
      }

      .cls-62 {
        fill: #9ad9e8;
      }

      .cls-63 {
        fill: #56331b;
      }

      .cls-64 {
        fill: #a35f26;
      }

      .cls-65 {
        fill: #7ae5ac;
      }

      .cls-66 {
        fill: #acbac2;
      }

      .cls-22, .cls-29 {
        opacity: .31;
      }

      .cls-23 {
        opacity: .18;
      }

      .cls-67 {
        fill: #ff6ea9;
      }

      .cls-68 {
        fill: #334d55;
        opacity: .64;
      }

      .cls-69 {
        fill: #eef0f3;
      }

      .cls-70 {
        fill: #7fa2a4;
      }

      .cls-71 {
        fill: #ffeb33;
      }

      .cls-72 {
        fill: #e69949;
      }

      .cls-73 {
        fill: #ce5a28;
      }

      .cls-24 {
        opacity: .16;
      }

      .cls-74 {
        fill: #678388;
      }

      .cls-27 {
        opacity: .4;
      }

      .cls-75 {
        fill: #f38daf;
      }

      .cls-76 {
        fill: #be802b;
      }

      .cls-77 {
        fill: #e08d3d;
      }

      .cls-28 {
        opacity: .55;
      }

      .cls-78 {
        fill: #b0deea;
      }

      .cls-79 {
        fill: #f1ba30;
      }

      .cls-29 {
        fill: #606262;
      }

      .cls-80 {
        fill: #ffee9d;
      }

      .cls-81 {
        fill: #c8824e;
      }
    </style>
  </defs>
  <g class="cls-42">
    <g id="Layer_2" data-name="Layer 2">
      <g id="Layer_1-2" data-name="Layer 1">
        <polyline class="cls-50" points="503.26 738.16 179.24 738.16 125.96 459.05 427.35 458.51 503.26 738.16"/>
        <polygon class="cls-76" points="172.04 161.41 180.69 154.65 222.27 154.95 217.03 169.19 177.79 166.57 172.04 161.41"/>
        <polygon class="cls-35" points="191.67 162.07 172.04 161.41 172.7 201.97 194.29 215.05 209.33 205.9 217.83 186.93 191.67 162.07"/>
        <g>
          <path class="cls-50" d="M33.58,559.18l12.5,64.43s-1.6,8.14,20.64,7.27c7.41-.44,118.18-9.59,118.18-9.59l-46.66-62.8-104.66,.7Z"/>
          <path class="cls-76" d="M43.61,452.07s18.32,57.57,23.11,62.8,15.26,6.54,20.5,6.54,66.72-1.31,66.72-1.31l-28.35-112.08H38.38l5.23,44.05Z"/>
          <path class="cls-30" d="M63.51,501.45l-1.84,5.49-4.86,14.5-13.69,40.84c-1.69,.85-3.67,.86-5.38,.4-2.32-.62-4.15-2.1-4.15-3.5,0-1.83,7.8-46.07,11.65-67.78,.06,.04,.12,.09,.19,.13,3.13,1.98,7.33,2.52,10.93,3.04,.99,.14,2.09,.3,3.21,.36,.45,.74,.81,1.5,.91,2.33,0,.25,0,.48,.02,.74,.15,2.05,1.51,3.19,3.01,3.44Z"/>
          <polygon class="cls-3" points="61.67 506.94 56.8 521.45 48.99 495.83 56.11 496.56 61.67 506.94"/>
          <path class="cls-9" d="M45.42,491.54c-.07-.04-.13-.09-.19-.13-3.85,21.71-11.65,65.94-11.65,67.78,0,1.4,1.83,2.88,4.15,3.5l17.74-68.23c-3.39-.49-7.17-1.09-10.05-2.91Z"/>
          <path class="cls-74" d="M127.49,521.11c-4.61,.25-9.19,.89-13.79,1.24,5.73,18.89,11.56,37.91,12.1,38.99,.63,1.25,2.93,1.75,5.28,1.25,1.73-.36,3.49-1.26,4.62-2.78l-5.78-39.7c-.58,.57-1.38,.95-2.43,1.01Z"/>
          <path class="cls-32" d="M113.7,522.34c5.73,18.89,11.55,37.91,12.1,38.99,.63,1.25,2.93,1.74,5.28,1.25l-8.91-41.05c-2.82,.28-5.65,.6-8.47,.81Z"/>
          <path class="cls-47" d="M92.6,526.21l-8.64,25.78-25.38,75.69c-2.22,1.11-4.81,1.13-7.05,.52-3.04-.81-5.44-2.75-5.44-4.59,0-2.82,14.03-81.91,17.34-100.5,.44-2.47,.69-3.88,.69-3.88l10.15,2.49,18.34,4.49Z"/>
          <path class="cls-9" d="M78.5,524.47l-3.78,14.53-23.19,89.2c-3.04-.81-5.44-2.75-5.44-4.59,0-2.82,14.03-81.91,17.34-100.5,.44-2.47,.69-3.88,.69-3.88l10.15,2.49,4.23,2.75Z"/>
          <path class="cls-30" d="M165.89,512.15l2.55,27.07,7.5,79.48c-1.58,1.92-3.94,2.98-6.24,3.34-3.11,.49-6.09-.31-6.84-1.99-1.14-2.58-20.39-80.57-24.91-98.89-.6-2.44-.94-3.83-.94-3.83l10.29-1.85,18.58-3.33Z"/>
          <path class="cls-3" d="M152.29,516.28l2.44,14.82,14.98,90.94c-3.11,.49-6.09-.31-6.84-1.99-1.14-2.58-20.39-80.57-24.91-98.89-.6-2.44-.94-3.83-.94-3.83l10.29-1.85,4.99,.79Z"/>
          <path class="cls-3" d="M92.6,526.21l-8.64,25.78-9.24-12.99-11.3-15.89c.44-2.47,.69-3.88,.69-3.88l10.15,2.49,18.34,4.49Z"/>
          <path class="cls-64" d="M153.51,523.74c-55.49,3.82-75.44,3.56-83.83,.53-4.36-1.58-5.61-3.9-7.09-6.78-3.98-7.7-19.56-54.24-22.22-62.22-.26-.75-.39-1.16-.39-1.16l6.69-1.38s.04,.11,.11,.33c1.3,3.95,14.06,42.38,23.44,58.33,.46,.78,.86,1.53,1.26,2.23,1.49,2.61,2.94,4.44,7.25,4.09,27.04,1.53,73.48-2.83,73.48-2.83l1.31,8.87Z"/>
          <path class="cls-35" d="M71.47,513.62c-.04,.1-.09,.16-.17,.17l-1.63,10.49c-4.36-1.58-5.61-3.9-7.09-6.78-.86-1.67-2.26-5.15-3.97-9.66,.17,.01-2.93-8.67-3.18-8.69,.25,.02,.38,.03,.38,.03,0,0,6.69-9.89-2.33-9.59-.48,.02-.96,.01-1.44,0-5.09-14.56-10.26-30.01-11.69-34.3-.26-.75-.39-1.16-.39-1.16l6.69-1.38s.04,.11,.11,.33c1.3,3.95,14.06,42.38,23.44,58.33,.46,.78,.86,1.53,1.26,2.23Z"/>
          <polygon class="cls-35" points="0 282.29 24.21 379.9 40.56 379.9 13.09 281.78 0 282.29"/>
          <path class="cls-43" d="M31.73,435.22c-1.06-.43-2.02-.88-2.84-1.3l-6.38-24.48-11.17-42.84-4.45-33.09L0,282.29l24.21,97.61,7.52,55.32Z"/>
          <path class="cls-43" d="M34.45,455.27l-1.42-5.45c.24,.08,.47,.16,.71,.24l.71,5.21Z"/>
          <g>
            <path class="cls-43" d="M32.77,442.91c-.61-.24-1.19-.51-1.74-.8l-2.14-8.2c.82,.42,1.78,.87,2.84,1.3l1.04,7.69Z"/>
            <path class="cls-68" d="M31.03,442.12c-1.83-.96-3.23-2.22-3.58-3.83-.3-1.35-.67-3.33-1.12-5.8,.53,.33,1.43,.85,2.56,1.43l2.14,8.2Z"/>
            <polygon class="cls-55" points="7.5 322.63 .61 322.63 4.97 333.5 11.01 333.5 7.5 322.63"/>
            <path class="cls-9" d="M23.19,443.61c-2.38-2.61-5.96-10.96-7.17-17.02-1.44-7.19-15.2-102.44-15.41-103.95l4.35,10.86v.03c.23,1.91,12.02,101.21,17.77,109.47,.14,.21,.3,.41,.46,.61Z"/>
            <path class="cls-64" d="M46.96,455.27h-12.5l-.71-5.21-.98-7.15-1.04-7.69-7.52-55.32h10.55c-4.46,33.26,1.44,55.6,1.44,55.6,1.77,7.23,5.32,13.47,10.65,18.53l.11,1.24Z"/>
            <path class="cls-43" d="M33.75,450.06c-.24-.08-.47-.16-.71-.24l-2.01-7.71c.55,.29,1.14,.56,1.74,.8l.98,7.15Z"/>
            <path class="cls-40" d="M33.03,449.82c-3.77-1.32-7.53-3.28-9.85-6.21-.16-.2-.31-.4-.46-.61-5.75-8.26-17.54-107.56-17.76-109.47v-.03s6.04,0,6.04,0c0,0,6.5,44.38,11.5,75.94,1.47,9.27,2.81,17.44,3.82,23.05,.45,2.47,.82,4.44,1.12,5.8,.36,1.62,1.76,2.87,3.58,3.83l2.01,7.71Z"/>
            <path class="cls-35" d="M55.82,499.17s-.13-.01-.38-.03c-1.1-3.05-2.24-6.29-3.39-9.56,.48,.02,.96,.02,1.44,0,9.02-.3,2.33,9.59,2.33,9.59Z"/>
            <path class="cls-40" d="M55.44,499.14c-2.55-.26-17-1.99-18.37-8.25-.36-1.63-.81-4-1.35-6.97,2.18,1.35,9.23,5.36,16.33,5.66,1.15,3.28,2.29,6.51,3.39,9.56Z"/>
            <polygon class="cls-55" points="13.09 351.77 4.8 351.77 10.03 364.85 17.3 364.85 13.09 351.77"/>
            <path class="cls-9" d="M31.95,497.29c-2.86-3.14-7.16-13.19-8.62-20.47-1.73-8.65-18.29-123.21-18.53-125.03l5.23,13.06v.03c.28,2.3,14.46,121.73,21.37,131.67,.17,.25,.36,.5,.55,.74Z"/>
            <path class="cls-47" d="M55.48,499.27s-.03-.09-.04-.13c-2.55-.26-17-1.99-18.37-8.25-.36-1.63-.81-4-1.35-6.97-5.33-29.68-18.42-119.06-18.42-119.06h-7.27v.03c.28,2.3,14.46,121.73,21.37,131.67,.17,.25,.36,.5,.55,.74,6.91,8.72,24.32,10.35,26.66,10.53-.96-2.56-2.02-5.47-3.13-8.55Z"/>
          </g>
          <path class="cls-35" d="M55.44,499.14l3.18,8.69,.83-.15-1.14-5.81s-1.86-3.1-2.86-2.73"/>
        </g>
        <g>
          <polygon class="cls-50" points="545.78 615.88 554.36 622.16 417.31 623.9 391.14 551.94 482.65 517.35 516.08 508.48 545.78 615.88"/>
          <polygon class="cls-9" points="539.65 416.68 525.86 497.13 518.51 481.96 533.68 396.92 539.65 416.68"/>
          <polygon class="cls-47" points="543.79 430.47 529.54 506.32 524.02 498.97 537.81 418.98 543.79 430.47"/>
          <path class="cls-47" d="M496.75,513.21l9.11,27.17,26.75,79.78c2.34,1.17,5.07,1.19,7.44,.55,3.21-.86,5.74-2.9,5.74-4.84,0-2.97-14.79-86.34-18.27-105.93-.46-2.61-.73-4.09-.73-4.09l-10.7,2.62-19.33,4.73Z"/>
          <path class="cls-9" d="M511.62,511.38l3.98,15.32,24.45,94.03c3.21-.86,5.74-2.9,5.74-4.84,0-2.97-14.79-86.34-18.27-105.93-.46-2.61-.73-4.09-.73-4.09l-10.7,2.62-4.46,2.9Z"/>
          <path class="cls-64" d="M534.37,500.35s-.69,12.64-3.1,14.02-36.43,8.5-48.27,7.58c-11.84-.92-6.55-14.14-6.55-14.14l57.92-7.47Z"/>
          <path class="cls-76" d="M470.7,512.76s48.73-4.6,61.6-9.19c12.87-4.6-41.37-79.07-41.37-79.07l-57,34.02,36.77,54.24Z"/>
          <g>
            <polygon class="cls-35" points="500.58 352.33 545.86 444.03 562.41 367.5 504.97 282.66 500.58 352.33"/>
            <polygon class="cls-64" points="562.41 367.5 577.58 363.36 561.72 435.76 545.86 444.03 562.41 367.5"/>
            <polygon class="cls-43" points="577.58 363.36 517.59 282 504.97 282.66 562.41 367.5 577.58 363.36"/>
          </g>
        </g>
        <path class="cls-46" d="M332.09,157.05s-3.92-6.98-1.09-12.21l2.62,.22s-2.4,6.32-1.53,11.99Z"/>
        <path class="cls-63" d="M215.87,67s-10.9,34.02-27.04,46.23c-16.14,12.21,18.75,22.68,18.75,22.68l19.19-11.34,5.23-30.53-2.62-23.11-13.52-3.92Z"/>
        <path class="cls-39" d="M326.64,106.68c-2.32,17.34-13.26,51.43-19.06,68.75-2.17,6.49-3.62,10.63-3.62,10.63l-15.33-8.24-19.93-10.71-57.77-31.05s7.85-61.64,6.98-61.64l-13.66-6.4s13.95-28.2,32.27-35.76c13.13-5.42,33.42-1.28,50.71,6.32,6.84,3,13.21,6.55,18.48,10.25,18.61,13.08,24.13,34.01,20.94,57.85Z"/>
        <path class="cls-63" d="M326.64,106.68c-2.32,17.34-13.26,51.43-19.06,68.75l-18.95,2.38-20.43,2.57v-12.21l.5-1.07,20.43-43.85-28.78-8.94s17.23-32.05,18.1-55.17c.54-14.29-4.66-22.02-9.16-26.38,6.84,3,31.14,12.36,36.41,16.06,18.61,13.08,24.13,34.01,20.94,57.85Z"/>
        <path class="cls-41" d="M188.42,25.02c-.18,3.15-3.44,7.9-6.13,10.58-4.36,4.36-6.54,12.87-6.54,12.87,0,0-25.95,5.67-31.18,2.4-4.17-2.61-3.91-7.84-5.73-12.39-.46-1.16-1.06-2.28-1.91-3.3-4.14-5.02-9.16-13.3-5.45-14.61,3.66-1.29,9.08,4.42,9.23,4.57-.16-.37-7.42-16.59-1.81-18.53,5.5-1.91,11.89,12.55,12.26,13.41-2.38-6.56-1.28-21.04,4.3-19.95,6.67,1.3,7.92,19.55,7.92,19.55,0,0-.43-21.22,6.25-18.68,7.68,2.92,6.07,25.09,5.96,26.46,.08-.61,.92-5.12,8.65-5.53,3.19-.17,4.28,1.18,4.16,3.15Z"/>
        <path class="cls-25" d="M188.42,25.02c-.18,3.15-3.44,7.9-6.13,10.58-4.36,4.36-6.54,12.87-6.54,12.87,0,0-25.95,5.67-31.18,2.4-4.17-2.61-3.91-7.84-5.73-12.39,1.04-1.51,2.85-2.74,4.75-2.87,2.96-.21,6.44,1.73,6.64,1.85l-5.98-4.79s3.27,.32,6.11,0c2.84-.33,8.17-.76,13.63-2.07,5.45-1.31,9.16-2.54,9.16-2.54l-1.89,5.23s8.43-7.99,12.5-8.87c2.22-.47,3.74,.04,4.68,.61Z"/>
        <path class="cls-44" d="M314.2,188.4s-1.89-3.71-1.13-8.23c.76-4.52,3.87-7.85,3.87-7.85l3.22,4.25-5.96,11.83Z"/>
        <path class="cls-41" d="M367.63,184.31c-5.81-.87-12.79,2.61-12.79,2.61l-1.74-7.85s5.52-6.11,15.12-3.2c3.11,.95,4.76,2.26,5.36,3.57,1.24,2.72-2.02,5.44-5.95,4.86Z"/>
        <path class="cls-28" d="M367.63,184.31c-5.81-.87-12.79,2.61-12.79,2.61l-.87-6.1s2.62-1.45,8.43-2.03c4.4-.44,9.14,.28,11.18,.66,1.24,2.72-2.02,5.44-5.95,4.86Z"/>
        <path class="cls-9" d="M300.47,257.58l-93.66-1.11-16.67-.2s3.93-41.87,3.93-48.41,2.61-39.25,2.61-39.25c0,0-40.12-28.35-45.35-41.43-5.23-13.08-10.46-73.7-10.46-73.7,5.41-6.03,12.04-8.28,18.32-8.67,11.45-.71,21.8,4.74,21.8,4.74,4.8,8.29,6.1,46.66,6.1,46.66,4.8,4.36,18.32,16.57,18.32,16.57l10.4,2.93,17.51,4.93,61.52,13.35,4.76,1.04-.87,71.52v15.7l1.74,35.32Z"/>
        <path class="cls-20" d="M220.67,125.44l-3.49,15.26s-11.05-4.21-20.2-11.63c-9.16-7.41-25-15.7-26.75-20.93-1.48-4.43-9.47-52.49-11.04-63.32,11.45-.71,21.8,4.74,21.8,4.74,4.8,8.29,6.1,46.66,6.1,46.66,4.8,4.36,18.32,16.57,18.32,16.57l10.4,2.93,4.86,9.72Z"/>
        <path class="cls-20" d="M215.87,147.1s.43,11.92,24.86,17.15c24.42,5.23,36.2,.44,43.61-4.36s9.16-15.7,9.16-15.7l-77.62,2.91Z"/>
        <path class="cls-4" d="M298.73,206.55l.65-53.43c-4.52,5.05-9.21,9.95-13.56,15.14-4.97,5.93-8.99,12.3-12.41,19.21-2.93,5.92-5.79,11.98-10.24,16.95-1.29,1.43-2.69,2.67-4.19,3.74,.25,12.73,.51,26.45,.51,26.45l-47.1-15.41-10.46-6.4s6.69,14.83,6.69,22.38c0,5.92-1.25,16.82-1.79,21.28l93.66,1.11-1.74-35.32v-15.7Z"/>
        <path class="cls-56" d="M213.26,201.17s-15.12-8.43-18.03-15.99l-2.62,2.62,1.45,20.35s9.01,12.21,19.48,13.37-.29-20.35-.29-20.35Z"/>
        <polygon class="cls-78" points="211.51 198.26 211.07 236.64 277.36 241.44 279.11 204.37 211.51 198.26"/>
        <polygon class="cls-30" points="279.11 204.37 283.9 193.61 282.45 233.73 277.36 241.44 279.11 204.37"/>
        <polygon class="cls-62" points="283.9 193.61 216.16 188.96 211.51 198.26 279.11 204.37 283.9 193.61"/>
        <path class="cls-56" d="M280.71,212.22l-.58,17.15s6.4,.29,12.79-1.74c6.4-2.04,8.43-6.11,8.43-6.11l-.29-25.88-1.74-1.16s-4.36,16.28-18.61,17.73Z"/>
        <path class="cls-9" d="M331.3,197.39l-22.56,17.69-3.03,2.37s-9.04-23.15-14.42-38.39c-.24-.69-.47-1.37-.7-2.02-1.49-4.3-1.4-9.63-.51-15.06,2.23-13.67,9.53-27.97,9.53-27.97,0,0,9.11,6.07,14.87,13.6,1.59,2.08,2.92,4.26,3.74,6.46,3.78,10.18,13.08,43.32,13.08,43.32Z"/>
        <path class="cls-9" d="M348.16,189.25s-.06,.23-.16,.66c-1.02,4.25-6.69,27.62-8.27,31.32-1.74,4.07-5.23,11.92-17.45,9.89-.63-.11-1.25-.22-1.84-.35-10.95-2.21-16.17-7.08-15.89-15.35,.29-8.73,1.74-30.24,3.49-33.14,1.74-2.91,4.65-4.07,4.65-4.07,5.82-4.94,14.83-5.23,26.46-.29,11.63,4.94,9.02,11.34,9.02,11.34Z"/>
        <path class="cls-20" d="M348,189.92c-1.02,4.25-6.69,27.62-8.27,31.32-1.74,4.07-5.23,11.92-17.45,9.89-.63-.11-1.25-.22-1.84-.35,1.69-4.31,4.46-11.93,5.77-18.77,1.96-10.25-.22-12.86-6.54-15.91-6.32-3.05-5.67-6.98-5.67-6.98,1.73-5.57,27.79-.49,34,.81Z"/>
        <path class="cls-41" d="M315.01,172.68s-6.98,12.5,3.49,17.44,28.2,5.23,31.98,2.91,6.69-7.85,6.69-7.85l-42.16-12.5Z"/>
        <path class="cls-56" d="M346.12,175.88c-5.23,3.78-27.04,2.03-27.04,2.03-.02-.02-.04-.03-.06-.04-.31-.25-1.79-1.49-3.11-3.69-1.7-2.83-3.14-7.23-1.48-13.13,3.19-11.34,14.82-4.65,19.48-6.11,3-.94,5.76-2.45,8.84-1.5h0c1.51,.46,3.1,1.52,4.82,3.54,5.23,6.1,3.78,15.12-1.45,18.9Z"/>
        <path class="cls-27" d="M346.12,175.88c-5.23,3.78-27.04,2.03-27.04,2.03-.02-.02-.04-.03-.06-.04-1.77-1.25-2.75-2.49-3.11-3.69-1.3-4.3,5.27-8.11,11.38-10.15,7.85-2.62,8.5,4.14,16.79-.87,5.69-3.44,1.72-7.51-1.33-9.71,1.51,.46,3.1,1.52,4.82,3.54,5.23,6.1,3.78,15.12-1.45,18.9Z"/>
        <path class="cls-41" d="M359.03,178.88c.02,1.82-.22,3.62-.7,5.14-1.74,5.52-7.56,10.46-15.41,10.18-7.85-.29-12.79-.87-20.36-1.45-.26-.02-.51-.04-.75-.07-2.1-.25-3.74-.83-5-1.63-1.18-.73-2.02-1.64-2.62-2.64-.89-1.49-1.22-3.15-1.22-4.67,0-3.78,8.72-9.89,8.72-9.89,6.69-2.91,6.11,.29,13.66,0,7.56-.3,12.21-5.23,17.74-4.94,4.01,.21,5.87,5.16,5.93,9.98Z"/>
        <path class="cls-25" d="M359.03,178.88c.02,1.82-.22,3.62-.7,5.14-1.74,5.52-7.56,10.46-15.41,10.18-7.85-.29-12.79-.87-20.36-1.45-.26-.02-.51-.04-.75-.07l-5-1.63c-1.18-.73-2.02-1.64-2.62-2.64,.12-2.08,.77-5.5,3.5-7.8,4.15-3.49,5.46-.22,15.05-.87,9.6-.65,13.52-4.14,19.41-3.49,4.36,.48,6.21,1.93,6.88,2.64Z"/>
        <path class="cls-9" d="M295.53,133.72s-.29,11.33-4.94,17.15c-2.08,2.6-6.1,5.15-12.06,7.07-4.5,1.44-10.12,2.53-16.86,3-4.25,.3-8.95,.36-14.1,.11-3.45-.17-6.57-.57-9.37-1.14-16.77-3.42-22.32-12.81-22.32-12.81l-1.16-11.05,1.16-2.32s2.61,.87,4.94,2.61c2.32,1.74,32.56,8.72,46.22,4.65,13.66-4.07,18.61-10.18,18.61-10.18l9.89,2.91Z"/>
        <path class="cls-56" d="M261.66,151.38v9.56c-4.25,.3-8.95,.36-14.1,.11-3.45-.17-6.57-.57-9.37-1.14l.36-9.84s12.43,3.71,23.11,1.31Z"/>
        <path class="cls-26" d="M295.53,133.72s-.29,11.33-4.94,17.15c-2.08,2.6-6.1,5.15-12.06,7.07-.26-6.02-5.52-12.01-5.52-12.01,0,0-13.74,2.4-32.28,.65-18.53-1.74-26.02-10.54-26.02-10.54l1.16-2.32s2.61,.87,4.94,2.61c2.32,1.74,32.56,8.72,46.22,4.65,13.66-4.07,18.61-10.18,18.61-10.18l9.89,2.91Z"/>
        <circle class="cls-34" cx="223.72" cy="216.58" r="5.67"/>
        <circle class="cls-34" cx="224.27" cy="226.94" r="2.51"/>
        <polygon class="cls-71" points="271.04 223.34 235.28 221.16 235.28 215.27 271.26 217.02 271.04 223.34"/>
        <path class="cls-39" d="M303.67,129.65s-.26,.95-.72,2.52c-1.96,6.74-7.54,24.98-11.78,29.46-2.35,2.47-6.49,5.87-10.36,8.89-4.78,3.71-9.12,6.82-9.12,6.82,0,0,6.98-13.08,9.6-22.09,2.61-9.02,5.23-22.68,5.23-22.68,1.16-2.91,17.15-2.91,17.15-2.91Z"/>
        <path class="cls-20" d="M314.47,147.61c-5.59-.05-15.65,1.89-24.4,14.38,2.23-13.67,9.53-27.97,9.53-27.97,0,0,9.11,6.07,14.87,13.6Z"/>
        <path class="cls-63" d="M302.95,132.17c-1.96,6.74-7.54,24.98-11.78,29.46-2.35,2.47-6.49,5.87-10.36,8.89,.88-2.56,2.05-6.04,3.53-10.63,3.92-12.21,8.28-28.35,8.28-28.35l10.33,.63Z"/>
        <path class="cls-8" d="M304.55,132.27c-6.69,4.65-18.03,.29-18.03,.29,0,0-6.4,9.6-32.85,13.95-6.29,.84-11.99,.38-17.07-.94-14.42-3.78-23.91-14.66-28-23.48-3.11-6.71-2.53-12.42-.86-17.67,.16-.51,.33-1.01,.51-1.52,.99-2.77,2.22-5.43,3.29-8.06,.24-.59,.47-1.16,.69-1.75,.05-.12,.09-.25,.14-.37,1.68-4.59,3.13-9.42,4.11-12.96,.89-3.2,1.42-5.36,1.42-5.36l40.41,15.41c.87-.58,9.01-12.5,9.01-12.5,0,3.78-2.03,13.37-2.03,13.37l24.71,10.18c2.01,2.3,.05,15.92,0,16.28,.16-.35,5.64-11.61,13.66-11.04,14.54,2.33,7.56,21.52,.87,26.17Z"/>
        <ellipse class="cls-75" cx="270.38" cy="120.2" rx="5.81" ry="9.88" transform="translate(74.55 342.03) rotate(-72.53)"/>
        <path class="cls-75" d="M214.73,101.11c-.7,2.22-3.51,3.43-6.98,3.32,.16-.51,.33-1.01,.51-1.52,.99-2.77,2.22-5.43,3.29-8.06,2.5,1.84,3.82,4.21,3.18,6.26Z"/>
        <path class="cls-24" d="M304.55,132.27c-6.69,4.65-18.03,.29-18.03,.29,0,0-6.4,9.6-32.85,13.95-6.29,.84-11.99,.38-17.07-.94,6.14-1.35,14.47-4.18,22.45-10.1,15.27-11.34,16.57-33.58,16.57-33.58l-59.12-22.12c.89-3.2,1.42-5.36,1.42-5.36l40.41,15.41c.87-.58,9.01-12.5,9.01-12.5,0,3.78-2.03,13.37-2.03,13.37l24.71,10.18c2.01,2.3,.05,15.92,0,16.28,.16-.35,5.64-11.61,13.66-11.04,14.54,2.33,7.56,21.52,.87,26.17Z"/>
        <path class="cls-56" d="M255.95,124.05s.05-5.27-4.42-3.42c-4.47,1.85-3.92,7.09-3.92,7.09,0,0,7.1-1.34,8.35-3.67Z"/>
        <path class="cls-63" d="M273.73,95.93s1.74-11.34-10.76-16.86l-5.23,4.65s11.05,1.45,15.99,12.21Z"/>
        <path class="cls-63" d="M219.65,78.77s3.49-5.23,10.47-4.65l-1.45-4.94s-9.3,1.45-9.01,9.59Z"/>
        <path class="cls-46" d="M269.73,104.28s-7.2-5.45-20.93-2.18l.22,2.83s11.12-.22,17.23,6.32l.65-2.62s-5.67-4.25-13.41-5.56c0,0,8.18-1.2,14.83,2.83l1.42-1.64Z"/>
        <path class="cls-46" d="M216.74,88.73s6.32,.33,11.88,7.74l-.98,2.29s-6.43-2.73-12.1-1.85l-.33-2.29s4.69-.98,10.03,1.09c0,0-3.49-3.92-8.39-4.91l-.11-2.07Z"/>
        <path class="cls-46" d="M242.48,130.42c-11.83,0-20-8.46-20.12-8.58l1.62-1.53-.81,.77,.81-.77c.58,.61,14.34,14.78,31.96,3.75l1.18,1.89c-5.24,3.28-10.2,4.48-14.65,4.48Z"/>
        <g>
          <path class="cls-56" d="M280.6,38.92c5.57,4.13,8.99,11,8.92,17.93-.01,1.33-.12,2.76,.57,3.9,.7,1.14,2.61,1.58,3.3,.45,.58-.95-.03-2.34,.66-3.22,.62-.79,1.95-.58,2.64,.15s.89,1.77,1.07,2.75c.84,4.61,1.68,9.22,2.53,13.82,.24,1.31,.5,2.67,1.31,3.73,.8,1.06,2.33,1.7,3.51,1.08,1.36-.72,1.54-2.56,1.54-4.1,0-3.19,.01-6.38,.02-9.56,1.37-.41,2.18,1.49,2.32,2.91,.14,1.42,.9,3.32,2.28,2.96,1.21-.32,1.22-2.02,.91-3.23-3.45-13.54-13.7-25.15-26.7-30.26"/>
          <path class="cls-1" d="M263.19,24.41s16.79-2.11,44.55,8.21c0,0,10.9,17.88,6.47,28.86l-3.71-.51-37.21-27.91-9.16-5.96-.94-2.69Z"/>
          <path class="cls-54" d="M263.19,24.41l-.87,6.32s38.38,16.57,49.06,38.59l2.83-7.85s-15.7-27.69-51.02-37.07Z"/>
        </g>
        <g>
          <polygon class="cls-9" points="190.14 556.3 189.86 560.74 187.99 590.75 178.8 738.16 169.65 723.33 161.24 568.17 160.14 547.98 160.05 546.27 183.45 554.07 190.14 556.3"/>
          <polygon class="cls-47" points="199.74 559.35 197.98 590.75 189.71 738.16 178.8 738.16 178.06 588.61 177.93 562.41 189.86 560.74 199.74 559.35"/>
          <polygon class="cls-2" points="199.74 559.35 197.98 590.75 179.82 590.75 178.06 588.61 161.24 568.17 160.14 547.98 183.45 554.07 190.14 556.3 189.86 560.74 199.74 559.35"/>
          <polygon class="cls-9" points="503.26 556.3 503.09 559 502.98 560.74 501.03 592.06 491.93 738.16 485.38 722.02 474.86 577.4 473.82 558.19 473.17 546.27 503.26 556.3"/>
          <polygon class="cls-47" points="512.86 559.35 511.02 592.06 502.82 738.16 491.93 738.16 491.2 592.06 491.05 562.41 502.98 560.74 512.86 559.35"/>
          <polygon class="cls-2" points="512.86 559.35 511.02 592.06 490.62 592.06 474.86 577.4 473.82 558.19 503.09 559 502.98 560.74 512.86 559.35"/>
          <polygon class="cls-37" points="163.54 534.28 164.19 565.02 518.74 561.75 518.74 527.74 163.54 534.28"/>
          <polygon class="cls-65" points="518.74 527.74 355.21 256.27 87.66 255.61 163.54 534.28 518.74 527.74"/>
          <polygon class="cls-51" points="164.2 565.03 144.86 493.13 136.09 460.52 131.83 444.67 131.34 442.88 87.66 280.47 87.66 255.61 138.36 441.79 140.18 448.51 141.55 453.52 144.12 462.96 163.54 534.28 164.2 565.03"/>
          <path class="cls-16" d="M244.95,424.75s-14.25,1.45-21.8,5.23c-7.56,3.78-23.26,9.01-37.21,13.66-13.96,4.65-24.42,10.46-29.66,11.34-4.74,.79-13.54-2.42-15.15-3.03l-.94-3.44-8.62-6.84c-.28,.06-.57,.11-.87,.17l9.32,34.25-.24,6.73-27.69-118.84,6.11-14.39,30.97-22.68,48.41-7.41,17.01-12.21,15.26-.43s3.49,3.49,5.67,7.42c2.18,3.92,6.11,17.01,6.11,17.01,0,0-2.18,2.61-8.78,4.52-6.6,1.91-18.26,9.43-29.17,12.05-10.9,2.61-48.26,8.87-48.26,8.87l16.28,54.37s5.82-.3,17.74-2.62c11.92-2.32,20.64-3.2,26.75-6.11,6.1-2.9,19.19-11.33,19.19-11.33l9.6,33.72Z"/>
          <path class="cls-16" d="M467.07,441.39s-13.74-.65-34.02-.65-41.87-3.92-41.87-3.92h-7.2s-23.55-7.2-31.4-9.16c-7.85-1.96-24.2-4.58-32.05-8.5-7.85-3.92-12.43-9.16-12.43-12.43s-6.4-9.89,4-12.79c10.39-2.91,77.04,5.79,77.04,5.79l25.59-10.66-16.35-16.35s-6.32-22.46-8.94-34.89c-2.62-12.43-23.55-11.56-34.02-11.77-9.36-.2-25.73,3.49-25.73,3.49l-12.43,8.5s-13.08,2.62-20.28-5.89c-7.2-8.5-8.5-15.05-8.5-15.05,0,0-8.5-3.27-8.5-10.47s9.81-11.12,18.32-12.43c8.5-1.31,3.27-1.31,3.27-1.31,0,0,21.59,7.85,26.82,5.89,5.23-1.96,23.55-5.23,35.32-5.89,11.77-.65,32.71-3.92,32.71-3.92l24.86,18.97,45.79,133.45"/>
          <path class="cls-16" d="M191.45,279.82s36.2-2.18,33.58,5.23-72.39,16.14-72.39,16.14l38.81-21.37Z"/>
        </g>
        <g>
          <path class="cls-41" d="M130.02,264.96l4.43,13.42,.37,1.12,22.43,14.39s1.35-.16,3.49-.47c4.06-.58,10.97-1.68,16.88-3.19,2.96-.75,5.66-1.6,7.64-2.54,8.04-3.8,32.01-18.77,29.36-43.8-3.14-29.72-22.35-34.31-22.35-34.31l-27.64-5.53-24.52,19.59-.46,.87-10.69,20.17,1.05,20.26Z"/>
          <path class="cls-25" d="M130.02,264.96l4.43,13.42,26.29,15.04,5.55,3.18,11.34-6.36,12.69-7.12c1.14-1.3,24.17-21.29,16.43-46.51,0,0-9.7,24.63-33.48,18.99-23.78-5.64-16.24-28.75-6.52-34.66,9.71-5.91,22.31-8.19,22.31-8.19l-23.98-4.89-25.42,16.67-10.69,20.17,1.05,20.26Z"/>
          <path class="cls-9" d="M147.15,294.59c17.07,2.55,30.06,.45,39.75-5.02,3.76-2.12,7.03-4.74,9.84-7.8h-12.38s-2.81,0-2.81,0l-9.11,5.43s-23.51,2.44-29.75-22.4c-.59-2.37-1.05-4.69-1.37-6.97-3.01-21.61,6.36-38.85,25.75-45.44l7.15,3.81,23.9-3.93,.93-2.31s-13.77-13.55-32.39-14.79c-26.1-1.74-52.9,11.88-58.33,41.35-.33,1.8-.59,3.66-.75,5.59-2.91,33.45,15.86,48.96,39.56,52.49Z"/>
          <path class="cls-15" d="M147.15,294.59c17.07,2.55,30.06,.45,39.75-5.02-4.35-.34-11.13-1.66-11.13-1.66l8.59-6.15h-2.81s-9.11,5.43-9.11,5.43c0,0-23.51,2.44-29.75-22.4-.59-2.37-1.05-4.69-1.37-6.97-4.39-1.19-9.61-3.03-15.08-5.85-9-4.63-14.78-11.14-17.91-15.47-.33,1.8-.59,3.66-.75,5.59-2.91,33.45,15.86,48.96,39.56,52.49Z"/>
          <circle class="cls-9" cx="159.6" cy="234.07" r="5.36"/>
          <circle class="cls-9" cx="164.63" cy="244.24" r="2.16"/>
        </g>
        <g>
          <g class="cls-21">
            <path class="cls-41" d="M333.03,392c8.84,30.33-4.73,58.49-31.59,62.47-28.16,4.17-59.02-19.72-67.5-52.85-8.28-32.38,8.61-59.25,36.37-60.62,26.53-1.31,54.07,21.3,62.72,51Z"/>
          </g>
          <path class="cls-69" d="M331.74,386.41c8.81,30.2-4.77,58.14-31.59,61.97-28.12,4.02-58.92-19.88-67.37-52.86-8.25-32.23,8.63-58.88,36.35-60.11,26.49-1.18,53.98,21.43,62.61,51.01Z"/>
          <path class="cls-66" d="M323.9,384.93c7.85,26.27-3.25,50.5-25.7,53.8s-49.29-17.03-56.92-45.32c-7.49-27.76,5.96-51.05,29.08-52.46,22.25-1.35,45.83,18.17,53.54,43.98Z"/>
          <path class="cls-36" d="M323.66,386.12c7.65,25.63-3.17,49.25-25.04,52.46-22.73,3.34-47.96-16.57-55.4-44.12s5.75-49.77,28.25-51.19c21.68-1.36,44.68,17.67,52.2,42.85Z"/>
          <path class="cls-66" d="M259.22,403.52s2.75,4.57,12.43,2.26c9.51-2.27,1.81-11.71,.12-11.31-1.69,.4-12.55,9.04-12.55,9.04Z"/>
          <path class="cls-66" d="M257.13,376.33s-1.28,3.81,4.34,2.72c5.57-1.08,9.63,.02,22.05-3.58,12.12-3.51,15.76-6.81,15.76-6.81l-6.35-2.48-35.81,10.15Z"/>
          <path class="cls-66" d="M288.81,396.56s3.16,9.29,13.32,9.33c0,0-3.93-16.07-4.71-20.8-.78-4.71-8.6,11.47-8.6,11.47Z"/>
          <g>
            <path class="cls-60" d="M297.07,383.35s.06-1.38-.44-1.17,.44,1.17,.44,1.17Z"/>
            <path class="cls-60" d="M295.96,384.07s-.54-1.29-.89-.88,.89,.88,.89,.88Z"/>
            <path class="cls-60" d="M297.42,385.08s-.15-1.38-.61-1.1,.61,1.1,.61,1.1Z"/>
          </g>
          <g>
            <path class="cls-54" d="M295.42,364.29l.52,3.09s-10.44,7.48-34.98,8.92c-.67-3.07,.19-5.39,.19-5.39l34.26-6.62Z"/>
            <path class="cls-1" d="M266.61,352.15s11.16,6.27,18.19,8.84c6.97,2.55,10.59,3.09,10.62,3.31s-3.42,2.15-11.65,4.46c-8.36,2.35-21.54,3.54-21.54,3.54l-2.55-10.19,3.05-7.91,3.88-2.05Z"/>
            <path class="cls-58" d="M262.54,373.07s-.85-4.31-1.01-9.61c-.16-5.27,5.08-11.32,5.08-11.32,0,0-.5-1.87-2.44-2.34s-3.89-.15-4.74,.5-8.27,12.4-5.13,23.8l8.25-1.04Z"/>
            <path class="cls-81" d="M262.54,373.07c.3,2.09-1.3,4.02-3.58,4.31s-4.38-1.17-4.67-3.27c-.29-2.1,1.33-4.02,3.61-4.3s4.34,1.18,4.64,3.26Z"/>
            <path class="cls-72" d="M267.93,358.22c1.29,0,1.29-2,0-2s-1.29,2,0,2h0Z"/>
            <path class="cls-72" d="M276.57,362.73c1.29,0,1.29-2,0-2s-1.29,2,0,2h0Z"/>
            <path class="cls-72" d="M264.89,366.44c1.29,0,1.29-2,0-2s-1.29,2,0,2h0Z"/>
            <path class="cls-72" d="M271.05,368.92c1.29,0,1.29-2,0-2s-1.29,2,0,2h0Z"/>
            <path class="cls-72" d="M287.29,366.06c1.29,0,1.29-2,0-2s-1.29,2,0,2h0Z"/>
            <path class="cls-52" d="M272.12,360.39c.18,1.22-1.32,2.41-3.35,2.65-2.04,.24-3.84-.56-4.02-1.79s1.34-2.41,3.37-2.65c2.03-.23,3.81,.57,3.99,1.79Z"/>
            <path class="cls-52" d="M282.16,364.95c.18,1.22-1.28,2.41-3.29,2.65-2.01,.25-3.79-.55-3.97-1.77s1.3-2.41,3.31-2.65c2-.24,3.77,.55,3.95,1.77Z"/>
            <path class="cls-52" d="M269.46,368.56c.16,1.08-1.16,2.14-2.96,2.36-1.8,.22-3.39-.48-3.54-1.56-.15-1.09,1.18-2.14,2.98-2.36s3.36,.48,3.52,1.56Z"/>
            <path class="cls-5" d="M279.56,360.17s1.81-.14,2.13,1.41,2.27,1.39,2.27,1.39"/>
            <path class="cls-6" d="M273.44,359.1s1.5-1.08,2.22,.12"/>
            <line class="cls-5" x1="271.08" y1="365.16" x2="273.05" y2="365.08"/>
          </g>
          <g>
            <path class="cls-52" d="M255.82,402.59s2.84,2.23,8.95,.65c6.04-1.56,8.01-5.03,7.89-8.02s-1.79-6.91-1.79-6.91l-9.93,7.19-5.12,7.09Z"/>
            <path class="cls-80" d="M270.87,388.31s-.04,6.31-1,7.4c-.96,1.09-4.53,1.94-4.53,1.94l-1.99,1.89s-7.06,2.98-7.54,3.06-.91-3.08-.91-3.08c0,0-.5-3.62,1.98-5.73,2.46-2.1,13.98-5.46,13.98-5.46Z"/>
          </g>
        </g>
        <g>
          <polygon class="cls-50" points="226.77 705.45 221.4 706.18 269.08 762.14 411.25 760.83 357.75 708.5 226.77 705.45"/>
          <g>
            <path class="cls-70" d="M256.29,624.19l-.1,.36-.37,1.31-5.67,19.9-18.28,64.2c-2.03,.44-3.59,.32-4.76-.07-2.68-.88-3.38-3.13-3.38-3.13l12.69-103.18,.15-1.23,.25-1.99,5.51,6.75,1.78,2.18,12.19,14.91Z"/>
            <path class="cls-3" d="M256.19,624.55l-24.32,85.41c-2.03,.44-3.59,.32-4.76-.07l15.21-102.79v-.06s1.78,2.24,1.78,2.24l12.09,15.27Z"/>
            <polygon class="cls-68" points="255.81 625.85 250.14 645.75 236.41 603.58 236.56 602.35 255.81 625.85"/>
          </g>
          <g>
            <path class="cls-70" d="M381.66,624.19l-.1,.36-.37,1.31-5.67,19.9-18.28,64.2c-2.03,.44-3.59,.32-4.76-.07-2.68-.88-3.38-3.13-3.38-3.13l12.69-103.18,.15-1.23,.25-1.99,5.51,6.75,1.78,2.18,12.19,14.91Z"/>
            <path class="cls-3" d="M381.56,624.55l-24.32,85.41c-2.03,.44-3.59,.32-4.76-.07l15.21-102.79v-.06s1.78,2.24,1.78,2.24l12.09,15.27Z"/>
            <polygon class="cls-68" points="391 625.85 385.34 645.75 371.6 603.58 371.75 602.35 391 625.85"/>
          </g>
          <g>
            <path class="cls-9" d="M284.78,642.65l-1.23,15.96-7.19,93.4-.09,1.19c-.05,.04-.1,.08-.15,.12-2.95,2.44-6.24,2.22-8.84,1.35-2.76-.92-4.75-2.56-4.75-2.56l-8.3-120.35-.26-3.68-.17-2.44,8.77,4.81,2.51,1.38h0l19.68,10.81Z"/>
            <path class="cls-47" d="M285.86,642.22s-.43,6.49-1.13,16.38c-1.89,26.74-5.74,78.28-8.37,93.42-.08,.47-.16,.91-.24,1.31-2.95,2.44-6.24,2.22-8.84,1.35l-4-105.77-.67-17.91-.02-.54-.05-1.33,8.26,4.64,15.07,8.45Z"/>
            <path class="cls-2" d="M285.86,642.22s-.43,6.49-1.13,16.38h-1.18s-15.06,.19-15.06,.19l-5.22-9.88-9.04-17.14-.26-3.68,8.63,2.91,2.49,.84h0l5.69,1.93,15.07,8.45Z"/>
          </g>
          <g>
            <path class="cls-47" d="M398.16,642.65l-1.23,15.96-7.19,93.4-.09,1.19c-.05,.04-.1,.08-.15,.12-2.95,2.44-6.24,2.22-8.84,1.35-2.76-.92-4.75-2.56-4.75-2.56l-8.3-120.35-.26-3.68-.17-2.44,8.77,4.81,2.51,1.38h0l19.68,10.81Z"/>
            <path class="cls-40" d="M399.25,642.22s-.43,6.49-1.13,16.38c-1.89,26.74-5.74,78.28-8.37,93.42-.08,.47-.16,.91-.24,1.31-2.95,2.44-6.24,2.22-8.84,1.35l-4-105.77-.67-17.91-.02-.54-.05-1.33,8.26,4.64,15.07,8.45Z"/>
            <path class="cls-2" d="M399.25,642.22s-.43,6.49-1.13,16.38h-1.18s-15.06,.19-15.06,.19l-5.22-9.88-9.04-17.14-.26-3.68,8.63,2.91,2.49,.84h0l5.69,1.93,15.07,8.45Z"/>
          </g>
          <g>
            <polygon class="cls-64" points="276.49 644.4 393.36 644.83 397.73 633.93 269.95 634.36 276.49 644.4"/>
            <polygon class="cls-35" points="235.06 579.85 235.06 600.35 266.02 645.27 269.95 634.36 235.06 579.85"/>
            <polygon class="cls-76" points="235.06 579.85 400.34 580.29 397.73 633.93 269.95 634.36 235.06 579.85"/>
          </g>
          <g>
            <polygon class="cls-43" points="249.89 460.51 244.36 539.59 251.34 550.92 258.32 469.81 249.89 460.51"/>
            <polygon class="cls-35" points="258.32 469.81 443.52 466.03 436.54 454.69 249.89 460.51 258.32 469.81"/>
            <polygon class="cls-76" points="443.52 466.03 426.07 551.07 409.68 551.06 302.3 550.97 287.28 550.95 251.34 550.92 258.32 469.81 443.52 466.03"/>
            <polygon class="cls-64" points="420.95 551.07 409.68 551.06 412.7 501.79 420.95 551.07"/>
            <polygon class="cls-64" points="302.39 550.96 302.3 550.97 287.28 550.95 294.66 501.79 302.39 550.96"/>
          </g>
          <g>
            <polygon class="cls-9" points="275.47 501.21 262.1 640.18 265.88 647.16 281 507.6 275.47 501.21"/>
            <polygon class="cls-47" points="281 507.6 299.89 508.48 282.38 647.01 265.88 647.16 281 507.6"/>
            <polygon class="cls-40" points="275.47 501.21 294.66 501.79 299.89 508.48 281 507.6 275.47 501.21"/>
          </g>
          <g>
            <polygon class="cls-9" points="393.51 501.21 380.14 640.18 383.92 647.16 399.03 507.6 393.51 501.21"/>
            <polygon class="cls-47" points="399.03 507.6 417.93 508.48 400.42 647.01 383.92 647.16 399.03 507.6"/>
            <polygon class="cls-40" points="393.51 501.21 412.7 501.79 417.93 508.48 399.03 507.6 393.51 501.21"/>
          </g>
        </g>
        <g>
          <path class="cls-35" d="M205.84,257.03l2.76,4.03-18.1,17.84-1.96,1.93-18.9-16.86s-1.74-25.88-1.16-27.04c.59-1.16,16.28-13.66,17.45-14.24,1.11-.56,14.34-4.35,15.35-4.63,.04-.01,.06-.02,.06-.02l16.57,29.95-12.04,9.03-.02,.02Z"/>
          <path class="cls-35" d="M246.4,347.7c0,.85-3.03,21.77-5.33,24.25-.07,.07-.13,.13-.19,.17-1.6,1-16.83,5.67-26.13,8.48-4.18,1.26-7.16,2.14-7.16,2.14-4.79,.14-19.19-22.25-19.19-22.25,0,0-.01-.12-.03-.35-.16-2.05-.96-12.41-.7-14.77,.13-1.14,1.26-3.24,2.49-5.24,1.58-2.55,3.52-5.32,3.52-5.32l5.62,9.69s6.69,6.1,18.9,1.16c1.91-.77,3.53-1.69,4.91-2.7,7.47-5.42,7.89-13.28,7.89-13.28l-2.04-6.11,1.74,.59s2.06,2.98,4.69,6.81c4.63,6.75,11.01,16.18,11.01,16.73Z"/>
          <path class="cls-34" d="M147.26,349.45s6.11,5.82,10.76-1.45c4.65-7.27,.58-19.19,.58-19.19l-7.27-1.16-4.07,21.81Z"/>
          <path class="cls-23" d="M214.75,380.6c-4.18,1.26-7.16,2.14-7.16,2.14-4.79,.14-19.19-22.25-19.19-22.25,0,0-.01-.12-.03-.35,4.37,1.3,20.95,7.03,26.38,20.46Z"/>
          <path class="cls-56" d="M192.32,284.03s-.72,1.42-1.94,3.82c-3.37,6.6-10.57,20.67-17.34,33.55-7.18,13.65-13.88,25.96-15.02,26.59,0,0-.82-11.62-6.88-18.81-1.18-1.4-2.56-2.63-4.17-3.58l-6.1-26.16,9.59-19.19,14.89-14.88,2.56-2.56s10.38,.42,17.7,7.64c1.1,1.08,2.13,2.31,3.04,3.71,1.72,2.63,3.04,5.88,3.67,9.87Z"/>
          <path class="cls-34" d="M192.32,284.03s-.72,1.42-1.94,3.82c-3.37,6.6-10.57,20.67-17.34,33.55-1.58-5.66-4.56-10.04-4.56-10.04l20.17-37.2c1.72,2.63,3.04,5.88,3.67,9.87Z"/>
          <polygon class="cls-76" points="208.6 261.06 190.5 278.9 176.91 266.59 193.48 238.67 205.87 257.01 208.6 261.06"/>
          <path class="cls-35" d="M192.32,284.03s-.72,1.42-1.94,3.82c-1.13-3.03-4.22-10.28-9.39-15.45-4.89-4.89-12.11-6.52-15.64-7.04l2.56-2.56s21.23,.87,24.42,21.23Z"/>
          <path class="cls-27" d="M192.32,284.03s-.72,1.42-1.94,3.82c-3.37,6.6-10.57,20.67-17.34,33.55-7.18,13.65-13.88,25.96-15.02,26.59,0,0-.82-11.62-6.88-18.81l-8.53-10.26s12.21,6.1,20.64-6.98c7.4-11.48,19.51-35.74,22.36-41.49,1.1,1.08,2.13,2.31,3.04,3.71,1.72,2.63,3.04,5.88,3.67,9.87Z"/>
          <path class="cls-56" d="M149.59,350.61c-4.36,1.16-25.29,3.49-25.29,3.49l-14.25-20.64s24.42-23.84,37.22-11.63c3.88,3.71,5.63,7.83,6.16,11.76,1.23,8.99-3.84,17.02-3.84,17.02Z"/>
          <path class="cls-13" d="M149.59,350.61c-4.36,1.16-25.29,3.49-25.29,3.49l-4.07-6.1-1.45-10.46s4.94-.3,13.96-1.16c7.64-.74,17.79-2.32,20.7-2.78,1.23,8.99-3.84,17.02-3.84,17.02Z"/>
          <g>
            <path class="cls-34" d="M125.16,360.78l-12.77-.38-26.47-.78-29.66-14.83-3.92-16.57s-1.89-2.32-1.6-3.78c.17-.84,1.32-3.64,2.25-5.85,.67-1.59,1.24-2.88,1.24-2.88l34.89,15.41s25,5.81,26.16,6.1c1.16,.3,4.94,1.16,4.94,1.16,0,0,6.4,13.95,6.98,16.86,.58,2.91-2.04,5.52-2.04,5.52Z"/>
            <path class="cls-12" d="M125.16,360.78l-12.77-.38-11.07-3.69s-2.03-11.05-18.61-17.44c-13.54-5.23-25.72-16.67-29.73-20.67,.67-1.59,1.24-2.88,1.24-2.88l34.89,15.41s25,5.81,26.16,6.1c1.16,.3,4.94,1.16,4.94,1.16,0,0,6.4,13.95,6.98,16.86,.58,2.91-2.04,5.52-2.04,5.52Z"/>
            <path class="cls-61" d="M150.45,492.63c-1.39,.2-3.29,.37-5.59,.5-6.2,.35-15.31,.4-25.08-.09-15.76-.8-33.23-3.01-42.96-7.68-1.74-.84-3.23-1.75-4.42-2.75-13.52-11.33-20.06-27.47-20.06-27.47l74.3-11.52,4.7-.73,7.02-1.09,1.83,6.71,1.37,5.01,2.57,9.45,6.34,29.67Z"/>
            <path class="cls-56" d="M119.78,493.03c-18.58-.94-39.53-3.84-47.38-10.43-13.52-11.33-20.06-27.47-20.06-27.47l87.22-13.52,1.45,6.77c-22.19,15.98-21.73,38.91-21.23,44.65Z"/>
            <path class="cls-18" d="M141.55,453.52c-.87,1.34-2.66,3.92-5.46,7-5.54,6.07-15.05,14.11-29.24,18.6-12.55,3.97-22.88,5.59-30.03,6.24-1.74-.84-3.23-1.75-4.42-2.75-13.52-11.33-20.06-27.47-20.06-27.47l74.3-11.52c1.86,.3,3.6,.65,5.19,1.06,3.68,.95,6.58,2.21,8.36,3.83l1.37,5.01Z"/>
            <path class="cls-56" d="M136.5,453.82s-1.38,2.19-4.89,4.9c-6.04,4.65-18.41,10.85-41,10.09-2.72-.09-5.6-.28-8.63-.59-12.01-1.4-21.73-4.64-29.14-9.47-8.74-5.68-14.29-13.57-16.64-23.24,0,0-12.21-46.22,11.77-104.66l4.36-2.62s11.34,23.11,42.3,27.47l4.93,1.58,29.09,9.33,4.34,48.18,.5,5.57,3.01,33.47Z"/>
            <path class="cls-64" d="M46.85,454.04c-5.34-5.06-8.89-11.3-10.65-18.53,0,0-5.9-22.35-1.44-55.6h5.8l6.05,71.25,.16,1.9,.08,.98Z"/>
            <path class="cls-31" d="M52.48,359.33c-1.97,5.9-9.64,64.52,.36,99.41-2.2-1.43-4.2-3-5.99-4.7l-.08-.98-.16-1.9-6.05-71.25h-5.8c1.96-14.58,5.9-31.25,13.21-49.06,0,0,6.54,15.12,18.17,20.64,0,0-11.63,1.74-13.66,7.85Z"/>
            <path class="cls-17" d="M99.56,357.27c-1.92,1.48-4.8,2.96-9.07,4.31-30.75-5.02-42.52-30.74-42.52-30.74l4.36-2.62s11.34,23.11,42.3,27.47l4.93,1.58Z"/>
            <path class="cls-22" d="M136.5,453.82s-1.38,2.19-4.89,4.9c-6.04,4.65-18.41,10.85-41,10.09-15.55-30.29-12.98-81.71-12.98-81.71l36.2,2.4,17.22,18.09,2.44,12.76,3.01,33.47Z"/>
            <path class="cls-73" d="M136.5,453.82s-1.38,2.19-4.89,4.9c-.67-2.68-2.2-6.84-5.57-11.01-10.91,1.31-25.73-4.36-25.73-4.36l-5.23-21.8,37.91-6.77,3.52,39.04Z"/>
            <path class="cls-34" d="M159.94,440.63s-.3,.41-.84,1.05c-.27,.33-.61,.74-1.01,1.18-2.36,2.6-6.64,6.63-10.91,7.04-8.94,.87-16.79-9.16-16.79-9.16l-.58-1.3,11.05-7.85,12.64-4.51,4.8,12.5,1.64,1.05Z"/>
            <path class="cls-12" d="M159.1,441.68c-.27,.33-.61,.74-1.01,1.18-2.49,1.28-8.19,3.86-11.85,2.97-4.8-1.16-11.77-6.1-11.77-6.1l12.35-7.42,11.05,6.54,1.23,2.83Z"/>
            <path class="cls-56" d="M207.59,382.74c-.86,1.41-1.7,2.79-2.54,4.13-10.48,16.92-19.17,28.67-26.06,36.81-13.21,15.6-19.82,17.93-19.82,17.93-3.93,.87-13.96-8.29-13.96-8.29l.3-13.41,.57-25.84c11.98-14.97,30.3-26.65,38.32-31.33,2.49-1.46,3.98-2.25,3.98-2.25,5.04,1.64,8.75,4,11.49,6.59,.58,.54,1.11,1.1,1.61,1.65,5.89,6.66,6.09,14,6.09,14Z"/>
            <path class="cls-34" d="M207.59,382.74c-.86,1.41-1.7,2.79-2.54,4.13-10.48,16.92-19.17,28.67-26.06,36.81-.7-3.3-2.98-11.8-8.77-15.51l27.91-35.21,3.36-4.24c5.89,6.66,6.09,14,6.09,14Z"/>
            <path class="cls-35" d="M207.59,382.74c-.86,1.41-1.7,2.79-2.54,4.13-.95-5.62-3.66-10.23-6.92-13.9-.67-.76-1.37-1.48-2.08-2.16-4.21-4.05-8.85-6.69-11.65-8.07,2.49-1.46,3.98-2.25,3.98-2.25,5.04,1.64,8.75,4,11.49,6.59,.58,.54,1.11,1.1,1.61,1.65,5.89,6.66,6.09,14,6.09,14Z"/>
            <path class="cls-19" d="M207.59,382.74c-.86,1.41-1.7,2.79-2.54,4.13-10.48,16.92-19.17,28.67-26.06,36.81-13.21,15.6-19.82,17.93-19.82,17.93-3.93,.87-13.96-8.29-13.96-8.29l.3-13.41,50.54-49.11,3.83-3.73c.58,.54,1.11,1.1,1.61,1.65,5.89,6.66,6.09,14,6.09,14Z"/>
            <path class="cls-56" d="M146.92,434.56c-3.57,3.07-8.52,5.67-15.36,7.1l-1.17-.93,.3,1.1c-.38,.07-.77,.14-1.17,.21l-25.29-19.19,33.85-25.93,7.14-5.47,10.91,21.37s1.15,12.84-9.21,21.73Z"/>
            <path class="cls-34" d="M146.7,394.35c-1.2,5.49-4.41,12.72-12.29,20.17-.17,.16-.35,.32-.52,.48-9.6,8.85-21.26,10.63-29.62,10.5-6.47-.09-10.94-1.34-10.94-1.34,0,0-11.77-6.54-15.26-31.39-1.91-13.57,2.56-22.86,7.01-28.49,3.7-4.68,7.38-6.84,7.38-6.84,3.59-1.84,7.06-2.98,10.36-3.51,27.17-4.45,44.14,30.55,44.14,30.55,0,0,.07,.28,.16,.8,.23,1.43,.53,4.71-.43,9.07Z"/>
            <path class="cls-35" d="M119.93,378.81c-2.18,6.54-14.83,9.6-14.83,9.6-6.58-14.72-17.63-22.55-20.03-24.13,3.7-4.68,7.38-6.84,7.38-6.84,3.59-1.84,7.06-2.98,10.36-3.51,13.61,7.77,17.11,24.88,17.11,24.88Z"/>
            <path class="cls-13" d="M146.92,434.56c-.26-1.31-.66-2.74-1.26-3.86-.92-1.71-6.76-9.93-11.26-16.18,7.88-7.45,11.09-14.68,12.29-20.17l9.43,18.48s1.15,12.84-9.21,21.73Z"/>
            <path class="cls-12" d="M146.7,394.35c-1.2,5.49-4.41,12.72-12.29,20.17-.17,.16-.35,.32-.52,.48-9.6,8.85-21.26,10.63-29.62,10.5-2.61-4.85-13.76-26.45-11.96-38.27,2.03-13.37,13.08-17.44,13.08-17.44,19.82-11.26,35.62,6.78,41.74,15.49,.23,1.43,.53,4.71-.43,9.07Z"/>
          </g>
          <path class="cls-56" d="M131.56,441.67c-.28,.06-.57,.11-.87,.17l-.3-1.1,1.17,.93Z"/>
          <path class="cls-37" d="M141.12,451.95c-.17-.06-.26-.09-.26-.09l-.85,24.23-9.32-34.25c.3-.06,.59-.12,.87-.17l8.62,6.84,.94,3.44Z"/>
          <path class="cls-59" d="M164.2,565.03l-24.18-88.94,.85-24.23s.09,.03,.26,.09l22.42,82.33,.66,30.75Z"/>
          <path class="cls-41" d="M160.93,302.93s-1.4,3.38-4.12,7.88c-3.18,5.28-8.17,12.11-14.81,16.85,0,0-8.55,7.97-20.11,8.63-.04,0-.08,0-.12,0-2.06,.09-4.18-.62-6.27-1.84-3.63-2.12-7.16-5.78-10.14-9.52-4.9-6.11-8.33-12.42-8.33-12.42l-1.88-12.76-1.17-7.96,15.91-10.46,14.68-12.05,18.25-14.98s16.57,24.64,18.1,48.62Z"/>
          <polyline class="cls-7" points="133.96 290.94 138.9 277.27 149.66 280.47"/>
          <path class="cls-25" d="M156.81,310.81c-3.18,5.28-8.17,12.11-14.81,16.85,0,0-8.55,7.97-20.11,8.63-.04,0-.08,0-.12,0l-6.27-1.84-7.13-2.1-3.01-7.42-10.21-25.18-1.17-7.96,15.91-10.46,14.68-12.05,11.06-6.92s10.03,17.22,15.26,30.53c3.35,8.52,5.09,14.63,5.91,17.92Z"/>
          <path class="cls-56" d="M144.64,254.09s-18.32,26.45-43.9,39.54c2.16,8.33,7.57,19.41,13.54,27.64,4.46,6.15,9.23,10.69,13.21,11.32,9.17-1.67,14.09-4.66,14.5-4.92-.57,.55-9.92,9.36-21.19,11.9-5.08,1.14-11.42,.51-17.89-1.08l-2.1-.55c-7.66-2.1-15.3-5.4-21.01-8.55,0,0-3.35,1.02-7.37,1.1-1.66,.03-3.43-.09-5.13-.52-5.82-1.45-22.68-22.38-28.2-50.59-.03-.28-.05-.56-.07-.86-.75-11.86,6.5-34.04,32.05-46.24,26.17-12.5,56.4-8.43,61.93-.87,.69,.77,1.38,1.6,2.06,2.47,.84,1.06,1.68,2.19,2.49,3.35,5.05,7.19,9.12,15.51,7.09,16.86Z"/>
          <path class="cls-22" d="M144.64,254.09s-18.32,26.45-43.9,39.54c3.78,14.54,17.44,37.51,26.75,38.96,9.17-1.67,14.09-4.66,14.5-4.92-.57,.55-9.92,9.36-21.19,11.9-5.08,1.14-11.42,.51-17.89-1.08l-2.1-.55c-7.66-2.1-15.3-5.4-21.01-8.55,0,0-3.35,1.02-7.37,1.1-1.53-4.16-5.13-14.44-5.13-19.7,0-6.69,4.07-23.55,25.58-35.76,17.32-9.83,37.47-30.22,44.66-37.79,5.05,7.19,9.12,15.51,7.09,16.86Z"/>
          <path class="cls-19" d="M142,327.67c-.57,.55-9.92,9.36-21.19,11.9-5.08,1.14-11.42,.51-17.89-1.08l-2.1-.55c-7.66-2.1-15.3-5.4-21.01-8.55l7.56-9.6,15.41-6.69s4.88,5.04,11.51,8.16c4.46,6.15,9.23,10.69,13.21,11.32,9.17-1.67,14.09-4.66,14.5-4.92Z"/>
          <g>
            <ellipse class="cls-35" cx="89.51" cy="311.53" rx="16.06" ry="12.83" transform="translate(-66.35 27.33) rotate(-12.71)"/>
            <polygon class="cls-35" points="106.3 312.96 105.18 307.99 100.08 303.51 94.08 302.95 73.84 315.06 74.96 320.03 106.3 312.96"/>
            <ellipse class="cls-34" cx="90.63" cy="316.49" rx="16.06" ry="12.83" transform="translate(-67.42 27.7) rotate(-12.71)"/>
            <ellipse class="cls-57" cx="90.99" cy="318.09" rx="10.98" ry="8.77" transform="translate(-67.76 27.82) rotate(-12.71)"/>
            <ellipse class="cls-45" cx="90.75" cy="317.03" rx="10.98" ry="8.77" transform="translate(-67.53 27.74) rotate(-12.71)"/>
          </g>
          <path class="cls-69" d="M232.83,335.8c-.12,3.24-1.5,11.38-12.3,12.2-13.52,1.01-19.77,.14-19.77,.14l-1.45-3.63-8.59-14.66,18.34-7.66,16.67-6.97,7.08,19.25s.05,.51,.02,1.32Z"/>
          <polygon class="cls-35" points="13.09 281.78 40.56 379.9 24.21 379.9 13.09 281.78"/>
          <path class="cls-31" d="M133.01,232.86c-2.49,4.26-8.64,15.88-33.58,29.51-25.2,13.77-48.59,20.82-60.39,16.15-.75-11.86,6.5-34.04,32.05-46.24,26.17-12.5,56.4-8.43,61.93-.87,.69,.77-.68,.58,0,1.45Z"/>
          <path class="cls-36" d="M232.83,335.8c-.63,1.89-1.17,3.51-1.25,3.77-.22,.65-11.12,6.1-11.12,6.1l-11.39-23.48,16.67-6.97,7.08,19.25s.05,.51,.02,1.32Z"/>
          <path class="cls-76" d="M235.39,330.97c.03,3.95-.89,8.38-4.11,12.08-1.6,1.84-3.34,3.42-5.19,4.73-7.19,5.09-16.03,6.13-25.04,3.13-6.61-2.21-9.57-7.09-10.88-10.77,1.58-2.55,3.52-5.32,3.52-5.32l5.62,9.69s6.69,6.1,18.9,1.16c1.91-.77,3.53-1.69,4.91-2.7,7.47-5.42,7.89-13.28,7.89-13.28l-2.04-6.11,1.74,.59s2.06,2.98,4.69,6.81Z"/>
          <path class="cls-23" d="M246.4,347.7c0,.85-3.03,21.77-5.33,24.25l-14.98-24.18-2.98-4.81c7.47-5.42,7.89-13.28,7.89-13.28l-2.04-6.11,1.74,.59s2.06,2.98,4.69,6.81c4.63,6.75,11.01,16.18,11.01,16.73Z"/>
          <path class="cls-66" d="M226.19,318.6c-.5,5.05-5.89,10.82-13.73,14.09-7.17,3-14.38,3.07-18.58,.62-1.47-.85-2.56-2.01-3.17-3.45-2.34-5.61,3.6-13.43,13.27-17.47,9.66-4.04,19.4-2.76,21.74,2.84,.44,1.06,.59,2.2,.47,3.38Z"/>
          <path class="cls-67" d="M226.19,318.6c-.5,5.05-5.89,10.82-13.73,14.09-7.17,3-14.38,3.07-18.58,.62,.5-5.05,5.89-10.82,13.73-14.09,7.17-2.99,14.38-3.06,18.58-.61Z"/>
          <path class="cls-33" d="M217.91,247.98l-12.04,9.03-12.38-18.34s-13.37,4.94-13.66-3.49c-.28-8.17,20.18-16.61,21.45-17.13,.04-.01,.06-.02,.06-.02l16.57,29.95Z"/>
          <path class="cls-34" d="M84.53,237.8l-1.11-1.67-.09,.27c-2.65-2.18-7.59-2.08-12.07,.5-4.54,2.62-7.1,6.93-6.44,10.34l-.53-.07,1.11,1.67c2.05,3.55,7.99,3.95,13.27,.9,5.28-3.05,7.91-8.4,5.86-11.94Z"/>
          <ellipse class="cls-35" cx="73.85" cy="241.66" rx="11.05" ry="7.41" transform="translate(-110.93 69.3) rotate(-30)"/>
          <path class="cls-69" d="M76.75,244.71c-.12,.07-.25,.14-.37,.2-5.9,3.19-9.77,.89-9.77,.89l-13.96-35.47,2.05-1.1,1.74-.94,25,29.08c.4,2.76-2.57,6.13-4.69,7.34Z"/>
          <path class="cls-36" d="M76.75,244.71c-.12,.07-.25,.14-.37,.2l-21.68-35.68,1.74-.94,25,29.08c.4,2.76-2.57,6.13-4.69,7.34Z"/>
          <path class="cls-77" d="M63.24,209.23c0,4.71-3.82,8.53-8.53,8.53-3.49,0-6.48-2.09-7.81-5.08-.47-1.05-.72-2.22-.72-3.45,0-4.71,3.82-8.53,8.53-8.53,1.23,0,2.39,.26,3.44,.72,3,1.32,5.09,4.32,5.09,7.81Z"/>
          <path class="cls-35" d="M58.88,204.87c0,4.71-3.82,8.54-8.54,8.54-1.23,0-2.39-.26-3.44-.72-.47-1.05-.72-2.22-.72-3.45,0-4.71,3.82-8.53,8.53-8.53,1.23,0,2.39,.26,3.44,.72,.47,1.05,.73,2.22,.73,3.44Z"/>
        </g>
        <g>
          <polygon class="cls-55" points="529.65 326.04 496.5 289.63 497.3 299.15 491.78 308.74 510.68 330.55 529.65 326.04"/>
          <polygon class="cls-38" points="492.69 309.36 511.55 330.4 526.81 434.63 515.04 428.09 484.95 318.63 492.69 309.36"/>
          <polygon class="cls-30" points="511.55 330.4 529.65 326.04 539.89 430.71 526.81 434.63 511.55 330.4"/>
          <polygon class="cls-10" points="280.71 251.76 269.37 252.05 262.97 247.11 268.49 257.86 281.29 262.81 285.07 260.48 280.71 251.76"/>
          <polygon class="cls-10" points="283.32 251.18 292.33 246.53 296.7 238.09 297.57 249.14 294.08 258.16 285.07 260.48 283.32 251.18"/>
          <polygon class="cls-56" points="286.23 258.45 283.32 243.62 274.89 234.32 284.19 266.01 286.23 258.45"/>
          <path class="cls-9" d="M308.54,323.42c-2.84,1.42-14.39-4.03-18.1-10.9-1.14-2.12-2.44-4.83-3.63-7.47-2.05-4.5-3.82-8.79-4.16-9.61-.04-.09-.06-.14-.06-.14v-1.71l1.75-5.92,11.55-6.76h13.42l.76,11.56c-.07-.04,.42,1.84,1.05,4.41,.74,3.06,1.66,7.1,2.01,9.98,.59,4.99-.87,14.72-4.58,16.57Z"/>
          <path class="cls-56" d="M308.54,323.42c-2.84,1.42-14.39-4.03-18.1-10.9-1.14-2.12-2.44-4.83-3.63-7.47,3-4.89,7.56-7.19,12.13-8.14,4.55-.94,9.11-.55,12.18-.04,.74,3.06,1.66,7.1,2.01,9.98,.59,4.99-.87,14.72-4.58,16.57Z"/>
          <path class="cls-14" d="M308.54,323.42s-3.71-14.17-7.19-21.8c-.79-1.73-1.59-3.31-2.41-4.71-2.81-4.79-5.87-7.47-9.58-6.63-3.05,.7-5.41,3.34-6.7,5.16-.7,.98-1.1,1.72-1.14,1.81l1.08-3.66,1.75-5.92,11.55-6.76h13.42l.76,11.56c-.07-.04,.42,1.84,1.05,4.41,.74,3.06,1.66,7.1,2.01,9.98,.59,4.99-.87,14.72-4.58,16.57Z"/>
          <path class="cls-41" d="M316.83,285.7c-1.53,4.14-6.76,6.76-6.76,6.76,0,0,.22-.66-1.31-3.71-1.53-3.05-4.58-3.92-14.61-2.83-10.03,1.09-11.56,9.37-11.56,9.37-1.2-.2-3.24-1.33-5.07-3.15-2.14-2.13-3.98-5.2-3.87-8.84,.22-6.76,0-9.81,1.09-15.48,1.09-5.67,8.07-9.59,15.48-11.77,7.41-2.18,18.75-.87,18.75-.87,0,0,3.4,9.57,5.77,18.08,1.57,5.63,2.69,10.8,2.08,12.45Z"/>
          <path class="cls-25" d="M316.83,285.7c-1.53,4.14-6.76,6.76-6.76,6.76,0,0,.22-.66-1.31-3.71-1.53-3.05-4.58-3.92-14.61-2.83-10.03,1.09-11.56,9.37-11.56,9.37-1.2-.2-3.24-1.33-5.07-3.15-.32-3.01-.27-6.8,1.44-9.28,3.2-4.65,13.08-6.4,23.84-8.14,10.5-1.71,7.7-8.12,7.56-8.42l4.39,6.95c1.57,5.63,2.69,10.8,2.08,12.45Z"/>
          <path class="cls-9" d="M393.22,233.44l-15.12,25.3-6.33,16.93s-3.23-2.22-6.43-1.64c-3.2,.58-41.61,13.77-41.61,13.77,0,0-1.74,1.16-8.43-2.33-2.83-2.4-4.76-5.34-6.02-8.5-4.74-11.8-.3-26.69,1.08-27.83,1.74-1.45,55.24-16.57,59.6-16.57s23.26,.87,23.26,.87Z"/>
          <path class="cls-15" d="M378.1,258.74l-6.69,15.11s-3.2-1.74-6.4-1.16c-3.2,.58-41.29,15.12-41.29,15.12,0,0-1.74,1.16-8.43-2.33-2.83-2.4-4.76-5.34-6.02-8.5,1.89-.28,4.75-.78,8.93-1.67,9.6-2.03,40.7-15.99,42.73-16.28,1.71-.25,13.4-.29,17.16-.29Z"/>
          <path class="cls-9" d="M513.51,472.13c-5.89,7.85-19.63,14.39-19.63,14.39l-23.87-39.2-13.39-25.28-2.74-4.74-1.21-2.09,60.62-64.32s.21,1.21,.55,3.35c1.76,10.79,7.19,45.25,8.83,68.17,1.96,27.48-3.27,41.87-9.16,49.72Z"/>
          <path class="cls-9" d="M443.95,350.46l-7.49,16.44-6.02,13.22s-16.76-27.18-18.88-37.12c-.56-2.65-.09-4.07,2.02-3.43,1.15,.35,2.43,.76,3.8,1.21,.01,0,.03,.01,.04,.02,2.67,.89,5.67,1.94,8.67,3.01,8.94,3.21,17.87,6.65,17.87,6.65Z"/>
          <path class="cls-41" d="M477.53,293.77l-2.01,17.71-.17,1.48-23.99,23.55s-1.71,.14-4.44,.32c-5.17,.33-13.98,.75-21.67,.41-3.84-.17-7.41-.52-10.09-1.16-10.91-2.62-44.36-14.94-47.54-46.52-3.78-37.51,18.76-48.12,18.76-48.12l32.7-13.95,35.32,17.88,.8,.96,18.39,22.16,3.92,25.29Z"/>
          <path class="cls-15" d="M450.06,351.77l-11.63,17.15s-.76-.76-1.97-2.02c-2.05-2.15-5.39-5.76-8.5-9.61-3.97-4.9-13.02-11.79-16.41-14.3-.56-2.65-.09-4.07,2.02-3.43,1.15,.35,2.43,.76,3.8,1.21,.01,0,.03,.01,.04,.02,1.6,.61,3.3,1.29,4.88,1.97,.9,.38,2.22,.74,3.79,1.05,7.26,1.46,19.76,2.15,19.76,2.15l4.22,5.81Z"/>
          <path class="cls-25" d="M477.53,293.77l-2.01,17.71-28.59,25.34-6.03,5.35-15.64-4.94-17.51-5.53c-1.74-1.31-35.32-20.06-32.27-53.21,0,0,18.32,27.91,46.23,14.83,27.91-13.08,12.64-39.69-.87-44.48-13.52-4.8-29.66-4.36-29.66-4.36l28.35-12.21,35.69,14.04,18.39,22.16,3.92,25.29Z"/>
          <path class="cls-55" d="M495.85,320.37s-.94,1.99-4.15,4.86c-1.85,1.65-4.45,3.59-8.06,5.61-9.89,5.52-36.92,19.77-36.92,19.77,0,0-19.24-3.69-31.5-9.01-2.74-1.18-5.13-2.45-6.88-3.78l.29-2.33s.98,.27,2.66,.66c5.08,1.2,16.5,3.56,26.12,3.12,12.79-.59,38.38-18.03,38.38-18.03l15.12-5.23,.72,.64,4.22,3.72Z"/>
          <path class="cls-11" d="M486.25,325.9c-1.85,1.65,.99,2.93-2.62,4.94-9.89,5.52-36.92,19.77-36.92,19.77,0,0-19.24-3.69-31.5-9.01-2.52-2.75-4.56-5.23-4.56-5.23,0,0,.22-.07,.62-.21,7.6-2.56,79.84-25.72,78.75-21.3-.23,.91-.79,.64-.87,2.04-.14,2.65-3.04,6.3-2.91,9.01Z"/>
          <path class="cls-9" d="M464.01,334.76c-20.42,7.54-37,8.29-50.38,4.04-5.19-1.65-9.9-4.05-14.17-7.09l15.29-3.2,3.47-.72,12.64,4.36s29.66-3.05,30.97-35.32c.12-3.08,.08-6.06-.11-8.95-1.86-27.46-17.86-46.33-43.5-49.48l-7.85,6.54-30.53,1.31-1.74-2.62s13.52-20.28,36.19-26.6c31.79-8.87,68.38,1.04,82.67,36.04,.87,2.13,1.67,4.37,2.37,6.7,12.21,40.56-6.98,64.55-35.32,75.01Z"/>
          <path class="cls-15" d="M464.01,334.76c-20.42,7.54-37,8.29-50.38,4.04,5.28-1.54,13.31-4.91,13.31-4.91l-12.19-5.38,3.47-.72,12.64,4.36s29.66-3.05,30.97-35.32c.12-3.08,.08-6.06-.11-8.95,5.11-2.6,11.08-6.21,17.11-11.11,9.92-8.04,15.39-17.56,18.13-23.71,.87,2.13,1.67,4.37,2.37,6.7,12.21,40.56-6.98,64.55-35.32,75.01Z"/>
          <polygon class="cls-55" points="477.97 442.04 471.2 447.27 470.34 447.93 470.01 447.33 456.39 422.24 453.77 417.4 453.88 417.31 470.56 404.54 472.93 406.1 476.22 408.25 477.97 442.04"/>
          <path class="cls-9" d="M513.84,354.25c.14,18.49-40.89,51.82-40.89,51.82,0,0,0,.01-.02,.03-.43,.53-6.98,8.53-16.3,15.96-.08,.06-.16,.12-.23,.18-8.69,6.89-19.76,13.23-30.54,12.61-22.9-1.31-74.57-26.17-75.88-30.75l-1.31-4.57,7.52-16.94,8.84-19.91s9.6,.43,17.88,2.18c8.29,1.74,41.43,17.88,41.43,17.88,0,0,12.21-27.91,23.99-43.17,11.77-15.26,30.53-17.01,38.38-12.21l1.45-.61,3.78-1.57s15.26,8.29,21.36,25.73c.37,1.05,.54,2.17,.55,3.35Z"/>
          <path class="cls-56" d="M458.78,362.67s6.11,8.29,21.37,11.77l-7.85,14.39s-18.17-1.16-22.1-12.94l8.58-13.23Z"/>
          <path class="cls-15" d="M513.51,472.13c-5.89,7.85-19.63,14.39-19.63,14.39l-23.5-38.56-.05-.03-13.95-25.69c-8.69,6.89-19.76,13.23-30.54,12.61-6.65-.38-15.74-2.75-25.3-6.03-5.92-2.02-12.03-4.41-17.86-6.88-17.2-7.29-32.02-15.41-32.71-17.83l-1.31-4.57,7.52-16.94c9.52,5.27,49.45,26.75,68.59,26.75,21.8,0,40.12-33.58,49.71-38.82,9.6-5.23,22.24-11.77,22.24-20.5,0-7.42-4.74-18.33-8.58-23.29l3.78-1.57s15.26,8.29,21.36,25.73c.37,1.05,.54,2.17,.55,3.35,1.76,10.79,7.19,45.25,8.83,68.17,1.96,27.48-3.27,41.87-9.16,49.72Z"/>
          <polygon class="cls-30" points="477.97 442.04 471.2 447.27 470.34 447.93 470.01 447.33 466.19 413.99 476.22 408.25 477.97 442.04"/>
          <circle class="cls-9" cx="433.05" cy="263.24" r="6.76"/>
          <circle class="cls-9" cx="429.45" cy="277.09" r="2.73"/>
          <polygon class="cls-30" points="389.87 401.03 389.77 401.32 389.14 399.72 389.87 401.03"/>
          <path class="cls-30" d="M382.68,421.93l7.09-20.61,10.78,27.49c-5.92-2.02-12.03-4.41-17.86-6.88Z"/>
          <path class="cls-56" d="M516.34,420.67c-13.95,12.65-39.61,11.9-43.17,9.16-5.67-4.36-1.3-9.6-1.3-9.6,0,0,4.51,.37,10.75-.13,8.02-.65,18.9-2.77,26.75-9.02,8.25-6.58,10.21-17.79,10.21-17.79,1.41,1.41,3.19,3.72,4.25,6.68,1.88,5.27,1.45,12.61-7.48,20.71Z"/>
          <path class="cls-29" d="M516.34,420.67c-13.95,12.65-39.61,11.9-43.17,9.16-5.67-4.36-1.3-9.6-1.3-9.6,0,0,4.51,.37,10.75-.13,2.1,1.83,5.64,4,10.32,3.48,7.85-.87,16.28-4.36,22.97-10.75,3.98-3.81,6.51-9.15,7.92-12.86,1.88,5.27,1.45,12.61-7.48,20.71Z"/>
          <path class="cls-41" d="M382.46,391.89c-9.01,3.78-19.77,0-19.77,0,0,0-13.37,10.76-18.9,11.05-3.77,.2-15.55-11.54-22.64-19-3.28-3.46-5.56-6-5.56-6,0,0,7.85-.87,12.5-5.82,4.65-4.94,7.85-12.21,20.93-5.81,0,0,9.6-2.62,15.7-.59,6.1,2.04,8.72,9.31,14.53,14.25,2.44,2.07,4.98,3.83,6.44,5.47,2.03,2.26,1.99,4.26-3.24,6.45Z"/>
          <path class="cls-25" d="M382.46,391.89c-9.01,3.78-19.77,0-19.77,0,0,0-13.37,10.76-18.9,11.05-3.77,.2-15.55-11.54-22.64-19,4.18-.08,10.83-.19,17.7-.19,11.34,0,31.69-5.81,31.69-5.81,0,0-1.74,6.1,6.4,7.85,4.69,1,7.35,.37,8.77-.35,2.03,2.26,1.99,4.26-3.24,6.45Z"/>
          <path class="cls-53" d="M376.79,356.28c0,19.35-15.69,35.03-35.03,35.03-14.61,0-27.14-8.95-32.39-21.67-1.71-4.12-2.65-8.63-2.65-13.37,0-19.35,15.69-35.03,35.03-35.03,8.3,0,15.93,2.89,21.93,7.72,7.99,6.41,13.11,16.27,13.11,27.32Z"/>
          <path class="cls-48" d="M366.33,342.32c0,19.35-15.69,35.03-35.03,35.03-8.3,0-15.92-2.88-21.92-7.71-1.71-4.12-2.65-8.63-2.65-13.37,0-19.35,15.69-35.03,35.03-35.03,8.3,0,15.93,2.89,21.93,7.72,1.71,4.11,2.64,8.63,2.64,13.36Z"/>
          <path class="cls-41" d="M350.35,400.4s-5.98,4.29-12.67,4.29-22.96-8.43-25.58-10.76c-.49-.43-.98-1.14-1.43-2.03-1.99-3.87-3.37-11.17-1.48-14.24,2.33-3.78,10.47,1.74,10.47,1.74,0,0,2.9,4.36,12.21,7.27,9.31,2.91,14.83,2.03,17.44,6.4,2.62,4.36,1.04,7.34,1.04,7.34Z"/>
          <path class="cls-49" d="M350.35,400.4s-5.1-4.73-8.01-5.3c-2.91-.58-7.56,1.74-16.86-3.49-8.09-4.55-13.99-6.25-14.81,.29-1.99-3.87-3.37-11.17-1.48-14.24,2.33-3.78,10.47,1.74,10.47,1.74,0,0,2.9,4.36,12.21,7.27,9.31,2.91,14.83,2.03,17.44,6.4,2.62,4.36,1.04,7.34,1.04,7.34Z"/>
          <path class="cls-76" d="M332.47,335.98c3.84,5.05-2.92,13.7-8.03,15.4-6.07,2.38-10.75-2.64-7.93-8.53,2.07-4.97,11.2-11.08,15.96-6.88h0Zm0,0c-5.01-4.16-12.24,3-13.54,7.81-1.28,3.91,.76,6.11,4.76,5.12,4.89-.94,12.56-7.64,8.78-12.93h0Z"/>
          <path class="cls-76" d="M358.13,342.29c2.17,4.94-3.3,10.31-8.34,9.87-4.51-.23-7.03-5.18-4.56-8.97,2.62-4.34,10.19-5.58,12.9-.91h0Zm0,0c-1.53-2.97-5.7-2.82-8.05-1.06-3.55,2.5-4.18,7.3,.1,8.38,4.04,1.27,10.05-2.71,7.95-7.32h0Z"/>
          <path class="cls-76" d="M341.34,362.35c2.17,4.94-3.3,10.31-8.34,9.87-4.51-.23-7.03-5.18-4.56-8.97,2.62-4.34,10.19-5.58,12.9-.91h0Zm0,0c-1.53-2.97-5.7-2.82-8.05-1.06-3.55,2.5-4.18,7.3,.1,8.38,4.04,1.27,10.05-2.71,7.95-7.32h0Z"/>
          <path class="cls-76" d="M350.37,328.63c.8,6.14-9.87,8.78-11.4,2.28-1.1-6.6,9.78-8.26,11.4-2.28h0Zm0,0c-1.11-4.6-8.92-2.48-8.46,1.69,1.17,4.05,9.21,2.99,8.46-1.69h0Z"/>
          <path class="cls-79" d="M370.72,358.43c.83,5.83-9.51,8.21-10.91,2.18-1.03-6.11,9.44-7.89,10.91-2.18h0Zm0,0c-1.18-4.78-9.51-2.73-8.95,1.79,1.21,4.4,9.71,3.08,8.95-1.79h0Z"/>
        </g>
        <g>
          <ellipse class="cls-25" cx="375.09" cy="432.91" rx="10.84" ry="12.6" transform="translate(-143.62 675.9) rotate(-74.19)"/>
          <path class="cls-69" d="M387.66,401.43c-.08,.07-.16,.14-.25,.22-.11,.1-.23,.2-.35,.3-.12,.1-.24,.2-.36,.28-.12,.09-.25,.19-.37,.28-.13,.09-.26,.18-.4,.27-.35,.23-.72,.46-1.11,.67-.13,.07-.25,.14-.38,.2-.07,.04-.14,.07-.22,.11-.3,.15-.61,.3-.93,.43-.48,.21-.98,.4-1.49,.56-.17,.06-.35,.12-.52,.17-.16,.05-.31,.09-.47,.14-.03,.01-.07,.02-.1,.03-.14,.04-.28,.07-.42,.11-.3,.08-.61,.15-.92,.21-.14,.03-.27,.06-.41,.08-.19,.04-.38,.07-.58,.1-.18,.03-.36,.06-.54,.08-.53,.08-1.08,.13-1.63,.17-.18,.02-.36,.03-.54,.03-.25,.01-.51,.02-.76,.03v-.92l12.16-7.47,3.2-1.96h-32l.18,1.55,.46,3.93,.84,7.2,2.51,21.6h24.27l.6-5.1v-.02l2.87-26.56c-.22,.55-.5,1.07-.85,1.58-.41,.6-.91,1.17-1.48,1.71Z"/>
          <path class="cls-66" d="M390.5,395.4l-.23,.14-3.2,1.96-12.16,7.47v.92c-.17,0-.35,0-.52,0-6.58,0-12.24-2.54-14.74-6.18-.57-.82-.98-1.71-1.2-2.64-.12-.51-.18-1.03-.18-1.55,0-5.72,7.22-10.36,16.12-10.36s16,4.56,16.12,10.21Z"/>
          <path class="cls-67" d="M387.07,397.5l-12.16,7.47v.92c-.17,0-.35,0-.52,0-6.58,0-12.24-2.54-14.74-6.18,1.14-1.68,2.95-3.12,5.22-4.18,2.67-1.26,5.96-2,9.52-2s6.86,.74,9.53,2c1.19,.56,2.25,1.21,3.16,1.96Z"/>
          <path class="cls-69" d="M386.52,429.83c0,.74-.16,1.44-.46,2.12-1.39,3.18-5.83,5.53-11.16,5.67-.17,.01-.35,.01-.52,.01-6.7,0-12.14-3.49-12.14-7.8s5.43-7.81,12.14-7.81c.17,0,.35,0,.52,.01,6.1,.16,11.04,3.23,11.57,7.1,.03,.23,.05,.46,.05,.69Z"/>
          <polyline class="cls-7" points="373.11 399.25 377.71 373.93 393.57 370.09"/>
        </g>
        <path class="cls-67" d="M389.14,399.72c-.41,.6-.91,1.17-1.48,1.71-.08,.07-.16,.14-.25,.22-.11,.1-.23,.2-.35,.3-.12,.1-.24,.2-.36,.28-.12,.09-.25,.19-.37,.28-.13,.09-.26,.18-.4,.27-.35,.23-.72,.46-1.11,.67-.13,.07-.25,.14-.38,.2-.07,.04-.14,.07-.22,.11-.3,.15-.61,.3-.93,.43-.48,.21-.98,.4-1.49,.56-.17,.06-.35,.12-.52,.17-.16,.05-.31,.09-.47,.14-.03,.01-.07,.02-.1,.03-.14,.04-.28,.07-.42,.11-.3,.08-.61,.15-.92,.21-.14,.03-.27,.06-.41,.08-.19,.04-.38,.07-.58,.1-.18,.03-.36,.06-.54,.08-.53,.08-1.08,.13-1.63,.17-.18,.02-.36,.03-.54,.03-.25,.01-.51,.02-.76,.03v-.92l12.16-7.47c.82,.67,1.52,1.42,2.07,2.22Z"/>
        <path class="cls-66" d="M390.27,395.54l-.28,2.6c-.22,.55-.5,1.07-.85,1.58-.55-.8-1.25-1.54-2.07-2.22l3.2-1.96Z"/>
        <path class="cls-15" d="M389.14,399.72c.35-.51,.63-1.03,.85-1.58l-2.87,26.56v.02l-.65,4.41-.1,.69-.31,2.12c-1.39,3.18-5.83,5.53-11.16,5.67v-31.72c.26,0,.51-.02,.76-.03,.18,0,.36-.02,.54-.03,.55-.04,1.1-.09,1.63-.17,.18-.03,.36-.05,.54-.08,.19-.03,.39-.06,.58-.1,.14-.03,.27-.06,.41-.08,.31-.06,.62-.13,.92-.21,.14-.04,.28-.07,.42-.11,.03-.01,.07-.02,.1-.03,.16-.04,.31-.09,.47-.14,.18-.05,.35-.11,.52-.17,.51-.17,1.01-.36,1.49-.56,.32-.13,.63-.28,.93-.43,.08-.04,.15-.07,.22-.11,.13-.06,.25-.13,.38-.2,.38-.21,.76-.43,1.11-.67,.13-.08,.26-.17,.4-.27,.13-.09,.25-.18,.37-.28,.12-.09,.25-.18,.36-.28,.12-.09,.23-.2,.35-.3,.08-.07,.17-.14,.25-.22,.57-.53,1.07-1.1,1.48-1.71Z"/>
        <path class="cls-66" d="M390.51,395.54c0,.9-.18,1.77-.52,2.6l.28-2.6,.23-.14c0,.05,0,.09,0,.14Z"/>
      </g>
    </g>
  </g>
</svg>