<?xml version="1.0" encoding="UTF-8"?>
<svg id="Layer_2" data-name="Layer 2" xmlns="http://www.w3.org/2000/svg" width="163.77" height="146.46" viewBox="0 0 163.77 146.46">
  <defs>
    <style>
      .cls-1 {
        fill: #1a1a1a;
      }

      .cls-1, .cls-2 {
        fill-rule: evenodd;
      }

      .cls-2 {
        fill: #fc0;
      }
    </style>
  </defs>
  <g id="Layer_1-2" data-name="Layer 1">
    <g>
      <path class="cls-2" d="M97.29,9.22l63.87,110.62c1.71,2.75,2.61,5.93,2.61,9.17,0,3.06-.8,6.07-2.34,8.72-3.09,5.34-8.76,8.66-14.93,8.72h-.02s-.07,0-.07,0H17.65c-.07,0-.14,0-.21,0-9.63,0-17.44-7.81-17.44-17.44,0-3.23,.89-6.38,2.58-9.13L66.7,8.83c3.1-5.45,8.89-8.83,15.19-8.83s12.37,3.56,15.4,9.22Z"/>
      <path class="cls-1" d="M146.26,131.54h.05s.06,0,.06,0c.89-.01,1.71-.5,2.15-1.27,.22-.38,.33-.81,.33-1.26,0-.49-.14-.96-.4-1.37l-.05-.07L84.21,16.4l-.04-.08c-.44-.86-1.32-1.4-2.29-1.4s-1.78,.5-2.23,1.31L15.36,127.59l-.04,.07c-.26,.41-.4,.88-.4,1.36,0,1.4,1.13,2.52,2.52,2.52,.02,0,.04,0,.06,0h.06s128.7,0,128.7,0h0ZM81.89,11.56c2.3,0,4.3,1.32,5.27,3.24l32.03,55.47,32.07,55.54c.6,.92,.95,2.02,.95,3.2,0,1.07-.29,2.07-.78,2.94-1.02,1.75-2.91,2.95-5.09,2.95h-.02s0,0,0,0H17.56s-.08,0-.12,0c-3.25,0-5.88-2.63-5.88-5.88,0-1.17,.34-2.26,.93-3.17l32.08-55.57L76.73,14.58c1.01-1.8,2.94-3.01,5.15-3.01Z"/>
      <path class="cls-1" d="M76.59,88.28l-1.55-23.12c-.28-4.5-.43-7.75-.43-9.71,0-2.67,.69-4.75,2.09-6.25,1.4-1.5,3.23-2.24,5.51-2.24,2.77,0,4.62,.96,5.54,2.87,.94,1.91,1.4,4.68,1.4,8.28,0,2.13-.12,4.29-.33,6.48l-2.08,23.8c-.23,2.84-.71,5.01-1.45,6.53-.73,1.5-1.95,2.26-3.66,2.26s-2.94-.73-3.61-2.19c-.66-1.47-1.15-3.69-1.43-6.7h0Zm5.34,31.8c-1.96,0-3.68-.64-5.13-1.91-1.47-1.27-2.19-3.05-2.19-5.34,0-2,.69-3.69,2.09-5.1,1.4-1.4,3.1-2.09,5.13-2.09s3.74,.69,5.18,2.09c1.43,1.4,2.14,3.1,2.14,5.1,0,2.26-.73,4.04-2.16,5.33-1.45,1.29-3.13,1.93-5.06,1.93Z"/>
    </g>
  </g>
</svg>