<?xml version="1.0" encoding="UTF-8"?>
<svg id="Layer_2" data-name="Layer 2" xmlns="http://www.w3.org/2000/svg" width="98.99" height="98.99" viewBox="0 0 98.99 98.99">
  <defs>
    <style>
      .cls-1 {
        fill: #c1c6cd;
      }
    </style>
  </defs>
  <g id="Layer_1-2" data-name="Layer 1">
    <path class="cls-1" d="m79.38,0H19.61C8.78,0,0,8.78,0,19.61v59.77c0,10.83,8.78,19.61,19.61,19.61h59.77c10.83,0,19.61-8.78,19.61-19.61V19.61c0-10.83-8.78-19.61-19.61-19.61Zm-36.97,61.2c-3.99,3.25-8.6,4.88-13.82,4.88-3.28,0-6.24-.7-8.88-2.11-2.64-1.4-4.72-3.38-6.22-5.92-1.51-2.54-2.26-5.41-2.26-8.61,0-2.3.43-4.46,1.3-6.5.87-2.04,2.06-3.79,3.57-5.26,1.51-1.47,3.33-2.64,5.46-3.5,2.13-.86,4.41-1.29,6.84-1.29,2.69,0,5.07.4,7.15,1.19,2.07.8,3.99,1.97,5.77,3.51l-5.18,6.23c-1.19-.99-2.39-1.74-3.6-2.23-1.21-.49-2.58-.74-4.09-.74-2.3,0-4.24.84-5.81,2.52-1.57,1.68-2.36,3.74-2.36,6.19,0,2.6.81,4.75,2.44,6.45,1.63,1.7,3.7,2.54,6.22,2.54,2.06,0,3.77-.46,5.12-1.38v-4.01h-6.35v-6.39h14.69v14.41Zm13.96,4.24h-8.84v-31.92h8.84v31.92Zm31.41-24.15h-16.69v5.41h15.09v7.34h-15.09v11.4h-8.84v-31.92h25.53v7.77Z"/>
  </g>
</svg>